G04 #@! TF.FileFunction,Soldermask,Bot*
%FSLAX46Y46*%
G04 Gerber Fmt 4.6, Leading zero omitted, Abs format (unit mm)*
G04 Created by KiCad (PCBNEW 4.0.4-1.fc25-product) date Wed Feb 22 19:12:29 2017*
%MOMM*%
%LPD*%
G01*
G04 APERTURE LIST*
%ADD10C,0.100000*%
%ADD11R,1.700000X1.700000*%
%ADD12C,1.700000*%
%ADD13O,2.000000X2.000000*%
%ADD14R,2.127200X2.127200*%
%ADD15O,2.127200X2.127200*%
%ADD16R,2.127200X2.432000*%
%ADD17O,2.127200X2.432000*%
%ADD18C,1.924000*%
%ADD19O,2.432000X2.127200*%
%ADD20R,2.432000X2.432000*%
%ADD21O,2.432000X2.432000*%
%ADD22R,2.000000X2.000000*%
G04 APERTURE END LIST*
D10*
D11*
X146050000Y-67945000D03*
D12*
X148550000Y-67945000D03*
D13*
X163830000Y-57150000D03*
X161290000Y-57150000D03*
X158750000Y-57150000D03*
X156210000Y-57150000D03*
X153670000Y-57150000D03*
X151130000Y-57150000D03*
X148590000Y-57150000D03*
X146050000Y-57150000D03*
X143510000Y-57150000D03*
X140970000Y-57150000D03*
X138430000Y-57150000D03*
X135890000Y-57150000D03*
X133350000Y-57150000D03*
X130810000Y-57150000D03*
X130810000Y-64770000D03*
X133350000Y-64770000D03*
X135890000Y-64770000D03*
X138430000Y-64770000D03*
X140970000Y-64770000D03*
X143510000Y-64770000D03*
X146050000Y-64770000D03*
X148590000Y-64770000D03*
X151130000Y-64770000D03*
X153670000Y-64770000D03*
X156210000Y-64770000D03*
X158750000Y-64770000D03*
X161290000Y-64770000D03*
X163830000Y-64770000D03*
D11*
X167005000Y-76200000D03*
D12*
X169505000Y-76200000D03*
D14*
X160655000Y-71120000D03*
D15*
X163195000Y-71120000D03*
X163195000Y-73660000D03*
X160655000Y-73660000D03*
X163195000Y-76200000D03*
X160655000Y-76200000D03*
D16*
X102235000Y-64770000D03*
D17*
X99695000Y-64770000D03*
X97155000Y-64770000D03*
X94615000Y-64770000D03*
X92075000Y-64770000D03*
X89535000Y-64770000D03*
X86995000Y-64770000D03*
X84455000Y-64770000D03*
X81915000Y-64770000D03*
X79375000Y-64770000D03*
X76835000Y-64770000D03*
X74295000Y-64770000D03*
X71755000Y-64770000D03*
D16*
X97155000Y-67310000D03*
D17*
X94615000Y-67310000D03*
X92075000Y-67310000D03*
X89535000Y-67310000D03*
X86995000Y-67310000D03*
X84455000Y-67310000D03*
X81915000Y-67310000D03*
X79375000Y-67310000D03*
X76835000Y-67310000D03*
D18*
X97155000Y-69850000D03*
X97155000Y-74930000D03*
X94615000Y-69850000D03*
X94615000Y-74930000D03*
X92075000Y-69850000D03*
X92075000Y-74930000D03*
X89535000Y-69850000D03*
X89535000Y-74930000D03*
X86995000Y-69850000D03*
X86995000Y-74930000D03*
X84455000Y-69850000D03*
X84455000Y-74930000D03*
X81915000Y-69850000D03*
X81915000Y-74930000D03*
X79375000Y-69850000D03*
X79375000Y-74930000D03*
X76835000Y-69850000D03*
X76835000Y-74930000D03*
X97155000Y-62230000D03*
X97155000Y-57150000D03*
X94615000Y-62230000D03*
X94615000Y-57150000D03*
X92075000Y-62230000D03*
X92075000Y-57150000D03*
X89535000Y-62230000D03*
X89535000Y-57150000D03*
X81915000Y-62230000D03*
X81915000Y-57150000D03*
X79375000Y-62230000D03*
X79375000Y-57150000D03*
X76835000Y-62230000D03*
X76835000Y-57150000D03*
X169436051Y-73551051D03*
X165843949Y-69958949D03*
D19*
X173355000Y-63500000D03*
X173355000Y-66040000D03*
X173355000Y-68580000D03*
X173355000Y-71120000D03*
X173355000Y-73660000D03*
X173355000Y-76200000D03*
D20*
X173355000Y-58420000D03*
D21*
X173355000Y-55880000D03*
D20*
X71755000Y-58420000D03*
D21*
X71755000Y-55880000D03*
D22*
X126365000Y-57150000D03*
D13*
X108585000Y-64770000D03*
X123825000Y-57150000D03*
X111125000Y-64770000D03*
X121285000Y-57150000D03*
X113665000Y-64770000D03*
X118745000Y-57150000D03*
X116205000Y-64770000D03*
X116205000Y-57150000D03*
X118745000Y-64770000D03*
X113665000Y-57150000D03*
X121285000Y-64770000D03*
X111125000Y-57150000D03*
X123825000Y-64770000D03*
X108585000Y-57150000D03*
X126365000Y-64770000D03*
D22*
X126365000Y-67310000D03*
D13*
X108585000Y-74930000D03*
X123825000Y-67310000D03*
X111125000Y-74930000D03*
X121285000Y-67310000D03*
X113665000Y-74930000D03*
X118745000Y-67310000D03*
X116205000Y-74930000D03*
X116205000Y-67310000D03*
X118745000Y-74930000D03*
X113665000Y-67310000D03*
X121285000Y-74930000D03*
X111125000Y-67310000D03*
X123825000Y-74930000D03*
X108585000Y-67310000D03*
X126365000Y-74930000D03*
D19*
X168275000Y-68580000D03*
X168275000Y-66040000D03*
X168275000Y-63500000D03*
X168275000Y-60960000D03*
X173355000Y-60960000D03*
X71755000Y-60960000D03*
M02*
