M48
;DRILL file {KiCad 4.0.4-1.fc25-product} date Wed Feb 22 19:12:42 2017
;FORMAT={-:-/ absolute / inch / decimal}
FMAT,2
INCH,TZ
T1C0.013
T2C0.030
T3C0.031
T4C0.032
T5C0.040
%
G90
G05
M72
T1
X3.75Y-2.4
X3.9Y-2.425
X3.925Y-2.9
X3.975Y-2.85
X4.05Y-2.875
X4.15Y-2.725
X4.175Y-2.7
X4.525Y-2.7
X4.55Y-2.725
X4.825Y-2.325
X5.075Y-2.375
X5.075Y-2.525
X5.1Y-2.35
X5.1Y-2.4
X5.15Y-2.675
X5.175Y-2.3
X5.2Y-2.325
X5.225Y-2.35
X5.325Y-2.475
X5.35Y-2.4
X5.425Y-2.45
X5.425Y-2.6
X5.45Y-2.4
X5.475Y-2.925
X5.5Y-2.9
X5.525Y-2.425
X5.525Y-2.95
X5.55Y-2.475
X5.575Y-2.375
X5.95Y-2.4
X6.Y-2.75
X6.Y-2.875
X6.05Y-2.75
X6.075Y-2.85
X6.1Y-2.75
X6.125Y-2.825
X6.175Y-2.75
X6.175Y-2.8
X6.225Y-2.925
X6.25Y-2.7
T2
X3.025Y-2.25
X3.025Y-2.45
X3.025Y-2.75
X3.025Y-2.95
X3.125Y-2.25
X3.125Y-2.45
X3.125Y-2.75
X3.125Y-2.95
X3.225Y-2.25
X3.225Y-2.45
X3.225Y-2.75
X3.225Y-2.95
X3.325Y-2.75
X3.325Y-2.95
X3.425Y-2.75
X3.425Y-2.95
X3.525Y-2.25
X3.525Y-2.45
X3.525Y-2.75
X3.525Y-2.95
X3.625Y-2.25
X3.625Y-2.45
X3.625Y-2.75
X3.625Y-2.95
X3.725Y-2.25
X3.725Y-2.45
X3.725Y-2.75
X3.725Y-2.95
X3.825Y-2.25
X3.825Y-2.45
X3.825Y-2.75
X3.825Y-2.95
X6.5293Y-2.7543
X6.6707Y-2.8957
T3
X4.275Y-2.25
X4.275Y-2.55
X4.275Y-2.65
X4.275Y-2.95
X4.375Y-2.25
X4.375Y-2.55
X4.375Y-2.65
X4.375Y-2.95
X4.475Y-2.25
X4.475Y-2.55
X4.475Y-2.65
X4.475Y-2.95
X4.575Y-2.25
X4.575Y-2.55
X4.575Y-2.65
X4.575Y-2.95
X4.675Y-2.25
X4.675Y-2.55
X4.675Y-2.65
X4.675Y-2.95
X4.775Y-2.25
X4.775Y-2.55
X4.775Y-2.65
X4.775Y-2.95
X4.875Y-2.25
X4.875Y-2.55
X4.875Y-2.65
X4.875Y-2.95
X4.975Y-2.25
X4.975Y-2.55
X4.975Y-2.65
X4.975Y-2.95
X5.15Y-2.25
X5.15Y-2.55
X5.25Y-2.25
X5.25Y-2.55
X5.35Y-2.25
X5.35Y-2.55
X5.45Y-2.25
X5.45Y-2.55
X5.55Y-2.25
X5.55Y-2.55
X5.65Y-2.25
X5.65Y-2.55
X5.75Y-2.25
X5.75Y-2.55
X5.75Y-2.675
X5.85Y-2.25
X5.85Y-2.55
X5.95Y-2.25
X5.95Y-2.55
X6.05Y-2.25
X6.05Y-2.55
X6.15Y-2.25
X6.15Y-2.55
X6.25Y-2.25
X6.25Y-2.55
X6.35Y-2.25
X6.35Y-2.55
X6.45Y-2.25
X6.45Y-2.55
X6.575Y-3.
T4
X5.8484Y-2.675
X6.6734Y-3.
T5
X2.825Y-2.2
X2.825Y-2.3
X2.825Y-2.4
X2.825Y-2.55
X2.925Y-2.55
X3.025Y-2.55
X3.025Y-2.65
X3.125Y-2.55
X3.125Y-2.65
X3.225Y-2.55
X3.225Y-2.65
X3.325Y-2.55
X3.325Y-2.65
X3.425Y-2.55
X3.425Y-2.65
X3.525Y-2.55
X3.525Y-2.65
X3.625Y-2.55
X3.625Y-2.65
X3.725Y-2.55
X3.725Y-2.65
X3.825Y-2.55
X3.825Y-2.65
X3.925Y-2.55
X4.025Y-2.55
X6.325Y-2.8
X6.325Y-2.9
X6.325Y-3.
X6.425Y-2.8
X6.425Y-2.9
X6.425Y-3.
X6.625Y-2.4
X6.625Y-2.5
X6.625Y-2.6
X6.625Y-2.7
X6.825Y-2.2
X6.825Y-2.3
X6.825Y-2.4
X6.825Y-2.5
X6.825Y-2.6
X6.825Y-2.7
X6.825Y-2.8
X6.825Y-2.9
X6.825Y-3.
T0
M30
