M48
;DRILL file {KiCad 4.0.4-1.fc25-product} date Wed Feb 22 19:13:35 2017
;FORMAT={-:-/ absolute / inch / decimal}
FMAT,2
INCH,TZ
T1C0.013
T2C0.040
%
G90
G05
M72
T1
X7.425Y-2.3
X7.425Y-3.
X7.525Y-2.325
X7.525Y-2.975
X7.625Y-2.35
X7.625Y-2.95
X7.725Y-2.925
X7.825Y-2.9
X7.925Y-2.375
X7.925Y-2.875
X8.025Y-2.4
X8.025Y-2.85
X8.125Y-2.425
X8.125Y-2.825
X8.7Y-2.275
X8.8Y-2.3
X8.8Y-3.
X8.9Y-2.325
X8.9Y-2.975
X9.Y-2.35
X9.Y-2.95
X9.1Y-2.925
X9.2Y-2.9
X9.3Y-2.375
X9.3Y-2.875
X9.4Y-2.85
X9.5Y-2.825
X10.Y-2.4
X10.05Y-2.425
X10.1Y-2.275
X10.1Y-3.025
X10.2Y-2.3
X10.2Y-3.
X10.3Y-2.325
X10.3Y-2.975
X10.4Y-2.35
X10.4Y-2.95
X10.5Y-2.925
X10.6Y-2.9
X10.7Y-2.375
X10.7Y-2.875
X10.8Y-2.4
X10.8Y-2.85
X10.9Y-2.425
X10.9Y-2.825
X11.5Y-2.275
X11.6Y-2.3
X11.6Y-3.
X11.7Y-2.325
X11.7Y-2.975
X11.8Y-2.35
X11.8Y-2.95
X11.875Y-2.45
X11.9Y-2.925
X12.Y-2.9
X12.1Y-2.375
X12.1Y-2.875
X12.2Y-2.4
X12.2Y-2.85
X12.3Y-2.425
X12.3Y-2.825
X12.9Y-2.275
X13.Y-2.3
X13.Y-3.
X13.1Y-2.325
X13.1Y-2.975
X13.2Y-2.35
X13.2Y-2.95
X13.3Y-2.925
X13.4Y-2.9
X13.5Y-2.375
X13.5Y-2.875
X13.6Y-2.4
X13.6Y-2.85
X13.7Y-2.425
X13.7Y-2.825
T2
X7.2375Y-2.2169
X7.2375Y-3.0831
X7.3Y-2.45
X7.3Y-2.55
X7.3Y-2.65
X7.3Y-2.75
X7.3375Y-2.2169
X7.3375Y-3.0831
X7.4375Y-2.2169
X7.4375Y-3.0831
X7.5375Y-2.2169
X7.5375Y-3.0831
X7.6375Y-2.2169
X7.6375Y-3.0831
X7.7375Y-2.2169
X7.7375Y-3.0831
X7.8375Y-2.2169
X7.8375Y-3.0831
X7.9375Y-2.2169
X7.9375Y-3.0831
X8.0375Y-2.2169
X8.0375Y-3.0831
X8.6625Y-2.2169
X8.6625Y-3.0831
X8.7625Y-2.2169
X8.7625Y-3.0831
X8.8625Y-2.2169
X8.8625Y-3.0831
X8.9625Y-2.2169
X8.9625Y-3.0831
X9.0625Y-2.2169
X9.0625Y-3.0831
X9.1625Y-2.2169
X9.1625Y-3.0831
X9.2625Y-2.2169
X9.2625Y-3.0831
X9.3625Y-2.2169
X9.3625Y-3.0831
X9.4625Y-2.2169
X9.4625Y-3.0831
X9.9Y-2.6
X10.Y-2.6
X10.0875Y-2.2169
X10.0875Y-3.0831
X10.1Y-2.6
X10.1Y-2.7
X10.1875Y-2.2169
X10.1875Y-3.0831
X10.2Y-2.6
X10.2Y-2.7
X10.2875Y-2.2169
X10.2875Y-3.0831
X10.3Y-2.6
X10.3Y-2.7
X10.3875Y-2.2169
X10.3875Y-3.0831
X10.4Y-2.6
X10.4Y-2.7
X10.4875Y-2.2169
X10.4875Y-3.0831
X10.5Y-2.6
X10.5Y-2.7
X10.5875Y-2.2169
X10.5875Y-3.0831
X10.6Y-2.6
X10.6Y-2.7
X10.6875Y-2.2169
X10.6875Y-3.0831
X10.7Y-2.6
X10.7Y-2.7
X10.7875Y-2.2169
X10.7875Y-3.0831
X10.8Y-2.6
X10.8Y-2.7
X10.8875Y-2.2169
X10.8875Y-3.0831
X10.9Y-2.6
X10.9Y-2.7
X11.Y-2.6
X11.1Y-2.6
X11.5125Y-2.2169
X11.5125Y-3.0831
X11.6125Y-2.2169
X11.6125Y-3.0831
X11.7125Y-2.2169
X11.7125Y-3.0831
X11.8125Y-2.2169
X11.8125Y-3.0831
X11.9125Y-2.2169
X11.9125Y-3.0831
X12.0125Y-2.2169
X12.0125Y-3.0831
X12.1125Y-2.2169
X12.1125Y-3.0831
X12.2125Y-2.2169
X12.2125Y-3.0831
X12.3125Y-2.2169
X12.3125Y-3.0831
X12.9375Y-2.2169
X12.9375Y-3.0831
X13.0375Y-2.2169
X13.0375Y-3.0831
X13.1375Y-2.2169
X13.1375Y-3.0831
X13.2375Y-2.2169
X13.2375Y-3.0831
X13.3375Y-2.2169
X13.3375Y-3.0831
X13.4375Y-2.2169
X13.4375Y-3.0831
X13.5375Y-2.2169
X13.5375Y-3.0831
X13.6375Y-2.2169
X13.6375Y-3.0831
X13.7375Y-2.2169
X13.7375Y-3.0831
X14.3625Y-2.2169
X14.3625Y-3.0831
X14.4625Y-2.2169
X14.4625Y-3.0831
X14.5625Y-2.2169
X14.5625Y-3.0831
X14.6625Y-2.2169
X14.6625Y-3.0831
X14.7625Y-2.2169
X14.7625Y-3.0831
X14.8625Y-2.2169
X14.8625Y-3.0831
X14.9625Y-2.2169
X14.9625Y-3.0831
X15.0625Y-2.2169
X15.0625Y-3.0831
X15.1625Y-2.2169
X15.1625Y-3.0831
T0
M30
