G04 #@! TF.FileFunction,Copper,L2,Bot,Signal*
%FSLAX46Y46*%
G04 Gerber Fmt 4.6, Leading zero omitted, Abs format (unit mm)*
G04 Created by KiCad (PCBNEW 4.0.4-1.fc25-product) date Wed Feb 22 19:13:30 2017*
%MOMM*%
%LPD*%
G01*
G04 APERTURE LIST*
%ADD10C,0.100000*%
%ADD11O,2.032000X1.727200*%
%ADD12C,1.778000*%
%ADD13R,1.727200X2.032000*%
%ADD14O,1.727200X2.032000*%
%ADD15C,0.685800*%
%ADD16C,0.152400*%
%ADD17C,0.254000*%
G04 APERTURE END LIST*
D10*
D11*
X185420000Y-69850000D03*
X185420000Y-67310000D03*
X185420000Y-64770000D03*
X185420000Y-62230000D03*
D12*
X183832500Y-78310000D03*
X186372500Y-78310000D03*
X188912500Y-78310000D03*
X191452500Y-78310000D03*
X193992500Y-78310000D03*
X196532500Y-78310000D03*
X199072500Y-78310000D03*
X201612500Y-78310000D03*
X204152500Y-78310000D03*
X183832500Y-56310000D03*
X186372500Y-56310000D03*
X188912500Y-56310000D03*
X191452500Y-56310000D03*
X193992500Y-56310000D03*
X196532500Y-56310000D03*
X199072500Y-56310000D03*
X201612500Y-56310000D03*
X204152500Y-56310000D03*
X220027500Y-78310000D03*
X222567500Y-78310000D03*
X225107500Y-78310000D03*
X227647500Y-78310000D03*
X230187500Y-78310000D03*
X232727500Y-78310000D03*
X235267500Y-78310000D03*
X237807500Y-78310000D03*
X240347500Y-78310000D03*
X220027500Y-56310000D03*
X222567500Y-56310000D03*
X225107500Y-56310000D03*
X227647500Y-56310000D03*
X230187500Y-56310000D03*
X232727500Y-56310000D03*
X235267500Y-56310000D03*
X237807500Y-56310000D03*
X240347500Y-56310000D03*
X364807500Y-78310000D03*
X367347500Y-78310000D03*
X369887500Y-78310000D03*
X372427500Y-78310000D03*
X374967500Y-78310000D03*
X377507500Y-78310000D03*
X380047500Y-78310000D03*
X382587500Y-78310000D03*
X385127500Y-78310000D03*
X364807500Y-56310000D03*
X367347500Y-56310000D03*
X369887500Y-56310000D03*
X372427500Y-56310000D03*
X374967500Y-56310000D03*
X377507500Y-56310000D03*
X380047500Y-56310000D03*
X382587500Y-56310000D03*
X385127500Y-56310000D03*
X256222500Y-78310000D03*
X258762500Y-78310000D03*
X261302500Y-78310000D03*
X263842500Y-78310000D03*
X266382500Y-78310000D03*
X268922500Y-78310000D03*
X271462500Y-78310000D03*
X274002500Y-78310000D03*
X276542500Y-78310000D03*
X256222500Y-56310000D03*
X258762500Y-56310000D03*
X261302500Y-56310000D03*
X263842500Y-56310000D03*
X266382500Y-56310000D03*
X268922500Y-56310000D03*
X271462500Y-56310000D03*
X274002500Y-56310000D03*
X276542500Y-56310000D03*
X292417500Y-78310000D03*
X294957500Y-78310000D03*
X297497500Y-78310000D03*
X300037500Y-78310000D03*
X302577500Y-78310000D03*
X305117500Y-78310000D03*
X307657500Y-78310000D03*
X310197500Y-78310000D03*
X312737500Y-78310000D03*
X292417500Y-56310000D03*
X294957500Y-56310000D03*
X297497500Y-56310000D03*
X300037500Y-56310000D03*
X302577500Y-56310000D03*
X305117500Y-56310000D03*
X307657500Y-56310000D03*
X310197500Y-56310000D03*
X312737500Y-56310000D03*
X328612500Y-78310000D03*
X331152500Y-78310000D03*
X333692500Y-78310000D03*
X336232500Y-78310000D03*
X338772500Y-78310000D03*
X341312500Y-78310000D03*
X343852500Y-78310000D03*
X346392500Y-78310000D03*
X348932500Y-78310000D03*
X328612500Y-56310000D03*
X331152500Y-56310000D03*
X333692500Y-56310000D03*
X336232500Y-56310000D03*
X338772500Y-56310000D03*
X341312500Y-56310000D03*
X343852500Y-56310000D03*
X346392500Y-56310000D03*
X348932500Y-56310000D03*
D13*
X251460000Y-66040000D03*
D14*
X254000000Y-66040000D03*
X256540000Y-66040000D03*
X259080000Y-66040000D03*
X261620000Y-66040000D03*
X264160000Y-66040000D03*
X266700000Y-66040000D03*
X269240000Y-66040000D03*
X271780000Y-66040000D03*
X274320000Y-66040000D03*
X276860000Y-66040000D03*
X279400000Y-66040000D03*
X281940000Y-66040000D03*
D13*
X256540000Y-68580000D03*
D14*
X259080000Y-68580000D03*
X261620000Y-68580000D03*
X264160000Y-68580000D03*
X266700000Y-68580000D03*
X269240000Y-68580000D03*
X271780000Y-68580000D03*
X274320000Y-68580000D03*
X276860000Y-68580000D03*
D15*
X256540000Y-76835000D03*
X188595000Y-76200000D03*
X223520000Y-76200000D03*
X330200000Y-76200000D03*
X294640000Y-76200000D03*
X259080000Y-76200000D03*
X191135000Y-75565000D03*
X226060000Y-75565000D03*
X332740000Y-75565000D03*
X297180000Y-75565000D03*
X261620000Y-75565000D03*
X193675000Y-74930000D03*
X228600000Y-74930000D03*
X335280000Y-74930000D03*
X299720000Y-74930000D03*
X264160000Y-74930000D03*
X196215000Y-74295000D03*
X231140000Y-74295000D03*
X337820000Y-74295000D03*
X302260000Y-74295000D03*
X266700000Y-74295000D03*
X198755000Y-73660000D03*
X233680000Y-73660000D03*
X340360000Y-73660000D03*
X304800000Y-73660000D03*
X269240000Y-73660000D03*
X201295000Y-73025000D03*
X236220000Y-73025000D03*
X342900000Y-73025000D03*
X307340000Y-73025000D03*
X271780000Y-73025000D03*
X203835000Y-72390000D03*
X238760000Y-72390000D03*
X345440000Y-72390000D03*
X309880000Y-72390000D03*
X274320000Y-72390000D03*
X206375000Y-71755000D03*
X241300000Y-71755000D03*
X347980000Y-71755000D03*
X312420000Y-71755000D03*
X276860000Y-71755000D03*
X220980000Y-57785000D03*
X327660000Y-57785000D03*
X292100000Y-57785000D03*
X256540000Y-57785000D03*
X188595000Y-58420000D03*
X223520000Y-58420000D03*
X330200000Y-58420000D03*
X294640000Y-58420000D03*
X259080000Y-58420000D03*
X191135000Y-59055000D03*
X226060000Y-59055000D03*
X332740000Y-59055000D03*
X297180000Y-59055000D03*
X261620000Y-59055000D03*
X193675000Y-59690000D03*
X228600000Y-59690000D03*
X335280000Y-59690000D03*
X299720000Y-59690000D03*
X264160000Y-59690000D03*
X201295000Y-60325000D03*
X236220000Y-60325000D03*
X342900000Y-60325000D03*
X307340000Y-60325000D03*
X271780000Y-60325000D03*
X203835000Y-60960000D03*
X254000000Y-60960000D03*
X345440000Y-60960000D03*
X309880000Y-60960000D03*
X274320000Y-60960000D03*
X206375000Y-61595000D03*
X255270000Y-61595000D03*
X347980000Y-61595000D03*
X312420000Y-61595000D03*
X276860000Y-61595000D03*
X301625000Y-62230000D03*
D16*
X256540000Y-76835000D02*
X256540000Y-78310000D01*
X256540000Y-68580000D02*
X256540000Y-76835000D01*
X188595000Y-76200000D02*
X187007500Y-76200000D01*
X186372500Y-76835000D02*
X186372500Y-78310000D01*
X187007500Y-76200000D02*
X186372500Y-76835000D01*
X223520000Y-76200000D02*
X222567500Y-77152500D01*
X222567500Y-77152500D02*
X222567500Y-78310000D01*
X330200000Y-76200000D02*
X330517500Y-76200000D01*
X331152500Y-76835000D02*
X331152500Y-78310000D01*
X330517500Y-76200000D02*
X331152500Y-76835000D01*
X294640000Y-78310000D02*
X294640000Y-76200000D01*
X259080000Y-76200000D02*
X259080000Y-78310000D01*
X259080000Y-68580000D02*
X259080000Y-76200000D01*
X191135000Y-75565000D02*
X190182500Y-75565000D01*
X188912500Y-76835000D02*
X188912500Y-78310000D01*
X190182500Y-75565000D02*
X188912500Y-76835000D01*
X226060000Y-75565000D02*
X225107500Y-76517500D01*
X225107500Y-76517500D02*
X225107500Y-78310000D01*
X332740000Y-75565000D02*
X333057500Y-75565000D01*
X333692500Y-76200000D02*
X333692500Y-78310000D01*
X333057500Y-75565000D02*
X333692500Y-76200000D01*
X297180000Y-78310000D02*
X297180000Y-75565000D01*
X261620000Y-75565000D02*
X261620000Y-78310000D01*
X261620000Y-68580000D02*
X261620000Y-75565000D01*
X193675000Y-74930000D02*
X192722500Y-74930000D01*
X191452500Y-76200000D02*
X191452500Y-78310000D01*
X192722500Y-74930000D02*
X191452500Y-76200000D01*
X228600000Y-74930000D02*
X227647500Y-75882500D01*
X227647500Y-75882500D02*
X227647500Y-78310000D01*
X335280000Y-74930000D02*
X336232500Y-75882500D01*
X336232500Y-75882500D02*
X336232500Y-78310000D01*
X299720000Y-78310000D02*
X299720000Y-74930000D01*
X264160000Y-74930000D02*
X264160000Y-78310000D01*
X264160000Y-68580000D02*
X264160000Y-74930000D01*
X196215000Y-74295000D02*
X195580000Y-74295000D01*
X193992500Y-75882500D02*
X193992500Y-78310000D01*
X195580000Y-74295000D02*
X193992500Y-75882500D01*
X231140000Y-74295000D02*
X230187500Y-75247500D01*
X230187500Y-75247500D02*
X230187500Y-78310000D01*
X337820000Y-74295000D02*
X338772500Y-75247500D01*
X338772500Y-75247500D02*
X338772500Y-78310000D01*
X302260000Y-78310000D02*
X302260000Y-74295000D01*
X266700000Y-74295000D02*
X266700000Y-78310000D01*
X266700000Y-68580000D02*
X266700000Y-74295000D01*
X198755000Y-73660000D02*
X198120000Y-73660000D01*
X196532500Y-75247500D02*
X196532500Y-78310000D01*
X198120000Y-73660000D02*
X196532500Y-75247500D01*
X233680000Y-73660000D02*
X232727500Y-74612500D01*
X232727500Y-74612500D02*
X232727500Y-78310000D01*
X340360000Y-73660000D02*
X341312500Y-74612500D01*
X341312500Y-74612500D02*
X341312500Y-78310000D01*
X304800000Y-78310000D02*
X304800000Y-73660000D01*
X269240000Y-73660000D02*
X269240000Y-78310000D01*
X269240000Y-68580000D02*
X269240000Y-73660000D01*
X201295000Y-73025000D02*
X200660000Y-73025000D01*
X199072500Y-74612500D02*
X199072500Y-78310000D01*
X200660000Y-73025000D02*
X199072500Y-74612500D01*
X236220000Y-73025000D02*
X235267500Y-73977500D01*
X235267500Y-73977500D02*
X235267500Y-78310000D01*
X342900000Y-73025000D02*
X343852500Y-73977500D01*
X343852500Y-73977500D02*
X343852500Y-78310000D01*
X307340000Y-78310000D02*
X307340000Y-73025000D01*
X271780000Y-73025000D02*
X271780000Y-78310000D01*
X271780000Y-68580000D02*
X271780000Y-73025000D01*
X203835000Y-72390000D02*
X203200000Y-72390000D01*
X201612500Y-73977500D02*
X201612500Y-78310000D01*
X203200000Y-72390000D02*
X201612500Y-73977500D01*
X238760000Y-72390000D02*
X237807500Y-73342500D01*
X237807500Y-73342500D02*
X237807500Y-78310000D01*
X345440000Y-72390000D02*
X346392500Y-73342500D01*
X346392500Y-73342500D02*
X346392500Y-78310000D01*
X309880000Y-78310000D02*
X309880000Y-72390000D01*
X274320000Y-72390000D02*
X274320000Y-78310000D01*
X274320000Y-68580000D02*
X274320000Y-72390000D01*
X206375000Y-71755000D02*
X205740000Y-71755000D01*
X204152500Y-73342500D02*
X204152500Y-78310000D01*
X205740000Y-71755000D02*
X204152500Y-73342500D01*
X241300000Y-71755000D02*
X240347500Y-72707500D01*
X240347500Y-72707500D02*
X240347500Y-78310000D01*
X347980000Y-71755000D02*
X348932500Y-72707500D01*
X348932500Y-72707500D02*
X348932500Y-78310000D01*
X312420000Y-78310000D02*
X312420000Y-71755000D01*
X276860000Y-68580000D02*
X276860000Y-71755000D01*
X276860000Y-71755000D02*
X276860000Y-78310000D01*
X220980000Y-57785000D02*
X220980000Y-57262500D01*
X220980000Y-57262500D02*
X220027500Y-56310000D01*
X327660000Y-57785000D02*
X327660000Y-57262500D01*
X327660000Y-57262500D02*
X328612500Y-56310000D01*
X292100000Y-56310000D02*
X292100000Y-57785000D01*
X256540000Y-57785000D02*
X256540000Y-56310000D01*
X256540000Y-66040000D02*
X256540000Y-57785000D01*
X188595000Y-58420000D02*
X188482500Y-58420000D01*
X188482500Y-58420000D02*
X186372500Y-56310000D01*
X223520000Y-58420000D02*
X223520000Y-57262500D01*
X223520000Y-57262500D02*
X222567500Y-56310000D01*
X330200000Y-58420000D02*
X330200000Y-57262500D01*
X330200000Y-57262500D02*
X331152500Y-56310000D01*
X294640000Y-56310000D02*
X294640000Y-58420000D01*
X259080000Y-58420000D02*
X259080000Y-56310000D01*
X259080000Y-66040000D02*
X259080000Y-58420000D01*
X191135000Y-59055000D02*
X190500000Y-59055000D01*
X188912500Y-57467500D02*
X188912500Y-56310000D01*
X190500000Y-59055000D02*
X188912500Y-57467500D01*
X226060000Y-59055000D02*
X226060000Y-57262500D01*
X226060000Y-57262500D02*
X225107500Y-56310000D01*
X332740000Y-59055000D02*
X332740000Y-57262500D01*
X332740000Y-57262500D02*
X333692500Y-56310000D01*
X297180000Y-56310000D02*
X297180000Y-59055000D01*
X261620000Y-59055000D02*
X261620000Y-56310000D01*
X261620000Y-66040000D02*
X261620000Y-59055000D01*
X193675000Y-59690000D02*
X193040000Y-59690000D01*
X191452500Y-58102500D02*
X191452500Y-56310000D01*
X193040000Y-59690000D02*
X191452500Y-58102500D01*
X228600000Y-59690000D02*
X228600000Y-57262500D01*
X228600000Y-57262500D02*
X227647500Y-56310000D01*
X335280000Y-59690000D02*
X335280000Y-57262500D01*
X335280000Y-57262500D02*
X336232500Y-56310000D01*
X299720000Y-56310000D02*
X299720000Y-59690000D01*
X264160000Y-59690000D02*
X264160000Y-56310000D01*
X264160000Y-66040000D02*
X264160000Y-59690000D01*
X201295000Y-60325000D02*
X200025000Y-60325000D01*
X199072500Y-59372500D02*
X199072500Y-56310000D01*
X200025000Y-60325000D02*
X199072500Y-59372500D01*
X236220000Y-60325000D02*
X235902500Y-60325000D01*
X235267500Y-59690000D02*
X235267500Y-56310000D01*
X235902500Y-60325000D02*
X235267500Y-59690000D01*
X342900000Y-60325000D02*
X342900000Y-57262500D01*
X342900000Y-57262500D02*
X343852500Y-56310000D01*
X307340000Y-56310000D02*
X307340000Y-60325000D01*
X271780000Y-60325000D02*
X271780000Y-56310000D01*
X271780000Y-66040000D02*
X271780000Y-60325000D01*
X203835000Y-60960000D02*
X203200000Y-60960000D01*
X201612500Y-59372500D02*
X201612500Y-56310000D01*
X203200000Y-60960000D02*
X201612500Y-59372500D01*
X239395000Y-60325000D02*
X238442500Y-60325000D01*
X239395000Y-60325000D02*
X253365000Y-60325000D01*
X254000000Y-60960000D02*
X253365000Y-60325000D01*
X237807500Y-59690000D02*
X237807500Y-56310000D01*
X238442500Y-60325000D02*
X237807500Y-59690000D01*
X345440000Y-60960000D02*
X345440000Y-57262500D01*
X345440000Y-57262500D02*
X346392500Y-56310000D01*
X309880000Y-56310000D02*
X309880000Y-60960000D01*
X274320000Y-60960000D02*
X274320000Y-56310000D01*
X274320000Y-66040000D02*
X274320000Y-60960000D01*
X206375000Y-61595000D02*
X205740000Y-61595000D01*
X204152500Y-60007500D02*
X204152500Y-56310000D01*
X205740000Y-61595000D02*
X204152500Y-60007500D01*
X241935000Y-59690000D02*
X240982500Y-59690000D01*
X241935000Y-59690000D02*
X254635000Y-59690000D01*
X254635000Y-59690000D02*
X255270000Y-60325000D01*
X255270000Y-61595000D02*
X255270000Y-60325000D01*
X240347500Y-59055000D02*
X240347500Y-56310000D01*
X240982500Y-59690000D02*
X240347500Y-59055000D01*
X347980000Y-61595000D02*
X347980000Y-57262500D01*
X347980000Y-57262500D02*
X348932500Y-56310000D01*
X312420000Y-56310000D02*
X312420000Y-61595000D01*
X276860000Y-61595000D02*
X276860000Y-56310000D01*
X276860000Y-66040000D02*
X276860000Y-61595000D01*
D17*
X198755000Y-62230000D02*
X197485000Y-62230000D01*
X250825000Y-62230000D02*
X198755000Y-62230000D01*
X251460000Y-62865000D02*
X250825000Y-62230000D01*
X251460000Y-66040000D02*
X251460000Y-62865000D01*
X196532500Y-61277500D02*
X196532500Y-56310000D01*
X197485000Y-62230000D02*
X196532500Y-61277500D01*
X196532500Y-56310000D02*
X193992500Y-56310000D01*
X232727500Y-56310000D02*
X230187500Y-56310000D01*
X234315000Y-60960000D02*
X233045000Y-60960000D01*
X252730000Y-60960000D02*
X234315000Y-60960000D01*
X254000000Y-62230000D02*
X252730000Y-60960000D01*
X254000000Y-66040000D02*
X254000000Y-62230000D01*
X232727500Y-60642500D02*
X232727500Y-56310000D01*
X233045000Y-60960000D02*
X232727500Y-60642500D01*
X266700000Y-66040000D02*
X266700000Y-56310000D01*
D16*
X266700000Y-56310000D02*
X269240000Y-56310000D01*
D17*
X301625000Y-62230000D02*
X302260000Y-61595000D01*
X302260000Y-61595000D02*
X302260000Y-56310000D01*
D16*
X302260000Y-56310000D02*
X304800000Y-56310000D01*
D17*
X338772500Y-56310000D02*
X341312500Y-56310000D01*
X337820000Y-61595000D02*
X337820000Y-57262500D01*
X337185000Y-62230000D02*
X337820000Y-61595000D01*
X302895000Y-62230000D02*
X337185000Y-62230000D01*
X302260000Y-62865000D02*
X302895000Y-62230000D01*
X280035000Y-62865000D02*
X302260000Y-62865000D01*
X279400000Y-63500000D02*
X280035000Y-62865000D01*
X279400000Y-66040000D02*
X279400000Y-63500000D01*
X337820000Y-57262500D02*
X338772500Y-56310000D01*
D16*
X279400000Y-66040000D02*
X279400000Y-65405000D01*
D17*
X372745000Y-62230000D02*
X374332500Y-62230000D01*
X337820000Y-62230000D02*
X372745000Y-62230000D01*
X337185000Y-62865000D02*
X337820000Y-62230000D01*
X302895000Y-62865000D02*
X337185000Y-62865000D01*
X302260000Y-63500000D02*
X302895000Y-62865000D01*
X282575000Y-63500000D02*
X302260000Y-63500000D01*
X281940000Y-64135000D02*
X282575000Y-63500000D01*
X281940000Y-66040000D02*
X281940000Y-64135000D01*
X374967500Y-61595000D02*
X374967500Y-56310000D01*
X374332500Y-62230000D02*
X374967500Y-61595000D01*
X374967500Y-56310000D02*
X377507500Y-56310000D01*
M02*
