G04 #@! TF.FileFunction,Legend,Bot*
%FSLAX46Y46*%
G04 Gerber Fmt 4.6, Leading zero omitted, Abs format (unit mm)*
G04 Created by KiCad (PCBNEW 4.0.4-stable) date 02/23/17 17:34:35*
%MOMM*%
%LPD*%
G01*
G04 APERTURE LIST*
%ADD10C,0.100000*%
%ADD11C,0.254000*%
%ADD12C,0.190500*%
%ADD13C,0.150000*%
G04 APERTURE END LIST*
D10*
D11*
X82455094Y-59784619D02*
X82455094Y-58768619D01*
X82213189Y-58768619D01*
X82068047Y-58817000D01*
X81971285Y-58913762D01*
X81922904Y-59010524D01*
X81874523Y-59204048D01*
X81874523Y-59349190D01*
X81922904Y-59542714D01*
X81971285Y-59639476D01*
X82068047Y-59736238D01*
X82213189Y-59784619D01*
X82455094Y-59784619D01*
X81439094Y-59784619D02*
X81439094Y-59107286D01*
X81439094Y-58768619D02*
X81487475Y-58817000D01*
X81439094Y-58865381D01*
X81390713Y-58817000D01*
X81439094Y-58768619D01*
X81439094Y-58865381D01*
X81003665Y-59736238D02*
X80906903Y-59784619D01*
X80713379Y-59784619D01*
X80616618Y-59736238D01*
X80568237Y-59639476D01*
X80568237Y-59591095D01*
X80616618Y-59494333D01*
X80713379Y-59445952D01*
X80858522Y-59445952D01*
X80955284Y-59397571D01*
X81003665Y-59300810D01*
X81003665Y-59252429D01*
X80955284Y-59155667D01*
X80858522Y-59107286D01*
X80713379Y-59107286D01*
X80616618Y-59155667D01*
X80132808Y-59107286D02*
X80132808Y-60123286D01*
X80132808Y-59155667D02*
X80036046Y-59107286D01*
X79842523Y-59107286D01*
X79745761Y-59155667D01*
X79697380Y-59204048D01*
X79648999Y-59300810D01*
X79648999Y-59591095D01*
X79697380Y-59687857D01*
X79745761Y-59736238D01*
X79842523Y-59784619D01*
X80036046Y-59784619D01*
X80132808Y-59736238D01*
X79068427Y-59784619D02*
X79165189Y-59736238D01*
X79213570Y-59639476D01*
X79213570Y-58768619D01*
X78245952Y-59784619D02*
X78245952Y-59252429D01*
X78294333Y-59155667D01*
X78391095Y-59107286D01*
X78584618Y-59107286D01*
X78681380Y-59155667D01*
X78245952Y-59736238D02*
X78342714Y-59784619D01*
X78584618Y-59784619D01*
X78681380Y-59736238D01*
X78729761Y-59639476D01*
X78729761Y-59542714D01*
X78681380Y-59445952D01*
X78584618Y-59397571D01*
X78342714Y-59397571D01*
X78245952Y-59349190D01*
X77858904Y-59107286D02*
X77616999Y-59784619D01*
X77375095Y-59107286D02*
X77616999Y-59784619D01*
X77713761Y-60026524D01*
X77762142Y-60074905D01*
X77858904Y-60123286D01*
X76213952Y-59784619D02*
X76213952Y-58768619D01*
X76213952Y-59252429D02*
X75633381Y-59252429D01*
X75633381Y-59784619D02*
X75633381Y-58768619D01*
X74762524Y-59736238D02*
X74859286Y-59784619D01*
X75052809Y-59784619D01*
X75149571Y-59736238D01*
X75197952Y-59639476D01*
X75197952Y-59252429D01*
X75149571Y-59155667D01*
X75052809Y-59107286D01*
X74859286Y-59107286D01*
X74762524Y-59155667D01*
X74714143Y-59252429D01*
X74714143Y-59349190D01*
X75197952Y-59445952D01*
X73843286Y-59784619D02*
X73843286Y-59252429D01*
X73891667Y-59155667D01*
X73988429Y-59107286D01*
X74181952Y-59107286D01*
X74278714Y-59155667D01*
X73843286Y-59736238D02*
X73940048Y-59784619D01*
X74181952Y-59784619D01*
X74278714Y-59736238D01*
X74327095Y-59639476D01*
X74327095Y-59542714D01*
X74278714Y-59445952D01*
X74181952Y-59397571D01*
X73940048Y-59397571D01*
X73843286Y-59349190D01*
X72924048Y-59784619D02*
X72924048Y-58768619D01*
X72924048Y-59736238D02*
X73020810Y-59784619D01*
X73214333Y-59784619D01*
X73311095Y-59736238D01*
X73359476Y-59687857D01*
X73407857Y-59591095D01*
X73407857Y-59300810D01*
X73359476Y-59204048D01*
X73311095Y-59155667D01*
X73214333Y-59107286D01*
X73020810Y-59107286D01*
X72924048Y-59155667D01*
X72053191Y-59736238D02*
X72149953Y-59784619D01*
X72343476Y-59784619D01*
X72440238Y-59736238D01*
X72488619Y-59639476D01*
X72488619Y-59252429D01*
X72440238Y-59155667D01*
X72343476Y-59107286D01*
X72149953Y-59107286D01*
X72053191Y-59155667D01*
X72004810Y-59252429D01*
X72004810Y-59349190D01*
X72488619Y-59445952D01*
X71569381Y-59784619D02*
X71569381Y-59107286D01*
X71569381Y-59300810D02*
X71521000Y-59204048D01*
X71472619Y-59155667D01*
X71375857Y-59107286D01*
X71279096Y-59107286D01*
X70311477Y-58768619D02*
X69730906Y-58768619D01*
X70021191Y-59784619D02*
X70021191Y-58768619D01*
X69392239Y-59784619D02*
X69392239Y-58768619D01*
X68956811Y-59784619D02*
X68956811Y-59252429D01*
X69005192Y-59155667D01*
X69101954Y-59107286D01*
X69247096Y-59107286D01*
X69343858Y-59155667D01*
X69392239Y-59204048D01*
X68473001Y-59784619D02*
X68473001Y-59107286D01*
X68473001Y-58768619D02*
X68521382Y-58817000D01*
X68473001Y-58865381D01*
X68424620Y-58817000D01*
X68473001Y-58768619D01*
X68473001Y-58865381D01*
X68037572Y-59736238D02*
X67940810Y-59784619D01*
X67747286Y-59784619D01*
X67650525Y-59736238D01*
X67602144Y-59639476D01*
X67602144Y-59591095D01*
X67650525Y-59494333D01*
X67747286Y-59445952D01*
X67892429Y-59445952D01*
X67989191Y-59397571D01*
X68037572Y-59300810D01*
X68037572Y-59252429D01*
X67989191Y-59155667D01*
X67892429Y-59107286D01*
X67747286Y-59107286D01*
X67650525Y-59155667D01*
X66441001Y-59736238D02*
X66295858Y-59784619D01*
X66053954Y-59784619D01*
X65957192Y-59736238D01*
X65908811Y-59687857D01*
X65860430Y-59591095D01*
X65860430Y-59494333D01*
X65908811Y-59397571D01*
X65957192Y-59349190D01*
X66053954Y-59300810D01*
X66247477Y-59252429D01*
X66344239Y-59204048D01*
X66392620Y-59155667D01*
X66441001Y-59058905D01*
X66441001Y-58962143D01*
X66392620Y-58865381D01*
X66344239Y-58817000D01*
X66247477Y-58768619D01*
X66005573Y-58768619D01*
X65860430Y-58817000D01*
X65425001Y-59784619D02*
X65425001Y-59107286D01*
X65425001Y-58768619D02*
X65473382Y-58817000D01*
X65425001Y-58865381D01*
X65376620Y-58817000D01*
X65425001Y-58768619D01*
X65425001Y-58865381D01*
X64505763Y-59784619D02*
X64505763Y-58768619D01*
X64505763Y-59736238D02*
X64602525Y-59784619D01*
X64796048Y-59784619D01*
X64892810Y-59736238D01*
X64941191Y-59687857D01*
X64989572Y-59591095D01*
X64989572Y-59300810D01*
X64941191Y-59204048D01*
X64892810Y-59155667D01*
X64796048Y-59107286D01*
X64602525Y-59107286D01*
X64505763Y-59155667D01*
X63634906Y-59736238D02*
X63731668Y-59784619D01*
X63925191Y-59784619D01*
X64021953Y-59736238D01*
X64070334Y-59639476D01*
X64070334Y-59252429D01*
X64021953Y-59155667D01*
X63925191Y-59107286D01*
X63731668Y-59107286D01*
X63634906Y-59155667D01*
X63586525Y-59252429D01*
X63586525Y-59349190D01*
X64070334Y-59445952D01*
D12*
X152547000Y-58436000D02*
X152547000Y-58798857D01*
X152764714Y-58363428D02*
X152002714Y-58617428D01*
X152764714Y-58871428D01*
X152256714Y-59125429D02*
X152764714Y-59125429D01*
X152329286Y-59125429D02*
X152293000Y-59161714D01*
X152256714Y-59234286D01*
X152256714Y-59343143D01*
X152293000Y-59415714D01*
X152365571Y-59452000D01*
X152764714Y-59452000D01*
X152728429Y-60141429D02*
X152764714Y-60068858D01*
X152764714Y-59923715D01*
X152728429Y-59851143D01*
X152692143Y-59814858D01*
X152619571Y-59778572D01*
X152401857Y-59778572D01*
X152329286Y-59814858D01*
X152293000Y-59851143D01*
X152256714Y-59923715D01*
X152256714Y-60068858D01*
X152293000Y-60141429D01*
X152764714Y-60468001D02*
X152002714Y-60468001D01*
X152764714Y-60794572D02*
X152365571Y-60794572D01*
X152293000Y-60758286D01*
X152256714Y-60685715D01*
X152256714Y-60576858D01*
X152293000Y-60504286D01*
X152329286Y-60468001D01*
X152764714Y-61266287D02*
X152728429Y-61193715D01*
X152692143Y-61157430D01*
X152619571Y-61121144D01*
X152401857Y-61121144D01*
X152329286Y-61157430D01*
X152293000Y-61193715D01*
X152256714Y-61266287D01*
X152256714Y-61375144D01*
X152293000Y-61447715D01*
X152329286Y-61484001D01*
X152401857Y-61520287D01*
X152619571Y-61520287D01*
X152692143Y-61484001D01*
X152728429Y-61447715D01*
X152764714Y-61375144D01*
X152764714Y-61266287D01*
X152764714Y-61846859D02*
X152256714Y-61846859D01*
X152401857Y-61846859D02*
X152329286Y-61883144D01*
X152293000Y-61919430D01*
X152256714Y-61992001D01*
X152256714Y-62064573D01*
X152002714Y-62790286D02*
X152002714Y-63225715D01*
X152764714Y-63008001D02*
X152002714Y-63008001D01*
X152764714Y-63479715D02*
X152002714Y-63479715D01*
X152764714Y-63806286D02*
X152365571Y-63806286D01*
X152293000Y-63770000D01*
X152256714Y-63697429D01*
X152256714Y-63588572D01*
X152293000Y-63516000D01*
X152329286Y-63479715D01*
X152764714Y-64169144D02*
X152256714Y-64169144D01*
X152002714Y-64169144D02*
X152039000Y-64132858D01*
X152075286Y-64169144D01*
X152039000Y-64205429D01*
X152002714Y-64169144D01*
X152075286Y-64169144D01*
X152728429Y-64495715D02*
X152764714Y-64568286D01*
X152764714Y-64713429D01*
X152728429Y-64786001D01*
X152655857Y-64822286D01*
X152619571Y-64822286D01*
X152547000Y-64786001D01*
X152510714Y-64713429D01*
X152510714Y-64604572D01*
X152474429Y-64532001D01*
X152401857Y-64495715D01*
X152365571Y-64495715D01*
X152293000Y-64532001D01*
X152256714Y-64604572D01*
X152256714Y-64713429D01*
X152293000Y-64786001D01*
X152728429Y-65693143D02*
X152764714Y-65802000D01*
X152764714Y-65983429D01*
X152728429Y-66056000D01*
X152692143Y-66092286D01*
X152619571Y-66128571D01*
X152547000Y-66128571D01*
X152474429Y-66092286D01*
X152438143Y-66056000D01*
X152401857Y-65983429D01*
X152365571Y-65838286D01*
X152329286Y-65765714D01*
X152293000Y-65729429D01*
X152220429Y-65693143D01*
X152147857Y-65693143D01*
X152075286Y-65729429D01*
X152039000Y-65765714D01*
X152002714Y-65838286D01*
X152002714Y-66019714D01*
X152039000Y-66128571D01*
X152764714Y-66455143D02*
X152256714Y-66455143D01*
X152002714Y-66455143D02*
X152039000Y-66418857D01*
X152075286Y-66455143D01*
X152039000Y-66491428D01*
X152002714Y-66455143D01*
X152075286Y-66455143D01*
X152764714Y-67144571D02*
X152002714Y-67144571D01*
X152728429Y-67144571D02*
X152764714Y-67072000D01*
X152764714Y-66926857D01*
X152728429Y-66854285D01*
X152692143Y-66818000D01*
X152619571Y-66781714D01*
X152401857Y-66781714D01*
X152329286Y-66818000D01*
X152293000Y-66854285D01*
X152256714Y-66926857D01*
X152256714Y-67072000D01*
X152293000Y-67144571D01*
X152728429Y-67797714D02*
X152764714Y-67725143D01*
X152764714Y-67580000D01*
X152728429Y-67507429D01*
X152655857Y-67471143D01*
X152365571Y-67471143D01*
X152293000Y-67507429D01*
X152256714Y-67580000D01*
X152256714Y-67725143D01*
X152293000Y-67797714D01*
X152365571Y-67834000D01*
X152438143Y-67834000D01*
X152510714Y-67471143D01*
X152547000Y-33136000D02*
X152547000Y-33498857D01*
X152764714Y-33063428D02*
X152002714Y-33317428D01*
X152764714Y-33571428D01*
X152256714Y-33825429D02*
X152764714Y-33825429D01*
X152329286Y-33825429D02*
X152293000Y-33861714D01*
X152256714Y-33934286D01*
X152256714Y-34043143D01*
X152293000Y-34115714D01*
X152365571Y-34152000D01*
X152764714Y-34152000D01*
X152728429Y-34841429D02*
X152764714Y-34768858D01*
X152764714Y-34623715D01*
X152728429Y-34551143D01*
X152692143Y-34514858D01*
X152619571Y-34478572D01*
X152401857Y-34478572D01*
X152329286Y-34514858D01*
X152293000Y-34551143D01*
X152256714Y-34623715D01*
X152256714Y-34768858D01*
X152293000Y-34841429D01*
X152764714Y-35168001D02*
X152002714Y-35168001D01*
X152764714Y-35494572D02*
X152365571Y-35494572D01*
X152293000Y-35458286D01*
X152256714Y-35385715D01*
X152256714Y-35276858D01*
X152293000Y-35204286D01*
X152329286Y-35168001D01*
X152764714Y-35966287D02*
X152728429Y-35893715D01*
X152692143Y-35857430D01*
X152619571Y-35821144D01*
X152401857Y-35821144D01*
X152329286Y-35857430D01*
X152293000Y-35893715D01*
X152256714Y-35966287D01*
X152256714Y-36075144D01*
X152293000Y-36147715D01*
X152329286Y-36184001D01*
X152401857Y-36220287D01*
X152619571Y-36220287D01*
X152692143Y-36184001D01*
X152728429Y-36147715D01*
X152764714Y-36075144D01*
X152764714Y-35966287D01*
X152764714Y-36546859D02*
X152256714Y-36546859D01*
X152401857Y-36546859D02*
X152329286Y-36583144D01*
X152293000Y-36619430D01*
X152256714Y-36692001D01*
X152256714Y-36764573D01*
X152002714Y-37490286D02*
X152002714Y-37925715D01*
X152764714Y-37708001D02*
X152002714Y-37708001D01*
X152764714Y-38179715D02*
X152002714Y-38179715D01*
X152764714Y-38506286D02*
X152365571Y-38506286D01*
X152293000Y-38470000D01*
X152256714Y-38397429D01*
X152256714Y-38288572D01*
X152293000Y-38216000D01*
X152329286Y-38179715D01*
X152764714Y-38869144D02*
X152256714Y-38869144D01*
X152002714Y-38869144D02*
X152039000Y-38832858D01*
X152075286Y-38869144D01*
X152039000Y-38905429D01*
X152002714Y-38869144D01*
X152075286Y-38869144D01*
X152728429Y-39195715D02*
X152764714Y-39268286D01*
X152764714Y-39413429D01*
X152728429Y-39486001D01*
X152655857Y-39522286D01*
X152619571Y-39522286D01*
X152547000Y-39486001D01*
X152510714Y-39413429D01*
X152510714Y-39304572D01*
X152474429Y-39232001D01*
X152401857Y-39195715D01*
X152365571Y-39195715D01*
X152293000Y-39232001D01*
X152256714Y-39304572D01*
X152256714Y-39413429D01*
X152293000Y-39486001D01*
X152728429Y-40393143D02*
X152764714Y-40502000D01*
X152764714Y-40683429D01*
X152728429Y-40756000D01*
X152692143Y-40792286D01*
X152619571Y-40828571D01*
X152547000Y-40828571D01*
X152474429Y-40792286D01*
X152438143Y-40756000D01*
X152401857Y-40683429D01*
X152365571Y-40538286D01*
X152329286Y-40465714D01*
X152293000Y-40429429D01*
X152220429Y-40393143D01*
X152147857Y-40393143D01*
X152075286Y-40429429D01*
X152039000Y-40465714D01*
X152002714Y-40538286D01*
X152002714Y-40719714D01*
X152039000Y-40828571D01*
X152764714Y-41155143D02*
X152256714Y-41155143D01*
X152002714Y-41155143D02*
X152039000Y-41118857D01*
X152075286Y-41155143D01*
X152039000Y-41191428D01*
X152002714Y-41155143D01*
X152075286Y-41155143D01*
X152764714Y-41844571D02*
X152002714Y-41844571D01*
X152728429Y-41844571D02*
X152764714Y-41772000D01*
X152764714Y-41626857D01*
X152728429Y-41554285D01*
X152692143Y-41518000D01*
X152619571Y-41481714D01*
X152401857Y-41481714D01*
X152329286Y-41518000D01*
X152293000Y-41554285D01*
X152256714Y-41626857D01*
X152256714Y-41772000D01*
X152293000Y-41844571D01*
X152728429Y-42497714D02*
X152764714Y-42425143D01*
X152764714Y-42280000D01*
X152728429Y-42207429D01*
X152655857Y-42171143D01*
X152365571Y-42171143D01*
X152293000Y-42207429D01*
X152256714Y-42280000D01*
X152256714Y-42425143D01*
X152293000Y-42497714D01*
X152365571Y-42534000D01*
X152438143Y-42534000D01*
X152510714Y-42171143D01*
D11*
X82455094Y-34484619D02*
X82455094Y-33468619D01*
X82213189Y-33468619D01*
X82068047Y-33517000D01*
X81971285Y-33613762D01*
X81922904Y-33710524D01*
X81874523Y-33904048D01*
X81874523Y-34049190D01*
X81922904Y-34242714D01*
X81971285Y-34339476D01*
X82068047Y-34436238D01*
X82213189Y-34484619D01*
X82455094Y-34484619D01*
X81439094Y-34484619D02*
X81439094Y-33807286D01*
X81439094Y-33468619D02*
X81487475Y-33517000D01*
X81439094Y-33565381D01*
X81390713Y-33517000D01*
X81439094Y-33468619D01*
X81439094Y-33565381D01*
X81003665Y-34436238D02*
X80906903Y-34484619D01*
X80713379Y-34484619D01*
X80616618Y-34436238D01*
X80568237Y-34339476D01*
X80568237Y-34291095D01*
X80616618Y-34194333D01*
X80713379Y-34145952D01*
X80858522Y-34145952D01*
X80955284Y-34097571D01*
X81003665Y-34000810D01*
X81003665Y-33952429D01*
X80955284Y-33855667D01*
X80858522Y-33807286D01*
X80713379Y-33807286D01*
X80616618Y-33855667D01*
X80132808Y-33807286D02*
X80132808Y-34823286D01*
X80132808Y-33855667D02*
X80036046Y-33807286D01*
X79842523Y-33807286D01*
X79745761Y-33855667D01*
X79697380Y-33904048D01*
X79648999Y-34000810D01*
X79648999Y-34291095D01*
X79697380Y-34387857D01*
X79745761Y-34436238D01*
X79842523Y-34484619D01*
X80036046Y-34484619D01*
X80132808Y-34436238D01*
X79068427Y-34484619D02*
X79165189Y-34436238D01*
X79213570Y-34339476D01*
X79213570Y-33468619D01*
X78245952Y-34484619D02*
X78245952Y-33952429D01*
X78294333Y-33855667D01*
X78391095Y-33807286D01*
X78584618Y-33807286D01*
X78681380Y-33855667D01*
X78245952Y-34436238D02*
X78342714Y-34484619D01*
X78584618Y-34484619D01*
X78681380Y-34436238D01*
X78729761Y-34339476D01*
X78729761Y-34242714D01*
X78681380Y-34145952D01*
X78584618Y-34097571D01*
X78342714Y-34097571D01*
X78245952Y-34049190D01*
X77858904Y-33807286D02*
X77616999Y-34484619D01*
X77375095Y-33807286D02*
X77616999Y-34484619D01*
X77713761Y-34726524D01*
X77762142Y-34774905D01*
X77858904Y-34823286D01*
X76213952Y-34484619D02*
X76213952Y-33468619D01*
X76213952Y-33952429D02*
X75633381Y-33952429D01*
X75633381Y-34484619D02*
X75633381Y-33468619D01*
X74762524Y-34436238D02*
X74859286Y-34484619D01*
X75052809Y-34484619D01*
X75149571Y-34436238D01*
X75197952Y-34339476D01*
X75197952Y-33952429D01*
X75149571Y-33855667D01*
X75052809Y-33807286D01*
X74859286Y-33807286D01*
X74762524Y-33855667D01*
X74714143Y-33952429D01*
X74714143Y-34049190D01*
X75197952Y-34145952D01*
X73843286Y-34484619D02*
X73843286Y-33952429D01*
X73891667Y-33855667D01*
X73988429Y-33807286D01*
X74181952Y-33807286D01*
X74278714Y-33855667D01*
X73843286Y-34436238D02*
X73940048Y-34484619D01*
X74181952Y-34484619D01*
X74278714Y-34436238D01*
X74327095Y-34339476D01*
X74327095Y-34242714D01*
X74278714Y-34145952D01*
X74181952Y-34097571D01*
X73940048Y-34097571D01*
X73843286Y-34049190D01*
X72924048Y-34484619D02*
X72924048Y-33468619D01*
X72924048Y-34436238D02*
X73020810Y-34484619D01*
X73214333Y-34484619D01*
X73311095Y-34436238D01*
X73359476Y-34387857D01*
X73407857Y-34291095D01*
X73407857Y-34000810D01*
X73359476Y-33904048D01*
X73311095Y-33855667D01*
X73214333Y-33807286D01*
X73020810Y-33807286D01*
X72924048Y-33855667D01*
X72053191Y-34436238D02*
X72149953Y-34484619D01*
X72343476Y-34484619D01*
X72440238Y-34436238D01*
X72488619Y-34339476D01*
X72488619Y-33952429D01*
X72440238Y-33855667D01*
X72343476Y-33807286D01*
X72149953Y-33807286D01*
X72053191Y-33855667D01*
X72004810Y-33952429D01*
X72004810Y-34049190D01*
X72488619Y-34145952D01*
X71569381Y-34484619D02*
X71569381Y-33807286D01*
X71569381Y-34000810D02*
X71521000Y-33904048D01*
X71472619Y-33855667D01*
X71375857Y-33807286D01*
X71279096Y-33807286D01*
X70311477Y-33468619D02*
X69730906Y-33468619D01*
X70021191Y-34484619D02*
X70021191Y-33468619D01*
X69392239Y-34484619D02*
X69392239Y-33468619D01*
X68956811Y-34484619D02*
X68956811Y-33952429D01*
X69005192Y-33855667D01*
X69101954Y-33807286D01*
X69247096Y-33807286D01*
X69343858Y-33855667D01*
X69392239Y-33904048D01*
X68473001Y-34484619D02*
X68473001Y-33807286D01*
X68473001Y-33468619D02*
X68521382Y-33517000D01*
X68473001Y-33565381D01*
X68424620Y-33517000D01*
X68473001Y-33468619D01*
X68473001Y-33565381D01*
X68037572Y-34436238D02*
X67940810Y-34484619D01*
X67747286Y-34484619D01*
X67650525Y-34436238D01*
X67602144Y-34339476D01*
X67602144Y-34291095D01*
X67650525Y-34194333D01*
X67747286Y-34145952D01*
X67892429Y-34145952D01*
X67989191Y-34097571D01*
X68037572Y-34000810D01*
X68037572Y-33952429D01*
X67989191Y-33855667D01*
X67892429Y-33807286D01*
X67747286Y-33807286D01*
X67650525Y-33855667D01*
X66441001Y-34436238D02*
X66295858Y-34484619D01*
X66053954Y-34484619D01*
X65957192Y-34436238D01*
X65908811Y-34387857D01*
X65860430Y-34291095D01*
X65860430Y-34194333D01*
X65908811Y-34097571D01*
X65957192Y-34049190D01*
X66053954Y-34000810D01*
X66247477Y-33952429D01*
X66344239Y-33904048D01*
X66392620Y-33855667D01*
X66441001Y-33758905D01*
X66441001Y-33662143D01*
X66392620Y-33565381D01*
X66344239Y-33517000D01*
X66247477Y-33468619D01*
X66005573Y-33468619D01*
X65860430Y-33517000D01*
X65425001Y-34484619D02*
X65425001Y-33807286D01*
X65425001Y-33468619D02*
X65473382Y-33517000D01*
X65425001Y-33565381D01*
X65376620Y-33517000D01*
X65425001Y-33468619D01*
X65425001Y-33565381D01*
X64505763Y-34484619D02*
X64505763Y-33468619D01*
X64505763Y-34436238D02*
X64602525Y-34484619D01*
X64796048Y-34484619D01*
X64892810Y-34436238D01*
X64941191Y-34387857D01*
X64989572Y-34291095D01*
X64989572Y-34000810D01*
X64941191Y-33904048D01*
X64892810Y-33855667D01*
X64796048Y-33807286D01*
X64602525Y-33807286D01*
X64505763Y-33855667D01*
X63634906Y-34436238D02*
X63731668Y-34484619D01*
X63925191Y-34484619D01*
X64021953Y-34436238D01*
X64070334Y-34339476D01*
X64070334Y-33952429D01*
X64021953Y-33855667D01*
X63925191Y-33807286D01*
X63731668Y-33807286D01*
X63634906Y-33855667D01*
X63586525Y-33952429D01*
X63586525Y-34049190D01*
X64070334Y-34145952D01*
X82455094Y-85084619D02*
X82455094Y-84068619D01*
X82213189Y-84068619D01*
X82068047Y-84117000D01*
X81971285Y-84213762D01*
X81922904Y-84310524D01*
X81874523Y-84504048D01*
X81874523Y-84649190D01*
X81922904Y-84842714D01*
X81971285Y-84939476D01*
X82068047Y-85036238D01*
X82213189Y-85084619D01*
X82455094Y-85084619D01*
X81439094Y-85084619D02*
X81439094Y-84407286D01*
X81439094Y-84068619D02*
X81487475Y-84117000D01*
X81439094Y-84165381D01*
X81390713Y-84117000D01*
X81439094Y-84068619D01*
X81439094Y-84165381D01*
X81003665Y-85036238D02*
X80906903Y-85084619D01*
X80713379Y-85084619D01*
X80616618Y-85036238D01*
X80568237Y-84939476D01*
X80568237Y-84891095D01*
X80616618Y-84794333D01*
X80713379Y-84745952D01*
X80858522Y-84745952D01*
X80955284Y-84697571D01*
X81003665Y-84600810D01*
X81003665Y-84552429D01*
X80955284Y-84455667D01*
X80858522Y-84407286D01*
X80713379Y-84407286D01*
X80616618Y-84455667D01*
X80132808Y-84407286D02*
X80132808Y-85423286D01*
X80132808Y-84455667D02*
X80036046Y-84407286D01*
X79842523Y-84407286D01*
X79745761Y-84455667D01*
X79697380Y-84504048D01*
X79648999Y-84600810D01*
X79648999Y-84891095D01*
X79697380Y-84987857D01*
X79745761Y-85036238D01*
X79842523Y-85084619D01*
X80036046Y-85084619D01*
X80132808Y-85036238D01*
X79068427Y-85084619D02*
X79165189Y-85036238D01*
X79213570Y-84939476D01*
X79213570Y-84068619D01*
X78245952Y-85084619D02*
X78245952Y-84552429D01*
X78294333Y-84455667D01*
X78391095Y-84407286D01*
X78584618Y-84407286D01*
X78681380Y-84455667D01*
X78245952Y-85036238D02*
X78342714Y-85084619D01*
X78584618Y-85084619D01*
X78681380Y-85036238D01*
X78729761Y-84939476D01*
X78729761Y-84842714D01*
X78681380Y-84745952D01*
X78584618Y-84697571D01*
X78342714Y-84697571D01*
X78245952Y-84649190D01*
X77858904Y-84407286D02*
X77616999Y-85084619D01*
X77375095Y-84407286D02*
X77616999Y-85084619D01*
X77713761Y-85326524D01*
X77762142Y-85374905D01*
X77858904Y-85423286D01*
X76213952Y-85084619D02*
X76213952Y-84068619D01*
X76213952Y-84552429D02*
X75633381Y-84552429D01*
X75633381Y-85084619D02*
X75633381Y-84068619D01*
X74762524Y-85036238D02*
X74859286Y-85084619D01*
X75052809Y-85084619D01*
X75149571Y-85036238D01*
X75197952Y-84939476D01*
X75197952Y-84552429D01*
X75149571Y-84455667D01*
X75052809Y-84407286D01*
X74859286Y-84407286D01*
X74762524Y-84455667D01*
X74714143Y-84552429D01*
X74714143Y-84649190D01*
X75197952Y-84745952D01*
X73843286Y-85084619D02*
X73843286Y-84552429D01*
X73891667Y-84455667D01*
X73988429Y-84407286D01*
X74181952Y-84407286D01*
X74278714Y-84455667D01*
X73843286Y-85036238D02*
X73940048Y-85084619D01*
X74181952Y-85084619D01*
X74278714Y-85036238D01*
X74327095Y-84939476D01*
X74327095Y-84842714D01*
X74278714Y-84745952D01*
X74181952Y-84697571D01*
X73940048Y-84697571D01*
X73843286Y-84649190D01*
X72924048Y-85084619D02*
X72924048Y-84068619D01*
X72924048Y-85036238D02*
X73020810Y-85084619D01*
X73214333Y-85084619D01*
X73311095Y-85036238D01*
X73359476Y-84987857D01*
X73407857Y-84891095D01*
X73407857Y-84600810D01*
X73359476Y-84504048D01*
X73311095Y-84455667D01*
X73214333Y-84407286D01*
X73020810Y-84407286D01*
X72924048Y-84455667D01*
X72053191Y-85036238D02*
X72149953Y-85084619D01*
X72343476Y-85084619D01*
X72440238Y-85036238D01*
X72488619Y-84939476D01*
X72488619Y-84552429D01*
X72440238Y-84455667D01*
X72343476Y-84407286D01*
X72149953Y-84407286D01*
X72053191Y-84455667D01*
X72004810Y-84552429D01*
X72004810Y-84649190D01*
X72488619Y-84745952D01*
X71569381Y-85084619D02*
X71569381Y-84407286D01*
X71569381Y-84600810D02*
X71521000Y-84504048D01*
X71472619Y-84455667D01*
X71375857Y-84407286D01*
X71279096Y-84407286D01*
X70311477Y-84068619D02*
X69730906Y-84068619D01*
X70021191Y-85084619D02*
X70021191Y-84068619D01*
X69392239Y-85084619D02*
X69392239Y-84068619D01*
X68956811Y-85084619D02*
X68956811Y-84552429D01*
X69005192Y-84455667D01*
X69101954Y-84407286D01*
X69247096Y-84407286D01*
X69343858Y-84455667D01*
X69392239Y-84504048D01*
X68473001Y-85084619D02*
X68473001Y-84407286D01*
X68473001Y-84068619D02*
X68521382Y-84117000D01*
X68473001Y-84165381D01*
X68424620Y-84117000D01*
X68473001Y-84068619D01*
X68473001Y-84165381D01*
X68037572Y-85036238D02*
X67940810Y-85084619D01*
X67747286Y-85084619D01*
X67650525Y-85036238D01*
X67602144Y-84939476D01*
X67602144Y-84891095D01*
X67650525Y-84794333D01*
X67747286Y-84745952D01*
X67892429Y-84745952D01*
X67989191Y-84697571D01*
X68037572Y-84600810D01*
X68037572Y-84552429D01*
X67989191Y-84455667D01*
X67892429Y-84407286D01*
X67747286Y-84407286D01*
X67650525Y-84455667D01*
X66441001Y-85036238D02*
X66295858Y-85084619D01*
X66053954Y-85084619D01*
X65957192Y-85036238D01*
X65908811Y-84987857D01*
X65860430Y-84891095D01*
X65860430Y-84794333D01*
X65908811Y-84697571D01*
X65957192Y-84649190D01*
X66053954Y-84600810D01*
X66247477Y-84552429D01*
X66344239Y-84504048D01*
X66392620Y-84455667D01*
X66441001Y-84358905D01*
X66441001Y-84262143D01*
X66392620Y-84165381D01*
X66344239Y-84117000D01*
X66247477Y-84068619D01*
X66005573Y-84068619D01*
X65860430Y-84117000D01*
X65425001Y-85084619D02*
X65425001Y-84407286D01*
X65425001Y-84068619D02*
X65473382Y-84117000D01*
X65425001Y-84165381D01*
X65376620Y-84117000D01*
X65425001Y-84068619D01*
X65425001Y-84165381D01*
X64505763Y-85084619D02*
X64505763Y-84068619D01*
X64505763Y-85036238D02*
X64602525Y-85084619D01*
X64796048Y-85084619D01*
X64892810Y-85036238D01*
X64941191Y-84987857D01*
X64989572Y-84891095D01*
X64989572Y-84600810D01*
X64941191Y-84504048D01*
X64892810Y-84455667D01*
X64796048Y-84407286D01*
X64602525Y-84407286D01*
X64505763Y-84455667D01*
X63634906Y-85036238D02*
X63731668Y-85084619D01*
X63925191Y-85084619D01*
X64021953Y-85036238D01*
X64070334Y-84939476D01*
X64070334Y-84552429D01*
X64021953Y-84455667D01*
X63925191Y-84407286D01*
X63731668Y-84407286D01*
X63634906Y-84455667D01*
X63586525Y-84552429D01*
X63586525Y-84649190D01*
X64070334Y-84745952D01*
D12*
X152547000Y-83736000D02*
X152547000Y-84098857D01*
X152764714Y-83663428D02*
X152002714Y-83917428D01*
X152764714Y-84171428D01*
X152256714Y-84425429D02*
X152764714Y-84425429D01*
X152329286Y-84425429D02*
X152293000Y-84461714D01*
X152256714Y-84534286D01*
X152256714Y-84643143D01*
X152293000Y-84715714D01*
X152365571Y-84752000D01*
X152764714Y-84752000D01*
X152728429Y-85441429D02*
X152764714Y-85368858D01*
X152764714Y-85223715D01*
X152728429Y-85151143D01*
X152692143Y-85114858D01*
X152619571Y-85078572D01*
X152401857Y-85078572D01*
X152329286Y-85114858D01*
X152293000Y-85151143D01*
X152256714Y-85223715D01*
X152256714Y-85368858D01*
X152293000Y-85441429D01*
X152764714Y-85768001D02*
X152002714Y-85768001D01*
X152764714Y-86094572D02*
X152365571Y-86094572D01*
X152293000Y-86058286D01*
X152256714Y-85985715D01*
X152256714Y-85876858D01*
X152293000Y-85804286D01*
X152329286Y-85768001D01*
X152764714Y-86566287D02*
X152728429Y-86493715D01*
X152692143Y-86457430D01*
X152619571Y-86421144D01*
X152401857Y-86421144D01*
X152329286Y-86457430D01*
X152293000Y-86493715D01*
X152256714Y-86566287D01*
X152256714Y-86675144D01*
X152293000Y-86747715D01*
X152329286Y-86784001D01*
X152401857Y-86820287D01*
X152619571Y-86820287D01*
X152692143Y-86784001D01*
X152728429Y-86747715D01*
X152764714Y-86675144D01*
X152764714Y-86566287D01*
X152764714Y-87146859D02*
X152256714Y-87146859D01*
X152401857Y-87146859D02*
X152329286Y-87183144D01*
X152293000Y-87219430D01*
X152256714Y-87292001D01*
X152256714Y-87364573D01*
X152002714Y-88090286D02*
X152002714Y-88525715D01*
X152764714Y-88308001D02*
X152002714Y-88308001D01*
X152764714Y-88779715D02*
X152002714Y-88779715D01*
X152764714Y-89106286D02*
X152365571Y-89106286D01*
X152293000Y-89070000D01*
X152256714Y-88997429D01*
X152256714Y-88888572D01*
X152293000Y-88816000D01*
X152329286Y-88779715D01*
X152764714Y-89469144D02*
X152256714Y-89469144D01*
X152002714Y-89469144D02*
X152039000Y-89432858D01*
X152075286Y-89469144D01*
X152039000Y-89505429D01*
X152002714Y-89469144D01*
X152075286Y-89469144D01*
X152728429Y-89795715D02*
X152764714Y-89868286D01*
X152764714Y-90013429D01*
X152728429Y-90086001D01*
X152655857Y-90122286D01*
X152619571Y-90122286D01*
X152547000Y-90086001D01*
X152510714Y-90013429D01*
X152510714Y-89904572D01*
X152474429Y-89832001D01*
X152401857Y-89795715D01*
X152365571Y-89795715D01*
X152293000Y-89832001D01*
X152256714Y-89904572D01*
X152256714Y-90013429D01*
X152293000Y-90086001D01*
X152728429Y-90993143D02*
X152764714Y-91102000D01*
X152764714Y-91283429D01*
X152728429Y-91356000D01*
X152692143Y-91392286D01*
X152619571Y-91428571D01*
X152547000Y-91428571D01*
X152474429Y-91392286D01*
X152438143Y-91356000D01*
X152401857Y-91283429D01*
X152365571Y-91138286D01*
X152329286Y-91065714D01*
X152293000Y-91029429D01*
X152220429Y-90993143D01*
X152147857Y-90993143D01*
X152075286Y-91029429D01*
X152039000Y-91065714D01*
X152002714Y-91138286D01*
X152002714Y-91319714D01*
X152039000Y-91428571D01*
X152764714Y-91755143D02*
X152256714Y-91755143D01*
X152002714Y-91755143D02*
X152039000Y-91718857D01*
X152075286Y-91755143D01*
X152039000Y-91791428D01*
X152002714Y-91755143D01*
X152075286Y-91755143D01*
X152764714Y-92444571D02*
X152002714Y-92444571D01*
X152728429Y-92444571D02*
X152764714Y-92372000D01*
X152764714Y-92226857D01*
X152728429Y-92154285D01*
X152692143Y-92118000D01*
X152619571Y-92081714D01*
X152401857Y-92081714D01*
X152329286Y-92118000D01*
X152293000Y-92154285D01*
X152256714Y-92226857D01*
X152256714Y-92372000D01*
X152293000Y-92444571D01*
X152728429Y-93097714D02*
X152764714Y-93025143D01*
X152764714Y-92880000D01*
X152728429Y-92807429D01*
X152655857Y-92771143D01*
X152365571Y-92771143D01*
X152293000Y-92807429D01*
X152256714Y-92880000D01*
X152256714Y-93025143D01*
X152293000Y-93097714D01*
X152365571Y-93134000D01*
X152438143Y-93134000D01*
X152510714Y-92771143D01*
X152547000Y-109036000D02*
X152547000Y-109398857D01*
X152764714Y-108963428D02*
X152002714Y-109217428D01*
X152764714Y-109471428D01*
X152256714Y-109725429D02*
X152764714Y-109725429D01*
X152329286Y-109725429D02*
X152293000Y-109761714D01*
X152256714Y-109834286D01*
X152256714Y-109943143D01*
X152293000Y-110015714D01*
X152365571Y-110052000D01*
X152764714Y-110052000D01*
X152728429Y-110741429D02*
X152764714Y-110668858D01*
X152764714Y-110523715D01*
X152728429Y-110451143D01*
X152692143Y-110414858D01*
X152619571Y-110378572D01*
X152401857Y-110378572D01*
X152329286Y-110414858D01*
X152293000Y-110451143D01*
X152256714Y-110523715D01*
X152256714Y-110668858D01*
X152293000Y-110741429D01*
X152764714Y-111068001D02*
X152002714Y-111068001D01*
X152764714Y-111394572D02*
X152365571Y-111394572D01*
X152293000Y-111358286D01*
X152256714Y-111285715D01*
X152256714Y-111176858D01*
X152293000Y-111104286D01*
X152329286Y-111068001D01*
X152764714Y-111866287D02*
X152728429Y-111793715D01*
X152692143Y-111757430D01*
X152619571Y-111721144D01*
X152401857Y-111721144D01*
X152329286Y-111757430D01*
X152293000Y-111793715D01*
X152256714Y-111866287D01*
X152256714Y-111975144D01*
X152293000Y-112047715D01*
X152329286Y-112084001D01*
X152401857Y-112120287D01*
X152619571Y-112120287D01*
X152692143Y-112084001D01*
X152728429Y-112047715D01*
X152764714Y-111975144D01*
X152764714Y-111866287D01*
X152764714Y-112446859D02*
X152256714Y-112446859D01*
X152401857Y-112446859D02*
X152329286Y-112483144D01*
X152293000Y-112519430D01*
X152256714Y-112592001D01*
X152256714Y-112664573D01*
X152002714Y-113390286D02*
X152002714Y-113825715D01*
X152764714Y-113608001D02*
X152002714Y-113608001D01*
X152764714Y-114079715D02*
X152002714Y-114079715D01*
X152764714Y-114406286D02*
X152365571Y-114406286D01*
X152293000Y-114370000D01*
X152256714Y-114297429D01*
X152256714Y-114188572D01*
X152293000Y-114116000D01*
X152329286Y-114079715D01*
X152764714Y-114769144D02*
X152256714Y-114769144D01*
X152002714Y-114769144D02*
X152039000Y-114732858D01*
X152075286Y-114769144D01*
X152039000Y-114805429D01*
X152002714Y-114769144D01*
X152075286Y-114769144D01*
X152728429Y-115095715D02*
X152764714Y-115168286D01*
X152764714Y-115313429D01*
X152728429Y-115386001D01*
X152655857Y-115422286D01*
X152619571Y-115422286D01*
X152547000Y-115386001D01*
X152510714Y-115313429D01*
X152510714Y-115204572D01*
X152474429Y-115132001D01*
X152401857Y-115095715D01*
X152365571Y-115095715D01*
X152293000Y-115132001D01*
X152256714Y-115204572D01*
X152256714Y-115313429D01*
X152293000Y-115386001D01*
X152728429Y-116293143D02*
X152764714Y-116402000D01*
X152764714Y-116583429D01*
X152728429Y-116656000D01*
X152692143Y-116692286D01*
X152619571Y-116728571D01*
X152547000Y-116728571D01*
X152474429Y-116692286D01*
X152438143Y-116656000D01*
X152401857Y-116583429D01*
X152365571Y-116438286D01*
X152329286Y-116365714D01*
X152293000Y-116329429D01*
X152220429Y-116293143D01*
X152147857Y-116293143D01*
X152075286Y-116329429D01*
X152039000Y-116365714D01*
X152002714Y-116438286D01*
X152002714Y-116619714D01*
X152039000Y-116728571D01*
X152764714Y-117055143D02*
X152256714Y-117055143D01*
X152002714Y-117055143D02*
X152039000Y-117018857D01*
X152075286Y-117055143D01*
X152039000Y-117091428D01*
X152002714Y-117055143D01*
X152075286Y-117055143D01*
X152764714Y-117744571D02*
X152002714Y-117744571D01*
X152728429Y-117744571D02*
X152764714Y-117672000D01*
X152764714Y-117526857D01*
X152728429Y-117454285D01*
X152692143Y-117418000D01*
X152619571Y-117381714D01*
X152401857Y-117381714D01*
X152329286Y-117418000D01*
X152293000Y-117454285D01*
X152256714Y-117526857D01*
X152256714Y-117672000D01*
X152293000Y-117744571D01*
X152728429Y-118397714D02*
X152764714Y-118325143D01*
X152764714Y-118180000D01*
X152728429Y-118107429D01*
X152655857Y-118071143D01*
X152365571Y-118071143D01*
X152293000Y-118107429D01*
X152256714Y-118180000D01*
X152256714Y-118325143D01*
X152293000Y-118397714D01*
X152365571Y-118434000D01*
X152438143Y-118434000D01*
X152510714Y-118071143D01*
D11*
X82455094Y-110384619D02*
X82455094Y-109368619D01*
X82213189Y-109368619D01*
X82068047Y-109417000D01*
X81971285Y-109513762D01*
X81922904Y-109610524D01*
X81874523Y-109804048D01*
X81874523Y-109949190D01*
X81922904Y-110142714D01*
X81971285Y-110239476D01*
X82068047Y-110336238D01*
X82213189Y-110384619D01*
X82455094Y-110384619D01*
X81439094Y-110384619D02*
X81439094Y-109707286D01*
X81439094Y-109368619D02*
X81487475Y-109417000D01*
X81439094Y-109465381D01*
X81390713Y-109417000D01*
X81439094Y-109368619D01*
X81439094Y-109465381D01*
X81003665Y-110336238D02*
X80906903Y-110384619D01*
X80713379Y-110384619D01*
X80616618Y-110336238D01*
X80568237Y-110239476D01*
X80568237Y-110191095D01*
X80616618Y-110094333D01*
X80713379Y-110045952D01*
X80858522Y-110045952D01*
X80955284Y-109997571D01*
X81003665Y-109900810D01*
X81003665Y-109852429D01*
X80955284Y-109755667D01*
X80858522Y-109707286D01*
X80713379Y-109707286D01*
X80616618Y-109755667D01*
X80132808Y-109707286D02*
X80132808Y-110723286D01*
X80132808Y-109755667D02*
X80036046Y-109707286D01*
X79842523Y-109707286D01*
X79745761Y-109755667D01*
X79697380Y-109804048D01*
X79648999Y-109900810D01*
X79648999Y-110191095D01*
X79697380Y-110287857D01*
X79745761Y-110336238D01*
X79842523Y-110384619D01*
X80036046Y-110384619D01*
X80132808Y-110336238D01*
X79068427Y-110384619D02*
X79165189Y-110336238D01*
X79213570Y-110239476D01*
X79213570Y-109368619D01*
X78245952Y-110384619D02*
X78245952Y-109852429D01*
X78294333Y-109755667D01*
X78391095Y-109707286D01*
X78584618Y-109707286D01*
X78681380Y-109755667D01*
X78245952Y-110336238D02*
X78342714Y-110384619D01*
X78584618Y-110384619D01*
X78681380Y-110336238D01*
X78729761Y-110239476D01*
X78729761Y-110142714D01*
X78681380Y-110045952D01*
X78584618Y-109997571D01*
X78342714Y-109997571D01*
X78245952Y-109949190D01*
X77858904Y-109707286D02*
X77616999Y-110384619D01*
X77375095Y-109707286D02*
X77616999Y-110384619D01*
X77713761Y-110626524D01*
X77762142Y-110674905D01*
X77858904Y-110723286D01*
X76213952Y-110384619D02*
X76213952Y-109368619D01*
X76213952Y-109852429D02*
X75633381Y-109852429D01*
X75633381Y-110384619D02*
X75633381Y-109368619D01*
X74762524Y-110336238D02*
X74859286Y-110384619D01*
X75052809Y-110384619D01*
X75149571Y-110336238D01*
X75197952Y-110239476D01*
X75197952Y-109852429D01*
X75149571Y-109755667D01*
X75052809Y-109707286D01*
X74859286Y-109707286D01*
X74762524Y-109755667D01*
X74714143Y-109852429D01*
X74714143Y-109949190D01*
X75197952Y-110045952D01*
X73843286Y-110384619D02*
X73843286Y-109852429D01*
X73891667Y-109755667D01*
X73988429Y-109707286D01*
X74181952Y-109707286D01*
X74278714Y-109755667D01*
X73843286Y-110336238D02*
X73940048Y-110384619D01*
X74181952Y-110384619D01*
X74278714Y-110336238D01*
X74327095Y-110239476D01*
X74327095Y-110142714D01*
X74278714Y-110045952D01*
X74181952Y-109997571D01*
X73940048Y-109997571D01*
X73843286Y-109949190D01*
X72924048Y-110384619D02*
X72924048Y-109368619D01*
X72924048Y-110336238D02*
X73020810Y-110384619D01*
X73214333Y-110384619D01*
X73311095Y-110336238D01*
X73359476Y-110287857D01*
X73407857Y-110191095D01*
X73407857Y-109900810D01*
X73359476Y-109804048D01*
X73311095Y-109755667D01*
X73214333Y-109707286D01*
X73020810Y-109707286D01*
X72924048Y-109755667D01*
X72053191Y-110336238D02*
X72149953Y-110384619D01*
X72343476Y-110384619D01*
X72440238Y-110336238D01*
X72488619Y-110239476D01*
X72488619Y-109852429D01*
X72440238Y-109755667D01*
X72343476Y-109707286D01*
X72149953Y-109707286D01*
X72053191Y-109755667D01*
X72004810Y-109852429D01*
X72004810Y-109949190D01*
X72488619Y-110045952D01*
X71569381Y-110384619D02*
X71569381Y-109707286D01*
X71569381Y-109900810D02*
X71521000Y-109804048D01*
X71472619Y-109755667D01*
X71375857Y-109707286D01*
X71279096Y-109707286D01*
X70311477Y-109368619D02*
X69730906Y-109368619D01*
X70021191Y-110384619D02*
X70021191Y-109368619D01*
X69392239Y-110384619D02*
X69392239Y-109368619D01*
X68956811Y-110384619D02*
X68956811Y-109852429D01*
X69005192Y-109755667D01*
X69101954Y-109707286D01*
X69247096Y-109707286D01*
X69343858Y-109755667D01*
X69392239Y-109804048D01*
X68473001Y-110384619D02*
X68473001Y-109707286D01*
X68473001Y-109368619D02*
X68521382Y-109417000D01*
X68473001Y-109465381D01*
X68424620Y-109417000D01*
X68473001Y-109368619D01*
X68473001Y-109465381D01*
X68037572Y-110336238D02*
X67940810Y-110384619D01*
X67747286Y-110384619D01*
X67650525Y-110336238D01*
X67602144Y-110239476D01*
X67602144Y-110191095D01*
X67650525Y-110094333D01*
X67747286Y-110045952D01*
X67892429Y-110045952D01*
X67989191Y-109997571D01*
X68037572Y-109900810D01*
X68037572Y-109852429D01*
X67989191Y-109755667D01*
X67892429Y-109707286D01*
X67747286Y-109707286D01*
X67650525Y-109755667D01*
X66441001Y-110336238D02*
X66295858Y-110384619D01*
X66053954Y-110384619D01*
X65957192Y-110336238D01*
X65908811Y-110287857D01*
X65860430Y-110191095D01*
X65860430Y-110094333D01*
X65908811Y-109997571D01*
X65957192Y-109949190D01*
X66053954Y-109900810D01*
X66247477Y-109852429D01*
X66344239Y-109804048D01*
X66392620Y-109755667D01*
X66441001Y-109658905D01*
X66441001Y-109562143D01*
X66392620Y-109465381D01*
X66344239Y-109417000D01*
X66247477Y-109368619D01*
X66005573Y-109368619D01*
X65860430Y-109417000D01*
X65425001Y-110384619D02*
X65425001Y-109707286D01*
X65425001Y-109368619D02*
X65473382Y-109417000D01*
X65425001Y-109465381D01*
X65376620Y-109417000D01*
X65425001Y-109368619D01*
X65425001Y-109465381D01*
X64505763Y-110384619D02*
X64505763Y-109368619D01*
X64505763Y-110336238D02*
X64602525Y-110384619D01*
X64796048Y-110384619D01*
X64892810Y-110336238D01*
X64941191Y-110287857D01*
X64989572Y-110191095D01*
X64989572Y-109900810D01*
X64941191Y-109804048D01*
X64892810Y-109755667D01*
X64796048Y-109707286D01*
X64602525Y-109707286D01*
X64505763Y-109755667D01*
X63634906Y-110336238D02*
X63731668Y-110384619D01*
X63925191Y-110384619D01*
X64021953Y-110336238D01*
X64070334Y-110239476D01*
X64070334Y-109852429D01*
X64021953Y-109755667D01*
X63925191Y-109707286D01*
X63731668Y-109707286D01*
X63634906Y-109755667D01*
X63586525Y-109852429D01*
X63586525Y-109949190D01*
X64070334Y-110045952D01*
D13*
X81935000Y-67580000D02*
X61615000Y-67580000D01*
X61615000Y-67580000D02*
X61615000Y-65040000D01*
X61615000Y-65040000D02*
X81935000Y-65040000D01*
X84755000Y-67860000D02*
X83205000Y-67860000D01*
X81935000Y-67580000D02*
X81935000Y-65040000D01*
X83205000Y-64760000D02*
X84755000Y-64760000D01*
X84755000Y-64760000D02*
X84755000Y-67860000D01*
X87015000Y-62500000D02*
X56535000Y-62500000D01*
X56535000Y-62500000D02*
X56535000Y-65040000D01*
X56535000Y-65040000D02*
X87015000Y-65040000D01*
X89835000Y-65320000D02*
X88285000Y-65320000D01*
X87015000Y-65040000D02*
X87015000Y-62500000D01*
X88285000Y-62220000D02*
X89835000Y-62220000D01*
X89835000Y-62220000D02*
X89835000Y-65320000D01*
X87015000Y-37200000D02*
X56535000Y-37200000D01*
X56535000Y-37200000D02*
X56535000Y-39740000D01*
X56535000Y-39740000D02*
X87015000Y-39740000D01*
X89835000Y-40020000D02*
X88285000Y-40020000D01*
X87015000Y-39740000D02*
X87015000Y-37200000D01*
X88285000Y-36920000D02*
X89835000Y-36920000D01*
X89835000Y-36920000D02*
X89835000Y-40020000D01*
X81935000Y-42280000D02*
X61615000Y-42280000D01*
X61615000Y-42280000D02*
X61615000Y-39740000D01*
X61615000Y-39740000D02*
X81935000Y-39740000D01*
X84755000Y-42560000D02*
X83205000Y-42560000D01*
X81935000Y-42280000D02*
X81935000Y-39740000D01*
X83205000Y-39460000D02*
X84755000Y-39460000D01*
X84755000Y-39460000D02*
X84755000Y-42560000D01*
X81935000Y-92880000D02*
X61615000Y-92880000D01*
X61615000Y-92880000D02*
X61615000Y-90340000D01*
X61615000Y-90340000D02*
X81935000Y-90340000D01*
X84755000Y-93160000D02*
X83205000Y-93160000D01*
X81935000Y-92880000D02*
X81935000Y-90340000D01*
X83205000Y-90060000D02*
X84755000Y-90060000D01*
X84755000Y-90060000D02*
X84755000Y-93160000D01*
X87015000Y-87800000D02*
X56535000Y-87800000D01*
X56535000Y-87800000D02*
X56535000Y-90340000D01*
X56535000Y-90340000D02*
X87015000Y-90340000D01*
X89835000Y-90620000D02*
X88285000Y-90620000D01*
X87015000Y-90340000D02*
X87015000Y-87800000D01*
X88285000Y-87520000D02*
X89835000Y-87520000D01*
X89835000Y-87520000D02*
X89835000Y-90620000D01*
X87015000Y-113100000D02*
X56535000Y-113100000D01*
X56535000Y-113100000D02*
X56535000Y-115640000D01*
X56535000Y-115640000D02*
X87015000Y-115640000D01*
X89835000Y-115920000D02*
X88285000Y-115920000D01*
X87015000Y-115640000D02*
X87015000Y-113100000D01*
X88285000Y-112820000D02*
X89835000Y-112820000D01*
X89835000Y-112820000D02*
X89835000Y-115920000D01*
X81935000Y-118180000D02*
X61615000Y-118180000D01*
X61615000Y-118180000D02*
X61615000Y-115640000D01*
X61615000Y-115640000D02*
X81935000Y-115640000D01*
X84755000Y-118460000D02*
X83205000Y-118460000D01*
X81935000Y-118180000D02*
X81935000Y-115640000D01*
X83205000Y-115360000D02*
X84755000Y-115360000D01*
X84755000Y-115360000D02*
X84755000Y-118460000D01*
M02*
