M48
;DRILL file {KiCad 4.0.4-stable} date 02/23/17 17:35:37
;FORMAT={-:-/ absolute / inch / decimal}
FMAT,2
INCH,TZ
T1C0.013
T2C0.030
T3C0.031
T4C0.032
T5C0.040
%
G90
G05
M72
T1
X3.2008Y-1.3646
X3.2008Y-2.3606
X3.2008Y-3.3567
X3.2008Y-4.3528
X3.3508Y-1.3896
X3.3508Y-2.3856
X3.3508Y-3.3817
X3.3508Y-4.3778
X3.3758Y-1.8646
X3.3758Y-2.8606
X3.3758Y-3.8567
X3.3758Y-4.8528
X3.4258Y-1.8146
X3.4258Y-2.8106
X3.4258Y-3.8067
X3.4258Y-4.8028
X3.5008Y-1.8396
X3.5008Y-2.8356
X3.5008Y-3.8317
X3.5008Y-4.8278
X3.6008Y-1.6896
X3.6008Y-2.6856
X3.6008Y-3.6817
X3.6008Y-4.6778
X3.6258Y-1.6646
X3.6258Y-2.6606
X3.6258Y-3.6567
X3.6258Y-4.6528
X3.9758Y-1.6646
X3.9758Y-2.6606
X3.9758Y-3.6567
X3.9758Y-4.6528
X4.0008Y-1.6896
X4.0008Y-2.6856
X4.0008Y-3.6817
X4.0008Y-4.6778
X4.2758Y-1.2896
X4.2758Y-2.2856
X4.2758Y-3.2817
X4.2758Y-4.2778
X4.5258Y-1.3396
X4.5258Y-1.4896
X4.5258Y-2.3356
X4.5258Y-2.4856
X4.5258Y-3.3317
X4.5258Y-3.4817
X4.5258Y-4.3278
X4.5258Y-4.4778
X4.5508Y-1.3146
X4.5508Y-1.3646
X4.5508Y-2.3106
X4.5508Y-2.3606
X4.5508Y-3.3067
X4.5508Y-3.3567
X4.5508Y-4.3028
X4.5508Y-4.3528
X4.6008Y-1.6396
X4.6008Y-2.6356
X4.6008Y-3.6317
X4.6008Y-4.6278
X4.6258Y-1.2646
X4.6258Y-2.2606
X4.6258Y-3.2567
X4.6258Y-4.2528
X4.6508Y-1.2896
X4.6508Y-2.2856
X4.6508Y-3.2817
X4.6508Y-4.2778
X4.6758Y-1.3146
X4.6758Y-2.3106
X4.6758Y-3.3067
X4.6758Y-4.3028
X4.7758Y-1.4396
X4.7758Y-2.4356
X4.7758Y-3.4317
X4.7758Y-4.4278
X4.8008Y-1.3646
X4.8008Y-2.3606
X4.8008Y-3.3567
X4.8008Y-4.3528
X4.8758Y-1.4146
X4.8758Y-1.5646
X4.8758Y-2.4106
X4.8758Y-2.5606
X4.8758Y-3.4067
X4.8758Y-3.5567
X4.8758Y-4.4028
X4.8758Y-4.5528
X4.9008Y-1.3646
X4.9008Y-2.3606
X4.9008Y-3.3567
X4.9008Y-4.3528
X4.9258Y-1.8896
X4.9258Y-2.8856
X4.9258Y-3.8817
X4.9258Y-4.8778
X4.9508Y-1.8646
X4.9508Y-2.8606
X4.9508Y-3.8567
X4.9508Y-4.8528
X4.9758Y-1.3896
X4.9758Y-1.9146
X4.9758Y-2.3856
X4.9758Y-2.9106
X4.9758Y-3.3817
X4.9758Y-3.9067
X4.9758Y-4.3778
X4.9758Y-4.9028
X5.0008Y-1.4396
X5.0008Y-2.4356
X5.0008Y-3.4317
X5.0008Y-4.4278
X5.0258Y-1.3396
X5.0258Y-2.3356
X5.0258Y-3.3317
X5.0258Y-4.3278
X5.4008Y-1.3646
X5.4008Y-2.3606
X5.4008Y-3.3567
X5.4008Y-4.3528
X5.4508Y-1.7146
X5.4508Y-1.8396
X5.4508Y-2.7106
X5.4508Y-2.8356
X5.4508Y-3.7067
X5.4508Y-3.8317
X5.4508Y-4.7028
X5.4508Y-4.8278
X5.5008Y-1.7146
X5.5008Y-2.7106
X5.5008Y-3.7067
X5.5008Y-4.7028
X5.5258Y-1.8146
X5.5258Y-2.8106
X5.5258Y-3.8067
X5.5258Y-4.8028
X5.5508Y-1.7146
X5.5508Y-2.7106
X5.5508Y-3.7067
X5.5508Y-4.7028
X5.5758Y-1.7896
X5.5758Y-2.7856
X5.5758Y-3.7817
X5.5758Y-4.7778
X5.6258Y-1.7146
X5.6258Y-1.7646
X5.6258Y-2.7106
X5.6258Y-2.7606
X5.6258Y-3.7067
X5.6258Y-3.7567
X5.6258Y-4.7028
X5.6258Y-4.7528
X5.6758Y-1.8896
X5.6758Y-2.8856
X5.6758Y-3.8817
X5.6758Y-4.8778
X5.7008Y-1.6646
X5.7008Y-2.6606
X5.7008Y-3.6567
X5.7008Y-4.6528
T2
X2.4758Y-1.2146
X2.4758Y-1.4146
X2.4758Y-1.7146
X2.4758Y-1.9146
X2.4758Y-2.2106
X2.4758Y-2.4106
X2.4758Y-2.7106
X2.4758Y-2.9106
X2.4758Y-3.2067
X2.4758Y-3.4067
X2.4758Y-3.7067
X2.4758Y-3.9067
X2.4758Y-4.2028
X2.4758Y-4.4028
X2.4758Y-4.7028
X2.4758Y-4.9028
X2.5758Y-1.2146
X2.5758Y-1.4146
X2.5758Y-1.7146
X2.5758Y-1.9146
X2.5758Y-2.2106
X2.5758Y-2.4106
X2.5758Y-2.7106
X2.5758Y-2.9106
X2.5758Y-3.2067
X2.5758Y-3.4067
X2.5758Y-3.7067
X2.5758Y-3.9067
X2.5758Y-4.2028
X2.5758Y-4.4028
X2.5758Y-4.7028
X2.5758Y-4.9028
X2.6758Y-1.2146
X2.6758Y-1.4146
X2.6758Y-1.7146
X2.6758Y-1.9146
X2.6758Y-2.2106
X2.6758Y-2.4106
X2.6758Y-2.7106
X2.6758Y-2.9106
X2.6758Y-3.2067
X2.6758Y-3.4067
X2.6758Y-3.7067
X2.6758Y-3.9067
X2.6758Y-4.2028
X2.6758Y-4.4028
X2.6758Y-4.7028
X2.6758Y-4.9028
X2.7758Y-1.7146
X2.7758Y-1.9146
X2.7758Y-2.7106
X2.7758Y-2.9106
X2.7758Y-3.7067
X2.7758Y-3.9067
X2.7758Y-4.7028
X2.7758Y-4.9028
X2.8758Y-1.7146
X2.8758Y-1.9146
X2.8758Y-2.7106
X2.8758Y-2.9106
X2.8758Y-3.7067
X2.8758Y-3.9067
X2.8758Y-4.7028
X2.8758Y-4.9028
X2.9758Y-1.2146
X2.9758Y-1.4146
X2.9758Y-1.7146
X2.9758Y-1.9146
X2.9758Y-2.2106
X2.9758Y-2.4106
X2.9758Y-2.7106
X2.9758Y-2.9106
X2.9758Y-3.2067
X2.9758Y-3.4067
X2.9758Y-3.7067
X2.9758Y-3.9067
X2.9758Y-4.2028
X2.9758Y-4.4028
X2.9758Y-4.7028
X2.9758Y-4.9028
X3.0758Y-1.2146
X3.0758Y-1.4146
X3.0758Y-1.7146
X3.0758Y-1.9146
X3.0758Y-2.2106
X3.0758Y-2.4106
X3.0758Y-2.7106
X3.0758Y-2.9106
X3.0758Y-3.2067
X3.0758Y-3.4067
X3.0758Y-3.7067
X3.0758Y-3.9067
X3.0758Y-4.2028
X3.0758Y-4.4028
X3.0758Y-4.7028
X3.0758Y-4.9028
X3.1758Y-1.2146
X3.1758Y-1.4146
X3.1758Y-1.7146
X3.1758Y-1.9146
X3.1758Y-2.2106
X3.1758Y-2.4106
X3.1758Y-2.7106
X3.1758Y-2.9106
X3.1758Y-3.2067
X3.1758Y-3.4067
X3.1758Y-3.7067
X3.1758Y-3.9067
X3.1758Y-4.2028
X3.1758Y-4.4028
X3.1758Y-4.7028
X3.1758Y-4.9028
X3.2758Y-1.2146
X3.2758Y-1.4146
X3.2758Y-1.7146
X3.2758Y-1.9146
X3.2758Y-2.2106
X3.2758Y-2.4106
X3.2758Y-2.7106
X3.2758Y-2.9106
X3.2758Y-3.2067
X3.2758Y-3.4067
X3.2758Y-3.7067
X3.2758Y-3.9067
X3.2758Y-4.2028
X3.2758Y-4.4028
X3.2758Y-4.7028
X3.2758Y-4.9028
X5.9801Y-1.7189
X5.9801Y-2.7149
X5.9801Y-3.711
X5.9801Y-4.707
X6.1215Y-1.8603
X6.1215Y-2.8563
X6.1215Y-3.8524
X6.1215Y-4.8485
T3
X3.7258Y-1.2146
X3.7258Y-1.5146
X3.7258Y-1.6146
X3.7258Y-1.9146
X3.7258Y-2.2106
X3.7258Y-2.5106
X3.7258Y-2.6106
X3.7258Y-2.9106
X3.7258Y-3.2067
X3.7258Y-3.5067
X3.7258Y-3.6067
X3.7258Y-3.9067
X3.7258Y-4.2028
X3.7258Y-4.5028
X3.7258Y-4.6028
X3.7258Y-4.9028
X3.8258Y-1.2146
X3.8258Y-1.5146
X3.8258Y-1.6146
X3.8258Y-1.9146
X3.8258Y-2.2106
X3.8258Y-2.5106
X3.8258Y-2.6106
X3.8258Y-2.9106
X3.8258Y-3.2067
X3.8258Y-3.5067
X3.8258Y-3.6067
X3.8258Y-3.9067
X3.8258Y-4.2028
X3.8258Y-4.5028
X3.8258Y-4.6028
X3.8258Y-4.9028
X3.9258Y-1.2146
X3.9258Y-1.5146
X3.9258Y-1.6146
X3.9258Y-1.9146
X3.9258Y-2.2106
X3.9258Y-2.5106
X3.9258Y-2.6106
X3.9258Y-2.9106
X3.9258Y-3.2067
X3.9258Y-3.5067
X3.9258Y-3.6067
X3.9258Y-3.9067
X3.9258Y-4.2028
X3.9258Y-4.5028
X3.9258Y-4.6028
X3.9258Y-4.9028
X4.0258Y-1.2146
X4.0258Y-1.5146
X4.0258Y-1.6146
X4.0258Y-1.9146
X4.0258Y-2.2106
X4.0258Y-2.5106
X4.0258Y-2.6106
X4.0258Y-2.9106
X4.0258Y-3.2067
X4.0258Y-3.5067
X4.0258Y-3.6067
X4.0258Y-3.9067
X4.0258Y-4.2028
X4.0258Y-4.5028
X4.0258Y-4.6028
X4.0258Y-4.9028
X4.1258Y-1.2146
X4.1258Y-1.5146
X4.1258Y-1.6146
X4.1258Y-1.9146
X4.1258Y-2.2106
X4.1258Y-2.5106
X4.1258Y-2.6106
X4.1258Y-2.9106
X4.1258Y-3.2067
X4.1258Y-3.5067
X4.1258Y-3.6067
X4.1258Y-3.9067
X4.1258Y-4.2028
X4.1258Y-4.5028
X4.1258Y-4.6028
X4.1258Y-4.9028
X4.2258Y-1.2146
X4.2258Y-1.5146
X4.2258Y-1.6146
X4.2258Y-1.9146
X4.2258Y-2.2106
X4.2258Y-2.5106
X4.2258Y-2.6106
X4.2258Y-2.9106
X4.2258Y-3.2067
X4.2258Y-3.5067
X4.2258Y-3.6067
X4.2258Y-3.9067
X4.2258Y-4.2028
X4.2258Y-4.5028
X4.2258Y-4.6028
X4.2258Y-4.9028
X4.3258Y-1.2146
X4.3258Y-1.5146
X4.3258Y-1.6146
X4.3258Y-1.9146
X4.3258Y-2.2106
X4.3258Y-2.5106
X4.3258Y-2.6106
X4.3258Y-2.9106
X4.3258Y-3.2067
X4.3258Y-3.5067
X4.3258Y-3.6067
X4.3258Y-3.9067
X4.3258Y-4.2028
X4.3258Y-4.5028
X4.3258Y-4.6028
X4.3258Y-4.9028
X4.4258Y-1.2146
X4.4258Y-1.5146
X4.4258Y-1.6146
X4.4258Y-1.9146
X4.4258Y-2.2106
X4.4258Y-2.5106
X4.4258Y-2.6106
X4.4258Y-2.9106
X4.4258Y-3.2067
X4.4258Y-3.5067
X4.4258Y-3.6067
X4.4258Y-3.9067
X4.4258Y-4.2028
X4.4258Y-4.5028
X4.4258Y-4.6028
X4.4258Y-4.9028
X4.6008Y-1.2146
X4.6008Y-1.5146
X4.6008Y-2.2106
X4.6008Y-2.5106
X4.6008Y-3.2067
X4.6008Y-3.5067
X4.6008Y-4.2028
X4.6008Y-4.5028
X4.7008Y-1.2146
X4.7008Y-1.5146
X4.7008Y-2.2106
X4.7008Y-2.5106
X4.7008Y-3.2067
X4.7008Y-3.5067
X4.7008Y-4.2028
X4.7008Y-4.5028
X4.8008Y-1.2146
X4.8008Y-1.5146
X4.8008Y-2.2106
X4.8008Y-2.5106
X4.8008Y-3.2067
X4.8008Y-3.5067
X4.8008Y-4.2028
X4.8008Y-4.5028
X4.9008Y-1.2146
X4.9008Y-1.5146
X4.9008Y-2.2106
X4.9008Y-2.5106
X4.9008Y-3.2067
X4.9008Y-3.5067
X4.9008Y-4.2028
X4.9008Y-4.5028
X5.0008Y-1.2146
X5.0008Y-1.5146
X5.0008Y-2.2106
X5.0008Y-2.5106
X5.0008Y-3.2067
X5.0008Y-3.5067
X5.0008Y-4.2028
X5.0008Y-4.5028
X5.1008Y-1.2146
X5.1008Y-1.5146
X5.1008Y-2.2106
X5.1008Y-2.5106
X5.1008Y-3.2067
X5.1008Y-3.5067
X5.1008Y-4.2028
X5.1008Y-4.5028
X5.2008Y-1.2146
X5.2008Y-1.5146
X5.2008Y-1.6396
X5.2008Y-2.2106
X5.2008Y-2.5106
X5.2008Y-2.6356
X5.2008Y-3.2067
X5.2008Y-3.5067
X5.2008Y-3.6317
X5.2008Y-4.2028
X5.2008Y-4.5028
X5.2008Y-4.6278
X5.3008Y-1.2146
X5.3008Y-1.5146
X5.3008Y-2.2106
X5.3008Y-2.5106
X5.3008Y-3.2067
X5.3008Y-3.5067
X5.3008Y-4.2028
X5.3008Y-4.5028
X5.4008Y-1.2146
X5.4008Y-1.5146
X5.4008Y-2.2106
X5.4008Y-2.5106
X5.4008Y-3.2067
X5.4008Y-3.5067
X5.4008Y-4.2028
X5.4008Y-4.5028
X5.5008Y-1.2146
X5.5008Y-1.5146
X5.5008Y-2.2106
X5.5008Y-2.5106
X5.5008Y-3.2067
X5.5008Y-3.5067
X5.5008Y-4.2028
X5.5008Y-4.5028
X5.6008Y-1.2146
X5.6008Y-1.5146
X5.6008Y-2.2106
X5.6008Y-2.5106
X5.6008Y-3.2067
X5.6008Y-3.5067
X5.6008Y-4.2028
X5.6008Y-4.5028
X5.7008Y-1.2146
X5.7008Y-1.5146
X5.7008Y-2.2106
X5.7008Y-2.5106
X5.7008Y-3.2067
X5.7008Y-3.5067
X5.7008Y-4.2028
X5.7008Y-4.5028
X5.8008Y-1.2146
X5.8008Y-1.5146
X5.8008Y-2.2106
X5.8008Y-2.5106
X5.8008Y-3.2067
X5.8008Y-3.5067
X5.8008Y-4.2028
X5.8008Y-4.5028
X5.9008Y-1.2146
X5.9008Y-1.5146
X5.9008Y-2.2106
X5.9008Y-2.5106
X5.9008Y-3.2067
X5.9008Y-3.5067
X5.9008Y-4.2028
X5.9008Y-4.5028
X6.0258Y-1.9646
X6.0258Y-2.9606
X6.0258Y-3.9567
X6.0258Y-4.9528
T4
X5.2992Y-1.6396
X5.2992Y-2.6356
X5.2992Y-3.6317
X5.2992Y-4.6278
X6.1242Y-1.9646
X6.1242Y-2.9606
X6.1242Y-3.9567
X6.1242Y-4.9528
T5
X2.2758Y-1.1646
X2.2758Y-1.2646
X2.2758Y-1.3646
X2.2758Y-1.5146
X2.2758Y-2.1606
X2.2758Y-2.2606
X2.2758Y-2.3606
X2.2758Y-2.5106
X2.2758Y-3.1567
X2.2758Y-3.2567
X2.2758Y-3.3567
X2.2758Y-3.5067
X2.2758Y-4.1528
X2.2758Y-4.2528
X2.2758Y-4.3528
X2.2758Y-4.5028
X2.3758Y-1.5146
X2.3758Y-2.5106
X2.3758Y-3.5067
X2.3758Y-4.5028
X2.4758Y-1.5146
X2.4758Y-1.6146
X2.4758Y-2.5106
X2.4758Y-2.6106
X2.4758Y-3.5067
X2.4758Y-3.6067
X2.4758Y-4.5028
X2.4758Y-4.6028
X2.5758Y-1.5146
X2.5758Y-1.6146
X2.5758Y-2.5106
X2.5758Y-2.6106
X2.5758Y-3.5067
X2.5758Y-3.6067
X2.5758Y-4.5028
X2.5758Y-4.6028
X2.6758Y-1.5146
X2.6758Y-1.6146
X2.6758Y-2.5106
X2.6758Y-2.6106
X2.6758Y-3.5067
X2.6758Y-3.6067
X2.6758Y-4.5028
X2.6758Y-4.6028
X2.7758Y-1.5146
X2.7758Y-1.6146
X2.7758Y-2.5106
X2.7758Y-2.6106
X2.7758Y-3.5067
X2.7758Y-3.6067
X2.7758Y-4.5028
X2.7758Y-4.6028
X2.8758Y-1.5146
X2.8758Y-1.6146
X2.8758Y-2.5106
X2.8758Y-2.6106
X2.8758Y-3.5067
X2.8758Y-3.6067
X2.8758Y-4.5028
X2.8758Y-4.6028
X2.9758Y-1.5146
X2.9758Y-1.6146
X2.9758Y-2.5106
X2.9758Y-2.6106
X2.9758Y-3.5067
X2.9758Y-3.6067
X2.9758Y-4.5028
X2.9758Y-4.6028
X3.0758Y-1.5146
X3.0758Y-1.6146
X3.0758Y-2.5106
X3.0758Y-2.6106
X3.0758Y-3.5067
X3.0758Y-3.6067
X3.0758Y-4.5028
X3.0758Y-4.6028
X3.1758Y-1.5146
X3.1758Y-1.6146
X3.1758Y-2.5106
X3.1758Y-2.6106
X3.1758Y-3.5067
X3.1758Y-3.6067
X3.1758Y-4.5028
X3.1758Y-4.6028
X3.2758Y-1.5146
X3.2758Y-1.6146
X3.2758Y-2.5106
X3.2758Y-2.6106
X3.2758Y-3.5067
X3.2758Y-3.6067
X3.2758Y-4.5028
X3.2758Y-4.6028
X3.3758Y-1.5146
X3.3758Y-2.5106
X3.3758Y-3.5067
X3.3758Y-4.5028
X3.4758Y-1.5146
X3.4758Y-2.5106
X3.4758Y-3.5067
X3.4758Y-4.5028
X5.7758Y-1.7646
X5.7758Y-1.8646
X5.7758Y-1.9646
X5.7758Y-2.7606
X5.7758Y-2.8606
X5.7758Y-2.9606
X5.7758Y-3.7567
X5.7758Y-3.8567
X5.7758Y-3.9567
X5.7758Y-4.7528
X5.7758Y-4.8528
X5.7758Y-4.9528
X5.8758Y-1.7646
X5.8758Y-1.8646
X5.8758Y-1.9646
X5.8758Y-2.7606
X5.8758Y-2.8606
X5.8758Y-2.9606
X5.8758Y-3.7567
X5.8758Y-3.8567
X5.8758Y-3.9567
X5.8758Y-4.7528
X5.8758Y-4.8528
X5.8758Y-4.9528
X6.0758Y-1.3646
X6.0758Y-1.4646
X6.0758Y-1.5646
X6.0758Y-1.6646
X6.0758Y-2.3606
X6.0758Y-2.4606
X6.0758Y-2.5606
X6.0758Y-2.6606
X6.0758Y-3.3567
X6.0758Y-3.4567
X6.0758Y-3.5567
X6.0758Y-3.6567
X6.0758Y-4.3528
X6.0758Y-4.4528
X6.0758Y-4.5528
X6.0758Y-4.6528
X6.2758Y-1.1646
X6.2758Y-1.2646
X6.2758Y-1.3646
X6.2758Y-1.4646
X6.2758Y-1.5646
X6.2758Y-1.6646
X6.2758Y-1.7646
X6.2758Y-1.8646
X6.2758Y-1.9646
X6.2758Y-2.1606
X6.2758Y-2.2606
X6.2758Y-2.3606
X6.2758Y-2.4606
X6.2758Y-2.5606
X6.2758Y-2.6606
X6.2758Y-2.7606
X6.2758Y-2.8606
X6.2758Y-2.9606
X6.2758Y-3.1567
X6.2758Y-3.2567
X6.2758Y-3.3567
X6.2758Y-3.4567
X6.2758Y-3.5567
X6.2758Y-3.6567
X6.2758Y-3.7567
X6.2758Y-3.8567
X6.2758Y-3.9567
X6.2758Y-4.1528
X6.2758Y-4.2528
X6.2758Y-4.3528
X6.2758Y-4.4528
X6.2758Y-4.5528
X6.2758Y-4.6528
X6.2758Y-4.7528
X6.2758Y-4.8528
X6.2758Y-4.9528
T0
M30
