G04 #@! TF.FileFunction,Legend,Top*
%FSLAX46Y46*%
G04 Gerber Fmt 4.6, Leading zero omitted, Abs format (unit mm)*
G04 Created by KiCad (PCBNEW 4.0.2-stable) date 1/2/2017 10:04:15 PM*
%MOMM*%
G01*
G04 APERTURE LIST*
%ADD10C,0.100000*%
%ADD11C,0.300000*%
%ADD12C,0.200000*%
%ADD13C,0.190500*%
%ADD14C,0.152400*%
%ADD15C,0.150000*%
%ADD16C,0.101600*%
%ADD17C,0.120000*%
%ADD18C,0.010000*%
G04 APERTURE END LIST*
D10*
D11*
X139935001Y-61210000D02*
X140649287Y-61210000D01*
X139792144Y-61638571D02*
X140292144Y-60138571D01*
X140792144Y-61638571D01*
X141077858Y-60138571D02*
X141935001Y-60138571D01*
X141506430Y-61638571D02*
X141506430Y-60138571D01*
X142435001Y-61638571D02*
X142435001Y-60138571D01*
X142935001Y-61210000D01*
X143435001Y-60138571D01*
X143435001Y-61638571D01*
X144149287Y-60852857D02*
X144649287Y-60852857D01*
X144863573Y-61638571D02*
X144149287Y-61638571D01*
X144149287Y-60138571D01*
X144863573Y-60138571D01*
X146292144Y-60210000D02*
X146149287Y-60138571D01*
X145935001Y-60138571D01*
X145720716Y-60210000D01*
X145577858Y-60352857D01*
X145506430Y-60495714D01*
X145435001Y-60781429D01*
X145435001Y-60995714D01*
X145506430Y-61281429D01*
X145577858Y-61424286D01*
X145720716Y-61567143D01*
X145935001Y-61638571D01*
X146077858Y-61638571D01*
X146292144Y-61567143D01*
X146363573Y-61495714D01*
X146363573Y-60995714D01*
X146077858Y-60995714D01*
X146935001Y-61210000D02*
X147649287Y-61210000D01*
X146792144Y-61638571D02*
X147292144Y-60138571D01*
X147792144Y-61638571D01*
X148149287Y-60138571D02*
X149077858Y-60138571D01*
X148577858Y-60710000D01*
X148792144Y-60710000D01*
X148935001Y-60781429D01*
X149006430Y-60852857D01*
X149077858Y-60995714D01*
X149077858Y-61352857D01*
X149006430Y-61495714D01*
X148935001Y-61567143D01*
X148792144Y-61638571D01*
X148363572Y-61638571D01*
X148220715Y-61567143D01*
X148149287Y-61495714D01*
X149649286Y-60281429D02*
X149720715Y-60210000D01*
X149863572Y-60138571D01*
X150220715Y-60138571D01*
X150363572Y-60210000D01*
X150435001Y-60281429D01*
X150506429Y-60424286D01*
X150506429Y-60567143D01*
X150435001Y-60781429D01*
X149577858Y-61638571D01*
X150506429Y-61638571D01*
X151363572Y-60781429D02*
X151220714Y-60710000D01*
X151149286Y-60638571D01*
X151077857Y-60495714D01*
X151077857Y-60424286D01*
X151149286Y-60281429D01*
X151220714Y-60210000D01*
X151363572Y-60138571D01*
X151649286Y-60138571D01*
X151792143Y-60210000D01*
X151863572Y-60281429D01*
X151935000Y-60424286D01*
X151935000Y-60495714D01*
X151863572Y-60638571D01*
X151792143Y-60710000D01*
X151649286Y-60781429D01*
X151363572Y-60781429D01*
X151220714Y-60852857D01*
X151149286Y-60924286D01*
X151077857Y-61067143D01*
X151077857Y-61352857D01*
X151149286Y-61495714D01*
X151220714Y-61567143D01*
X151363572Y-61638571D01*
X151649286Y-61638571D01*
X151792143Y-61567143D01*
X151863572Y-61495714D01*
X151935000Y-61352857D01*
X151935000Y-61067143D01*
X151863572Y-60924286D01*
X151792143Y-60852857D01*
X151649286Y-60781429D01*
X152577857Y-61638571D02*
X152577857Y-60138571D01*
X153149285Y-60138571D01*
X153292143Y-60210000D01*
X153363571Y-60281429D01*
X153435000Y-60424286D01*
X153435000Y-60638571D01*
X153363571Y-60781429D01*
X153292143Y-60852857D01*
X153149285Y-60924286D01*
X152577857Y-60924286D01*
X112153572Y-70298571D02*
X112153572Y-71512857D01*
X112225000Y-71655714D01*
X112296429Y-71727143D01*
X112439286Y-71798571D01*
X112725000Y-71798571D01*
X112867858Y-71727143D01*
X112939286Y-71655714D01*
X113010715Y-71512857D01*
X113010715Y-70298571D01*
X114439287Y-71798571D02*
X113725001Y-71798571D01*
X113725001Y-70298571D01*
X114939287Y-71798571D02*
X114939287Y-70298571D01*
X115796430Y-71798571D01*
X115796430Y-70298571D01*
X116439287Y-70441429D02*
X116510716Y-70370000D01*
X116653573Y-70298571D01*
X117010716Y-70298571D01*
X117153573Y-70370000D01*
X117225002Y-70441429D01*
X117296430Y-70584286D01*
X117296430Y-70727143D01*
X117225002Y-70941429D01*
X116367859Y-71798571D01*
X117296430Y-71798571D01*
X118225001Y-70298571D02*
X118367858Y-70298571D01*
X118510715Y-70370000D01*
X118582144Y-70441429D01*
X118653573Y-70584286D01*
X118725001Y-70870000D01*
X118725001Y-71227143D01*
X118653573Y-71512857D01*
X118582144Y-71655714D01*
X118510715Y-71727143D01*
X118367858Y-71798571D01*
X118225001Y-71798571D01*
X118082144Y-71727143D01*
X118010715Y-71655714D01*
X117939287Y-71512857D01*
X117867858Y-71227143D01*
X117867858Y-70870000D01*
X117939287Y-70584286D01*
X118010715Y-70441429D01*
X118082144Y-70370000D01*
X118225001Y-70298571D01*
X119653572Y-70298571D02*
X119796429Y-70298571D01*
X119939286Y-70370000D01*
X120010715Y-70441429D01*
X120082144Y-70584286D01*
X120153572Y-70870000D01*
X120153572Y-71227143D01*
X120082144Y-71512857D01*
X120010715Y-71655714D01*
X119939286Y-71727143D01*
X119796429Y-71798571D01*
X119653572Y-71798571D01*
X119510715Y-71727143D01*
X119439286Y-71655714D01*
X119367858Y-71512857D01*
X119296429Y-71227143D01*
X119296429Y-70870000D01*
X119367858Y-70584286D01*
X119439286Y-70441429D01*
X119510715Y-70370000D01*
X119653572Y-70298571D01*
X120653572Y-70298571D02*
X121582143Y-70298571D01*
X121082143Y-70870000D01*
X121296429Y-70870000D01*
X121439286Y-70941429D01*
X121510715Y-71012857D01*
X121582143Y-71155714D01*
X121582143Y-71512857D01*
X121510715Y-71655714D01*
X121439286Y-71727143D01*
X121296429Y-71798571D01*
X120867857Y-71798571D01*
X120725000Y-71727143D01*
X120653572Y-71655714D01*
X122153571Y-71370000D02*
X122867857Y-71370000D01*
X122010714Y-71798571D02*
X122510714Y-70298571D01*
X123010714Y-71798571D01*
X112582144Y-60138571D02*
X113582144Y-60138571D01*
X112939287Y-61638571D01*
X114796429Y-60638571D02*
X114796429Y-61638571D01*
X114439286Y-60067143D02*
X114082143Y-61138571D01*
X115010715Y-61138571D01*
X115582143Y-61638571D02*
X115582143Y-60138571D01*
X115582143Y-60852857D02*
X116439286Y-60852857D01*
X116439286Y-61638571D02*
X116439286Y-60138571D01*
X118010715Y-61495714D02*
X117939286Y-61567143D01*
X117725000Y-61638571D01*
X117582143Y-61638571D01*
X117367858Y-61567143D01*
X117225000Y-61424286D01*
X117153572Y-61281429D01*
X117082143Y-60995714D01*
X117082143Y-60781429D01*
X117153572Y-60495714D01*
X117225000Y-60352857D01*
X117367858Y-60210000D01*
X117582143Y-60138571D01*
X117725000Y-60138571D01*
X117939286Y-60210000D01*
X118010715Y-60281429D01*
X118582143Y-60281429D02*
X118653572Y-60210000D01*
X118796429Y-60138571D01*
X119153572Y-60138571D01*
X119296429Y-60210000D01*
X119367858Y-60281429D01*
X119439286Y-60424286D01*
X119439286Y-60567143D01*
X119367858Y-60781429D01*
X118510715Y-61638571D01*
X119439286Y-61638571D01*
X119939286Y-60138571D02*
X120867857Y-60138571D01*
X120367857Y-60710000D01*
X120582143Y-60710000D01*
X120725000Y-60781429D01*
X120796429Y-60852857D01*
X120867857Y-60995714D01*
X120867857Y-61352857D01*
X120796429Y-61495714D01*
X120725000Y-61567143D01*
X120582143Y-61638571D01*
X120153571Y-61638571D01*
X120010714Y-61567143D01*
X119939286Y-61495714D01*
X121725000Y-60781429D02*
X121582142Y-60710000D01*
X121510714Y-60638571D01*
X121439285Y-60495714D01*
X121439285Y-60424286D01*
X121510714Y-60281429D01*
X121582142Y-60210000D01*
X121725000Y-60138571D01*
X122010714Y-60138571D01*
X122153571Y-60210000D01*
X122225000Y-60281429D01*
X122296428Y-60424286D01*
X122296428Y-60495714D01*
X122225000Y-60638571D01*
X122153571Y-60710000D01*
X122010714Y-60781429D01*
X121725000Y-60781429D01*
X121582142Y-60852857D01*
X121510714Y-60924286D01*
X121439285Y-61067143D01*
X121439285Y-61352857D01*
X121510714Y-61495714D01*
X121582142Y-61567143D01*
X121725000Y-61638571D01*
X122010714Y-61638571D01*
X122153571Y-61567143D01*
X122225000Y-61495714D01*
X122296428Y-61352857D01*
X122296428Y-61067143D01*
X122225000Y-60924286D01*
X122153571Y-60852857D01*
X122010714Y-60781429D01*
D12*
X74295000Y-54483000D02*
X74295000Y-54864000D01*
X74422000Y-54483000D02*
X74295000Y-54483000D01*
X74295000Y-54483000D02*
X74422000Y-54483000D01*
X74422000Y-54991000D02*
X74422000Y-54483000D01*
X74041000Y-54610000D02*
X74422000Y-54991000D01*
X74422000Y-54229000D02*
X74422000Y-54864000D01*
X74041000Y-54610000D02*
X74422000Y-54229000D01*
X75311000Y-54610000D02*
X74041000Y-54610000D01*
D13*
X75565000Y-54192714D02*
X76000429Y-54192714D01*
X75782715Y-54954714D02*
X75782715Y-54192714D01*
X76363286Y-54954714D02*
X76290714Y-54918429D01*
X76254429Y-54882143D01*
X76218143Y-54809571D01*
X76218143Y-54591857D01*
X76254429Y-54519286D01*
X76290714Y-54483000D01*
X76363286Y-54446714D01*
X76472143Y-54446714D01*
X76544714Y-54483000D01*
X76581000Y-54519286D01*
X76617286Y-54591857D01*
X76617286Y-54809571D01*
X76581000Y-54882143D01*
X76544714Y-54918429D01*
X76472143Y-54954714D01*
X76363286Y-54954714D01*
X77524429Y-54954714D02*
X77524429Y-54192714D01*
X77959857Y-54954714D01*
X77959857Y-54192714D01*
X78613000Y-54918429D02*
X78540429Y-54954714D01*
X78395286Y-54954714D01*
X78322715Y-54918429D01*
X78286429Y-54845857D01*
X78286429Y-54555571D01*
X78322715Y-54483000D01*
X78395286Y-54446714D01*
X78540429Y-54446714D01*
X78613000Y-54483000D01*
X78649286Y-54555571D01*
X78649286Y-54628143D01*
X78286429Y-54700714D01*
X78903286Y-54954714D02*
X79302429Y-54446714D01*
X78903286Y-54446714D02*
X79302429Y-54954714D01*
X79483857Y-54446714D02*
X79774143Y-54446714D01*
X79592715Y-54192714D02*
X79592715Y-54845857D01*
X79629000Y-54918429D01*
X79701572Y-54954714D01*
X79774143Y-54954714D01*
X80608715Y-54954714D02*
X80608715Y-54192714D01*
X80790143Y-54192714D01*
X80899000Y-54229000D01*
X80971572Y-54301571D01*
X81007857Y-54374143D01*
X81044143Y-54519286D01*
X81044143Y-54628143D01*
X81007857Y-54773286D01*
X80971572Y-54845857D01*
X80899000Y-54918429D01*
X80790143Y-54954714D01*
X80608715Y-54954714D01*
X81370715Y-54954714D02*
X81370715Y-54446714D01*
X81370715Y-54192714D02*
X81334429Y-54229000D01*
X81370715Y-54265286D01*
X81407000Y-54229000D01*
X81370715Y-54192714D01*
X81370715Y-54265286D01*
X81697286Y-54918429D02*
X81769857Y-54954714D01*
X81915000Y-54954714D01*
X81987572Y-54918429D01*
X82023857Y-54845857D01*
X82023857Y-54809571D01*
X81987572Y-54737000D01*
X81915000Y-54700714D01*
X81806143Y-54700714D01*
X81733572Y-54664429D01*
X81697286Y-54591857D01*
X81697286Y-54555571D01*
X81733572Y-54483000D01*
X81806143Y-54446714D01*
X81915000Y-54446714D01*
X81987572Y-54483000D01*
X82350429Y-54446714D02*
X82350429Y-55208714D01*
X82350429Y-54483000D02*
X82423000Y-54446714D01*
X82568143Y-54446714D01*
X82640714Y-54483000D01*
X82677000Y-54519286D01*
X82713286Y-54591857D01*
X82713286Y-54809571D01*
X82677000Y-54882143D01*
X82640714Y-54918429D01*
X82568143Y-54954714D01*
X82423000Y-54954714D01*
X82350429Y-54918429D01*
X83148715Y-54954714D02*
X83076143Y-54918429D01*
X83039858Y-54845857D01*
X83039858Y-54192714D01*
X83765572Y-54954714D02*
X83765572Y-54555571D01*
X83729286Y-54483000D01*
X83656715Y-54446714D01*
X83511572Y-54446714D01*
X83439001Y-54483000D01*
X83765572Y-54918429D02*
X83693001Y-54954714D01*
X83511572Y-54954714D01*
X83439001Y-54918429D01*
X83402715Y-54845857D01*
X83402715Y-54773286D01*
X83439001Y-54700714D01*
X83511572Y-54664429D01*
X83693001Y-54664429D01*
X83765572Y-54628143D01*
X84055858Y-54446714D02*
X84237287Y-54954714D01*
X84418715Y-54446714D02*
X84237287Y-54954714D01*
X84164715Y-55136143D01*
X84128430Y-55172429D01*
X84055858Y-55208714D01*
D11*
X138935000Y-71303571D02*
X138935000Y-69803571D01*
X139435000Y-70875000D01*
X139935000Y-69803571D01*
X139935000Y-71303571D01*
X141292143Y-71303571D02*
X141292143Y-70517857D01*
X141220714Y-70375000D01*
X141077857Y-70303571D01*
X140792143Y-70303571D01*
X140649286Y-70375000D01*
X141292143Y-71232143D02*
X141149286Y-71303571D01*
X140792143Y-71303571D01*
X140649286Y-71232143D01*
X140577857Y-71089286D01*
X140577857Y-70946429D01*
X140649286Y-70803571D01*
X140792143Y-70732143D01*
X141149286Y-70732143D01*
X141292143Y-70660714D01*
X142006429Y-70303571D02*
X142006429Y-71303571D01*
X142006429Y-70446429D02*
X142077857Y-70375000D01*
X142220715Y-70303571D01*
X142435000Y-70303571D01*
X142577857Y-70375000D01*
X142649286Y-70517857D01*
X142649286Y-71303571D01*
X143363572Y-71303571D02*
X143363572Y-70303571D01*
X143363572Y-69803571D02*
X143292143Y-69875000D01*
X143363572Y-69946429D01*
X143435000Y-69875000D01*
X143363572Y-69803571D01*
X143363572Y-69946429D01*
X144720715Y-71303571D02*
X144720715Y-70517857D01*
X144649286Y-70375000D01*
X144506429Y-70303571D01*
X144220715Y-70303571D01*
X144077858Y-70375000D01*
X144720715Y-71232143D02*
X144577858Y-71303571D01*
X144220715Y-71303571D01*
X144077858Y-71232143D01*
X144006429Y-71089286D01*
X144006429Y-70946429D01*
X144077858Y-70803571D01*
X144220715Y-70732143D01*
X144577858Y-70732143D01*
X144720715Y-70660714D01*
X146077858Y-71232143D02*
X145935001Y-71303571D01*
X145649287Y-71303571D01*
X145506429Y-71232143D01*
X145435001Y-71160714D01*
X145363572Y-71017857D01*
X145363572Y-70589286D01*
X145435001Y-70446429D01*
X145506429Y-70375000D01*
X145649287Y-70303571D01*
X145935001Y-70303571D01*
X146077858Y-70375000D01*
X147363572Y-71303571D02*
X147363572Y-70517857D01*
X147292143Y-70375000D01*
X147149286Y-70303571D01*
X146863572Y-70303571D01*
X146720715Y-70375000D01*
X147363572Y-71232143D02*
X147220715Y-71303571D01*
X146863572Y-71303571D01*
X146720715Y-71232143D01*
X146649286Y-71089286D01*
X146649286Y-70946429D01*
X146720715Y-70803571D01*
X146863572Y-70732143D01*
X147220715Y-70732143D01*
X147363572Y-70660714D01*
X148292144Y-71303571D02*
X148149286Y-71232143D01*
X148077858Y-71089286D01*
X148077858Y-69803571D01*
X150720715Y-71303571D02*
X150006429Y-71303571D01*
X150006429Y-69803571D01*
X151863572Y-71303571D02*
X151863572Y-70517857D01*
X151792143Y-70375000D01*
X151649286Y-70303571D01*
X151363572Y-70303571D01*
X151220715Y-70375000D01*
X151863572Y-71232143D02*
X151720715Y-71303571D01*
X151363572Y-71303571D01*
X151220715Y-71232143D01*
X151149286Y-71089286D01*
X151149286Y-70946429D01*
X151220715Y-70803571D01*
X151363572Y-70732143D01*
X151720715Y-70732143D01*
X151863572Y-70660714D01*
X152577858Y-71303571D02*
X152577858Y-69803571D01*
X152577858Y-70375000D02*
X152720715Y-70303571D01*
X153006429Y-70303571D01*
X153149286Y-70375000D01*
X153220715Y-70446429D01*
X153292144Y-70589286D01*
X153292144Y-71017857D01*
X153220715Y-71160714D01*
X153149286Y-71232143D01*
X153006429Y-71303571D01*
X152720715Y-71303571D01*
X152577858Y-71232143D01*
X153863572Y-71232143D02*
X154006429Y-71303571D01*
X154292144Y-71303571D01*
X154435001Y-71232143D01*
X154506429Y-71089286D01*
X154506429Y-71017857D01*
X154435001Y-70875000D01*
X154292144Y-70803571D01*
X154077858Y-70803571D01*
X153935001Y-70732143D01*
X153863572Y-70589286D01*
X153863572Y-70517857D01*
X153935001Y-70375000D01*
X154077858Y-70303571D01*
X154292144Y-70303571D01*
X154435001Y-70375000D01*
X137149287Y-73632143D02*
X137363573Y-73703571D01*
X137720716Y-73703571D01*
X137863573Y-73632143D01*
X137935002Y-73560714D01*
X138006430Y-73417857D01*
X138006430Y-73275000D01*
X137935002Y-73132143D01*
X137863573Y-73060714D01*
X137720716Y-72989286D01*
X137435002Y-72917857D01*
X137292144Y-72846429D01*
X137220716Y-72775000D01*
X137149287Y-72632143D01*
X137149287Y-72489286D01*
X137220716Y-72346429D01*
X137292144Y-72275000D01*
X137435002Y-72203571D01*
X137792144Y-72203571D01*
X138006430Y-72275000D01*
X139292144Y-72703571D02*
X139292144Y-73703571D01*
X138649287Y-72703571D02*
X138649287Y-73489286D01*
X138720715Y-73632143D01*
X138863573Y-73703571D01*
X139077858Y-73703571D01*
X139220715Y-73632143D01*
X139292144Y-73560714D01*
X140006430Y-72703571D02*
X140006430Y-74203571D01*
X140006430Y-72775000D02*
X140149287Y-72703571D01*
X140435001Y-72703571D01*
X140577858Y-72775000D01*
X140649287Y-72846429D01*
X140720716Y-72989286D01*
X140720716Y-73417857D01*
X140649287Y-73560714D01*
X140577858Y-73632143D01*
X140435001Y-73703571D01*
X140149287Y-73703571D01*
X140006430Y-73632143D01*
X141935001Y-73632143D02*
X141792144Y-73703571D01*
X141506430Y-73703571D01*
X141363573Y-73632143D01*
X141292144Y-73489286D01*
X141292144Y-72917857D01*
X141363573Y-72775000D01*
X141506430Y-72703571D01*
X141792144Y-72703571D01*
X141935001Y-72775000D01*
X142006430Y-72917857D01*
X142006430Y-73060714D01*
X141292144Y-73203571D01*
X142649287Y-73703571D02*
X142649287Y-72703571D01*
X142649287Y-72989286D02*
X142720715Y-72846429D01*
X142792144Y-72775000D01*
X142935001Y-72703571D01*
X143077858Y-72703571D01*
X144577858Y-72203571D02*
X145577858Y-72203571D01*
X144935001Y-73703571D01*
X147220714Y-73632143D02*
X147435000Y-73703571D01*
X147792143Y-73703571D01*
X147935000Y-73632143D01*
X148006429Y-73560714D01*
X148077857Y-73417857D01*
X148077857Y-73275000D01*
X148006429Y-73132143D01*
X147935000Y-73060714D01*
X147792143Y-72989286D01*
X147506429Y-72917857D01*
X147363571Y-72846429D01*
X147292143Y-72775000D01*
X147220714Y-72632143D01*
X147220714Y-72489286D01*
X147292143Y-72346429D01*
X147363571Y-72275000D01*
X147506429Y-72203571D01*
X147863571Y-72203571D01*
X148077857Y-72275000D01*
X149292142Y-73632143D02*
X149149285Y-73703571D01*
X148863571Y-73703571D01*
X148720714Y-73632143D01*
X148649285Y-73489286D01*
X148649285Y-72917857D01*
X148720714Y-72775000D01*
X148863571Y-72703571D01*
X149149285Y-72703571D01*
X149292142Y-72775000D01*
X149363571Y-72917857D01*
X149363571Y-73060714D01*
X148649285Y-73203571D01*
X150649285Y-72703571D02*
X150649285Y-73917857D01*
X150577856Y-74060714D01*
X150506428Y-74132143D01*
X150363571Y-74203571D01*
X150149285Y-74203571D01*
X150006428Y-74132143D01*
X150649285Y-73632143D02*
X150506428Y-73703571D01*
X150220714Y-73703571D01*
X150077856Y-73632143D01*
X150006428Y-73560714D01*
X149934999Y-73417857D01*
X149934999Y-72989286D01*
X150006428Y-72846429D01*
X150077856Y-72775000D01*
X150220714Y-72703571D01*
X150506428Y-72703571D01*
X150649285Y-72775000D01*
X151363571Y-73703571D02*
X151363571Y-72703571D01*
X151363571Y-72846429D02*
X151434999Y-72775000D01*
X151577857Y-72703571D01*
X151792142Y-72703571D01*
X151934999Y-72775000D01*
X152006428Y-72917857D01*
X152006428Y-73703571D01*
X152006428Y-72917857D02*
X152077857Y-72775000D01*
X152220714Y-72703571D01*
X152434999Y-72703571D01*
X152577857Y-72775000D01*
X152649285Y-72917857D01*
X152649285Y-73703571D01*
X153934999Y-73632143D02*
X153792142Y-73703571D01*
X153506428Y-73703571D01*
X153363571Y-73632143D01*
X153292142Y-73489286D01*
X153292142Y-72917857D01*
X153363571Y-72775000D01*
X153506428Y-72703571D01*
X153792142Y-72703571D01*
X153934999Y-72775000D01*
X154006428Y-72917857D01*
X154006428Y-73060714D01*
X153292142Y-73203571D01*
X154649285Y-72703571D02*
X154649285Y-73703571D01*
X154649285Y-72846429D02*
X154720713Y-72775000D01*
X154863571Y-72703571D01*
X155077856Y-72703571D01*
X155220713Y-72775000D01*
X155292142Y-72917857D01*
X155292142Y-73703571D01*
X155792142Y-72703571D02*
X156363571Y-72703571D01*
X156006428Y-72203571D02*
X156006428Y-73489286D01*
X156077856Y-73632143D01*
X156220714Y-73703571D01*
X156363571Y-73703571D01*
X142327858Y-75960714D02*
X142256429Y-76032143D01*
X142042143Y-76103571D01*
X141899286Y-76103571D01*
X141685001Y-76032143D01*
X141542143Y-75889286D01*
X141470715Y-75746429D01*
X141399286Y-75460714D01*
X141399286Y-75246429D01*
X141470715Y-74960714D01*
X141542143Y-74817857D01*
X141685001Y-74675000D01*
X141899286Y-74603571D01*
X142042143Y-74603571D01*
X142256429Y-74675000D01*
X142327858Y-74746429D01*
X143185001Y-76103571D02*
X143042143Y-76032143D01*
X142970715Y-75960714D01*
X142899286Y-75817857D01*
X142899286Y-75389286D01*
X142970715Y-75246429D01*
X143042143Y-75175000D01*
X143185001Y-75103571D01*
X143399286Y-75103571D01*
X143542143Y-75175000D01*
X143613572Y-75246429D01*
X143685001Y-75389286D01*
X143685001Y-75817857D01*
X143613572Y-75960714D01*
X143542143Y-76032143D01*
X143399286Y-76103571D01*
X143185001Y-76103571D01*
X144327858Y-75103571D02*
X144327858Y-76103571D01*
X144327858Y-75246429D02*
X144399286Y-75175000D01*
X144542144Y-75103571D01*
X144756429Y-75103571D01*
X144899286Y-75175000D01*
X144970715Y-75317857D01*
X144970715Y-76103571D01*
X145470715Y-75103571D02*
X146042144Y-75103571D01*
X145685001Y-74603571D02*
X145685001Y-75889286D01*
X145756429Y-76032143D01*
X145899287Y-76103571D01*
X146042144Y-76103571D01*
X146542144Y-76103571D02*
X146542144Y-75103571D01*
X146542144Y-75389286D02*
X146613572Y-75246429D01*
X146685001Y-75175000D01*
X146827858Y-75103571D01*
X146970715Y-75103571D01*
X147685001Y-76103571D02*
X147542143Y-76032143D01*
X147470715Y-75960714D01*
X147399286Y-75817857D01*
X147399286Y-75389286D01*
X147470715Y-75246429D01*
X147542143Y-75175000D01*
X147685001Y-75103571D01*
X147899286Y-75103571D01*
X148042143Y-75175000D01*
X148113572Y-75246429D01*
X148185001Y-75389286D01*
X148185001Y-75817857D01*
X148113572Y-75960714D01*
X148042143Y-76032143D01*
X147899286Y-76103571D01*
X147685001Y-76103571D01*
X149042144Y-76103571D02*
X148899286Y-76032143D01*
X148827858Y-75889286D01*
X148827858Y-74603571D01*
X149827858Y-76103571D02*
X149685000Y-76032143D01*
X149613572Y-75889286D01*
X149613572Y-74603571D01*
X150970714Y-76032143D02*
X150827857Y-76103571D01*
X150542143Y-76103571D01*
X150399286Y-76032143D01*
X150327857Y-75889286D01*
X150327857Y-75317857D01*
X150399286Y-75175000D01*
X150542143Y-75103571D01*
X150827857Y-75103571D01*
X150970714Y-75175000D01*
X151042143Y-75317857D01*
X151042143Y-75460714D01*
X150327857Y-75603571D01*
X151685000Y-76103571D02*
X151685000Y-75103571D01*
X151685000Y-75389286D02*
X151756428Y-75246429D01*
X151827857Y-75175000D01*
X151970714Y-75103571D01*
X152113571Y-75103571D01*
D14*
X73025000Y-60542714D02*
X73279000Y-61304714D01*
X73533000Y-60542714D01*
X74222429Y-61232143D02*
X74186143Y-61268429D01*
X74077286Y-61304714D01*
X74004715Y-61304714D01*
X73895858Y-61268429D01*
X73823286Y-61195857D01*
X73787001Y-61123286D01*
X73750715Y-60978143D01*
X73750715Y-60869286D01*
X73787001Y-60724143D01*
X73823286Y-60651571D01*
X73895858Y-60579000D01*
X74004715Y-60542714D01*
X74077286Y-60542714D01*
X74186143Y-60579000D01*
X74222429Y-60615286D01*
X74984429Y-61232143D02*
X74948143Y-61268429D01*
X74839286Y-61304714D01*
X74766715Y-61304714D01*
X74657858Y-61268429D01*
X74585286Y-61195857D01*
X74549001Y-61123286D01*
X74512715Y-60978143D01*
X74512715Y-60869286D01*
X74549001Y-60724143D01*
X74585286Y-60651571D01*
X74657858Y-60579000D01*
X74766715Y-60542714D01*
X74839286Y-60542714D01*
X74948143Y-60579000D01*
X74984429Y-60615286D01*
X170053000Y-60542714D02*
X170307000Y-61304714D01*
X170561000Y-60542714D01*
X171250429Y-61232143D02*
X171214143Y-61268429D01*
X171105286Y-61304714D01*
X171032715Y-61304714D01*
X170923858Y-61268429D01*
X170851286Y-61195857D01*
X170815001Y-61123286D01*
X170778715Y-60978143D01*
X170778715Y-60869286D01*
X170815001Y-60724143D01*
X170851286Y-60651571D01*
X170923858Y-60579000D01*
X171032715Y-60542714D01*
X171105286Y-60542714D01*
X171214143Y-60579000D01*
X171250429Y-60615286D01*
X172012429Y-61232143D02*
X171976143Y-61268429D01*
X171867286Y-61304714D01*
X171794715Y-61304714D01*
X171685858Y-61268429D01*
X171613286Y-61195857D01*
X171577001Y-61123286D01*
X171540715Y-60978143D01*
X171540715Y-60869286D01*
X171577001Y-60724143D01*
X171613286Y-60651571D01*
X171685858Y-60579000D01*
X171794715Y-60542714D01*
X171867286Y-60542714D01*
X171976143Y-60579000D01*
X172012429Y-60615286D01*
X73460428Y-58039000D02*
X73387857Y-58002714D01*
X73279000Y-58002714D01*
X73170143Y-58039000D01*
X73097571Y-58111571D01*
X73061286Y-58184143D01*
X73025000Y-58329286D01*
X73025000Y-58438143D01*
X73061286Y-58583286D01*
X73097571Y-58655857D01*
X73170143Y-58728429D01*
X73279000Y-58764714D01*
X73351571Y-58764714D01*
X73460428Y-58728429D01*
X73496714Y-58692143D01*
X73496714Y-58438143D01*
X73351571Y-58438143D01*
X73823286Y-58764714D02*
X73823286Y-58002714D01*
X74258714Y-58764714D01*
X74258714Y-58002714D01*
X74621572Y-58764714D02*
X74621572Y-58002714D01*
X74803000Y-58002714D01*
X74911857Y-58039000D01*
X74984429Y-58111571D01*
X75020714Y-58184143D01*
X75057000Y-58329286D01*
X75057000Y-58438143D01*
X75020714Y-58583286D01*
X74984429Y-58655857D01*
X74911857Y-58728429D01*
X74803000Y-58764714D01*
X74621572Y-58764714D01*
X72952429Y-55462714D02*
X73387858Y-55462714D01*
X73170144Y-56224714D02*
X73170144Y-55462714D01*
X73569286Y-55462714D02*
X74077286Y-56224714D01*
X74077286Y-55462714D02*
X73569286Y-56224714D01*
X174752000Y-76780572D02*
X174715714Y-76853143D01*
X174715714Y-76962000D01*
X174752000Y-77070857D01*
X174824571Y-77143429D01*
X174897143Y-77179714D01*
X175042286Y-77216000D01*
X175151143Y-77216000D01*
X175296286Y-77179714D01*
X175368857Y-77143429D01*
X175441429Y-77070857D01*
X175477714Y-76962000D01*
X175477714Y-76889429D01*
X175441429Y-76780572D01*
X175405143Y-76744286D01*
X175151143Y-76744286D01*
X175151143Y-76889429D01*
X175477714Y-75982286D02*
X175114857Y-76236286D01*
X175477714Y-76417714D02*
X174715714Y-76417714D01*
X174715714Y-76127429D01*
X174752000Y-76054857D01*
X174788286Y-76018572D01*
X174860857Y-75982286D01*
X174969714Y-75982286D01*
X175042286Y-76018572D01*
X175078571Y-76054857D01*
X175114857Y-76127429D01*
X175114857Y-76417714D01*
X175477714Y-75655714D02*
X174715714Y-75655714D01*
X175477714Y-75220286D01*
X174715714Y-75220286D01*
X175078571Y-64134999D02*
X175114857Y-64026142D01*
X175151143Y-63989857D01*
X175223714Y-63953571D01*
X175332571Y-63953571D01*
X175405143Y-63989857D01*
X175441429Y-64026142D01*
X175477714Y-64098714D01*
X175477714Y-64388999D01*
X174715714Y-64388999D01*
X174715714Y-64134999D01*
X174752000Y-64062428D01*
X174788286Y-64026142D01*
X174860857Y-63989857D01*
X174933429Y-63989857D01*
X175006000Y-64026142D01*
X175042286Y-64062428D01*
X175078571Y-64134999D01*
X175078571Y-64388999D01*
X175477714Y-63264142D02*
X175477714Y-63626999D01*
X174715714Y-63626999D01*
X175477714Y-63010142D02*
X174715714Y-63010142D01*
X175477714Y-62574714D02*
X175042286Y-62901285D01*
X174715714Y-62574714D02*
X175151143Y-63010142D01*
X171196000Y-56224714D02*
X170942000Y-55861857D01*
X170760572Y-56224714D02*
X170760572Y-55462714D01*
X171050857Y-55462714D01*
X171123429Y-55499000D01*
X171159714Y-55535286D01*
X171196000Y-55607857D01*
X171196000Y-55716714D01*
X171159714Y-55789286D01*
X171123429Y-55825571D01*
X171050857Y-55861857D01*
X170760572Y-55861857D01*
X171450000Y-55462714D02*
X171958000Y-56224714D01*
X171958000Y-55462714D02*
X171450000Y-56224714D01*
X170488428Y-58039000D02*
X170415857Y-58002714D01*
X170307000Y-58002714D01*
X170198143Y-58039000D01*
X170125571Y-58111571D01*
X170089286Y-58184143D01*
X170053000Y-58329286D01*
X170053000Y-58438143D01*
X170089286Y-58583286D01*
X170125571Y-58655857D01*
X170198143Y-58728429D01*
X170307000Y-58764714D01*
X170379571Y-58764714D01*
X170488428Y-58728429D01*
X170524714Y-58692143D01*
X170524714Y-58438143D01*
X170379571Y-58438143D01*
X170851286Y-58764714D02*
X170851286Y-58002714D01*
X171286714Y-58764714D01*
X171286714Y-58002714D01*
X171649572Y-58764714D02*
X171649572Y-58002714D01*
X171831000Y-58002714D01*
X171939857Y-58039000D01*
X172012429Y-58111571D01*
X172048714Y-58184143D01*
X172085000Y-58329286D01*
X172085000Y-58438143D01*
X172048714Y-58583286D01*
X172012429Y-58655857D01*
X171939857Y-58728429D01*
X171831000Y-58764714D01*
X171649572Y-58764714D01*
X170488428Y-63119000D02*
X170415857Y-63082714D01*
X170307000Y-63082714D01*
X170198143Y-63119000D01*
X170125571Y-63191571D01*
X170089286Y-63264143D01*
X170053000Y-63409286D01*
X170053000Y-63518143D01*
X170089286Y-63663286D01*
X170125571Y-63735857D01*
X170198143Y-63808429D01*
X170307000Y-63844714D01*
X170379571Y-63844714D01*
X170488428Y-63808429D01*
X170524714Y-63772143D01*
X170524714Y-63518143D01*
X170379571Y-63518143D01*
X170851286Y-63844714D02*
X170851286Y-63082714D01*
X171286714Y-63844714D01*
X171286714Y-63082714D01*
X171649572Y-63844714D02*
X171649572Y-63082714D01*
X171831000Y-63082714D01*
X171939857Y-63119000D01*
X172012429Y-63191571D01*
X172048714Y-63264143D01*
X172085000Y-63409286D01*
X172085000Y-63518143D01*
X172048714Y-63663286D01*
X172012429Y-63735857D01*
X171939857Y-63808429D01*
X171831000Y-63844714D01*
X171649572Y-63844714D01*
X170053000Y-68162714D02*
X170307000Y-68924714D01*
X170561000Y-68162714D01*
X171250429Y-68852143D02*
X171214143Y-68888429D01*
X171105286Y-68924714D01*
X171032715Y-68924714D01*
X170923858Y-68888429D01*
X170851286Y-68815857D01*
X170815001Y-68743286D01*
X170778715Y-68598143D01*
X170778715Y-68489286D01*
X170815001Y-68344143D01*
X170851286Y-68271571D01*
X170923858Y-68199000D01*
X171032715Y-68162714D01*
X171105286Y-68162714D01*
X171214143Y-68199000D01*
X171250429Y-68235286D01*
X172012429Y-68852143D02*
X171976143Y-68888429D01*
X171867286Y-68924714D01*
X171794715Y-68924714D01*
X171685858Y-68888429D01*
X171613286Y-68815857D01*
X171577001Y-68743286D01*
X171540715Y-68598143D01*
X171540715Y-68489286D01*
X171577001Y-68344143D01*
X171613286Y-68271571D01*
X171685858Y-68199000D01*
X171794715Y-68162714D01*
X171867286Y-68162714D01*
X171976143Y-68199000D01*
X172012429Y-68235286D01*
X171196000Y-71464714D02*
X170942000Y-71101857D01*
X170760572Y-71464714D02*
X170760572Y-70702714D01*
X171050857Y-70702714D01*
X171123429Y-70739000D01*
X171159714Y-70775286D01*
X171196000Y-70847857D01*
X171196000Y-70956714D01*
X171159714Y-71029286D01*
X171123429Y-71065571D01*
X171050857Y-71101857D01*
X170760572Y-71101857D01*
X171450000Y-70702714D02*
X171958000Y-71464714D01*
X171958000Y-70702714D02*
X171450000Y-71464714D01*
X170742429Y-73242714D02*
X171177858Y-73242714D01*
X170960144Y-74004714D02*
X170960144Y-73242714D01*
X171359286Y-73242714D02*
X171867286Y-74004714D01*
X171867286Y-73242714D02*
X171359286Y-74004714D01*
X170651715Y-76544714D02*
X170397715Y-76181857D01*
X170216287Y-76544714D02*
X170216287Y-75782714D01*
X170506572Y-75782714D01*
X170579144Y-75819000D01*
X170615429Y-75855286D01*
X170651715Y-75927857D01*
X170651715Y-76036714D01*
X170615429Y-76109286D01*
X170579144Y-76145571D01*
X170506572Y-76181857D01*
X170216287Y-76181857D01*
X170942001Y-76508429D02*
X171050858Y-76544714D01*
X171232287Y-76544714D01*
X171304858Y-76508429D01*
X171341144Y-76472143D01*
X171377429Y-76399571D01*
X171377429Y-76327000D01*
X171341144Y-76254429D01*
X171304858Y-76218143D01*
X171232287Y-76181857D01*
X171087144Y-76145571D01*
X171014572Y-76109286D01*
X170978287Y-76073000D01*
X170942001Y-76000429D01*
X170942001Y-75927857D01*
X170978287Y-75855286D01*
X171014572Y-75819000D01*
X171087144Y-75782714D01*
X171268572Y-75782714D01*
X171377429Y-75819000D01*
X171595143Y-75782714D02*
X172030572Y-75782714D01*
X171812858Y-76544714D02*
X171812858Y-75782714D01*
D15*
X166116000Y-64516000D02*
X164846000Y-64516000D01*
X166116000Y-57404000D02*
X164846000Y-57404000D01*
X166116000Y-61976000D02*
X166116000Y-64516000D01*
X166116000Y-59944000D02*
X166116000Y-57404000D01*
X165100000Y-60960000D02*
G75*
G03X166116000Y-61976000I1016000J0D01*
G01*
X166116000Y-59944000D02*
G75*
G03X165100000Y-60960000I0J-1016000D01*
G01*
X128515000Y-64635000D02*
X129785000Y-64635000D01*
X128515000Y-57285000D02*
X129785000Y-57285000D01*
X128515000Y-57285000D02*
X128515000Y-64635000D01*
D16*
X175895000Y-71120000D02*
G75*
G03X178435000Y-71120000I1270000J0D01*
G01*
X175895000Y-76200000D02*
G75*
G02X178435000Y-76200000I1270000J0D01*
G01*
D15*
X212725000Y-73660000D02*
G75*
G03X212725000Y-73660000I-1270000J0D01*
G01*
X200025000Y-66040000D02*
X208915000Y-66040000D01*
X202565000Y-57150000D02*
X211455000Y-57150000D01*
X211455000Y-57150000D02*
X206375000Y-74930000D01*
X206375000Y-74930000D02*
X197485000Y-74930000D01*
X202565000Y-57150000D02*
X197485000Y-74930000D01*
X194945000Y-73660000D02*
G75*
G03X194945000Y-73660000I-1270000J0D01*
G01*
X182245000Y-66040000D02*
X184785000Y-57150000D01*
X184785000Y-57150000D02*
X193675000Y-57150000D01*
X193675000Y-57150000D02*
X191135000Y-66040000D01*
X179705000Y-74930000D02*
X182245000Y-66040000D01*
X182245000Y-66040000D02*
X191135000Y-66040000D01*
X191135000Y-66040000D02*
X188595000Y-74930000D01*
X188595000Y-74930000D02*
X179705000Y-74930000D01*
X178435000Y-53340000D02*
X178435000Y-78740000D01*
X178435000Y-78740000D02*
X213995000Y-78740000D01*
X213995000Y-78740000D02*
X213995000Y-53340000D01*
X178435000Y-53340000D02*
X213995000Y-53340000D01*
X143260000Y-66060000D02*
X146260000Y-66060000D01*
X146260000Y-68560000D02*
X143260000Y-68560000D01*
X147705000Y-66060000D02*
X150705000Y-66060000D01*
X150705000Y-68560000D02*
X147705000Y-68560000D01*
X248285000Y-73660000D02*
G75*
G03X248285000Y-73660000I-1270000J0D01*
G01*
X235585000Y-66040000D02*
X244475000Y-66040000D01*
X238125000Y-57150000D02*
X247015000Y-57150000D01*
X247015000Y-57150000D02*
X241935000Y-74930000D01*
X241935000Y-74930000D02*
X233045000Y-74930000D01*
X238125000Y-57150000D02*
X233045000Y-74930000D01*
X230505000Y-73660000D02*
G75*
G03X230505000Y-73660000I-1270000J0D01*
G01*
X217805000Y-66040000D02*
X220345000Y-57150000D01*
X220345000Y-57150000D02*
X229235000Y-57150000D01*
X229235000Y-57150000D02*
X226695000Y-66040000D01*
X215265000Y-74930000D02*
X217805000Y-66040000D01*
X217805000Y-66040000D02*
X226695000Y-66040000D01*
X226695000Y-66040000D02*
X224155000Y-74930000D01*
X224155000Y-74930000D02*
X215265000Y-74930000D01*
X213995000Y-53340000D02*
X213995000Y-78740000D01*
X213995000Y-78740000D02*
X249555000Y-78740000D01*
X249555000Y-78740000D02*
X249555000Y-53340000D01*
X213995000Y-53340000D02*
X249555000Y-53340000D01*
X390525000Y-73660000D02*
G75*
G03X390525000Y-73660000I-1270000J0D01*
G01*
X377825000Y-66040000D02*
X386715000Y-66040000D01*
X380365000Y-57150000D02*
X389255000Y-57150000D01*
X389255000Y-57150000D02*
X384175000Y-74930000D01*
X384175000Y-74930000D02*
X375285000Y-74930000D01*
X380365000Y-57150000D02*
X375285000Y-74930000D01*
X372745000Y-73660000D02*
G75*
G03X372745000Y-73660000I-1270000J0D01*
G01*
X360045000Y-66040000D02*
X362585000Y-57150000D01*
X362585000Y-57150000D02*
X371475000Y-57150000D01*
X371475000Y-57150000D02*
X368935000Y-66040000D01*
X357505000Y-74930000D02*
X360045000Y-66040000D01*
X360045000Y-66040000D02*
X368935000Y-66040000D01*
X368935000Y-66040000D02*
X366395000Y-74930000D01*
X366395000Y-74930000D02*
X357505000Y-74930000D01*
X356235000Y-53340000D02*
X356235000Y-78740000D01*
X356235000Y-78740000D02*
X391795000Y-78740000D01*
X391795000Y-78740000D02*
X391795000Y-53340000D01*
X356235000Y-53340000D02*
X391795000Y-53340000D01*
X166755000Y-74950000D02*
X169755000Y-74950000D01*
X169755000Y-77450000D02*
X166755000Y-77450000D01*
X159385000Y-72390000D02*
X158750000Y-72390000D01*
X158750000Y-72390000D02*
X158750000Y-74930000D01*
X158750000Y-74930000D02*
X159385000Y-74930000D01*
X159385000Y-74930000D02*
X159385000Y-77470000D01*
X164465000Y-72390000D02*
X164465000Y-69850000D01*
X164465000Y-69850000D02*
X161925000Y-69850000D01*
X164465000Y-77470000D02*
X164465000Y-72390000D01*
X164465000Y-77470000D02*
X159385000Y-77470000D01*
X159385000Y-69850000D02*
X161925000Y-69850000D01*
X159385000Y-72390000D02*
X159385000Y-69850000D01*
X283845000Y-73660000D02*
G75*
G03X283845000Y-73660000I-1270000J0D01*
G01*
X271145000Y-66040000D02*
X280035000Y-66040000D01*
X273685000Y-57150000D02*
X282575000Y-57150000D01*
X282575000Y-57150000D02*
X277495000Y-74930000D01*
X277495000Y-74930000D02*
X268605000Y-74930000D01*
X273685000Y-57150000D02*
X268605000Y-74930000D01*
X266065000Y-73660000D02*
G75*
G03X266065000Y-73660000I-1270000J0D01*
G01*
X253365000Y-66040000D02*
X255905000Y-57150000D01*
X255905000Y-57150000D02*
X264795000Y-57150000D01*
X264795000Y-57150000D02*
X262255000Y-66040000D01*
X250825000Y-74930000D02*
X253365000Y-66040000D01*
X253365000Y-66040000D02*
X262255000Y-66040000D01*
X262255000Y-66040000D02*
X259715000Y-74930000D01*
X259715000Y-74930000D02*
X250825000Y-74930000D01*
X249555000Y-53340000D02*
X249555000Y-78740000D01*
X249555000Y-78740000D02*
X285115000Y-78740000D01*
X285115000Y-78740000D02*
X285115000Y-53340000D01*
X249555000Y-53340000D02*
X285115000Y-53340000D01*
X319405000Y-73660000D02*
G75*
G03X319405000Y-73660000I-1270000J0D01*
G01*
X306705000Y-66040000D02*
X315595000Y-66040000D01*
X309245000Y-57150000D02*
X318135000Y-57150000D01*
X318135000Y-57150000D02*
X313055000Y-74930000D01*
X313055000Y-74930000D02*
X304165000Y-74930000D01*
X309245000Y-57150000D02*
X304165000Y-74930000D01*
X301625000Y-73660000D02*
G75*
G03X301625000Y-73660000I-1270000J0D01*
G01*
X288925000Y-66040000D02*
X291465000Y-57150000D01*
X291465000Y-57150000D02*
X300355000Y-57150000D01*
X300355000Y-57150000D02*
X297815000Y-66040000D01*
X286385000Y-74930000D02*
X288925000Y-66040000D01*
X288925000Y-66040000D02*
X297815000Y-66040000D01*
X297815000Y-66040000D02*
X295275000Y-74930000D01*
X295275000Y-74930000D02*
X286385000Y-74930000D01*
X285115000Y-53340000D02*
X285115000Y-78740000D01*
X285115000Y-78740000D02*
X320675000Y-78740000D01*
X320675000Y-78740000D02*
X320675000Y-53340000D01*
X285115000Y-53340000D02*
X320675000Y-53340000D01*
X354965000Y-73660000D02*
G75*
G03X354965000Y-73660000I-1270000J0D01*
G01*
X342265000Y-66040000D02*
X351155000Y-66040000D01*
X344805000Y-57150000D02*
X353695000Y-57150000D01*
X353695000Y-57150000D02*
X348615000Y-74930000D01*
X348615000Y-74930000D02*
X339725000Y-74930000D01*
X344805000Y-57150000D02*
X339725000Y-74930000D01*
X337185000Y-73660000D02*
G75*
G03X337185000Y-73660000I-1270000J0D01*
G01*
X324485000Y-66040000D02*
X327025000Y-57150000D01*
X327025000Y-57150000D02*
X335915000Y-57150000D01*
X335915000Y-57150000D02*
X333375000Y-66040000D01*
X321945000Y-74930000D02*
X324485000Y-66040000D01*
X324485000Y-66040000D02*
X333375000Y-66040000D01*
X333375000Y-66040000D02*
X330835000Y-74930000D01*
X330835000Y-74930000D02*
X321945000Y-74930000D01*
X320675000Y-53340000D02*
X320675000Y-78740000D01*
X320675000Y-78740000D02*
X356235000Y-78740000D01*
X356235000Y-78740000D02*
X356235000Y-53340000D01*
X320675000Y-53340000D02*
X356235000Y-53340000D01*
X98155000Y-74390000D02*
X98155000Y-70390000D01*
X96155000Y-74390000D02*
X96155000Y-70390000D01*
X95615000Y-74390000D02*
X95615000Y-70390000D01*
X93615000Y-74390000D02*
X93615000Y-70390000D01*
X93075000Y-74390000D02*
X93075000Y-70390000D01*
X91075000Y-74390000D02*
X91075000Y-70390000D01*
X90535000Y-74390000D02*
X90535000Y-70390000D01*
X88535000Y-74390000D02*
X88535000Y-70390000D01*
X87995000Y-74390000D02*
X87995000Y-70390000D01*
X85995000Y-74390000D02*
X85995000Y-70390000D01*
X85455000Y-74390000D02*
X85455000Y-70390000D01*
X83455000Y-74390000D02*
X83455000Y-70390000D01*
X82915000Y-74390000D02*
X82915000Y-70390000D01*
X80915000Y-74390000D02*
X80915000Y-70390000D01*
X80375000Y-74390000D02*
X80375000Y-70390000D01*
X78375000Y-74390000D02*
X78375000Y-70390000D01*
X77835000Y-74390000D02*
X77835000Y-70390000D01*
X75835000Y-74390000D02*
X75835000Y-70390000D01*
X96155000Y-57690000D02*
X96155000Y-61690000D01*
X98155000Y-57690000D02*
X98155000Y-61690000D01*
X93615000Y-57690000D02*
X93615000Y-61690000D01*
X95615000Y-57690000D02*
X95615000Y-61690000D01*
X91075000Y-57690000D02*
X91075000Y-61690000D01*
X93075000Y-57690000D02*
X93075000Y-61690000D01*
X88535000Y-57690000D02*
X88535000Y-61690000D01*
X90535000Y-57690000D02*
X90535000Y-61690000D01*
X80915000Y-57690000D02*
X80915000Y-61690000D01*
X82915000Y-57690000D02*
X82915000Y-61690000D01*
X78375000Y-57690000D02*
X78375000Y-61690000D01*
X80375000Y-57690000D02*
X80375000Y-61690000D01*
X75835000Y-57690000D02*
X75835000Y-61690000D01*
X77835000Y-57690000D02*
X77835000Y-61690000D01*
X165518680Y-71047893D02*
X168347107Y-73876320D01*
X166932893Y-69633680D02*
X169761320Y-72462107D01*
D17*
X127755000Y-61960000D02*
G75*
G02X127755000Y-59960000I0J1000000D01*
G01*
X127755000Y-59960000D02*
X127755000Y-58190000D01*
X127755000Y-58190000D02*
X107195000Y-58190000D01*
X107195000Y-58190000D02*
X107195000Y-63730000D01*
X107195000Y-63730000D02*
X127755000Y-63730000D01*
X127755000Y-63730000D02*
X127755000Y-61960000D01*
X127755000Y-72120000D02*
G75*
G02X127755000Y-70120000I0J1000000D01*
G01*
X127755000Y-70120000D02*
X127755000Y-68350000D01*
X127755000Y-68350000D02*
X107195000Y-68350000D01*
X107195000Y-68350000D02*
X107195000Y-73890000D01*
X107195000Y-73890000D02*
X127755000Y-73890000D01*
X127755000Y-73890000D02*
X127755000Y-72120000D01*
D16*
X175895000Y-55880000D02*
G75*
G03X178435000Y-55880000I1270000J0D01*
G01*
X175895000Y-60960000D02*
G75*
G02X178435000Y-60960000I1270000J0D01*
G01*
D18*
G36*
X132995132Y-68960141D02*
X133184330Y-68960704D01*
X133366803Y-68961553D01*
X133539802Y-68962693D01*
X133700580Y-68964121D01*
X133846388Y-68965837D01*
X133974478Y-68967843D01*
X134082101Y-68970137D01*
X134166511Y-68972719D01*
X134224958Y-68975591D01*
X134254694Y-68978751D01*
X134256045Y-68979101D01*
X134329650Y-69014801D01*
X134383272Y-69067954D01*
X134416256Y-69132582D01*
X134427948Y-69202706D01*
X134417692Y-69272346D01*
X134384833Y-69335525D01*
X134328717Y-69386264D01*
X134302218Y-69400553D01*
X134239819Y-69429312D01*
X134239409Y-70911141D01*
X134239000Y-72392969D01*
X134666194Y-73133641D01*
X134756737Y-73290615D01*
X134859897Y-73469444D01*
X134972416Y-73664483D01*
X135091038Y-73870090D01*
X135212507Y-74080620D01*
X135333568Y-74290429D01*
X135450963Y-74493874D01*
X135561437Y-74685312D01*
X135610756Y-74770770D01*
X135699967Y-74925722D01*
X135784309Y-75072946D01*
X135862458Y-75210082D01*
X135933089Y-75334771D01*
X135994877Y-75444652D01*
X136046497Y-75537365D01*
X136086624Y-75610552D01*
X136113934Y-75661852D01*
X136127102Y-75688905D01*
X136128125Y-75692254D01*
X136120259Y-75712854D01*
X136097954Y-75757330D01*
X136063145Y-75822359D01*
X136017767Y-75904615D01*
X135963756Y-76000774D01*
X135903047Y-76107511D01*
X135837577Y-76221503D01*
X135769279Y-76339423D01*
X135700091Y-76457948D01*
X135631948Y-76573754D01*
X135566784Y-76683515D01*
X135506537Y-76783906D01*
X135453141Y-76871605D01*
X135408532Y-76943285D01*
X135374645Y-76995622D01*
X135353416Y-77025292D01*
X135349599Y-77029468D01*
X135302124Y-77073125D01*
X130127875Y-77073125D01*
X130080400Y-77029468D01*
X130063606Y-77007746D01*
X130033539Y-76962288D01*
X129992134Y-76896420D01*
X129941325Y-76813466D01*
X129883050Y-76716753D01*
X129819242Y-76609605D01*
X129751838Y-76495346D01*
X129682772Y-76377303D01*
X129613981Y-76258800D01*
X129547400Y-76143163D01*
X129484963Y-76033717D01*
X129428608Y-75933786D01*
X129380267Y-75846695D01*
X129341879Y-75775771D01*
X129315377Y-75724338D01*
X129302697Y-75695720D01*
X129301874Y-75691933D01*
X129308139Y-75676738D01*
X129806817Y-75676738D01*
X130081508Y-76152681D01*
X130356198Y-76628625D01*
X135073654Y-76628625D01*
X135348694Y-76151873D01*
X135623735Y-75675121D01*
X135515627Y-75489091D01*
X135467108Y-75405084D01*
X135416391Y-75316405D01*
X135369699Y-75233982D01*
X135335228Y-75172315D01*
X135262937Y-75041567D01*
X133247125Y-75041125D01*
X133542748Y-75338781D01*
X133622725Y-75419852D01*
X133695741Y-75494905D01*
X133758638Y-75560609D01*
X133808257Y-75613634D01*
X133841440Y-75650650D01*
X133854732Y-75667697D01*
X133862043Y-75705230D01*
X133849704Y-75740316D01*
X133824692Y-75776070D01*
X133784306Y-75820828D01*
X133735048Y-75868770D01*
X133683420Y-75914074D01*
X133635926Y-75950919D01*
X133599067Y-75973484D01*
X133584480Y-75977750D01*
X133562132Y-75967200D01*
X133520787Y-75935232D01*
X133459908Y-75881363D01*
X133378960Y-75805114D01*
X133277408Y-75706002D01*
X133235810Y-75664741D01*
X132921375Y-75351732D01*
X132921375Y-75786522D01*
X132921186Y-75917308D01*
X132920480Y-76020011D01*
X132919051Y-76098296D01*
X132916691Y-76155830D01*
X132913191Y-76196276D01*
X132908345Y-76223301D01*
X132901944Y-76240570D01*
X132895102Y-76250343D01*
X132878266Y-76263829D01*
X132852807Y-76272459D01*
X132812181Y-76277237D01*
X132749844Y-76279165D01*
X132705754Y-76279375D01*
X132632007Y-76278988D01*
X132583052Y-76276820D01*
X132551932Y-76271360D01*
X132531690Y-76261094D01*
X132515370Y-76244512D01*
X132509053Y-76236627D01*
X132498921Y-76222620D01*
X132491117Y-76206895D01*
X132485392Y-76185501D01*
X132481497Y-76154484D01*
X132479185Y-76109892D01*
X132478207Y-76047771D01*
X132478314Y-75964170D01*
X132479259Y-75855136D01*
X132480120Y-75776238D01*
X132481336Y-75664830D01*
X132482363Y-75564621D01*
X132483164Y-75479754D01*
X132483700Y-75414372D01*
X132483937Y-75372619D01*
X132483846Y-75358611D01*
X132472874Y-75369389D01*
X132442423Y-75399776D01*
X132395394Y-75446863D01*
X132334693Y-75507739D01*
X132263221Y-75579496D01*
X132183882Y-75659225D01*
X132182221Y-75660894D01*
X132100795Y-75741741D01*
X132024946Y-75815133D01*
X131958010Y-75877994D01*
X131903322Y-75927247D01*
X131864218Y-75959816D01*
X131844337Y-75972556D01*
X131823907Y-75973152D01*
X131799469Y-75962567D01*
X131766225Y-75937398D01*
X131719375Y-75894244D01*
X131681618Y-75857190D01*
X131619367Y-75792657D01*
X131579516Y-75744575D01*
X131559581Y-75709681D01*
X131556125Y-75692521D01*
X131561451Y-75674558D01*
X131578771Y-75647344D01*
X131610090Y-75608608D01*
X131657416Y-75556079D01*
X131722757Y-75487484D01*
X131808120Y-75400551D01*
X131861566Y-75346867D01*
X132167007Y-75041125D01*
X131739557Y-75041125D01*
X131600238Y-75041235D01*
X131489412Y-75040593D01*
X131403828Y-75037739D01*
X131340238Y-75031213D01*
X131295392Y-75019556D01*
X131266040Y-75001308D01*
X131248932Y-74975009D01*
X131240820Y-74939200D01*
X131238454Y-74892420D01*
X131238583Y-74833211D01*
X131238625Y-74816107D01*
X131238249Y-74754737D01*
X131239298Y-74705980D01*
X131245033Y-74668390D01*
X131258717Y-74640522D01*
X131283611Y-74620933D01*
X131322977Y-74608178D01*
X131380078Y-74600811D01*
X131458176Y-74597388D01*
X131560532Y-74596465D01*
X131690409Y-74596596D01*
X131734196Y-74596625D01*
X132166267Y-74596625D01*
X131853258Y-74282189D01*
X131763898Y-74191371D01*
X131686404Y-74110517D01*
X131623051Y-74042128D01*
X131576114Y-73988706D01*
X131547868Y-73952753D01*
X131540250Y-73937990D01*
X131551746Y-73911392D01*
X131582271Y-73870976D01*
X131625876Y-73822523D01*
X131676613Y-73771817D01*
X131728534Y-73724641D01*
X131775690Y-73686778D01*
X131812134Y-73664010D01*
X131826177Y-73660000D01*
X131845107Y-73666738D01*
X131876067Y-73688065D01*
X131920936Y-73725648D01*
X131981590Y-73781153D01*
X132059908Y-73856247D01*
X132157767Y-73952597D01*
X132174345Y-73969083D01*
X132484812Y-74278166D01*
X132480134Y-73853775D01*
X132478453Y-73715249D01*
X132477794Y-73605203D01*
X132479651Y-73520374D01*
X132485515Y-73457496D01*
X132496879Y-73413302D01*
X132515236Y-73384528D01*
X132542078Y-73367909D01*
X132578897Y-73360179D01*
X132627186Y-73358073D01*
X132688436Y-73358325D01*
X132706546Y-73358375D01*
X132786777Y-73359496D01*
X132841137Y-73363371D01*
X132875445Y-73370763D01*
X132895519Y-73382438D01*
X132896428Y-73383321D01*
X132903921Y-73394469D01*
X132909780Y-73413540D01*
X132914198Y-73444092D01*
X132917365Y-73489686D01*
X132919473Y-73553878D01*
X132920714Y-73640230D01*
X132921279Y-73752298D01*
X132921375Y-73847142D01*
X132921375Y-74286017D01*
X133235810Y-73973008D01*
X133339977Y-73870240D01*
X133424018Y-73789457D01*
X133489393Y-73729357D01*
X133537558Y-73688639D01*
X133569973Y-73666001D01*
X133586435Y-73660000D01*
X133618640Y-73672050D01*
X133666929Y-73706515D01*
X133726031Y-73759218D01*
X133792277Y-73825807D01*
X133835369Y-73877289D01*
X133857644Y-73917492D01*
X133861437Y-73950242D01*
X133854732Y-73970052D01*
X133839448Y-73989412D01*
X133804823Y-74027842D01*
X133754016Y-74082013D01*
X133690186Y-74148594D01*
X133616491Y-74224256D01*
X133542748Y-74298968D01*
X133247125Y-74596625D01*
X135003589Y-74596625D01*
X134972294Y-74545031D01*
X134937471Y-74486823D01*
X134891078Y-74408049D01*
X134834623Y-74311349D01*
X134769614Y-74199365D01*
X134697559Y-74074736D01*
X134619966Y-73940105D01*
X134538344Y-73798113D01*
X134454201Y-73651400D01*
X134369044Y-73502608D01*
X134284382Y-73354378D01*
X134201723Y-73209351D01*
X134122576Y-73070167D01*
X134048448Y-72939468D01*
X133980847Y-72819896D01*
X133921282Y-72714090D01*
X133871260Y-72624693D01*
X133832291Y-72554345D01*
X133805882Y-72505688D01*
X133793540Y-72481361D01*
X133792896Y-72479659D01*
X133790786Y-72456630D01*
X133788779Y-72404011D01*
X133786895Y-72323962D01*
X133785154Y-72218643D01*
X133783575Y-72090212D01*
X133782179Y-71940830D01*
X133780985Y-71772656D01*
X133780013Y-71587850D01*
X133779282Y-71388573D01*
X133778814Y-71176983D01*
X133778627Y-70955240D01*
X133778625Y-70925636D01*
X133778625Y-69421375D01*
X131651989Y-69421375D01*
X131643437Y-72493187D01*
X131299729Y-73088500D01*
X131210018Y-73243868D01*
X131110473Y-73416244D01*
X131005521Y-73597961D01*
X130899590Y-73781356D01*
X130797106Y-73958764D01*
X130702496Y-74122521D01*
X130634940Y-74239437D01*
X130489356Y-74491399D01*
X130357857Y-74719050D01*
X130240664Y-74922010D01*
X130137995Y-75099897D01*
X130050071Y-75252331D01*
X129977110Y-75378931D01*
X129919332Y-75479316D01*
X129876957Y-75553107D01*
X129850205Y-75599921D01*
X129845081Y-75608962D01*
X129806817Y-75676738D01*
X129308139Y-75676738D01*
X129309593Y-75673214D01*
X129331661Y-75630010D01*
X129366444Y-75565273D01*
X129412311Y-75481953D01*
X129467628Y-75382999D01*
X129530763Y-75271362D01*
X129600083Y-75149993D01*
X129644919Y-75072074D01*
X129731007Y-74922890D01*
X129823884Y-74761959D01*
X129919742Y-74595876D01*
X130014776Y-74431236D01*
X130105179Y-74274633D01*
X130187145Y-74132663D01*
X130253823Y-74017187D01*
X130325062Y-73893821D01*
X130408259Y-73749738D01*
X130499500Y-73591716D01*
X130594870Y-73426537D01*
X130690455Y-73260979D01*
X130782341Y-73101823D01*
X130855341Y-72975372D01*
X131191000Y-72393931D01*
X131190590Y-70911622D01*
X131190180Y-69429312D01*
X131127781Y-69400553D01*
X131062983Y-69355866D01*
X131021683Y-69296549D01*
X131003225Y-69228581D01*
X131006955Y-69157941D01*
X131032218Y-69090606D01*
X131078358Y-69032557D01*
X131144721Y-68989771D01*
X131173954Y-68979101D01*
X131200501Y-68975910D01*
X131256048Y-68973009D01*
X131337847Y-68970396D01*
X131443151Y-68968071D01*
X131569211Y-68966035D01*
X131713279Y-68964288D01*
X131872606Y-68962830D01*
X132044446Y-68961660D01*
X132226049Y-68960780D01*
X132414667Y-68960187D01*
X132607552Y-68959883D01*
X132801957Y-68959868D01*
X132995132Y-68960141D01*
X132995132Y-68960141D01*
G37*
X132995132Y-68960141D02*
X133184330Y-68960704D01*
X133366803Y-68961553D01*
X133539802Y-68962693D01*
X133700580Y-68964121D01*
X133846388Y-68965837D01*
X133974478Y-68967843D01*
X134082101Y-68970137D01*
X134166511Y-68972719D01*
X134224958Y-68975591D01*
X134254694Y-68978751D01*
X134256045Y-68979101D01*
X134329650Y-69014801D01*
X134383272Y-69067954D01*
X134416256Y-69132582D01*
X134427948Y-69202706D01*
X134417692Y-69272346D01*
X134384833Y-69335525D01*
X134328717Y-69386264D01*
X134302218Y-69400553D01*
X134239819Y-69429312D01*
X134239409Y-70911141D01*
X134239000Y-72392969D01*
X134666194Y-73133641D01*
X134756737Y-73290615D01*
X134859897Y-73469444D01*
X134972416Y-73664483D01*
X135091038Y-73870090D01*
X135212507Y-74080620D01*
X135333568Y-74290429D01*
X135450963Y-74493874D01*
X135561437Y-74685312D01*
X135610756Y-74770770D01*
X135699967Y-74925722D01*
X135784309Y-75072946D01*
X135862458Y-75210082D01*
X135933089Y-75334771D01*
X135994877Y-75444652D01*
X136046497Y-75537365D01*
X136086624Y-75610552D01*
X136113934Y-75661852D01*
X136127102Y-75688905D01*
X136128125Y-75692254D01*
X136120259Y-75712854D01*
X136097954Y-75757330D01*
X136063145Y-75822359D01*
X136017767Y-75904615D01*
X135963756Y-76000774D01*
X135903047Y-76107511D01*
X135837577Y-76221503D01*
X135769279Y-76339423D01*
X135700091Y-76457948D01*
X135631948Y-76573754D01*
X135566784Y-76683515D01*
X135506537Y-76783906D01*
X135453141Y-76871605D01*
X135408532Y-76943285D01*
X135374645Y-76995622D01*
X135353416Y-77025292D01*
X135349599Y-77029468D01*
X135302124Y-77073125D01*
X130127875Y-77073125D01*
X130080400Y-77029468D01*
X130063606Y-77007746D01*
X130033539Y-76962288D01*
X129992134Y-76896420D01*
X129941325Y-76813466D01*
X129883050Y-76716753D01*
X129819242Y-76609605D01*
X129751838Y-76495346D01*
X129682772Y-76377303D01*
X129613981Y-76258800D01*
X129547400Y-76143163D01*
X129484963Y-76033717D01*
X129428608Y-75933786D01*
X129380267Y-75846695D01*
X129341879Y-75775771D01*
X129315377Y-75724338D01*
X129302697Y-75695720D01*
X129301874Y-75691933D01*
X129308139Y-75676738D01*
X129806817Y-75676738D01*
X130081508Y-76152681D01*
X130356198Y-76628625D01*
X135073654Y-76628625D01*
X135348694Y-76151873D01*
X135623735Y-75675121D01*
X135515627Y-75489091D01*
X135467108Y-75405084D01*
X135416391Y-75316405D01*
X135369699Y-75233982D01*
X135335228Y-75172315D01*
X135262937Y-75041567D01*
X133247125Y-75041125D01*
X133542748Y-75338781D01*
X133622725Y-75419852D01*
X133695741Y-75494905D01*
X133758638Y-75560609D01*
X133808257Y-75613634D01*
X133841440Y-75650650D01*
X133854732Y-75667697D01*
X133862043Y-75705230D01*
X133849704Y-75740316D01*
X133824692Y-75776070D01*
X133784306Y-75820828D01*
X133735048Y-75868770D01*
X133683420Y-75914074D01*
X133635926Y-75950919D01*
X133599067Y-75973484D01*
X133584480Y-75977750D01*
X133562132Y-75967200D01*
X133520787Y-75935232D01*
X133459908Y-75881363D01*
X133378960Y-75805114D01*
X133277408Y-75706002D01*
X133235810Y-75664741D01*
X132921375Y-75351732D01*
X132921375Y-75786522D01*
X132921186Y-75917308D01*
X132920480Y-76020011D01*
X132919051Y-76098296D01*
X132916691Y-76155830D01*
X132913191Y-76196276D01*
X132908345Y-76223301D01*
X132901944Y-76240570D01*
X132895102Y-76250343D01*
X132878266Y-76263829D01*
X132852807Y-76272459D01*
X132812181Y-76277237D01*
X132749844Y-76279165D01*
X132705754Y-76279375D01*
X132632007Y-76278988D01*
X132583052Y-76276820D01*
X132551932Y-76271360D01*
X132531690Y-76261094D01*
X132515370Y-76244512D01*
X132509053Y-76236627D01*
X132498921Y-76222620D01*
X132491117Y-76206895D01*
X132485392Y-76185501D01*
X132481497Y-76154484D01*
X132479185Y-76109892D01*
X132478207Y-76047771D01*
X132478314Y-75964170D01*
X132479259Y-75855136D01*
X132480120Y-75776238D01*
X132481336Y-75664830D01*
X132482363Y-75564621D01*
X132483164Y-75479754D01*
X132483700Y-75414372D01*
X132483937Y-75372619D01*
X132483846Y-75358611D01*
X132472874Y-75369389D01*
X132442423Y-75399776D01*
X132395394Y-75446863D01*
X132334693Y-75507739D01*
X132263221Y-75579496D01*
X132183882Y-75659225D01*
X132182221Y-75660894D01*
X132100795Y-75741741D01*
X132024946Y-75815133D01*
X131958010Y-75877994D01*
X131903322Y-75927247D01*
X131864218Y-75959816D01*
X131844337Y-75972556D01*
X131823907Y-75973152D01*
X131799469Y-75962567D01*
X131766225Y-75937398D01*
X131719375Y-75894244D01*
X131681618Y-75857190D01*
X131619367Y-75792657D01*
X131579516Y-75744575D01*
X131559581Y-75709681D01*
X131556125Y-75692521D01*
X131561451Y-75674558D01*
X131578771Y-75647344D01*
X131610090Y-75608608D01*
X131657416Y-75556079D01*
X131722757Y-75487484D01*
X131808120Y-75400551D01*
X131861566Y-75346867D01*
X132167007Y-75041125D01*
X131739557Y-75041125D01*
X131600238Y-75041235D01*
X131489412Y-75040593D01*
X131403828Y-75037739D01*
X131340238Y-75031213D01*
X131295392Y-75019556D01*
X131266040Y-75001308D01*
X131248932Y-74975009D01*
X131240820Y-74939200D01*
X131238454Y-74892420D01*
X131238583Y-74833211D01*
X131238625Y-74816107D01*
X131238249Y-74754737D01*
X131239298Y-74705980D01*
X131245033Y-74668390D01*
X131258717Y-74640522D01*
X131283611Y-74620933D01*
X131322977Y-74608178D01*
X131380078Y-74600811D01*
X131458176Y-74597388D01*
X131560532Y-74596465D01*
X131690409Y-74596596D01*
X131734196Y-74596625D01*
X132166267Y-74596625D01*
X131853258Y-74282189D01*
X131763898Y-74191371D01*
X131686404Y-74110517D01*
X131623051Y-74042128D01*
X131576114Y-73988706D01*
X131547868Y-73952753D01*
X131540250Y-73937990D01*
X131551746Y-73911392D01*
X131582271Y-73870976D01*
X131625876Y-73822523D01*
X131676613Y-73771817D01*
X131728534Y-73724641D01*
X131775690Y-73686778D01*
X131812134Y-73664010D01*
X131826177Y-73660000D01*
X131845107Y-73666738D01*
X131876067Y-73688065D01*
X131920936Y-73725648D01*
X131981590Y-73781153D01*
X132059908Y-73856247D01*
X132157767Y-73952597D01*
X132174345Y-73969083D01*
X132484812Y-74278166D01*
X132480134Y-73853775D01*
X132478453Y-73715249D01*
X132477794Y-73605203D01*
X132479651Y-73520374D01*
X132485515Y-73457496D01*
X132496879Y-73413302D01*
X132515236Y-73384528D01*
X132542078Y-73367909D01*
X132578897Y-73360179D01*
X132627186Y-73358073D01*
X132688436Y-73358325D01*
X132706546Y-73358375D01*
X132786777Y-73359496D01*
X132841137Y-73363371D01*
X132875445Y-73370763D01*
X132895519Y-73382438D01*
X132896428Y-73383321D01*
X132903921Y-73394469D01*
X132909780Y-73413540D01*
X132914198Y-73444092D01*
X132917365Y-73489686D01*
X132919473Y-73553878D01*
X132920714Y-73640230D01*
X132921279Y-73752298D01*
X132921375Y-73847142D01*
X132921375Y-74286017D01*
X133235810Y-73973008D01*
X133339977Y-73870240D01*
X133424018Y-73789457D01*
X133489393Y-73729357D01*
X133537558Y-73688639D01*
X133569973Y-73666001D01*
X133586435Y-73660000D01*
X133618640Y-73672050D01*
X133666929Y-73706515D01*
X133726031Y-73759218D01*
X133792277Y-73825807D01*
X133835369Y-73877289D01*
X133857644Y-73917492D01*
X133861437Y-73950242D01*
X133854732Y-73970052D01*
X133839448Y-73989412D01*
X133804823Y-74027842D01*
X133754016Y-74082013D01*
X133690186Y-74148594D01*
X133616491Y-74224256D01*
X133542748Y-74298968D01*
X133247125Y-74596625D01*
X135003589Y-74596625D01*
X134972294Y-74545031D01*
X134937471Y-74486823D01*
X134891078Y-74408049D01*
X134834623Y-74311349D01*
X134769614Y-74199365D01*
X134697559Y-74074736D01*
X134619966Y-73940105D01*
X134538344Y-73798113D01*
X134454201Y-73651400D01*
X134369044Y-73502608D01*
X134284382Y-73354378D01*
X134201723Y-73209351D01*
X134122576Y-73070167D01*
X134048448Y-72939468D01*
X133980847Y-72819896D01*
X133921282Y-72714090D01*
X133871260Y-72624693D01*
X133832291Y-72554345D01*
X133805882Y-72505688D01*
X133793540Y-72481361D01*
X133792896Y-72479659D01*
X133790786Y-72456630D01*
X133788779Y-72404011D01*
X133786895Y-72323962D01*
X133785154Y-72218643D01*
X133783575Y-72090212D01*
X133782179Y-71940830D01*
X133780985Y-71772656D01*
X133780013Y-71587850D01*
X133779282Y-71388573D01*
X133778814Y-71176983D01*
X133778627Y-70955240D01*
X133778625Y-70925636D01*
X133778625Y-69421375D01*
X131651989Y-69421375D01*
X131643437Y-72493187D01*
X131299729Y-73088500D01*
X131210018Y-73243868D01*
X131110473Y-73416244D01*
X131005521Y-73597961D01*
X130899590Y-73781356D01*
X130797106Y-73958764D01*
X130702496Y-74122521D01*
X130634940Y-74239437D01*
X130489356Y-74491399D01*
X130357857Y-74719050D01*
X130240664Y-74922010D01*
X130137995Y-75099897D01*
X130050071Y-75252331D01*
X129977110Y-75378931D01*
X129919332Y-75479316D01*
X129876957Y-75553107D01*
X129850205Y-75599921D01*
X129845081Y-75608962D01*
X129806817Y-75676738D01*
X129308139Y-75676738D01*
X129309593Y-75673214D01*
X129331661Y-75630010D01*
X129366444Y-75565273D01*
X129412311Y-75481953D01*
X129467628Y-75382999D01*
X129530763Y-75271362D01*
X129600083Y-75149993D01*
X129644919Y-75072074D01*
X129731007Y-74922890D01*
X129823884Y-74761959D01*
X129919742Y-74595876D01*
X130014776Y-74431236D01*
X130105179Y-74274633D01*
X130187145Y-74132663D01*
X130253823Y-74017187D01*
X130325062Y-73893821D01*
X130408259Y-73749738D01*
X130499500Y-73591716D01*
X130594870Y-73426537D01*
X130690455Y-73260979D01*
X130782341Y-73101823D01*
X130855341Y-72975372D01*
X131191000Y-72393931D01*
X131190590Y-70911622D01*
X131190180Y-69429312D01*
X131127781Y-69400553D01*
X131062983Y-69355866D01*
X131021683Y-69296549D01*
X131003225Y-69228581D01*
X131006955Y-69157941D01*
X131032218Y-69090606D01*
X131078358Y-69032557D01*
X131144721Y-68989771D01*
X131173954Y-68979101D01*
X131200501Y-68975910D01*
X131256048Y-68973009D01*
X131337847Y-68970396D01*
X131443151Y-68968071D01*
X131569211Y-68966035D01*
X131713279Y-68964288D01*
X131872606Y-68962830D01*
X132044446Y-68961660D01*
X132226049Y-68960780D01*
X132414667Y-68960187D01*
X132607552Y-68959883D01*
X132801957Y-68959868D01*
X132995132Y-68960141D01*
D15*
X180236905Y-56332381D02*
X180236905Y-55332381D01*
X180475000Y-55332381D01*
X180617858Y-55380000D01*
X180713096Y-55475238D01*
X180760715Y-55570476D01*
X180808334Y-55760952D01*
X180808334Y-55903810D01*
X180760715Y-56094286D01*
X180713096Y-56189524D01*
X180617858Y-56284762D01*
X180475000Y-56332381D01*
X180236905Y-56332381D01*
X181760715Y-56332381D02*
X181189286Y-56332381D01*
X181475000Y-56332381D02*
X181475000Y-55332381D01*
X181379762Y-55475238D01*
X181284524Y-55570476D01*
X181189286Y-55618095D01*
X145052143Y-67437000D02*
X145088429Y-67473286D01*
X145124714Y-67582143D01*
X145124714Y-67654714D01*
X145088429Y-67763571D01*
X145015857Y-67836143D01*
X144943286Y-67872428D01*
X144798143Y-67908714D01*
X144689286Y-67908714D01*
X144544143Y-67872428D01*
X144471571Y-67836143D01*
X144399000Y-67763571D01*
X144362714Y-67654714D01*
X144362714Y-67582143D01*
X144399000Y-67473286D01*
X144435286Y-67437000D01*
X144435286Y-67146714D02*
X144399000Y-67110428D01*
X144362714Y-67037857D01*
X144362714Y-66856428D01*
X144399000Y-66783857D01*
X144435286Y-66747571D01*
X144507857Y-66711286D01*
X144580429Y-66711286D01*
X144689286Y-66747571D01*
X145124714Y-67183000D01*
X145124714Y-66711286D01*
X149497143Y-67437000D02*
X149533429Y-67473286D01*
X149569714Y-67582143D01*
X149569714Y-67654714D01*
X149533429Y-67763571D01*
X149460857Y-67836143D01*
X149388286Y-67872428D01*
X149243143Y-67908714D01*
X149134286Y-67908714D01*
X148989143Y-67872428D01*
X148916571Y-67836143D01*
X148844000Y-67763571D01*
X148807714Y-67654714D01*
X148807714Y-67582143D01*
X148844000Y-67473286D01*
X148880286Y-67437000D01*
X149569714Y-66711286D02*
X149569714Y-67146714D01*
X149569714Y-66929000D02*
X148807714Y-66929000D01*
X148916571Y-67001571D01*
X148989143Y-67074143D01*
X149025429Y-67146714D01*
X215796905Y-56332381D02*
X215796905Y-55332381D01*
X216035000Y-55332381D01*
X216177858Y-55380000D01*
X216273096Y-55475238D01*
X216320715Y-55570476D01*
X216368334Y-55760952D01*
X216368334Y-55903810D01*
X216320715Y-56094286D01*
X216273096Y-56189524D01*
X216177858Y-56284762D01*
X216035000Y-56332381D01*
X215796905Y-56332381D01*
X216749286Y-55427619D02*
X216796905Y-55380000D01*
X216892143Y-55332381D01*
X217130239Y-55332381D01*
X217225477Y-55380000D01*
X217273096Y-55427619D01*
X217320715Y-55522857D01*
X217320715Y-55618095D01*
X217273096Y-55760952D01*
X216701667Y-56332381D01*
X217320715Y-56332381D01*
X358036905Y-56332381D02*
X358036905Y-55332381D01*
X358275000Y-55332381D01*
X358417858Y-55380000D01*
X358513096Y-55475238D01*
X358560715Y-55570476D01*
X358608334Y-55760952D01*
X358608334Y-55903810D01*
X358560715Y-56094286D01*
X358513096Y-56189524D01*
X358417858Y-56284762D01*
X358275000Y-56332381D01*
X358036905Y-56332381D01*
X359465477Y-55332381D02*
X359275000Y-55332381D01*
X359179762Y-55380000D01*
X359132143Y-55427619D01*
X359036905Y-55570476D01*
X358989286Y-55760952D01*
X358989286Y-56141905D01*
X359036905Y-56237143D01*
X359084524Y-56284762D01*
X359179762Y-56332381D01*
X359370239Y-56332381D01*
X359465477Y-56284762D01*
X359513096Y-56237143D01*
X359560715Y-56141905D01*
X359560715Y-55903810D01*
X359513096Y-55808571D01*
X359465477Y-55760952D01*
X359370239Y-55713333D01*
X359179762Y-55713333D01*
X359084524Y-55760952D01*
X359036905Y-55808571D01*
X358989286Y-55903810D01*
X168547143Y-76327000D02*
X168583429Y-76363286D01*
X168619714Y-76472143D01*
X168619714Y-76544714D01*
X168583429Y-76653571D01*
X168510857Y-76726143D01*
X168438286Y-76762428D01*
X168293143Y-76798714D01*
X168184286Y-76798714D01*
X168039143Y-76762428D01*
X167966571Y-76726143D01*
X167894000Y-76653571D01*
X167857714Y-76544714D01*
X167857714Y-76472143D01*
X167894000Y-76363286D01*
X167930286Y-76327000D01*
X167857714Y-76073000D02*
X167857714Y-75601286D01*
X168148000Y-75855286D01*
X168148000Y-75746428D01*
X168184286Y-75673857D01*
X168220571Y-75637571D01*
X168293143Y-75601286D01*
X168474571Y-75601286D01*
X168547143Y-75637571D01*
X168583429Y-75673857D01*
X168619714Y-75746428D01*
X168619714Y-75964143D01*
X168583429Y-76036714D01*
X168547143Y-76073000D01*
X251356905Y-56332381D02*
X251356905Y-55332381D01*
X251595000Y-55332381D01*
X251737858Y-55380000D01*
X251833096Y-55475238D01*
X251880715Y-55570476D01*
X251928334Y-55760952D01*
X251928334Y-55903810D01*
X251880715Y-56094286D01*
X251833096Y-56189524D01*
X251737858Y-56284762D01*
X251595000Y-56332381D01*
X251356905Y-56332381D01*
X252261667Y-55332381D02*
X252880715Y-55332381D01*
X252547381Y-55713333D01*
X252690239Y-55713333D01*
X252785477Y-55760952D01*
X252833096Y-55808571D01*
X252880715Y-55903810D01*
X252880715Y-56141905D01*
X252833096Y-56237143D01*
X252785477Y-56284762D01*
X252690239Y-56332381D01*
X252404524Y-56332381D01*
X252309286Y-56284762D01*
X252261667Y-56237143D01*
X286916905Y-56332381D02*
X286916905Y-55332381D01*
X287155000Y-55332381D01*
X287297858Y-55380000D01*
X287393096Y-55475238D01*
X287440715Y-55570476D01*
X287488334Y-55760952D01*
X287488334Y-55903810D01*
X287440715Y-56094286D01*
X287393096Y-56189524D01*
X287297858Y-56284762D01*
X287155000Y-56332381D01*
X286916905Y-56332381D01*
X288345477Y-55665714D02*
X288345477Y-56332381D01*
X288107381Y-55284762D02*
X287869286Y-55999048D01*
X288488334Y-55999048D01*
X322476905Y-56332381D02*
X322476905Y-55332381D01*
X322715000Y-55332381D01*
X322857858Y-55380000D01*
X322953096Y-55475238D01*
X323000715Y-55570476D01*
X323048334Y-55760952D01*
X323048334Y-55903810D01*
X323000715Y-56094286D01*
X322953096Y-56189524D01*
X322857858Y-56284762D01*
X322715000Y-56332381D01*
X322476905Y-56332381D01*
X323953096Y-55332381D02*
X323476905Y-55332381D01*
X323429286Y-55808571D01*
X323476905Y-55760952D01*
X323572143Y-55713333D01*
X323810239Y-55713333D01*
X323905477Y-55760952D01*
X323953096Y-55808571D01*
X324000715Y-55903810D01*
X324000715Y-56141905D01*
X323953096Y-56237143D01*
X323905477Y-56284762D01*
X323810239Y-56332381D01*
X323572143Y-56332381D01*
X323476905Y-56284762D01*
X323429286Y-56237143D01*
X97494286Y-72515000D02*
X97137143Y-72765000D01*
X97494286Y-72943572D02*
X96744286Y-72943572D01*
X96744286Y-72657857D01*
X96780000Y-72586429D01*
X96815714Y-72550714D01*
X96887143Y-72515000D01*
X96994286Y-72515000D01*
X97065714Y-72550714D01*
X97101429Y-72586429D01*
X97137143Y-72657857D01*
X97137143Y-72943572D01*
X97494286Y-71800714D02*
X97494286Y-72229286D01*
X97494286Y-72015000D02*
X96744286Y-72015000D01*
X96851429Y-72086429D01*
X96922857Y-72157857D01*
X96958571Y-72229286D01*
X94954286Y-72515000D02*
X94597143Y-72765000D01*
X94954286Y-72943572D02*
X94204286Y-72943572D01*
X94204286Y-72657857D01*
X94240000Y-72586429D01*
X94275714Y-72550714D01*
X94347143Y-72515000D01*
X94454286Y-72515000D01*
X94525714Y-72550714D01*
X94561429Y-72586429D01*
X94597143Y-72657857D01*
X94597143Y-72943572D01*
X94275714Y-72229286D02*
X94240000Y-72193572D01*
X94204286Y-72122143D01*
X94204286Y-71943572D01*
X94240000Y-71872143D01*
X94275714Y-71836429D01*
X94347143Y-71800714D01*
X94418571Y-71800714D01*
X94525714Y-71836429D01*
X94954286Y-72265000D01*
X94954286Y-71800714D01*
X92414286Y-72515000D02*
X92057143Y-72765000D01*
X92414286Y-72943572D02*
X91664286Y-72943572D01*
X91664286Y-72657857D01*
X91700000Y-72586429D01*
X91735714Y-72550714D01*
X91807143Y-72515000D01*
X91914286Y-72515000D01*
X91985714Y-72550714D01*
X92021429Y-72586429D01*
X92057143Y-72657857D01*
X92057143Y-72943572D01*
X91664286Y-72265000D02*
X91664286Y-71800714D01*
X91950000Y-72050714D01*
X91950000Y-71943572D01*
X91985714Y-71872143D01*
X92021429Y-71836429D01*
X92092857Y-71800714D01*
X92271429Y-71800714D01*
X92342857Y-71836429D01*
X92378571Y-71872143D01*
X92414286Y-71943572D01*
X92414286Y-72157857D01*
X92378571Y-72229286D01*
X92342857Y-72265000D01*
X89874286Y-72515000D02*
X89517143Y-72765000D01*
X89874286Y-72943572D02*
X89124286Y-72943572D01*
X89124286Y-72657857D01*
X89160000Y-72586429D01*
X89195714Y-72550714D01*
X89267143Y-72515000D01*
X89374286Y-72515000D01*
X89445714Y-72550714D01*
X89481429Y-72586429D01*
X89517143Y-72657857D01*
X89517143Y-72943572D01*
X89374286Y-71872143D02*
X89874286Y-71872143D01*
X89088571Y-72050714D02*
X89624286Y-72229286D01*
X89624286Y-71765000D01*
X87334286Y-72515000D02*
X86977143Y-72765000D01*
X87334286Y-72943572D02*
X86584286Y-72943572D01*
X86584286Y-72657857D01*
X86620000Y-72586429D01*
X86655714Y-72550714D01*
X86727143Y-72515000D01*
X86834286Y-72515000D01*
X86905714Y-72550714D01*
X86941429Y-72586429D01*
X86977143Y-72657857D01*
X86977143Y-72943572D01*
X86584286Y-71836429D02*
X86584286Y-72193572D01*
X86941429Y-72229286D01*
X86905714Y-72193572D01*
X86870000Y-72122143D01*
X86870000Y-71943572D01*
X86905714Y-71872143D01*
X86941429Y-71836429D01*
X87012857Y-71800714D01*
X87191429Y-71800714D01*
X87262857Y-71836429D01*
X87298571Y-71872143D01*
X87334286Y-71943572D01*
X87334286Y-72122143D01*
X87298571Y-72193572D01*
X87262857Y-72229286D01*
X84794286Y-72515000D02*
X84437143Y-72765000D01*
X84794286Y-72943572D02*
X84044286Y-72943572D01*
X84044286Y-72657857D01*
X84080000Y-72586429D01*
X84115714Y-72550714D01*
X84187143Y-72515000D01*
X84294286Y-72515000D01*
X84365714Y-72550714D01*
X84401429Y-72586429D01*
X84437143Y-72657857D01*
X84437143Y-72943572D01*
X84044286Y-71872143D02*
X84044286Y-72015000D01*
X84080000Y-72086429D01*
X84115714Y-72122143D01*
X84222857Y-72193572D01*
X84365714Y-72229286D01*
X84651429Y-72229286D01*
X84722857Y-72193572D01*
X84758571Y-72157857D01*
X84794286Y-72086429D01*
X84794286Y-71943572D01*
X84758571Y-71872143D01*
X84722857Y-71836429D01*
X84651429Y-71800714D01*
X84472857Y-71800714D01*
X84401429Y-71836429D01*
X84365714Y-71872143D01*
X84330000Y-71943572D01*
X84330000Y-72086429D01*
X84365714Y-72157857D01*
X84401429Y-72193572D01*
X84472857Y-72229286D01*
X82254286Y-72515000D02*
X81897143Y-72765000D01*
X82254286Y-72943572D02*
X81504286Y-72943572D01*
X81504286Y-72657857D01*
X81540000Y-72586429D01*
X81575714Y-72550714D01*
X81647143Y-72515000D01*
X81754286Y-72515000D01*
X81825714Y-72550714D01*
X81861429Y-72586429D01*
X81897143Y-72657857D01*
X81897143Y-72943572D01*
X81504286Y-72265000D02*
X81504286Y-71765000D01*
X82254286Y-72086429D01*
X79714286Y-72515000D02*
X79357143Y-72765000D01*
X79714286Y-72943572D02*
X78964286Y-72943572D01*
X78964286Y-72657857D01*
X79000000Y-72586429D01*
X79035714Y-72550714D01*
X79107143Y-72515000D01*
X79214286Y-72515000D01*
X79285714Y-72550714D01*
X79321429Y-72586429D01*
X79357143Y-72657857D01*
X79357143Y-72943572D01*
X79285714Y-72086429D02*
X79250000Y-72157857D01*
X79214286Y-72193572D01*
X79142857Y-72229286D01*
X79107143Y-72229286D01*
X79035714Y-72193572D01*
X79000000Y-72157857D01*
X78964286Y-72086429D01*
X78964286Y-71943572D01*
X79000000Y-71872143D01*
X79035714Y-71836429D01*
X79107143Y-71800714D01*
X79142857Y-71800714D01*
X79214286Y-71836429D01*
X79250000Y-71872143D01*
X79285714Y-71943572D01*
X79285714Y-72086429D01*
X79321429Y-72157857D01*
X79357143Y-72193572D01*
X79428571Y-72229286D01*
X79571429Y-72229286D01*
X79642857Y-72193572D01*
X79678571Y-72157857D01*
X79714286Y-72086429D01*
X79714286Y-71943572D01*
X79678571Y-71872143D01*
X79642857Y-71836429D01*
X79571429Y-71800714D01*
X79428571Y-71800714D01*
X79357143Y-71836429D01*
X79321429Y-71872143D01*
X79285714Y-71943572D01*
X77174286Y-72515000D02*
X76817143Y-72765000D01*
X77174286Y-72943572D02*
X76424286Y-72943572D01*
X76424286Y-72657857D01*
X76460000Y-72586429D01*
X76495714Y-72550714D01*
X76567143Y-72515000D01*
X76674286Y-72515000D01*
X76745714Y-72550714D01*
X76781429Y-72586429D01*
X76817143Y-72657857D01*
X76817143Y-72943572D01*
X77174286Y-72157857D02*
X77174286Y-72015000D01*
X77138571Y-71943572D01*
X77102857Y-71907857D01*
X76995714Y-71836429D01*
X76852857Y-71800714D01*
X76567143Y-71800714D01*
X76495714Y-71836429D01*
X76460000Y-71872143D01*
X76424286Y-71943572D01*
X76424286Y-72086429D01*
X76460000Y-72157857D01*
X76495714Y-72193572D01*
X76567143Y-72229286D01*
X76745714Y-72229286D01*
X76817143Y-72193572D01*
X76852857Y-72157857D01*
X76888571Y-72086429D01*
X76888571Y-71943572D01*
X76852857Y-71872143D01*
X76817143Y-71836429D01*
X76745714Y-71800714D01*
X97494286Y-60172143D02*
X97137143Y-60422143D01*
X97494286Y-60600715D02*
X96744286Y-60600715D01*
X96744286Y-60315000D01*
X96780000Y-60243572D01*
X96815714Y-60207857D01*
X96887143Y-60172143D01*
X96994286Y-60172143D01*
X97065714Y-60207857D01*
X97101429Y-60243572D01*
X97137143Y-60315000D01*
X97137143Y-60600715D01*
X97494286Y-59457857D02*
X97494286Y-59886429D01*
X97494286Y-59672143D02*
X96744286Y-59672143D01*
X96851429Y-59743572D01*
X96922857Y-59815000D01*
X96958571Y-59886429D01*
X96744286Y-58993571D02*
X96744286Y-58922143D01*
X96780000Y-58850714D01*
X96815714Y-58815000D01*
X96887143Y-58779286D01*
X97030000Y-58743571D01*
X97208571Y-58743571D01*
X97351429Y-58779286D01*
X97422857Y-58815000D01*
X97458571Y-58850714D01*
X97494286Y-58922143D01*
X97494286Y-58993571D01*
X97458571Y-59065000D01*
X97422857Y-59100714D01*
X97351429Y-59136429D01*
X97208571Y-59172143D01*
X97030000Y-59172143D01*
X96887143Y-59136429D01*
X96815714Y-59100714D01*
X96780000Y-59065000D01*
X96744286Y-58993571D01*
X94954286Y-60172143D02*
X94597143Y-60422143D01*
X94954286Y-60600715D02*
X94204286Y-60600715D01*
X94204286Y-60315000D01*
X94240000Y-60243572D01*
X94275714Y-60207857D01*
X94347143Y-60172143D01*
X94454286Y-60172143D01*
X94525714Y-60207857D01*
X94561429Y-60243572D01*
X94597143Y-60315000D01*
X94597143Y-60600715D01*
X94954286Y-59457857D02*
X94954286Y-59886429D01*
X94954286Y-59672143D02*
X94204286Y-59672143D01*
X94311429Y-59743572D01*
X94382857Y-59815000D01*
X94418571Y-59886429D01*
X94954286Y-58743571D02*
X94954286Y-59172143D01*
X94954286Y-58957857D02*
X94204286Y-58957857D01*
X94311429Y-59029286D01*
X94382857Y-59100714D01*
X94418571Y-59172143D01*
X92414286Y-60172143D02*
X92057143Y-60422143D01*
X92414286Y-60600715D02*
X91664286Y-60600715D01*
X91664286Y-60315000D01*
X91700000Y-60243572D01*
X91735714Y-60207857D01*
X91807143Y-60172143D01*
X91914286Y-60172143D01*
X91985714Y-60207857D01*
X92021429Y-60243572D01*
X92057143Y-60315000D01*
X92057143Y-60600715D01*
X92414286Y-59457857D02*
X92414286Y-59886429D01*
X92414286Y-59672143D02*
X91664286Y-59672143D01*
X91771429Y-59743572D01*
X91842857Y-59815000D01*
X91878571Y-59886429D01*
X91735714Y-59172143D02*
X91700000Y-59136429D01*
X91664286Y-59065000D01*
X91664286Y-58886429D01*
X91700000Y-58815000D01*
X91735714Y-58779286D01*
X91807143Y-58743571D01*
X91878571Y-58743571D01*
X91985714Y-58779286D01*
X92414286Y-59207857D01*
X92414286Y-58743571D01*
X89874286Y-60172143D02*
X89517143Y-60422143D01*
X89874286Y-60600715D02*
X89124286Y-60600715D01*
X89124286Y-60315000D01*
X89160000Y-60243572D01*
X89195714Y-60207857D01*
X89267143Y-60172143D01*
X89374286Y-60172143D01*
X89445714Y-60207857D01*
X89481429Y-60243572D01*
X89517143Y-60315000D01*
X89517143Y-60600715D01*
X89874286Y-59457857D02*
X89874286Y-59886429D01*
X89874286Y-59672143D02*
X89124286Y-59672143D01*
X89231429Y-59743572D01*
X89302857Y-59815000D01*
X89338571Y-59886429D01*
X89124286Y-59207857D02*
X89124286Y-58743571D01*
X89410000Y-58993571D01*
X89410000Y-58886429D01*
X89445714Y-58815000D01*
X89481429Y-58779286D01*
X89552857Y-58743571D01*
X89731429Y-58743571D01*
X89802857Y-58779286D01*
X89838571Y-58815000D01*
X89874286Y-58886429D01*
X89874286Y-59100714D01*
X89838571Y-59172143D01*
X89802857Y-59207857D01*
X82254286Y-60172143D02*
X81897143Y-60422143D01*
X82254286Y-60600715D02*
X81504286Y-60600715D01*
X81504286Y-60315000D01*
X81540000Y-60243572D01*
X81575714Y-60207857D01*
X81647143Y-60172143D01*
X81754286Y-60172143D01*
X81825714Y-60207857D01*
X81861429Y-60243572D01*
X81897143Y-60315000D01*
X81897143Y-60600715D01*
X82254286Y-59457857D02*
X82254286Y-59886429D01*
X82254286Y-59672143D02*
X81504286Y-59672143D01*
X81611429Y-59743572D01*
X81682857Y-59815000D01*
X81718571Y-59886429D01*
X81754286Y-58815000D02*
X82254286Y-58815000D01*
X81468571Y-58993571D02*
X82004286Y-59172143D01*
X82004286Y-58707857D01*
X79714286Y-60172143D02*
X79357143Y-60422143D01*
X79714286Y-60600715D02*
X78964286Y-60600715D01*
X78964286Y-60315000D01*
X79000000Y-60243572D01*
X79035714Y-60207857D01*
X79107143Y-60172143D01*
X79214286Y-60172143D01*
X79285714Y-60207857D01*
X79321429Y-60243572D01*
X79357143Y-60315000D01*
X79357143Y-60600715D01*
X79714286Y-59457857D02*
X79714286Y-59886429D01*
X79714286Y-59672143D02*
X78964286Y-59672143D01*
X79071429Y-59743572D01*
X79142857Y-59815000D01*
X79178571Y-59886429D01*
X78964286Y-58779286D02*
X78964286Y-59136429D01*
X79321429Y-59172143D01*
X79285714Y-59136429D01*
X79250000Y-59065000D01*
X79250000Y-58886429D01*
X79285714Y-58815000D01*
X79321429Y-58779286D01*
X79392857Y-58743571D01*
X79571429Y-58743571D01*
X79642857Y-58779286D01*
X79678571Y-58815000D01*
X79714286Y-58886429D01*
X79714286Y-59065000D01*
X79678571Y-59136429D01*
X79642857Y-59172143D01*
X77174286Y-60172143D02*
X76817143Y-60422143D01*
X77174286Y-60600715D02*
X76424286Y-60600715D01*
X76424286Y-60315000D01*
X76460000Y-60243572D01*
X76495714Y-60207857D01*
X76567143Y-60172143D01*
X76674286Y-60172143D01*
X76745714Y-60207857D01*
X76781429Y-60243572D01*
X76817143Y-60315000D01*
X76817143Y-60600715D01*
X77174286Y-59457857D02*
X77174286Y-59886429D01*
X77174286Y-59672143D02*
X76424286Y-59672143D01*
X76531429Y-59743572D01*
X76602857Y-59815000D01*
X76638571Y-59886429D01*
X76424286Y-58815000D02*
X76424286Y-58957857D01*
X76460000Y-59029286D01*
X76495714Y-59065000D01*
X76602857Y-59136429D01*
X76745714Y-59172143D01*
X77031429Y-59172143D01*
X77102857Y-59136429D01*
X77138571Y-59100714D01*
X77174286Y-59029286D01*
X77174286Y-58886429D01*
X77138571Y-58815000D01*
X77102857Y-58779286D01*
X77031429Y-58743571D01*
X76852857Y-58743571D01*
X76781429Y-58779286D01*
X76745714Y-58815000D01*
X76710000Y-58886429D01*
X76710000Y-59029286D01*
X76745714Y-59100714D01*
X76781429Y-59136429D01*
X76852857Y-59172143D01*
X167059162Y-71653985D02*
X167134924Y-71224670D01*
X166756116Y-71350939D02*
X167286446Y-70820609D01*
X167488477Y-71022640D01*
X167513731Y-71098400D01*
X167513731Y-71148908D01*
X167488477Y-71224670D01*
X167412715Y-71300431D01*
X167336955Y-71325685D01*
X167286446Y-71325685D01*
X167210685Y-71300431D01*
X167008654Y-71098400D01*
X167564238Y-72159061D02*
X167261192Y-71856015D01*
X167412715Y-72007538D02*
X167943045Y-71477208D01*
X167816776Y-71502462D01*
X167715762Y-71502462D01*
X167640000Y-71477207D01*
X168271345Y-71805508D02*
X168624899Y-72159061D01*
X167867284Y-72462107D01*
M02*
