M48
;DRILL file {KiCad 4.0.2-stable} date 1/2/2017 10:04:25 PM
;FORMAT={-:-/ absolute / inch / decimal}
FMAT,2
INCH,TZ
T1C0.013
T2C0.030
T3C0.031
T4C0.032
T5C0.040
T6C0.020
%
G90
G05
M72
T1
X3.75Y-2.4
X3.9Y-2.425
X3.925Y-2.9
X3.975Y-2.85
X4.05Y-2.875
X4.15Y-2.725
X4.175Y-2.7
X4.525Y-2.7
X4.55Y-2.725
X4.825Y-2.325
X5.075Y-2.375
X5.075Y-2.525
X5.1Y-2.35
X5.1Y-2.4
X5.15Y-2.675
X5.175Y-2.3
X5.2Y-2.325
X5.225Y-2.35
X5.325Y-2.475
X5.35Y-2.4
X5.425Y-2.45
X5.425Y-2.6
X5.45Y-2.4
X5.475Y-2.925
X5.5Y-2.9
X5.525Y-2.425
X5.525Y-2.95
X5.55Y-2.475
X5.575Y-2.375
X5.95Y-2.4
X6.Y-2.75
X6.Y-2.875
X6.05Y-2.75
X6.075Y-2.85
X6.1Y-2.75
X6.125Y-2.825
X6.175Y-2.75
X6.175Y-2.8
X6.225Y-2.925
X6.25Y-2.7
X7.45Y-2.25
X7.45Y-2.95
X7.55Y-2.275
X7.55Y-2.925
X7.65Y-2.3
X7.65Y-2.9
X7.75Y-2.875
X7.85Y-2.85
X7.95Y-2.325
X7.95Y-2.825
X8.05Y-2.35
X8.05Y-2.8
X8.15Y-2.375
X8.15Y-2.775
X8.725Y-2.225
X8.825Y-2.25
X8.825Y-2.95
X8.925Y-2.275
X8.925Y-2.925
X9.025Y-2.3
X9.025Y-2.9
X9.125Y-2.875
X9.225Y-2.85
X9.325Y-2.325
X9.325Y-2.825
X9.425Y-2.8
X9.525Y-2.775
X10.025Y-2.35
X10.075Y-2.375
X10.125Y-2.225
X10.125Y-2.975
X10.225Y-2.25
X10.225Y-2.95
X10.325Y-2.275
X10.325Y-2.925
X10.425Y-2.3
X10.425Y-2.9
X10.525Y-2.875
X10.625Y-2.85
X10.725Y-2.325
X10.725Y-2.825
X10.825Y-2.35
X10.825Y-2.8
X10.925Y-2.375
X10.925Y-2.775
X11.525Y-2.225
X11.625Y-2.25
X11.625Y-2.95
X11.725Y-2.275
X11.725Y-2.925
X11.825Y-2.3
X11.825Y-2.9
X11.9Y-2.4
X11.925Y-2.875
X12.025Y-2.85
X12.125Y-2.325
X12.125Y-2.825
X12.225Y-2.35
X12.225Y-2.8
X12.325Y-2.375
X12.325Y-2.775
X12.925Y-2.225
X13.025Y-2.25
X13.025Y-2.95
X13.125Y-2.275
X13.125Y-2.925
X13.225Y-2.3
X13.225Y-2.9
X13.325Y-2.875
X13.425Y-2.85
X13.525Y-2.325
X13.525Y-2.825
X13.625Y-2.35
X13.625Y-2.8
X13.725Y-2.375
X13.725Y-2.775
T2
X3.025Y-2.25
X3.025Y-2.45
X3.025Y-2.75
X3.025Y-2.95
X3.125Y-2.25
X3.125Y-2.45
X3.125Y-2.75
X3.125Y-2.95
X3.225Y-2.25
X3.225Y-2.45
X3.225Y-2.75
X3.225Y-2.95
X3.325Y-2.75
X3.325Y-2.95
X3.425Y-2.75
X3.425Y-2.95
X3.525Y-2.25
X3.525Y-2.45
X3.525Y-2.75
X3.525Y-2.95
X3.625Y-2.25
X3.625Y-2.45
X3.625Y-2.75
X3.625Y-2.95
X3.725Y-2.25
X3.725Y-2.45
X3.725Y-2.75
X3.725Y-2.95
X3.825Y-2.25
X3.825Y-2.45
X3.825Y-2.75
X3.825Y-2.95
X6.5293Y-2.7543
X6.6707Y-2.8957
T3
X4.275Y-2.25
X4.275Y-2.55
X4.275Y-2.65
X4.275Y-2.95
X4.375Y-2.25
X4.375Y-2.55
X4.375Y-2.65
X4.375Y-2.95
X4.475Y-2.25
X4.475Y-2.55
X4.475Y-2.65
X4.475Y-2.95
X4.575Y-2.25
X4.575Y-2.55
X4.575Y-2.65
X4.575Y-2.95
X4.675Y-2.25
X4.675Y-2.55
X4.675Y-2.65
X4.675Y-2.95
X4.775Y-2.25
X4.775Y-2.55
X4.775Y-2.65
X4.775Y-2.95
X4.875Y-2.25
X4.875Y-2.55
X4.875Y-2.65
X4.875Y-2.95
X4.975Y-2.25
X4.975Y-2.55
X4.975Y-2.65
X4.975Y-2.95
X5.15Y-2.25
X5.15Y-2.55
X5.25Y-2.25
X5.25Y-2.55
X5.35Y-2.25
X5.35Y-2.55
X5.45Y-2.25
X5.45Y-2.55
X5.55Y-2.25
X5.55Y-2.55
X5.65Y-2.25
X5.65Y-2.55
X5.65Y-2.65
X5.75Y-2.25
X5.75Y-2.55
X5.825Y-2.65
X5.85Y-2.25
X5.85Y-2.55
X5.95Y-2.25
X5.95Y-2.55
X6.05Y-2.25
X6.05Y-2.55
X6.15Y-2.25
X6.15Y-2.55
X6.25Y-2.25
X6.25Y-2.55
X6.35Y-2.25
X6.35Y-2.55
X6.45Y-2.25
X6.45Y-2.55
X6.575Y-3.
T4
X5.7484Y-2.65
X5.9234Y-2.65
X6.6734Y-3.
T5
X2.825Y-2.2
X2.825Y-2.3
X2.825Y-2.4
X2.825Y-2.55
X2.925Y-2.55
X3.025Y-2.55
X3.025Y-2.65
X3.125Y-2.55
X3.125Y-2.65
X3.225Y-2.55
X3.225Y-2.65
X3.325Y-2.55
X3.325Y-2.65
X3.425Y-2.55
X3.425Y-2.65
X3.525Y-2.55
X3.525Y-2.65
X3.625Y-2.55
X3.625Y-2.65
X3.725Y-2.55
X3.725Y-2.65
X3.825Y-2.55
X3.825Y-2.65
X3.925Y-2.55
X4.025Y-2.55
X6.325Y-2.8
X6.325Y-2.9
X6.325Y-3.
X6.425Y-2.8
X6.425Y-2.9
X6.425Y-3.
X6.625Y-2.4
X6.625Y-2.5
X6.625Y-2.6
X6.625Y-2.7
X6.825Y-2.2
X6.825Y-2.3
X6.825Y-2.4
X6.825Y-2.5
X6.825Y-2.6
X6.825Y-2.7
X6.825Y-2.8
X6.825Y-2.9
X6.825Y-3.
X7.325Y-2.1669
X7.325Y-2.4
X7.325Y-2.5
X7.325Y-2.6
X7.325Y-2.7
X7.325Y-3.0331
X7.425Y-2.1669
X7.425Y-3.0331
X7.525Y-2.1669
X7.525Y-3.0331
X7.625Y-2.1669
X7.625Y-3.0331
X7.725Y-2.1669
X7.725Y-3.0331
X7.825Y-2.1669
X7.825Y-3.0331
X7.925Y-2.1669
X7.925Y-3.0331
X8.025Y-2.1669
X8.025Y-3.0331
X8.125Y-2.1669
X8.125Y-3.0331
X8.725Y-2.1669
X8.725Y-3.0331
X8.825Y-2.1669
X8.825Y-3.0331
X8.925Y-2.1669
X8.925Y-3.0331
X9.025Y-2.1669
X9.025Y-3.0331
X9.125Y-2.1669
X9.125Y-3.0331
X9.225Y-2.1669
X9.225Y-3.0331
X9.325Y-2.1669
X9.325Y-3.0331
X9.425Y-2.1669
X9.425Y-3.0331
X9.525Y-2.1669
X9.525Y-3.0331
X9.925Y-2.55
X10.025Y-2.55
X10.125Y-2.1669
X10.125Y-2.55
X10.125Y-2.65
X10.125Y-3.0331
X10.225Y-2.1669
X10.225Y-2.55
X10.225Y-2.65
X10.225Y-3.0331
X10.325Y-2.1669
X10.325Y-2.55
X10.325Y-2.65
X10.325Y-3.0331
X10.425Y-2.1669
X10.425Y-2.55
X10.425Y-2.65
X10.425Y-3.0331
X10.525Y-2.1669
X10.525Y-2.55
X10.525Y-2.65
X10.525Y-3.0331
X10.625Y-2.1669
X10.625Y-2.55
X10.625Y-2.65
X10.625Y-3.0331
X10.725Y-2.1669
X10.725Y-2.55
X10.725Y-2.65
X10.725Y-3.0331
X10.825Y-2.1669
X10.825Y-2.55
X10.825Y-2.65
X10.825Y-3.0331
X10.925Y-2.1669
X10.925Y-2.55
X10.925Y-2.65
X10.925Y-3.0331
X11.025Y-2.55
X11.125Y-2.55
X11.525Y-2.1669
X11.525Y-3.0331
X11.625Y-2.1669
X11.625Y-3.0331
X11.725Y-2.1669
X11.725Y-3.0331
X11.825Y-2.1669
X11.825Y-3.0331
X11.925Y-2.1669
X11.925Y-3.0331
X12.025Y-2.1669
X12.025Y-3.0331
X12.125Y-2.1669
X12.125Y-3.0331
X12.225Y-2.1669
X12.225Y-3.0331
X12.325Y-2.1669
X12.325Y-3.0331
X12.925Y-2.1669
X12.925Y-3.0331
X13.025Y-2.1669
X13.025Y-3.0331
X13.125Y-2.1669
X13.125Y-3.0331
X13.225Y-2.1669
X13.225Y-3.0331
X13.325Y-2.1669
X13.325Y-3.0331
X13.425Y-2.1669
X13.425Y-3.0331
X13.525Y-2.1669
X13.525Y-3.0331
X13.625Y-2.1669
X13.625Y-3.0331
X13.725Y-2.1669
X13.725Y-3.0331
X14.325Y-2.1669
X14.325Y-3.0331
X14.425Y-2.1669
X14.425Y-3.0331
X14.525Y-2.1669
X14.525Y-3.0331
X14.625Y-2.1669
X14.625Y-3.0331
X14.725Y-2.1669
X14.725Y-3.0331
X14.825Y-2.1669
X14.825Y-3.0331
X14.925Y-2.1669
X14.925Y-3.0331
X15.025Y-2.1669
X15.025Y-3.0331
X15.125Y-2.1669
X15.125Y-3.0331
T6
X6.9317Y-2.2685
X6.9317Y-2.3
X6.9317Y-2.3315
X6.9317Y-2.8685
X6.9317Y-2.9
X6.9317Y-2.9315
X7.0183Y-2.2685
X7.0183Y-2.3
X7.0183Y-2.3315
X7.0183Y-2.8685
X7.0183Y-2.9
X7.0183Y-2.9315
T0
M30
