G04 #@! TF.FileFunction,Profile,NP*
%FSLAX46Y46*%
G04 Gerber Fmt 4.6, Leading zero omitted, Abs format (unit mm)*
G04 Created by KiCad (PCBNEW 4.0.2-stable) date 1/2/2017 10:04:15 PM*
%MOMM*%
G01*
G04 APERTURE LIST*
%ADD10C,0.100000*%
%ADD11C,0.150000*%
G04 APERTURE END LIST*
D10*
D11*
X388366000Y-49530000D02*
X388747000Y-49530000D01*
X384810000Y-49530000D02*
X385064000Y-49530000D01*
X388366000Y-82550000D02*
X388620000Y-82550000D01*
X384810000Y-82550000D02*
X385064000Y-82550000D01*
X286766000Y-82550000D02*
X287020000Y-82550000D01*
X283210000Y-82550000D02*
X283464000Y-82550000D01*
X286766000Y-49530000D02*
X287020000Y-49530000D01*
X283210000Y-49530000D02*
X283464000Y-49530000D01*
X182245000Y-49530000D02*
X182499000Y-49530000D01*
X186055000Y-49530000D02*
X185801000Y-49530000D01*
X185801000Y-82550000D02*
X186055000Y-82550000D01*
X182245000Y-82550000D02*
X182499000Y-82550000D01*
X184150000Y-80899000D02*
G75*
G03X182499000Y-82550000I0J-1651000D01*
G01*
X185801000Y-82550000D02*
G75*
G03X184150000Y-80899000I-1651000J0D01*
G01*
X285115000Y-80899000D02*
G75*
G03X283464000Y-82550000I0J-1651000D01*
G01*
X286766000Y-82550000D02*
G75*
G03X285115000Y-80899000I-1651000J0D01*
G01*
X386715000Y-80899000D02*
G75*
G03X385064000Y-82550000I0J-1651000D01*
G01*
X388366000Y-82550000D02*
G75*
G03X386715000Y-80899000I-1651000J0D01*
G01*
X386715000Y-51181000D02*
G75*
G03X388366000Y-49530000I0J1651000D01*
G01*
X385064000Y-49530000D02*
G75*
G03X386715000Y-51181000I1651000J0D01*
G01*
X285115000Y-51181000D02*
G75*
G03X286766000Y-49530000I0J1651000D01*
G01*
X283464000Y-49530000D02*
G75*
G03X285115000Y-51181000I1651000J0D01*
G01*
X184150000Y-51181000D02*
G75*
G03X185801000Y-49530000I0J1651000D01*
G01*
X182499000Y-49530000D02*
G75*
G03X184150000Y-51181000I1651000J0D01*
G01*
X178435000Y-60960000D02*
X178435000Y-71120000D01*
X391795000Y-49530000D02*
X391795000Y-82550000D01*
X178435000Y-55880000D02*
X178435000Y-49530000D01*
X178435000Y-76200000D02*
X178435000Y-82550000D01*
X175895000Y-55880000D02*
X175895000Y-53340000D01*
X175895000Y-60960000D02*
X175895000Y-71120000D01*
X175895000Y-78740000D02*
X175895000Y-76200000D01*
X177165000Y-74930000D02*
G75*
G03X175895000Y-76200000I0J-1270000D01*
G01*
X178435000Y-76200000D02*
G75*
G03X177165000Y-74930000I-1270000J0D01*
G01*
X177165000Y-72390000D02*
G75*
G03X178435000Y-71120000I0J1270000D01*
G01*
X175895000Y-71120000D02*
G75*
G03X177165000Y-72390000I1270000J0D01*
G01*
X177165000Y-59690000D02*
G75*
G03X175895000Y-60960000I0J-1270000D01*
G01*
X178435000Y-60960000D02*
G75*
G03X177165000Y-59690000I-1270000J0D01*
G01*
X177165000Y-57150000D02*
G75*
G03X178435000Y-55880000I0J1270000D01*
G01*
X175895000Y-55880000D02*
G75*
G03X177165000Y-57150000I1270000J0D01*
G01*
X182245000Y-82550000D02*
X178435000Y-82550000D01*
X283210000Y-82550000D02*
X186055000Y-82550000D01*
X384810000Y-82550000D02*
X287020000Y-82550000D01*
X388620000Y-82550000D02*
X391795000Y-82550000D01*
X186055000Y-49530000D02*
X283210000Y-49530000D01*
X388620000Y-49530000D02*
X391795000Y-49530000D01*
X287020000Y-49530000D02*
X384810000Y-49530000D01*
X182245000Y-49530000D02*
X178435000Y-49530000D01*
X69215000Y-78740000D02*
X74295000Y-78740000D01*
X69215000Y-53340000D02*
X69215000Y-78740000D01*
X74295000Y-53340000D02*
X69215000Y-53340000D01*
X175895000Y-78740000D02*
X140335000Y-78740000D01*
X140335000Y-53340000D02*
X175895000Y-53340000D01*
X74295000Y-78740000D02*
X140335000Y-78740000D01*
X74295000Y-53340000D02*
X140335000Y-53340000D01*
M02*
