G04 #@! TF.FileFunction,Copper,L1,Top,Signal*
%FSLAX46Y46*%
G04 Gerber Fmt 4.6, Leading zero omitted, Abs format (unit mm)*
G04 Created by KiCad (PCBNEW 4.0.2-stable) date 1/2/2017 10:04:15 PM*
%MOMM*%
G01*
G04 APERTURE LIST*
%ADD10C,0.100000*%
%ADD11O,1.600000X1.600000*%
%ADD12O,2.032000X1.727200*%
%ADD13C,1.778000*%
%ADD14R,1.300000X1.300000*%
%ADD15C,1.300000*%
%ADD16R,1.727200X1.727200*%
%ADD17O,1.727200X1.727200*%
%ADD18R,1.727200X2.032000*%
%ADD19O,1.727200X2.032000*%
%ADD20C,1.524000*%
%ADD21R,2.032000X2.032000*%
%ADD22O,2.032000X2.032000*%
%ADD23R,1.600000X1.600000*%
%ADD24C,0.685800*%
%ADD25C,0.254000*%
%ADD26C,0.152400*%
G04 APERTURE END LIST*
D10*
D11*
X163830000Y-57150000D03*
X161290000Y-57150000D03*
X158750000Y-57150000D03*
X156210000Y-57150000D03*
X153670000Y-57150000D03*
X151130000Y-57150000D03*
X148590000Y-57150000D03*
X146050000Y-57150000D03*
X143510000Y-57150000D03*
X140970000Y-57150000D03*
X138430000Y-57150000D03*
X135890000Y-57150000D03*
X133350000Y-57150000D03*
X130810000Y-57150000D03*
X130810000Y-64770000D03*
X133350000Y-64770000D03*
X135890000Y-64770000D03*
X138430000Y-64770000D03*
X140970000Y-64770000D03*
X143510000Y-64770000D03*
X146050000Y-64770000D03*
X148590000Y-64770000D03*
X151130000Y-64770000D03*
X153670000Y-64770000D03*
X156210000Y-64770000D03*
X158750000Y-64770000D03*
X161290000Y-64770000D03*
X163830000Y-64770000D03*
D12*
X186055000Y-68580000D03*
X186055000Y-66040000D03*
X186055000Y-63500000D03*
X186055000Y-60960000D03*
D13*
X186055000Y-77040000D03*
X188595000Y-77040000D03*
X191135000Y-77040000D03*
X193675000Y-77040000D03*
X196215000Y-77040000D03*
X198755000Y-77040000D03*
X201295000Y-77040000D03*
X203835000Y-77040000D03*
X206375000Y-77040000D03*
X186055000Y-55040000D03*
X188595000Y-55040000D03*
X191135000Y-55040000D03*
X193675000Y-55040000D03*
X196215000Y-55040000D03*
X198755000Y-55040000D03*
X201295000Y-55040000D03*
X203835000Y-55040000D03*
X206375000Y-55040000D03*
D14*
X143510000Y-67310000D03*
D15*
X146010000Y-67310000D03*
D14*
X147955000Y-67310000D03*
D15*
X150455000Y-67310000D03*
D13*
X221615000Y-77040000D03*
X224155000Y-77040000D03*
X226695000Y-77040000D03*
X229235000Y-77040000D03*
X231775000Y-77040000D03*
X234315000Y-77040000D03*
X236855000Y-77040000D03*
X239395000Y-77040000D03*
X241935000Y-77040000D03*
X221615000Y-55040000D03*
X224155000Y-55040000D03*
X226695000Y-55040000D03*
X229235000Y-55040000D03*
X231775000Y-55040000D03*
X234315000Y-55040000D03*
X236855000Y-55040000D03*
X239395000Y-55040000D03*
X241935000Y-55040000D03*
X363855000Y-77040000D03*
X366395000Y-77040000D03*
X368935000Y-77040000D03*
X371475000Y-77040000D03*
X374015000Y-77040000D03*
X376555000Y-77040000D03*
X379095000Y-77040000D03*
X381635000Y-77040000D03*
X384175000Y-77040000D03*
X363855000Y-55040000D03*
X366395000Y-55040000D03*
X368935000Y-55040000D03*
X371475000Y-55040000D03*
X374015000Y-55040000D03*
X376555000Y-55040000D03*
X379095000Y-55040000D03*
X381635000Y-55040000D03*
X384175000Y-55040000D03*
D14*
X167005000Y-76200000D03*
D15*
X169505000Y-76200000D03*
D16*
X160655000Y-71120000D03*
D17*
X163195000Y-71120000D03*
X163195000Y-73660000D03*
X160655000Y-73660000D03*
X163195000Y-76200000D03*
X160655000Y-76200000D03*
D13*
X257175000Y-77040000D03*
X259715000Y-77040000D03*
X262255000Y-77040000D03*
X264795000Y-77040000D03*
X267335000Y-77040000D03*
X269875000Y-77040000D03*
X272415000Y-77040000D03*
X274955000Y-77040000D03*
X277495000Y-77040000D03*
X257175000Y-55040000D03*
X259715000Y-55040000D03*
X262255000Y-55040000D03*
X264795000Y-55040000D03*
X267335000Y-55040000D03*
X269875000Y-55040000D03*
X272415000Y-55040000D03*
X274955000Y-55040000D03*
X277495000Y-55040000D03*
X292735000Y-77040000D03*
X295275000Y-77040000D03*
X297815000Y-77040000D03*
X300355000Y-77040000D03*
X302895000Y-77040000D03*
X305435000Y-77040000D03*
X307975000Y-77040000D03*
X310515000Y-77040000D03*
X313055000Y-77040000D03*
X292735000Y-55040000D03*
X295275000Y-55040000D03*
X297815000Y-55040000D03*
X300355000Y-55040000D03*
X302895000Y-55040000D03*
X305435000Y-55040000D03*
X307975000Y-55040000D03*
X310515000Y-55040000D03*
X313055000Y-55040000D03*
X328295000Y-77040000D03*
X330835000Y-77040000D03*
X333375000Y-77040000D03*
X335915000Y-77040000D03*
X338455000Y-77040000D03*
X340995000Y-77040000D03*
X343535000Y-77040000D03*
X346075000Y-77040000D03*
X348615000Y-77040000D03*
X328295000Y-55040000D03*
X330835000Y-55040000D03*
X333375000Y-55040000D03*
X335915000Y-55040000D03*
X338455000Y-55040000D03*
X340995000Y-55040000D03*
X343535000Y-55040000D03*
X346075000Y-55040000D03*
X348615000Y-55040000D03*
D18*
X252095000Y-64770000D03*
D19*
X254635000Y-64770000D03*
X257175000Y-64770000D03*
X259715000Y-64770000D03*
X262255000Y-64770000D03*
X264795000Y-64770000D03*
X267335000Y-64770000D03*
X269875000Y-64770000D03*
X272415000Y-64770000D03*
X274955000Y-64770000D03*
X277495000Y-64770000D03*
X280035000Y-64770000D03*
X282575000Y-64770000D03*
D18*
X257175000Y-67310000D03*
D19*
X259715000Y-67310000D03*
X262255000Y-67310000D03*
X264795000Y-67310000D03*
X267335000Y-67310000D03*
X269875000Y-67310000D03*
X272415000Y-67310000D03*
X274955000Y-67310000D03*
X277495000Y-67310000D03*
D18*
X102235000Y-64770000D03*
D19*
X99695000Y-64770000D03*
X97155000Y-64770000D03*
X94615000Y-64770000D03*
X92075000Y-64770000D03*
X89535000Y-64770000D03*
X86995000Y-64770000D03*
X84455000Y-64770000D03*
X81915000Y-64770000D03*
X79375000Y-64770000D03*
X76835000Y-64770000D03*
X74295000Y-64770000D03*
X71755000Y-64770000D03*
D18*
X97155000Y-67310000D03*
D19*
X94615000Y-67310000D03*
X92075000Y-67310000D03*
X89535000Y-67310000D03*
X86995000Y-67310000D03*
X84455000Y-67310000D03*
X81915000Y-67310000D03*
X79375000Y-67310000D03*
X76835000Y-67310000D03*
D20*
X97155000Y-69850000D03*
X97155000Y-74930000D03*
X94615000Y-69850000D03*
X94615000Y-74930000D03*
X92075000Y-69850000D03*
X92075000Y-74930000D03*
X89535000Y-69850000D03*
X89535000Y-74930000D03*
X86995000Y-69850000D03*
X86995000Y-74930000D03*
X84455000Y-69850000D03*
X84455000Y-74930000D03*
X81915000Y-69850000D03*
X81915000Y-74930000D03*
X79375000Y-69850000D03*
X79375000Y-74930000D03*
X76835000Y-69850000D03*
X76835000Y-74930000D03*
X97155000Y-62230000D03*
X97155000Y-57150000D03*
X94615000Y-62230000D03*
X94615000Y-57150000D03*
X92075000Y-62230000D03*
X92075000Y-57150000D03*
X89535000Y-62230000D03*
X89535000Y-57150000D03*
X81915000Y-62230000D03*
X81915000Y-57150000D03*
X79375000Y-62230000D03*
X79375000Y-57150000D03*
X76835000Y-62230000D03*
X76835000Y-57150000D03*
X169436051Y-73551051D03*
X165843949Y-69958949D03*
D12*
X173355000Y-63500000D03*
X173355000Y-66040000D03*
X173355000Y-68580000D03*
X173355000Y-71120000D03*
X173355000Y-73660000D03*
X173355000Y-76200000D03*
D21*
X173355000Y-58420000D03*
D22*
X173355000Y-55880000D03*
D21*
X71755000Y-58420000D03*
D22*
X71755000Y-55880000D03*
D23*
X126365000Y-57150000D03*
D11*
X108585000Y-64770000D03*
X123825000Y-57150000D03*
X111125000Y-64770000D03*
X121285000Y-57150000D03*
X113665000Y-64770000D03*
X118745000Y-57150000D03*
X116205000Y-64770000D03*
X116205000Y-57150000D03*
X118745000Y-64770000D03*
X113665000Y-57150000D03*
X121285000Y-64770000D03*
X111125000Y-57150000D03*
X123825000Y-64770000D03*
X108585000Y-57150000D03*
X126365000Y-64770000D03*
D23*
X126365000Y-67310000D03*
D11*
X108585000Y-74930000D03*
X123825000Y-67310000D03*
X111125000Y-74930000D03*
X121285000Y-67310000D03*
X113665000Y-74930000D03*
X118745000Y-67310000D03*
X116205000Y-74930000D03*
X116205000Y-67310000D03*
X118745000Y-74930000D03*
X113665000Y-67310000D03*
X121285000Y-74930000D03*
X111125000Y-67310000D03*
X123825000Y-74930000D03*
X108585000Y-67310000D03*
X126365000Y-74930000D03*
D12*
X168275000Y-68580000D03*
X168275000Y-66040000D03*
X168275000Y-63500000D03*
X168275000Y-60960000D03*
X173355000Y-60960000D03*
X71755000Y-60960000D03*
D24*
X257175000Y-75565000D03*
X224155000Y-74930000D03*
X295275000Y-74930000D03*
X330835000Y-74930000D03*
X259715000Y-74930000D03*
X189230000Y-74930000D03*
X226695000Y-74295000D03*
X297815000Y-74295000D03*
X333375000Y-74295000D03*
X262255000Y-74295000D03*
X191770000Y-74295000D03*
X229235000Y-73660000D03*
X300355000Y-73660000D03*
X335915000Y-73660000D03*
X264795000Y-73660000D03*
X194310000Y-73660000D03*
X231775000Y-73025000D03*
X302895000Y-73025000D03*
X338455000Y-73025000D03*
X267335000Y-73025000D03*
X196850000Y-73025000D03*
X234315000Y-72390000D03*
X305435000Y-72390000D03*
X340995000Y-72390000D03*
X269875000Y-72390000D03*
X199390000Y-72390000D03*
X236855000Y-71755000D03*
X307975000Y-71755000D03*
X343535000Y-71755000D03*
X272415000Y-71755000D03*
X201930000Y-71755000D03*
X239395000Y-71120000D03*
X310515000Y-71120000D03*
X346075000Y-71120000D03*
X274955000Y-71120000D03*
X204470000Y-71120000D03*
X241935000Y-70485000D03*
X313055000Y-70485000D03*
X348615000Y-70485000D03*
X277495000Y-70485000D03*
X207010000Y-70485000D03*
X292735000Y-56515000D03*
X328295000Y-56515000D03*
X221615000Y-56515000D03*
X257175000Y-56515000D03*
X295275000Y-57150000D03*
X330835000Y-57150000D03*
X224155000Y-57150000D03*
X259715000Y-57150000D03*
X189230000Y-57150000D03*
X297815000Y-57785000D03*
X333375000Y-57785000D03*
X226695000Y-57785000D03*
X262255000Y-57785000D03*
X191770000Y-57785000D03*
X300355000Y-58420000D03*
X335915000Y-58420000D03*
X229235000Y-58420000D03*
X264795000Y-58420000D03*
X194310000Y-58420000D03*
X307975000Y-59055000D03*
X343535000Y-59055000D03*
X236855000Y-59055000D03*
X272415000Y-59055000D03*
X201930000Y-59055000D03*
X310515000Y-59690000D03*
X346075000Y-59690000D03*
X254635000Y-59690000D03*
X274955000Y-59690000D03*
X204470000Y-59690000D03*
X313055000Y-60325000D03*
X348615000Y-60325000D03*
X255905000Y-60325000D03*
X277495000Y-60325000D03*
X207010000Y-60325000D03*
X99695000Y-73660000D03*
X155575000Y-71755000D03*
X156845000Y-69850000D03*
X102870000Y-73025000D03*
X152400000Y-73025000D03*
X153670000Y-69850000D03*
X95250000Y-60960000D03*
X141605000Y-60325000D03*
X140970000Y-62865000D03*
X140335000Y-74930000D03*
X122555000Y-59055000D03*
X128905000Y-64135000D03*
X106045000Y-68580000D03*
X114935000Y-68580000D03*
X115570000Y-69215000D03*
X105410000Y-69215000D03*
X139065000Y-74295000D03*
X137795000Y-66040000D03*
X158115000Y-74295000D03*
X139700000Y-73660000D03*
X99060000Y-61595000D03*
X130810000Y-67945000D03*
X152400000Y-69850000D03*
X132080000Y-59055000D03*
X128905000Y-60325000D03*
X132715000Y-59690000D03*
X129540000Y-60960000D03*
X154940000Y-69850000D03*
X154305000Y-72390000D03*
X100965000Y-72390000D03*
X156845000Y-71120000D03*
X158750000Y-68580000D03*
X129540000Y-59690000D03*
X131445000Y-58420000D03*
X302260000Y-60960000D03*
X151130000Y-60960000D03*
X140335000Y-61595000D03*
X137795000Y-62230000D03*
X138430000Y-60960000D03*
X135255000Y-62865000D03*
X135890000Y-60960000D03*
D25*
X108585000Y-66040000D02*
X108585000Y-67310000D01*
X108585000Y-66040000D02*
X107632500Y-66992500D01*
X107632500Y-66992500D02*
X107315000Y-66675000D01*
X108585000Y-66040000D02*
X106680000Y-66040000D01*
X164465000Y-77470000D02*
X99060000Y-77470000D01*
X69850000Y-60325000D02*
X71755000Y-58420000D01*
X69850000Y-76835000D02*
X69850000Y-60325000D01*
X71120000Y-78105000D02*
X69850000Y-76835000D01*
X98425000Y-78105000D02*
X71120000Y-78105000D01*
X99060000Y-77470000D02*
X98425000Y-78105000D01*
X148590000Y-64770000D02*
X146685000Y-62865000D01*
X146685000Y-57785000D02*
X146050000Y-57150000D01*
X146685000Y-62865000D02*
X146685000Y-57785000D01*
X116205000Y-55880000D02*
X115570000Y-55245000D01*
X108585000Y-57150000D02*
X106680000Y-57150000D01*
X108585000Y-57150000D02*
X108585000Y-55245000D01*
X108585000Y-57150000D02*
X106680000Y-55245000D01*
X106680000Y-55245000D02*
X107315000Y-55245000D01*
X171450000Y-59055000D02*
X172085000Y-58420000D01*
X171450000Y-64135000D02*
X171450000Y-62230000D01*
X163195000Y-76200000D02*
X164465000Y-77470000D01*
X171450000Y-64135000D02*
X172085000Y-63500000D01*
X171450000Y-76835000D02*
X171450000Y-64135000D01*
X170815000Y-77470000D02*
X171450000Y-76835000D01*
X164465000Y-77470000D02*
X170815000Y-77470000D01*
X172085000Y-63500000D02*
X173355000Y-63500000D01*
X108585000Y-67310000D02*
X107950000Y-67310000D01*
X107950000Y-67310000D02*
X107315000Y-66675000D01*
X107315000Y-66675000D02*
X106680000Y-66040000D01*
X106680000Y-66040000D02*
X106680000Y-57150000D01*
X106680000Y-57150000D02*
X106680000Y-55245000D01*
X173355000Y-63500000D02*
X172085000Y-63500000D01*
X171450000Y-62865000D02*
X171450000Y-62230000D01*
X172085000Y-63500000D02*
X171450000Y-62865000D01*
X171450000Y-62230000D02*
X171450000Y-59055000D01*
X171450000Y-59055000D02*
X171450000Y-57785000D01*
X116840000Y-55245000D02*
X115570000Y-55245000D01*
X115570000Y-55245000D02*
X108585000Y-55245000D01*
X108585000Y-55245000D02*
X107315000Y-55245000D01*
X107315000Y-55245000D02*
X106680000Y-55245000D01*
X106680000Y-55245000D02*
X76835000Y-55245000D01*
X76835000Y-55245000D02*
X73660000Y-58420000D01*
X73660000Y-58420000D02*
X71755000Y-58420000D01*
X120015000Y-55245000D02*
X118110000Y-55245000D01*
X118745000Y-55880000D02*
X118110000Y-55245000D01*
X116205000Y-55880000D02*
X116205000Y-57150000D01*
X118110000Y-55245000D02*
X116840000Y-55245000D01*
X116840000Y-55245000D02*
X116205000Y-55880000D01*
X146050000Y-57150000D02*
X146050000Y-55880000D01*
X146050000Y-55880000D02*
X145415000Y-55245000D01*
X118745000Y-55880000D02*
X118745000Y-57150000D01*
X119380000Y-55245000D02*
X118745000Y-55880000D01*
X145415000Y-55245000D02*
X120015000Y-55245000D01*
X120015000Y-55245000D02*
X119380000Y-55245000D01*
X150455000Y-67310000D02*
X150455000Y-66635000D01*
X150455000Y-66635000D02*
X148590000Y-64770000D01*
X146010000Y-67310000D02*
X146050000Y-67310000D01*
X146050000Y-67310000D02*
X148590000Y-64770000D01*
X172085000Y-58420000D02*
X173355000Y-58420000D01*
X171450000Y-57785000D02*
X172085000Y-58420000D01*
X171450000Y-56515000D02*
X171450000Y-57785000D01*
X170180000Y-55245000D02*
X171450000Y-56515000D01*
X146685000Y-55245000D02*
X170180000Y-55245000D01*
X146050000Y-55880000D02*
X146685000Y-55245000D01*
X113665000Y-57150000D02*
X114935000Y-58420000D01*
X114935000Y-58420000D02*
X120015000Y-58420000D01*
X120015000Y-58420000D02*
X126365000Y-64770000D01*
D26*
X167005000Y-76200000D02*
X167005000Y-75982102D01*
X167005000Y-75982102D02*
X169436051Y-73551051D01*
X160655000Y-76200000D02*
X161925000Y-74930000D01*
X161925000Y-74930000D02*
X165735000Y-74930000D01*
X165735000Y-74930000D02*
X167005000Y-76200000D01*
X163830000Y-57150000D02*
X162560000Y-58420000D01*
X161925000Y-66675000D02*
X161925000Y-74930000D01*
X162560000Y-66040000D02*
X161925000Y-66675000D01*
X162560000Y-58420000D02*
X162560000Y-66040000D01*
X221615000Y-77040000D02*
X221615000Y-75565000D01*
X292735000Y-77040000D02*
X292735000Y-75565000D01*
X328295000Y-77040000D02*
X328295000Y-75565000D01*
X361950000Y-75565000D02*
X328295000Y-75565000D01*
X328295000Y-75565000D02*
X292735000Y-75565000D01*
X292735000Y-75565000D02*
X257175000Y-75565000D01*
X257175000Y-75565000D02*
X221615000Y-75565000D01*
X221615000Y-75565000D02*
X186690000Y-75565000D01*
X363220000Y-75565000D02*
X361950000Y-75565000D01*
X363855000Y-76200000D02*
X363220000Y-75565000D01*
X186690000Y-75565000D02*
X186055000Y-76200000D01*
X186055000Y-76200000D02*
X186055000Y-77040000D01*
X363855000Y-77040000D02*
X363855000Y-76200000D01*
X361950000Y-74930000D02*
X330835000Y-74930000D01*
X330835000Y-74930000D02*
X295275000Y-74930000D01*
X295275000Y-74930000D02*
X259715000Y-74930000D01*
X259715000Y-74930000D02*
X224155000Y-74930000D01*
X224155000Y-74930000D02*
X189230000Y-74930000D01*
X366395000Y-75565000D02*
X365760000Y-74930000D01*
X365760000Y-74930000D02*
X361950000Y-74930000D01*
X366395000Y-77040000D02*
X366395000Y-75565000D01*
X361950000Y-74295000D02*
X333375000Y-74295000D01*
X333375000Y-74295000D02*
X297815000Y-74295000D01*
X297815000Y-74295000D02*
X262255000Y-74295000D01*
X262255000Y-74295000D02*
X226695000Y-74295000D01*
X226695000Y-74295000D02*
X191770000Y-74295000D01*
X368935000Y-74930000D02*
X368300000Y-74295000D01*
X368300000Y-74295000D02*
X361950000Y-74295000D01*
X368935000Y-77040000D02*
X368935000Y-74930000D01*
X361950000Y-73660000D02*
X335915000Y-73660000D01*
X335915000Y-73660000D02*
X300355000Y-73660000D01*
X300355000Y-73660000D02*
X264795000Y-73660000D01*
X264795000Y-73660000D02*
X229235000Y-73660000D01*
X229235000Y-73660000D02*
X194310000Y-73660000D01*
X371475000Y-74295000D02*
X370840000Y-73660000D01*
X370840000Y-73660000D02*
X361950000Y-73660000D01*
X371475000Y-77040000D02*
X371475000Y-74295000D01*
X361950000Y-73025000D02*
X338455000Y-73025000D01*
X338455000Y-73025000D02*
X302895000Y-73025000D01*
X302895000Y-73025000D02*
X267335000Y-73025000D01*
X267335000Y-73025000D02*
X231775000Y-73025000D01*
X231775000Y-73025000D02*
X196850000Y-73025000D01*
X374015000Y-73660000D02*
X373380000Y-73025000D01*
X373380000Y-73025000D02*
X361950000Y-73025000D01*
X374015000Y-77040000D02*
X374015000Y-73660000D01*
X361950000Y-72390000D02*
X340995000Y-72390000D01*
X340995000Y-72390000D02*
X305435000Y-72390000D01*
X305435000Y-72390000D02*
X269875000Y-72390000D01*
X269875000Y-72390000D02*
X234315000Y-72390000D01*
X234315000Y-72390000D02*
X199390000Y-72390000D01*
X376555000Y-73025000D02*
X375920000Y-72390000D01*
X375920000Y-72390000D02*
X361950000Y-72390000D01*
X376555000Y-77040000D02*
X376555000Y-73025000D01*
X361950000Y-71755000D02*
X343535000Y-71755000D01*
X343535000Y-71755000D02*
X307975000Y-71755000D01*
X307975000Y-71755000D02*
X272415000Y-71755000D01*
X272415000Y-71755000D02*
X236855000Y-71755000D01*
X236855000Y-71755000D02*
X201930000Y-71755000D01*
X379095000Y-72390000D02*
X378460000Y-71755000D01*
X378460000Y-71755000D02*
X361950000Y-71755000D01*
X379095000Y-77040000D02*
X379095000Y-72390000D01*
X361950000Y-71120000D02*
X346075000Y-71120000D01*
X346075000Y-71120000D02*
X310515000Y-71120000D01*
X310515000Y-71120000D02*
X274955000Y-71120000D01*
X274955000Y-71120000D02*
X239395000Y-71120000D01*
X239395000Y-71120000D02*
X204470000Y-71120000D01*
X381635000Y-71755000D02*
X381000000Y-71120000D01*
X381000000Y-71120000D02*
X361950000Y-71120000D01*
X381635000Y-77040000D02*
X381635000Y-71755000D01*
X361950000Y-70485000D02*
X348615000Y-70485000D01*
X348615000Y-70485000D02*
X313055000Y-70485000D01*
X313055000Y-70485000D02*
X277495000Y-70485000D01*
X277495000Y-70485000D02*
X241935000Y-70485000D01*
X241935000Y-70485000D02*
X207010000Y-70485000D01*
X384175000Y-71120000D02*
X383540000Y-70485000D01*
X383540000Y-70485000D02*
X361950000Y-70485000D01*
X384175000Y-77040000D02*
X384175000Y-71120000D01*
X363855000Y-55040000D02*
X363855000Y-55880000D01*
X363855000Y-55880000D02*
X363220000Y-56515000D01*
X363220000Y-56515000D02*
X328295000Y-56515000D01*
X328295000Y-56515000D02*
X292735000Y-56515000D01*
X292735000Y-56515000D02*
X257175000Y-56515000D01*
X257175000Y-56515000D02*
X221615000Y-56515000D01*
X221615000Y-56515000D02*
X186690000Y-56515000D01*
X186690000Y-56515000D02*
X186055000Y-55880000D01*
X186055000Y-55880000D02*
X186055000Y-55040000D01*
X366395000Y-55040000D02*
X366395000Y-56515000D01*
X365760000Y-57150000D02*
X330835000Y-57150000D01*
X330835000Y-57150000D02*
X295275000Y-57150000D01*
X295275000Y-57150000D02*
X259715000Y-57150000D01*
X259715000Y-57150000D02*
X224155000Y-57150000D01*
X224155000Y-57150000D02*
X189230000Y-57150000D01*
X366395000Y-56515000D02*
X365760000Y-57150000D01*
X368935000Y-55040000D02*
X368935000Y-57150000D01*
X368300000Y-57785000D02*
X333375000Y-57785000D01*
X333375000Y-57785000D02*
X297815000Y-57785000D01*
X297815000Y-57785000D02*
X262255000Y-57785000D01*
X262255000Y-57785000D02*
X226695000Y-57785000D01*
X226695000Y-57785000D02*
X191770000Y-57785000D01*
X368935000Y-57150000D02*
X368300000Y-57785000D01*
X371475000Y-55040000D02*
X371475000Y-57785000D01*
X370840000Y-58420000D02*
X335915000Y-58420000D01*
X335915000Y-58420000D02*
X300355000Y-58420000D01*
X300355000Y-58420000D02*
X264795000Y-58420000D01*
X264795000Y-58420000D02*
X229235000Y-58420000D01*
X229235000Y-58420000D02*
X194310000Y-58420000D01*
X371475000Y-57785000D02*
X370840000Y-58420000D01*
X343535000Y-59055000D02*
X344170000Y-59055000D01*
X344170000Y-59055000D02*
X343535000Y-59055000D01*
X379095000Y-55040000D02*
X379095000Y-58420000D01*
X378460000Y-59055000D02*
X343535000Y-59055000D01*
X343535000Y-59055000D02*
X307975000Y-59055000D01*
X307975000Y-59055000D02*
X272415000Y-59055000D01*
X272415000Y-59055000D02*
X236855000Y-59055000D01*
X236855000Y-59055000D02*
X201930000Y-59055000D01*
X379095000Y-58420000D02*
X378460000Y-59055000D01*
X381635000Y-55040000D02*
X381635000Y-59055000D01*
X381000000Y-59690000D02*
X346075000Y-59690000D01*
X346075000Y-59690000D02*
X310515000Y-59690000D01*
X310515000Y-59690000D02*
X274955000Y-59690000D01*
X274955000Y-59690000D02*
X254635000Y-59690000D01*
X254635000Y-59690000D02*
X204470000Y-59690000D01*
X381635000Y-59055000D02*
X381000000Y-59690000D01*
X384175000Y-55040000D02*
X384175000Y-59690000D01*
X383540000Y-60325000D02*
X348615000Y-60325000D01*
X348615000Y-60325000D02*
X313055000Y-60325000D01*
X313055000Y-60325000D02*
X277495000Y-60325000D01*
X277495000Y-60325000D02*
X255905000Y-60325000D01*
X255905000Y-60325000D02*
X207010000Y-60325000D01*
X384175000Y-59690000D02*
X383540000Y-60325000D01*
X99695000Y-73660000D02*
X99695000Y-72390000D01*
X99695000Y-72390000D02*
X100330000Y-71755000D01*
X100330000Y-71755000D02*
X155575000Y-71755000D01*
X156845000Y-69850000D02*
X157480000Y-69215000D01*
X157480000Y-69215000D02*
X157480000Y-58420000D01*
X157480000Y-58420000D02*
X156210000Y-57150000D01*
X102870000Y-73025000D02*
X152400000Y-73025000D01*
X153670000Y-69850000D02*
X154940000Y-68580000D01*
X154940000Y-68580000D02*
X154940000Y-58420000D01*
X154940000Y-58420000D02*
X153670000Y-57150000D01*
X143510000Y-57150000D02*
X143510000Y-58420000D01*
X94615000Y-60325000D02*
X94615000Y-57150000D01*
X95250000Y-60960000D02*
X94615000Y-60325000D01*
X143510000Y-58420000D02*
X141605000Y-60325000D01*
X89535000Y-74930000D02*
X88265000Y-73660000D01*
X140970000Y-62865000D02*
X140970000Y-57150000D01*
X128270000Y-74930000D02*
X140335000Y-74930000D01*
X127000000Y-76200000D02*
X128270000Y-74930000D01*
X113665000Y-76200000D02*
X127000000Y-76200000D01*
X113030000Y-76835000D02*
X113665000Y-76200000D01*
X98425000Y-76835000D02*
X113030000Y-76835000D01*
X97790000Y-77470000D02*
X98425000Y-76835000D01*
X83820000Y-77470000D02*
X97790000Y-77470000D01*
X83185000Y-76835000D02*
X83820000Y-77470000D01*
X83185000Y-74295000D02*
X83185000Y-76835000D01*
X83820000Y-73660000D02*
X83185000Y-74295000D01*
X88265000Y-73660000D02*
X83820000Y-73660000D01*
X127635000Y-64135000D02*
X128905000Y-64135000D01*
X122555000Y-59055000D02*
X127635000Y-64135000D01*
X133350000Y-65405000D02*
X132715000Y-66040000D01*
X128905000Y-66040000D02*
X132715000Y-66040000D01*
X128270000Y-66675000D02*
X128905000Y-66040000D01*
X128270000Y-67945000D02*
X128270000Y-66675000D01*
X127635000Y-68580000D02*
X128270000Y-67945000D01*
X114935000Y-68580000D02*
X127635000Y-68580000D01*
X100330000Y-68580000D02*
X106045000Y-68580000D01*
X97790000Y-71120000D02*
X100330000Y-68580000D01*
X92710000Y-71120000D02*
X97790000Y-71120000D01*
X92075000Y-71755000D02*
X92710000Y-71120000D01*
X92075000Y-71755000D02*
X92075000Y-74930000D01*
X133350000Y-65405000D02*
X133350000Y-64770000D01*
X94615000Y-72390000D02*
X95250000Y-71755000D01*
X95250000Y-71755000D02*
X97790000Y-71755000D01*
X97790000Y-71755000D02*
X100330000Y-69215000D01*
X115570000Y-69215000D02*
X127635000Y-69215000D01*
X100330000Y-69215000D02*
X105410000Y-69215000D01*
X127635000Y-69215000D02*
X128905000Y-67945000D01*
X128905000Y-67945000D02*
X128905000Y-67310000D01*
X128905000Y-67310000D02*
X129540000Y-66675000D01*
X129540000Y-66675000D02*
X135255000Y-66675000D01*
X135255000Y-66675000D02*
X135890000Y-66040000D01*
X135890000Y-64770000D02*
X135890000Y-66040000D01*
X94615000Y-72390000D02*
X94615000Y-74930000D01*
X136525000Y-64770000D02*
X137795000Y-66040000D01*
X139065000Y-74295000D02*
X158115000Y-74295000D01*
X136525000Y-64770000D02*
X135890000Y-64770000D01*
X157480000Y-73660000D02*
X160020000Y-71120000D01*
X139700000Y-73660000D02*
X157480000Y-73660000D01*
X160020000Y-71120000D02*
X160655000Y-71120000D01*
X97155000Y-74930000D02*
X97155000Y-73025000D01*
X138430000Y-66675000D02*
X138430000Y-64770000D01*
X137795000Y-67310000D02*
X138430000Y-66675000D01*
X130175000Y-67310000D02*
X137795000Y-67310000D01*
X129540000Y-67945000D02*
X130175000Y-67310000D01*
X127635000Y-69850000D02*
X129540000Y-67945000D01*
X100330000Y-69850000D02*
X127635000Y-69850000D01*
X97155000Y-73025000D02*
X100330000Y-69850000D01*
X140970000Y-64770000D02*
X140970000Y-65405000D01*
X140970000Y-65405000D02*
X138430000Y-67945000D01*
X97155000Y-59690000D02*
X97155000Y-57150000D01*
X99060000Y-61595000D02*
X97155000Y-59690000D01*
X138430000Y-67945000D02*
X130810000Y-67945000D01*
X140970000Y-69215000D02*
X140970000Y-64770000D01*
X141605000Y-69850000D02*
X140970000Y-69215000D01*
X152400000Y-69850000D02*
X141605000Y-69850000D01*
X131445000Y-59055000D02*
X132080000Y-59055000D01*
X130175000Y-60325000D02*
X131445000Y-59055000D01*
X128905000Y-60325000D02*
X130175000Y-60325000D01*
X151130000Y-64135000D02*
X151130000Y-64770000D01*
X132080000Y-59690000D02*
X132715000Y-59690000D01*
X130810000Y-60960000D02*
X132080000Y-59690000D01*
X129540000Y-60960000D02*
X130810000Y-60960000D01*
X153670000Y-65405000D02*
X153670000Y-64770000D01*
X156210000Y-68580000D02*
X156210000Y-64770000D01*
X154940000Y-69850000D02*
X156210000Y-68580000D01*
X100965000Y-72390000D02*
X154305000Y-72390000D01*
X84455000Y-74930000D02*
X85090000Y-74930000D01*
X85090000Y-74930000D02*
X86995000Y-76835000D01*
X86995000Y-76835000D02*
X97790000Y-76835000D01*
X97790000Y-76835000D02*
X99060000Y-75565000D01*
X99060000Y-75565000D02*
X99060000Y-72390000D01*
X99060000Y-72390000D02*
X100330000Y-71120000D01*
X100330000Y-71120000D02*
X156845000Y-71120000D01*
X158750000Y-68580000D02*
X158750000Y-64770000D01*
X86995000Y-74930000D02*
X87630000Y-74930000D01*
X87630000Y-74930000D02*
X88900000Y-76200000D01*
X88900000Y-76200000D02*
X97790000Y-76200000D01*
X97790000Y-76200000D02*
X98425000Y-75565000D01*
X98425000Y-75565000D02*
X98425000Y-72390000D01*
X98425000Y-72390000D02*
X100330000Y-70485000D01*
X100330000Y-70485000D02*
X158115000Y-70485000D01*
X158115000Y-70485000D02*
X159385000Y-69215000D01*
X159385000Y-69215000D02*
X160655000Y-69215000D01*
X160655000Y-69215000D02*
X161290000Y-68580000D01*
X161290000Y-68580000D02*
X161290000Y-64770000D01*
X129540000Y-59690000D02*
X130810000Y-58420000D01*
X130810000Y-58420000D02*
X131445000Y-58420000D01*
D25*
X269875000Y-64770000D02*
X269875000Y-61595000D01*
X269875000Y-61595000D02*
X270510000Y-60960000D01*
X270510000Y-60960000D02*
X302260000Y-60960000D01*
D26*
X151130000Y-57150000D02*
X151130000Y-60960000D01*
X126365000Y-59690000D02*
X126365000Y-57150000D01*
X128270000Y-61595000D02*
X140335000Y-61595000D01*
X126365000Y-59690000D02*
X128270000Y-61595000D01*
X123825000Y-57150000D02*
X123825000Y-57785000D01*
X123825000Y-57785000D02*
X128270000Y-62230000D01*
X128270000Y-62230000D02*
X137795000Y-62230000D01*
X138430000Y-60960000D02*
X138430000Y-57150000D01*
X121285000Y-57150000D02*
X121920000Y-57150000D01*
X121920000Y-57150000D02*
X127635000Y-62865000D01*
X127635000Y-62865000D02*
X135255000Y-62865000D01*
X135890000Y-60960000D02*
X135890000Y-57150000D01*
X97155000Y-62230000D02*
X97155000Y-64770000D01*
X94615000Y-64770000D02*
X94615000Y-62230000D01*
X92075000Y-62230000D02*
X92075000Y-64770000D01*
X89535000Y-64770000D02*
X89535000Y-62230000D01*
X81915000Y-62230000D02*
X81915000Y-64770000D01*
X79375000Y-64770000D02*
X79375000Y-62230000D01*
X76835000Y-62230000D02*
X76835000Y-64770000D01*
D25*
G36*
X175185000Y-55880000D02*
X175198642Y-55948584D01*
X175198642Y-56018514D01*
X175295315Y-56504522D01*
X175330722Y-56590000D01*
X175401329Y-56760462D01*
X175510178Y-56923366D01*
X175315171Y-57118033D01*
X175180154Y-57443190D01*
X175179847Y-57795265D01*
X175272768Y-58020151D01*
X175180154Y-58243190D01*
X175179847Y-58595265D01*
X175272768Y-58820151D01*
X175180154Y-59043190D01*
X175179847Y-59395265D01*
X175314296Y-59720657D01*
X175510079Y-59916782D01*
X175401329Y-60079538D01*
X175359250Y-60181127D01*
X175295315Y-60335478D01*
X175198642Y-60821486D01*
X175198642Y-60891416D01*
X175185000Y-60960000D01*
X175185000Y-71120000D01*
X175198642Y-71188584D01*
X175198642Y-71258514D01*
X175295315Y-71744522D01*
X175351230Y-71879512D01*
X175401329Y-72000462D01*
X175510178Y-72163366D01*
X175315171Y-72358033D01*
X175180154Y-72683190D01*
X175179847Y-73035265D01*
X175272768Y-73260151D01*
X175180154Y-73483190D01*
X175179847Y-73835265D01*
X175272768Y-74060151D01*
X175180154Y-74283190D01*
X175179847Y-74635265D01*
X175314296Y-74960657D01*
X175510079Y-75156782D01*
X175401329Y-75319538D01*
X175359250Y-75421127D01*
X175295315Y-75575478D01*
X175198642Y-76061486D01*
X175198642Y-76131416D01*
X175185000Y-76200000D01*
X175185000Y-78030000D01*
X98207429Y-78030000D01*
X98292894Y-77972894D01*
X98719589Y-77546200D01*
X113030000Y-77546200D01*
X113302165Y-77492063D01*
X113532894Y-77337894D01*
X113959589Y-76911200D01*
X127000000Y-76911200D01*
X127272165Y-76857063D01*
X127502894Y-76702894D01*
X128564589Y-75641200D01*
X139663206Y-75641200D01*
X139780341Y-75758540D01*
X140139630Y-75907730D01*
X140528663Y-75908069D01*
X140888212Y-75759507D01*
X141163540Y-75484659D01*
X141312730Y-75125370D01*
X141312834Y-75006200D01*
X157443206Y-75006200D01*
X157560341Y-75123540D01*
X157919630Y-75272730D01*
X158308663Y-75273069D01*
X158668212Y-75124507D01*
X158943540Y-74849659D01*
X159092730Y-74490370D01*
X159093069Y-74101337D01*
X158944507Y-73741788D01*
X158674489Y-73471299D01*
X159561337Y-72584451D01*
X159583345Y-72588908D01*
X159270474Y-73057152D01*
X159156400Y-73630641D01*
X159156400Y-73689359D01*
X159270474Y-74262848D01*
X159595330Y-74749029D01*
X159866172Y-74930000D01*
X159595330Y-75110971D01*
X159270474Y-75597152D01*
X159156400Y-76170641D01*
X159156400Y-76229359D01*
X159270474Y-76802848D01*
X159595330Y-77289029D01*
X160081511Y-77613885D01*
X160655000Y-77727959D01*
X161228489Y-77613885D01*
X161714670Y-77289029D01*
X161930664Y-76965772D01*
X161988179Y-77088490D01*
X162420053Y-77482688D01*
X162835974Y-77654958D01*
X163068000Y-77533817D01*
X163068000Y-76327000D01*
X163322000Y-76327000D01*
X163322000Y-77533817D01*
X163554026Y-77654958D01*
X163969947Y-77482688D01*
X164401821Y-77088490D01*
X164649968Y-76559027D01*
X164529469Y-76327000D01*
X163322000Y-76327000D01*
X163068000Y-76327000D01*
X163048000Y-76327000D01*
X163048000Y-76073000D01*
X163068000Y-76073000D01*
X163068000Y-76053000D01*
X163322000Y-76053000D01*
X163322000Y-76073000D01*
X164529469Y-76073000D01*
X164649968Y-75840973D01*
X164556339Y-75641200D01*
X165440412Y-75641200D01*
X165707560Y-75908348D01*
X165707560Y-76850000D01*
X165751838Y-77085317D01*
X165890910Y-77301441D01*
X166103110Y-77446431D01*
X166355000Y-77497440D01*
X167655000Y-77497440D01*
X167890317Y-77453162D01*
X168106441Y-77314090D01*
X168251431Y-77101890D01*
X168302440Y-76850000D01*
X168302440Y-76654540D01*
X168414995Y-76926943D01*
X168776155Y-77288735D01*
X169248276Y-77484777D01*
X169759481Y-77485223D01*
X170231943Y-77290005D01*
X170593735Y-76928845D01*
X170789777Y-76456724D01*
X170790223Y-75945519D01*
X170595005Y-75473057D01*
X170233845Y-75111265D01*
X169777198Y-74921648D01*
X170226354Y-74736061D01*
X170619680Y-74343421D01*
X170832808Y-73830151D01*
X170833293Y-73274390D01*
X170621061Y-72760748D01*
X170228421Y-72367422D01*
X169715151Y-72154294D01*
X169159390Y-72153809D01*
X168645748Y-72366041D01*
X168252422Y-72758681D01*
X168039294Y-73271951D01*
X168038809Y-73827712D01*
X168072372Y-73908941D01*
X167078754Y-74902560D01*
X166713348Y-74902560D01*
X166237894Y-74427106D01*
X166007165Y-74272937D01*
X165735000Y-74218800D01*
X164588288Y-74218800D01*
X164693600Y-73689359D01*
X164693600Y-73630641D01*
X164579526Y-73057152D01*
X164254670Y-72570971D01*
X163983828Y-72390000D01*
X164254670Y-72209029D01*
X164579526Y-71722848D01*
X164693600Y-71149359D01*
X164693600Y-71090641D01*
X164594832Y-70594101D01*
X164658939Y-70749252D01*
X165051579Y-71142578D01*
X165564849Y-71355706D01*
X166120610Y-71356191D01*
X166634252Y-71143959D01*
X167027578Y-70751319D01*
X167240706Y-70238049D01*
X167241105Y-69780335D01*
X167516766Y-69964526D01*
X168090255Y-70078600D01*
X168459745Y-70078600D01*
X169033234Y-69964526D01*
X169519415Y-69639670D01*
X169844271Y-69153489D01*
X169958345Y-68580000D01*
X169844271Y-68006511D01*
X169519415Y-67520330D01*
X169204634Y-67310000D01*
X169519415Y-67099670D01*
X169844271Y-66613489D01*
X169958345Y-66040000D01*
X171671655Y-66040000D01*
X171785729Y-66613489D01*
X172110585Y-67099670D01*
X172425366Y-67310000D01*
X172110585Y-67520330D01*
X171785729Y-68006511D01*
X171671655Y-68580000D01*
X171785729Y-69153489D01*
X172110585Y-69639670D01*
X172425366Y-69850000D01*
X172110585Y-70060330D01*
X171785729Y-70546511D01*
X171671655Y-71120000D01*
X171785729Y-71693489D01*
X172110585Y-72179670D01*
X172425366Y-72390000D01*
X172110585Y-72600330D01*
X171785729Y-73086511D01*
X171671655Y-73660000D01*
X171785729Y-74233489D01*
X172110585Y-74719670D01*
X172425366Y-74930000D01*
X172110585Y-75140330D01*
X171785729Y-75626511D01*
X171671655Y-76200000D01*
X171785729Y-76773489D01*
X172110585Y-77259670D01*
X172596766Y-77584526D01*
X173170255Y-77698600D01*
X173539745Y-77698600D01*
X174113234Y-77584526D01*
X174599415Y-77259670D01*
X174924271Y-76773489D01*
X175038345Y-76200000D01*
X174924271Y-75626511D01*
X174599415Y-75140330D01*
X174284634Y-74930000D01*
X174599415Y-74719670D01*
X174924271Y-74233489D01*
X175038345Y-73660000D01*
X174924271Y-73086511D01*
X174599415Y-72600330D01*
X174284634Y-72390000D01*
X174599415Y-72179670D01*
X174924271Y-71693489D01*
X175038345Y-71120000D01*
X174924271Y-70546511D01*
X174599415Y-70060330D01*
X174284634Y-69850000D01*
X174599415Y-69639670D01*
X174924271Y-69153489D01*
X175038345Y-68580000D01*
X174924271Y-68006511D01*
X174599415Y-67520330D01*
X174284634Y-67310000D01*
X174599415Y-67099670D01*
X174924271Y-66613489D01*
X175038345Y-66040000D01*
X174924271Y-65466511D01*
X174599415Y-64980330D01*
X174289931Y-64773539D01*
X174705732Y-64402036D01*
X174959709Y-63874791D01*
X174962358Y-63859026D01*
X174841217Y-63627000D01*
X173482000Y-63627000D01*
X173482000Y-63647000D01*
X173228000Y-63647000D01*
X173228000Y-63627000D01*
X171868783Y-63627000D01*
X171747642Y-63859026D01*
X171750291Y-63874791D01*
X172004268Y-64402036D01*
X172420069Y-64773539D01*
X172110585Y-64980330D01*
X171785729Y-65466511D01*
X171671655Y-66040000D01*
X169958345Y-66040000D01*
X169844271Y-65466511D01*
X169519415Y-64980330D01*
X169204634Y-64770000D01*
X169519415Y-64559670D01*
X169844271Y-64073489D01*
X169958345Y-63500000D01*
X169844271Y-62926511D01*
X169519415Y-62440330D01*
X169204634Y-62230000D01*
X169519415Y-62019670D01*
X169844271Y-61533489D01*
X169958345Y-60960000D01*
X171671655Y-60960000D01*
X171785729Y-61533489D01*
X172110585Y-62019670D01*
X172420069Y-62226461D01*
X172004268Y-62597964D01*
X171750291Y-63125209D01*
X171747642Y-63140974D01*
X171868783Y-63373000D01*
X173228000Y-63373000D01*
X173228000Y-63353000D01*
X173482000Y-63353000D01*
X173482000Y-63373000D01*
X174841217Y-63373000D01*
X174962358Y-63140974D01*
X174959709Y-63125209D01*
X174705732Y-62597964D01*
X174289931Y-62226461D01*
X174599415Y-62019670D01*
X174924271Y-61533489D01*
X175038345Y-60960000D01*
X174924271Y-60386511D01*
X174666599Y-60000878D01*
X174730699Y-59974327D01*
X174909327Y-59795698D01*
X175006000Y-59562309D01*
X175006000Y-58705750D01*
X174847250Y-58547000D01*
X173482000Y-58547000D01*
X173482000Y-58567000D01*
X173228000Y-58567000D01*
X173228000Y-58547000D01*
X171862750Y-58547000D01*
X171704000Y-58705750D01*
X171704000Y-59562309D01*
X171800673Y-59795698D01*
X171979301Y-59974327D01*
X172043401Y-60000878D01*
X171785729Y-60386511D01*
X171671655Y-60960000D01*
X169958345Y-60960000D01*
X169844271Y-60386511D01*
X169519415Y-59900330D01*
X169033234Y-59575474D01*
X168459745Y-59461400D01*
X168090255Y-59461400D01*
X167516766Y-59575474D01*
X167030585Y-59900330D01*
X166705729Y-60386511D01*
X166591655Y-60960000D01*
X166705729Y-61533489D01*
X167030585Y-62019670D01*
X167345366Y-62230000D01*
X167030585Y-62440330D01*
X166705729Y-62926511D01*
X166591655Y-63500000D01*
X166705729Y-64073489D01*
X167030585Y-64559670D01*
X167345366Y-64770000D01*
X167030585Y-64980330D01*
X166705729Y-65466511D01*
X166591655Y-66040000D01*
X166705729Y-66613489D01*
X167030585Y-67099670D01*
X167345366Y-67310000D01*
X167030585Y-67520330D01*
X166705729Y-68006511D01*
X166591655Y-68580000D01*
X166629983Y-68772689D01*
X166123049Y-68562192D01*
X165567288Y-68561707D01*
X165053646Y-68773939D01*
X164660320Y-69166579D01*
X164447192Y-69679849D01*
X164446707Y-70235610D01*
X164536319Y-70452488D01*
X164254670Y-70030971D01*
X163768489Y-69706115D01*
X163195000Y-69592041D01*
X162636200Y-69703193D01*
X162636200Y-66969588D01*
X163062895Y-66542894D01*
X163217063Y-66312164D01*
X163257605Y-66108349D01*
X163280849Y-66123880D01*
X163830000Y-66233113D01*
X164379151Y-66123880D01*
X164844698Y-65812811D01*
X165155767Y-65347264D01*
X165265000Y-64798113D01*
X165265000Y-64741887D01*
X165155767Y-64192736D01*
X164844698Y-63727189D01*
X164379151Y-63416120D01*
X163830000Y-63306887D01*
X163280849Y-63416120D01*
X163271200Y-63422567D01*
X163271200Y-58714588D01*
X163448550Y-58537238D01*
X163830000Y-58613113D01*
X164379151Y-58503880D01*
X164844698Y-58192811D01*
X165155767Y-57727264D01*
X165265000Y-57178113D01*
X165265000Y-57121887D01*
X165155767Y-56572736D01*
X164844698Y-56107189D01*
X164456279Y-55847655D01*
X171704000Y-55847655D01*
X171704000Y-55912345D01*
X171829675Y-56544155D01*
X172030372Y-56844519D01*
X171979301Y-56865673D01*
X171800673Y-57044302D01*
X171704000Y-57277691D01*
X171704000Y-58134250D01*
X171862750Y-58293000D01*
X173228000Y-58293000D01*
X173228000Y-58273000D01*
X173482000Y-58273000D01*
X173482000Y-58293000D01*
X174847250Y-58293000D01*
X175006000Y-58134250D01*
X175006000Y-57277691D01*
X174909327Y-57044302D01*
X174730699Y-56865673D01*
X174679628Y-56844519D01*
X174880325Y-56544155D01*
X175006000Y-55912345D01*
X175006000Y-55847655D01*
X174880325Y-55215845D01*
X174522433Y-54680222D01*
X173986810Y-54322330D01*
X173355000Y-54196655D01*
X172723190Y-54322330D01*
X172187567Y-54680222D01*
X171829675Y-55215845D01*
X171704000Y-55847655D01*
X164456279Y-55847655D01*
X164379151Y-55796120D01*
X163830000Y-55686887D01*
X163280849Y-55796120D01*
X162815302Y-56107189D01*
X162560000Y-56489275D01*
X162304698Y-56107189D01*
X161839151Y-55796120D01*
X161290000Y-55686887D01*
X160740849Y-55796120D01*
X160275302Y-56107189D01*
X160020000Y-56489275D01*
X159764698Y-56107189D01*
X159299151Y-55796120D01*
X158750000Y-55686887D01*
X158200849Y-55796120D01*
X157735302Y-56107189D01*
X157480000Y-56489275D01*
X157224698Y-56107189D01*
X156759151Y-55796120D01*
X156210000Y-55686887D01*
X155660849Y-55796120D01*
X155195302Y-56107189D01*
X154940000Y-56489275D01*
X154684698Y-56107189D01*
X154219151Y-55796120D01*
X153670000Y-55686887D01*
X153120849Y-55796120D01*
X152655302Y-56107189D01*
X152400000Y-56489275D01*
X152144698Y-56107189D01*
X151679151Y-55796120D01*
X151130000Y-55686887D01*
X150580849Y-55796120D01*
X150115302Y-56107189D01*
X149860000Y-56489275D01*
X149604698Y-56107189D01*
X149139151Y-55796120D01*
X148590000Y-55686887D01*
X148040849Y-55796120D01*
X147575302Y-56107189D01*
X147305014Y-56511703D01*
X147202389Y-56294866D01*
X146787423Y-55918959D01*
X146399039Y-55758096D01*
X146177000Y-55880085D01*
X146177000Y-57023000D01*
X146197000Y-57023000D01*
X146197000Y-57277000D01*
X146177000Y-57277000D01*
X146177000Y-58419915D01*
X146399039Y-58541904D01*
X146787423Y-58381041D01*
X147202389Y-58005134D01*
X147305014Y-57788297D01*
X147575302Y-58192811D01*
X148040849Y-58503880D01*
X148590000Y-58613113D01*
X149139151Y-58503880D01*
X149604698Y-58192811D01*
X149860000Y-57810725D01*
X150115302Y-58192811D01*
X150418800Y-58395602D01*
X150418800Y-60288206D01*
X150301460Y-60405341D01*
X150152270Y-60764630D01*
X150151931Y-61153663D01*
X150300493Y-61513212D01*
X150575341Y-61788540D01*
X150934630Y-61937730D01*
X151323663Y-61938069D01*
X151683212Y-61789507D01*
X151958540Y-61514659D01*
X152107730Y-61155370D01*
X152108069Y-60766337D01*
X151959507Y-60406788D01*
X151841200Y-60288274D01*
X151841200Y-58395602D01*
X152144698Y-58192811D01*
X152400000Y-57810725D01*
X152655302Y-58192811D01*
X153120849Y-58503880D01*
X153670000Y-58613113D01*
X154051449Y-58537238D01*
X154228800Y-58714589D01*
X154228800Y-63422567D01*
X154219151Y-63416120D01*
X153670000Y-63306887D01*
X153120849Y-63416120D01*
X152655302Y-63727189D01*
X152400000Y-64109275D01*
X152144698Y-63727189D01*
X151679151Y-63416120D01*
X151130000Y-63306887D01*
X150580849Y-63416120D01*
X150115302Y-63727189D01*
X149845014Y-64131703D01*
X149742389Y-63914866D01*
X149327423Y-63538959D01*
X148939039Y-63378096D01*
X148717000Y-63500085D01*
X148717000Y-64643000D01*
X148737000Y-64643000D01*
X148737000Y-64897000D01*
X148717000Y-64897000D01*
X148717000Y-64917000D01*
X148463000Y-64917000D01*
X148463000Y-64897000D01*
X148443000Y-64897000D01*
X148443000Y-64643000D01*
X148463000Y-64643000D01*
X148463000Y-63500085D01*
X148240961Y-63378096D01*
X147852577Y-63538959D01*
X147437611Y-63914866D01*
X147334986Y-64131703D01*
X147064698Y-63727189D01*
X146599151Y-63416120D01*
X146050000Y-63306887D01*
X145500849Y-63416120D01*
X145035302Y-63727189D01*
X144780000Y-64109275D01*
X144524698Y-63727189D01*
X144059151Y-63416120D01*
X143510000Y-63306887D01*
X142960849Y-63416120D01*
X142495302Y-63727189D01*
X142240000Y-64109275D01*
X141984698Y-63727189D01*
X141688639Y-63529368D01*
X141798540Y-63419659D01*
X141947730Y-63060370D01*
X141948069Y-62671337D01*
X141799507Y-62311788D01*
X141681200Y-62193274D01*
X141681200Y-61302967D01*
X141798663Y-61303069D01*
X142158212Y-61154507D01*
X142433540Y-60879659D01*
X142582730Y-60520370D01*
X142582876Y-60352912D01*
X144012894Y-58922894D01*
X144167063Y-58692165D01*
X144221200Y-58420000D01*
X144221200Y-58395602D01*
X144524698Y-58192811D01*
X144794986Y-57788297D01*
X144897611Y-58005134D01*
X145312577Y-58381041D01*
X145700961Y-58541904D01*
X145923000Y-58419915D01*
X145923000Y-57277000D01*
X145903000Y-57277000D01*
X145903000Y-57023000D01*
X145923000Y-57023000D01*
X145923000Y-55880085D01*
X145700961Y-55758096D01*
X145312577Y-55918959D01*
X144897611Y-56294866D01*
X144794986Y-56511703D01*
X144524698Y-56107189D01*
X144059151Y-55796120D01*
X143510000Y-55686887D01*
X142960849Y-55796120D01*
X142495302Y-56107189D01*
X142240000Y-56489275D01*
X141984698Y-56107189D01*
X141519151Y-55796120D01*
X140970000Y-55686887D01*
X140420849Y-55796120D01*
X139955302Y-56107189D01*
X139700000Y-56489275D01*
X139444698Y-56107189D01*
X138979151Y-55796120D01*
X138430000Y-55686887D01*
X137880849Y-55796120D01*
X137415302Y-56107189D01*
X137160000Y-56489275D01*
X136904698Y-56107189D01*
X136439151Y-55796120D01*
X135890000Y-55686887D01*
X135340849Y-55796120D01*
X134875302Y-56107189D01*
X134620000Y-56489275D01*
X134364698Y-56107189D01*
X133899151Y-55796120D01*
X133350000Y-55686887D01*
X132800849Y-55796120D01*
X132335302Y-56107189D01*
X132080000Y-56489275D01*
X131824698Y-56107189D01*
X131359151Y-55796120D01*
X130810000Y-55686887D01*
X130260849Y-55796120D01*
X129795302Y-56107189D01*
X129484233Y-56572736D01*
X129375000Y-57121887D01*
X129375000Y-57178113D01*
X129484233Y-57727264D01*
X129795302Y-58192811D01*
X129936833Y-58287379D01*
X129512136Y-58712075D01*
X129346337Y-58711931D01*
X128986788Y-58860493D01*
X128711460Y-59135341D01*
X128605429Y-59390691D01*
X128351788Y-59495493D01*
X128076460Y-59770341D01*
X127927270Y-60129630D01*
X127927168Y-60246380D01*
X127076200Y-59395412D01*
X127076200Y-58597440D01*
X127165000Y-58597440D01*
X127400317Y-58553162D01*
X127616441Y-58414090D01*
X127761431Y-58201890D01*
X127812440Y-57950000D01*
X127812440Y-56350000D01*
X127768162Y-56114683D01*
X127629090Y-55898559D01*
X127416890Y-55753569D01*
X127165000Y-55702560D01*
X125565000Y-55702560D01*
X125329683Y-55746838D01*
X125113559Y-55885910D01*
X124968569Y-56098110D01*
X124937185Y-56253089D01*
X124839698Y-56107189D01*
X124374151Y-55796120D01*
X123825000Y-55686887D01*
X123275849Y-55796120D01*
X122810302Y-56107189D01*
X122555000Y-56489275D01*
X122299698Y-56107189D01*
X121834151Y-55796120D01*
X121285000Y-55686887D01*
X120735849Y-55796120D01*
X120270302Y-56107189D01*
X120000014Y-56511703D01*
X119897389Y-56294866D01*
X119482423Y-55918959D01*
X119094039Y-55758096D01*
X118872000Y-55880085D01*
X118872000Y-57023000D01*
X118892000Y-57023000D01*
X118892000Y-57277000D01*
X118872000Y-57277000D01*
X118872000Y-57297000D01*
X118618000Y-57297000D01*
X118618000Y-57277000D01*
X116332000Y-57277000D01*
X116332000Y-57297000D01*
X116078000Y-57297000D01*
X116078000Y-57277000D01*
X116058000Y-57277000D01*
X116058000Y-57023000D01*
X116078000Y-57023000D01*
X116078000Y-55880085D01*
X116332000Y-55880085D01*
X116332000Y-57023000D01*
X118618000Y-57023000D01*
X118618000Y-55880085D01*
X118395961Y-55758096D01*
X118007577Y-55918959D01*
X117592611Y-56294866D01*
X117475000Y-56543367D01*
X117357389Y-56294866D01*
X116942423Y-55918959D01*
X116554039Y-55758096D01*
X116332000Y-55880085D01*
X116078000Y-55880085D01*
X115855961Y-55758096D01*
X115467577Y-55918959D01*
X115052611Y-56294866D01*
X114949986Y-56511703D01*
X114679698Y-56107189D01*
X114214151Y-55796120D01*
X113665000Y-55686887D01*
X113115849Y-55796120D01*
X112650302Y-56107189D01*
X112395000Y-56489275D01*
X112139698Y-56107189D01*
X111674151Y-55796120D01*
X111125000Y-55686887D01*
X110575849Y-55796120D01*
X110110302Y-56107189D01*
X109840014Y-56511703D01*
X109737389Y-56294866D01*
X109322423Y-55918959D01*
X108934039Y-55758096D01*
X108712000Y-55880085D01*
X108712000Y-57023000D01*
X108732000Y-57023000D01*
X108732000Y-57277000D01*
X108712000Y-57277000D01*
X108712000Y-58419915D01*
X108934039Y-58541904D01*
X109322423Y-58381041D01*
X109737389Y-58005134D01*
X109840014Y-57788297D01*
X110110302Y-58192811D01*
X110575849Y-58503880D01*
X111125000Y-58613113D01*
X111674151Y-58503880D01*
X112139698Y-58192811D01*
X112395000Y-57810725D01*
X112650302Y-58192811D01*
X113115849Y-58503880D01*
X113665000Y-58613113D01*
X113986527Y-58549157D01*
X114396184Y-58958815D01*
X114573155Y-59077063D01*
X114643395Y-59123996D01*
X114935000Y-59182000D01*
X119699370Y-59182000D01*
X123824380Y-63307010D01*
X123275849Y-63416120D01*
X122810302Y-63727189D01*
X122555000Y-64109275D01*
X122299698Y-63727189D01*
X121834151Y-63416120D01*
X121285000Y-63306887D01*
X120735849Y-63416120D01*
X120270302Y-63727189D01*
X120015000Y-64109275D01*
X119759698Y-63727189D01*
X119294151Y-63416120D01*
X118745000Y-63306887D01*
X118195849Y-63416120D01*
X117730302Y-63727189D01*
X117475000Y-64109275D01*
X117219698Y-63727189D01*
X116754151Y-63416120D01*
X116205000Y-63306887D01*
X115655849Y-63416120D01*
X115190302Y-63727189D01*
X114935000Y-64109275D01*
X114679698Y-63727189D01*
X114214151Y-63416120D01*
X113665000Y-63306887D01*
X113115849Y-63416120D01*
X112650302Y-63727189D01*
X112395000Y-64109275D01*
X112139698Y-63727189D01*
X111674151Y-63416120D01*
X111125000Y-63306887D01*
X110575849Y-63416120D01*
X110110302Y-63727189D01*
X109855000Y-64109275D01*
X109599698Y-63727189D01*
X109134151Y-63416120D01*
X108585000Y-63306887D01*
X108035849Y-63416120D01*
X107570302Y-63727189D01*
X107259233Y-64192736D01*
X107150000Y-64741887D01*
X107150000Y-64798113D01*
X107259233Y-65347264D01*
X107570302Y-65812811D01*
X107922301Y-66048009D01*
X107847577Y-66078959D01*
X107432611Y-66454866D01*
X107193086Y-66960959D01*
X107314371Y-67183000D01*
X108458000Y-67183000D01*
X108458000Y-67163000D01*
X108712000Y-67163000D01*
X108712000Y-67183000D01*
X108732000Y-67183000D01*
X108732000Y-67437000D01*
X108712000Y-67437000D01*
X108712000Y-68579915D01*
X108934039Y-68701904D01*
X109322423Y-68541041D01*
X109737389Y-68165134D01*
X109840014Y-67948297D01*
X110110302Y-68352811D01*
X110575849Y-68663880D01*
X111125000Y-68773113D01*
X111674151Y-68663880D01*
X112139698Y-68352811D01*
X112395000Y-67970725D01*
X112650302Y-68352811D01*
X113115849Y-68663880D01*
X113665000Y-68773113D01*
X113956982Y-68715034D01*
X113956931Y-68773663D01*
X114105493Y-69133212D01*
X114111071Y-69138800D01*
X106869392Y-69138800D01*
X106873540Y-69134659D01*
X107022730Y-68775370D01*
X107023069Y-68386337D01*
X106874507Y-68026788D01*
X106599659Y-67751460D01*
X106377090Y-67659041D01*
X107193086Y-67659041D01*
X107432611Y-68165134D01*
X107847577Y-68541041D01*
X108235961Y-68701904D01*
X108458000Y-68579915D01*
X108458000Y-67437000D01*
X107314371Y-67437000D01*
X107193086Y-67659041D01*
X106377090Y-67659041D01*
X106240370Y-67602270D01*
X105851337Y-67601931D01*
X105491788Y-67750493D01*
X105373274Y-67868800D01*
X100330000Y-67868800D01*
X100057836Y-67922937D01*
X100002367Y-67960000D01*
X99827105Y-68077106D01*
X98487518Y-69416694D01*
X98340010Y-69059697D01*
X98216694Y-68936166D01*
X98253917Y-68929162D01*
X98470041Y-68790090D01*
X98615031Y-68577890D01*
X98666040Y-68326000D01*
X98666040Y-66294000D01*
X98621762Y-66058683D01*
X98482690Y-65842559D01*
X98377517Y-65770697D01*
X98425000Y-65699634D01*
X98635330Y-66014415D01*
X99121511Y-66339271D01*
X99695000Y-66453345D01*
X100268489Y-66339271D01*
X100754670Y-66014415D01*
X100764243Y-66000087D01*
X100768238Y-66021317D01*
X100907310Y-66237441D01*
X101119510Y-66382431D01*
X101371400Y-66433440D01*
X103098600Y-66433440D01*
X103333917Y-66389162D01*
X103550041Y-66250090D01*
X103695031Y-66037890D01*
X103746040Y-65786000D01*
X103746040Y-63754000D01*
X103701762Y-63518683D01*
X103562690Y-63302559D01*
X103350490Y-63157569D01*
X103098600Y-63106560D01*
X101371400Y-63106560D01*
X101136083Y-63150838D01*
X100919959Y-63289910D01*
X100774969Y-63502110D01*
X100766600Y-63543439D01*
X100754670Y-63525585D01*
X100268489Y-63200729D01*
X99695000Y-63086655D01*
X99121511Y-63200729D01*
X98635330Y-63525585D01*
X98425000Y-63840366D01*
X98214670Y-63525585D01*
X97986955Y-63373431D01*
X98338629Y-63022370D01*
X98551757Y-62509100D01*
X98551815Y-62442838D01*
X98864630Y-62572730D01*
X99253663Y-62573069D01*
X99613212Y-62424507D01*
X99888540Y-62149659D01*
X100037730Y-61790370D01*
X100038069Y-61401337D01*
X99889507Y-61041788D01*
X99614659Y-60766460D01*
X99255370Y-60617270D01*
X99087912Y-60617124D01*
X97866200Y-59395412D01*
X97866200Y-58367695D01*
X97945303Y-58335010D01*
X98338629Y-57942370D01*
X98522715Y-57499041D01*
X107193086Y-57499041D01*
X107432611Y-58005134D01*
X107847577Y-58381041D01*
X108235961Y-58541904D01*
X108458000Y-58419915D01*
X108458000Y-57277000D01*
X107314371Y-57277000D01*
X107193086Y-57499041D01*
X98522715Y-57499041D01*
X98551757Y-57429100D01*
X98552242Y-56873339D01*
X98522336Y-56800959D01*
X107193086Y-56800959D01*
X107314371Y-57023000D01*
X108458000Y-57023000D01*
X108458000Y-55880085D01*
X108235961Y-55758096D01*
X107847577Y-55918959D01*
X107432611Y-56294866D01*
X107193086Y-56800959D01*
X98522336Y-56800959D01*
X98340010Y-56359697D01*
X97947370Y-55966371D01*
X97434100Y-55753243D01*
X96878339Y-55752758D01*
X96364697Y-55964990D01*
X95971371Y-56357630D01*
X95885051Y-56565512D01*
X95800010Y-56359697D01*
X95407370Y-55966371D01*
X94894100Y-55753243D01*
X94338339Y-55752758D01*
X93824697Y-55964990D01*
X93431371Y-56357630D01*
X93345051Y-56565512D01*
X93260010Y-56359697D01*
X92867370Y-55966371D01*
X92354100Y-55753243D01*
X91798339Y-55752758D01*
X91284697Y-55964990D01*
X90891371Y-56357630D01*
X90805051Y-56565512D01*
X90720010Y-56359697D01*
X90327370Y-55966371D01*
X89814100Y-55753243D01*
X89258339Y-55752758D01*
X88744697Y-55964990D01*
X88351371Y-56357630D01*
X88138243Y-56870900D01*
X88137758Y-57426661D01*
X88349990Y-57940303D01*
X88742630Y-58333629D01*
X89255900Y-58546757D01*
X89811661Y-58547242D01*
X90325303Y-58335010D01*
X90718629Y-57942370D01*
X90804949Y-57734488D01*
X90889990Y-57940303D01*
X91282630Y-58333629D01*
X91795900Y-58546757D01*
X92351661Y-58547242D01*
X92865303Y-58335010D01*
X93258629Y-57942370D01*
X93344949Y-57734488D01*
X93429990Y-57940303D01*
X93822630Y-58333629D01*
X93903800Y-58367334D01*
X93903800Y-60325000D01*
X93957937Y-60597165D01*
X94112106Y-60827894D01*
X94181694Y-60897482D01*
X93824697Y-61044990D01*
X93431371Y-61437630D01*
X93345051Y-61645512D01*
X93260010Y-61439697D01*
X92867370Y-61046371D01*
X92354100Y-60833243D01*
X91798339Y-60832758D01*
X91284697Y-61044990D01*
X90891371Y-61437630D01*
X90805051Y-61645512D01*
X90720010Y-61439697D01*
X90327370Y-61046371D01*
X89814100Y-60833243D01*
X89258339Y-60832758D01*
X88744697Y-61044990D01*
X88351371Y-61437630D01*
X88138243Y-61950900D01*
X88137758Y-62506661D01*
X88349990Y-63020303D01*
X88702719Y-63373648D01*
X88475330Y-63525585D01*
X88265000Y-63840366D01*
X88054670Y-63525585D01*
X87568489Y-63200729D01*
X86995000Y-63086655D01*
X86421511Y-63200729D01*
X85935330Y-63525585D01*
X85725000Y-63840366D01*
X85514670Y-63525585D01*
X85028489Y-63200729D01*
X84455000Y-63086655D01*
X83881511Y-63200729D01*
X83395330Y-63525585D01*
X83185000Y-63840366D01*
X82974670Y-63525585D01*
X82746955Y-63373431D01*
X83098629Y-63022370D01*
X83311757Y-62509100D01*
X83312242Y-61953339D01*
X83100010Y-61439697D01*
X82707370Y-61046371D01*
X82194100Y-60833243D01*
X81638339Y-60832758D01*
X81124697Y-61044990D01*
X80731371Y-61437630D01*
X80645051Y-61645512D01*
X80560010Y-61439697D01*
X80167370Y-61046371D01*
X79654100Y-60833243D01*
X79098339Y-60832758D01*
X78584697Y-61044990D01*
X78191371Y-61437630D01*
X78105051Y-61645512D01*
X78020010Y-61439697D01*
X77627370Y-61046371D01*
X77114100Y-60833243D01*
X76558339Y-60832758D01*
X76044697Y-61044990D01*
X75651371Y-61437630D01*
X75438243Y-61950900D01*
X75437758Y-62506661D01*
X75649990Y-63020303D01*
X76002719Y-63373648D01*
X75775330Y-63525585D01*
X75565000Y-63840366D01*
X75354670Y-63525585D01*
X74868489Y-63200729D01*
X74295000Y-63086655D01*
X73721511Y-63200729D01*
X73235330Y-63525585D01*
X73025000Y-63840366D01*
X72814670Y-63525585D01*
X72328489Y-63200729D01*
X71755000Y-63086655D01*
X71181511Y-63200729D01*
X70695330Y-63525585D01*
X70370474Y-64011766D01*
X70256400Y-64585255D01*
X70256400Y-64954745D01*
X70370474Y-65528234D01*
X70695330Y-66014415D01*
X71181511Y-66339271D01*
X71755000Y-66453345D01*
X72328489Y-66339271D01*
X72814670Y-66014415D01*
X73025000Y-65699634D01*
X73235330Y-66014415D01*
X73721511Y-66339271D01*
X74295000Y-66453345D01*
X74868489Y-66339271D01*
X75354670Y-66014415D01*
X75565000Y-65699634D01*
X75775330Y-66014415D01*
X75813621Y-66040000D01*
X75775330Y-66065585D01*
X75450474Y-66551766D01*
X75336400Y-67125255D01*
X75336400Y-67494745D01*
X75450474Y-68068234D01*
X75775330Y-68554415D01*
X76003045Y-68706569D01*
X75651371Y-69057630D01*
X75438243Y-69570900D01*
X75437758Y-70126661D01*
X75649990Y-70640303D01*
X76042630Y-71033629D01*
X76555900Y-71246757D01*
X77111661Y-71247242D01*
X77625303Y-71035010D01*
X78018629Y-70642370D01*
X78104949Y-70434488D01*
X78189990Y-70640303D01*
X78582630Y-71033629D01*
X79095900Y-71246757D01*
X79651661Y-71247242D01*
X80165303Y-71035010D01*
X80558629Y-70642370D01*
X80644949Y-70434488D01*
X80729990Y-70640303D01*
X81122630Y-71033629D01*
X81635900Y-71246757D01*
X82191661Y-71247242D01*
X82705303Y-71035010D01*
X83098629Y-70642370D01*
X83184949Y-70434488D01*
X83269990Y-70640303D01*
X83662630Y-71033629D01*
X84175900Y-71246757D01*
X84731661Y-71247242D01*
X85245303Y-71035010D01*
X85638629Y-70642370D01*
X85724949Y-70434488D01*
X85809990Y-70640303D01*
X86202630Y-71033629D01*
X86715900Y-71246757D01*
X87271661Y-71247242D01*
X87785303Y-71035010D01*
X88178629Y-70642370D01*
X88264949Y-70434488D01*
X88349990Y-70640303D01*
X88742630Y-71033629D01*
X89255900Y-71246757D01*
X89811661Y-71247242D01*
X90325303Y-71035010D01*
X90718629Y-70642370D01*
X90804949Y-70434488D01*
X90889990Y-70640303D01*
X91282630Y-71033629D01*
X91641548Y-71182664D01*
X91572106Y-71252106D01*
X91417937Y-71482835D01*
X91417937Y-71482836D01*
X91363800Y-71755000D01*
X91363800Y-73712305D01*
X91284697Y-73744990D01*
X90891371Y-74137630D01*
X90805051Y-74345512D01*
X90720010Y-74139697D01*
X90327370Y-73746371D01*
X89814100Y-73533243D01*
X89258339Y-73532758D01*
X89177110Y-73566321D01*
X88767894Y-73157106D01*
X88537165Y-73002937D01*
X88265000Y-72948800D01*
X83820000Y-72948800D01*
X83547836Y-73002937D01*
X83317106Y-73157105D01*
X82717597Y-73756615D01*
X82707370Y-73746371D01*
X82194100Y-73533243D01*
X81638339Y-73532758D01*
X81124697Y-73744990D01*
X80731371Y-74137630D01*
X80645051Y-74345512D01*
X80560010Y-74139697D01*
X80167370Y-73746371D01*
X79654100Y-73533243D01*
X79098339Y-73532758D01*
X78584697Y-73744990D01*
X78191371Y-74137630D01*
X78105051Y-74345512D01*
X78020010Y-74139697D01*
X77627370Y-73746371D01*
X77114100Y-73533243D01*
X76558339Y-73532758D01*
X76044697Y-73744990D01*
X75651371Y-74137630D01*
X75438243Y-74650900D01*
X75437758Y-75206661D01*
X75649990Y-75720303D01*
X76042630Y-76113629D01*
X76555900Y-76326757D01*
X77111661Y-76327242D01*
X77625303Y-76115010D01*
X78018629Y-75722370D01*
X78104949Y-75514488D01*
X78189990Y-75720303D01*
X78582630Y-76113629D01*
X79095900Y-76326757D01*
X79651661Y-76327242D01*
X80165303Y-76115010D01*
X80558629Y-75722370D01*
X80644949Y-75514488D01*
X80729990Y-75720303D01*
X81122630Y-76113629D01*
X81635900Y-76326757D01*
X82191661Y-76327242D01*
X82473800Y-76210665D01*
X82473800Y-76835000D01*
X82527937Y-77107165D01*
X82682106Y-77337894D01*
X83317106Y-77972895D01*
X83402570Y-78030000D01*
X69925000Y-78030000D01*
X69925000Y-60960000D01*
X70071655Y-60960000D01*
X70185729Y-61533489D01*
X70510585Y-62019670D01*
X70996766Y-62344526D01*
X71570255Y-62458600D01*
X71939745Y-62458600D01*
X72513234Y-62344526D01*
X72999415Y-62019670D01*
X73324271Y-61533489D01*
X73438345Y-60960000D01*
X73324271Y-60386511D01*
X73066599Y-60000878D01*
X73130699Y-59974327D01*
X73309327Y-59795698D01*
X73406000Y-59562309D01*
X73406000Y-58705750D01*
X73247250Y-58547000D01*
X71882000Y-58547000D01*
X71882000Y-58567000D01*
X71628000Y-58567000D01*
X71628000Y-58547000D01*
X70262750Y-58547000D01*
X70104000Y-58705750D01*
X70104000Y-59562309D01*
X70200673Y-59795698D01*
X70379301Y-59974327D01*
X70443401Y-60000878D01*
X70185729Y-60386511D01*
X70071655Y-60960000D01*
X69925000Y-60960000D01*
X69925000Y-55847655D01*
X70104000Y-55847655D01*
X70104000Y-55912345D01*
X70229675Y-56544155D01*
X70430372Y-56844519D01*
X70379301Y-56865673D01*
X70200673Y-57044302D01*
X70104000Y-57277691D01*
X70104000Y-58134250D01*
X70262750Y-58293000D01*
X71628000Y-58293000D01*
X71628000Y-58273000D01*
X71882000Y-58273000D01*
X71882000Y-58293000D01*
X73247250Y-58293000D01*
X73406000Y-58134250D01*
X73406000Y-57426661D01*
X75437758Y-57426661D01*
X75649990Y-57940303D01*
X76042630Y-58333629D01*
X76555900Y-58546757D01*
X77111661Y-58547242D01*
X77625303Y-58335010D01*
X78018629Y-57942370D01*
X78104949Y-57734488D01*
X78189990Y-57940303D01*
X78582630Y-58333629D01*
X79095900Y-58546757D01*
X79651661Y-58547242D01*
X80165303Y-58335010D01*
X80558629Y-57942370D01*
X80644949Y-57734488D01*
X80729990Y-57940303D01*
X81122630Y-58333629D01*
X81635900Y-58546757D01*
X82191661Y-58547242D01*
X82705303Y-58335010D01*
X83098629Y-57942370D01*
X83311757Y-57429100D01*
X83312242Y-56873339D01*
X83100010Y-56359697D01*
X82707370Y-55966371D01*
X82194100Y-55753243D01*
X81638339Y-55752758D01*
X81124697Y-55964990D01*
X80731371Y-56357630D01*
X80645051Y-56565512D01*
X80560010Y-56359697D01*
X80167370Y-55966371D01*
X79654100Y-55753243D01*
X79098339Y-55752758D01*
X78584697Y-55964990D01*
X78191371Y-56357630D01*
X78105051Y-56565512D01*
X78020010Y-56359697D01*
X77627370Y-55966371D01*
X77114100Y-55753243D01*
X76558339Y-55752758D01*
X76044697Y-55964990D01*
X75651371Y-56357630D01*
X75438243Y-56870900D01*
X75437758Y-57426661D01*
X73406000Y-57426661D01*
X73406000Y-57277691D01*
X73309327Y-57044302D01*
X73130699Y-56865673D01*
X73079628Y-56844519D01*
X73280325Y-56544155D01*
X73406000Y-55912345D01*
X73406000Y-55847655D01*
X73280325Y-55215845D01*
X72922433Y-54680222D01*
X72386810Y-54322330D01*
X71755000Y-54196655D01*
X71123190Y-54322330D01*
X70587567Y-54680222D01*
X70229675Y-55215845D01*
X70104000Y-55847655D01*
X69925000Y-55847655D01*
X69925000Y-54050000D01*
X175185000Y-54050000D01*
X175185000Y-55880000D01*
X175185000Y-55880000D01*
G37*
X175185000Y-55880000D02*
X175198642Y-55948584D01*
X175198642Y-56018514D01*
X175295315Y-56504522D01*
X175330722Y-56590000D01*
X175401329Y-56760462D01*
X175510178Y-56923366D01*
X175315171Y-57118033D01*
X175180154Y-57443190D01*
X175179847Y-57795265D01*
X175272768Y-58020151D01*
X175180154Y-58243190D01*
X175179847Y-58595265D01*
X175272768Y-58820151D01*
X175180154Y-59043190D01*
X175179847Y-59395265D01*
X175314296Y-59720657D01*
X175510079Y-59916782D01*
X175401329Y-60079538D01*
X175359250Y-60181127D01*
X175295315Y-60335478D01*
X175198642Y-60821486D01*
X175198642Y-60891416D01*
X175185000Y-60960000D01*
X175185000Y-71120000D01*
X175198642Y-71188584D01*
X175198642Y-71258514D01*
X175295315Y-71744522D01*
X175351230Y-71879512D01*
X175401329Y-72000462D01*
X175510178Y-72163366D01*
X175315171Y-72358033D01*
X175180154Y-72683190D01*
X175179847Y-73035265D01*
X175272768Y-73260151D01*
X175180154Y-73483190D01*
X175179847Y-73835265D01*
X175272768Y-74060151D01*
X175180154Y-74283190D01*
X175179847Y-74635265D01*
X175314296Y-74960657D01*
X175510079Y-75156782D01*
X175401329Y-75319538D01*
X175359250Y-75421127D01*
X175295315Y-75575478D01*
X175198642Y-76061486D01*
X175198642Y-76131416D01*
X175185000Y-76200000D01*
X175185000Y-78030000D01*
X98207429Y-78030000D01*
X98292894Y-77972894D01*
X98719589Y-77546200D01*
X113030000Y-77546200D01*
X113302165Y-77492063D01*
X113532894Y-77337894D01*
X113959589Y-76911200D01*
X127000000Y-76911200D01*
X127272165Y-76857063D01*
X127502894Y-76702894D01*
X128564589Y-75641200D01*
X139663206Y-75641200D01*
X139780341Y-75758540D01*
X140139630Y-75907730D01*
X140528663Y-75908069D01*
X140888212Y-75759507D01*
X141163540Y-75484659D01*
X141312730Y-75125370D01*
X141312834Y-75006200D01*
X157443206Y-75006200D01*
X157560341Y-75123540D01*
X157919630Y-75272730D01*
X158308663Y-75273069D01*
X158668212Y-75124507D01*
X158943540Y-74849659D01*
X159092730Y-74490370D01*
X159093069Y-74101337D01*
X158944507Y-73741788D01*
X158674489Y-73471299D01*
X159561337Y-72584451D01*
X159583345Y-72588908D01*
X159270474Y-73057152D01*
X159156400Y-73630641D01*
X159156400Y-73689359D01*
X159270474Y-74262848D01*
X159595330Y-74749029D01*
X159866172Y-74930000D01*
X159595330Y-75110971D01*
X159270474Y-75597152D01*
X159156400Y-76170641D01*
X159156400Y-76229359D01*
X159270474Y-76802848D01*
X159595330Y-77289029D01*
X160081511Y-77613885D01*
X160655000Y-77727959D01*
X161228489Y-77613885D01*
X161714670Y-77289029D01*
X161930664Y-76965772D01*
X161988179Y-77088490D01*
X162420053Y-77482688D01*
X162835974Y-77654958D01*
X163068000Y-77533817D01*
X163068000Y-76327000D01*
X163322000Y-76327000D01*
X163322000Y-77533817D01*
X163554026Y-77654958D01*
X163969947Y-77482688D01*
X164401821Y-77088490D01*
X164649968Y-76559027D01*
X164529469Y-76327000D01*
X163322000Y-76327000D01*
X163068000Y-76327000D01*
X163048000Y-76327000D01*
X163048000Y-76073000D01*
X163068000Y-76073000D01*
X163068000Y-76053000D01*
X163322000Y-76053000D01*
X163322000Y-76073000D01*
X164529469Y-76073000D01*
X164649968Y-75840973D01*
X164556339Y-75641200D01*
X165440412Y-75641200D01*
X165707560Y-75908348D01*
X165707560Y-76850000D01*
X165751838Y-77085317D01*
X165890910Y-77301441D01*
X166103110Y-77446431D01*
X166355000Y-77497440D01*
X167655000Y-77497440D01*
X167890317Y-77453162D01*
X168106441Y-77314090D01*
X168251431Y-77101890D01*
X168302440Y-76850000D01*
X168302440Y-76654540D01*
X168414995Y-76926943D01*
X168776155Y-77288735D01*
X169248276Y-77484777D01*
X169759481Y-77485223D01*
X170231943Y-77290005D01*
X170593735Y-76928845D01*
X170789777Y-76456724D01*
X170790223Y-75945519D01*
X170595005Y-75473057D01*
X170233845Y-75111265D01*
X169777198Y-74921648D01*
X170226354Y-74736061D01*
X170619680Y-74343421D01*
X170832808Y-73830151D01*
X170833293Y-73274390D01*
X170621061Y-72760748D01*
X170228421Y-72367422D01*
X169715151Y-72154294D01*
X169159390Y-72153809D01*
X168645748Y-72366041D01*
X168252422Y-72758681D01*
X168039294Y-73271951D01*
X168038809Y-73827712D01*
X168072372Y-73908941D01*
X167078754Y-74902560D01*
X166713348Y-74902560D01*
X166237894Y-74427106D01*
X166007165Y-74272937D01*
X165735000Y-74218800D01*
X164588288Y-74218800D01*
X164693600Y-73689359D01*
X164693600Y-73630641D01*
X164579526Y-73057152D01*
X164254670Y-72570971D01*
X163983828Y-72390000D01*
X164254670Y-72209029D01*
X164579526Y-71722848D01*
X164693600Y-71149359D01*
X164693600Y-71090641D01*
X164594832Y-70594101D01*
X164658939Y-70749252D01*
X165051579Y-71142578D01*
X165564849Y-71355706D01*
X166120610Y-71356191D01*
X166634252Y-71143959D01*
X167027578Y-70751319D01*
X167240706Y-70238049D01*
X167241105Y-69780335D01*
X167516766Y-69964526D01*
X168090255Y-70078600D01*
X168459745Y-70078600D01*
X169033234Y-69964526D01*
X169519415Y-69639670D01*
X169844271Y-69153489D01*
X169958345Y-68580000D01*
X169844271Y-68006511D01*
X169519415Y-67520330D01*
X169204634Y-67310000D01*
X169519415Y-67099670D01*
X169844271Y-66613489D01*
X169958345Y-66040000D01*
X171671655Y-66040000D01*
X171785729Y-66613489D01*
X172110585Y-67099670D01*
X172425366Y-67310000D01*
X172110585Y-67520330D01*
X171785729Y-68006511D01*
X171671655Y-68580000D01*
X171785729Y-69153489D01*
X172110585Y-69639670D01*
X172425366Y-69850000D01*
X172110585Y-70060330D01*
X171785729Y-70546511D01*
X171671655Y-71120000D01*
X171785729Y-71693489D01*
X172110585Y-72179670D01*
X172425366Y-72390000D01*
X172110585Y-72600330D01*
X171785729Y-73086511D01*
X171671655Y-73660000D01*
X171785729Y-74233489D01*
X172110585Y-74719670D01*
X172425366Y-74930000D01*
X172110585Y-75140330D01*
X171785729Y-75626511D01*
X171671655Y-76200000D01*
X171785729Y-76773489D01*
X172110585Y-77259670D01*
X172596766Y-77584526D01*
X173170255Y-77698600D01*
X173539745Y-77698600D01*
X174113234Y-77584526D01*
X174599415Y-77259670D01*
X174924271Y-76773489D01*
X175038345Y-76200000D01*
X174924271Y-75626511D01*
X174599415Y-75140330D01*
X174284634Y-74930000D01*
X174599415Y-74719670D01*
X174924271Y-74233489D01*
X175038345Y-73660000D01*
X174924271Y-73086511D01*
X174599415Y-72600330D01*
X174284634Y-72390000D01*
X174599415Y-72179670D01*
X174924271Y-71693489D01*
X175038345Y-71120000D01*
X174924271Y-70546511D01*
X174599415Y-70060330D01*
X174284634Y-69850000D01*
X174599415Y-69639670D01*
X174924271Y-69153489D01*
X175038345Y-68580000D01*
X174924271Y-68006511D01*
X174599415Y-67520330D01*
X174284634Y-67310000D01*
X174599415Y-67099670D01*
X174924271Y-66613489D01*
X175038345Y-66040000D01*
X174924271Y-65466511D01*
X174599415Y-64980330D01*
X174289931Y-64773539D01*
X174705732Y-64402036D01*
X174959709Y-63874791D01*
X174962358Y-63859026D01*
X174841217Y-63627000D01*
X173482000Y-63627000D01*
X173482000Y-63647000D01*
X173228000Y-63647000D01*
X173228000Y-63627000D01*
X171868783Y-63627000D01*
X171747642Y-63859026D01*
X171750291Y-63874791D01*
X172004268Y-64402036D01*
X172420069Y-64773539D01*
X172110585Y-64980330D01*
X171785729Y-65466511D01*
X171671655Y-66040000D01*
X169958345Y-66040000D01*
X169844271Y-65466511D01*
X169519415Y-64980330D01*
X169204634Y-64770000D01*
X169519415Y-64559670D01*
X169844271Y-64073489D01*
X169958345Y-63500000D01*
X169844271Y-62926511D01*
X169519415Y-62440330D01*
X169204634Y-62230000D01*
X169519415Y-62019670D01*
X169844271Y-61533489D01*
X169958345Y-60960000D01*
X171671655Y-60960000D01*
X171785729Y-61533489D01*
X172110585Y-62019670D01*
X172420069Y-62226461D01*
X172004268Y-62597964D01*
X171750291Y-63125209D01*
X171747642Y-63140974D01*
X171868783Y-63373000D01*
X173228000Y-63373000D01*
X173228000Y-63353000D01*
X173482000Y-63353000D01*
X173482000Y-63373000D01*
X174841217Y-63373000D01*
X174962358Y-63140974D01*
X174959709Y-63125209D01*
X174705732Y-62597964D01*
X174289931Y-62226461D01*
X174599415Y-62019670D01*
X174924271Y-61533489D01*
X175038345Y-60960000D01*
X174924271Y-60386511D01*
X174666599Y-60000878D01*
X174730699Y-59974327D01*
X174909327Y-59795698D01*
X175006000Y-59562309D01*
X175006000Y-58705750D01*
X174847250Y-58547000D01*
X173482000Y-58547000D01*
X173482000Y-58567000D01*
X173228000Y-58567000D01*
X173228000Y-58547000D01*
X171862750Y-58547000D01*
X171704000Y-58705750D01*
X171704000Y-59562309D01*
X171800673Y-59795698D01*
X171979301Y-59974327D01*
X172043401Y-60000878D01*
X171785729Y-60386511D01*
X171671655Y-60960000D01*
X169958345Y-60960000D01*
X169844271Y-60386511D01*
X169519415Y-59900330D01*
X169033234Y-59575474D01*
X168459745Y-59461400D01*
X168090255Y-59461400D01*
X167516766Y-59575474D01*
X167030585Y-59900330D01*
X166705729Y-60386511D01*
X166591655Y-60960000D01*
X166705729Y-61533489D01*
X167030585Y-62019670D01*
X167345366Y-62230000D01*
X167030585Y-62440330D01*
X166705729Y-62926511D01*
X166591655Y-63500000D01*
X166705729Y-64073489D01*
X167030585Y-64559670D01*
X167345366Y-64770000D01*
X167030585Y-64980330D01*
X166705729Y-65466511D01*
X166591655Y-66040000D01*
X166705729Y-66613489D01*
X167030585Y-67099670D01*
X167345366Y-67310000D01*
X167030585Y-67520330D01*
X166705729Y-68006511D01*
X166591655Y-68580000D01*
X166629983Y-68772689D01*
X166123049Y-68562192D01*
X165567288Y-68561707D01*
X165053646Y-68773939D01*
X164660320Y-69166579D01*
X164447192Y-69679849D01*
X164446707Y-70235610D01*
X164536319Y-70452488D01*
X164254670Y-70030971D01*
X163768489Y-69706115D01*
X163195000Y-69592041D01*
X162636200Y-69703193D01*
X162636200Y-66969588D01*
X163062895Y-66542894D01*
X163217063Y-66312164D01*
X163257605Y-66108349D01*
X163280849Y-66123880D01*
X163830000Y-66233113D01*
X164379151Y-66123880D01*
X164844698Y-65812811D01*
X165155767Y-65347264D01*
X165265000Y-64798113D01*
X165265000Y-64741887D01*
X165155767Y-64192736D01*
X164844698Y-63727189D01*
X164379151Y-63416120D01*
X163830000Y-63306887D01*
X163280849Y-63416120D01*
X163271200Y-63422567D01*
X163271200Y-58714588D01*
X163448550Y-58537238D01*
X163830000Y-58613113D01*
X164379151Y-58503880D01*
X164844698Y-58192811D01*
X165155767Y-57727264D01*
X165265000Y-57178113D01*
X165265000Y-57121887D01*
X165155767Y-56572736D01*
X164844698Y-56107189D01*
X164456279Y-55847655D01*
X171704000Y-55847655D01*
X171704000Y-55912345D01*
X171829675Y-56544155D01*
X172030372Y-56844519D01*
X171979301Y-56865673D01*
X171800673Y-57044302D01*
X171704000Y-57277691D01*
X171704000Y-58134250D01*
X171862750Y-58293000D01*
X173228000Y-58293000D01*
X173228000Y-58273000D01*
X173482000Y-58273000D01*
X173482000Y-58293000D01*
X174847250Y-58293000D01*
X175006000Y-58134250D01*
X175006000Y-57277691D01*
X174909327Y-57044302D01*
X174730699Y-56865673D01*
X174679628Y-56844519D01*
X174880325Y-56544155D01*
X175006000Y-55912345D01*
X175006000Y-55847655D01*
X174880325Y-55215845D01*
X174522433Y-54680222D01*
X173986810Y-54322330D01*
X173355000Y-54196655D01*
X172723190Y-54322330D01*
X172187567Y-54680222D01*
X171829675Y-55215845D01*
X171704000Y-55847655D01*
X164456279Y-55847655D01*
X164379151Y-55796120D01*
X163830000Y-55686887D01*
X163280849Y-55796120D01*
X162815302Y-56107189D01*
X162560000Y-56489275D01*
X162304698Y-56107189D01*
X161839151Y-55796120D01*
X161290000Y-55686887D01*
X160740849Y-55796120D01*
X160275302Y-56107189D01*
X160020000Y-56489275D01*
X159764698Y-56107189D01*
X159299151Y-55796120D01*
X158750000Y-55686887D01*
X158200849Y-55796120D01*
X157735302Y-56107189D01*
X157480000Y-56489275D01*
X157224698Y-56107189D01*
X156759151Y-55796120D01*
X156210000Y-55686887D01*
X155660849Y-55796120D01*
X155195302Y-56107189D01*
X154940000Y-56489275D01*
X154684698Y-56107189D01*
X154219151Y-55796120D01*
X153670000Y-55686887D01*
X153120849Y-55796120D01*
X152655302Y-56107189D01*
X152400000Y-56489275D01*
X152144698Y-56107189D01*
X151679151Y-55796120D01*
X151130000Y-55686887D01*
X150580849Y-55796120D01*
X150115302Y-56107189D01*
X149860000Y-56489275D01*
X149604698Y-56107189D01*
X149139151Y-55796120D01*
X148590000Y-55686887D01*
X148040849Y-55796120D01*
X147575302Y-56107189D01*
X147305014Y-56511703D01*
X147202389Y-56294866D01*
X146787423Y-55918959D01*
X146399039Y-55758096D01*
X146177000Y-55880085D01*
X146177000Y-57023000D01*
X146197000Y-57023000D01*
X146197000Y-57277000D01*
X146177000Y-57277000D01*
X146177000Y-58419915D01*
X146399039Y-58541904D01*
X146787423Y-58381041D01*
X147202389Y-58005134D01*
X147305014Y-57788297D01*
X147575302Y-58192811D01*
X148040849Y-58503880D01*
X148590000Y-58613113D01*
X149139151Y-58503880D01*
X149604698Y-58192811D01*
X149860000Y-57810725D01*
X150115302Y-58192811D01*
X150418800Y-58395602D01*
X150418800Y-60288206D01*
X150301460Y-60405341D01*
X150152270Y-60764630D01*
X150151931Y-61153663D01*
X150300493Y-61513212D01*
X150575341Y-61788540D01*
X150934630Y-61937730D01*
X151323663Y-61938069D01*
X151683212Y-61789507D01*
X151958540Y-61514659D01*
X152107730Y-61155370D01*
X152108069Y-60766337D01*
X151959507Y-60406788D01*
X151841200Y-60288274D01*
X151841200Y-58395602D01*
X152144698Y-58192811D01*
X152400000Y-57810725D01*
X152655302Y-58192811D01*
X153120849Y-58503880D01*
X153670000Y-58613113D01*
X154051449Y-58537238D01*
X154228800Y-58714589D01*
X154228800Y-63422567D01*
X154219151Y-63416120D01*
X153670000Y-63306887D01*
X153120849Y-63416120D01*
X152655302Y-63727189D01*
X152400000Y-64109275D01*
X152144698Y-63727189D01*
X151679151Y-63416120D01*
X151130000Y-63306887D01*
X150580849Y-63416120D01*
X150115302Y-63727189D01*
X149845014Y-64131703D01*
X149742389Y-63914866D01*
X149327423Y-63538959D01*
X148939039Y-63378096D01*
X148717000Y-63500085D01*
X148717000Y-64643000D01*
X148737000Y-64643000D01*
X148737000Y-64897000D01*
X148717000Y-64897000D01*
X148717000Y-64917000D01*
X148463000Y-64917000D01*
X148463000Y-64897000D01*
X148443000Y-64897000D01*
X148443000Y-64643000D01*
X148463000Y-64643000D01*
X148463000Y-63500085D01*
X148240961Y-63378096D01*
X147852577Y-63538959D01*
X147437611Y-63914866D01*
X147334986Y-64131703D01*
X147064698Y-63727189D01*
X146599151Y-63416120D01*
X146050000Y-63306887D01*
X145500849Y-63416120D01*
X145035302Y-63727189D01*
X144780000Y-64109275D01*
X144524698Y-63727189D01*
X144059151Y-63416120D01*
X143510000Y-63306887D01*
X142960849Y-63416120D01*
X142495302Y-63727189D01*
X142240000Y-64109275D01*
X141984698Y-63727189D01*
X141688639Y-63529368D01*
X141798540Y-63419659D01*
X141947730Y-63060370D01*
X141948069Y-62671337D01*
X141799507Y-62311788D01*
X141681200Y-62193274D01*
X141681200Y-61302967D01*
X141798663Y-61303069D01*
X142158212Y-61154507D01*
X142433540Y-60879659D01*
X142582730Y-60520370D01*
X142582876Y-60352912D01*
X144012894Y-58922894D01*
X144167063Y-58692165D01*
X144221200Y-58420000D01*
X144221200Y-58395602D01*
X144524698Y-58192811D01*
X144794986Y-57788297D01*
X144897611Y-58005134D01*
X145312577Y-58381041D01*
X145700961Y-58541904D01*
X145923000Y-58419915D01*
X145923000Y-57277000D01*
X145903000Y-57277000D01*
X145903000Y-57023000D01*
X145923000Y-57023000D01*
X145923000Y-55880085D01*
X145700961Y-55758096D01*
X145312577Y-55918959D01*
X144897611Y-56294866D01*
X144794986Y-56511703D01*
X144524698Y-56107189D01*
X144059151Y-55796120D01*
X143510000Y-55686887D01*
X142960849Y-55796120D01*
X142495302Y-56107189D01*
X142240000Y-56489275D01*
X141984698Y-56107189D01*
X141519151Y-55796120D01*
X140970000Y-55686887D01*
X140420849Y-55796120D01*
X139955302Y-56107189D01*
X139700000Y-56489275D01*
X139444698Y-56107189D01*
X138979151Y-55796120D01*
X138430000Y-55686887D01*
X137880849Y-55796120D01*
X137415302Y-56107189D01*
X137160000Y-56489275D01*
X136904698Y-56107189D01*
X136439151Y-55796120D01*
X135890000Y-55686887D01*
X135340849Y-55796120D01*
X134875302Y-56107189D01*
X134620000Y-56489275D01*
X134364698Y-56107189D01*
X133899151Y-55796120D01*
X133350000Y-55686887D01*
X132800849Y-55796120D01*
X132335302Y-56107189D01*
X132080000Y-56489275D01*
X131824698Y-56107189D01*
X131359151Y-55796120D01*
X130810000Y-55686887D01*
X130260849Y-55796120D01*
X129795302Y-56107189D01*
X129484233Y-56572736D01*
X129375000Y-57121887D01*
X129375000Y-57178113D01*
X129484233Y-57727264D01*
X129795302Y-58192811D01*
X129936833Y-58287379D01*
X129512136Y-58712075D01*
X129346337Y-58711931D01*
X128986788Y-58860493D01*
X128711460Y-59135341D01*
X128605429Y-59390691D01*
X128351788Y-59495493D01*
X128076460Y-59770341D01*
X127927270Y-60129630D01*
X127927168Y-60246380D01*
X127076200Y-59395412D01*
X127076200Y-58597440D01*
X127165000Y-58597440D01*
X127400317Y-58553162D01*
X127616441Y-58414090D01*
X127761431Y-58201890D01*
X127812440Y-57950000D01*
X127812440Y-56350000D01*
X127768162Y-56114683D01*
X127629090Y-55898559D01*
X127416890Y-55753569D01*
X127165000Y-55702560D01*
X125565000Y-55702560D01*
X125329683Y-55746838D01*
X125113559Y-55885910D01*
X124968569Y-56098110D01*
X124937185Y-56253089D01*
X124839698Y-56107189D01*
X124374151Y-55796120D01*
X123825000Y-55686887D01*
X123275849Y-55796120D01*
X122810302Y-56107189D01*
X122555000Y-56489275D01*
X122299698Y-56107189D01*
X121834151Y-55796120D01*
X121285000Y-55686887D01*
X120735849Y-55796120D01*
X120270302Y-56107189D01*
X120000014Y-56511703D01*
X119897389Y-56294866D01*
X119482423Y-55918959D01*
X119094039Y-55758096D01*
X118872000Y-55880085D01*
X118872000Y-57023000D01*
X118892000Y-57023000D01*
X118892000Y-57277000D01*
X118872000Y-57277000D01*
X118872000Y-57297000D01*
X118618000Y-57297000D01*
X118618000Y-57277000D01*
X116332000Y-57277000D01*
X116332000Y-57297000D01*
X116078000Y-57297000D01*
X116078000Y-57277000D01*
X116058000Y-57277000D01*
X116058000Y-57023000D01*
X116078000Y-57023000D01*
X116078000Y-55880085D01*
X116332000Y-55880085D01*
X116332000Y-57023000D01*
X118618000Y-57023000D01*
X118618000Y-55880085D01*
X118395961Y-55758096D01*
X118007577Y-55918959D01*
X117592611Y-56294866D01*
X117475000Y-56543367D01*
X117357389Y-56294866D01*
X116942423Y-55918959D01*
X116554039Y-55758096D01*
X116332000Y-55880085D01*
X116078000Y-55880085D01*
X115855961Y-55758096D01*
X115467577Y-55918959D01*
X115052611Y-56294866D01*
X114949986Y-56511703D01*
X114679698Y-56107189D01*
X114214151Y-55796120D01*
X113665000Y-55686887D01*
X113115849Y-55796120D01*
X112650302Y-56107189D01*
X112395000Y-56489275D01*
X112139698Y-56107189D01*
X111674151Y-55796120D01*
X111125000Y-55686887D01*
X110575849Y-55796120D01*
X110110302Y-56107189D01*
X109840014Y-56511703D01*
X109737389Y-56294866D01*
X109322423Y-55918959D01*
X108934039Y-55758096D01*
X108712000Y-55880085D01*
X108712000Y-57023000D01*
X108732000Y-57023000D01*
X108732000Y-57277000D01*
X108712000Y-57277000D01*
X108712000Y-58419915D01*
X108934039Y-58541904D01*
X109322423Y-58381041D01*
X109737389Y-58005134D01*
X109840014Y-57788297D01*
X110110302Y-58192811D01*
X110575849Y-58503880D01*
X111125000Y-58613113D01*
X111674151Y-58503880D01*
X112139698Y-58192811D01*
X112395000Y-57810725D01*
X112650302Y-58192811D01*
X113115849Y-58503880D01*
X113665000Y-58613113D01*
X113986527Y-58549157D01*
X114396184Y-58958815D01*
X114573155Y-59077063D01*
X114643395Y-59123996D01*
X114935000Y-59182000D01*
X119699370Y-59182000D01*
X123824380Y-63307010D01*
X123275849Y-63416120D01*
X122810302Y-63727189D01*
X122555000Y-64109275D01*
X122299698Y-63727189D01*
X121834151Y-63416120D01*
X121285000Y-63306887D01*
X120735849Y-63416120D01*
X120270302Y-63727189D01*
X120015000Y-64109275D01*
X119759698Y-63727189D01*
X119294151Y-63416120D01*
X118745000Y-63306887D01*
X118195849Y-63416120D01*
X117730302Y-63727189D01*
X117475000Y-64109275D01*
X117219698Y-63727189D01*
X116754151Y-63416120D01*
X116205000Y-63306887D01*
X115655849Y-63416120D01*
X115190302Y-63727189D01*
X114935000Y-64109275D01*
X114679698Y-63727189D01*
X114214151Y-63416120D01*
X113665000Y-63306887D01*
X113115849Y-63416120D01*
X112650302Y-63727189D01*
X112395000Y-64109275D01*
X112139698Y-63727189D01*
X111674151Y-63416120D01*
X111125000Y-63306887D01*
X110575849Y-63416120D01*
X110110302Y-63727189D01*
X109855000Y-64109275D01*
X109599698Y-63727189D01*
X109134151Y-63416120D01*
X108585000Y-63306887D01*
X108035849Y-63416120D01*
X107570302Y-63727189D01*
X107259233Y-64192736D01*
X107150000Y-64741887D01*
X107150000Y-64798113D01*
X107259233Y-65347264D01*
X107570302Y-65812811D01*
X107922301Y-66048009D01*
X107847577Y-66078959D01*
X107432611Y-66454866D01*
X107193086Y-66960959D01*
X107314371Y-67183000D01*
X108458000Y-67183000D01*
X108458000Y-67163000D01*
X108712000Y-67163000D01*
X108712000Y-67183000D01*
X108732000Y-67183000D01*
X108732000Y-67437000D01*
X108712000Y-67437000D01*
X108712000Y-68579915D01*
X108934039Y-68701904D01*
X109322423Y-68541041D01*
X109737389Y-68165134D01*
X109840014Y-67948297D01*
X110110302Y-68352811D01*
X110575849Y-68663880D01*
X111125000Y-68773113D01*
X111674151Y-68663880D01*
X112139698Y-68352811D01*
X112395000Y-67970725D01*
X112650302Y-68352811D01*
X113115849Y-68663880D01*
X113665000Y-68773113D01*
X113956982Y-68715034D01*
X113956931Y-68773663D01*
X114105493Y-69133212D01*
X114111071Y-69138800D01*
X106869392Y-69138800D01*
X106873540Y-69134659D01*
X107022730Y-68775370D01*
X107023069Y-68386337D01*
X106874507Y-68026788D01*
X106599659Y-67751460D01*
X106377090Y-67659041D01*
X107193086Y-67659041D01*
X107432611Y-68165134D01*
X107847577Y-68541041D01*
X108235961Y-68701904D01*
X108458000Y-68579915D01*
X108458000Y-67437000D01*
X107314371Y-67437000D01*
X107193086Y-67659041D01*
X106377090Y-67659041D01*
X106240370Y-67602270D01*
X105851337Y-67601931D01*
X105491788Y-67750493D01*
X105373274Y-67868800D01*
X100330000Y-67868800D01*
X100057836Y-67922937D01*
X100002367Y-67960000D01*
X99827105Y-68077106D01*
X98487518Y-69416694D01*
X98340010Y-69059697D01*
X98216694Y-68936166D01*
X98253917Y-68929162D01*
X98470041Y-68790090D01*
X98615031Y-68577890D01*
X98666040Y-68326000D01*
X98666040Y-66294000D01*
X98621762Y-66058683D01*
X98482690Y-65842559D01*
X98377517Y-65770697D01*
X98425000Y-65699634D01*
X98635330Y-66014415D01*
X99121511Y-66339271D01*
X99695000Y-66453345D01*
X100268489Y-66339271D01*
X100754670Y-66014415D01*
X100764243Y-66000087D01*
X100768238Y-66021317D01*
X100907310Y-66237441D01*
X101119510Y-66382431D01*
X101371400Y-66433440D01*
X103098600Y-66433440D01*
X103333917Y-66389162D01*
X103550041Y-66250090D01*
X103695031Y-66037890D01*
X103746040Y-65786000D01*
X103746040Y-63754000D01*
X103701762Y-63518683D01*
X103562690Y-63302559D01*
X103350490Y-63157569D01*
X103098600Y-63106560D01*
X101371400Y-63106560D01*
X101136083Y-63150838D01*
X100919959Y-63289910D01*
X100774969Y-63502110D01*
X100766600Y-63543439D01*
X100754670Y-63525585D01*
X100268489Y-63200729D01*
X99695000Y-63086655D01*
X99121511Y-63200729D01*
X98635330Y-63525585D01*
X98425000Y-63840366D01*
X98214670Y-63525585D01*
X97986955Y-63373431D01*
X98338629Y-63022370D01*
X98551757Y-62509100D01*
X98551815Y-62442838D01*
X98864630Y-62572730D01*
X99253663Y-62573069D01*
X99613212Y-62424507D01*
X99888540Y-62149659D01*
X100037730Y-61790370D01*
X100038069Y-61401337D01*
X99889507Y-61041788D01*
X99614659Y-60766460D01*
X99255370Y-60617270D01*
X99087912Y-60617124D01*
X97866200Y-59395412D01*
X97866200Y-58367695D01*
X97945303Y-58335010D01*
X98338629Y-57942370D01*
X98522715Y-57499041D01*
X107193086Y-57499041D01*
X107432611Y-58005134D01*
X107847577Y-58381041D01*
X108235961Y-58541904D01*
X108458000Y-58419915D01*
X108458000Y-57277000D01*
X107314371Y-57277000D01*
X107193086Y-57499041D01*
X98522715Y-57499041D01*
X98551757Y-57429100D01*
X98552242Y-56873339D01*
X98522336Y-56800959D01*
X107193086Y-56800959D01*
X107314371Y-57023000D01*
X108458000Y-57023000D01*
X108458000Y-55880085D01*
X108235961Y-55758096D01*
X107847577Y-55918959D01*
X107432611Y-56294866D01*
X107193086Y-56800959D01*
X98522336Y-56800959D01*
X98340010Y-56359697D01*
X97947370Y-55966371D01*
X97434100Y-55753243D01*
X96878339Y-55752758D01*
X96364697Y-55964990D01*
X95971371Y-56357630D01*
X95885051Y-56565512D01*
X95800010Y-56359697D01*
X95407370Y-55966371D01*
X94894100Y-55753243D01*
X94338339Y-55752758D01*
X93824697Y-55964990D01*
X93431371Y-56357630D01*
X93345051Y-56565512D01*
X93260010Y-56359697D01*
X92867370Y-55966371D01*
X92354100Y-55753243D01*
X91798339Y-55752758D01*
X91284697Y-55964990D01*
X90891371Y-56357630D01*
X90805051Y-56565512D01*
X90720010Y-56359697D01*
X90327370Y-55966371D01*
X89814100Y-55753243D01*
X89258339Y-55752758D01*
X88744697Y-55964990D01*
X88351371Y-56357630D01*
X88138243Y-56870900D01*
X88137758Y-57426661D01*
X88349990Y-57940303D01*
X88742630Y-58333629D01*
X89255900Y-58546757D01*
X89811661Y-58547242D01*
X90325303Y-58335010D01*
X90718629Y-57942370D01*
X90804949Y-57734488D01*
X90889990Y-57940303D01*
X91282630Y-58333629D01*
X91795900Y-58546757D01*
X92351661Y-58547242D01*
X92865303Y-58335010D01*
X93258629Y-57942370D01*
X93344949Y-57734488D01*
X93429990Y-57940303D01*
X93822630Y-58333629D01*
X93903800Y-58367334D01*
X93903800Y-60325000D01*
X93957937Y-60597165D01*
X94112106Y-60827894D01*
X94181694Y-60897482D01*
X93824697Y-61044990D01*
X93431371Y-61437630D01*
X93345051Y-61645512D01*
X93260010Y-61439697D01*
X92867370Y-61046371D01*
X92354100Y-60833243D01*
X91798339Y-60832758D01*
X91284697Y-61044990D01*
X90891371Y-61437630D01*
X90805051Y-61645512D01*
X90720010Y-61439697D01*
X90327370Y-61046371D01*
X89814100Y-60833243D01*
X89258339Y-60832758D01*
X88744697Y-61044990D01*
X88351371Y-61437630D01*
X88138243Y-61950900D01*
X88137758Y-62506661D01*
X88349990Y-63020303D01*
X88702719Y-63373648D01*
X88475330Y-63525585D01*
X88265000Y-63840366D01*
X88054670Y-63525585D01*
X87568489Y-63200729D01*
X86995000Y-63086655D01*
X86421511Y-63200729D01*
X85935330Y-63525585D01*
X85725000Y-63840366D01*
X85514670Y-63525585D01*
X85028489Y-63200729D01*
X84455000Y-63086655D01*
X83881511Y-63200729D01*
X83395330Y-63525585D01*
X83185000Y-63840366D01*
X82974670Y-63525585D01*
X82746955Y-63373431D01*
X83098629Y-63022370D01*
X83311757Y-62509100D01*
X83312242Y-61953339D01*
X83100010Y-61439697D01*
X82707370Y-61046371D01*
X82194100Y-60833243D01*
X81638339Y-60832758D01*
X81124697Y-61044990D01*
X80731371Y-61437630D01*
X80645051Y-61645512D01*
X80560010Y-61439697D01*
X80167370Y-61046371D01*
X79654100Y-60833243D01*
X79098339Y-60832758D01*
X78584697Y-61044990D01*
X78191371Y-61437630D01*
X78105051Y-61645512D01*
X78020010Y-61439697D01*
X77627370Y-61046371D01*
X77114100Y-60833243D01*
X76558339Y-60832758D01*
X76044697Y-61044990D01*
X75651371Y-61437630D01*
X75438243Y-61950900D01*
X75437758Y-62506661D01*
X75649990Y-63020303D01*
X76002719Y-63373648D01*
X75775330Y-63525585D01*
X75565000Y-63840366D01*
X75354670Y-63525585D01*
X74868489Y-63200729D01*
X74295000Y-63086655D01*
X73721511Y-63200729D01*
X73235330Y-63525585D01*
X73025000Y-63840366D01*
X72814670Y-63525585D01*
X72328489Y-63200729D01*
X71755000Y-63086655D01*
X71181511Y-63200729D01*
X70695330Y-63525585D01*
X70370474Y-64011766D01*
X70256400Y-64585255D01*
X70256400Y-64954745D01*
X70370474Y-65528234D01*
X70695330Y-66014415D01*
X71181511Y-66339271D01*
X71755000Y-66453345D01*
X72328489Y-66339271D01*
X72814670Y-66014415D01*
X73025000Y-65699634D01*
X73235330Y-66014415D01*
X73721511Y-66339271D01*
X74295000Y-66453345D01*
X74868489Y-66339271D01*
X75354670Y-66014415D01*
X75565000Y-65699634D01*
X75775330Y-66014415D01*
X75813621Y-66040000D01*
X75775330Y-66065585D01*
X75450474Y-66551766D01*
X75336400Y-67125255D01*
X75336400Y-67494745D01*
X75450474Y-68068234D01*
X75775330Y-68554415D01*
X76003045Y-68706569D01*
X75651371Y-69057630D01*
X75438243Y-69570900D01*
X75437758Y-70126661D01*
X75649990Y-70640303D01*
X76042630Y-71033629D01*
X76555900Y-71246757D01*
X77111661Y-71247242D01*
X77625303Y-71035010D01*
X78018629Y-70642370D01*
X78104949Y-70434488D01*
X78189990Y-70640303D01*
X78582630Y-71033629D01*
X79095900Y-71246757D01*
X79651661Y-71247242D01*
X80165303Y-71035010D01*
X80558629Y-70642370D01*
X80644949Y-70434488D01*
X80729990Y-70640303D01*
X81122630Y-71033629D01*
X81635900Y-71246757D01*
X82191661Y-71247242D01*
X82705303Y-71035010D01*
X83098629Y-70642370D01*
X83184949Y-70434488D01*
X83269990Y-70640303D01*
X83662630Y-71033629D01*
X84175900Y-71246757D01*
X84731661Y-71247242D01*
X85245303Y-71035010D01*
X85638629Y-70642370D01*
X85724949Y-70434488D01*
X85809990Y-70640303D01*
X86202630Y-71033629D01*
X86715900Y-71246757D01*
X87271661Y-71247242D01*
X87785303Y-71035010D01*
X88178629Y-70642370D01*
X88264949Y-70434488D01*
X88349990Y-70640303D01*
X88742630Y-71033629D01*
X89255900Y-71246757D01*
X89811661Y-71247242D01*
X90325303Y-71035010D01*
X90718629Y-70642370D01*
X90804949Y-70434488D01*
X90889990Y-70640303D01*
X91282630Y-71033629D01*
X91641548Y-71182664D01*
X91572106Y-71252106D01*
X91417937Y-71482835D01*
X91417937Y-71482836D01*
X91363800Y-71755000D01*
X91363800Y-73712305D01*
X91284697Y-73744990D01*
X90891371Y-74137630D01*
X90805051Y-74345512D01*
X90720010Y-74139697D01*
X90327370Y-73746371D01*
X89814100Y-73533243D01*
X89258339Y-73532758D01*
X89177110Y-73566321D01*
X88767894Y-73157106D01*
X88537165Y-73002937D01*
X88265000Y-72948800D01*
X83820000Y-72948800D01*
X83547836Y-73002937D01*
X83317106Y-73157105D01*
X82717597Y-73756615D01*
X82707370Y-73746371D01*
X82194100Y-73533243D01*
X81638339Y-73532758D01*
X81124697Y-73744990D01*
X80731371Y-74137630D01*
X80645051Y-74345512D01*
X80560010Y-74139697D01*
X80167370Y-73746371D01*
X79654100Y-73533243D01*
X79098339Y-73532758D01*
X78584697Y-73744990D01*
X78191371Y-74137630D01*
X78105051Y-74345512D01*
X78020010Y-74139697D01*
X77627370Y-73746371D01*
X77114100Y-73533243D01*
X76558339Y-73532758D01*
X76044697Y-73744990D01*
X75651371Y-74137630D01*
X75438243Y-74650900D01*
X75437758Y-75206661D01*
X75649990Y-75720303D01*
X76042630Y-76113629D01*
X76555900Y-76326757D01*
X77111661Y-76327242D01*
X77625303Y-76115010D01*
X78018629Y-75722370D01*
X78104949Y-75514488D01*
X78189990Y-75720303D01*
X78582630Y-76113629D01*
X79095900Y-76326757D01*
X79651661Y-76327242D01*
X80165303Y-76115010D01*
X80558629Y-75722370D01*
X80644949Y-75514488D01*
X80729990Y-75720303D01*
X81122630Y-76113629D01*
X81635900Y-76326757D01*
X82191661Y-76327242D01*
X82473800Y-76210665D01*
X82473800Y-76835000D01*
X82527937Y-77107165D01*
X82682106Y-77337894D01*
X83317106Y-77972895D01*
X83402570Y-78030000D01*
X69925000Y-78030000D01*
X69925000Y-60960000D01*
X70071655Y-60960000D01*
X70185729Y-61533489D01*
X70510585Y-62019670D01*
X70996766Y-62344526D01*
X71570255Y-62458600D01*
X71939745Y-62458600D01*
X72513234Y-62344526D01*
X72999415Y-62019670D01*
X73324271Y-61533489D01*
X73438345Y-60960000D01*
X73324271Y-60386511D01*
X73066599Y-60000878D01*
X73130699Y-59974327D01*
X73309327Y-59795698D01*
X73406000Y-59562309D01*
X73406000Y-58705750D01*
X73247250Y-58547000D01*
X71882000Y-58547000D01*
X71882000Y-58567000D01*
X71628000Y-58567000D01*
X71628000Y-58547000D01*
X70262750Y-58547000D01*
X70104000Y-58705750D01*
X70104000Y-59562309D01*
X70200673Y-59795698D01*
X70379301Y-59974327D01*
X70443401Y-60000878D01*
X70185729Y-60386511D01*
X70071655Y-60960000D01*
X69925000Y-60960000D01*
X69925000Y-55847655D01*
X70104000Y-55847655D01*
X70104000Y-55912345D01*
X70229675Y-56544155D01*
X70430372Y-56844519D01*
X70379301Y-56865673D01*
X70200673Y-57044302D01*
X70104000Y-57277691D01*
X70104000Y-58134250D01*
X70262750Y-58293000D01*
X71628000Y-58293000D01*
X71628000Y-58273000D01*
X71882000Y-58273000D01*
X71882000Y-58293000D01*
X73247250Y-58293000D01*
X73406000Y-58134250D01*
X73406000Y-57426661D01*
X75437758Y-57426661D01*
X75649990Y-57940303D01*
X76042630Y-58333629D01*
X76555900Y-58546757D01*
X77111661Y-58547242D01*
X77625303Y-58335010D01*
X78018629Y-57942370D01*
X78104949Y-57734488D01*
X78189990Y-57940303D01*
X78582630Y-58333629D01*
X79095900Y-58546757D01*
X79651661Y-58547242D01*
X80165303Y-58335010D01*
X80558629Y-57942370D01*
X80644949Y-57734488D01*
X80729990Y-57940303D01*
X81122630Y-58333629D01*
X81635900Y-58546757D01*
X82191661Y-58547242D01*
X82705303Y-58335010D01*
X83098629Y-57942370D01*
X83311757Y-57429100D01*
X83312242Y-56873339D01*
X83100010Y-56359697D01*
X82707370Y-55966371D01*
X82194100Y-55753243D01*
X81638339Y-55752758D01*
X81124697Y-55964990D01*
X80731371Y-56357630D01*
X80645051Y-56565512D01*
X80560010Y-56359697D01*
X80167370Y-55966371D01*
X79654100Y-55753243D01*
X79098339Y-55752758D01*
X78584697Y-55964990D01*
X78191371Y-56357630D01*
X78105051Y-56565512D01*
X78020010Y-56359697D01*
X77627370Y-55966371D01*
X77114100Y-55753243D01*
X76558339Y-55752758D01*
X76044697Y-55964990D01*
X75651371Y-56357630D01*
X75438243Y-56870900D01*
X75437758Y-57426661D01*
X73406000Y-57426661D01*
X73406000Y-57277691D01*
X73309327Y-57044302D01*
X73130699Y-56865673D01*
X73079628Y-56844519D01*
X73280325Y-56544155D01*
X73406000Y-55912345D01*
X73406000Y-55847655D01*
X73280325Y-55215845D01*
X72922433Y-54680222D01*
X72386810Y-54322330D01*
X71755000Y-54196655D01*
X71123190Y-54322330D01*
X70587567Y-54680222D01*
X70229675Y-55215845D01*
X70104000Y-55847655D01*
X69925000Y-55847655D01*
X69925000Y-54050000D01*
X175185000Y-54050000D01*
X175185000Y-55880000D01*
G36*
X150115302Y-65812811D02*
X150431668Y-66024200D01*
X150125572Y-66041917D01*
X149791271Y-66180389D01*
X149735590Y-66410984D01*
X150455000Y-67130395D01*
X151174410Y-66410984D01*
X151131393Y-66232836D01*
X151679151Y-66123880D01*
X152144698Y-65812811D01*
X152400000Y-65430725D01*
X152655302Y-65812811D01*
X153120849Y-66123880D01*
X153670000Y-66233113D01*
X154219151Y-66123880D01*
X154228800Y-66117433D01*
X154228800Y-68285411D01*
X153642136Y-68872075D01*
X153476337Y-68871931D01*
X153116788Y-69020493D01*
X153035099Y-69102040D01*
X152954659Y-69021460D01*
X152595370Y-68872270D01*
X152206337Y-68871931D01*
X151846788Y-69020493D01*
X151728274Y-69138800D01*
X141899589Y-69138800D01*
X141681200Y-68920412D01*
X141681200Y-66015602D01*
X141984698Y-65812811D01*
X142240000Y-65430725D01*
X142495302Y-65812811D01*
X142808695Y-66022214D01*
X142624683Y-66056838D01*
X142408559Y-66195910D01*
X142263569Y-66408110D01*
X142212560Y-66660000D01*
X142212560Y-67960000D01*
X142256838Y-68195317D01*
X142395910Y-68411441D01*
X142608110Y-68556431D01*
X142860000Y-68607440D01*
X144160000Y-68607440D01*
X144395317Y-68563162D01*
X144611441Y-68424090D01*
X144756431Y-68211890D01*
X144807440Y-67960000D01*
X144807440Y-67797615D01*
X144880389Y-67973729D01*
X145110984Y-68029410D01*
X145830395Y-67310000D01*
X145110984Y-66590590D01*
X144880389Y-66646271D01*
X144807440Y-66855902D01*
X144807440Y-66660000D01*
X144763162Y-66424683D01*
X144624090Y-66208559D01*
X144411890Y-66063569D01*
X144210460Y-66022778D01*
X144524698Y-65812811D01*
X144780000Y-65430725D01*
X145035302Y-65812811D01*
X145493902Y-66119238D01*
X145346271Y-66180389D01*
X145290590Y-66410984D01*
X146010000Y-67130395D01*
X146024142Y-67116252D01*
X146203748Y-67295858D01*
X146189605Y-67310000D01*
X146203748Y-67324142D01*
X146024142Y-67503748D01*
X146010000Y-67489605D01*
X145290590Y-68209016D01*
X145346271Y-68439611D01*
X145829078Y-68607622D01*
X146339428Y-68578083D01*
X146673729Y-68439611D01*
X146724292Y-68230211D01*
X146840910Y-68411441D01*
X147053110Y-68556431D01*
X147305000Y-68607440D01*
X148605000Y-68607440D01*
X148840317Y-68563162D01*
X149056441Y-68424090D01*
X149201431Y-68211890D01*
X149202012Y-68209016D01*
X149735590Y-68209016D01*
X149791271Y-68439611D01*
X150274078Y-68607622D01*
X150784428Y-68578083D01*
X151118729Y-68439611D01*
X151174410Y-68209016D01*
X150455000Y-67489605D01*
X149735590Y-68209016D01*
X149202012Y-68209016D01*
X149252440Y-67960000D01*
X149252440Y-67797615D01*
X149325389Y-67973729D01*
X149555984Y-68029410D01*
X150275395Y-67310000D01*
X150634605Y-67310000D01*
X151354016Y-68029410D01*
X151584611Y-67973729D01*
X151752622Y-67490922D01*
X151723083Y-66980572D01*
X151584611Y-66646271D01*
X151354016Y-66590590D01*
X150634605Y-67310000D01*
X150275395Y-67310000D01*
X149555984Y-66590590D01*
X149325389Y-66646271D01*
X149252440Y-66855902D01*
X149252440Y-66660000D01*
X149208162Y-66424683D01*
X149069090Y-66208559D01*
X148977496Y-66145976D01*
X149327423Y-66001041D01*
X149742389Y-65625134D01*
X149845014Y-65408297D01*
X150115302Y-65812811D01*
X150115302Y-65812811D01*
G37*
X150115302Y-65812811D02*
X150431668Y-66024200D01*
X150125572Y-66041917D01*
X149791271Y-66180389D01*
X149735590Y-66410984D01*
X150455000Y-67130395D01*
X151174410Y-66410984D01*
X151131393Y-66232836D01*
X151679151Y-66123880D01*
X152144698Y-65812811D01*
X152400000Y-65430725D01*
X152655302Y-65812811D01*
X153120849Y-66123880D01*
X153670000Y-66233113D01*
X154219151Y-66123880D01*
X154228800Y-66117433D01*
X154228800Y-68285411D01*
X153642136Y-68872075D01*
X153476337Y-68871931D01*
X153116788Y-69020493D01*
X153035099Y-69102040D01*
X152954659Y-69021460D01*
X152595370Y-68872270D01*
X152206337Y-68871931D01*
X151846788Y-69020493D01*
X151728274Y-69138800D01*
X141899589Y-69138800D01*
X141681200Y-68920412D01*
X141681200Y-66015602D01*
X141984698Y-65812811D01*
X142240000Y-65430725D01*
X142495302Y-65812811D01*
X142808695Y-66022214D01*
X142624683Y-66056838D01*
X142408559Y-66195910D01*
X142263569Y-66408110D01*
X142212560Y-66660000D01*
X142212560Y-67960000D01*
X142256838Y-68195317D01*
X142395910Y-68411441D01*
X142608110Y-68556431D01*
X142860000Y-68607440D01*
X144160000Y-68607440D01*
X144395317Y-68563162D01*
X144611441Y-68424090D01*
X144756431Y-68211890D01*
X144807440Y-67960000D01*
X144807440Y-67797615D01*
X144880389Y-67973729D01*
X145110984Y-68029410D01*
X145830395Y-67310000D01*
X145110984Y-66590590D01*
X144880389Y-66646271D01*
X144807440Y-66855902D01*
X144807440Y-66660000D01*
X144763162Y-66424683D01*
X144624090Y-66208559D01*
X144411890Y-66063569D01*
X144210460Y-66022778D01*
X144524698Y-65812811D01*
X144780000Y-65430725D01*
X145035302Y-65812811D01*
X145493902Y-66119238D01*
X145346271Y-66180389D01*
X145290590Y-66410984D01*
X146010000Y-67130395D01*
X146024142Y-67116252D01*
X146203748Y-67295858D01*
X146189605Y-67310000D01*
X146203748Y-67324142D01*
X146024142Y-67503748D01*
X146010000Y-67489605D01*
X145290590Y-68209016D01*
X145346271Y-68439611D01*
X145829078Y-68607622D01*
X146339428Y-68578083D01*
X146673729Y-68439611D01*
X146724292Y-68230211D01*
X146840910Y-68411441D01*
X147053110Y-68556431D01*
X147305000Y-68607440D01*
X148605000Y-68607440D01*
X148840317Y-68563162D01*
X149056441Y-68424090D01*
X149201431Y-68211890D01*
X149202012Y-68209016D01*
X149735590Y-68209016D01*
X149791271Y-68439611D01*
X150274078Y-68607622D01*
X150784428Y-68578083D01*
X151118729Y-68439611D01*
X151174410Y-68209016D01*
X150455000Y-67489605D01*
X149735590Y-68209016D01*
X149202012Y-68209016D01*
X149252440Y-67960000D01*
X149252440Y-67797615D01*
X149325389Y-67973729D01*
X149555984Y-68029410D01*
X150275395Y-67310000D01*
X150634605Y-67310000D01*
X151354016Y-68029410D01*
X151584611Y-67973729D01*
X151752622Y-67490922D01*
X151723083Y-66980572D01*
X151584611Y-66646271D01*
X151354016Y-66590590D01*
X150634605Y-67310000D01*
X150275395Y-67310000D01*
X149555984Y-66590590D01*
X149325389Y-66646271D01*
X149252440Y-66855902D01*
X149252440Y-66660000D01*
X149208162Y-66424683D01*
X149069090Y-66208559D01*
X148977496Y-66145976D01*
X149327423Y-66001041D01*
X149742389Y-65625134D01*
X149845014Y-65408297D01*
X150115302Y-65812811D01*
M02*
