G04 #@! TF.FileFunction,Copper,L2,Bot,Signal*
%FSLAX46Y46*%
G04 Gerber Fmt 4.6, Leading zero omitted, Abs format (unit mm)*
G04 Created by KiCad (PCBNEW 4.0.2-stable) date 1/2/2017 10:04:15 PM*
%MOMM*%
G01*
G04 APERTURE LIST*
%ADD10C,0.100000*%
%ADD11O,1.600000X1.600000*%
%ADD12O,2.032000X1.727200*%
%ADD13C,1.778000*%
%ADD14R,1.300000X1.300000*%
%ADD15C,1.300000*%
%ADD16R,1.727200X1.727200*%
%ADD17O,1.727200X1.727200*%
%ADD18R,1.727200X2.032000*%
%ADD19O,1.727200X2.032000*%
%ADD20C,1.524000*%
%ADD21R,2.032000X2.032000*%
%ADD22O,2.032000X2.032000*%
%ADD23R,1.600000X1.600000*%
%ADD24C,0.685800*%
%ADD25C,0.152400*%
%ADD26C,0.254000*%
G04 APERTURE END LIST*
D10*
D11*
X163830000Y-57150000D03*
X161290000Y-57150000D03*
X158750000Y-57150000D03*
X156210000Y-57150000D03*
X153670000Y-57150000D03*
X151130000Y-57150000D03*
X148590000Y-57150000D03*
X146050000Y-57150000D03*
X143510000Y-57150000D03*
X140970000Y-57150000D03*
X138430000Y-57150000D03*
X135890000Y-57150000D03*
X133350000Y-57150000D03*
X130810000Y-57150000D03*
X130810000Y-64770000D03*
X133350000Y-64770000D03*
X135890000Y-64770000D03*
X138430000Y-64770000D03*
X140970000Y-64770000D03*
X143510000Y-64770000D03*
X146050000Y-64770000D03*
X148590000Y-64770000D03*
X151130000Y-64770000D03*
X153670000Y-64770000D03*
X156210000Y-64770000D03*
X158750000Y-64770000D03*
X161290000Y-64770000D03*
X163830000Y-64770000D03*
D12*
X186055000Y-68580000D03*
X186055000Y-66040000D03*
X186055000Y-63500000D03*
X186055000Y-60960000D03*
D13*
X186055000Y-77040000D03*
X188595000Y-77040000D03*
X191135000Y-77040000D03*
X193675000Y-77040000D03*
X196215000Y-77040000D03*
X198755000Y-77040000D03*
X201295000Y-77040000D03*
X203835000Y-77040000D03*
X206375000Y-77040000D03*
X186055000Y-55040000D03*
X188595000Y-55040000D03*
X191135000Y-55040000D03*
X193675000Y-55040000D03*
X196215000Y-55040000D03*
X198755000Y-55040000D03*
X201295000Y-55040000D03*
X203835000Y-55040000D03*
X206375000Y-55040000D03*
D14*
X143510000Y-67310000D03*
D15*
X146010000Y-67310000D03*
D14*
X147955000Y-67310000D03*
D15*
X150455000Y-67310000D03*
D13*
X221615000Y-77040000D03*
X224155000Y-77040000D03*
X226695000Y-77040000D03*
X229235000Y-77040000D03*
X231775000Y-77040000D03*
X234315000Y-77040000D03*
X236855000Y-77040000D03*
X239395000Y-77040000D03*
X241935000Y-77040000D03*
X221615000Y-55040000D03*
X224155000Y-55040000D03*
X226695000Y-55040000D03*
X229235000Y-55040000D03*
X231775000Y-55040000D03*
X234315000Y-55040000D03*
X236855000Y-55040000D03*
X239395000Y-55040000D03*
X241935000Y-55040000D03*
X363855000Y-77040000D03*
X366395000Y-77040000D03*
X368935000Y-77040000D03*
X371475000Y-77040000D03*
X374015000Y-77040000D03*
X376555000Y-77040000D03*
X379095000Y-77040000D03*
X381635000Y-77040000D03*
X384175000Y-77040000D03*
X363855000Y-55040000D03*
X366395000Y-55040000D03*
X368935000Y-55040000D03*
X371475000Y-55040000D03*
X374015000Y-55040000D03*
X376555000Y-55040000D03*
X379095000Y-55040000D03*
X381635000Y-55040000D03*
X384175000Y-55040000D03*
D14*
X167005000Y-76200000D03*
D15*
X169505000Y-76200000D03*
D16*
X160655000Y-71120000D03*
D17*
X163195000Y-71120000D03*
X163195000Y-73660000D03*
X160655000Y-73660000D03*
X163195000Y-76200000D03*
X160655000Y-76200000D03*
D13*
X257175000Y-77040000D03*
X259715000Y-77040000D03*
X262255000Y-77040000D03*
X264795000Y-77040000D03*
X267335000Y-77040000D03*
X269875000Y-77040000D03*
X272415000Y-77040000D03*
X274955000Y-77040000D03*
X277495000Y-77040000D03*
X257175000Y-55040000D03*
X259715000Y-55040000D03*
X262255000Y-55040000D03*
X264795000Y-55040000D03*
X267335000Y-55040000D03*
X269875000Y-55040000D03*
X272415000Y-55040000D03*
X274955000Y-55040000D03*
X277495000Y-55040000D03*
X292735000Y-77040000D03*
X295275000Y-77040000D03*
X297815000Y-77040000D03*
X300355000Y-77040000D03*
X302895000Y-77040000D03*
X305435000Y-77040000D03*
X307975000Y-77040000D03*
X310515000Y-77040000D03*
X313055000Y-77040000D03*
X292735000Y-55040000D03*
X295275000Y-55040000D03*
X297815000Y-55040000D03*
X300355000Y-55040000D03*
X302895000Y-55040000D03*
X305435000Y-55040000D03*
X307975000Y-55040000D03*
X310515000Y-55040000D03*
X313055000Y-55040000D03*
X328295000Y-77040000D03*
X330835000Y-77040000D03*
X333375000Y-77040000D03*
X335915000Y-77040000D03*
X338455000Y-77040000D03*
X340995000Y-77040000D03*
X343535000Y-77040000D03*
X346075000Y-77040000D03*
X348615000Y-77040000D03*
X328295000Y-55040000D03*
X330835000Y-55040000D03*
X333375000Y-55040000D03*
X335915000Y-55040000D03*
X338455000Y-55040000D03*
X340995000Y-55040000D03*
X343535000Y-55040000D03*
X346075000Y-55040000D03*
X348615000Y-55040000D03*
D18*
X252095000Y-64770000D03*
D19*
X254635000Y-64770000D03*
X257175000Y-64770000D03*
X259715000Y-64770000D03*
X262255000Y-64770000D03*
X264795000Y-64770000D03*
X267335000Y-64770000D03*
X269875000Y-64770000D03*
X272415000Y-64770000D03*
X274955000Y-64770000D03*
X277495000Y-64770000D03*
X280035000Y-64770000D03*
X282575000Y-64770000D03*
D18*
X257175000Y-67310000D03*
D19*
X259715000Y-67310000D03*
X262255000Y-67310000D03*
X264795000Y-67310000D03*
X267335000Y-67310000D03*
X269875000Y-67310000D03*
X272415000Y-67310000D03*
X274955000Y-67310000D03*
X277495000Y-67310000D03*
D18*
X102235000Y-64770000D03*
D19*
X99695000Y-64770000D03*
X97155000Y-64770000D03*
X94615000Y-64770000D03*
X92075000Y-64770000D03*
X89535000Y-64770000D03*
X86995000Y-64770000D03*
X84455000Y-64770000D03*
X81915000Y-64770000D03*
X79375000Y-64770000D03*
X76835000Y-64770000D03*
X74295000Y-64770000D03*
X71755000Y-64770000D03*
D18*
X97155000Y-67310000D03*
D19*
X94615000Y-67310000D03*
X92075000Y-67310000D03*
X89535000Y-67310000D03*
X86995000Y-67310000D03*
X84455000Y-67310000D03*
X81915000Y-67310000D03*
X79375000Y-67310000D03*
X76835000Y-67310000D03*
D20*
X97155000Y-69850000D03*
X97155000Y-74930000D03*
X94615000Y-69850000D03*
X94615000Y-74930000D03*
X92075000Y-69850000D03*
X92075000Y-74930000D03*
X89535000Y-69850000D03*
X89535000Y-74930000D03*
X86995000Y-69850000D03*
X86995000Y-74930000D03*
X84455000Y-69850000D03*
X84455000Y-74930000D03*
X81915000Y-69850000D03*
X81915000Y-74930000D03*
X79375000Y-69850000D03*
X79375000Y-74930000D03*
X76835000Y-69850000D03*
X76835000Y-74930000D03*
X97155000Y-62230000D03*
X97155000Y-57150000D03*
X94615000Y-62230000D03*
X94615000Y-57150000D03*
X92075000Y-62230000D03*
X92075000Y-57150000D03*
X89535000Y-62230000D03*
X89535000Y-57150000D03*
X81915000Y-62230000D03*
X81915000Y-57150000D03*
X79375000Y-62230000D03*
X79375000Y-57150000D03*
X76835000Y-62230000D03*
X76835000Y-57150000D03*
X169436051Y-73551051D03*
X165843949Y-69958949D03*
D12*
X173355000Y-63500000D03*
X173355000Y-66040000D03*
X173355000Y-68580000D03*
X173355000Y-71120000D03*
X173355000Y-73660000D03*
X173355000Y-76200000D03*
D21*
X173355000Y-58420000D03*
D22*
X173355000Y-55880000D03*
D21*
X71755000Y-58420000D03*
D22*
X71755000Y-55880000D03*
D23*
X126365000Y-57150000D03*
D11*
X108585000Y-64770000D03*
X123825000Y-57150000D03*
X111125000Y-64770000D03*
X121285000Y-57150000D03*
X113665000Y-64770000D03*
X118745000Y-57150000D03*
X116205000Y-64770000D03*
X116205000Y-57150000D03*
X118745000Y-64770000D03*
X113665000Y-57150000D03*
X121285000Y-64770000D03*
X111125000Y-57150000D03*
X123825000Y-64770000D03*
X108585000Y-57150000D03*
X126365000Y-64770000D03*
D23*
X126365000Y-67310000D03*
D11*
X108585000Y-74930000D03*
X123825000Y-67310000D03*
X111125000Y-74930000D03*
X121285000Y-67310000D03*
X113665000Y-74930000D03*
X118745000Y-67310000D03*
X116205000Y-74930000D03*
X116205000Y-67310000D03*
X118745000Y-74930000D03*
X113665000Y-67310000D03*
X121285000Y-74930000D03*
X111125000Y-67310000D03*
X123825000Y-74930000D03*
X108585000Y-67310000D03*
X126365000Y-74930000D03*
D12*
X168275000Y-68580000D03*
X168275000Y-66040000D03*
X168275000Y-63500000D03*
X168275000Y-60960000D03*
X173355000Y-60960000D03*
X71755000Y-60960000D03*
D24*
X257175000Y-75565000D03*
X224155000Y-74930000D03*
X295275000Y-74930000D03*
X330835000Y-74930000D03*
X259715000Y-74930000D03*
X189230000Y-74930000D03*
X226695000Y-74295000D03*
X297815000Y-74295000D03*
X333375000Y-74295000D03*
X262255000Y-74295000D03*
X191770000Y-74295000D03*
X229235000Y-73660000D03*
X300355000Y-73660000D03*
X335915000Y-73660000D03*
X264795000Y-73660000D03*
X194310000Y-73660000D03*
X231775000Y-73025000D03*
X302895000Y-73025000D03*
X338455000Y-73025000D03*
X267335000Y-73025000D03*
X196850000Y-73025000D03*
X234315000Y-72390000D03*
X305435000Y-72390000D03*
X340995000Y-72390000D03*
X269875000Y-72390000D03*
X199390000Y-72390000D03*
X236855000Y-71755000D03*
X307975000Y-71755000D03*
X343535000Y-71755000D03*
X272415000Y-71755000D03*
X201930000Y-71755000D03*
X239395000Y-71120000D03*
X310515000Y-71120000D03*
X346075000Y-71120000D03*
X274955000Y-71120000D03*
X204470000Y-71120000D03*
X241935000Y-70485000D03*
X313055000Y-70485000D03*
X348615000Y-70485000D03*
X277495000Y-70485000D03*
X207010000Y-70485000D03*
X292735000Y-56515000D03*
X328295000Y-56515000D03*
X221615000Y-56515000D03*
X257175000Y-56515000D03*
X295275000Y-57150000D03*
X330835000Y-57150000D03*
X224155000Y-57150000D03*
X259715000Y-57150000D03*
X189230000Y-57150000D03*
X297815000Y-57785000D03*
X333375000Y-57785000D03*
X226695000Y-57785000D03*
X262255000Y-57785000D03*
X191770000Y-57785000D03*
X300355000Y-58420000D03*
X335915000Y-58420000D03*
X229235000Y-58420000D03*
X264795000Y-58420000D03*
X194310000Y-58420000D03*
X307975000Y-59055000D03*
X343535000Y-59055000D03*
X236855000Y-59055000D03*
X272415000Y-59055000D03*
X201930000Y-59055000D03*
X310515000Y-59690000D03*
X346075000Y-59690000D03*
X254635000Y-59690000D03*
X274955000Y-59690000D03*
X204470000Y-59690000D03*
X313055000Y-60325000D03*
X348615000Y-60325000D03*
X255905000Y-60325000D03*
X277495000Y-60325000D03*
X207010000Y-60325000D03*
X99695000Y-73660000D03*
X155575000Y-71755000D03*
X156845000Y-69850000D03*
X102870000Y-73025000D03*
X152400000Y-73025000D03*
X153670000Y-69850000D03*
X95250000Y-60960000D03*
X141605000Y-60325000D03*
X140970000Y-62865000D03*
X140335000Y-74930000D03*
X122555000Y-59055000D03*
X128905000Y-64135000D03*
X106045000Y-68580000D03*
X114935000Y-68580000D03*
X115570000Y-69215000D03*
X105410000Y-69215000D03*
X139065000Y-74295000D03*
X137795000Y-66040000D03*
X158115000Y-74295000D03*
X139700000Y-73660000D03*
X99060000Y-61595000D03*
X130810000Y-67945000D03*
X152400000Y-69850000D03*
X132080000Y-59055000D03*
X128905000Y-60325000D03*
X132715000Y-59690000D03*
X129540000Y-60960000D03*
X154940000Y-69850000D03*
X154305000Y-72390000D03*
X100965000Y-72390000D03*
X156845000Y-71120000D03*
X158750000Y-68580000D03*
X129540000Y-59690000D03*
X131445000Y-58420000D03*
X302260000Y-60960000D03*
X151130000Y-60960000D03*
X140335000Y-61595000D03*
X137795000Y-62230000D03*
X138430000Y-60960000D03*
X135255000Y-62865000D03*
X135890000Y-60960000D03*
D25*
X147955000Y-67310000D02*
X147955000Y-66675000D01*
X147955000Y-66675000D02*
X146050000Y-64770000D01*
D26*
X148590000Y-57150000D02*
X148590000Y-55880000D01*
X73660000Y-59055000D02*
X71755000Y-60960000D01*
X73660000Y-58420000D02*
X73660000Y-59055000D01*
X76835000Y-55245000D02*
X73660000Y-58420000D01*
X147955000Y-55245000D02*
X76835000Y-55245000D01*
X148590000Y-55880000D02*
X147955000Y-55245000D01*
X165843949Y-69958949D02*
X165843949Y-64243949D01*
X150495000Y-55880000D02*
X149225000Y-57150000D01*
X151765000Y-55880000D02*
X150495000Y-55880000D01*
X152400000Y-56515000D02*
X151765000Y-55880000D01*
X152400000Y-57785000D02*
X152400000Y-56515000D01*
X153670000Y-59055000D02*
X152400000Y-57785000D01*
X153670000Y-61595000D02*
X153670000Y-59055000D01*
X154940000Y-62865000D02*
X153670000Y-61595000D01*
X164465000Y-62865000D02*
X154940000Y-62865000D01*
X165843949Y-64243949D02*
X164465000Y-62865000D01*
X149225000Y-57150000D02*
X148590000Y-57150000D01*
X126365000Y-64770000D02*
X128905000Y-67310000D01*
X128905000Y-67310000D02*
X128905000Y-76835000D01*
X121920000Y-77470000D02*
X71120000Y-77470000D01*
X71120000Y-77470000D02*
X70485000Y-76835000D01*
X70485000Y-76835000D02*
X70485000Y-62230000D01*
X70485000Y-62230000D02*
X71755000Y-60960000D01*
X128270000Y-77470000D02*
X121920000Y-77470000D01*
X128905000Y-76835000D02*
X128905000Y-77470000D01*
X128270000Y-77470000D02*
X128905000Y-76835000D01*
X129540000Y-77470000D02*
X128905000Y-77470000D01*
X128905000Y-77470000D02*
X128270000Y-77470000D01*
X143510000Y-76200000D02*
X143510000Y-77470000D01*
X143510000Y-76200000D02*
X142240000Y-77470000D01*
X144780000Y-77470000D02*
X143510000Y-77470000D01*
X143510000Y-77470000D02*
X142240000Y-77470000D01*
X142240000Y-77470000D02*
X129540000Y-77470000D01*
X129540000Y-77470000D02*
X128905000Y-76835000D01*
X165843949Y-69958949D02*
X165626051Y-69958949D01*
X165626051Y-69958949D02*
X165100000Y-70485000D01*
X143510000Y-76200000D02*
X143510000Y-67310000D01*
X144780000Y-77470000D02*
X143510000Y-76200000D01*
X164465000Y-77470000D02*
X144780000Y-77470000D01*
X165100000Y-76835000D02*
X164465000Y-77470000D01*
X165100000Y-70485000D02*
X165100000Y-76835000D01*
X173355000Y-60960000D02*
X172085000Y-60960000D01*
X172085000Y-68580000D02*
X173355000Y-68580000D01*
X171450000Y-67945000D02*
X172085000Y-68580000D01*
X171450000Y-61595000D02*
X171450000Y-67945000D01*
X172085000Y-60960000D02*
X171450000Y-61595000D01*
X163195000Y-71120000D02*
X164682898Y-71120000D01*
X164682898Y-71120000D02*
X165843949Y-69958949D01*
X165843949Y-69958949D02*
X171976051Y-69958949D01*
X171976051Y-69958949D02*
X173355000Y-68580000D01*
X143510000Y-67310000D02*
X143510000Y-64770000D01*
D25*
X173355000Y-76200000D02*
X169505000Y-76200000D01*
X257175000Y-75565000D02*
X257175000Y-77040000D01*
X257175000Y-67310000D02*
X257175000Y-75565000D01*
X224155000Y-77040000D02*
X224155000Y-74930000D01*
X295275000Y-77040000D02*
X295275000Y-74930000D01*
X330835000Y-77040000D02*
X330835000Y-74930000D01*
X259715000Y-74930000D02*
X259715000Y-77040000D01*
X259715000Y-67310000D02*
X259715000Y-74930000D01*
X188595000Y-75565000D02*
X188595000Y-77040000D01*
X189230000Y-74930000D02*
X188595000Y-75565000D01*
X226695000Y-77040000D02*
X226695000Y-74295000D01*
X297815000Y-77040000D02*
X297815000Y-74295000D01*
X333375000Y-77040000D02*
X333375000Y-74295000D01*
X262255000Y-74295000D02*
X262255000Y-77040000D01*
X262255000Y-67310000D02*
X262255000Y-74295000D01*
X191135000Y-74930000D02*
X191135000Y-77040000D01*
X191770000Y-74295000D02*
X191135000Y-74930000D01*
X229235000Y-77040000D02*
X229235000Y-73660000D01*
X300355000Y-77040000D02*
X300355000Y-73660000D01*
X335915000Y-77040000D02*
X335915000Y-73660000D01*
X264795000Y-73660000D02*
X264795000Y-77040000D01*
X264795000Y-67310000D02*
X264795000Y-73660000D01*
X193675000Y-74295000D02*
X193675000Y-77040000D01*
X194310000Y-73660000D02*
X193675000Y-74295000D01*
X231775000Y-77040000D02*
X231775000Y-73025000D01*
X302895000Y-77040000D02*
X302895000Y-73025000D01*
X338455000Y-77040000D02*
X338455000Y-73025000D01*
X267335000Y-73025000D02*
X267335000Y-77040000D01*
X267335000Y-67310000D02*
X267335000Y-73025000D01*
X196215000Y-73660000D02*
X196215000Y-77040000D01*
X196850000Y-73025000D02*
X196215000Y-73660000D01*
X234315000Y-77040000D02*
X234315000Y-72390000D01*
X305435000Y-77040000D02*
X305435000Y-72390000D01*
X340995000Y-77040000D02*
X340995000Y-72390000D01*
X269875000Y-72390000D02*
X269875000Y-77040000D01*
X269875000Y-67310000D02*
X269875000Y-72390000D01*
X198755000Y-73025000D02*
X198755000Y-77040000D01*
X199390000Y-72390000D02*
X198755000Y-73025000D01*
X236855000Y-77040000D02*
X236855000Y-71755000D01*
X307975000Y-77040000D02*
X307975000Y-71755000D01*
X343535000Y-77040000D02*
X343535000Y-71755000D01*
X272415000Y-71755000D02*
X272415000Y-77040000D01*
X272415000Y-67310000D02*
X272415000Y-71755000D01*
X201295000Y-72390000D02*
X201295000Y-77040000D01*
X201930000Y-71755000D02*
X201295000Y-72390000D01*
X239395000Y-77040000D02*
X239395000Y-71120000D01*
X310515000Y-77040000D02*
X310515000Y-71120000D01*
X346075000Y-77040000D02*
X346075000Y-71120000D01*
X274955000Y-71120000D02*
X274955000Y-77040000D01*
X274955000Y-67310000D02*
X274955000Y-71120000D01*
X203835000Y-71755000D02*
X203835000Y-77040000D01*
X204470000Y-71120000D02*
X203835000Y-71755000D01*
X241935000Y-77040000D02*
X241935000Y-70485000D01*
X313055000Y-77040000D02*
X313055000Y-70485000D01*
X277495000Y-67310000D02*
X277495000Y-70485000D01*
X348615000Y-77040000D02*
X348615000Y-70485000D01*
X277495000Y-70485000D02*
X277495000Y-77040000D01*
X206375000Y-71120000D02*
X206375000Y-77040000D01*
X207010000Y-70485000D02*
X206375000Y-71120000D01*
X292735000Y-55040000D02*
X292735000Y-56515000D01*
X328295000Y-55040000D02*
X328295000Y-56515000D01*
X221615000Y-55040000D02*
X221615000Y-56515000D01*
X257175000Y-56515000D02*
X257175000Y-55040000D01*
X257175000Y-64770000D02*
X257175000Y-56515000D01*
X295275000Y-55040000D02*
X295275000Y-57150000D01*
X330835000Y-55040000D02*
X330835000Y-57150000D01*
X224155000Y-55040000D02*
X224155000Y-57150000D01*
X259715000Y-57150000D02*
X259715000Y-55040000D01*
X259715000Y-64770000D02*
X259715000Y-57150000D01*
X188595000Y-56515000D02*
X188595000Y-55040000D01*
X189230000Y-57150000D02*
X188595000Y-56515000D01*
X297815000Y-55040000D02*
X297815000Y-57785000D01*
X333375000Y-55040000D02*
X333375000Y-57785000D01*
X226695000Y-55040000D02*
X226695000Y-57785000D01*
X262255000Y-57785000D02*
X262255000Y-55040000D01*
X262255000Y-64770000D02*
X262255000Y-57785000D01*
X191135000Y-57150000D02*
X191135000Y-55040000D01*
X191770000Y-57785000D02*
X191135000Y-57150000D01*
X300355000Y-55040000D02*
X300355000Y-58420000D01*
X335915000Y-55040000D02*
X335915000Y-58420000D01*
X229235000Y-55040000D02*
X229235000Y-58420000D01*
X264795000Y-58420000D02*
X264795000Y-55040000D01*
X264795000Y-64770000D02*
X264795000Y-58420000D01*
X193675000Y-57785000D02*
X193675000Y-55040000D01*
X194310000Y-58420000D02*
X193675000Y-57785000D01*
X307975000Y-55040000D02*
X307975000Y-59055000D01*
X343535000Y-55040000D02*
X343535000Y-59055000D01*
X236855000Y-55040000D02*
X236855000Y-59055000D01*
X272415000Y-59055000D02*
X272415000Y-55040000D01*
X272415000Y-64770000D02*
X272415000Y-59055000D01*
X201295000Y-58420000D02*
X201295000Y-55040000D01*
X201930000Y-59055000D02*
X201295000Y-58420000D01*
X310515000Y-55040000D02*
X310515000Y-59690000D01*
X346075000Y-55040000D02*
X346075000Y-59690000D01*
X239395000Y-55040000D02*
X239395000Y-58420000D01*
X254000000Y-59055000D02*
X254635000Y-59690000D01*
X240030000Y-59055000D02*
X254000000Y-59055000D01*
X239395000Y-58420000D02*
X240030000Y-59055000D01*
X274955000Y-59690000D02*
X274955000Y-55040000D01*
X274955000Y-64770000D02*
X274955000Y-59690000D01*
X203835000Y-59055000D02*
X203835000Y-55040000D01*
X204470000Y-59690000D02*
X203835000Y-59055000D01*
X313055000Y-55040000D02*
X313055000Y-60325000D01*
X348615000Y-55040000D02*
X348615000Y-60325000D01*
X241935000Y-55040000D02*
X241935000Y-57785000D01*
X255905000Y-59055000D02*
X255905000Y-60325000D01*
X255270000Y-58420000D02*
X255905000Y-59055000D01*
X242570000Y-58420000D02*
X255270000Y-58420000D01*
X241935000Y-57785000D02*
X242570000Y-58420000D01*
X277495000Y-60325000D02*
X277495000Y-55040000D01*
X277495000Y-64770000D02*
X277495000Y-60325000D01*
X206375000Y-59690000D02*
X206375000Y-55040000D01*
X207010000Y-60325000D02*
X206375000Y-59690000D01*
X173355000Y-71120000D02*
X174625000Y-69850000D01*
X174625000Y-57150000D02*
X173355000Y-55880000D01*
X174625000Y-69850000D02*
X174625000Y-57150000D01*
X173355000Y-55880000D02*
X171450000Y-55880000D01*
X161925000Y-55880000D02*
X161290000Y-56515000D01*
X171450000Y-55880000D02*
X161925000Y-55880000D01*
X161290000Y-56515000D02*
X161290000Y-57150000D01*
X158750000Y-57150000D02*
X158750000Y-55245000D01*
X73660000Y-53975000D02*
X71755000Y-55880000D01*
X157480000Y-53975000D02*
X73660000Y-53975000D01*
X158750000Y-55245000D02*
X157480000Y-53975000D01*
X158750000Y-57150000D02*
X158750000Y-55880000D01*
X175260000Y-71120000D02*
X175260000Y-55880000D01*
X175260000Y-55880000D02*
X173990000Y-54610000D01*
X173990000Y-54610000D02*
X172085000Y-54610000D01*
X172085000Y-54610000D02*
X171450000Y-55245000D01*
X171450000Y-55245000D02*
X159385000Y-55245000D01*
X159385000Y-55245000D02*
X158750000Y-55880000D01*
X173355000Y-73025000D02*
X175260000Y-71120000D01*
X72390000Y-55245000D02*
X71755000Y-55880000D01*
X173355000Y-73660000D02*
X173355000Y-73025000D01*
X81915000Y-74930000D02*
X82550000Y-74930000D01*
X82550000Y-74930000D02*
X83820000Y-73660000D01*
X83820000Y-73660000D02*
X99695000Y-73660000D01*
X155575000Y-71755000D02*
X156210000Y-71120000D01*
X156210000Y-71120000D02*
X156210000Y-70485000D01*
X156210000Y-70485000D02*
X156845000Y-69850000D01*
X76835000Y-74930000D02*
X77470000Y-74930000D01*
X77470000Y-74930000D02*
X80645000Y-71755000D01*
X80645000Y-71755000D02*
X101600000Y-71755000D01*
X101600000Y-71755000D02*
X102870000Y-73025000D01*
X152400000Y-73025000D02*
X153670000Y-71755000D01*
X153670000Y-71755000D02*
X153670000Y-69850000D01*
X107315000Y-60960000D02*
X95250000Y-60960000D01*
X107950000Y-61595000D02*
X107315000Y-60960000D01*
X127635000Y-61595000D02*
X107950000Y-61595000D01*
X129540000Y-63500000D02*
X127635000Y-61595000D01*
X138430000Y-63500000D02*
X129540000Y-63500000D01*
X139065000Y-62865000D02*
X138430000Y-63500000D01*
X139065000Y-60960000D02*
X139065000Y-62865000D01*
X139700000Y-60325000D02*
X139065000Y-60960000D01*
X141605000Y-60325000D02*
X139700000Y-60325000D01*
X142240000Y-64135000D02*
X140970000Y-62865000D01*
X142240000Y-73025000D02*
X142240000Y-64135000D01*
X140335000Y-74930000D02*
X142240000Y-73025000D01*
D26*
X102235000Y-64770000D02*
X102235000Y-68072000D01*
X122555000Y-71120000D02*
X126365000Y-74930000D01*
X105283000Y-71120000D02*
X122555000Y-71120000D01*
X102235000Y-68072000D02*
X105283000Y-71120000D01*
D25*
X126365000Y-74930000D02*
X125730000Y-74930000D01*
D26*
X99695000Y-64770000D02*
X99695000Y-68834000D01*
X120650000Y-71755000D02*
X123825000Y-74930000D01*
X105029000Y-71755000D02*
X120650000Y-71755000D01*
X103251000Y-69977000D02*
X105029000Y-71755000D01*
X100838000Y-69977000D02*
X103251000Y-69977000D01*
X99695000Y-68834000D02*
X100838000Y-69977000D01*
D25*
X123825000Y-74930000D02*
X123825000Y-74295000D01*
D26*
X86995000Y-64770000D02*
X87376000Y-64770000D01*
X87376000Y-64770000D02*
X88773000Y-63373000D01*
X88773000Y-63373000D02*
X97790000Y-63373000D01*
X97790000Y-63373000D02*
X98425000Y-64008000D01*
X98425000Y-64008000D02*
X98425000Y-68453000D01*
X98425000Y-68453000D02*
X100457000Y-70485000D01*
X100457000Y-70485000D02*
X102997000Y-70485000D01*
X102997000Y-70485000D02*
X104902000Y-72390000D01*
X104902000Y-72390000D02*
X118745000Y-72390000D01*
X118745000Y-72390000D02*
X121285000Y-74930000D01*
D25*
X121285000Y-74930000D02*
X121285000Y-74295000D01*
X107315000Y-57785000D02*
X99060000Y-57785000D01*
X130810000Y-57150000D02*
X128905000Y-57150000D01*
X127635000Y-58420000D02*
X128905000Y-57150000D01*
X107950000Y-58420000D02*
X127635000Y-58420000D01*
X107315000Y-57785000D02*
X107950000Y-58420000D01*
X97790000Y-55880000D02*
X98425000Y-56515000D01*
X92710000Y-55880000D02*
X97790000Y-55880000D01*
X92710000Y-55880000D02*
X92075000Y-56515000D01*
X98425000Y-57150000D02*
X98425000Y-56515000D01*
X99060000Y-57785000D02*
X98425000Y-57150000D01*
X92075000Y-57150000D02*
X92075000Y-56515000D01*
X107950000Y-59055000D02*
X122555000Y-59055000D01*
X107315000Y-58420000D02*
X107950000Y-59055000D01*
X90170000Y-58420000D02*
X107315000Y-58420000D01*
X89535000Y-57785000D02*
X90170000Y-58420000D01*
X129540000Y-64770000D02*
X130810000Y-64770000D01*
X128905000Y-64135000D02*
X129540000Y-64770000D01*
X89535000Y-57150000D02*
X89535000Y-57785000D01*
X130175000Y-64770000D02*
X130810000Y-64770000D01*
X106045000Y-68580000D02*
X114935000Y-68580000D01*
X115570000Y-69215000D02*
X105410000Y-69215000D01*
X137795000Y-73025000D02*
X137795000Y-66040000D01*
X139065000Y-74295000D02*
X137795000Y-73025000D01*
X158750000Y-74930000D02*
X158115000Y-74295000D01*
X161290000Y-74930000D02*
X158750000Y-74930000D01*
X161290000Y-74930000D02*
X162560000Y-73660000D01*
X163195000Y-73660000D02*
X162560000Y-73660000D01*
X139065000Y-73660000D02*
X139700000Y-73660000D01*
X139065000Y-73660000D02*
X138430000Y-73025000D01*
X138430000Y-64770000D02*
X138430000Y-73025000D01*
X107315000Y-61595000D02*
X99060000Y-61595000D01*
X107950000Y-62230000D02*
X107315000Y-61595000D01*
X127000000Y-62230000D02*
X107950000Y-62230000D01*
X127635000Y-62865000D02*
X127000000Y-62230000D01*
X127635000Y-64770000D02*
X127635000Y-62865000D01*
X130810000Y-67945000D02*
X127635000Y-64770000D01*
X154305000Y-67945000D02*
X152400000Y-69850000D01*
X160655000Y-67945000D02*
X154305000Y-67945000D01*
X161925000Y-69215000D02*
X160655000Y-67945000D01*
X161925000Y-73025000D02*
X161925000Y-69215000D01*
X161290000Y-73660000D02*
X161925000Y-73025000D01*
X160655000Y-73660000D02*
X161290000Y-73660000D01*
X144145000Y-59055000D02*
X151765000Y-59055000D01*
X106680000Y-59690000D02*
X107315000Y-59690000D01*
X88900000Y-59690000D02*
X106680000Y-59690000D01*
X87630000Y-58420000D02*
X88900000Y-59690000D01*
X80645000Y-58420000D02*
X87630000Y-58420000D01*
X79375000Y-57150000D02*
X80645000Y-58420000D01*
X132080000Y-59055000D02*
X144145000Y-59055000D01*
X107950000Y-60325000D02*
X128905000Y-60325000D01*
X107315000Y-59690000D02*
X107950000Y-60325000D01*
X152400000Y-63500000D02*
X151130000Y-64770000D01*
X152400000Y-59690000D02*
X152400000Y-63500000D01*
X151765000Y-59055000D02*
X152400000Y-59690000D01*
X144780000Y-59690000D02*
X151130000Y-59690000D01*
X132715000Y-59690000D02*
X144145000Y-59690000D01*
X107950000Y-60960000D02*
X129540000Y-60960000D01*
X107315000Y-60325000D02*
X107950000Y-60960000D01*
X88900000Y-60325000D02*
X107315000Y-60325000D01*
X87630000Y-59055000D02*
X88900000Y-60325000D01*
X79375000Y-59055000D02*
X87630000Y-59055000D01*
X77470000Y-57150000D02*
X79375000Y-59055000D01*
X144145000Y-59690000D02*
X144780000Y-59690000D01*
X153035000Y-66040000D02*
X153670000Y-65405000D01*
X150495000Y-66040000D02*
X153035000Y-66040000D01*
X149860000Y-65405000D02*
X150495000Y-66040000D01*
X149860000Y-64135000D02*
X149860000Y-65405000D01*
X150495000Y-63500000D02*
X149860000Y-64135000D01*
X151130000Y-63500000D02*
X150495000Y-63500000D01*
X151765000Y-62865000D02*
X151130000Y-63500000D01*
X151765000Y-60325000D02*
X151765000Y-62865000D01*
X151130000Y-59690000D02*
X151765000Y-60325000D01*
X153670000Y-65405000D02*
X153670000Y-64770000D01*
X76835000Y-57150000D02*
X77470000Y-57150000D01*
X79375000Y-74930000D02*
X81280000Y-73025000D01*
X154940000Y-71755000D02*
X154940000Y-69850000D01*
X154305000Y-72390000D02*
X154940000Y-71755000D01*
X100330000Y-73025000D02*
X100965000Y-72390000D01*
X81280000Y-73025000D02*
X100330000Y-73025000D01*
X156845000Y-71120000D02*
X158750000Y-69215000D01*
X158750000Y-69215000D02*
X158750000Y-68580000D01*
X151765000Y-58420000D02*
X153035000Y-59690000D01*
X81915000Y-57150000D02*
X87630000Y-57150000D01*
X87630000Y-57150000D02*
X89535000Y-59055000D01*
X89535000Y-59055000D02*
X107315000Y-59055000D01*
X107315000Y-59055000D02*
X107950000Y-59690000D01*
X107950000Y-59690000D02*
X129540000Y-59690000D01*
X149860000Y-58420000D02*
X151765000Y-58420000D01*
X131445000Y-58420000D02*
X144780000Y-58420000D01*
X144780000Y-58420000D02*
X149860000Y-58420000D01*
X162560000Y-63500000D02*
X163830000Y-64770000D01*
X153670000Y-63500000D02*
X162560000Y-63500000D01*
X153035000Y-62865000D02*
X153670000Y-63500000D01*
X153035000Y-59690000D02*
X153035000Y-62865000D01*
D26*
X252095000Y-64770000D02*
X252095000Y-61595000D01*
X252095000Y-61595000D02*
X251460000Y-60960000D01*
X251460000Y-60960000D02*
X199390000Y-60960000D01*
X199390000Y-60960000D02*
X198755000Y-60325000D01*
X198755000Y-60325000D02*
X198755000Y-55040000D01*
D25*
X198755000Y-55040000D02*
X196215000Y-55040000D01*
D26*
X254635000Y-64770000D02*
X254635000Y-60960000D01*
X254635000Y-60960000D02*
X253365000Y-59690000D01*
X253365000Y-59690000D02*
X234950000Y-59690000D01*
X234950000Y-59690000D02*
X234315000Y-59055000D01*
X234315000Y-59055000D02*
X234315000Y-55040000D01*
D25*
X234315000Y-55880000D02*
X234315000Y-55040000D01*
X234315000Y-55040000D02*
X231775000Y-55040000D01*
D26*
X267335000Y-64770000D02*
X267335000Y-55040000D01*
D25*
X267335000Y-55040000D02*
X269875000Y-55040000D01*
D26*
X302260000Y-60960000D02*
X302895000Y-60325000D01*
X302895000Y-60325000D02*
X302895000Y-55040000D01*
D25*
X302895000Y-55040000D02*
X305435000Y-55040000D01*
D26*
X280035000Y-64770000D02*
X280035000Y-62230000D01*
X280035000Y-62230000D02*
X280670000Y-61595000D01*
X280670000Y-61595000D02*
X302895000Y-61595000D01*
X302895000Y-61595000D02*
X303530000Y-60960000D01*
X303530000Y-60960000D02*
X337820000Y-60960000D01*
X337820000Y-60960000D02*
X338455000Y-60325000D01*
X338455000Y-60325000D02*
X338455000Y-55040000D01*
D25*
X280035000Y-64770000D02*
X280035000Y-64135000D01*
X338455000Y-55040000D02*
X340995000Y-55040000D01*
D26*
X282575000Y-64770000D02*
X282575000Y-62865000D01*
X282575000Y-62865000D02*
X283210000Y-62230000D01*
X283210000Y-62230000D02*
X302895000Y-62230000D01*
X302895000Y-62230000D02*
X303530000Y-61595000D01*
X303530000Y-61595000D02*
X337820000Y-61595000D01*
X337820000Y-61595000D02*
X338455000Y-60960000D01*
X338455000Y-60960000D02*
X373380000Y-60960000D01*
X373380000Y-60960000D02*
X374015000Y-60325000D01*
X374015000Y-60325000D02*
X374015000Y-55040000D01*
D25*
X374015000Y-55040000D02*
X376555000Y-55040000D01*
X149225000Y-61595000D02*
X141605000Y-61595000D01*
X149225000Y-61595000D02*
X150495000Y-61595000D01*
X150495000Y-61595000D02*
X151130000Y-60960000D01*
X140335000Y-61595000D02*
X141605000Y-61595000D01*
X126365000Y-57150000D02*
X126365000Y-56515000D01*
X151130000Y-56515000D02*
X151130000Y-57150000D01*
X137795000Y-62230000D02*
X138430000Y-61595000D01*
X138430000Y-61595000D02*
X138430000Y-60960000D01*
X135255000Y-62865000D02*
X135890000Y-62230000D01*
X135890000Y-62230000D02*
X135890000Y-60960000D01*
D26*
X100330000Y-71120000D02*
X86360000Y-71120000D01*
X85725000Y-70485000D02*
X85725000Y-67945000D01*
X86360000Y-71120000D02*
X85725000Y-70485000D01*
X102870000Y-71120000D02*
X100330000Y-71120000D01*
X100330000Y-71120000D02*
X100076000Y-71120000D01*
X117475000Y-73025000D02*
X104775000Y-73025000D01*
X104775000Y-73025000D02*
X102870000Y-71120000D01*
X118745000Y-74295000D02*
X117475000Y-73025000D01*
X85725000Y-66040000D02*
X84455000Y-64770000D01*
X85725000Y-67945000D02*
X85725000Y-66040000D01*
X85725000Y-68199000D02*
X85725000Y-67945000D01*
X118745000Y-74930000D02*
X118745000Y-74295000D01*
X116205000Y-74930000D02*
X114935000Y-73660000D01*
X74930000Y-74930000D02*
X74930000Y-65405000D01*
X75565000Y-75565000D02*
X74930000Y-74930000D01*
X76200000Y-76200000D02*
X75565000Y-75565000D01*
X97790000Y-76200000D02*
X76200000Y-76200000D01*
X98425000Y-75565000D02*
X97790000Y-76200000D01*
X106045000Y-75565000D02*
X98425000Y-75565000D01*
X106680000Y-74930000D02*
X106045000Y-75565000D01*
X107950000Y-73660000D02*
X106680000Y-74930000D01*
X114935000Y-73660000D02*
X107950000Y-73660000D01*
D25*
X74930000Y-65405000D02*
X74295000Y-64770000D01*
D26*
X113665000Y-74930000D02*
X112395000Y-76200000D01*
X74295000Y-68224398D02*
X71755000Y-65684398D01*
X74295000Y-75565000D02*
X74295000Y-68224398D01*
X75565000Y-76835000D02*
X74295000Y-75565000D01*
X97790000Y-76835000D02*
X75565000Y-76835000D01*
X98425000Y-76200000D02*
X97790000Y-76835000D01*
X112395000Y-76200000D02*
X98425000Y-76200000D01*
X71755000Y-65684398D02*
X71755000Y-64770000D01*
D25*
X97155000Y-67310000D02*
X97155000Y-69850000D01*
X94615000Y-69850000D02*
X94615000Y-67310000D01*
X92075000Y-67310000D02*
X92075000Y-69850000D01*
X89535000Y-69850000D02*
X89535000Y-67310000D01*
X86995000Y-67310000D02*
X86995000Y-69850000D01*
X84455000Y-69850000D02*
X84455000Y-67310000D01*
X81915000Y-67310000D02*
X81915000Y-69850000D01*
X79375000Y-69850000D02*
X79375000Y-67310000D01*
X76835000Y-67310000D02*
X76835000Y-69850000D01*
X108585000Y-64770000D02*
X111125000Y-67310000D01*
X111125000Y-64770000D02*
X113665000Y-67310000D01*
X113665000Y-64770000D02*
X116205000Y-67310000D01*
X116205000Y-64770000D02*
X118745000Y-67310000D01*
X118745000Y-64770000D02*
X121285000Y-67310000D01*
X121285000Y-64770000D02*
X123825000Y-67310000D01*
X123825000Y-64770000D02*
X126365000Y-67310000D01*
D26*
G36*
X72320143Y-54309069D02*
X71755000Y-54196655D01*
X71123190Y-54322330D01*
X70587567Y-54680222D01*
X70229675Y-55215845D01*
X70104000Y-55847655D01*
X70104000Y-55912345D01*
X70229675Y-56544155D01*
X70432004Y-56846962D01*
X70287559Y-56939910D01*
X70142569Y-57152110D01*
X70091560Y-57404000D01*
X70091560Y-59436000D01*
X70135838Y-59671317D01*
X70274910Y-59887441D01*
X70456361Y-60011421D01*
X70404268Y-60057964D01*
X70150291Y-60585209D01*
X70147642Y-60600974D01*
X70268783Y-60833000D01*
X71628000Y-60833000D01*
X71628000Y-60813000D01*
X71882000Y-60813000D01*
X71882000Y-60833000D01*
X73241217Y-60833000D01*
X73362358Y-60600974D01*
X73359709Y-60585209D01*
X73105732Y-60057964D01*
X73051876Y-60009846D01*
X73222441Y-59900090D01*
X73367431Y-59687890D01*
X73418440Y-59436000D01*
X73418440Y-57404000D01*
X73374162Y-57168683D01*
X73235090Y-56952559D01*
X73078794Y-56845767D01*
X73280325Y-56544155D01*
X73406000Y-55912345D01*
X73406000Y-55847655D01*
X73304319Y-55336469D01*
X73954588Y-54686200D01*
X157185412Y-54686200D01*
X158038800Y-55539589D01*
X158038800Y-55904398D01*
X157735302Y-56107189D01*
X157480000Y-56489275D01*
X157224698Y-56107189D01*
X156759151Y-55796120D01*
X156210000Y-55686887D01*
X155660849Y-55796120D01*
X155195302Y-56107189D01*
X154940000Y-56489275D01*
X154684698Y-56107189D01*
X154219151Y-55796120D01*
X153670000Y-55686887D01*
X153120849Y-55796120D01*
X152655302Y-56107189D01*
X152400000Y-56489275D01*
X152144698Y-56107189D01*
X151679151Y-55796120D01*
X151130000Y-55686887D01*
X150580849Y-55796120D01*
X150115302Y-56107189D01*
X149845014Y-56511703D01*
X149742389Y-56294866D01*
X149327423Y-55918959D01*
X148939039Y-55758096D01*
X148717000Y-55880085D01*
X148717000Y-57023000D01*
X148737000Y-57023000D01*
X148737000Y-57277000D01*
X148717000Y-57277000D01*
X148717000Y-57297000D01*
X148463000Y-57297000D01*
X148463000Y-57277000D01*
X148443000Y-57277000D01*
X148443000Y-57023000D01*
X148463000Y-57023000D01*
X148463000Y-55880085D01*
X148240961Y-55758096D01*
X147852577Y-55918959D01*
X147437611Y-56294866D01*
X147334986Y-56511703D01*
X147064698Y-56107189D01*
X146599151Y-55796120D01*
X146050000Y-55686887D01*
X145500849Y-55796120D01*
X145035302Y-56107189D01*
X144780000Y-56489275D01*
X144524698Y-56107189D01*
X144059151Y-55796120D01*
X143510000Y-55686887D01*
X142960849Y-55796120D01*
X142495302Y-56107189D01*
X142240000Y-56489275D01*
X141984698Y-56107189D01*
X141519151Y-55796120D01*
X140970000Y-55686887D01*
X140420849Y-55796120D01*
X139955302Y-56107189D01*
X139700000Y-56489275D01*
X139444698Y-56107189D01*
X138979151Y-55796120D01*
X138430000Y-55686887D01*
X137880849Y-55796120D01*
X137415302Y-56107189D01*
X137160000Y-56489275D01*
X136904698Y-56107189D01*
X136439151Y-55796120D01*
X135890000Y-55686887D01*
X135340849Y-55796120D01*
X134875302Y-56107189D01*
X134620000Y-56489275D01*
X134364698Y-56107189D01*
X133899151Y-55796120D01*
X133350000Y-55686887D01*
X132800849Y-55796120D01*
X132335302Y-56107189D01*
X132080000Y-56489275D01*
X131824698Y-56107189D01*
X131359151Y-55796120D01*
X130810000Y-55686887D01*
X130260849Y-55796120D01*
X129795302Y-56107189D01*
X129573726Y-56438800D01*
X128905000Y-56438800D01*
X128677990Y-56483955D01*
X128632835Y-56492937D01*
X128402105Y-56647106D01*
X127812440Y-57236771D01*
X127812440Y-56350000D01*
X127768162Y-56114683D01*
X127629090Y-55898559D01*
X127416890Y-55753569D01*
X127165000Y-55702560D01*
X125565000Y-55702560D01*
X125329683Y-55746838D01*
X125113559Y-55885910D01*
X124968569Y-56098110D01*
X124937185Y-56253089D01*
X124839698Y-56107189D01*
X124374151Y-55796120D01*
X123825000Y-55686887D01*
X123275849Y-55796120D01*
X122810302Y-56107189D01*
X122555000Y-56489275D01*
X122299698Y-56107189D01*
X121834151Y-55796120D01*
X121285000Y-55686887D01*
X120735849Y-55796120D01*
X120270302Y-56107189D01*
X120015000Y-56489275D01*
X119759698Y-56107189D01*
X119294151Y-55796120D01*
X118745000Y-55686887D01*
X118195849Y-55796120D01*
X117730302Y-56107189D01*
X117475000Y-56489275D01*
X117219698Y-56107189D01*
X116754151Y-55796120D01*
X116205000Y-55686887D01*
X115655849Y-55796120D01*
X115190302Y-56107189D01*
X114920014Y-56511703D01*
X114817389Y-56294866D01*
X114402423Y-55918959D01*
X114014039Y-55758096D01*
X113792000Y-55880085D01*
X113792000Y-57023000D01*
X113812000Y-57023000D01*
X113812000Y-57277000D01*
X113792000Y-57277000D01*
X113792000Y-57297000D01*
X113538000Y-57297000D01*
X113538000Y-57277000D01*
X113518000Y-57277000D01*
X113518000Y-57023000D01*
X113538000Y-57023000D01*
X113538000Y-55880085D01*
X113315961Y-55758096D01*
X112927577Y-55918959D01*
X112512611Y-56294866D01*
X112409986Y-56511703D01*
X112139698Y-56107189D01*
X111674151Y-55796120D01*
X111125000Y-55686887D01*
X110575849Y-55796120D01*
X110110302Y-56107189D01*
X109855000Y-56489275D01*
X109599698Y-56107189D01*
X109134151Y-55796120D01*
X108585000Y-55686887D01*
X108035849Y-55796120D01*
X107570302Y-56107189D01*
X107259233Y-56572736D01*
X107159565Y-57073800D01*
X99354589Y-57073800D01*
X99136200Y-56855412D01*
X99136200Y-56515000D01*
X99082063Y-56242836D01*
X99021478Y-56152164D01*
X98927895Y-56012106D01*
X98292894Y-55377106D01*
X98062165Y-55222937D01*
X97790000Y-55168800D01*
X92710000Y-55168800D01*
X92437836Y-55222937D01*
X92207106Y-55377105D01*
X91831425Y-55752787D01*
X91798339Y-55752758D01*
X91284697Y-55964990D01*
X90891371Y-56357630D01*
X90805051Y-56565512D01*
X90720010Y-56359697D01*
X90327370Y-55966371D01*
X89814100Y-55753243D01*
X89258339Y-55752758D01*
X88744697Y-55964990D01*
X88351371Y-56357630D01*
X88202336Y-56716548D01*
X88132894Y-56647106D01*
X87902165Y-56492937D01*
X87630000Y-56438800D01*
X83132695Y-56438800D01*
X83100010Y-56359697D01*
X82707370Y-55966371D01*
X82194100Y-55753243D01*
X81638339Y-55752758D01*
X81124697Y-55964990D01*
X80731371Y-56357630D01*
X80645051Y-56565512D01*
X80560010Y-56359697D01*
X80167370Y-55966371D01*
X79654100Y-55753243D01*
X79098339Y-55752758D01*
X78584697Y-55964990D01*
X78191371Y-56357630D01*
X78105051Y-56565512D01*
X78020010Y-56359697D01*
X77627370Y-55966371D01*
X77114100Y-55753243D01*
X76558339Y-55752758D01*
X76044697Y-55964990D01*
X75651371Y-56357630D01*
X75438243Y-56870900D01*
X75437758Y-57426661D01*
X75649990Y-57940303D01*
X76042630Y-58333629D01*
X76555900Y-58546757D01*
X77111661Y-58547242D01*
X77625303Y-58335010D01*
X77637273Y-58323061D01*
X78872106Y-59557894D01*
X79102835Y-59712063D01*
X79375000Y-59766200D01*
X87335412Y-59766200D01*
X88397105Y-60827894D01*
X88627835Y-60982063D01*
X88672990Y-60991045D01*
X88809526Y-61018203D01*
X88744697Y-61044990D01*
X88351371Y-61437630D01*
X88138243Y-61950900D01*
X88137758Y-62506661D01*
X88264671Y-62813814D01*
X88234184Y-62834185D01*
X87747817Y-63320552D01*
X87568489Y-63200729D01*
X86995000Y-63086655D01*
X86421511Y-63200729D01*
X85935330Y-63525585D01*
X85725000Y-63840366D01*
X85514670Y-63525585D01*
X85028489Y-63200729D01*
X84455000Y-63086655D01*
X83881511Y-63200729D01*
X83395330Y-63525585D01*
X83185000Y-63840366D01*
X82974670Y-63525585D01*
X82746955Y-63373431D01*
X83098629Y-63022370D01*
X83311757Y-62509100D01*
X83312242Y-61953339D01*
X83100010Y-61439697D01*
X82707370Y-61046371D01*
X82194100Y-60833243D01*
X81638339Y-60832758D01*
X81124697Y-61044990D01*
X80731371Y-61437630D01*
X80645051Y-61645512D01*
X80560010Y-61439697D01*
X80167370Y-61046371D01*
X79654100Y-60833243D01*
X79098339Y-60832758D01*
X78584697Y-61044990D01*
X78191371Y-61437630D01*
X78105051Y-61645512D01*
X78020010Y-61439697D01*
X77627370Y-61046371D01*
X77114100Y-60833243D01*
X76558339Y-60832758D01*
X76044697Y-61044990D01*
X75651371Y-61437630D01*
X75438243Y-61950900D01*
X75437758Y-62506661D01*
X75649990Y-63020303D01*
X76002719Y-63373648D01*
X75775330Y-63525585D01*
X75565000Y-63840366D01*
X75354670Y-63525585D01*
X74868489Y-63200729D01*
X74295000Y-63086655D01*
X73721511Y-63200729D01*
X73235330Y-63525585D01*
X73025000Y-63840366D01*
X72814670Y-63525585D01*
X72328489Y-63200729D01*
X71755000Y-63086655D01*
X71181511Y-63200729D01*
X70695330Y-63525585D01*
X70370474Y-64011766D01*
X70256400Y-64585255D01*
X70256400Y-64954745D01*
X70370474Y-65528234D01*
X70695330Y-66014415D01*
X71181511Y-66339271D01*
X71369670Y-66376698D01*
X73533000Y-68540029D01*
X73533000Y-75565000D01*
X73591004Y-75856605D01*
X73727901Y-76061485D01*
X73756185Y-76103815D01*
X75026184Y-77373815D01*
X75192918Y-77485223D01*
X75273395Y-77538996D01*
X75565000Y-77597000D01*
X97790000Y-77597000D01*
X98081605Y-77538996D01*
X98328815Y-77373815D01*
X98740631Y-76962000D01*
X112395000Y-76962000D01*
X112686605Y-76903996D01*
X112933815Y-76738815D01*
X113343473Y-76329157D01*
X113665000Y-76393113D01*
X114214151Y-76283880D01*
X114679698Y-75972811D01*
X114935000Y-75590725D01*
X115190302Y-75972811D01*
X115655849Y-76283880D01*
X116205000Y-76393113D01*
X116754151Y-76283880D01*
X117219698Y-75972811D01*
X117475000Y-75590725D01*
X117730302Y-75972811D01*
X118195849Y-76283880D01*
X118745000Y-76393113D01*
X119294151Y-76283880D01*
X119759698Y-75972811D01*
X120015000Y-75590725D01*
X120270302Y-75972811D01*
X120735849Y-76283880D01*
X121285000Y-76393113D01*
X121834151Y-76283880D01*
X122299698Y-75972811D01*
X122555000Y-75590725D01*
X122810302Y-75972811D01*
X123275849Y-76283880D01*
X123825000Y-76393113D01*
X124374151Y-76283880D01*
X124839698Y-75972811D01*
X125095000Y-75590725D01*
X125350302Y-75972811D01*
X125815849Y-76283880D01*
X126365000Y-76393113D01*
X126914151Y-76283880D01*
X127379698Y-75972811D01*
X127690767Y-75507264D01*
X127800000Y-74958113D01*
X127800000Y-74901887D01*
X127690767Y-74352736D01*
X127379698Y-73887189D01*
X126914151Y-73576120D01*
X126365000Y-73466887D01*
X126043473Y-73530843D01*
X123093815Y-70581185D01*
X123016698Y-70529657D01*
X122846605Y-70416004D01*
X122555000Y-70358000D01*
X105598630Y-70358000D01*
X105433551Y-70192921D01*
X105603663Y-70193069D01*
X105963212Y-70044507D01*
X106081726Y-69926200D01*
X114898206Y-69926200D01*
X115015341Y-70043540D01*
X115374630Y-70192730D01*
X115763663Y-70193069D01*
X116123212Y-70044507D01*
X116398540Y-69769659D01*
X116547730Y-69410370D01*
X116548069Y-69021337D01*
X116427240Y-68728907D01*
X116754151Y-68663880D01*
X117219698Y-68352811D01*
X117475000Y-67970725D01*
X117730302Y-68352811D01*
X118195849Y-68663880D01*
X118745000Y-68773113D01*
X119294151Y-68663880D01*
X119759698Y-68352811D01*
X120015000Y-67970725D01*
X120270302Y-68352811D01*
X120735849Y-68663880D01*
X121285000Y-68773113D01*
X121834151Y-68663880D01*
X122299698Y-68352811D01*
X122555000Y-67970725D01*
X122810302Y-68352811D01*
X123275849Y-68663880D01*
X123825000Y-68773113D01*
X124374151Y-68663880D01*
X124839698Y-68352811D01*
X124936101Y-68208535D01*
X124961838Y-68345317D01*
X125100910Y-68561441D01*
X125313110Y-68706431D01*
X125565000Y-68757440D01*
X127165000Y-68757440D01*
X127400317Y-68713162D01*
X127616441Y-68574090D01*
X127761431Y-68361890D01*
X127812440Y-68110000D01*
X127812440Y-66510000D01*
X127768162Y-66274683D01*
X127629090Y-66058559D01*
X127416890Y-65913569D01*
X127238796Y-65877504D01*
X127500052Y-65640840D01*
X129832075Y-67972863D01*
X129831931Y-68138663D01*
X129980493Y-68498212D01*
X130255341Y-68773540D01*
X130614630Y-68922730D01*
X131003663Y-68923069D01*
X131363212Y-68774507D01*
X131638540Y-68499659D01*
X131787730Y-68140370D01*
X131788069Y-67751337D01*
X131639507Y-67391788D01*
X131364659Y-67116460D01*
X131005370Y-66967270D01*
X130837912Y-66967124D01*
X129305304Y-65434516D01*
X129540000Y-65481200D01*
X129573726Y-65481200D01*
X129795302Y-65812811D01*
X130260849Y-66123880D01*
X130810000Y-66233113D01*
X131359151Y-66123880D01*
X131824698Y-65812811D01*
X132080000Y-65430725D01*
X132335302Y-65812811D01*
X132800849Y-66123880D01*
X133350000Y-66233113D01*
X133899151Y-66123880D01*
X134364698Y-65812811D01*
X134620000Y-65430725D01*
X134875302Y-65812811D01*
X135340849Y-66123880D01*
X135890000Y-66233113D01*
X136439151Y-66123880D01*
X136817247Y-65871244D01*
X136816931Y-66233663D01*
X136965493Y-66593212D01*
X137083800Y-66711726D01*
X137083800Y-73025000D01*
X137137937Y-73297165D01*
X137292106Y-73527894D01*
X138087075Y-74322864D01*
X138086931Y-74488663D01*
X138235493Y-74848212D01*
X138510341Y-75123540D01*
X138869630Y-75272730D01*
X139258663Y-75273069D01*
X139395331Y-75216599D01*
X139505493Y-75483212D01*
X139780341Y-75758540D01*
X140139630Y-75907730D01*
X140528663Y-75908069D01*
X140888212Y-75759507D01*
X141163540Y-75484659D01*
X141312730Y-75125370D01*
X141312876Y-74957912D01*
X142742894Y-73527894D01*
X142897063Y-73297165D01*
X142951200Y-73025000D01*
X142951200Y-70043663D01*
X151421931Y-70043663D01*
X151570493Y-70403212D01*
X151845341Y-70678540D01*
X152204630Y-70827730D01*
X152593663Y-70828069D01*
X152953212Y-70679507D01*
X152958800Y-70673929D01*
X152958800Y-71460411D01*
X152372136Y-72047075D01*
X152206337Y-72046931D01*
X151846788Y-72195493D01*
X151571460Y-72470341D01*
X151422270Y-72829630D01*
X151421931Y-73218663D01*
X151570493Y-73578212D01*
X151845341Y-73853540D01*
X152204630Y-74002730D01*
X152593663Y-74003069D01*
X152953212Y-73854507D01*
X153228540Y-73579659D01*
X153377730Y-73220370D01*
X153377876Y-73052912D01*
X153481529Y-72949259D01*
X153750341Y-73218540D01*
X154109630Y-73367730D01*
X154498663Y-73368069D01*
X154858212Y-73219507D01*
X155133540Y-72944659D01*
X155244790Y-72676739D01*
X155379630Y-72732730D01*
X155768663Y-72733069D01*
X156128212Y-72584507D01*
X156403540Y-72309659D01*
X156514790Y-72041739D01*
X156649630Y-72097730D01*
X157038663Y-72098069D01*
X157398212Y-71949507D01*
X157673540Y-71674659D01*
X157822730Y-71315370D01*
X157822876Y-71147912D01*
X159252894Y-69717894D01*
X159407063Y-69487165D01*
X159452068Y-69260911D01*
X159578540Y-69134659D01*
X159727730Y-68775370D01*
X159727834Y-68656200D01*
X160360412Y-68656200D01*
X161213800Y-69509589D01*
X161213800Y-69608960D01*
X159791400Y-69608960D01*
X159556083Y-69653238D01*
X159339959Y-69792310D01*
X159194969Y-70004510D01*
X159143960Y-70256400D01*
X159143960Y-71983600D01*
X159188238Y-72218917D01*
X159327310Y-72435041D01*
X159539510Y-72580031D01*
X159583345Y-72588908D01*
X159270474Y-73057152D01*
X159156400Y-73630641D01*
X159156400Y-73689359D01*
X159261712Y-74218800D01*
X159092967Y-74218800D01*
X159093069Y-74101337D01*
X158944507Y-73741788D01*
X158669659Y-73466460D01*
X158310370Y-73317270D01*
X157921337Y-73316931D01*
X157561788Y-73465493D01*
X157286460Y-73740341D01*
X157137270Y-74099630D01*
X157136931Y-74488663D01*
X157285493Y-74848212D01*
X157560341Y-75123540D01*
X157919630Y-75272730D01*
X158087087Y-75272876D01*
X158247106Y-75432895D01*
X158477836Y-75587063D01*
X158750000Y-75641200D01*
X159261712Y-75641200D01*
X159156400Y-76170641D01*
X159156400Y-76229359D01*
X159270474Y-76802848D01*
X159595330Y-77289029D01*
X160081511Y-77613885D01*
X160655000Y-77727959D01*
X161228489Y-77613885D01*
X161714670Y-77289029D01*
X161925000Y-76974248D01*
X162135330Y-77289029D01*
X162621511Y-77613885D01*
X163195000Y-77727959D01*
X163768489Y-77613885D01*
X164254670Y-77289029D01*
X164579526Y-76802848D01*
X164693600Y-76229359D01*
X164693600Y-76170641D01*
X164579526Y-75597152D01*
X164254670Y-75110971D01*
X163983828Y-74930000D01*
X164254670Y-74749029D01*
X164579526Y-74262848D01*
X164693600Y-73689359D01*
X164693600Y-73630641D01*
X164579526Y-73057152D01*
X164254670Y-72570971D01*
X163983839Y-72390008D01*
X164401821Y-72008490D01*
X164649968Y-71479027D01*
X164529469Y-71247000D01*
X163322000Y-71247000D01*
X163322000Y-71267000D01*
X163068000Y-71267000D01*
X163068000Y-71247000D01*
X163048000Y-71247000D01*
X163048000Y-70993000D01*
X163068000Y-70993000D01*
X163068000Y-69786183D01*
X163322000Y-69786183D01*
X163322000Y-70993000D01*
X164529469Y-70993000D01*
X164649968Y-70760973D01*
X164436882Y-70306318D01*
X164462587Y-70306318D01*
X164700669Y-70808500D01*
X165112805Y-71181346D01*
X165496580Y-71340311D01*
X165716949Y-71218180D01*
X165716949Y-70085949D01*
X165970949Y-70085949D01*
X165970949Y-71218180D01*
X166191318Y-71340311D01*
X166693500Y-71102229D01*
X167066346Y-70690093D01*
X167225311Y-70306318D01*
X167103180Y-70085949D01*
X165970949Y-70085949D01*
X165716949Y-70085949D01*
X164584718Y-70085949D01*
X164462587Y-70306318D01*
X164436882Y-70306318D01*
X164401821Y-70231510D01*
X163969947Y-69837312D01*
X163554026Y-69665042D01*
X163322000Y-69786183D01*
X163068000Y-69786183D01*
X162835974Y-69665042D01*
X162636200Y-69747786D01*
X162636200Y-69611580D01*
X164462587Y-69611580D01*
X164584718Y-69831949D01*
X165716949Y-69831949D01*
X165716949Y-69765200D01*
X165858090Y-69765200D01*
X166037698Y-69944808D01*
X166150557Y-69831949D01*
X167103180Y-69831949D01*
X167161328Y-69727029D01*
X167516766Y-69964526D01*
X168090255Y-70078600D01*
X168459745Y-70078600D01*
X169033234Y-69964526D01*
X169519415Y-69639670D01*
X169844271Y-69153489D01*
X169958345Y-68580000D01*
X169844271Y-68006511D01*
X169519415Y-67520330D01*
X169204634Y-67310000D01*
X169519415Y-67099670D01*
X169844271Y-66613489D01*
X169958345Y-66040000D01*
X169844271Y-65466511D01*
X169519415Y-64980330D01*
X169204634Y-64770000D01*
X169519415Y-64559670D01*
X169844271Y-64073489D01*
X169958345Y-63500000D01*
X169844271Y-62926511D01*
X169519415Y-62440330D01*
X169204634Y-62230000D01*
X169519415Y-62019670D01*
X169844271Y-61533489D01*
X169958345Y-60960000D01*
X169844271Y-60386511D01*
X169519415Y-59900330D01*
X169033234Y-59575474D01*
X168459745Y-59461400D01*
X168090255Y-59461400D01*
X167516766Y-59575474D01*
X167030585Y-59900330D01*
X166705729Y-60386511D01*
X166591655Y-60960000D01*
X166705729Y-61533489D01*
X167030585Y-62019670D01*
X167345366Y-62230000D01*
X167030585Y-62440330D01*
X166705729Y-62926511D01*
X166591655Y-63500000D01*
X166705729Y-64073489D01*
X167030585Y-64559670D01*
X167345366Y-64770000D01*
X167030585Y-64980330D01*
X166705729Y-65466511D01*
X166591655Y-66040000D01*
X166705729Y-66613489D01*
X167030585Y-67099670D01*
X167345366Y-67310000D01*
X167030585Y-67520330D01*
X166705729Y-68006511D01*
X166591655Y-68580000D01*
X166633263Y-68789176D01*
X166575093Y-68736552D01*
X166191318Y-68577587D01*
X165970949Y-68699718D01*
X165970949Y-69652341D01*
X165858090Y-69765200D01*
X165716949Y-69765200D01*
X165716949Y-68699718D01*
X165496580Y-68577587D01*
X164994398Y-68815669D01*
X164621552Y-69227805D01*
X164462587Y-69611580D01*
X162636200Y-69611580D01*
X162636200Y-69215000D01*
X162582063Y-68942836D01*
X162582063Y-68942835D01*
X162427894Y-68712105D01*
X161157894Y-67442106D01*
X160927165Y-67287937D01*
X160655000Y-67233800D01*
X154305000Y-67233800D01*
X154032835Y-67287937D01*
X153802106Y-67442106D01*
X152372137Y-68872075D01*
X152206337Y-68871931D01*
X151846788Y-69020493D01*
X151571460Y-69295341D01*
X151422270Y-69654630D01*
X151421931Y-70043663D01*
X142951200Y-70043663D01*
X142951200Y-68595000D01*
X143224250Y-68595000D01*
X143383000Y-68436250D01*
X143383000Y-67437000D01*
X143363000Y-67437000D01*
X143363000Y-67183000D01*
X143383000Y-67183000D01*
X143383000Y-66183750D01*
X143290167Y-66090917D01*
X143383000Y-66039915D01*
X143383000Y-64897000D01*
X143363000Y-64897000D01*
X143363000Y-64643000D01*
X143383000Y-64643000D01*
X143383000Y-63500085D01*
X143160961Y-63378096D01*
X142772577Y-63538959D01*
X142708129Y-63597340D01*
X141947925Y-62837136D01*
X141948069Y-62671337D01*
X141799507Y-62311788D01*
X141793929Y-62306200D01*
X150495000Y-62306200D01*
X150767165Y-62252063D01*
X150997894Y-62097894D01*
X151053800Y-62041988D01*
X151053800Y-62570411D01*
X150835412Y-62788800D01*
X150495000Y-62788800D01*
X150222836Y-62842937D01*
X149992106Y-62997105D01*
X149399279Y-63589933D01*
X149139151Y-63416120D01*
X148590000Y-63306887D01*
X148040849Y-63416120D01*
X147575302Y-63727189D01*
X147320000Y-64109275D01*
X147064698Y-63727189D01*
X146599151Y-63416120D01*
X146050000Y-63306887D01*
X145500849Y-63416120D01*
X145035302Y-63727189D01*
X144765014Y-64131703D01*
X144662389Y-63914866D01*
X144247423Y-63538959D01*
X143859039Y-63378096D01*
X143637000Y-63500085D01*
X143637000Y-64643000D01*
X143657000Y-64643000D01*
X143657000Y-64897000D01*
X143637000Y-64897000D01*
X143637000Y-66039915D01*
X143729833Y-66090917D01*
X143637000Y-66183750D01*
X143637000Y-67183000D01*
X143657000Y-67183000D01*
X143657000Y-67437000D01*
X143637000Y-67437000D01*
X143637000Y-68436250D01*
X143795750Y-68595000D01*
X144286309Y-68595000D01*
X144519698Y-68498327D01*
X144698327Y-68319699D01*
X144795000Y-68086310D01*
X144795000Y-67734433D01*
X144919995Y-68036943D01*
X145281155Y-68398735D01*
X145753276Y-68594777D01*
X146264481Y-68595223D01*
X146736943Y-68400005D01*
X146795766Y-68341285D01*
X146840910Y-68411441D01*
X147053110Y-68556431D01*
X147305000Y-68607440D01*
X148605000Y-68607440D01*
X148840317Y-68563162D01*
X149056441Y-68424090D01*
X149201431Y-68211890D01*
X149252440Y-67960000D01*
X149252440Y-67764540D01*
X149364995Y-68036943D01*
X149726155Y-68398735D01*
X150198276Y-68594777D01*
X150709481Y-68595223D01*
X151181943Y-68400005D01*
X151543735Y-68038845D01*
X151739777Y-67566724D01*
X151740223Y-67055519D01*
X151614481Y-66751200D01*
X153035000Y-66751200D01*
X153307165Y-66697063D01*
X153537894Y-66542894D01*
X153891793Y-66188996D01*
X154219151Y-66123880D01*
X154684698Y-65812811D01*
X154940000Y-65430725D01*
X155195302Y-65812811D01*
X155660849Y-66123880D01*
X156210000Y-66233113D01*
X156759151Y-66123880D01*
X157224698Y-65812811D01*
X157480000Y-65430725D01*
X157735302Y-65812811D01*
X158200849Y-66123880D01*
X158750000Y-66233113D01*
X159299151Y-66123880D01*
X159764698Y-65812811D01*
X160020000Y-65430725D01*
X160275302Y-65812811D01*
X160740849Y-66123880D01*
X161290000Y-66233113D01*
X161839151Y-66123880D01*
X162304698Y-65812811D01*
X162560000Y-65430725D01*
X162815302Y-65812811D01*
X163280849Y-66123880D01*
X163830000Y-66233113D01*
X164379151Y-66123880D01*
X164844698Y-65812811D01*
X165155767Y-65347264D01*
X165265000Y-64798113D01*
X165265000Y-64741887D01*
X165155767Y-64192736D01*
X164844698Y-63727189D01*
X164379151Y-63416120D01*
X163830000Y-63306887D01*
X163448550Y-63382762D01*
X163062894Y-62997106D01*
X162832165Y-62842937D01*
X162560000Y-62788800D01*
X153964589Y-62788800D01*
X153746200Y-62570412D01*
X153746200Y-59690000D01*
X153692063Y-59417836D01*
X153692063Y-59417835D01*
X153537894Y-59187105D01*
X152304475Y-57953687D01*
X152400000Y-57810725D01*
X152655302Y-58192811D01*
X153120849Y-58503880D01*
X153670000Y-58613113D01*
X154219151Y-58503880D01*
X154684698Y-58192811D01*
X154940000Y-57810725D01*
X155195302Y-58192811D01*
X155660849Y-58503880D01*
X156210000Y-58613113D01*
X156759151Y-58503880D01*
X157224698Y-58192811D01*
X157480000Y-57810725D01*
X157735302Y-58192811D01*
X158200849Y-58503880D01*
X158750000Y-58613113D01*
X159299151Y-58503880D01*
X159764698Y-58192811D01*
X160020000Y-57810725D01*
X160275302Y-58192811D01*
X160740849Y-58503880D01*
X161290000Y-58613113D01*
X161839151Y-58503880D01*
X162304698Y-58192811D01*
X162560000Y-57810725D01*
X162815302Y-58192811D01*
X163280849Y-58503880D01*
X163830000Y-58613113D01*
X164379151Y-58503880D01*
X164844698Y-58192811D01*
X165155767Y-57727264D01*
X165265000Y-57178113D01*
X165265000Y-57121887D01*
X165159440Y-56591200D01*
X171861109Y-56591200D01*
X172032004Y-56846962D01*
X171887559Y-56939910D01*
X171742569Y-57152110D01*
X171691560Y-57404000D01*
X171691560Y-59436000D01*
X171735838Y-59671317D01*
X171874910Y-59887441D01*
X172056361Y-60011421D01*
X172004268Y-60057964D01*
X171750291Y-60585209D01*
X171747642Y-60600974D01*
X171868783Y-60833000D01*
X173228000Y-60833000D01*
X173228000Y-60813000D01*
X173482000Y-60813000D01*
X173482000Y-60833000D01*
X173502000Y-60833000D01*
X173502000Y-61087000D01*
X173482000Y-61087000D01*
X173482000Y-61107000D01*
X173228000Y-61107000D01*
X173228000Y-61087000D01*
X171868783Y-61087000D01*
X171747642Y-61319026D01*
X171750291Y-61334791D01*
X172004268Y-61862036D01*
X172420069Y-62233539D01*
X172110585Y-62440330D01*
X171785729Y-62926511D01*
X171671655Y-63500000D01*
X171785729Y-64073489D01*
X172110585Y-64559670D01*
X172425366Y-64770000D01*
X172110585Y-64980330D01*
X171785729Y-65466511D01*
X171671655Y-66040000D01*
X171785729Y-66613489D01*
X172110585Y-67099670D01*
X172420069Y-67306461D01*
X172004268Y-67677964D01*
X171750291Y-68205209D01*
X171747642Y-68220974D01*
X171868783Y-68453000D01*
X173228000Y-68453000D01*
X173228000Y-68433000D01*
X173482000Y-68433000D01*
X173482000Y-68453000D01*
X173502000Y-68453000D01*
X173502000Y-68707000D01*
X173482000Y-68707000D01*
X173482000Y-68727000D01*
X173228000Y-68727000D01*
X173228000Y-68707000D01*
X171868783Y-68707000D01*
X171747642Y-68939026D01*
X171750291Y-68954791D01*
X172004268Y-69482036D01*
X172420069Y-69853539D01*
X172110585Y-70060330D01*
X171785729Y-70546511D01*
X171671655Y-71120000D01*
X171785729Y-71693489D01*
X172110585Y-72179670D01*
X172425366Y-72390000D01*
X172110585Y-72600330D01*
X171785729Y-73086511D01*
X171671655Y-73660000D01*
X171785729Y-74233489D01*
X172110585Y-74719670D01*
X172425366Y-74930000D01*
X172110585Y-75140330D01*
X171877745Y-75488800D01*
X170601510Y-75488800D01*
X170595005Y-75473057D01*
X170233845Y-75111265D01*
X169777198Y-74921648D01*
X170226354Y-74736061D01*
X170619680Y-74343421D01*
X170832808Y-73830151D01*
X170833293Y-73274390D01*
X170621061Y-72760748D01*
X170228421Y-72367422D01*
X169715151Y-72154294D01*
X169159390Y-72153809D01*
X168645748Y-72366041D01*
X168252422Y-72758681D01*
X168039294Y-73271951D01*
X168038809Y-73827712D01*
X168251041Y-74341354D01*
X168643681Y-74734680D01*
X169156951Y-74947808D01*
X169170549Y-74947820D01*
X168778057Y-75109995D01*
X168416265Y-75471155D01*
X168302440Y-75745276D01*
X168302440Y-75550000D01*
X168258162Y-75314683D01*
X168119090Y-75098559D01*
X167906890Y-74953569D01*
X167655000Y-74902560D01*
X166355000Y-74902560D01*
X166119683Y-74946838D01*
X165903559Y-75085910D01*
X165758569Y-75298110D01*
X165707560Y-75550000D01*
X165707560Y-76850000D01*
X165751838Y-77085317D01*
X165890910Y-77301441D01*
X166103110Y-77446431D01*
X166355000Y-77497440D01*
X167655000Y-77497440D01*
X167890317Y-77453162D01*
X168106441Y-77314090D01*
X168251431Y-77101890D01*
X168302440Y-76850000D01*
X168302440Y-76654540D01*
X168414995Y-76926943D01*
X168776155Y-77288735D01*
X169248276Y-77484777D01*
X169759481Y-77485223D01*
X170231943Y-77290005D01*
X170593735Y-76928845D01*
X170601062Y-76911200D01*
X171877745Y-76911200D01*
X172110585Y-77259670D01*
X172596766Y-77584526D01*
X173170255Y-77698600D01*
X173539745Y-77698600D01*
X174113234Y-77584526D01*
X174599415Y-77259670D01*
X174924271Y-76773489D01*
X175038345Y-76200000D01*
X174924271Y-75626511D01*
X174599415Y-75140330D01*
X174284634Y-74930000D01*
X174599415Y-74719670D01*
X174924271Y-74233489D01*
X175038345Y-73660000D01*
X174924271Y-73086511D01*
X174673933Y-72711855D01*
X175396642Y-71989146D01*
X175401329Y-72000462D01*
X175510178Y-72163366D01*
X175315171Y-72358033D01*
X175180154Y-72683190D01*
X175179847Y-73035265D01*
X175272768Y-73260151D01*
X175180154Y-73483190D01*
X175179847Y-73835265D01*
X175272768Y-74060151D01*
X175180154Y-74283190D01*
X175179847Y-74635265D01*
X175314296Y-74960657D01*
X175510079Y-75156782D01*
X175401329Y-75319538D01*
X175359250Y-75421127D01*
X175295315Y-75575478D01*
X175198642Y-76061486D01*
X175198642Y-76131416D01*
X175185000Y-76200000D01*
X175185000Y-78030000D01*
X69925000Y-78030000D01*
X69925000Y-61319026D01*
X70147642Y-61319026D01*
X70150291Y-61334791D01*
X70404268Y-61862036D01*
X70840680Y-62251954D01*
X71393087Y-62445184D01*
X71628000Y-62300924D01*
X71628000Y-61087000D01*
X71882000Y-61087000D01*
X71882000Y-62300924D01*
X72116913Y-62445184D01*
X72669320Y-62251954D01*
X73105732Y-61862036D01*
X73359709Y-61334791D01*
X73362358Y-61319026D01*
X73241217Y-61087000D01*
X71882000Y-61087000D01*
X71628000Y-61087000D01*
X70268783Y-61087000D01*
X70147642Y-61319026D01*
X69925000Y-61319026D01*
X69925000Y-54050000D01*
X72579212Y-54050000D01*
X72320143Y-54309069D01*
X72320143Y-54309069D01*
G37*
X72320143Y-54309069D02*
X71755000Y-54196655D01*
X71123190Y-54322330D01*
X70587567Y-54680222D01*
X70229675Y-55215845D01*
X70104000Y-55847655D01*
X70104000Y-55912345D01*
X70229675Y-56544155D01*
X70432004Y-56846962D01*
X70287559Y-56939910D01*
X70142569Y-57152110D01*
X70091560Y-57404000D01*
X70091560Y-59436000D01*
X70135838Y-59671317D01*
X70274910Y-59887441D01*
X70456361Y-60011421D01*
X70404268Y-60057964D01*
X70150291Y-60585209D01*
X70147642Y-60600974D01*
X70268783Y-60833000D01*
X71628000Y-60833000D01*
X71628000Y-60813000D01*
X71882000Y-60813000D01*
X71882000Y-60833000D01*
X73241217Y-60833000D01*
X73362358Y-60600974D01*
X73359709Y-60585209D01*
X73105732Y-60057964D01*
X73051876Y-60009846D01*
X73222441Y-59900090D01*
X73367431Y-59687890D01*
X73418440Y-59436000D01*
X73418440Y-57404000D01*
X73374162Y-57168683D01*
X73235090Y-56952559D01*
X73078794Y-56845767D01*
X73280325Y-56544155D01*
X73406000Y-55912345D01*
X73406000Y-55847655D01*
X73304319Y-55336469D01*
X73954588Y-54686200D01*
X157185412Y-54686200D01*
X158038800Y-55539589D01*
X158038800Y-55904398D01*
X157735302Y-56107189D01*
X157480000Y-56489275D01*
X157224698Y-56107189D01*
X156759151Y-55796120D01*
X156210000Y-55686887D01*
X155660849Y-55796120D01*
X155195302Y-56107189D01*
X154940000Y-56489275D01*
X154684698Y-56107189D01*
X154219151Y-55796120D01*
X153670000Y-55686887D01*
X153120849Y-55796120D01*
X152655302Y-56107189D01*
X152400000Y-56489275D01*
X152144698Y-56107189D01*
X151679151Y-55796120D01*
X151130000Y-55686887D01*
X150580849Y-55796120D01*
X150115302Y-56107189D01*
X149845014Y-56511703D01*
X149742389Y-56294866D01*
X149327423Y-55918959D01*
X148939039Y-55758096D01*
X148717000Y-55880085D01*
X148717000Y-57023000D01*
X148737000Y-57023000D01*
X148737000Y-57277000D01*
X148717000Y-57277000D01*
X148717000Y-57297000D01*
X148463000Y-57297000D01*
X148463000Y-57277000D01*
X148443000Y-57277000D01*
X148443000Y-57023000D01*
X148463000Y-57023000D01*
X148463000Y-55880085D01*
X148240961Y-55758096D01*
X147852577Y-55918959D01*
X147437611Y-56294866D01*
X147334986Y-56511703D01*
X147064698Y-56107189D01*
X146599151Y-55796120D01*
X146050000Y-55686887D01*
X145500849Y-55796120D01*
X145035302Y-56107189D01*
X144780000Y-56489275D01*
X144524698Y-56107189D01*
X144059151Y-55796120D01*
X143510000Y-55686887D01*
X142960849Y-55796120D01*
X142495302Y-56107189D01*
X142240000Y-56489275D01*
X141984698Y-56107189D01*
X141519151Y-55796120D01*
X140970000Y-55686887D01*
X140420849Y-55796120D01*
X139955302Y-56107189D01*
X139700000Y-56489275D01*
X139444698Y-56107189D01*
X138979151Y-55796120D01*
X138430000Y-55686887D01*
X137880849Y-55796120D01*
X137415302Y-56107189D01*
X137160000Y-56489275D01*
X136904698Y-56107189D01*
X136439151Y-55796120D01*
X135890000Y-55686887D01*
X135340849Y-55796120D01*
X134875302Y-56107189D01*
X134620000Y-56489275D01*
X134364698Y-56107189D01*
X133899151Y-55796120D01*
X133350000Y-55686887D01*
X132800849Y-55796120D01*
X132335302Y-56107189D01*
X132080000Y-56489275D01*
X131824698Y-56107189D01*
X131359151Y-55796120D01*
X130810000Y-55686887D01*
X130260849Y-55796120D01*
X129795302Y-56107189D01*
X129573726Y-56438800D01*
X128905000Y-56438800D01*
X128677990Y-56483955D01*
X128632835Y-56492937D01*
X128402105Y-56647106D01*
X127812440Y-57236771D01*
X127812440Y-56350000D01*
X127768162Y-56114683D01*
X127629090Y-55898559D01*
X127416890Y-55753569D01*
X127165000Y-55702560D01*
X125565000Y-55702560D01*
X125329683Y-55746838D01*
X125113559Y-55885910D01*
X124968569Y-56098110D01*
X124937185Y-56253089D01*
X124839698Y-56107189D01*
X124374151Y-55796120D01*
X123825000Y-55686887D01*
X123275849Y-55796120D01*
X122810302Y-56107189D01*
X122555000Y-56489275D01*
X122299698Y-56107189D01*
X121834151Y-55796120D01*
X121285000Y-55686887D01*
X120735849Y-55796120D01*
X120270302Y-56107189D01*
X120015000Y-56489275D01*
X119759698Y-56107189D01*
X119294151Y-55796120D01*
X118745000Y-55686887D01*
X118195849Y-55796120D01*
X117730302Y-56107189D01*
X117475000Y-56489275D01*
X117219698Y-56107189D01*
X116754151Y-55796120D01*
X116205000Y-55686887D01*
X115655849Y-55796120D01*
X115190302Y-56107189D01*
X114920014Y-56511703D01*
X114817389Y-56294866D01*
X114402423Y-55918959D01*
X114014039Y-55758096D01*
X113792000Y-55880085D01*
X113792000Y-57023000D01*
X113812000Y-57023000D01*
X113812000Y-57277000D01*
X113792000Y-57277000D01*
X113792000Y-57297000D01*
X113538000Y-57297000D01*
X113538000Y-57277000D01*
X113518000Y-57277000D01*
X113518000Y-57023000D01*
X113538000Y-57023000D01*
X113538000Y-55880085D01*
X113315961Y-55758096D01*
X112927577Y-55918959D01*
X112512611Y-56294866D01*
X112409986Y-56511703D01*
X112139698Y-56107189D01*
X111674151Y-55796120D01*
X111125000Y-55686887D01*
X110575849Y-55796120D01*
X110110302Y-56107189D01*
X109855000Y-56489275D01*
X109599698Y-56107189D01*
X109134151Y-55796120D01*
X108585000Y-55686887D01*
X108035849Y-55796120D01*
X107570302Y-56107189D01*
X107259233Y-56572736D01*
X107159565Y-57073800D01*
X99354589Y-57073800D01*
X99136200Y-56855412D01*
X99136200Y-56515000D01*
X99082063Y-56242836D01*
X99021478Y-56152164D01*
X98927895Y-56012106D01*
X98292894Y-55377106D01*
X98062165Y-55222937D01*
X97790000Y-55168800D01*
X92710000Y-55168800D01*
X92437836Y-55222937D01*
X92207106Y-55377105D01*
X91831425Y-55752787D01*
X91798339Y-55752758D01*
X91284697Y-55964990D01*
X90891371Y-56357630D01*
X90805051Y-56565512D01*
X90720010Y-56359697D01*
X90327370Y-55966371D01*
X89814100Y-55753243D01*
X89258339Y-55752758D01*
X88744697Y-55964990D01*
X88351371Y-56357630D01*
X88202336Y-56716548D01*
X88132894Y-56647106D01*
X87902165Y-56492937D01*
X87630000Y-56438800D01*
X83132695Y-56438800D01*
X83100010Y-56359697D01*
X82707370Y-55966371D01*
X82194100Y-55753243D01*
X81638339Y-55752758D01*
X81124697Y-55964990D01*
X80731371Y-56357630D01*
X80645051Y-56565512D01*
X80560010Y-56359697D01*
X80167370Y-55966371D01*
X79654100Y-55753243D01*
X79098339Y-55752758D01*
X78584697Y-55964990D01*
X78191371Y-56357630D01*
X78105051Y-56565512D01*
X78020010Y-56359697D01*
X77627370Y-55966371D01*
X77114100Y-55753243D01*
X76558339Y-55752758D01*
X76044697Y-55964990D01*
X75651371Y-56357630D01*
X75438243Y-56870900D01*
X75437758Y-57426661D01*
X75649990Y-57940303D01*
X76042630Y-58333629D01*
X76555900Y-58546757D01*
X77111661Y-58547242D01*
X77625303Y-58335010D01*
X77637273Y-58323061D01*
X78872106Y-59557894D01*
X79102835Y-59712063D01*
X79375000Y-59766200D01*
X87335412Y-59766200D01*
X88397105Y-60827894D01*
X88627835Y-60982063D01*
X88672990Y-60991045D01*
X88809526Y-61018203D01*
X88744697Y-61044990D01*
X88351371Y-61437630D01*
X88138243Y-61950900D01*
X88137758Y-62506661D01*
X88264671Y-62813814D01*
X88234184Y-62834185D01*
X87747817Y-63320552D01*
X87568489Y-63200729D01*
X86995000Y-63086655D01*
X86421511Y-63200729D01*
X85935330Y-63525585D01*
X85725000Y-63840366D01*
X85514670Y-63525585D01*
X85028489Y-63200729D01*
X84455000Y-63086655D01*
X83881511Y-63200729D01*
X83395330Y-63525585D01*
X83185000Y-63840366D01*
X82974670Y-63525585D01*
X82746955Y-63373431D01*
X83098629Y-63022370D01*
X83311757Y-62509100D01*
X83312242Y-61953339D01*
X83100010Y-61439697D01*
X82707370Y-61046371D01*
X82194100Y-60833243D01*
X81638339Y-60832758D01*
X81124697Y-61044990D01*
X80731371Y-61437630D01*
X80645051Y-61645512D01*
X80560010Y-61439697D01*
X80167370Y-61046371D01*
X79654100Y-60833243D01*
X79098339Y-60832758D01*
X78584697Y-61044990D01*
X78191371Y-61437630D01*
X78105051Y-61645512D01*
X78020010Y-61439697D01*
X77627370Y-61046371D01*
X77114100Y-60833243D01*
X76558339Y-60832758D01*
X76044697Y-61044990D01*
X75651371Y-61437630D01*
X75438243Y-61950900D01*
X75437758Y-62506661D01*
X75649990Y-63020303D01*
X76002719Y-63373648D01*
X75775330Y-63525585D01*
X75565000Y-63840366D01*
X75354670Y-63525585D01*
X74868489Y-63200729D01*
X74295000Y-63086655D01*
X73721511Y-63200729D01*
X73235330Y-63525585D01*
X73025000Y-63840366D01*
X72814670Y-63525585D01*
X72328489Y-63200729D01*
X71755000Y-63086655D01*
X71181511Y-63200729D01*
X70695330Y-63525585D01*
X70370474Y-64011766D01*
X70256400Y-64585255D01*
X70256400Y-64954745D01*
X70370474Y-65528234D01*
X70695330Y-66014415D01*
X71181511Y-66339271D01*
X71369670Y-66376698D01*
X73533000Y-68540029D01*
X73533000Y-75565000D01*
X73591004Y-75856605D01*
X73727901Y-76061485D01*
X73756185Y-76103815D01*
X75026184Y-77373815D01*
X75192918Y-77485223D01*
X75273395Y-77538996D01*
X75565000Y-77597000D01*
X97790000Y-77597000D01*
X98081605Y-77538996D01*
X98328815Y-77373815D01*
X98740631Y-76962000D01*
X112395000Y-76962000D01*
X112686605Y-76903996D01*
X112933815Y-76738815D01*
X113343473Y-76329157D01*
X113665000Y-76393113D01*
X114214151Y-76283880D01*
X114679698Y-75972811D01*
X114935000Y-75590725D01*
X115190302Y-75972811D01*
X115655849Y-76283880D01*
X116205000Y-76393113D01*
X116754151Y-76283880D01*
X117219698Y-75972811D01*
X117475000Y-75590725D01*
X117730302Y-75972811D01*
X118195849Y-76283880D01*
X118745000Y-76393113D01*
X119294151Y-76283880D01*
X119759698Y-75972811D01*
X120015000Y-75590725D01*
X120270302Y-75972811D01*
X120735849Y-76283880D01*
X121285000Y-76393113D01*
X121834151Y-76283880D01*
X122299698Y-75972811D01*
X122555000Y-75590725D01*
X122810302Y-75972811D01*
X123275849Y-76283880D01*
X123825000Y-76393113D01*
X124374151Y-76283880D01*
X124839698Y-75972811D01*
X125095000Y-75590725D01*
X125350302Y-75972811D01*
X125815849Y-76283880D01*
X126365000Y-76393113D01*
X126914151Y-76283880D01*
X127379698Y-75972811D01*
X127690767Y-75507264D01*
X127800000Y-74958113D01*
X127800000Y-74901887D01*
X127690767Y-74352736D01*
X127379698Y-73887189D01*
X126914151Y-73576120D01*
X126365000Y-73466887D01*
X126043473Y-73530843D01*
X123093815Y-70581185D01*
X123016698Y-70529657D01*
X122846605Y-70416004D01*
X122555000Y-70358000D01*
X105598630Y-70358000D01*
X105433551Y-70192921D01*
X105603663Y-70193069D01*
X105963212Y-70044507D01*
X106081726Y-69926200D01*
X114898206Y-69926200D01*
X115015341Y-70043540D01*
X115374630Y-70192730D01*
X115763663Y-70193069D01*
X116123212Y-70044507D01*
X116398540Y-69769659D01*
X116547730Y-69410370D01*
X116548069Y-69021337D01*
X116427240Y-68728907D01*
X116754151Y-68663880D01*
X117219698Y-68352811D01*
X117475000Y-67970725D01*
X117730302Y-68352811D01*
X118195849Y-68663880D01*
X118745000Y-68773113D01*
X119294151Y-68663880D01*
X119759698Y-68352811D01*
X120015000Y-67970725D01*
X120270302Y-68352811D01*
X120735849Y-68663880D01*
X121285000Y-68773113D01*
X121834151Y-68663880D01*
X122299698Y-68352811D01*
X122555000Y-67970725D01*
X122810302Y-68352811D01*
X123275849Y-68663880D01*
X123825000Y-68773113D01*
X124374151Y-68663880D01*
X124839698Y-68352811D01*
X124936101Y-68208535D01*
X124961838Y-68345317D01*
X125100910Y-68561441D01*
X125313110Y-68706431D01*
X125565000Y-68757440D01*
X127165000Y-68757440D01*
X127400317Y-68713162D01*
X127616441Y-68574090D01*
X127761431Y-68361890D01*
X127812440Y-68110000D01*
X127812440Y-66510000D01*
X127768162Y-66274683D01*
X127629090Y-66058559D01*
X127416890Y-65913569D01*
X127238796Y-65877504D01*
X127500052Y-65640840D01*
X129832075Y-67972863D01*
X129831931Y-68138663D01*
X129980493Y-68498212D01*
X130255341Y-68773540D01*
X130614630Y-68922730D01*
X131003663Y-68923069D01*
X131363212Y-68774507D01*
X131638540Y-68499659D01*
X131787730Y-68140370D01*
X131788069Y-67751337D01*
X131639507Y-67391788D01*
X131364659Y-67116460D01*
X131005370Y-66967270D01*
X130837912Y-66967124D01*
X129305304Y-65434516D01*
X129540000Y-65481200D01*
X129573726Y-65481200D01*
X129795302Y-65812811D01*
X130260849Y-66123880D01*
X130810000Y-66233113D01*
X131359151Y-66123880D01*
X131824698Y-65812811D01*
X132080000Y-65430725D01*
X132335302Y-65812811D01*
X132800849Y-66123880D01*
X133350000Y-66233113D01*
X133899151Y-66123880D01*
X134364698Y-65812811D01*
X134620000Y-65430725D01*
X134875302Y-65812811D01*
X135340849Y-66123880D01*
X135890000Y-66233113D01*
X136439151Y-66123880D01*
X136817247Y-65871244D01*
X136816931Y-66233663D01*
X136965493Y-66593212D01*
X137083800Y-66711726D01*
X137083800Y-73025000D01*
X137137937Y-73297165D01*
X137292106Y-73527894D01*
X138087075Y-74322864D01*
X138086931Y-74488663D01*
X138235493Y-74848212D01*
X138510341Y-75123540D01*
X138869630Y-75272730D01*
X139258663Y-75273069D01*
X139395331Y-75216599D01*
X139505493Y-75483212D01*
X139780341Y-75758540D01*
X140139630Y-75907730D01*
X140528663Y-75908069D01*
X140888212Y-75759507D01*
X141163540Y-75484659D01*
X141312730Y-75125370D01*
X141312876Y-74957912D01*
X142742894Y-73527894D01*
X142897063Y-73297165D01*
X142951200Y-73025000D01*
X142951200Y-70043663D01*
X151421931Y-70043663D01*
X151570493Y-70403212D01*
X151845341Y-70678540D01*
X152204630Y-70827730D01*
X152593663Y-70828069D01*
X152953212Y-70679507D01*
X152958800Y-70673929D01*
X152958800Y-71460411D01*
X152372136Y-72047075D01*
X152206337Y-72046931D01*
X151846788Y-72195493D01*
X151571460Y-72470341D01*
X151422270Y-72829630D01*
X151421931Y-73218663D01*
X151570493Y-73578212D01*
X151845341Y-73853540D01*
X152204630Y-74002730D01*
X152593663Y-74003069D01*
X152953212Y-73854507D01*
X153228540Y-73579659D01*
X153377730Y-73220370D01*
X153377876Y-73052912D01*
X153481529Y-72949259D01*
X153750341Y-73218540D01*
X154109630Y-73367730D01*
X154498663Y-73368069D01*
X154858212Y-73219507D01*
X155133540Y-72944659D01*
X155244790Y-72676739D01*
X155379630Y-72732730D01*
X155768663Y-72733069D01*
X156128212Y-72584507D01*
X156403540Y-72309659D01*
X156514790Y-72041739D01*
X156649630Y-72097730D01*
X157038663Y-72098069D01*
X157398212Y-71949507D01*
X157673540Y-71674659D01*
X157822730Y-71315370D01*
X157822876Y-71147912D01*
X159252894Y-69717894D01*
X159407063Y-69487165D01*
X159452068Y-69260911D01*
X159578540Y-69134659D01*
X159727730Y-68775370D01*
X159727834Y-68656200D01*
X160360412Y-68656200D01*
X161213800Y-69509589D01*
X161213800Y-69608960D01*
X159791400Y-69608960D01*
X159556083Y-69653238D01*
X159339959Y-69792310D01*
X159194969Y-70004510D01*
X159143960Y-70256400D01*
X159143960Y-71983600D01*
X159188238Y-72218917D01*
X159327310Y-72435041D01*
X159539510Y-72580031D01*
X159583345Y-72588908D01*
X159270474Y-73057152D01*
X159156400Y-73630641D01*
X159156400Y-73689359D01*
X159261712Y-74218800D01*
X159092967Y-74218800D01*
X159093069Y-74101337D01*
X158944507Y-73741788D01*
X158669659Y-73466460D01*
X158310370Y-73317270D01*
X157921337Y-73316931D01*
X157561788Y-73465493D01*
X157286460Y-73740341D01*
X157137270Y-74099630D01*
X157136931Y-74488663D01*
X157285493Y-74848212D01*
X157560341Y-75123540D01*
X157919630Y-75272730D01*
X158087087Y-75272876D01*
X158247106Y-75432895D01*
X158477836Y-75587063D01*
X158750000Y-75641200D01*
X159261712Y-75641200D01*
X159156400Y-76170641D01*
X159156400Y-76229359D01*
X159270474Y-76802848D01*
X159595330Y-77289029D01*
X160081511Y-77613885D01*
X160655000Y-77727959D01*
X161228489Y-77613885D01*
X161714670Y-77289029D01*
X161925000Y-76974248D01*
X162135330Y-77289029D01*
X162621511Y-77613885D01*
X163195000Y-77727959D01*
X163768489Y-77613885D01*
X164254670Y-77289029D01*
X164579526Y-76802848D01*
X164693600Y-76229359D01*
X164693600Y-76170641D01*
X164579526Y-75597152D01*
X164254670Y-75110971D01*
X163983828Y-74930000D01*
X164254670Y-74749029D01*
X164579526Y-74262848D01*
X164693600Y-73689359D01*
X164693600Y-73630641D01*
X164579526Y-73057152D01*
X164254670Y-72570971D01*
X163983839Y-72390008D01*
X164401821Y-72008490D01*
X164649968Y-71479027D01*
X164529469Y-71247000D01*
X163322000Y-71247000D01*
X163322000Y-71267000D01*
X163068000Y-71267000D01*
X163068000Y-71247000D01*
X163048000Y-71247000D01*
X163048000Y-70993000D01*
X163068000Y-70993000D01*
X163068000Y-69786183D01*
X163322000Y-69786183D01*
X163322000Y-70993000D01*
X164529469Y-70993000D01*
X164649968Y-70760973D01*
X164436882Y-70306318D01*
X164462587Y-70306318D01*
X164700669Y-70808500D01*
X165112805Y-71181346D01*
X165496580Y-71340311D01*
X165716949Y-71218180D01*
X165716949Y-70085949D01*
X165970949Y-70085949D01*
X165970949Y-71218180D01*
X166191318Y-71340311D01*
X166693500Y-71102229D01*
X167066346Y-70690093D01*
X167225311Y-70306318D01*
X167103180Y-70085949D01*
X165970949Y-70085949D01*
X165716949Y-70085949D01*
X164584718Y-70085949D01*
X164462587Y-70306318D01*
X164436882Y-70306318D01*
X164401821Y-70231510D01*
X163969947Y-69837312D01*
X163554026Y-69665042D01*
X163322000Y-69786183D01*
X163068000Y-69786183D01*
X162835974Y-69665042D01*
X162636200Y-69747786D01*
X162636200Y-69611580D01*
X164462587Y-69611580D01*
X164584718Y-69831949D01*
X165716949Y-69831949D01*
X165716949Y-69765200D01*
X165858090Y-69765200D01*
X166037698Y-69944808D01*
X166150557Y-69831949D01*
X167103180Y-69831949D01*
X167161328Y-69727029D01*
X167516766Y-69964526D01*
X168090255Y-70078600D01*
X168459745Y-70078600D01*
X169033234Y-69964526D01*
X169519415Y-69639670D01*
X169844271Y-69153489D01*
X169958345Y-68580000D01*
X169844271Y-68006511D01*
X169519415Y-67520330D01*
X169204634Y-67310000D01*
X169519415Y-67099670D01*
X169844271Y-66613489D01*
X169958345Y-66040000D01*
X169844271Y-65466511D01*
X169519415Y-64980330D01*
X169204634Y-64770000D01*
X169519415Y-64559670D01*
X169844271Y-64073489D01*
X169958345Y-63500000D01*
X169844271Y-62926511D01*
X169519415Y-62440330D01*
X169204634Y-62230000D01*
X169519415Y-62019670D01*
X169844271Y-61533489D01*
X169958345Y-60960000D01*
X169844271Y-60386511D01*
X169519415Y-59900330D01*
X169033234Y-59575474D01*
X168459745Y-59461400D01*
X168090255Y-59461400D01*
X167516766Y-59575474D01*
X167030585Y-59900330D01*
X166705729Y-60386511D01*
X166591655Y-60960000D01*
X166705729Y-61533489D01*
X167030585Y-62019670D01*
X167345366Y-62230000D01*
X167030585Y-62440330D01*
X166705729Y-62926511D01*
X166591655Y-63500000D01*
X166705729Y-64073489D01*
X167030585Y-64559670D01*
X167345366Y-64770000D01*
X167030585Y-64980330D01*
X166705729Y-65466511D01*
X166591655Y-66040000D01*
X166705729Y-66613489D01*
X167030585Y-67099670D01*
X167345366Y-67310000D01*
X167030585Y-67520330D01*
X166705729Y-68006511D01*
X166591655Y-68580000D01*
X166633263Y-68789176D01*
X166575093Y-68736552D01*
X166191318Y-68577587D01*
X165970949Y-68699718D01*
X165970949Y-69652341D01*
X165858090Y-69765200D01*
X165716949Y-69765200D01*
X165716949Y-68699718D01*
X165496580Y-68577587D01*
X164994398Y-68815669D01*
X164621552Y-69227805D01*
X164462587Y-69611580D01*
X162636200Y-69611580D01*
X162636200Y-69215000D01*
X162582063Y-68942836D01*
X162582063Y-68942835D01*
X162427894Y-68712105D01*
X161157894Y-67442106D01*
X160927165Y-67287937D01*
X160655000Y-67233800D01*
X154305000Y-67233800D01*
X154032835Y-67287937D01*
X153802106Y-67442106D01*
X152372137Y-68872075D01*
X152206337Y-68871931D01*
X151846788Y-69020493D01*
X151571460Y-69295341D01*
X151422270Y-69654630D01*
X151421931Y-70043663D01*
X142951200Y-70043663D01*
X142951200Y-68595000D01*
X143224250Y-68595000D01*
X143383000Y-68436250D01*
X143383000Y-67437000D01*
X143363000Y-67437000D01*
X143363000Y-67183000D01*
X143383000Y-67183000D01*
X143383000Y-66183750D01*
X143290167Y-66090917D01*
X143383000Y-66039915D01*
X143383000Y-64897000D01*
X143363000Y-64897000D01*
X143363000Y-64643000D01*
X143383000Y-64643000D01*
X143383000Y-63500085D01*
X143160961Y-63378096D01*
X142772577Y-63538959D01*
X142708129Y-63597340D01*
X141947925Y-62837136D01*
X141948069Y-62671337D01*
X141799507Y-62311788D01*
X141793929Y-62306200D01*
X150495000Y-62306200D01*
X150767165Y-62252063D01*
X150997894Y-62097894D01*
X151053800Y-62041988D01*
X151053800Y-62570411D01*
X150835412Y-62788800D01*
X150495000Y-62788800D01*
X150222836Y-62842937D01*
X149992106Y-62997105D01*
X149399279Y-63589933D01*
X149139151Y-63416120D01*
X148590000Y-63306887D01*
X148040849Y-63416120D01*
X147575302Y-63727189D01*
X147320000Y-64109275D01*
X147064698Y-63727189D01*
X146599151Y-63416120D01*
X146050000Y-63306887D01*
X145500849Y-63416120D01*
X145035302Y-63727189D01*
X144765014Y-64131703D01*
X144662389Y-63914866D01*
X144247423Y-63538959D01*
X143859039Y-63378096D01*
X143637000Y-63500085D01*
X143637000Y-64643000D01*
X143657000Y-64643000D01*
X143657000Y-64897000D01*
X143637000Y-64897000D01*
X143637000Y-66039915D01*
X143729833Y-66090917D01*
X143637000Y-66183750D01*
X143637000Y-67183000D01*
X143657000Y-67183000D01*
X143657000Y-67437000D01*
X143637000Y-67437000D01*
X143637000Y-68436250D01*
X143795750Y-68595000D01*
X144286309Y-68595000D01*
X144519698Y-68498327D01*
X144698327Y-68319699D01*
X144795000Y-68086310D01*
X144795000Y-67734433D01*
X144919995Y-68036943D01*
X145281155Y-68398735D01*
X145753276Y-68594777D01*
X146264481Y-68595223D01*
X146736943Y-68400005D01*
X146795766Y-68341285D01*
X146840910Y-68411441D01*
X147053110Y-68556431D01*
X147305000Y-68607440D01*
X148605000Y-68607440D01*
X148840317Y-68563162D01*
X149056441Y-68424090D01*
X149201431Y-68211890D01*
X149252440Y-67960000D01*
X149252440Y-67764540D01*
X149364995Y-68036943D01*
X149726155Y-68398735D01*
X150198276Y-68594777D01*
X150709481Y-68595223D01*
X151181943Y-68400005D01*
X151543735Y-68038845D01*
X151739777Y-67566724D01*
X151740223Y-67055519D01*
X151614481Y-66751200D01*
X153035000Y-66751200D01*
X153307165Y-66697063D01*
X153537894Y-66542894D01*
X153891793Y-66188996D01*
X154219151Y-66123880D01*
X154684698Y-65812811D01*
X154940000Y-65430725D01*
X155195302Y-65812811D01*
X155660849Y-66123880D01*
X156210000Y-66233113D01*
X156759151Y-66123880D01*
X157224698Y-65812811D01*
X157480000Y-65430725D01*
X157735302Y-65812811D01*
X158200849Y-66123880D01*
X158750000Y-66233113D01*
X159299151Y-66123880D01*
X159764698Y-65812811D01*
X160020000Y-65430725D01*
X160275302Y-65812811D01*
X160740849Y-66123880D01*
X161290000Y-66233113D01*
X161839151Y-66123880D01*
X162304698Y-65812811D01*
X162560000Y-65430725D01*
X162815302Y-65812811D01*
X163280849Y-66123880D01*
X163830000Y-66233113D01*
X164379151Y-66123880D01*
X164844698Y-65812811D01*
X165155767Y-65347264D01*
X165265000Y-64798113D01*
X165265000Y-64741887D01*
X165155767Y-64192736D01*
X164844698Y-63727189D01*
X164379151Y-63416120D01*
X163830000Y-63306887D01*
X163448550Y-63382762D01*
X163062894Y-62997106D01*
X162832165Y-62842937D01*
X162560000Y-62788800D01*
X153964589Y-62788800D01*
X153746200Y-62570412D01*
X153746200Y-59690000D01*
X153692063Y-59417836D01*
X153692063Y-59417835D01*
X153537894Y-59187105D01*
X152304475Y-57953687D01*
X152400000Y-57810725D01*
X152655302Y-58192811D01*
X153120849Y-58503880D01*
X153670000Y-58613113D01*
X154219151Y-58503880D01*
X154684698Y-58192811D01*
X154940000Y-57810725D01*
X155195302Y-58192811D01*
X155660849Y-58503880D01*
X156210000Y-58613113D01*
X156759151Y-58503880D01*
X157224698Y-58192811D01*
X157480000Y-57810725D01*
X157735302Y-58192811D01*
X158200849Y-58503880D01*
X158750000Y-58613113D01*
X159299151Y-58503880D01*
X159764698Y-58192811D01*
X160020000Y-57810725D01*
X160275302Y-58192811D01*
X160740849Y-58503880D01*
X161290000Y-58613113D01*
X161839151Y-58503880D01*
X162304698Y-58192811D01*
X162560000Y-57810725D01*
X162815302Y-58192811D01*
X163280849Y-58503880D01*
X163830000Y-58613113D01*
X164379151Y-58503880D01*
X164844698Y-58192811D01*
X165155767Y-57727264D01*
X165265000Y-57178113D01*
X165265000Y-57121887D01*
X165159440Y-56591200D01*
X171861109Y-56591200D01*
X172032004Y-56846962D01*
X171887559Y-56939910D01*
X171742569Y-57152110D01*
X171691560Y-57404000D01*
X171691560Y-59436000D01*
X171735838Y-59671317D01*
X171874910Y-59887441D01*
X172056361Y-60011421D01*
X172004268Y-60057964D01*
X171750291Y-60585209D01*
X171747642Y-60600974D01*
X171868783Y-60833000D01*
X173228000Y-60833000D01*
X173228000Y-60813000D01*
X173482000Y-60813000D01*
X173482000Y-60833000D01*
X173502000Y-60833000D01*
X173502000Y-61087000D01*
X173482000Y-61087000D01*
X173482000Y-61107000D01*
X173228000Y-61107000D01*
X173228000Y-61087000D01*
X171868783Y-61087000D01*
X171747642Y-61319026D01*
X171750291Y-61334791D01*
X172004268Y-61862036D01*
X172420069Y-62233539D01*
X172110585Y-62440330D01*
X171785729Y-62926511D01*
X171671655Y-63500000D01*
X171785729Y-64073489D01*
X172110585Y-64559670D01*
X172425366Y-64770000D01*
X172110585Y-64980330D01*
X171785729Y-65466511D01*
X171671655Y-66040000D01*
X171785729Y-66613489D01*
X172110585Y-67099670D01*
X172420069Y-67306461D01*
X172004268Y-67677964D01*
X171750291Y-68205209D01*
X171747642Y-68220974D01*
X171868783Y-68453000D01*
X173228000Y-68453000D01*
X173228000Y-68433000D01*
X173482000Y-68433000D01*
X173482000Y-68453000D01*
X173502000Y-68453000D01*
X173502000Y-68707000D01*
X173482000Y-68707000D01*
X173482000Y-68727000D01*
X173228000Y-68727000D01*
X173228000Y-68707000D01*
X171868783Y-68707000D01*
X171747642Y-68939026D01*
X171750291Y-68954791D01*
X172004268Y-69482036D01*
X172420069Y-69853539D01*
X172110585Y-70060330D01*
X171785729Y-70546511D01*
X171671655Y-71120000D01*
X171785729Y-71693489D01*
X172110585Y-72179670D01*
X172425366Y-72390000D01*
X172110585Y-72600330D01*
X171785729Y-73086511D01*
X171671655Y-73660000D01*
X171785729Y-74233489D01*
X172110585Y-74719670D01*
X172425366Y-74930000D01*
X172110585Y-75140330D01*
X171877745Y-75488800D01*
X170601510Y-75488800D01*
X170595005Y-75473057D01*
X170233845Y-75111265D01*
X169777198Y-74921648D01*
X170226354Y-74736061D01*
X170619680Y-74343421D01*
X170832808Y-73830151D01*
X170833293Y-73274390D01*
X170621061Y-72760748D01*
X170228421Y-72367422D01*
X169715151Y-72154294D01*
X169159390Y-72153809D01*
X168645748Y-72366041D01*
X168252422Y-72758681D01*
X168039294Y-73271951D01*
X168038809Y-73827712D01*
X168251041Y-74341354D01*
X168643681Y-74734680D01*
X169156951Y-74947808D01*
X169170549Y-74947820D01*
X168778057Y-75109995D01*
X168416265Y-75471155D01*
X168302440Y-75745276D01*
X168302440Y-75550000D01*
X168258162Y-75314683D01*
X168119090Y-75098559D01*
X167906890Y-74953569D01*
X167655000Y-74902560D01*
X166355000Y-74902560D01*
X166119683Y-74946838D01*
X165903559Y-75085910D01*
X165758569Y-75298110D01*
X165707560Y-75550000D01*
X165707560Y-76850000D01*
X165751838Y-77085317D01*
X165890910Y-77301441D01*
X166103110Y-77446431D01*
X166355000Y-77497440D01*
X167655000Y-77497440D01*
X167890317Y-77453162D01*
X168106441Y-77314090D01*
X168251431Y-77101890D01*
X168302440Y-76850000D01*
X168302440Y-76654540D01*
X168414995Y-76926943D01*
X168776155Y-77288735D01*
X169248276Y-77484777D01*
X169759481Y-77485223D01*
X170231943Y-77290005D01*
X170593735Y-76928845D01*
X170601062Y-76911200D01*
X171877745Y-76911200D01*
X172110585Y-77259670D01*
X172596766Y-77584526D01*
X173170255Y-77698600D01*
X173539745Y-77698600D01*
X174113234Y-77584526D01*
X174599415Y-77259670D01*
X174924271Y-76773489D01*
X175038345Y-76200000D01*
X174924271Y-75626511D01*
X174599415Y-75140330D01*
X174284634Y-74930000D01*
X174599415Y-74719670D01*
X174924271Y-74233489D01*
X175038345Y-73660000D01*
X174924271Y-73086511D01*
X174673933Y-72711855D01*
X175396642Y-71989146D01*
X175401329Y-72000462D01*
X175510178Y-72163366D01*
X175315171Y-72358033D01*
X175180154Y-72683190D01*
X175179847Y-73035265D01*
X175272768Y-73260151D01*
X175180154Y-73483190D01*
X175179847Y-73835265D01*
X175272768Y-74060151D01*
X175180154Y-74283190D01*
X175179847Y-74635265D01*
X175314296Y-74960657D01*
X175510079Y-75156782D01*
X175401329Y-75319538D01*
X175359250Y-75421127D01*
X175295315Y-75575478D01*
X175198642Y-76061486D01*
X175198642Y-76131416D01*
X175185000Y-76200000D01*
X175185000Y-78030000D01*
X69925000Y-78030000D01*
X69925000Y-61319026D01*
X70147642Y-61319026D01*
X70150291Y-61334791D01*
X70404268Y-61862036D01*
X70840680Y-62251954D01*
X71393087Y-62445184D01*
X71628000Y-62300924D01*
X71628000Y-61087000D01*
X71882000Y-61087000D01*
X71882000Y-62300924D01*
X72116913Y-62445184D01*
X72669320Y-62251954D01*
X73105732Y-61862036D01*
X73359709Y-61334791D01*
X73362358Y-61319026D01*
X73241217Y-61087000D01*
X71882000Y-61087000D01*
X71628000Y-61087000D01*
X70268783Y-61087000D01*
X70147642Y-61319026D01*
X69925000Y-61319026D01*
X69925000Y-54050000D01*
X72579212Y-54050000D01*
X72320143Y-54309069D01*
G36*
X107447106Y-62732895D02*
X107644816Y-62865000D01*
X107677836Y-62887063D01*
X107950000Y-62941200D01*
X126705412Y-62941200D01*
X126923800Y-63159589D01*
X126923800Y-63464976D01*
X126714039Y-63378096D01*
X126492000Y-63500085D01*
X126492000Y-64643000D01*
X126512000Y-64643000D01*
X126512000Y-64897000D01*
X126492000Y-64897000D01*
X126492000Y-64917000D01*
X126238000Y-64917000D01*
X126238000Y-64897000D01*
X126218000Y-64897000D01*
X126218000Y-64643000D01*
X126238000Y-64643000D01*
X126238000Y-63500085D01*
X126015961Y-63378096D01*
X125627577Y-63538959D01*
X125212611Y-63914866D01*
X125109986Y-64131703D01*
X124839698Y-63727189D01*
X124374151Y-63416120D01*
X123825000Y-63306887D01*
X123275849Y-63416120D01*
X122810302Y-63727189D01*
X122555000Y-64109275D01*
X122299698Y-63727189D01*
X121834151Y-63416120D01*
X121285000Y-63306887D01*
X120735849Y-63416120D01*
X120270302Y-63727189D01*
X120015000Y-64109275D01*
X119759698Y-63727189D01*
X119294151Y-63416120D01*
X118745000Y-63306887D01*
X118195849Y-63416120D01*
X117730302Y-63727189D01*
X117475000Y-64109275D01*
X117219698Y-63727189D01*
X116754151Y-63416120D01*
X116205000Y-63306887D01*
X115655849Y-63416120D01*
X115190302Y-63727189D01*
X114935000Y-64109275D01*
X114679698Y-63727189D01*
X114214151Y-63416120D01*
X113665000Y-63306887D01*
X113115849Y-63416120D01*
X112650302Y-63727189D01*
X112395000Y-64109275D01*
X112139698Y-63727189D01*
X111674151Y-63416120D01*
X111125000Y-63306887D01*
X110575849Y-63416120D01*
X110110302Y-63727189D01*
X109855000Y-64109275D01*
X109599698Y-63727189D01*
X109134151Y-63416120D01*
X108585000Y-63306887D01*
X108035849Y-63416120D01*
X107570302Y-63727189D01*
X107259233Y-64192736D01*
X107150000Y-64741887D01*
X107150000Y-64798113D01*
X107259233Y-65347264D01*
X107570302Y-65812811D01*
X107910314Y-66040000D01*
X107570302Y-66267189D01*
X107259233Y-66732736D01*
X107150000Y-67281887D01*
X107150000Y-67338113D01*
X107255560Y-67868800D01*
X106716794Y-67868800D01*
X106599659Y-67751460D01*
X106240370Y-67602270D01*
X105851337Y-67601931D01*
X105491788Y-67750493D01*
X105216460Y-68025341D01*
X105110429Y-68280691D01*
X104856788Y-68385493D01*
X104581460Y-68660341D01*
X104432270Y-69019630D01*
X104432120Y-69191490D01*
X102997000Y-67756370D01*
X102997000Y-66433440D01*
X103098600Y-66433440D01*
X103333917Y-66389162D01*
X103550041Y-66250090D01*
X103695031Y-66037890D01*
X103746040Y-65786000D01*
X103746040Y-63754000D01*
X103701762Y-63518683D01*
X103562690Y-63302559D01*
X103350490Y-63157569D01*
X103098600Y-63106560D01*
X101371400Y-63106560D01*
X101136083Y-63150838D01*
X100919959Y-63289910D01*
X100774969Y-63502110D01*
X100766600Y-63543439D01*
X100754670Y-63525585D01*
X100268489Y-63200729D01*
X99695000Y-63086655D01*
X99121511Y-63200729D01*
X98866052Y-63371421D01*
X98390964Y-62896334D01*
X98551757Y-62509100D01*
X98551815Y-62442838D01*
X98864630Y-62572730D01*
X99253663Y-62573069D01*
X99613212Y-62424507D01*
X99731726Y-62306200D01*
X107020412Y-62306200D01*
X107447106Y-62732895D01*
X107447106Y-62732895D01*
G37*
X107447106Y-62732895D02*
X107644816Y-62865000D01*
X107677836Y-62887063D01*
X107950000Y-62941200D01*
X126705412Y-62941200D01*
X126923800Y-63159589D01*
X126923800Y-63464976D01*
X126714039Y-63378096D01*
X126492000Y-63500085D01*
X126492000Y-64643000D01*
X126512000Y-64643000D01*
X126512000Y-64897000D01*
X126492000Y-64897000D01*
X126492000Y-64917000D01*
X126238000Y-64917000D01*
X126238000Y-64897000D01*
X126218000Y-64897000D01*
X126218000Y-64643000D01*
X126238000Y-64643000D01*
X126238000Y-63500085D01*
X126015961Y-63378096D01*
X125627577Y-63538959D01*
X125212611Y-63914866D01*
X125109986Y-64131703D01*
X124839698Y-63727189D01*
X124374151Y-63416120D01*
X123825000Y-63306887D01*
X123275849Y-63416120D01*
X122810302Y-63727189D01*
X122555000Y-64109275D01*
X122299698Y-63727189D01*
X121834151Y-63416120D01*
X121285000Y-63306887D01*
X120735849Y-63416120D01*
X120270302Y-63727189D01*
X120015000Y-64109275D01*
X119759698Y-63727189D01*
X119294151Y-63416120D01*
X118745000Y-63306887D01*
X118195849Y-63416120D01*
X117730302Y-63727189D01*
X117475000Y-64109275D01*
X117219698Y-63727189D01*
X116754151Y-63416120D01*
X116205000Y-63306887D01*
X115655849Y-63416120D01*
X115190302Y-63727189D01*
X114935000Y-64109275D01*
X114679698Y-63727189D01*
X114214151Y-63416120D01*
X113665000Y-63306887D01*
X113115849Y-63416120D01*
X112650302Y-63727189D01*
X112395000Y-64109275D01*
X112139698Y-63727189D01*
X111674151Y-63416120D01*
X111125000Y-63306887D01*
X110575849Y-63416120D01*
X110110302Y-63727189D01*
X109855000Y-64109275D01*
X109599698Y-63727189D01*
X109134151Y-63416120D01*
X108585000Y-63306887D01*
X108035849Y-63416120D01*
X107570302Y-63727189D01*
X107259233Y-64192736D01*
X107150000Y-64741887D01*
X107150000Y-64798113D01*
X107259233Y-65347264D01*
X107570302Y-65812811D01*
X107910314Y-66040000D01*
X107570302Y-66267189D01*
X107259233Y-66732736D01*
X107150000Y-67281887D01*
X107150000Y-67338113D01*
X107255560Y-67868800D01*
X106716794Y-67868800D01*
X106599659Y-67751460D01*
X106240370Y-67602270D01*
X105851337Y-67601931D01*
X105491788Y-67750493D01*
X105216460Y-68025341D01*
X105110429Y-68280691D01*
X104856788Y-68385493D01*
X104581460Y-68660341D01*
X104432270Y-69019630D01*
X104432120Y-69191490D01*
X102997000Y-67756370D01*
X102997000Y-66433440D01*
X103098600Y-66433440D01*
X103333917Y-66389162D01*
X103550041Y-66250090D01*
X103695031Y-66037890D01*
X103746040Y-65786000D01*
X103746040Y-63754000D01*
X103701762Y-63518683D01*
X103562690Y-63302559D01*
X103350490Y-63157569D01*
X103098600Y-63106560D01*
X101371400Y-63106560D01*
X101136083Y-63150838D01*
X100919959Y-63289910D01*
X100774969Y-63502110D01*
X100766600Y-63543439D01*
X100754670Y-63525585D01*
X100268489Y-63200729D01*
X99695000Y-63086655D01*
X99121511Y-63200729D01*
X98866052Y-63371421D01*
X98390964Y-62896334D01*
X98551757Y-62509100D01*
X98551815Y-62442838D01*
X98864630Y-62572730D01*
X99253663Y-62573069D01*
X99613212Y-62424507D01*
X99731726Y-62306200D01*
X107020412Y-62306200D01*
X107447106Y-62732895D01*
M02*
