G04 #@! TF.FileFunction,Legend,Bot*
%FSLAX46Y46*%
G04 Gerber Fmt 4.6, Leading zero omitted, Abs format (unit mm)*
G04 Created by KiCad (PCBNEW 4.0.2-stable) date 1/2/2017 10:04:15 PM*
%MOMM*%
G01*
G04 APERTURE LIST*
%ADD10C,0.100000*%
%ADD11C,0.200000*%
%ADD12C,0.190500*%
%ADD13C,0.254000*%
%ADD14C,0.300000*%
%ADD15C,0.010000*%
%ADD16C,0.150000*%
G04 APERTURE END LIST*
D10*
D11*
X179959000Y-73914000D02*
X179705000Y-73660000D01*
X179959000Y-73406000D02*
X179959000Y-73914000D01*
X179705000Y-73660000D02*
X179959000Y-73406000D01*
X179705000Y-58420000D02*
X179959000Y-58674000D01*
X179705000Y-58420000D02*
X179959000Y-58166000D01*
X179705000Y-73406000D02*
X179959000Y-73660000D01*
X179705000Y-73914000D02*
X179959000Y-73660000D01*
X179959000Y-74168000D02*
X179451000Y-73660000D01*
X179959000Y-73152000D02*
X179959000Y-74168000D01*
X179451000Y-73660000D02*
X179959000Y-73152000D01*
X181229000Y-73660000D02*
X179451000Y-73660000D01*
X179959000Y-58928000D02*
X179451000Y-58420000D01*
X179959000Y-57912000D02*
X179959000Y-58928000D01*
X179451000Y-58420000D02*
X179959000Y-57912000D01*
X181229000Y-58420000D02*
X179451000Y-58420000D01*
D12*
X182553429Y-72408143D02*
X182589714Y-72517000D01*
X182589714Y-72698429D01*
X182553429Y-72771000D01*
X182517143Y-72807286D01*
X182444571Y-72843571D01*
X182372000Y-72843571D01*
X182299429Y-72807286D01*
X182263143Y-72771000D01*
X182226857Y-72698429D01*
X182190571Y-72553286D01*
X182154286Y-72480714D01*
X182118000Y-72444429D01*
X182045429Y-72408143D01*
X181972857Y-72408143D01*
X181900286Y-72444429D01*
X181864000Y-72480714D01*
X181827714Y-72553286D01*
X181827714Y-72734714D01*
X181864000Y-72843571D01*
X182081714Y-73170143D02*
X182589714Y-73170143D01*
X182154286Y-73170143D02*
X182118000Y-73206428D01*
X182081714Y-73279000D01*
X182081714Y-73387857D01*
X182118000Y-73460428D01*
X182190571Y-73496714D01*
X182589714Y-73496714D01*
X182589714Y-74186143D02*
X182190571Y-74186143D01*
X182118000Y-74149857D01*
X182081714Y-74077286D01*
X182081714Y-73932143D01*
X182118000Y-73859572D01*
X182553429Y-74186143D02*
X182589714Y-74113572D01*
X182589714Y-73932143D01*
X182553429Y-73859572D01*
X182480857Y-73823286D01*
X182408286Y-73823286D01*
X182335714Y-73859572D01*
X182299429Y-73932143D01*
X182299429Y-74113572D01*
X182263143Y-74186143D01*
X182081714Y-74549001D02*
X182843714Y-74549001D01*
X182118000Y-74549001D02*
X182081714Y-74621572D01*
X182081714Y-74766715D01*
X182118000Y-74839286D01*
X182154286Y-74875572D01*
X182226857Y-74911858D01*
X182444571Y-74911858D01*
X182517143Y-74875572D01*
X182553429Y-74839286D01*
X182589714Y-74766715D01*
X182589714Y-74621572D01*
X182553429Y-74549001D01*
X182553429Y-57168143D02*
X182589714Y-57277000D01*
X182589714Y-57458429D01*
X182553429Y-57531000D01*
X182517143Y-57567286D01*
X182444571Y-57603571D01*
X182372000Y-57603571D01*
X182299429Y-57567286D01*
X182263143Y-57531000D01*
X182226857Y-57458429D01*
X182190571Y-57313286D01*
X182154286Y-57240714D01*
X182118000Y-57204429D01*
X182045429Y-57168143D01*
X181972857Y-57168143D01*
X181900286Y-57204429D01*
X181864000Y-57240714D01*
X181827714Y-57313286D01*
X181827714Y-57494714D01*
X181864000Y-57603571D01*
X182081714Y-57930143D02*
X182589714Y-57930143D01*
X182154286Y-57930143D02*
X182118000Y-57966428D01*
X182081714Y-58039000D01*
X182081714Y-58147857D01*
X182118000Y-58220428D01*
X182190571Y-58256714D01*
X182589714Y-58256714D01*
X182589714Y-58946143D02*
X182190571Y-58946143D01*
X182118000Y-58909857D01*
X182081714Y-58837286D01*
X182081714Y-58692143D01*
X182118000Y-58619572D01*
X182553429Y-58946143D02*
X182589714Y-58873572D01*
X182589714Y-58692143D01*
X182553429Y-58619572D01*
X182480857Y-58583286D01*
X182408286Y-58583286D01*
X182335714Y-58619572D01*
X182299429Y-58692143D01*
X182299429Y-58873572D01*
X182263143Y-58946143D01*
X182081714Y-59309001D02*
X182843714Y-59309001D01*
X182118000Y-59309001D02*
X182081714Y-59381572D01*
X182081714Y-59526715D01*
X182118000Y-59599286D01*
X182154286Y-59635572D01*
X182226857Y-59671858D01*
X182444571Y-59671858D01*
X182517143Y-59635572D01*
X182553429Y-59599286D01*
X182589714Y-59526715D01*
X182589714Y-59381572D01*
X182553429Y-59309001D01*
X166497000Y-59436000D02*
X166497000Y-59798857D01*
X166714714Y-59363428D02*
X165952714Y-59617428D01*
X166714714Y-59871428D01*
X166206714Y-60125429D02*
X166714714Y-60125429D01*
X166279286Y-60125429D02*
X166243000Y-60161714D01*
X166206714Y-60234286D01*
X166206714Y-60343143D01*
X166243000Y-60415714D01*
X166315571Y-60452000D01*
X166714714Y-60452000D01*
X166678429Y-61141429D02*
X166714714Y-61068858D01*
X166714714Y-60923715D01*
X166678429Y-60851143D01*
X166642143Y-60814858D01*
X166569571Y-60778572D01*
X166351857Y-60778572D01*
X166279286Y-60814858D01*
X166243000Y-60851143D01*
X166206714Y-60923715D01*
X166206714Y-61068858D01*
X166243000Y-61141429D01*
X166714714Y-61468001D02*
X165952714Y-61468001D01*
X166714714Y-61794572D02*
X166315571Y-61794572D01*
X166243000Y-61758286D01*
X166206714Y-61685715D01*
X166206714Y-61576858D01*
X166243000Y-61504286D01*
X166279286Y-61468001D01*
X166714714Y-62266287D02*
X166678429Y-62193715D01*
X166642143Y-62157430D01*
X166569571Y-62121144D01*
X166351857Y-62121144D01*
X166279286Y-62157430D01*
X166243000Y-62193715D01*
X166206714Y-62266287D01*
X166206714Y-62375144D01*
X166243000Y-62447715D01*
X166279286Y-62484001D01*
X166351857Y-62520287D01*
X166569571Y-62520287D01*
X166642143Y-62484001D01*
X166678429Y-62447715D01*
X166714714Y-62375144D01*
X166714714Y-62266287D01*
X166714714Y-62846859D02*
X166206714Y-62846859D01*
X166351857Y-62846859D02*
X166279286Y-62883144D01*
X166243000Y-62919430D01*
X166206714Y-62992001D01*
X166206714Y-63064573D01*
X165952714Y-63790286D02*
X165952714Y-64225715D01*
X166714714Y-64008001D02*
X165952714Y-64008001D01*
X166714714Y-64479715D02*
X165952714Y-64479715D01*
X166714714Y-64806286D02*
X166315571Y-64806286D01*
X166243000Y-64770000D01*
X166206714Y-64697429D01*
X166206714Y-64588572D01*
X166243000Y-64516000D01*
X166279286Y-64479715D01*
X166714714Y-65169144D02*
X166206714Y-65169144D01*
X165952714Y-65169144D02*
X165989000Y-65132858D01*
X166025286Y-65169144D01*
X165989000Y-65205429D01*
X165952714Y-65169144D01*
X166025286Y-65169144D01*
X166678429Y-65495715D02*
X166714714Y-65568286D01*
X166714714Y-65713429D01*
X166678429Y-65786001D01*
X166605857Y-65822286D01*
X166569571Y-65822286D01*
X166497000Y-65786001D01*
X166460714Y-65713429D01*
X166460714Y-65604572D01*
X166424429Y-65532001D01*
X166351857Y-65495715D01*
X166315571Y-65495715D01*
X166243000Y-65532001D01*
X166206714Y-65604572D01*
X166206714Y-65713429D01*
X166243000Y-65786001D01*
X166678429Y-66693143D02*
X166714714Y-66802000D01*
X166714714Y-66983429D01*
X166678429Y-67056000D01*
X166642143Y-67092286D01*
X166569571Y-67128571D01*
X166497000Y-67128571D01*
X166424429Y-67092286D01*
X166388143Y-67056000D01*
X166351857Y-66983429D01*
X166315571Y-66838286D01*
X166279286Y-66765714D01*
X166243000Y-66729429D01*
X166170429Y-66693143D01*
X166097857Y-66693143D01*
X166025286Y-66729429D01*
X165989000Y-66765714D01*
X165952714Y-66838286D01*
X165952714Y-67019714D01*
X165989000Y-67128571D01*
X166714714Y-67455143D02*
X166206714Y-67455143D01*
X165952714Y-67455143D02*
X165989000Y-67418857D01*
X166025286Y-67455143D01*
X165989000Y-67491428D01*
X165952714Y-67455143D01*
X166025286Y-67455143D01*
X166714714Y-68144571D02*
X165952714Y-68144571D01*
X166678429Y-68144571D02*
X166714714Y-68072000D01*
X166714714Y-67926857D01*
X166678429Y-67854285D01*
X166642143Y-67818000D01*
X166569571Y-67781714D01*
X166351857Y-67781714D01*
X166279286Y-67818000D01*
X166243000Y-67854285D01*
X166206714Y-67926857D01*
X166206714Y-68072000D01*
X166243000Y-68144571D01*
X166678429Y-68797714D02*
X166714714Y-68725143D01*
X166714714Y-68580000D01*
X166678429Y-68507429D01*
X166605857Y-68471143D01*
X166315571Y-68471143D01*
X166243000Y-68507429D01*
X166206714Y-68580000D01*
X166206714Y-68725143D01*
X166243000Y-68797714D01*
X166315571Y-68834000D01*
X166388143Y-68834000D01*
X166460714Y-68471143D01*
X188722000Y-60071000D02*
X188722000Y-60433857D01*
X188939714Y-59998428D02*
X188177714Y-60252428D01*
X188939714Y-60506428D01*
X188431714Y-60760429D02*
X188939714Y-60760429D01*
X188504286Y-60760429D02*
X188468000Y-60796714D01*
X188431714Y-60869286D01*
X188431714Y-60978143D01*
X188468000Y-61050714D01*
X188540571Y-61087000D01*
X188939714Y-61087000D01*
X188903429Y-61776429D02*
X188939714Y-61703858D01*
X188939714Y-61558715D01*
X188903429Y-61486143D01*
X188867143Y-61449858D01*
X188794571Y-61413572D01*
X188576857Y-61413572D01*
X188504286Y-61449858D01*
X188468000Y-61486143D01*
X188431714Y-61558715D01*
X188431714Y-61703858D01*
X188468000Y-61776429D01*
X188939714Y-62103001D02*
X188177714Y-62103001D01*
X188939714Y-62429572D02*
X188540571Y-62429572D01*
X188468000Y-62393286D01*
X188431714Y-62320715D01*
X188431714Y-62211858D01*
X188468000Y-62139286D01*
X188504286Y-62103001D01*
X188939714Y-62901287D02*
X188903429Y-62828715D01*
X188867143Y-62792430D01*
X188794571Y-62756144D01*
X188576857Y-62756144D01*
X188504286Y-62792430D01*
X188468000Y-62828715D01*
X188431714Y-62901287D01*
X188431714Y-63010144D01*
X188468000Y-63082715D01*
X188504286Y-63119001D01*
X188576857Y-63155287D01*
X188794571Y-63155287D01*
X188867143Y-63119001D01*
X188903429Y-63082715D01*
X188939714Y-63010144D01*
X188939714Y-62901287D01*
X188939714Y-63481859D02*
X188431714Y-63481859D01*
X188576857Y-63481859D02*
X188504286Y-63518144D01*
X188468000Y-63554430D01*
X188431714Y-63627001D01*
X188431714Y-63699573D01*
X188177714Y-64425286D02*
X188177714Y-64860715D01*
X188939714Y-64643001D02*
X188177714Y-64643001D01*
X188939714Y-65114715D02*
X188177714Y-65114715D01*
X188939714Y-65441286D02*
X188540571Y-65441286D01*
X188468000Y-65405000D01*
X188431714Y-65332429D01*
X188431714Y-65223572D01*
X188468000Y-65151000D01*
X188504286Y-65114715D01*
X188939714Y-65804144D02*
X188431714Y-65804144D01*
X188177714Y-65804144D02*
X188214000Y-65767858D01*
X188250286Y-65804144D01*
X188214000Y-65840429D01*
X188177714Y-65804144D01*
X188250286Y-65804144D01*
X188903429Y-66130715D02*
X188939714Y-66203286D01*
X188939714Y-66348429D01*
X188903429Y-66421001D01*
X188830857Y-66457286D01*
X188794571Y-66457286D01*
X188722000Y-66421001D01*
X188685714Y-66348429D01*
X188685714Y-66239572D01*
X188649429Y-66167001D01*
X188576857Y-66130715D01*
X188540571Y-66130715D01*
X188468000Y-66167001D01*
X188431714Y-66239572D01*
X188431714Y-66348429D01*
X188468000Y-66421001D01*
X188903429Y-67328143D02*
X188939714Y-67437000D01*
X188939714Y-67618429D01*
X188903429Y-67691000D01*
X188867143Y-67727286D01*
X188794571Y-67763571D01*
X188722000Y-67763571D01*
X188649429Y-67727286D01*
X188613143Y-67691000D01*
X188576857Y-67618429D01*
X188540571Y-67473286D01*
X188504286Y-67400714D01*
X188468000Y-67364429D01*
X188395429Y-67328143D01*
X188322857Y-67328143D01*
X188250286Y-67364429D01*
X188214000Y-67400714D01*
X188177714Y-67473286D01*
X188177714Y-67654714D01*
X188214000Y-67763571D01*
X188939714Y-68090143D02*
X188431714Y-68090143D01*
X188177714Y-68090143D02*
X188214000Y-68053857D01*
X188250286Y-68090143D01*
X188214000Y-68126428D01*
X188177714Y-68090143D01*
X188250286Y-68090143D01*
X188939714Y-68779571D02*
X188177714Y-68779571D01*
X188903429Y-68779571D02*
X188939714Y-68707000D01*
X188939714Y-68561857D01*
X188903429Y-68489285D01*
X188867143Y-68453000D01*
X188794571Y-68416714D01*
X188576857Y-68416714D01*
X188504286Y-68453000D01*
X188468000Y-68489285D01*
X188431714Y-68561857D01*
X188431714Y-68707000D01*
X188468000Y-68779571D01*
X188903429Y-69432714D02*
X188939714Y-69360143D01*
X188939714Y-69215000D01*
X188903429Y-69142429D01*
X188830857Y-69106143D01*
X188540571Y-69106143D01*
X188468000Y-69142429D01*
X188431714Y-69215000D01*
X188431714Y-69360143D01*
X188468000Y-69432714D01*
X188540571Y-69469000D01*
X188613143Y-69469000D01*
X188685714Y-69106143D01*
D13*
X277204712Y-61957857D02*
X277253093Y-62006238D01*
X277398236Y-62054619D01*
X277494998Y-62054619D01*
X277640140Y-62006238D01*
X277736902Y-61909476D01*
X277785283Y-61812714D01*
X277833664Y-61619190D01*
X277833664Y-61474048D01*
X277785283Y-61280524D01*
X277736902Y-61183762D01*
X277640140Y-61087000D01*
X277494998Y-61038619D01*
X277398236Y-61038619D01*
X277253093Y-61087000D01*
X277204712Y-61135381D01*
X276624140Y-62054619D02*
X276720902Y-62006238D01*
X276769283Y-61957857D01*
X276817664Y-61861095D01*
X276817664Y-61570810D01*
X276769283Y-61474048D01*
X276720902Y-61425667D01*
X276624140Y-61377286D01*
X276478998Y-61377286D01*
X276382236Y-61425667D01*
X276333855Y-61474048D01*
X276285474Y-61570810D01*
X276285474Y-61861095D01*
X276333855Y-61957857D01*
X276382236Y-62006238D01*
X276478998Y-62054619D01*
X276624140Y-62054619D01*
X275850045Y-61377286D02*
X275850045Y-62054619D01*
X275850045Y-61474048D02*
X275801664Y-61425667D01*
X275704902Y-61377286D01*
X275559760Y-61377286D01*
X275462998Y-61425667D01*
X275414617Y-61522429D01*
X275414617Y-62054619D01*
X275075950Y-61377286D02*
X274688902Y-61377286D01*
X274930807Y-61038619D02*
X274930807Y-61909476D01*
X274882426Y-62006238D01*
X274785664Y-62054619D01*
X274688902Y-62054619D01*
X274350236Y-62054619D02*
X274350236Y-61377286D01*
X274350236Y-61570810D02*
X274301855Y-61474048D01*
X274253474Y-61425667D01*
X274156712Y-61377286D01*
X274059951Y-61377286D01*
X273576141Y-62054619D02*
X273672903Y-62006238D01*
X273721284Y-61957857D01*
X273769665Y-61861095D01*
X273769665Y-61570810D01*
X273721284Y-61474048D01*
X273672903Y-61425667D01*
X273576141Y-61377286D01*
X273430999Y-61377286D01*
X273334237Y-61425667D01*
X273285856Y-61474048D01*
X273237475Y-61570810D01*
X273237475Y-61861095D01*
X273285856Y-61957857D01*
X273334237Y-62006238D01*
X273430999Y-62054619D01*
X273576141Y-62054619D01*
X272656903Y-62054619D02*
X272753665Y-62006238D01*
X272802046Y-61909476D01*
X272802046Y-61038619D01*
X272124713Y-62054619D02*
X272221475Y-62006238D01*
X272269856Y-61909476D01*
X272269856Y-61038619D01*
X271350619Y-62006238D02*
X271447381Y-62054619D01*
X271640904Y-62054619D01*
X271737666Y-62006238D01*
X271786047Y-61909476D01*
X271786047Y-61522429D01*
X271737666Y-61425667D01*
X271640904Y-61377286D01*
X271447381Y-61377286D01*
X271350619Y-61425667D01*
X271302238Y-61522429D01*
X271302238Y-61619190D01*
X271786047Y-61715952D01*
X270866809Y-62054619D02*
X270866809Y-61377286D01*
X270866809Y-61570810D02*
X270818428Y-61474048D01*
X270770047Y-61425667D01*
X270673285Y-61377286D01*
X270576524Y-61377286D01*
X269463762Y-62054619D02*
X269463762Y-61038619D01*
X269463762Y-61522429D02*
X268883191Y-61522429D01*
X268883191Y-62054619D02*
X268883191Y-61038619D01*
X268012334Y-62006238D02*
X268109096Y-62054619D01*
X268302619Y-62054619D01*
X268399381Y-62006238D01*
X268447762Y-61909476D01*
X268447762Y-61522429D01*
X268399381Y-61425667D01*
X268302619Y-61377286D01*
X268109096Y-61377286D01*
X268012334Y-61425667D01*
X267963953Y-61522429D01*
X267963953Y-61619190D01*
X268447762Y-61715952D01*
X267093096Y-62054619D02*
X267093096Y-61522429D01*
X267141477Y-61425667D01*
X267238239Y-61377286D01*
X267431762Y-61377286D01*
X267528524Y-61425667D01*
X267093096Y-62006238D02*
X267189858Y-62054619D01*
X267431762Y-62054619D01*
X267528524Y-62006238D01*
X267576905Y-61909476D01*
X267576905Y-61812714D01*
X267528524Y-61715952D01*
X267431762Y-61667571D01*
X267189858Y-61667571D01*
X267093096Y-61619190D01*
X266173858Y-62054619D02*
X266173858Y-61038619D01*
X266173858Y-62006238D02*
X266270620Y-62054619D01*
X266464143Y-62054619D01*
X266560905Y-62006238D01*
X266609286Y-61957857D01*
X266657667Y-61861095D01*
X266657667Y-61570810D01*
X266609286Y-61474048D01*
X266560905Y-61425667D01*
X266464143Y-61377286D01*
X266270620Y-61377286D01*
X266173858Y-61425667D01*
X265303001Y-62006238D02*
X265399763Y-62054619D01*
X265593286Y-62054619D01*
X265690048Y-62006238D01*
X265738429Y-61909476D01*
X265738429Y-61522429D01*
X265690048Y-61425667D01*
X265593286Y-61377286D01*
X265399763Y-61377286D01*
X265303001Y-61425667D01*
X265254620Y-61522429D01*
X265254620Y-61619190D01*
X265738429Y-61715952D01*
X264819191Y-62054619D02*
X264819191Y-61377286D01*
X264819191Y-61570810D02*
X264770810Y-61474048D01*
X264722429Y-61425667D01*
X264625667Y-61377286D01*
X264528906Y-61377286D01*
X263561287Y-61038619D02*
X262980716Y-61038619D01*
X263271001Y-62054619D02*
X263271001Y-61038619D01*
X262642049Y-62054619D02*
X262642049Y-61038619D01*
X262206621Y-62054619D02*
X262206621Y-61522429D01*
X262255002Y-61425667D01*
X262351764Y-61377286D01*
X262496906Y-61377286D01*
X262593668Y-61425667D01*
X262642049Y-61474048D01*
X261722811Y-62054619D02*
X261722811Y-61377286D01*
X261722811Y-61038619D02*
X261771192Y-61087000D01*
X261722811Y-61135381D01*
X261674430Y-61087000D01*
X261722811Y-61038619D01*
X261722811Y-61135381D01*
X261287382Y-62006238D02*
X261190620Y-62054619D01*
X260997096Y-62054619D01*
X260900335Y-62006238D01*
X260851954Y-61909476D01*
X260851954Y-61861095D01*
X260900335Y-61764333D01*
X260997096Y-61715952D01*
X261142239Y-61715952D01*
X261239001Y-61667571D01*
X261287382Y-61570810D01*
X261287382Y-61522429D01*
X261239001Y-61425667D01*
X261142239Y-61377286D01*
X260997096Y-61377286D01*
X260900335Y-61425667D01*
X259690811Y-62006238D02*
X259545668Y-62054619D01*
X259303764Y-62054619D01*
X259207002Y-62006238D01*
X259158621Y-61957857D01*
X259110240Y-61861095D01*
X259110240Y-61764333D01*
X259158621Y-61667571D01*
X259207002Y-61619190D01*
X259303764Y-61570810D01*
X259497287Y-61522429D01*
X259594049Y-61474048D01*
X259642430Y-61425667D01*
X259690811Y-61328905D01*
X259690811Y-61232143D01*
X259642430Y-61135381D01*
X259594049Y-61087000D01*
X259497287Y-61038619D01*
X259255383Y-61038619D01*
X259110240Y-61087000D01*
X258674811Y-62054619D02*
X258674811Y-61377286D01*
X258674811Y-61038619D02*
X258723192Y-61087000D01*
X258674811Y-61135381D01*
X258626430Y-61087000D01*
X258674811Y-61038619D01*
X258674811Y-61135381D01*
X257755573Y-62054619D02*
X257755573Y-61038619D01*
X257755573Y-62006238D02*
X257852335Y-62054619D01*
X258045858Y-62054619D01*
X258142620Y-62006238D01*
X258191001Y-61957857D01*
X258239382Y-61861095D01*
X258239382Y-61570810D01*
X258191001Y-61474048D01*
X258142620Y-61425667D01*
X258045858Y-61377286D01*
X257852335Y-61377286D01*
X257755573Y-61425667D01*
X256884716Y-62006238D02*
X256981478Y-62054619D01*
X257175001Y-62054619D01*
X257271763Y-62006238D01*
X257320144Y-61909476D01*
X257320144Y-61522429D01*
X257271763Y-61425667D01*
X257175001Y-61377286D01*
X256981478Y-61377286D01*
X256884716Y-61425667D01*
X256836335Y-61522429D01*
X256836335Y-61619190D01*
X257320144Y-61715952D01*
X96405094Y-60784619D02*
X96405094Y-59768619D01*
X96163189Y-59768619D01*
X96018047Y-59817000D01*
X95921285Y-59913762D01*
X95872904Y-60010524D01*
X95824523Y-60204048D01*
X95824523Y-60349190D01*
X95872904Y-60542714D01*
X95921285Y-60639476D01*
X96018047Y-60736238D01*
X96163189Y-60784619D01*
X96405094Y-60784619D01*
X95389094Y-60784619D02*
X95389094Y-60107286D01*
X95389094Y-59768619D02*
X95437475Y-59817000D01*
X95389094Y-59865381D01*
X95340713Y-59817000D01*
X95389094Y-59768619D01*
X95389094Y-59865381D01*
X94953665Y-60736238D02*
X94856903Y-60784619D01*
X94663379Y-60784619D01*
X94566618Y-60736238D01*
X94518237Y-60639476D01*
X94518237Y-60591095D01*
X94566618Y-60494333D01*
X94663379Y-60445952D01*
X94808522Y-60445952D01*
X94905284Y-60397571D01*
X94953665Y-60300810D01*
X94953665Y-60252429D01*
X94905284Y-60155667D01*
X94808522Y-60107286D01*
X94663379Y-60107286D01*
X94566618Y-60155667D01*
X94082808Y-60107286D02*
X94082808Y-61123286D01*
X94082808Y-60155667D02*
X93986046Y-60107286D01*
X93792523Y-60107286D01*
X93695761Y-60155667D01*
X93647380Y-60204048D01*
X93598999Y-60300810D01*
X93598999Y-60591095D01*
X93647380Y-60687857D01*
X93695761Y-60736238D01*
X93792523Y-60784619D01*
X93986046Y-60784619D01*
X94082808Y-60736238D01*
X93018427Y-60784619D02*
X93115189Y-60736238D01*
X93163570Y-60639476D01*
X93163570Y-59768619D01*
X92195952Y-60784619D02*
X92195952Y-60252429D01*
X92244333Y-60155667D01*
X92341095Y-60107286D01*
X92534618Y-60107286D01*
X92631380Y-60155667D01*
X92195952Y-60736238D02*
X92292714Y-60784619D01*
X92534618Y-60784619D01*
X92631380Y-60736238D01*
X92679761Y-60639476D01*
X92679761Y-60542714D01*
X92631380Y-60445952D01*
X92534618Y-60397571D01*
X92292714Y-60397571D01*
X92195952Y-60349190D01*
X91808904Y-60107286D02*
X91566999Y-60784619D01*
X91325095Y-60107286D02*
X91566999Y-60784619D01*
X91663761Y-61026524D01*
X91712142Y-61074905D01*
X91808904Y-61123286D01*
X90163952Y-60784619D02*
X90163952Y-59768619D01*
X90163952Y-60252429D02*
X89583381Y-60252429D01*
X89583381Y-60784619D02*
X89583381Y-59768619D01*
X88712524Y-60736238D02*
X88809286Y-60784619D01*
X89002809Y-60784619D01*
X89099571Y-60736238D01*
X89147952Y-60639476D01*
X89147952Y-60252429D01*
X89099571Y-60155667D01*
X89002809Y-60107286D01*
X88809286Y-60107286D01*
X88712524Y-60155667D01*
X88664143Y-60252429D01*
X88664143Y-60349190D01*
X89147952Y-60445952D01*
X87793286Y-60784619D02*
X87793286Y-60252429D01*
X87841667Y-60155667D01*
X87938429Y-60107286D01*
X88131952Y-60107286D01*
X88228714Y-60155667D01*
X87793286Y-60736238D02*
X87890048Y-60784619D01*
X88131952Y-60784619D01*
X88228714Y-60736238D01*
X88277095Y-60639476D01*
X88277095Y-60542714D01*
X88228714Y-60445952D01*
X88131952Y-60397571D01*
X87890048Y-60397571D01*
X87793286Y-60349190D01*
X86874048Y-60784619D02*
X86874048Y-59768619D01*
X86874048Y-60736238D02*
X86970810Y-60784619D01*
X87164333Y-60784619D01*
X87261095Y-60736238D01*
X87309476Y-60687857D01*
X87357857Y-60591095D01*
X87357857Y-60300810D01*
X87309476Y-60204048D01*
X87261095Y-60155667D01*
X87164333Y-60107286D01*
X86970810Y-60107286D01*
X86874048Y-60155667D01*
X86003191Y-60736238D02*
X86099953Y-60784619D01*
X86293476Y-60784619D01*
X86390238Y-60736238D01*
X86438619Y-60639476D01*
X86438619Y-60252429D01*
X86390238Y-60155667D01*
X86293476Y-60107286D01*
X86099953Y-60107286D01*
X86003191Y-60155667D01*
X85954810Y-60252429D01*
X85954810Y-60349190D01*
X86438619Y-60445952D01*
X85519381Y-60784619D02*
X85519381Y-60107286D01*
X85519381Y-60300810D02*
X85471000Y-60204048D01*
X85422619Y-60155667D01*
X85325857Y-60107286D01*
X85229096Y-60107286D01*
X84261477Y-59768619D02*
X83680906Y-59768619D01*
X83971191Y-60784619D02*
X83971191Y-59768619D01*
X83342239Y-60784619D02*
X83342239Y-59768619D01*
X82906811Y-60784619D02*
X82906811Y-60252429D01*
X82955192Y-60155667D01*
X83051954Y-60107286D01*
X83197096Y-60107286D01*
X83293858Y-60155667D01*
X83342239Y-60204048D01*
X82423001Y-60784619D02*
X82423001Y-60107286D01*
X82423001Y-59768619D02*
X82471382Y-59817000D01*
X82423001Y-59865381D01*
X82374620Y-59817000D01*
X82423001Y-59768619D01*
X82423001Y-59865381D01*
X81987572Y-60736238D02*
X81890810Y-60784619D01*
X81697286Y-60784619D01*
X81600525Y-60736238D01*
X81552144Y-60639476D01*
X81552144Y-60591095D01*
X81600525Y-60494333D01*
X81697286Y-60445952D01*
X81842429Y-60445952D01*
X81939191Y-60397571D01*
X81987572Y-60300810D01*
X81987572Y-60252429D01*
X81939191Y-60155667D01*
X81842429Y-60107286D01*
X81697286Y-60107286D01*
X81600525Y-60155667D01*
X80391001Y-60736238D02*
X80245858Y-60784619D01*
X80003954Y-60784619D01*
X79907192Y-60736238D01*
X79858811Y-60687857D01*
X79810430Y-60591095D01*
X79810430Y-60494333D01*
X79858811Y-60397571D01*
X79907192Y-60349190D01*
X80003954Y-60300810D01*
X80197477Y-60252429D01*
X80294239Y-60204048D01*
X80342620Y-60155667D01*
X80391001Y-60058905D01*
X80391001Y-59962143D01*
X80342620Y-59865381D01*
X80294239Y-59817000D01*
X80197477Y-59768619D01*
X79955573Y-59768619D01*
X79810430Y-59817000D01*
X79375001Y-60784619D02*
X79375001Y-60107286D01*
X79375001Y-59768619D02*
X79423382Y-59817000D01*
X79375001Y-59865381D01*
X79326620Y-59817000D01*
X79375001Y-59768619D01*
X79375001Y-59865381D01*
X78455763Y-60784619D02*
X78455763Y-59768619D01*
X78455763Y-60736238D02*
X78552525Y-60784619D01*
X78746048Y-60784619D01*
X78842810Y-60736238D01*
X78891191Y-60687857D01*
X78939572Y-60591095D01*
X78939572Y-60300810D01*
X78891191Y-60204048D01*
X78842810Y-60155667D01*
X78746048Y-60107286D01*
X78552525Y-60107286D01*
X78455763Y-60155667D01*
X77584906Y-60736238D02*
X77681668Y-60784619D01*
X77875191Y-60784619D01*
X77971953Y-60736238D01*
X78020334Y-60639476D01*
X78020334Y-60252429D01*
X77971953Y-60155667D01*
X77875191Y-60107286D01*
X77681668Y-60107286D01*
X77584906Y-60155667D01*
X77536525Y-60252429D01*
X77536525Y-60349190D01*
X78020334Y-60445952D01*
D14*
X339220000Y-64318571D02*
X339220000Y-62818571D01*
X338720000Y-63890000D01*
X338220000Y-62818571D01*
X338220000Y-64318571D01*
X336862857Y-64318571D02*
X336862857Y-63532857D01*
X336934286Y-63390000D01*
X337077143Y-63318571D01*
X337362857Y-63318571D01*
X337505714Y-63390000D01*
X336862857Y-64247143D02*
X337005714Y-64318571D01*
X337362857Y-64318571D01*
X337505714Y-64247143D01*
X337577143Y-64104286D01*
X337577143Y-63961429D01*
X337505714Y-63818571D01*
X337362857Y-63747143D01*
X337005714Y-63747143D01*
X336862857Y-63675714D01*
X336148571Y-63318571D02*
X336148571Y-64318571D01*
X336148571Y-63461429D02*
X336077143Y-63390000D01*
X335934285Y-63318571D01*
X335720000Y-63318571D01*
X335577143Y-63390000D01*
X335505714Y-63532857D01*
X335505714Y-64318571D01*
X334791428Y-64318571D02*
X334791428Y-63318571D01*
X334791428Y-62818571D02*
X334862857Y-62890000D01*
X334791428Y-62961429D01*
X334720000Y-62890000D01*
X334791428Y-62818571D01*
X334791428Y-62961429D01*
X333434285Y-64318571D02*
X333434285Y-63532857D01*
X333505714Y-63390000D01*
X333648571Y-63318571D01*
X333934285Y-63318571D01*
X334077142Y-63390000D01*
X333434285Y-64247143D02*
X333577142Y-64318571D01*
X333934285Y-64318571D01*
X334077142Y-64247143D01*
X334148571Y-64104286D01*
X334148571Y-63961429D01*
X334077142Y-63818571D01*
X333934285Y-63747143D01*
X333577142Y-63747143D01*
X333434285Y-63675714D01*
X332077142Y-64247143D02*
X332219999Y-64318571D01*
X332505713Y-64318571D01*
X332648571Y-64247143D01*
X332719999Y-64175714D01*
X332791428Y-64032857D01*
X332791428Y-63604286D01*
X332719999Y-63461429D01*
X332648571Y-63390000D01*
X332505713Y-63318571D01*
X332219999Y-63318571D01*
X332077142Y-63390000D01*
X330791428Y-64318571D02*
X330791428Y-63532857D01*
X330862857Y-63390000D01*
X331005714Y-63318571D01*
X331291428Y-63318571D01*
X331434285Y-63390000D01*
X330791428Y-64247143D02*
X330934285Y-64318571D01*
X331291428Y-64318571D01*
X331434285Y-64247143D01*
X331505714Y-64104286D01*
X331505714Y-63961429D01*
X331434285Y-63818571D01*
X331291428Y-63747143D01*
X330934285Y-63747143D01*
X330791428Y-63675714D01*
X329862856Y-64318571D02*
X330005714Y-64247143D01*
X330077142Y-64104286D01*
X330077142Y-62818571D01*
X327434285Y-64318571D02*
X328148571Y-64318571D01*
X328148571Y-62818571D01*
X326291428Y-64318571D02*
X326291428Y-63532857D01*
X326362857Y-63390000D01*
X326505714Y-63318571D01*
X326791428Y-63318571D01*
X326934285Y-63390000D01*
X326291428Y-64247143D02*
X326434285Y-64318571D01*
X326791428Y-64318571D01*
X326934285Y-64247143D01*
X327005714Y-64104286D01*
X327005714Y-63961429D01*
X326934285Y-63818571D01*
X326791428Y-63747143D01*
X326434285Y-63747143D01*
X326291428Y-63675714D01*
X325577142Y-64318571D02*
X325577142Y-62818571D01*
X325577142Y-63390000D02*
X325434285Y-63318571D01*
X325148571Y-63318571D01*
X325005714Y-63390000D01*
X324934285Y-63461429D01*
X324862856Y-63604286D01*
X324862856Y-64032857D01*
X324934285Y-64175714D01*
X325005714Y-64247143D01*
X325148571Y-64318571D01*
X325434285Y-64318571D01*
X325577142Y-64247143D01*
X324291428Y-64247143D02*
X324148571Y-64318571D01*
X323862856Y-64318571D01*
X323719999Y-64247143D01*
X323648571Y-64104286D01*
X323648571Y-64032857D01*
X323719999Y-63890000D01*
X323862856Y-63818571D01*
X324077142Y-63818571D01*
X324219999Y-63747143D01*
X324291428Y-63604286D01*
X324291428Y-63532857D01*
X324219999Y-63390000D01*
X324077142Y-63318571D01*
X323862856Y-63318571D01*
X323719999Y-63390000D01*
X341005713Y-66647143D02*
X340791427Y-66718571D01*
X340434284Y-66718571D01*
X340291427Y-66647143D01*
X340219998Y-66575714D01*
X340148570Y-66432857D01*
X340148570Y-66290000D01*
X340219998Y-66147143D01*
X340291427Y-66075714D01*
X340434284Y-66004286D01*
X340719998Y-65932857D01*
X340862856Y-65861429D01*
X340934284Y-65790000D01*
X341005713Y-65647143D01*
X341005713Y-65504286D01*
X340934284Y-65361429D01*
X340862856Y-65290000D01*
X340719998Y-65218571D01*
X340362856Y-65218571D01*
X340148570Y-65290000D01*
X338862856Y-65718571D02*
X338862856Y-66718571D01*
X339505713Y-65718571D02*
X339505713Y-66504286D01*
X339434285Y-66647143D01*
X339291427Y-66718571D01*
X339077142Y-66718571D01*
X338934285Y-66647143D01*
X338862856Y-66575714D01*
X338148570Y-65718571D02*
X338148570Y-67218571D01*
X338148570Y-65790000D02*
X338005713Y-65718571D01*
X337719999Y-65718571D01*
X337577142Y-65790000D01*
X337505713Y-65861429D01*
X337434284Y-66004286D01*
X337434284Y-66432857D01*
X337505713Y-66575714D01*
X337577142Y-66647143D01*
X337719999Y-66718571D01*
X338005713Y-66718571D01*
X338148570Y-66647143D01*
X336219999Y-66647143D02*
X336362856Y-66718571D01*
X336648570Y-66718571D01*
X336791427Y-66647143D01*
X336862856Y-66504286D01*
X336862856Y-65932857D01*
X336791427Y-65790000D01*
X336648570Y-65718571D01*
X336362856Y-65718571D01*
X336219999Y-65790000D01*
X336148570Y-65932857D01*
X336148570Y-66075714D01*
X336862856Y-66218571D01*
X335505713Y-66718571D02*
X335505713Y-65718571D01*
X335505713Y-66004286D02*
X335434285Y-65861429D01*
X335362856Y-65790000D01*
X335219999Y-65718571D01*
X335077142Y-65718571D01*
X333577142Y-65218571D02*
X332577142Y-65218571D01*
X333219999Y-66718571D01*
X330934286Y-66647143D02*
X330720000Y-66718571D01*
X330362857Y-66718571D01*
X330220000Y-66647143D01*
X330148571Y-66575714D01*
X330077143Y-66432857D01*
X330077143Y-66290000D01*
X330148571Y-66147143D01*
X330220000Y-66075714D01*
X330362857Y-66004286D01*
X330648571Y-65932857D01*
X330791429Y-65861429D01*
X330862857Y-65790000D01*
X330934286Y-65647143D01*
X330934286Y-65504286D01*
X330862857Y-65361429D01*
X330791429Y-65290000D01*
X330648571Y-65218571D01*
X330291429Y-65218571D01*
X330077143Y-65290000D01*
X328862858Y-66647143D02*
X329005715Y-66718571D01*
X329291429Y-66718571D01*
X329434286Y-66647143D01*
X329505715Y-66504286D01*
X329505715Y-65932857D01*
X329434286Y-65790000D01*
X329291429Y-65718571D01*
X329005715Y-65718571D01*
X328862858Y-65790000D01*
X328791429Y-65932857D01*
X328791429Y-66075714D01*
X329505715Y-66218571D01*
X327505715Y-65718571D02*
X327505715Y-66932857D01*
X327577144Y-67075714D01*
X327648572Y-67147143D01*
X327791429Y-67218571D01*
X328005715Y-67218571D01*
X328148572Y-67147143D01*
X327505715Y-66647143D02*
X327648572Y-66718571D01*
X327934286Y-66718571D01*
X328077144Y-66647143D01*
X328148572Y-66575714D01*
X328220001Y-66432857D01*
X328220001Y-66004286D01*
X328148572Y-65861429D01*
X328077144Y-65790000D01*
X327934286Y-65718571D01*
X327648572Y-65718571D01*
X327505715Y-65790000D01*
X326791429Y-66718571D02*
X326791429Y-65718571D01*
X326791429Y-65861429D02*
X326720001Y-65790000D01*
X326577143Y-65718571D01*
X326362858Y-65718571D01*
X326220001Y-65790000D01*
X326148572Y-65932857D01*
X326148572Y-66718571D01*
X326148572Y-65932857D02*
X326077143Y-65790000D01*
X325934286Y-65718571D01*
X325720001Y-65718571D01*
X325577143Y-65790000D01*
X325505715Y-65932857D01*
X325505715Y-66718571D01*
X324220001Y-66647143D02*
X324362858Y-66718571D01*
X324648572Y-66718571D01*
X324791429Y-66647143D01*
X324862858Y-66504286D01*
X324862858Y-65932857D01*
X324791429Y-65790000D01*
X324648572Y-65718571D01*
X324362858Y-65718571D01*
X324220001Y-65790000D01*
X324148572Y-65932857D01*
X324148572Y-66075714D01*
X324862858Y-66218571D01*
X323505715Y-65718571D02*
X323505715Y-66718571D01*
X323505715Y-65861429D02*
X323434287Y-65790000D01*
X323291429Y-65718571D01*
X323077144Y-65718571D01*
X322934287Y-65790000D01*
X322862858Y-65932857D01*
X322862858Y-66718571D01*
X322362858Y-65718571D02*
X321791429Y-65718571D01*
X322148572Y-65218571D02*
X322148572Y-66504286D01*
X322077144Y-66647143D01*
X321934286Y-66718571D01*
X321791429Y-66718571D01*
X335148571Y-69118571D02*
X335148571Y-67618571D01*
X334791428Y-67618571D01*
X334577143Y-67690000D01*
X334434285Y-67832857D01*
X334362857Y-67975714D01*
X334291428Y-68261429D01*
X334291428Y-68475714D01*
X334362857Y-68761429D01*
X334434285Y-68904286D01*
X334577143Y-69047143D01*
X334791428Y-69118571D01*
X335148571Y-69118571D01*
X333648571Y-69118571D02*
X333648571Y-68118571D01*
X333648571Y-67618571D02*
X333720000Y-67690000D01*
X333648571Y-67761429D01*
X333577143Y-67690000D01*
X333648571Y-67618571D01*
X333648571Y-67761429D01*
X333005714Y-69047143D02*
X332862857Y-69118571D01*
X332577142Y-69118571D01*
X332434285Y-69047143D01*
X332362857Y-68904286D01*
X332362857Y-68832857D01*
X332434285Y-68690000D01*
X332577142Y-68618571D01*
X332791428Y-68618571D01*
X332934285Y-68547143D01*
X333005714Y-68404286D01*
X333005714Y-68332857D01*
X332934285Y-68190000D01*
X332791428Y-68118571D01*
X332577142Y-68118571D01*
X332434285Y-68190000D01*
X331719999Y-68118571D02*
X331719999Y-69618571D01*
X331719999Y-68190000D02*
X331577142Y-68118571D01*
X331291428Y-68118571D01*
X331148571Y-68190000D01*
X331077142Y-68261429D01*
X331005713Y-68404286D01*
X331005713Y-68832857D01*
X331077142Y-68975714D01*
X331148571Y-69047143D01*
X331291428Y-69118571D01*
X331577142Y-69118571D01*
X331719999Y-69047143D01*
X330148570Y-69118571D02*
X330291428Y-69047143D01*
X330362856Y-68904286D01*
X330362856Y-67618571D01*
X328934285Y-69118571D02*
X328934285Y-68332857D01*
X329005714Y-68190000D01*
X329148571Y-68118571D01*
X329434285Y-68118571D01*
X329577142Y-68190000D01*
X328934285Y-69047143D02*
X329077142Y-69118571D01*
X329434285Y-69118571D01*
X329577142Y-69047143D01*
X329648571Y-68904286D01*
X329648571Y-68761429D01*
X329577142Y-68618571D01*
X329434285Y-68547143D01*
X329077142Y-68547143D01*
X328934285Y-68475714D01*
X328362856Y-68118571D02*
X328005713Y-69118571D01*
X327648571Y-68118571D02*
X328005713Y-69118571D01*
X328148571Y-69475714D01*
X328219999Y-69547143D01*
X328362856Y-69618571D01*
D15*
G36*
X346429868Y-61975141D02*
X346240670Y-61975704D01*
X346058197Y-61976553D01*
X345885198Y-61977693D01*
X345724420Y-61979121D01*
X345578612Y-61980837D01*
X345450522Y-61982843D01*
X345342899Y-61985137D01*
X345258489Y-61987719D01*
X345200042Y-61990591D01*
X345170306Y-61993751D01*
X345168955Y-61994101D01*
X345095350Y-62029801D01*
X345041728Y-62082954D01*
X345008744Y-62147582D01*
X344997052Y-62217706D01*
X345007308Y-62287346D01*
X345040167Y-62350525D01*
X345096283Y-62401264D01*
X345122782Y-62415553D01*
X345185181Y-62444312D01*
X345185591Y-63926141D01*
X345186000Y-65407969D01*
X344758806Y-66148641D01*
X344668263Y-66305615D01*
X344565103Y-66484444D01*
X344452584Y-66679483D01*
X344333962Y-66885090D01*
X344212493Y-67095620D01*
X344091432Y-67305429D01*
X343974037Y-67508874D01*
X343863563Y-67700312D01*
X343814244Y-67785770D01*
X343725033Y-67940722D01*
X343640691Y-68087946D01*
X343562542Y-68225082D01*
X343491911Y-68349771D01*
X343430123Y-68459652D01*
X343378503Y-68552365D01*
X343338376Y-68625552D01*
X343311066Y-68676852D01*
X343297898Y-68703905D01*
X343296875Y-68707254D01*
X343304741Y-68727854D01*
X343327046Y-68772330D01*
X343361855Y-68837359D01*
X343407233Y-68919615D01*
X343461244Y-69015774D01*
X343521953Y-69122511D01*
X343587423Y-69236503D01*
X343655721Y-69354423D01*
X343724909Y-69472948D01*
X343793052Y-69588754D01*
X343858216Y-69698515D01*
X343918463Y-69798906D01*
X343971859Y-69886605D01*
X344016468Y-69958285D01*
X344050355Y-70010622D01*
X344071584Y-70040292D01*
X344075401Y-70044468D01*
X344122876Y-70088125D01*
X349297125Y-70088125D01*
X349344600Y-70044468D01*
X349361394Y-70022746D01*
X349391461Y-69977288D01*
X349432866Y-69911420D01*
X349483675Y-69828466D01*
X349541950Y-69731753D01*
X349605758Y-69624605D01*
X349673162Y-69510346D01*
X349742228Y-69392303D01*
X349811019Y-69273800D01*
X349877600Y-69158163D01*
X349940037Y-69048717D01*
X349996392Y-68948786D01*
X350044733Y-68861695D01*
X350083121Y-68790771D01*
X350109623Y-68739338D01*
X350122303Y-68710720D01*
X350123126Y-68706933D01*
X350116861Y-68691738D01*
X349618183Y-68691738D01*
X349343492Y-69167681D01*
X349068802Y-69643625D01*
X344351346Y-69643625D01*
X344076306Y-69166873D01*
X343801265Y-68690121D01*
X343909373Y-68504091D01*
X343957892Y-68420084D01*
X344008609Y-68331405D01*
X344055301Y-68248982D01*
X344089772Y-68187315D01*
X344162063Y-68056567D01*
X346177875Y-68056125D01*
X345882252Y-68353781D01*
X345802275Y-68434852D01*
X345729259Y-68509905D01*
X345666362Y-68575609D01*
X345616743Y-68628634D01*
X345583560Y-68665650D01*
X345570268Y-68682697D01*
X345562957Y-68720230D01*
X345575296Y-68755316D01*
X345600308Y-68791070D01*
X345640694Y-68835828D01*
X345689952Y-68883770D01*
X345741580Y-68929074D01*
X345789074Y-68965919D01*
X345825933Y-68988484D01*
X345840520Y-68992750D01*
X345862868Y-68982200D01*
X345904213Y-68950232D01*
X345965092Y-68896363D01*
X346046040Y-68820114D01*
X346147592Y-68721002D01*
X346189190Y-68679741D01*
X346503625Y-68366732D01*
X346503625Y-68801522D01*
X346503814Y-68932308D01*
X346504520Y-69035011D01*
X346505949Y-69113296D01*
X346508309Y-69170830D01*
X346511809Y-69211276D01*
X346516655Y-69238301D01*
X346523056Y-69255570D01*
X346529898Y-69265343D01*
X346546734Y-69278829D01*
X346572193Y-69287459D01*
X346612819Y-69292237D01*
X346675156Y-69294165D01*
X346719246Y-69294375D01*
X346792993Y-69293988D01*
X346841948Y-69291820D01*
X346873068Y-69286360D01*
X346893310Y-69276094D01*
X346909630Y-69259512D01*
X346915947Y-69251627D01*
X346926079Y-69237620D01*
X346933883Y-69221895D01*
X346939608Y-69200501D01*
X346943503Y-69169484D01*
X346945815Y-69124892D01*
X346946793Y-69062771D01*
X346946686Y-68979170D01*
X346945741Y-68870136D01*
X346944880Y-68791238D01*
X346943664Y-68679830D01*
X346942637Y-68579621D01*
X346941836Y-68494754D01*
X346941300Y-68429372D01*
X346941063Y-68387619D01*
X346941154Y-68373611D01*
X346952126Y-68384389D01*
X346982577Y-68414776D01*
X347029606Y-68461863D01*
X347090307Y-68522739D01*
X347161779Y-68594496D01*
X347241118Y-68674225D01*
X347242779Y-68675894D01*
X347324205Y-68756741D01*
X347400054Y-68830133D01*
X347466990Y-68892994D01*
X347521678Y-68942247D01*
X347560782Y-68974816D01*
X347580663Y-68987556D01*
X347601093Y-68988152D01*
X347625531Y-68977567D01*
X347658775Y-68952398D01*
X347705625Y-68909244D01*
X347743382Y-68872190D01*
X347805633Y-68807657D01*
X347845484Y-68759575D01*
X347865419Y-68724681D01*
X347868875Y-68707521D01*
X347863549Y-68689558D01*
X347846229Y-68662344D01*
X347814910Y-68623608D01*
X347767584Y-68571079D01*
X347702243Y-68502484D01*
X347616880Y-68415551D01*
X347563434Y-68361867D01*
X347257993Y-68056125D01*
X347685443Y-68056125D01*
X347824762Y-68056235D01*
X347935588Y-68055593D01*
X348021172Y-68052739D01*
X348084762Y-68046213D01*
X348129608Y-68034556D01*
X348158960Y-68016308D01*
X348176068Y-67990009D01*
X348184180Y-67954200D01*
X348186546Y-67907420D01*
X348186417Y-67848211D01*
X348186375Y-67831107D01*
X348186751Y-67769737D01*
X348185702Y-67720980D01*
X348179967Y-67683390D01*
X348166283Y-67655522D01*
X348141389Y-67635933D01*
X348102023Y-67623178D01*
X348044922Y-67615811D01*
X347966824Y-67612388D01*
X347864468Y-67611465D01*
X347734591Y-67611596D01*
X347690804Y-67611625D01*
X347258733Y-67611625D01*
X347571742Y-67297189D01*
X347661102Y-67206371D01*
X347738596Y-67125517D01*
X347801949Y-67057128D01*
X347848886Y-67003706D01*
X347877132Y-66967753D01*
X347884750Y-66952990D01*
X347873254Y-66926392D01*
X347842729Y-66885976D01*
X347799124Y-66837523D01*
X347748387Y-66786817D01*
X347696466Y-66739641D01*
X347649310Y-66701778D01*
X347612866Y-66679010D01*
X347598823Y-66675000D01*
X347579893Y-66681738D01*
X347548933Y-66703065D01*
X347504064Y-66740648D01*
X347443410Y-66796153D01*
X347365092Y-66871247D01*
X347267233Y-66967597D01*
X347250655Y-66984083D01*
X346940188Y-67293166D01*
X346944866Y-66868775D01*
X346946547Y-66730249D01*
X346947206Y-66620203D01*
X346945349Y-66535374D01*
X346939485Y-66472496D01*
X346928121Y-66428302D01*
X346909764Y-66399528D01*
X346882922Y-66382909D01*
X346846103Y-66375179D01*
X346797814Y-66373073D01*
X346736564Y-66373325D01*
X346718454Y-66373375D01*
X346638223Y-66374496D01*
X346583863Y-66378371D01*
X346549555Y-66385763D01*
X346529481Y-66397438D01*
X346528572Y-66398321D01*
X346521079Y-66409469D01*
X346515220Y-66428540D01*
X346510802Y-66459092D01*
X346507635Y-66504686D01*
X346505527Y-66568878D01*
X346504286Y-66655230D01*
X346503721Y-66767298D01*
X346503625Y-66862142D01*
X346503625Y-67301017D01*
X346189190Y-66988008D01*
X346085023Y-66885240D01*
X346000982Y-66804457D01*
X345935607Y-66744357D01*
X345887442Y-66703639D01*
X345855027Y-66681001D01*
X345838565Y-66675000D01*
X345806360Y-66687050D01*
X345758071Y-66721515D01*
X345698969Y-66774218D01*
X345632723Y-66840807D01*
X345589631Y-66892289D01*
X345567356Y-66932492D01*
X345563563Y-66965242D01*
X345570268Y-66985052D01*
X345585552Y-67004412D01*
X345620177Y-67042842D01*
X345670984Y-67097013D01*
X345734814Y-67163594D01*
X345808509Y-67239256D01*
X345882252Y-67313968D01*
X346177875Y-67611625D01*
X344421411Y-67611625D01*
X344452706Y-67560031D01*
X344487529Y-67501823D01*
X344533922Y-67423049D01*
X344590377Y-67326349D01*
X344655386Y-67214365D01*
X344727441Y-67089736D01*
X344805034Y-66955105D01*
X344886656Y-66813113D01*
X344970799Y-66666400D01*
X345055956Y-66517608D01*
X345140618Y-66369378D01*
X345223277Y-66224351D01*
X345302424Y-66085167D01*
X345376552Y-65954468D01*
X345444153Y-65834896D01*
X345503718Y-65729090D01*
X345553740Y-65639693D01*
X345592709Y-65569345D01*
X345619118Y-65520688D01*
X345631460Y-65496361D01*
X345632104Y-65494659D01*
X345634214Y-65471630D01*
X345636221Y-65419011D01*
X345638105Y-65338962D01*
X345639846Y-65233643D01*
X345641425Y-65105212D01*
X345642821Y-64955830D01*
X345644015Y-64787656D01*
X345644987Y-64602850D01*
X345645718Y-64403573D01*
X345646186Y-64191983D01*
X345646373Y-63970240D01*
X345646375Y-63940636D01*
X345646375Y-62436375D01*
X347773011Y-62436375D01*
X347781563Y-65508187D01*
X348125271Y-66103500D01*
X348214982Y-66258868D01*
X348314527Y-66431244D01*
X348419479Y-66612961D01*
X348525410Y-66796356D01*
X348627894Y-66973764D01*
X348722504Y-67137521D01*
X348790060Y-67254437D01*
X348935644Y-67506399D01*
X349067143Y-67734050D01*
X349184336Y-67937010D01*
X349287005Y-68114897D01*
X349374929Y-68267331D01*
X349447890Y-68393931D01*
X349505668Y-68494316D01*
X349548043Y-68568107D01*
X349574795Y-68614921D01*
X349579919Y-68623962D01*
X349618183Y-68691738D01*
X350116861Y-68691738D01*
X350115407Y-68688214D01*
X350093339Y-68645010D01*
X350058556Y-68580273D01*
X350012689Y-68496953D01*
X349957372Y-68397999D01*
X349894237Y-68286362D01*
X349824917Y-68164993D01*
X349780081Y-68087074D01*
X349693993Y-67937890D01*
X349601116Y-67776959D01*
X349505258Y-67610876D01*
X349410224Y-67446236D01*
X349319821Y-67289633D01*
X349237855Y-67147663D01*
X349171177Y-67032187D01*
X349099938Y-66908821D01*
X349016741Y-66764738D01*
X348925500Y-66606716D01*
X348830130Y-66441537D01*
X348734545Y-66275979D01*
X348642659Y-66116823D01*
X348569659Y-65990372D01*
X348234000Y-65408931D01*
X348234410Y-63926622D01*
X348234820Y-62444312D01*
X348297219Y-62415553D01*
X348362017Y-62370866D01*
X348403317Y-62311549D01*
X348421775Y-62243581D01*
X348418045Y-62172941D01*
X348392782Y-62105606D01*
X348346642Y-62047557D01*
X348280279Y-62004771D01*
X348251046Y-61994101D01*
X348224499Y-61990910D01*
X348168952Y-61988009D01*
X348087153Y-61985396D01*
X347981849Y-61983071D01*
X347855789Y-61981035D01*
X347711721Y-61979288D01*
X347552394Y-61977830D01*
X347380554Y-61976660D01*
X347198951Y-61975780D01*
X347010333Y-61975187D01*
X346817448Y-61974883D01*
X346623043Y-61974868D01*
X346429868Y-61975141D01*
X346429868Y-61975141D01*
G37*
X346429868Y-61975141D02*
X346240670Y-61975704D01*
X346058197Y-61976553D01*
X345885198Y-61977693D01*
X345724420Y-61979121D01*
X345578612Y-61980837D01*
X345450522Y-61982843D01*
X345342899Y-61985137D01*
X345258489Y-61987719D01*
X345200042Y-61990591D01*
X345170306Y-61993751D01*
X345168955Y-61994101D01*
X345095350Y-62029801D01*
X345041728Y-62082954D01*
X345008744Y-62147582D01*
X344997052Y-62217706D01*
X345007308Y-62287346D01*
X345040167Y-62350525D01*
X345096283Y-62401264D01*
X345122782Y-62415553D01*
X345185181Y-62444312D01*
X345185591Y-63926141D01*
X345186000Y-65407969D01*
X344758806Y-66148641D01*
X344668263Y-66305615D01*
X344565103Y-66484444D01*
X344452584Y-66679483D01*
X344333962Y-66885090D01*
X344212493Y-67095620D01*
X344091432Y-67305429D01*
X343974037Y-67508874D01*
X343863563Y-67700312D01*
X343814244Y-67785770D01*
X343725033Y-67940722D01*
X343640691Y-68087946D01*
X343562542Y-68225082D01*
X343491911Y-68349771D01*
X343430123Y-68459652D01*
X343378503Y-68552365D01*
X343338376Y-68625552D01*
X343311066Y-68676852D01*
X343297898Y-68703905D01*
X343296875Y-68707254D01*
X343304741Y-68727854D01*
X343327046Y-68772330D01*
X343361855Y-68837359D01*
X343407233Y-68919615D01*
X343461244Y-69015774D01*
X343521953Y-69122511D01*
X343587423Y-69236503D01*
X343655721Y-69354423D01*
X343724909Y-69472948D01*
X343793052Y-69588754D01*
X343858216Y-69698515D01*
X343918463Y-69798906D01*
X343971859Y-69886605D01*
X344016468Y-69958285D01*
X344050355Y-70010622D01*
X344071584Y-70040292D01*
X344075401Y-70044468D01*
X344122876Y-70088125D01*
X349297125Y-70088125D01*
X349344600Y-70044468D01*
X349361394Y-70022746D01*
X349391461Y-69977288D01*
X349432866Y-69911420D01*
X349483675Y-69828466D01*
X349541950Y-69731753D01*
X349605758Y-69624605D01*
X349673162Y-69510346D01*
X349742228Y-69392303D01*
X349811019Y-69273800D01*
X349877600Y-69158163D01*
X349940037Y-69048717D01*
X349996392Y-68948786D01*
X350044733Y-68861695D01*
X350083121Y-68790771D01*
X350109623Y-68739338D01*
X350122303Y-68710720D01*
X350123126Y-68706933D01*
X350116861Y-68691738D01*
X349618183Y-68691738D01*
X349343492Y-69167681D01*
X349068802Y-69643625D01*
X344351346Y-69643625D01*
X344076306Y-69166873D01*
X343801265Y-68690121D01*
X343909373Y-68504091D01*
X343957892Y-68420084D01*
X344008609Y-68331405D01*
X344055301Y-68248982D01*
X344089772Y-68187315D01*
X344162063Y-68056567D01*
X346177875Y-68056125D01*
X345882252Y-68353781D01*
X345802275Y-68434852D01*
X345729259Y-68509905D01*
X345666362Y-68575609D01*
X345616743Y-68628634D01*
X345583560Y-68665650D01*
X345570268Y-68682697D01*
X345562957Y-68720230D01*
X345575296Y-68755316D01*
X345600308Y-68791070D01*
X345640694Y-68835828D01*
X345689952Y-68883770D01*
X345741580Y-68929074D01*
X345789074Y-68965919D01*
X345825933Y-68988484D01*
X345840520Y-68992750D01*
X345862868Y-68982200D01*
X345904213Y-68950232D01*
X345965092Y-68896363D01*
X346046040Y-68820114D01*
X346147592Y-68721002D01*
X346189190Y-68679741D01*
X346503625Y-68366732D01*
X346503625Y-68801522D01*
X346503814Y-68932308D01*
X346504520Y-69035011D01*
X346505949Y-69113296D01*
X346508309Y-69170830D01*
X346511809Y-69211276D01*
X346516655Y-69238301D01*
X346523056Y-69255570D01*
X346529898Y-69265343D01*
X346546734Y-69278829D01*
X346572193Y-69287459D01*
X346612819Y-69292237D01*
X346675156Y-69294165D01*
X346719246Y-69294375D01*
X346792993Y-69293988D01*
X346841948Y-69291820D01*
X346873068Y-69286360D01*
X346893310Y-69276094D01*
X346909630Y-69259512D01*
X346915947Y-69251627D01*
X346926079Y-69237620D01*
X346933883Y-69221895D01*
X346939608Y-69200501D01*
X346943503Y-69169484D01*
X346945815Y-69124892D01*
X346946793Y-69062771D01*
X346946686Y-68979170D01*
X346945741Y-68870136D01*
X346944880Y-68791238D01*
X346943664Y-68679830D01*
X346942637Y-68579621D01*
X346941836Y-68494754D01*
X346941300Y-68429372D01*
X346941063Y-68387619D01*
X346941154Y-68373611D01*
X346952126Y-68384389D01*
X346982577Y-68414776D01*
X347029606Y-68461863D01*
X347090307Y-68522739D01*
X347161779Y-68594496D01*
X347241118Y-68674225D01*
X347242779Y-68675894D01*
X347324205Y-68756741D01*
X347400054Y-68830133D01*
X347466990Y-68892994D01*
X347521678Y-68942247D01*
X347560782Y-68974816D01*
X347580663Y-68987556D01*
X347601093Y-68988152D01*
X347625531Y-68977567D01*
X347658775Y-68952398D01*
X347705625Y-68909244D01*
X347743382Y-68872190D01*
X347805633Y-68807657D01*
X347845484Y-68759575D01*
X347865419Y-68724681D01*
X347868875Y-68707521D01*
X347863549Y-68689558D01*
X347846229Y-68662344D01*
X347814910Y-68623608D01*
X347767584Y-68571079D01*
X347702243Y-68502484D01*
X347616880Y-68415551D01*
X347563434Y-68361867D01*
X347257993Y-68056125D01*
X347685443Y-68056125D01*
X347824762Y-68056235D01*
X347935588Y-68055593D01*
X348021172Y-68052739D01*
X348084762Y-68046213D01*
X348129608Y-68034556D01*
X348158960Y-68016308D01*
X348176068Y-67990009D01*
X348184180Y-67954200D01*
X348186546Y-67907420D01*
X348186417Y-67848211D01*
X348186375Y-67831107D01*
X348186751Y-67769737D01*
X348185702Y-67720980D01*
X348179967Y-67683390D01*
X348166283Y-67655522D01*
X348141389Y-67635933D01*
X348102023Y-67623178D01*
X348044922Y-67615811D01*
X347966824Y-67612388D01*
X347864468Y-67611465D01*
X347734591Y-67611596D01*
X347690804Y-67611625D01*
X347258733Y-67611625D01*
X347571742Y-67297189D01*
X347661102Y-67206371D01*
X347738596Y-67125517D01*
X347801949Y-67057128D01*
X347848886Y-67003706D01*
X347877132Y-66967753D01*
X347884750Y-66952990D01*
X347873254Y-66926392D01*
X347842729Y-66885976D01*
X347799124Y-66837523D01*
X347748387Y-66786817D01*
X347696466Y-66739641D01*
X347649310Y-66701778D01*
X347612866Y-66679010D01*
X347598823Y-66675000D01*
X347579893Y-66681738D01*
X347548933Y-66703065D01*
X347504064Y-66740648D01*
X347443410Y-66796153D01*
X347365092Y-66871247D01*
X347267233Y-66967597D01*
X347250655Y-66984083D01*
X346940188Y-67293166D01*
X346944866Y-66868775D01*
X346946547Y-66730249D01*
X346947206Y-66620203D01*
X346945349Y-66535374D01*
X346939485Y-66472496D01*
X346928121Y-66428302D01*
X346909764Y-66399528D01*
X346882922Y-66382909D01*
X346846103Y-66375179D01*
X346797814Y-66373073D01*
X346736564Y-66373325D01*
X346718454Y-66373375D01*
X346638223Y-66374496D01*
X346583863Y-66378371D01*
X346549555Y-66385763D01*
X346529481Y-66397438D01*
X346528572Y-66398321D01*
X346521079Y-66409469D01*
X346515220Y-66428540D01*
X346510802Y-66459092D01*
X346507635Y-66504686D01*
X346505527Y-66568878D01*
X346504286Y-66655230D01*
X346503721Y-66767298D01*
X346503625Y-66862142D01*
X346503625Y-67301017D01*
X346189190Y-66988008D01*
X346085023Y-66885240D01*
X346000982Y-66804457D01*
X345935607Y-66744357D01*
X345887442Y-66703639D01*
X345855027Y-66681001D01*
X345838565Y-66675000D01*
X345806360Y-66687050D01*
X345758071Y-66721515D01*
X345698969Y-66774218D01*
X345632723Y-66840807D01*
X345589631Y-66892289D01*
X345567356Y-66932492D01*
X345563563Y-66965242D01*
X345570268Y-66985052D01*
X345585552Y-67004412D01*
X345620177Y-67042842D01*
X345670984Y-67097013D01*
X345734814Y-67163594D01*
X345808509Y-67239256D01*
X345882252Y-67313968D01*
X346177875Y-67611625D01*
X344421411Y-67611625D01*
X344452706Y-67560031D01*
X344487529Y-67501823D01*
X344533922Y-67423049D01*
X344590377Y-67326349D01*
X344655386Y-67214365D01*
X344727441Y-67089736D01*
X344805034Y-66955105D01*
X344886656Y-66813113D01*
X344970799Y-66666400D01*
X345055956Y-66517608D01*
X345140618Y-66369378D01*
X345223277Y-66224351D01*
X345302424Y-66085167D01*
X345376552Y-65954468D01*
X345444153Y-65834896D01*
X345503718Y-65729090D01*
X345553740Y-65639693D01*
X345592709Y-65569345D01*
X345619118Y-65520688D01*
X345631460Y-65496361D01*
X345632104Y-65494659D01*
X345634214Y-65471630D01*
X345636221Y-65419011D01*
X345638105Y-65338962D01*
X345639846Y-65233643D01*
X345641425Y-65105212D01*
X345642821Y-64955830D01*
X345644015Y-64787656D01*
X345644987Y-64602850D01*
X345645718Y-64403573D01*
X345646186Y-64191983D01*
X345646373Y-63970240D01*
X345646375Y-63940636D01*
X345646375Y-62436375D01*
X347773011Y-62436375D01*
X347781563Y-65508187D01*
X348125271Y-66103500D01*
X348214982Y-66258868D01*
X348314527Y-66431244D01*
X348419479Y-66612961D01*
X348525410Y-66796356D01*
X348627894Y-66973764D01*
X348722504Y-67137521D01*
X348790060Y-67254437D01*
X348935644Y-67506399D01*
X349067143Y-67734050D01*
X349184336Y-67937010D01*
X349287005Y-68114897D01*
X349374929Y-68267331D01*
X349447890Y-68393931D01*
X349505668Y-68494316D01*
X349548043Y-68568107D01*
X349574795Y-68614921D01*
X349579919Y-68623962D01*
X349618183Y-68691738D01*
X350116861Y-68691738D01*
X350115407Y-68688214D01*
X350093339Y-68645010D01*
X350058556Y-68580273D01*
X350012689Y-68496953D01*
X349957372Y-68397999D01*
X349894237Y-68286362D01*
X349824917Y-68164993D01*
X349780081Y-68087074D01*
X349693993Y-67937890D01*
X349601116Y-67776959D01*
X349505258Y-67610876D01*
X349410224Y-67446236D01*
X349319821Y-67289633D01*
X349237855Y-67147663D01*
X349171177Y-67032187D01*
X349099938Y-66908821D01*
X349016741Y-66764738D01*
X348925500Y-66606716D01*
X348830130Y-66441537D01*
X348734545Y-66275979D01*
X348642659Y-66116823D01*
X348569659Y-65990372D01*
X348234000Y-65408931D01*
X348234410Y-63926622D01*
X348234820Y-62444312D01*
X348297219Y-62415553D01*
X348362017Y-62370866D01*
X348403317Y-62311549D01*
X348421775Y-62243581D01*
X348418045Y-62172941D01*
X348392782Y-62105606D01*
X348346642Y-62047557D01*
X348280279Y-62004771D01*
X348251046Y-61994101D01*
X348224499Y-61990910D01*
X348168952Y-61988009D01*
X348087153Y-61985396D01*
X347981849Y-61983071D01*
X347855789Y-61981035D01*
X347711721Y-61979288D01*
X347552394Y-61977830D01*
X347380554Y-61976660D01*
X347198951Y-61975780D01*
X347010333Y-61975187D01*
X346817448Y-61974883D01*
X346623043Y-61974868D01*
X346429868Y-61975141D01*
D16*
X253365000Y-66040000D02*
X283845000Y-66040000D01*
X283845000Y-66040000D02*
X283845000Y-63500000D01*
X283845000Y-63500000D02*
X253365000Y-63500000D01*
X250545000Y-63220000D02*
X252095000Y-63220000D01*
X253365000Y-63500000D02*
X253365000Y-66040000D01*
X252095000Y-66320000D02*
X250545000Y-66320000D01*
X250545000Y-66320000D02*
X250545000Y-63220000D01*
X258445000Y-66040000D02*
X278765000Y-66040000D01*
X278765000Y-66040000D02*
X278765000Y-68580000D01*
X278765000Y-68580000D02*
X258445000Y-68580000D01*
X255625000Y-65760000D02*
X257175000Y-65760000D01*
X258445000Y-66040000D02*
X258445000Y-68580000D01*
X257175000Y-68860000D02*
X255625000Y-68860000D01*
X255625000Y-68860000D02*
X255625000Y-65760000D01*
X100965000Y-63500000D02*
X70485000Y-63500000D01*
X70485000Y-63500000D02*
X70485000Y-66040000D01*
X70485000Y-66040000D02*
X100965000Y-66040000D01*
X103785000Y-66320000D02*
X102235000Y-66320000D01*
X100965000Y-66040000D02*
X100965000Y-63500000D01*
X102235000Y-63220000D02*
X103785000Y-63220000D01*
X103785000Y-63220000D02*
X103785000Y-66320000D01*
X95885000Y-68580000D02*
X75565000Y-68580000D01*
X75565000Y-68580000D02*
X75565000Y-66040000D01*
X75565000Y-66040000D02*
X95885000Y-66040000D01*
X98705000Y-68860000D02*
X97155000Y-68860000D01*
X95885000Y-68580000D02*
X95885000Y-66040000D01*
X97155000Y-65760000D02*
X98705000Y-65760000D01*
X98705000Y-65760000D02*
X98705000Y-68860000D01*
M02*
