G04 #@! TF.FileFunction,Soldermask,Top*
%FSLAX46Y46*%
G04 Gerber Fmt 4.6, Leading zero omitted, Abs format (unit mm)*
G04 Created by KiCad (PCBNEW 4.0.2-stable) date 1/2/2017 10:04:15 PM*
%MOMM*%
G01*
G04 APERTURE LIST*
%ADD10C,0.100000*%
%ADD11O,2.000000X2.000000*%
%ADD12O,2.432000X2.127200*%
%ADD13C,0.900000*%
%ADD14C,2.178000*%
%ADD15R,1.700000X1.700000*%
%ADD16C,1.700000*%
%ADD17R,2.127200X2.127200*%
%ADD18O,2.127200X2.127200*%
%ADD19R,2.127200X2.432000*%
%ADD20O,2.127200X2.432000*%
%ADD21C,1.924000*%
%ADD22R,2.432000X2.432000*%
%ADD23O,2.432000X2.432000*%
%ADD24R,2.000000X2.000000*%
G04 APERTURE END LIST*
D10*
D11*
X163830000Y-57150000D03*
X161290000Y-57150000D03*
X158750000Y-57150000D03*
X156210000Y-57150000D03*
X153670000Y-57150000D03*
X151130000Y-57150000D03*
X148590000Y-57150000D03*
X146050000Y-57150000D03*
X143510000Y-57150000D03*
X140970000Y-57150000D03*
X138430000Y-57150000D03*
X135890000Y-57150000D03*
X133350000Y-57150000D03*
X130810000Y-57150000D03*
X130810000Y-64770000D03*
X133350000Y-64770000D03*
X135890000Y-64770000D03*
X138430000Y-64770000D03*
X140970000Y-64770000D03*
X143510000Y-64770000D03*
X146050000Y-64770000D03*
X148590000Y-64770000D03*
X151130000Y-64770000D03*
X153670000Y-64770000D03*
X156210000Y-64770000D03*
X158750000Y-64770000D03*
X161290000Y-64770000D03*
X163830000Y-64770000D03*
D12*
X186055000Y-68580000D03*
X186055000Y-66040000D03*
X186055000Y-63500000D03*
X186055000Y-60960000D03*
D13*
X176065000Y-73660000D03*
X178265000Y-73660000D03*
X176065000Y-72860000D03*
X176065000Y-74460000D03*
X178265000Y-74460000D03*
X178265000Y-72860000D03*
D14*
X186055000Y-77040000D03*
X188595000Y-77040000D03*
X191135000Y-77040000D03*
X193675000Y-77040000D03*
X196215000Y-77040000D03*
X198755000Y-77040000D03*
X201295000Y-77040000D03*
X203835000Y-77040000D03*
X206375000Y-77040000D03*
X186055000Y-55040000D03*
X188595000Y-55040000D03*
X191135000Y-55040000D03*
X193675000Y-55040000D03*
X196215000Y-55040000D03*
X198755000Y-55040000D03*
X201295000Y-55040000D03*
X203835000Y-55040000D03*
X206375000Y-55040000D03*
D15*
X143510000Y-67310000D03*
D16*
X146010000Y-67310000D03*
D15*
X147955000Y-67310000D03*
D16*
X150455000Y-67310000D03*
D14*
X221615000Y-77040000D03*
X224155000Y-77040000D03*
X226695000Y-77040000D03*
X229235000Y-77040000D03*
X231775000Y-77040000D03*
X234315000Y-77040000D03*
X236855000Y-77040000D03*
X239395000Y-77040000D03*
X241935000Y-77040000D03*
X221615000Y-55040000D03*
X224155000Y-55040000D03*
X226695000Y-55040000D03*
X229235000Y-55040000D03*
X231775000Y-55040000D03*
X234315000Y-55040000D03*
X236855000Y-55040000D03*
X239395000Y-55040000D03*
X241935000Y-55040000D03*
X363855000Y-77040000D03*
X366395000Y-77040000D03*
X368935000Y-77040000D03*
X371475000Y-77040000D03*
X374015000Y-77040000D03*
X376555000Y-77040000D03*
X379095000Y-77040000D03*
X381635000Y-77040000D03*
X384175000Y-77040000D03*
X363855000Y-55040000D03*
X366395000Y-55040000D03*
X368935000Y-55040000D03*
X371475000Y-55040000D03*
X374015000Y-55040000D03*
X376555000Y-55040000D03*
X379095000Y-55040000D03*
X381635000Y-55040000D03*
X384175000Y-55040000D03*
D15*
X167005000Y-76200000D03*
D16*
X169505000Y-76200000D03*
D17*
X160655000Y-71120000D03*
D18*
X163195000Y-71120000D03*
X163195000Y-73660000D03*
X160655000Y-73660000D03*
X163195000Y-76200000D03*
X160655000Y-76200000D03*
D14*
X257175000Y-77040000D03*
X259715000Y-77040000D03*
X262255000Y-77040000D03*
X264795000Y-77040000D03*
X267335000Y-77040000D03*
X269875000Y-77040000D03*
X272415000Y-77040000D03*
X274955000Y-77040000D03*
X277495000Y-77040000D03*
X257175000Y-55040000D03*
X259715000Y-55040000D03*
X262255000Y-55040000D03*
X264795000Y-55040000D03*
X267335000Y-55040000D03*
X269875000Y-55040000D03*
X272415000Y-55040000D03*
X274955000Y-55040000D03*
X277495000Y-55040000D03*
X292735000Y-77040000D03*
X295275000Y-77040000D03*
X297815000Y-77040000D03*
X300355000Y-77040000D03*
X302895000Y-77040000D03*
X305435000Y-77040000D03*
X307975000Y-77040000D03*
X310515000Y-77040000D03*
X313055000Y-77040000D03*
X292735000Y-55040000D03*
X295275000Y-55040000D03*
X297815000Y-55040000D03*
X300355000Y-55040000D03*
X302895000Y-55040000D03*
X305435000Y-55040000D03*
X307975000Y-55040000D03*
X310515000Y-55040000D03*
X313055000Y-55040000D03*
X328295000Y-77040000D03*
X330835000Y-77040000D03*
X333375000Y-77040000D03*
X335915000Y-77040000D03*
X338455000Y-77040000D03*
X340995000Y-77040000D03*
X343535000Y-77040000D03*
X346075000Y-77040000D03*
X348615000Y-77040000D03*
X328295000Y-55040000D03*
X330835000Y-55040000D03*
X333375000Y-55040000D03*
X335915000Y-55040000D03*
X338455000Y-55040000D03*
X340995000Y-55040000D03*
X343535000Y-55040000D03*
X346075000Y-55040000D03*
X348615000Y-55040000D03*
D19*
X252095000Y-64770000D03*
D20*
X254635000Y-64770000D03*
X257175000Y-64770000D03*
X259715000Y-64770000D03*
X262255000Y-64770000D03*
X264795000Y-64770000D03*
X267335000Y-64770000D03*
X269875000Y-64770000D03*
X272415000Y-64770000D03*
X274955000Y-64770000D03*
X277495000Y-64770000D03*
X280035000Y-64770000D03*
X282575000Y-64770000D03*
D19*
X257175000Y-67310000D03*
D20*
X259715000Y-67310000D03*
X262255000Y-67310000D03*
X264795000Y-67310000D03*
X267335000Y-67310000D03*
X269875000Y-67310000D03*
X272415000Y-67310000D03*
X274955000Y-67310000D03*
X277495000Y-67310000D03*
D19*
X102235000Y-64770000D03*
D20*
X99695000Y-64770000D03*
X97155000Y-64770000D03*
X94615000Y-64770000D03*
X92075000Y-64770000D03*
X89535000Y-64770000D03*
X86995000Y-64770000D03*
X84455000Y-64770000D03*
X81915000Y-64770000D03*
X79375000Y-64770000D03*
X76835000Y-64770000D03*
X74295000Y-64770000D03*
X71755000Y-64770000D03*
D19*
X97155000Y-67310000D03*
D20*
X94615000Y-67310000D03*
X92075000Y-67310000D03*
X89535000Y-67310000D03*
X86995000Y-67310000D03*
X84455000Y-67310000D03*
X81915000Y-67310000D03*
X79375000Y-67310000D03*
X76835000Y-67310000D03*
D21*
X97155000Y-69850000D03*
X97155000Y-74930000D03*
X94615000Y-69850000D03*
X94615000Y-74930000D03*
X92075000Y-69850000D03*
X92075000Y-74930000D03*
X89535000Y-69850000D03*
X89535000Y-74930000D03*
X86995000Y-69850000D03*
X86995000Y-74930000D03*
X84455000Y-69850000D03*
X84455000Y-74930000D03*
X81915000Y-69850000D03*
X81915000Y-74930000D03*
X79375000Y-69850000D03*
X79375000Y-74930000D03*
X76835000Y-69850000D03*
X76835000Y-74930000D03*
X97155000Y-62230000D03*
X97155000Y-57150000D03*
X94615000Y-62230000D03*
X94615000Y-57150000D03*
X92075000Y-62230000D03*
X92075000Y-57150000D03*
X89535000Y-62230000D03*
X89535000Y-57150000D03*
X81915000Y-62230000D03*
X81915000Y-57150000D03*
X79375000Y-62230000D03*
X79375000Y-57150000D03*
X76835000Y-62230000D03*
X76835000Y-57150000D03*
X169436051Y-73551051D03*
X165843949Y-69958949D03*
D12*
X173355000Y-63500000D03*
X173355000Y-66040000D03*
X173355000Y-68580000D03*
X173355000Y-71120000D03*
X173355000Y-73660000D03*
X173355000Y-76200000D03*
D22*
X173355000Y-58420000D03*
D23*
X173355000Y-55880000D03*
D22*
X71755000Y-58420000D03*
D23*
X71755000Y-55880000D03*
D24*
X126365000Y-57150000D03*
D11*
X108585000Y-64770000D03*
X123825000Y-57150000D03*
X111125000Y-64770000D03*
X121285000Y-57150000D03*
X113665000Y-64770000D03*
X118745000Y-57150000D03*
X116205000Y-64770000D03*
X116205000Y-57150000D03*
X118745000Y-64770000D03*
X113665000Y-57150000D03*
X121285000Y-64770000D03*
X111125000Y-57150000D03*
X123825000Y-64770000D03*
X108585000Y-57150000D03*
X126365000Y-64770000D03*
D24*
X126365000Y-67310000D03*
D11*
X108585000Y-74930000D03*
X123825000Y-67310000D03*
X111125000Y-74930000D03*
X121285000Y-67310000D03*
X113665000Y-74930000D03*
X118745000Y-67310000D03*
X116205000Y-74930000D03*
X116205000Y-67310000D03*
X118745000Y-74930000D03*
X113665000Y-67310000D03*
X121285000Y-74930000D03*
X111125000Y-67310000D03*
X123825000Y-74930000D03*
X108585000Y-67310000D03*
X126365000Y-74930000D03*
D13*
X176065000Y-58420000D03*
X178265000Y-58420000D03*
X176065000Y-57620000D03*
X176065000Y-59220000D03*
X178265000Y-59220000D03*
X178265000Y-57620000D03*
D12*
X168275000Y-68580000D03*
X168275000Y-66040000D03*
X168275000Y-63500000D03*
X168275000Y-60960000D03*
X173355000Y-60960000D03*
X71755000Y-60960000D03*
M02*
