G04 #@! TF.FileFunction,Copper,L2,Bot,Signal*
%FSLAX46Y46*%
G04 Gerber Fmt 4.6, Leading zero omitted, Abs format (unit mm)*
G04 Created by KiCad (PCBNEW 4.0.4-1.fc25-product) date Wed Feb 22 20:12:38 2017*
%MOMM*%
%LPD*%
G01*
G04 APERTURE LIST*
%ADD10C,0.100000*%
%ADD11R,1.300000X1.300000*%
%ADD12C,1.300000*%
%ADD13O,1.600000X1.600000*%
%ADD14R,1.727200X1.727200*%
%ADD15O,1.727200X1.727200*%
%ADD16R,1.727200X2.032000*%
%ADD17O,1.727200X2.032000*%
%ADD18C,1.524000*%
%ADD19O,2.032000X1.727200*%
%ADD20R,2.032000X2.032000*%
%ADD21O,2.032000X2.032000*%
%ADD22R,1.600000X1.600000*%
%ADD23C,1.778000*%
%ADD24C,0.685800*%
%ADD25C,0.254000*%
%ADD26C,0.152400*%
G04 APERTURE END LIST*
D10*
D11*
X173990000Y-131445000D03*
D12*
X176490000Y-131445000D03*
D13*
X191770000Y-120650000D03*
X189230000Y-120650000D03*
X186690000Y-120650000D03*
X184150000Y-120650000D03*
X181610000Y-120650000D03*
X179070000Y-120650000D03*
X176530000Y-120650000D03*
X173990000Y-120650000D03*
X171450000Y-120650000D03*
X168910000Y-120650000D03*
X166370000Y-120650000D03*
X163830000Y-120650000D03*
X161290000Y-120650000D03*
X158750000Y-120650000D03*
X158750000Y-128270000D03*
X161290000Y-128270000D03*
X163830000Y-128270000D03*
X166370000Y-128270000D03*
X168910000Y-128270000D03*
X171450000Y-128270000D03*
X173990000Y-128270000D03*
X176530000Y-128270000D03*
X179070000Y-128270000D03*
X181610000Y-128270000D03*
X184150000Y-128270000D03*
X186690000Y-128270000D03*
X189230000Y-128270000D03*
X191770000Y-128270000D03*
D11*
X194945000Y-139700000D03*
D12*
X197445000Y-139700000D03*
D14*
X188595000Y-134620000D03*
D15*
X191135000Y-134620000D03*
X191135000Y-137160000D03*
X188595000Y-137160000D03*
X191135000Y-139700000D03*
X188595000Y-139700000D03*
D16*
X130175000Y-128270000D03*
D17*
X127635000Y-128270000D03*
X125095000Y-128270000D03*
X122555000Y-128270000D03*
X120015000Y-128270000D03*
X117475000Y-128270000D03*
X114935000Y-128270000D03*
X112395000Y-128270000D03*
X109855000Y-128270000D03*
X107315000Y-128270000D03*
X104775000Y-128270000D03*
X102235000Y-128270000D03*
X99695000Y-128270000D03*
D16*
X125095000Y-130810000D03*
D17*
X122555000Y-130810000D03*
X120015000Y-130810000D03*
X117475000Y-130810000D03*
X114935000Y-130810000D03*
X112395000Y-130810000D03*
X109855000Y-130810000D03*
X107315000Y-130810000D03*
X104775000Y-130810000D03*
D18*
X125095000Y-133350000D03*
X125095000Y-138430000D03*
X122555000Y-133350000D03*
X122555000Y-138430000D03*
X120015000Y-133350000D03*
X120015000Y-138430000D03*
X117475000Y-133350000D03*
X117475000Y-138430000D03*
X114935000Y-133350000D03*
X114935000Y-138430000D03*
X112395000Y-133350000D03*
X112395000Y-138430000D03*
X109855000Y-133350000D03*
X109855000Y-138430000D03*
X107315000Y-133350000D03*
X107315000Y-138430000D03*
X104775000Y-133350000D03*
X104775000Y-138430000D03*
X125095000Y-125730000D03*
X125095000Y-120650000D03*
X122555000Y-125730000D03*
X122555000Y-120650000D03*
X120015000Y-125730000D03*
X120015000Y-120650000D03*
X117475000Y-125730000D03*
X117475000Y-120650000D03*
X109855000Y-125730000D03*
X109855000Y-120650000D03*
X107315000Y-125730000D03*
X107315000Y-120650000D03*
X104775000Y-125730000D03*
X104775000Y-120650000D03*
X197376051Y-137051051D03*
X193783949Y-133458949D03*
D19*
X201295000Y-127000000D03*
X201295000Y-129540000D03*
X201295000Y-132080000D03*
X201295000Y-134620000D03*
X201295000Y-137160000D03*
X201295000Y-139700000D03*
D20*
X201295000Y-121920000D03*
D21*
X201295000Y-119380000D03*
D20*
X99695000Y-121920000D03*
D21*
X99695000Y-119380000D03*
D22*
X154305000Y-120650000D03*
D13*
X136525000Y-128270000D03*
X151765000Y-120650000D03*
X139065000Y-128270000D03*
X149225000Y-120650000D03*
X141605000Y-128270000D03*
X146685000Y-120650000D03*
X144145000Y-128270000D03*
X144145000Y-120650000D03*
X146685000Y-128270000D03*
X141605000Y-120650000D03*
X149225000Y-128270000D03*
X139065000Y-120650000D03*
X151765000Y-128270000D03*
X136525000Y-120650000D03*
X154305000Y-128270000D03*
D22*
X154305000Y-130810000D03*
D13*
X136525000Y-138430000D03*
X151765000Y-130810000D03*
X139065000Y-138430000D03*
X149225000Y-130810000D03*
X141605000Y-138430000D03*
X146685000Y-130810000D03*
X144145000Y-138430000D03*
X144145000Y-130810000D03*
X146685000Y-138430000D03*
X141605000Y-130810000D03*
X149225000Y-138430000D03*
X139065000Y-130810000D03*
X151765000Y-138430000D03*
X136525000Y-130810000D03*
X154305000Y-138430000D03*
D19*
X196215000Y-132080000D03*
X196215000Y-129540000D03*
X196215000Y-127000000D03*
X196215000Y-124460000D03*
X201295000Y-124460000D03*
X99695000Y-124460000D03*
D11*
X283210000Y-131445000D03*
D12*
X285710000Y-131445000D03*
D13*
X300990000Y-120650000D03*
X298450000Y-120650000D03*
X295910000Y-120650000D03*
X293370000Y-120650000D03*
X290830000Y-120650000D03*
X288290000Y-120650000D03*
X285750000Y-120650000D03*
X283210000Y-120650000D03*
X280670000Y-120650000D03*
X278130000Y-120650000D03*
X275590000Y-120650000D03*
X273050000Y-120650000D03*
X270510000Y-120650000D03*
X267970000Y-120650000D03*
X267970000Y-128270000D03*
X270510000Y-128270000D03*
X273050000Y-128270000D03*
X275590000Y-128270000D03*
X278130000Y-128270000D03*
X280670000Y-128270000D03*
X283210000Y-128270000D03*
X285750000Y-128270000D03*
X288290000Y-128270000D03*
X290830000Y-128270000D03*
X293370000Y-128270000D03*
X295910000Y-128270000D03*
X298450000Y-128270000D03*
X300990000Y-128270000D03*
D11*
X304165000Y-139700000D03*
D12*
X306665000Y-139700000D03*
D14*
X297815000Y-134620000D03*
D15*
X300355000Y-134620000D03*
X300355000Y-137160000D03*
X297815000Y-137160000D03*
X300355000Y-139700000D03*
X297815000Y-139700000D03*
D16*
X239395000Y-128270000D03*
D17*
X236855000Y-128270000D03*
X234315000Y-128270000D03*
X231775000Y-128270000D03*
X229235000Y-128270000D03*
X226695000Y-128270000D03*
X224155000Y-128270000D03*
X221615000Y-128270000D03*
X219075000Y-128270000D03*
X216535000Y-128270000D03*
X213995000Y-128270000D03*
X211455000Y-128270000D03*
X208915000Y-128270000D03*
D16*
X234315000Y-130810000D03*
D17*
X231775000Y-130810000D03*
X229235000Y-130810000D03*
X226695000Y-130810000D03*
X224155000Y-130810000D03*
X221615000Y-130810000D03*
X219075000Y-130810000D03*
X216535000Y-130810000D03*
X213995000Y-130810000D03*
D18*
X234315000Y-133350000D03*
X234315000Y-138430000D03*
X231775000Y-133350000D03*
X231775000Y-138430000D03*
X229235000Y-133350000D03*
X229235000Y-138430000D03*
X226695000Y-133350000D03*
X226695000Y-138430000D03*
X224155000Y-133350000D03*
X224155000Y-138430000D03*
X221615000Y-133350000D03*
X221615000Y-138430000D03*
X219075000Y-133350000D03*
X219075000Y-138430000D03*
X216535000Y-133350000D03*
X216535000Y-138430000D03*
X213995000Y-133350000D03*
X213995000Y-138430000D03*
X234315000Y-125730000D03*
X234315000Y-120650000D03*
X231775000Y-125730000D03*
X231775000Y-120650000D03*
X229235000Y-125730000D03*
X229235000Y-120650000D03*
X226695000Y-125730000D03*
X226695000Y-120650000D03*
X219075000Y-125730000D03*
X219075000Y-120650000D03*
X216535000Y-125730000D03*
X216535000Y-120650000D03*
X213995000Y-125730000D03*
X213995000Y-120650000D03*
X306596051Y-137051051D03*
X303003949Y-133458949D03*
D19*
X310515000Y-127000000D03*
X310515000Y-129540000D03*
X310515000Y-132080000D03*
X310515000Y-134620000D03*
X310515000Y-137160000D03*
X310515000Y-139700000D03*
D20*
X310515000Y-121920000D03*
D21*
X310515000Y-119380000D03*
D20*
X208915000Y-121920000D03*
D21*
X208915000Y-119380000D03*
D22*
X263525000Y-120650000D03*
D13*
X245745000Y-128270000D03*
X260985000Y-120650000D03*
X248285000Y-128270000D03*
X258445000Y-120650000D03*
X250825000Y-128270000D03*
X255905000Y-120650000D03*
X253365000Y-128270000D03*
X253365000Y-120650000D03*
X255905000Y-128270000D03*
X250825000Y-120650000D03*
X258445000Y-128270000D03*
X248285000Y-120650000D03*
X260985000Y-128270000D03*
X245745000Y-120650000D03*
X263525000Y-128270000D03*
D22*
X263525000Y-130810000D03*
D13*
X245745000Y-138430000D03*
X260985000Y-130810000D03*
X248285000Y-138430000D03*
X258445000Y-130810000D03*
X250825000Y-138430000D03*
X255905000Y-130810000D03*
X253365000Y-138430000D03*
X253365000Y-130810000D03*
X255905000Y-138430000D03*
X250825000Y-130810000D03*
X258445000Y-138430000D03*
X248285000Y-130810000D03*
X260985000Y-138430000D03*
X245745000Y-130810000D03*
X263525000Y-138430000D03*
D19*
X305435000Y-132080000D03*
X305435000Y-129540000D03*
X305435000Y-127000000D03*
X305435000Y-124460000D03*
X310515000Y-124460000D03*
X208915000Y-124460000D03*
X106680000Y-100330000D03*
X106680000Y-97790000D03*
X106680000Y-95250000D03*
X106680000Y-92710000D03*
D23*
X105092500Y-108790000D03*
X107632500Y-108790000D03*
X110172500Y-108790000D03*
X112712500Y-108790000D03*
X115252500Y-108790000D03*
X117792500Y-108790000D03*
X120332500Y-108790000D03*
X122872500Y-108790000D03*
X125412500Y-108790000D03*
X105092500Y-86790000D03*
X107632500Y-86790000D03*
X110172500Y-86790000D03*
X112712500Y-86790000D03*
X115252500Y-86790000D03*
X117792500Y-86790000D03*
X120332500Y-86790000D03*
X122872500Y-86790000D03*
X125412500Y-86790000D03*
X141287500Y-108790000D03*
X143827500Y-108790000D03*
X146367500Y-108790000D03*
X148907500Y-108790000D03*
X151447500Y-108790000D03*
X153987500Y-108790000D03*
X156527500Y-108790000D03*
X159067500Y-108790000D03*
X161607500Y-108790000D03*
X141287500Y-86790000D03*
X143827500Y-86790000D03*
X146367500Y-86790000D03*
X148907500Y-86790000D03*
X151447500Y-86790000D03*
X153987500Y-86790000D03*
X156527500Y-86790000D03*
X159067500Y-86790000D03*
X161607500Y-86790000D03*
X286067500Y-108790000D03*
X288607500Y-108790000D03*
X291147500Y-108790000D03*
X293687500Y-108790000D03*
X296227500Y-108790000D03*
X298767500Y-108790000D03*
X301307500Y-108790000D03*
X303847500Y-108790000D03*
X306387500Y-108790000D03*
X286067500Y-86790000D03*
X288607500Y-86790000D03*
X291147500Y-86790000D03*
X293687500Y-86790000D03*
X296227500Y-86790000D03*
X298767500Y-86790000D03*
X301307500Y-86790000D03*
X303847500Y-86790000D03*
X306387500Y-86790000D03*
X177482500Y-108790000D03*
X180022500Y-108790000D03*
X182562500Y-108790000D03*
X185102500Y-108790000D03*
X187642500Y-108790000D03*
X190182500Y-108790000D03*
X192722500Y-108790000D03*
X195262500Y-108790000D03*
X197802500Y-108790000D03*
X177482500Y-86790000D03*
X180022500Y-86790000D03*
X182562500Y-86790000D03*
X185102500Y-86790000D03*
X187642500Y-86790000D03*
X190182500Y-86790000D03*
X192722500Y-86790000D03*
X195262500Y-86790000D03*
X197802500Y-86790000D03*
X213677500Y-108790000D03*
X216217500Y-108790000D03*
X218757500Y-108790000D03*
X221297500Y-108790000D03*
X223837500Y-108790000D03*
X226377500Y-108790000D03*
X228917500Y-108790000D03*
X231457500Y-108790000D03*
X233997500Y-108790000D03*
X213677500Y-86790000D03*
X216217500Y-86790000D03*
X218757500Y-86790000D03*
X221297500Y-86790000D03*
X223837500Y-86790000D03*
X226377500Y-86790000D03*
X228917500Y-86790000D03*
X231457500Y-86790000D03*
X233997500Y-86790000D03*
X249872500Y-108790000D03*
X252412500Y-108790000D03*
X254952500Y-108790000D03*
X257492500Y-108790000D03*
X260032500Y-108790000D03*
X262572500Y-108790000D03*
X265112500Y-108790000D03*
X267652500Y-108790000D03*
X270192500Y-108790000D03*
X249872500Y-86790000D03*
X252412500Y-86790000D03*
X254952500Y-86790000D03*
X257492500Y-86790000D03*
X260032500Y-86790000D03*
X262572500Y-86790000D03*
X265112500Y-86790000D03*
X267652500Y-86790000D03*
X270192500Y-86790000D03*
D16*
X172720000Y-96520000D03*
D17*
X175260000Y-96520000D03*
X177800000Y-96520000D03*
X180340000Y-96520000D03*
X182880000Y-96520000D03*
X185420000Y-96520000D03*
X187960000Y-96520000D03*
X190500000Y-96520000D03*
X193040000Y-96520000D03*
X195580000Y-96520000D03*
X198120000Y-96520000D03*
X200660000Y-96520000D03*
X203200000Y-96520000D03*
D16*
X177800000Y-99060000D03*
D17*
X180340000Y-99060000D03*
X182880000Y-99060000D03*
X185420000Y-99060000D03*
X187960000Y-99060000D03*
X190500000Y-99060000D03*
X193040000Y-99060000D03*
X195580000Y-99060000D03*
X198120000Y-99060000D03*
D19*
X106680000Y-163830000D03*
X106680000Y-161290000D03*
X106680000Y-158750000D03*
X106680000Y-156210000D03*
D23*
X105092500Y-172290000D03*
X107632500Y-172290000D03*
X110172500Y-172290000D03*
X112712500Y-172290000D03*
X115252500Y-172290000D03*
X117792500Y-172290000D03*
X120332500Y-172290000D03*
X122872500Y-172290000D03*
X125412500Y-172290000D03*
X105092500Y-150290000D03*
X107632500Y-150290000D03*
X110172500Y-150290000D03*
X112712500Y-150290000D03*
X115252500Y-150290000D03*
X117792500Y-150290000D03*
X120332500Y-150290000D03*
X122872500Y-150290000D03*
X125412500Y-150290000D03*
X141287500Y-172290000D03*
X143827500Y-172290000D03*
X146367500Y-172290000D03*
X148907500Y-172290000D03*
X151447500Y-172290000D03*
X153987500Y-172290000D03*
X156527500Y-172290000D03*
X159067500Y-172290000D03*
X161607500Y-172290000D03*
X141287500Y-150290000D03*
X143827500Y-150290000D03*
X146367500Y-150290000D03*
X148907500Y-150290000D03*
X151447500Y-150290000D03*
X153987500Y-150290000D03*
X156527500Y-150290000D03*
X159067500Y-150290000D03*
X161607500Y-150290000D03*
X286067500Y-172290000D03*
X288607500Y-172290000D03*
X291147500Y-172290000D03*
X293687500Y-172290000D03*
X296227500Y-172290000D03*
X298767500Y-172290000D03*
X301307500Y-172290000D03*
X303847500Y-172290000D03*
X306387500Y-172290000D03*
X286067500Y-150290000D03*
X288607500Y-150290000D03*
X291147500Y-150290000D03*
X293687500Y-150290000D03*
X296227500Y-150290000D03*
X298767500Y-150290000D03*
X301307500Y-150290000D03*
X303847500Y-150290000D03*
X306387500Y-150290000D03*
X177482500Y-172290000D03*
X180022500Y-172290000D03*
X182562500Y-172290000D03*
X185102500Y-172290000D03*
X187642500Y-172290000D03*
X190182500Y-172290000D03*
X192722500Y-172290000D03*
X195262500Y-172290000D03*
X197802500Y-172290000D03*
X177482500Y-150290000D03*
X180022500Y-150290000D03*
X182562500Y-150290000D03*
X185102500Y-150290000D03*
X187642500Y-150290000D03*
X190182500Y-150290000D03*
X192722500Y-150290000D03*
X195262500Y-150290000D03*
X197802500Y-150290000D03*
X213677500Y-172290000D03*
X216217500Y-172290000D03*
X218757500Y-172290000D03*
X221297500Y-172290000D03*
X223837500Y-172290000D03*
X226377500Y-172290000D03*
X228917500Y-172290000D03*
X231457500Y-172290000D03*
X233997500Y-172290000D03*
X213677500Y-150290000D03*
X216217500Y-150290000D03*
X218757500Y-150290000D03*
X221297500Y-150290000D03*
X223837500Y-150290000D03*
X226377500Y-150290000D03*
X228917500Y-150290000D03*
X231457500Y-150290000D03*
X233997500Y-150290000D03*
X249872500Y-172290000D03*
X252412500Y-172290000D03*
X254952500Y-172290000D03*
X257492500Y-172290000D03*
X260032500Y-172290000D03*
X262572500Y-172290000D03*
X265112500Y-172290000D03*
X267652500Y-172290000D03*
X270192500Y-172290000D03*
X249872500Y-150290000D03*
X252412500Y-150290000D03*
X254952500Y-150290000D03*
X257492500Y-150290000D03*
X260032500Y-150290000D03*
X262572500Y-150290000D03*
X265112500Y-150290000D03*
X267652500Y-150290000D03*
X270192500Y-150290000D03*
D16*
X172720000Y-160020000D03*
D17*
X175260000Y-160020000D03*
X177800000Y-160020000D03*
X180340000Y-160020000D03*
X182880000Y-160020000D03*
X185420000Y-160020000D03*
X187960000Y-160020000D03*
X190500000Y-160020000D03*
X193040000Y-160020000D03*
X195580000Y-160020000D03*
X198120000Y-160020000D03*
X200660000Y-160020000D03*
X203200000Y-160020000D03*
D16*
X177800000Y-162560000D03*
D17*
X180340000Y-162560000D03*
X182880000Y-162560000D03*
X185420000Y-162560000D03*
X187960000Y-162560000D03*
X190500000Y-162560000D03*
X193040000Y-162560000D03*
X195580000Y-162560000D03*
X198120000Y-162560000D03*
D24*
X127635000Y-137160000D03*
X183515000Y-135255000D03*
X184785000Y-133350000D03*
X236855000Y-137160000D03*
X292735000Y-135255000D03*
X294005000Y-133350000D03*
X130810000Y-136525000D03*
X180340000Y-136525000D03*
X181610000Y-133350000D03*
X240030000Y-136525000D03*
X289560000Y-136525000D03*
X290830000Y-133350000D03*
X123190000Y-124460000D03*
X169545000Y-123825000D03*
X232410000Y-124460000D03*
X278765000Y-123825000D03*
X168910000Y-126365000D03*
X168275000Y-138430000D03*
X278130000Y-126365000D03*
X277495000Y-138430000D03*
X150495000Y-122555000D03*
X156845000Y-127635000D03*
X259715000Y-122555000D03*
X266065000Y-127635000D03*
X133985000Y-132080000D03*
X142875000Y-132080000D03*
X243205000Y-132080000D03*
X252095000Y-132080000D03*
X143510000Y-132715000D03*
X133350000Y-132715000D03*
X167005000Y-137795000D03*
X165735000Y-129540000D03*
X186055000Y-137795000D03*
X252730000Y-132715000D03*
X242570000Y-132715000D03*
X276225000Y-137795000D03*
X274955000Y-129540000D03*
X295275000Y-137795000D03*
X167640000Y-137160000D03*
X276860000Y-137160000D03*
X127000000Y-125095000D03*
X158750000Y-131445000D03*
X180340000Y-133350000D03*
X236220000Y-125095000D03*
X267970000Y-131445000D03*
X289560000Y-133350000D03*
X160020000Y-122555000D03*
X156845000Y-123825000D03*
X269240000Y-122555000D03*
X266065000Y-123825000D03*
X160655000Y-123190000D03*
X157480000Y-124460000D03*
X269875000Y-123190000D03*
X266700000Y-124460000D03*
X182880000Y-133350000D03*
X182245000Y-135890000D03*
X128905000Y-135890000D03*
X292100000Y-133350000D03*
X291465000Y-135890000D03*
X238125000Y-135890000D03*
X184785000Y-134620000D03*
X186690000Y-132080000D03*
X294005000Y-134620000D03*
X295910000Y-132080000D03*
X157480000Y-123190000D03*
X159385000Y-121920000D03*
X266700000Y-123190000D03*
X268605000Y-121920000D03*
X179070000Y-124460000D03*
X168275000Y-125095000D03*
X288290000Y-124460000D03*
X277495000Y-125095000D03*
X165735000Y-125730000D03*
X166370000Y-124460000D03*
X274955000Y-125730000D03*
X275590000Y-124460000D03*
X163195000Y-126365000D03*
X163830000Y-124460000D03*
X272415000Y-126365000D03*
X273050000Y-124460000D03*
X177800000Y-107315000D03*
X177800000Y-170815000D03*
X109855000Y-106680000D03*
X144780000Y-106680000D03*
X251460000Y-106680000D03*
X215900000Y-106680000D03*
X180340000Y-106680000D03*
X109855000Y-170180000D03*
X144780000Y-170180000D03*
X251460000Y-170180000D03*
X215900000Y-170180000D03*
X180340000Y-170180000D03*
X112395000Y-106045000D03*
X147320000Y-106045000D03*
X254000000Y-106045000D03*
X218440000Y-106045000D03*
X182880000Y-106045000D03*
X112395000Y-169545000D03*
X147320000Y-169545000D03*
X254000000Y-169545000D03*
X218440000Y-169545000D03*
X182880000Y-169545000D03*
X114935000Y-105410000D03*
X149860000Y-105410000D03*
X256540000Y-105410000D03*
X220980000Y-105410000D03*
X185420000Y-105410000D03*
X114935000Y-168910000D03*
X149860000Y-168910000D03*
X256540000Y-168910000D03*
X220980000Y-168910000D03*
X185420000Y-168910000D03*
X117475000Y-104775000D03*
X152400000Y-104775000D03*
X259080000Y-104775000D03*
X223520000Y-104775000D03*
X187960000Y-104775000D03*
X117475000Y-168275000D03*
X152400000Y-168275000D03*
X259080000Y-168275000D03*
X223520000Y-168275000D03*
X187960000Y-168275000D03*
X120015000Y-104140000D03*
X154940000Y-104140000D03*
X261620000Y-104140000D03*
X226060000Y-104140000D03*
X190500000Y-104140000D03*
X120015000Y-167640000D03*
X154940000Y-167640000D03*
X261620000Y-167640000D03*
X226060000Y-167640000D03*
X190500000Y-167640000D03*
X122555000Y-103505000D03*
X157480000Y-103505000D03*
X264160000Y-103505000D03*
X228600000Y-103505000D03*
X193040000Y-103505000D03*
X122555000Y-167005000D03*
X157480000Y-167005000D03*
X264160000Y-167005000D03*
X228600000Y-167005000D03*
X193040000Y-167005000D03*
X125095000Y-102870000D03*
X160020000Y-102870000D03*
X266700000Y-102870000D03*
X231140000Y-102870000D03*
X195580000Y-102870000D03*
X125095000Y-166370000D03*
X160020000Y-166370000D03*
X266700000Y-166370000D03*
X231140000Y-166370000D03*
X195580000Y-166370000D03*
X127635000Y-102235000D03*
X162560000Y-102235000D03*
X269240000Y-102235000D03*
X233680000Y-102235000D03*
X198120000Y-102235000D03*
X127635000Y-165735000D03*
X162560000Y-165735000D03*
X269240000Y-165735000D03*
X233680000Y-165735000D03*
X198120000Y-165735000D03*
X142240000Y-88265000D03*
X248920000Y-88265000D03*
X213360000Y-88265000D03*
X177800000Y-88265000D03*
X142240000Y-151765000D03*
X248920000Y-151765000D03*
X213360000Y-151765000D03*
X177800000Y-151765000D03*
X109855000Y-88900000D03*
X144780000Y-88900000D03*
X251460000Y-88900000D03*
X215900000Y-88900000D03*
X180340000Y-88900000D03*
X109855000Y-152400000D03*
X144780000Y-152400000D03*
X251460000Y-152400000D03*
X215900000Y-152400000D03*
X180340000Y-152400000D03*
X112395000Y-89535000D03*
X147320000Y-89535000D03*
X254000000Y-89535000D03*
X218440000Y-89535000D03*
X182880000Y-89535000D03*
X112395000Y-153035000D03*
X147320000Y-153035000D03*
X254000000Y-153035000D03*
X218440000Y-153035000D03*
X182880000Y-153035000D03*
X114935000Y-90170000D03*
X149860000Y-90170000D03*
X256540000Y-90170000D03*
X220980000Y-90170000D03*
X185420000Y-90170000D03*
X114935000Y-153670000D03*
X149860000Y-153670000D03*
X256540000Y-153670000D03*
X220980000Y-153670000D03*
X185420000Y-153670000D03*
X122555000Y-90805000D03*
X157480000Y-90805000D03*
X264160000Y-90805000D03*
X228600000Y-90805000D03*
X193040000Y-90805000D03*
X122555000Y-154305000D03*
X157480000Y-154305000D03*
X264160000Y-154305000D03*
X228600000Y-154305000D03*
X193040000Y-154305000D03*
X125095000Y-91440000D03*
X175260000Y-91440000D03*
X266700000Y-91440000D03*
X231140000Y-91440000D03*
X195580000Y-91440000D03*
X125095000Y-154940000D03*
X175260000Y-154940000D03*
X266700000Y-154940000D03*
X231140000Y-154940000D03*
X195580000Y-154940000D03*
X127635000Y-92075000D03*
X176530000Y-92075000D03*
X269240000Y-92075000D03*
X233680000Y-92075000D03*
X198120000Y-92075000D03*
X127635000Y-155575000D03*
X176530000Y-155575000D03*
X269240000Y-155575000D03*
X233680000Y-155575000D03*
X198120000Y-155575000D03*
X222885000Y-92710000D03*
X222885000Y-156210000D03*
D25*
X173990000Y-131445000D02*
X173990000Y-128270000D01*
X171450000Y-128270000D02*
X173990000Y-128270000D01*
X176530000Y-120650000D02*
X176530000Y-119380000D01*
X101600000Y-122555000D02*
X99695000Y-124460000D01*
X101600000Y-121920000D02*
X101600000Y-122555000D01*
X104775000Y-118745000D02*
X101600000Y-121920000D01*
X175895000Y-118745000D02*
X104775000Y-118745000D01*
X176530000Y-119380000D02*
X175895000Y-118745000D01*
X193783949Y-133458949D02*
X193783949Y-127743949D01*
X178435000Y-119380000D02*
X177165000Y-120650000D01*
X179705000Y-119380000D02*
X178435000Y-119380000D01*
X180340000Y-120015000D02*
X179705000Y-119380000D01*
X180340000Y-121285000D02*
X180340000Y-120015000D01*
X181610000Y-122555000D02*
X180340000Y-121285000D01*
X181610000Y-125095000D02*
X181610000Y-122555000D01*
X182880000Y-126365000D02*
X181610000Y-125095000D01*
X192405000Y-126365000D02*
X182880000Y-126365000D01*
X193783949Y-127743949D02*
X192405000Y-126365000D01*
X177165000Y-120650000D02*
X176530000Y-120650000D01*
X154305000Y-128270000D02*
X156845000Y-130810000D01*
X156845000Y-130810000D02*
X156845000Y-140335000D01*
X149860000Y-140970000D02*
X99060000Y-140970000D01*
X99060000Y-140970000D02*
X98425000Y-140335000D01*
X98425000Y-140335000D02*
X98425000Y-125730000D01*
X98425000Y-125730000D02*
X99695000Y-124460000D01*
X156210000Y-140970000D02*
X149860000Y-140970000D01*
X156845000Y-140335000D02*
X156845000Y-140970000D01*
X156210000Y-140970000D02*
X156845000Y-140335000D01*
X157480000Y-140970000D02*
X156845000Y-140970000D01*
X156845000Y-140970000D02*
X156210000Y-140970000D01*
X170180000Y-140970000D02*
X157480000Y-140970000D01*
X157480000Y-140970000D02*
X156845000Y-140335000D01*
X193783949Y-133458949D02*
X193566051Y-133458949D01*
X193566051Y-133458949D02*
X193040000Y-133985000D01*
X193040000Y-133985000D02*
X193040000Y-140335000D01*
X201295000Y-124460000D02*
X200025000Y-124460000D01*
X200025000Y-132080000D02*
X201295000Y-132080000D01*
X199390000Y-131445000D02*
X200025000Y-132080000D01*
X199390000Y-125095000D02*
X199390000Y-131445000D01*
X200025000Y-124460000D02*
X199390000Y-125095000D01*
X191135000Y-134620000D02*
X192622898Y-134620000D01*
X192622898Y-134620000D02*
X193783949Y-133458949D01*
X193783949Y-133458949D02*
X199916051Y-133458949D01*
X199916051Y-133458949D02*
X201295000Y-132080000D01*
X171450000Y-130810000D02*
X171450000Y-128270000D01*
X171450000Y-139700000D02*
X171450000Y-140970000D01*
X171450000Y-139700000D02*
X170180000Y-140970000D01*
X172720000Y-140970000D02*
X171450000Y-140970000D01*
X171450000Y-140970000D02*
X170180000Y-140970000D01*
X172720000Y-140970000D02*
X171450000Y-139700000D01*
X192405000Y-140970000D02*
X172720000Y-140970000D01*
X193040000Y-140335000D02*
X192405000Y-140970000D01*
X171450000Y-139700000D02*
X171450000Y-130810000D01*
X283210000Y-131445000D02*
X283210000Y-128270000D01*
X280670000Y-128270000D02*
X283210000Y-128270000D01*
X285750000Y-120650000D02*
X285750000Y-119380000D01*
X210820000Y-122555000D02*
X208915000Y-124460000D01*
X210820000Y-121920000D02*
X210820000Y-122555000D01*
X213995000Y-118745000D02*
X210820000Y-121920000D01*
X285115000Y-118745000D02*
X213995000Y-118745000D01*
X285750000Y-119380000D02*
X285115000Y-118745000D01*
X303003949Y-133458949D02*
X303003949Y-127743949D01*
X287655000Y-119380000D02*
X286385000Y-120650000D01*
X288925000Y-119380000D02*
X287655000Y-119380000D01*
X289560000Y-120015000D02*
X288925000Y-119380000D01*
X289560000Y-121285000D02*
X289560000Y-120015000D01*
X290830000Y-122555000D02*
X289560000Y-121285000D01*
X290830000Y-125095000D02*
X290830000Y-122555000D01*
X292100000Y-126365000D02*
X290830000Y-125095000D01*
X301625000Y-126365000D02*
X292100000Y-126365000D01*
X303003949Y-127743949D02*
X301625000Y-126365000D01*
X286385000Y-120650000D02*
X285750000Y-120650000D01*
X263525000Y-128270000D02*
X266065000Y-130810000D01*
X266065000Y-130810000D02*
X266065000Y-140335000D01*
X259080000Y-140970000D02*
X208280000Y-140970000D01*
X208280000Y-140970000D02*
X207645000Y-140335000D01*
X207645000Y-140335000D02*
X207645000Y-125730000D01*
X207645000Y-125730000D02*
X208915000Y-124460000D01*
X265430000Y-140970000D02*
X259080000Y-140970000D01*
X266065000Y-140335000D02*
X266065000Y-140970000D01*
X265430000Y-140970000D02*
X266065000Y-140335000D01*
X266700000Y-140970000D02*
X266065000Y-140970000D01*
X266065000Y-140970000D02*
X265430000Y-140970000D01*
X279400000Y-140970000D02*
X266700000Y-140970000D01*
X266700000Y-140970000D02*
X266065000Y-140335000D01*
X303003949Y-133458949D02*
X302786051Y-133458949D01*
X302786051Y-133458949D02*
X302260000Y-133985000D01*
X302260000Y-133985000D02*
X302260000Y-140335000D01*
X310515000Y-124460000D02*
X309245000Y-124460000D01*
X309245000Y-132080000D02*
X310515000Y-132080000D01*
X308610000Y-131445000D02*
X309245000Y-132080000D01*
X308610000Y-125095000D02*
X308610000Y-131445000D01*
X309245000Y-124460000D02*
X308610000Y-125095000D01*
X300355000Y-134620000D02*
X301842898Y-134620000D01*
X301842898Y-134620000D02*
X303003949Y-133458949D01*
X303003949Y-133458949D02*
X309136051Y-133458949D01*
X309136051Y-133458949D02*
X310515000Y-132080000D01*
X280670000Y-130810000D02*
X280670000Y-128270000D01*
X280670000Y-139700000D02*
X280670000Y-140970000D01*
X280670000Y-139700000D02*
X279400000Y-140970000D01*
X281940000Y-140970000D02*
X280670000Y-140970000D01*
X280670000Y-140970000D02*
X279400000Y-140970000D01*
X281940000Y-140970000D02*
X280670000Y-139700000D01*
X301625000Y-140970000D02*
X281940000Y-140970000D01*
X302260000Y-140335000D02*
X301625000Y-140970000D01*
X280670000Y-139700000D02*
X280670000Y-130810000D01*
D26*
X201295000Y-139700000D02*
X197445000Y-139700000D01*
X310515000Y-139700000D02*
X306665000Y-139700000D01*
X201295000Y-134620000D02*
X202565000Y-133350000D01*
X202565000Y-120650000D02*
X201295000Y-119380000D01*
X202565000Y-133350000D02*
X202565000Y-120650000D01*
X201295000Y-119380000D02*
X199390000Y-119380000D01*
X189865000Y-119380000D02*
X189230000Y-120015000D01*
X199390000Y-119380000D02*
X189865000Y-119380000D01*
X189230000Y-120015000D02*
X189230000Y-120650000D01*
X310515000Y-134620000D02*
X311785000Y-133350000D01*
X311785000Y-120650000D02*
X310515000Y-119380000D01*
X311785000Y-133350000D02*
X311785000Y-120650000D01*
X310515000Y-119380000D02*
X308610000Y-119380000D01*
X299085000Y-119380000D02*
X298450000Y-120015000D01*
X308610000Y-119380000D02*
X299085000Y-119380000D01*
X298450000Y-120015000D02*
X298450000Y-120650000D01*
X186690000Y-120650000D02*
X186690000Y-118745000D01*
X101600000Y-117475000D02*
X99695000Y-119380000D01*
X185420000Y-117475000D02*
X101600000Y-117475000D01*
X186690000Y-118745000D02*
X185420000Y-117475000D01*
X186690000Y-120650000D02*
X186690000Y-119380000D01*
X203200000Y-134620000D02*
X203200000Y-119380000D01*
X203200000Y-119380000D02*
X201930000Y-118110000D01*
X201930000Y-118110000D02*
X200025000Y-118110000D01*
X200025000Y-118110000D02*
X199390000Y-118745000D01*
X199390000Y-118745000D02*
X187325000Y-118745000D01*
X187325000Y-118745000D02*
X186690000Y-119380000D01*
X201295000Y-136525000D02*
X203200000Y-134620000D01*
X100330000Y-118745000D02*
X99695000Y-119380000D01*
X201295000Y-137160000D02*
X201295000Y-136525000D01*
X295910000Y-120650000D02*
X295910000Y-118745000D01*
X210820000Y-117475000D02*
X208915000Y-119380000D01*
X294640000Y-117475000D02*
X210820000Y-117475000D01*
X295910000Y-118745000D02*
X294640000Y-117475000D01*
X295910000Y-120650000D02*
X295910000Y-119380000D01*
X312420000Y-134620000D02*
X312420000Y-119380000D01*
X312420000Y-119380000D02*
X311150000Y-118110000D01*
X311150000Y-118110000D02*
X309245000Y-118110000D01*
X309245000Y-118110000D02*
X308610000Y-118745000D01*
X308610000Y-118745000D02*
X296545000Y-118745000D01*
X296545000Y-118745000D02*
X295910000Y-119380000D01*
X310515000Y-136525000D02*
X312420000Y-134620000D01*
X209550000Y-118745000D02*
X208915000Y-119380000D01*
X310515000Y-137160000D02*
X310515000Y-136525000D01*
X109855000Y-138430000D02*
X110490000Y-138430000D01*
X110490000Y-138430000D02*
X111760000Y-137160000D01*
X111760000Y-137160000D02*
X127635000Y-137160000D01*
X183515000Y-135255000D02*
X184150000Y-134620000D01*
X184150000Y-134620000D02*
X184150000Y-133985000D01*
X184150000Y-133985000D02*
X184785000Y-133350000D01*
X219075000Y-138430000D02*
X219710000Y-138430000D01*
X219710000Y-138430000D02*
X220980000Y-137160000D01*
X220980000Y-137160000D02*
X236855000Y-137160000D01*
X292735000Y-135255000D02*
X293370000Y-134620000D01*
X293370000Y-134620000D02*
X293370000Y-133985000D01*
X293370000Y-133985000D02*
X294005000Y-133350000D01*
X104775000Y-138430000D02*
X105410000Y-138430000D01*
X105410000Y-138430000D02*
X108585000Y-135255000D01*
X108585000Y-135255000D02*
X129540000Y-135255000D01*
X129540000Y-135255000D02*
X130810000Y-136525000D01*
X180340000Y-136525000D02*
X181610000Y-135255000D01*
X181610000Y-135255000D02*
X181610000Y-133350000D01*
X213995000Y-138430000D02*
X214630000Y-138430000D01*
X214630000Y-138430000D02*
X217805000Y-135255000D01*
X217805000Y-135255000D02*
X238760000Y-135255000D01*
X238760000Y-135255000D02*
X240030000Y-136525000D01*
X289560000Y-136525000D02*
X290830000Y-135255000D01*
X290830000Y-135255000D02*
X290830000Y-133350000D01*
X135255000Y-124460000D02*
X123190000Y-124460000D01*
X135890000Y-125095000D02*
X135255000Y-124460000D01*
X155575000Y-125095000D02*
X135890000Y-125095000D01*
X157480000Y-127000000D02*
X155575000Y-125095000D01*
X166370000Y-127000000D02*
X157480000Y-127000000D01*
X167005000Y-126365000D02*
X166370000Y-127000000D01*
X167005000Y-124460000D02*
X167005000Y-126365000D01*
X167640000Y-123825000D02*
X167005000Y-124460000D01*
X169545000Y-123825000D02*
X167640000Y-123825000D01*
X244475000Y-124460000D02*
X232410000Y-124460000D01*
X245110000Y-125095000D02*
X244475000Y-124460000D01*
X264795000Y-125095000D02*
X245110000Y-125095000D01*
X266700000Y-127000000D02*
X264795000Y-125095000D01*
X275590000Y-127000000D02*
X266700000Y-127000000D01*
X276225000Y-126365000D02*
X275590000Y-127000000D01*
X276225000Y-124460000D02*
X276225000Y-126365000D01*
X276860000Y-123825000D02*
X276225000Y-124460000D01*
X278765000Y-123825000D02*
X276860000Y-123825000D01*
X170180000Y-127635000D02*
X168910000Y-126365000D01*
X170180000Y-136525000D02*
X170180000Y-127635000D01*
X168275000Y-138430000D02*
X170180000Y-136525000D01*
X279400000Y-127635000D02*
X278130000Y-126365000D01*
X279400000Y-136525000D02*
X279400000Y-127635000D01*
X277495000Y-138430000D02*
X279400000Y-136525000D01*
D25*
X130175000Y-128270000D02*
X130175000Y-131572000D01*
X150495000Y-134620000D02*
X154305000Y-138430000D01*
X133223000Y-134620000D02*
X150495000Y-134620000D01*
X130175000Y-131572000D02*
X133223000Y-134620000D01*
D26*
X154305000Y-138430000D02*
X153670000Y-138430000D01*
D25*
X239395000Y-128270000D02*
X239395000Y-131572000D01*
X259715000Y-134620000D02*
X263525000Y-138430000D01*
X242443000Y-134620000D02*
X259715000Y-134620000D01*
X239395000Y-131572000D02*
X242443000Y-134620000D01*
D26*
X263525000Y-138430000D02*
X262890000Y-138430000D01*
D25*
X127635000Y-128270000D02*
X127635000Y-132334000D01*
X148590000Y-135255000D02*
X151765000Y-138430000D01*
X132969000Y-135255000D02*
X148590000Y-135255000D01*
X131191000Y-133477000D02*
X132969000Y-135255000D01*
X128778000Y-133477000D02*
X131191000Y-133477000D01*
X127635000Y-132334000D02*
X128778000Y-133477000D01*
D26*
X151765000Y-138430000D02*
X151765000Y-137795000D01*
D25*
X236855000Y-128270000D02*
X236855000Y-132334000D01*
X257810000Y-135255000D02*
X260985000Y-138430000D01*
X242189000Y-135255000D02*
X257810000Y-135255000D01*
X240411000Y-133477000D02*
X242189000Y-135255000D01*
X237998000Y-133477000D02*
X240411000Y-133477000D01*
X236855000Y-132334000D02*
X237998000Y-133477000D01*
D26*
X260985000Y-138430000D02*
X260985000Y-137795000D01*
D25*
X114935000Y-128270000D02*
X115316000Y-128270000D01*
X115316000Y-128270000D02*
X116713000Y-126873000D01*
X116713000Y-126873000D02*
X125730000Y-126873000D01*
X125730000Y-126873000D02*
X126365000Y-127508000D01*
X126365000Y-127508000D02*
X126365000Y-131953000D01*
X126365000Y-131953000D02*
X128397000Y-133985000D01*
X128397000Y-133985000D02*
X130937000Y-133985000D01*
X130937000Y-133985000D02*
X132842000Y-135890000D01*
X132842000Y-135890000D02*
X146685000Y-135890000D01*
X146685000Y-135890000D02*
X149225000Y-138430000D01*
D26*
X149225000Y-138430000D02*
X149225000Y-137795000D01*
D25*
X224155000Y-128270000D02*
X224536000Y-128270000D01*
X224536000Y-128270000D02*
X225933000Y-126873000D01*
X225933000Y-126873000D02*
X234950000Y-126873000D01*
X234950000Y-126873000D02*
X235585000Y-127508000D01*
X235585000Y-127508000D02*
X235585000Y-131953000D01*
X235585000Y-131953000D02*
X237617000Y-133985000D01*
X237617000Y-133985000D02*
X240157000Y-133985000D01*
X240157000Y-133985000D02*
X242062000Y-135890000D01*
X242062000Y-135890000D02*
X255905000Y-135890000D01*
X255905000Y-135890000D02*
X258445000Y-138430000D01*
D26*
X258445000Y-138430000D02*
X258445000Y-137795000D01*
X135255000Y-121285000D02*
X127000000Y-121285000D01*
X158750000Y-120650000D02*
X156845000Y-120650000D01*
X155575000Y-121920000D02*
X156845000Y-120650000D01*
X135890000Y-121920000D02*
X155575000Y-121920000D01*
X135255000Y-121285000D02*
X135890000Y-121920000D01*
X125730000Y-119380000D02*
X126365000Y-120015000D01*
X120650000Y-119380000D02*
X125730000Y-119380000D01*
X120650000Y-119380000D02*
X120015000Y-120015000D01*
X126365000Y-120650000D02*
X126365000Y-120015000D01*
X127000000Y-121285000D02*
X126365000Y-120650000D01*
X120015000Y-120650000D02*
X120015000Y-120015000D01*
X244475000Y-121285000D02*
X236220000Y-121285000D01*
X267970000Y-120650000D02*
X266065000Y-120650000D01*
X264795000Y-121920000D02*
X266065000Y-120650000D01*
X245110000Y-121920000D02*
X264795000Y-121920000D01*
X244475000Y-121285000D02*
X245110000Y-121920000D01*
X234950000Y-119380000D02*
X235585000Y-120015000D01*
X229870000Y-119380000D02*
X234950000Y-119380000D01*
X229870000Y-119380000D02*
X229235000Y-120015000D01*
X235585000Y-120650000D02*
X235585000Y-120015000D01*
X236220000Y-121285000D02*
X235585000Y-120650000D01*
X229235000Y-120650000D02*
X229235000Y-120015000D01*
X135890000Y-122555000D02*
X150495000Y-122555000D01*
X135255000Y-121920000D02*
X135890000Y-122555000D01*
X118110000Y-121920000D02*
X135255000Y-121920000D01*
X117475000Y-121285000D02*
X118110000Y-121920000D01*
X157480000Y-128270000D02*
X158750000Y-128270000D01*
X156845000Y-127635000D02*
X157480000Y-128270000D01*
X117475000Y-120650000D02*
X117475000Y-121285000D01*
X158115000Y-128270000D02*
X158750000Y-128270000D01*
X245110000Y-122555000D02*
X259715000Y-122555000D01*
X244475000Y-121920000D02*
X245110000Y-122555000D01*
X227330000Y-121920000D02*
X244475000Y-121920000D01*
X226695000Y-121285000D02*
X227330000Y-121920000D01*
X266700000Y-128270000D02*
X267970000Y-128270000D01*
X266065000Y-127635000D02*
X266700000Y-128270000D01*
X226695000Y-120650000D02*
X226695000Y-121285000D01*
X267335000Y-128270000D02*
X267970000Y-128270000D01*
X133985000Y-132080000D02*
X142875000Y-132080000D01*
X243205000Y-132080000D02*
X252095000Y-132080000D01*
X143510000Y-132715000D02*
X133350000Y-132715000D01*
X165735000Y-136525000D02*
X165735000Y-129540000D01*
X167005000Y-137795000D02*
X165735000Y-136525000D01*
X186690000Y-138430000D02*
X186055000Y-137795000D01*
X189230000Y-138430000D02*
X186690000Y-138430000D01*
X189230000Y-138430000D02*
X190500000Y-137160000D01*
X191135000Y-137160000D02*
X190500000Y-137160000D01*
X252730000Y-132715000D02*
X242570000Y-132715000D01*
X274955000Y-136525000D02*
X274955000Y-129540000D01*
X276225000Y-137795000D02*
X274955000Y-136525000D01*
X295910000Y-138430000D02*
X295275000Y-137795000D01*
X298450000Y-138430000D02*
X295910000Y-138430000D01*
X298450000Y-138430000D02*
X299720000Y-137160000D01*
X300355000Y-137160000D02*
X299720000Y-137160000D01*
X167005000Y-137160000D02*
X167640000Y-137160000D01*
X167005000Y-137160000D02*
X166370000Y-136525000D01*
X166370000Y-128270000D02*
X166370000Y-136525000D01*
X276225000Y-137160000D02*
X276860000Y-137160000D01*
X276225000Y-137160000D02*
X275590000Y-136525000D01*
X275590000Y-128270000D02*
X275590000Y-136525000D01*
X135255000Y-125095000D02*
X127000000Y-125095000D01*
X135890000Y-125730000D02*
X135255000Y-125095000D01*
X154940000Y-125730000D02*
X135890000Y-125730000D01*
X155575000Y-126365000D02*
X154940000Y-125730000D01*
X155575000Y-128270000D02*
X155575000Y-126365000D01*
X158750000Y-131445000D02*
X155575000Y-128270000D01*
X182245000Y-131445000D02*
X180340000Y-133350000D01*
X188595000Y-131445000D02*
X182245000Y-131445000D01*
X189865000Y-132715000D02*
X188595000Y-131445000D01*
X189865000Y-136525000D02*
X189865000Y-132715000D01*
X189230000Y-137160000D02*
X189865000Y-136525000D01*
X188595000Y-137160000D02*
X189230000Y-137160000D01*
X244475000Y-125095000D02*
X236220000Y-125095000D01*
X245110000Y-125730000D02*
X244475000Y-125095000D01*
X264160000Y-125730000D02*
X245110000Y-125730000D01*
X264795000Y-126365000D02*
X264160000Y-125730000D01*
X264795000Y-128270000D02*
X264795000Y-126365000D01*
X267970000Y-131445000D02*
X264795000Y-128270000D01*
X291465000Y-131445000D02*
X289560000Y-133350000D01*
X297815000Y-131445000D02*
X291465000Y-131445000D01*
X299085000Y-132715000D02*
X297815000Y-131445000D01*
X299085000Y-136525000D02*
X299085000Y-132715000D01*
X298450000Y-137160000D02*
X299085000Y-136525000D01*
X297815000Y-137160000D02*
X298450000Y-137160000D01*
X172085000Y-122555000D02*
X179705000Y-122555000D01*
X134620000Y-123190000D02*
X135255000Y-123190000D01*
X116840000Y-123190000D02*
X134620000Y-123190000D01*
X115570000Y-121920000D02*
X116840000Y-123190000D01*
X108585000Y-121920000D02*
X115570000Y-121920000D01*
X107315000Y-120650000D02*
X108585000Y-121920000D01*
X160020000Y-122555000D02*
X172085000Y-122555000D01*
X135890000Y-123825000D02*
X156845000Y-123825000D01*
X135255000Y-123190000D02*
X135890000Y-123825000D01*
X180340000Y-127000000D02*
X179070000Y-128270000D01*
X180340000Y-123190000D02*
X180340000Y-127000000D01*
X179705000Y-122555000D02*
X180340000Y-123190000D01*
X281305000Y-122555000D02*
X288925000Y-122555000D01*
X243840000Y-123190000D02*
X244475000Y-123190000D01*
X226060000Y-123190000D02*
X243840000Y-123190000D01*
X224790000Y-121920000D02*
X226060000Y-123190000D01*
X217805000Y-121920000D02*
X224790000Y-121920000D01*
X216535000Y-120650000D02*
X217805000Y-121920000D01*
X269240000Y-122555000D02*
X281305000Y-122555000D01*
X245110000Y-123825000D02*
X266065000Y-123825000D01*
X244475000Y-123190000D02*
X245110000Y-123825000D01*
X289560000Y-127000000D02*
X288290000Y-128270000D01*
X289560000Y-123190000D02*
X289560000Y-127000000D01*
X288925000Y-122555000D02*
X289560000Y-123190000D01*
X172720000Y-123190000D02*
X179070000Y-123190000D01*
X160655000Y-123190000D02*
X172085000Y-123190000D01*
X135890000Y-124460000D02*
X157480000Y-124460000D01*
X135255000Y-123825000D02*
X135890000Y-124460000D01*
X116840000Y-123825000D02*
X135255000Y-123825000D01*
X115570000Y-122555000D02*
X116840000Y-123825000D01*
X107315000Y-122555000D02*
X115570000Y-122555000D01*
X105410000Y-120650000D02*
X107315000Y-122555000D01*
X172085000Y-123190000D02*
X172720000Y-123190000D01*
X180975000Y-129540000D02*
X181610000Y-128905000D01*
X178435000Y-129540000D02*
X180975000Y-129540000D01*
X177800000Y-128905000D02*
X178435000Y-129540000D01*
X177800000Y-127635000D02*
X177800000Y-128905000D01*
X178435000Y-127000000D02*
X177800000Y-127635000D01*
X179070000Y-127000000D02*
X178435000Y-127000000D01*
X179705000Y-126365000D02*
X179070000Y-127000000D01*
X179705000Y-123825000D02*
X179705000Y-126365000D01*
X179070000Y-123190000D02*
X179705000Y-123825000D01*
X181610000Y-128905000D02*
X181610000Y-128270000D01*
X104775000Y-120650000D02*
X105410000Y-120650000D01*
X281940000Y-123190000D02*
X288290000Y-123190000D01*
X269875000Y-123190000D02*
X281305000Y-123190000D01*
X245110000Y-124460000D02*
X266700000Y-124460000D01*
X244475000Y-123825000D02*
X245110000Y-124460000D01*
X226060000Y-123825000D02*
X244475000Y-123825000D01*
X224790000Y-122555000D02*
X226060000Y-123825000D01*
X216535000Y-122555000D02*
X224790000Y-122555000D01*
X214630000Y-120650000D02*
X216535000Y-122555000D01*
X281305000Y-123190000D02*
X281940000Y-123190000D01*
X290195000Y-129540000D02*
X290830000Y-128905000D01*
X287655000Y-129540000D02*
X290195000Y-129540000D01*
X287020000Y-128905000D02*
X287655000Y-129540000D01*
X287020000Y-127635000D02*
X287020000Y-128905000D01*
X287655000Y-127000000D02*
X287020000Y-127635000D01*
X288290000Y-127000000D02*
X287655000Y-127000000D01*
X288925000Y-126365000D02*
X288290000Y-127000000D01*
X288925000Y-123825000D02*
X288925000Y-126365000D01*
X288290000Y-123190000D02*
X288925000Y-123825000D01*
X290830000Y-128905000D02*
X290830000Y-128270000D01*
X213995000Y-120650000D02*
X214630000Y-120650000D01*
X107315000Y-138430000D02*
X109220000Y-136525000D01*
X182880000Y-135255000D02*
X182880000Y-133350000D01*
X182245000Y-135890000D02*
X182880000Y-135255000D01*
X128270000Y-136525000D02*
X128905000Y-135890000D01*
X109220000Y-136525000D02*
X128270000Y-136525000D01*
X216535000Y-138430000D02*
X218440000Y-136525000D01*
X292100000Y-135255000D02*
X292100000Y-133350000D01*
X291465000Y-135890000D02*
X292100000Y-135255000D01*
X237490000Y-136525000D02*
X238125000Y-135890000D01*
X218440000Y-136525000D02*
X237490000Y-136525000D01*
X184785000Y-134620000D02*
X186690000Y-132715000D01*
X186690000Y-132715000D02*
X186690000Y-132080000D01*
X294005000Y-134620000D02*
X295910000Y-132715000D01*
X295910000Y-132715000D02*
X295910000Y-132080000D01*
X179705000Y-121920000D02*
X180975000Y-123190000D01*
X109855000Y-120650000D02*
X115570000Y-120650000D01*
X115570000Y-120650000D02*
X117475000Y-122555000D01*
X117475000Y-122555000D02*
X135255000Y-122555000D01*
X135255000Y-122555000D02*
X135890000Y-123190000D01*
X135890000Y-123190000D02*
X157480000Y-123190000D01*
X177800000Y-121920000D02*
X179705000Y-121920000D01*
X159385000Y-121920000D02*
X172720000Y-121920000D01*
X172720000Y-121920000D02*
X177800000Y-121920000D01*
X190500000Y-127000000D02*
X191770000Y-128270000D01*
X181610000Y-127000000D02*
X190500000Y-127000000D01*
X180975000Y-126365000D02*
X181610000Y-127000000D01*
X180975000Y-123190000D02*
X180975000Y-126365000D01*
X288925000Y-121920000D02*
X290195000Y-123190000D01*
X219075000Y-120650000D02*
X224790000Y-120650000D01*
X224790000Y-120650000D02*
X226695000Y-122555000D01*
X226695000Y-122555000D02*
X244475000Y-122555000D01*
X244475000Y-122555000D02*
X245110000Y-123190000D01*
X245110000Y-123190000D02*
X266700000Y-123190000D01*
X287020000Y-121920000D02*
X288925000Y-121920000D01*
X268605000Y-121920000D02*
X281940000Y-121920000D01*
X281940000Y-121920000D02*
X287020000Y-121920000D01*
X299720000Y-127000000D02*
X300990000Y-128270000D01*
X290830000Y-127000000D02*
X299720000Y-127000000D01*
X290195000Y-126365000D02*
X290830000Y-127000000D01*
X290195000Y-123190000D02*
X290195000Y-126365000D01*
X177165000Y-125095000D02*
X169545000Y-125095000D01*
X177165000Y-125095000D02*
X178435000Y-125095000D01*
X178435000Y-125095000D02*
X179070000Y-124460000D01*
X168275000Y-125095000D02*
X169545000Y-125095000D01*
X154305000Y-120650000D02*
X154305000Y-120015000D01*
X179070000Y-120015000D02*
X179070000Y-120650000D01*
X286385000Y-125095000D02*
X278765000Y-125095000D01*
X286385000Y-125095000D02*
X287655000Y-125095000D01*
X287655000Y-125095000D02*
X288290000Y-124460000D01*
X277495000Y-125095000D02*
X278765000Y-125095000D01*
X263525000Y-120650000D02*
X263525000Y-120015000D01*
X288290000Y-120015000D02*
X288290000Y-120650000D01*
X165735000Y-125730000D02*
X166370000Y-125095000D01*
X166370000Y-125095000D02*
X166370000Y-124460000D01*
X274955000Y-125730000D02*
X275590000Y-125095000D01*
X275590000Y-125095000D02*
X275590000Y-124460000D01*
X163195000Y-126365000D02*
X163830000Y-125730000D01*
X163830000Y-125730000D02*
X163830000Y-124460000D01*
X272415000Y-126365000D02*
X273050000Y-125730000D01*
X273050000Y-125730000D02*
X273050000Y-124460000D01*
D25*
X128270000Y-134620000D02*
X114300000Y-134620000D01*
X113665000Y-133985000D02*
X113665000Y-131445000D01*
X114300000Y-134620000D02*
X113665000Y-133985000D01*
X130810000Y-134620000D02*
X128270000Y-134620000D01*
X128270000Y-134620000D02*
X128016000Y-134620000D01*
X145415000Y-136525000D02*
X132715000Y-136525000D01*
X132715000Y-136525000D02*
X130810000Y-134620000D01*
X146685000Y-137795000D02*
X145415000Y-136525000D01*
X113665000Y-129540000D02*
X112395000Y-128270000D01*
X113665000Y-131445000D02*
X113665000Y-129540000D01*
X113665000Y-131699000D02*
X113665000Y-131445000D01*
X146685000Y-138430000D02*
X146685000Y-137795000D01*
X237490000Y-134620000D02*
X223520000Y-134620000D01*
X222885000Y-133985000D02*
X222885000Y-131445000D01*
X223520000Y-134620000D02*
X222885000Y-133985000D01*
X240030000Y-134620000D02*
X237490000Y-134620000D01*
X237490000Y-134620000D02*
X237236000Y-134620000D01*
X254635000Y-136525000D02*
X241935000Y-136525000D01*
X241935000Y-136525000D02*
X240030000Y-134620000D01*
X255905000Y-137795000D02*
X254635000Y-136525000D01*
X222885000Y-129540000D02*
X221615000Y-128270000D01*
X222885000Y-131445000D02*
X222885000Y-129540000D01*
X222885000Y-131699000D02*
X222885000Y-131445000D01*
X255905000Y-138430000D02*
X255905000Y-137795000D01*
X144145000Y-138430000D02*
X142875000Y-137160000D01*
X102870000Y-138430000D02*
X102870000Y-128905000D01*
X103505000Y-139065000D02*
X102870000Y-138430000D01*
X104140000Y-139700000D02*
X103505000Y-139065000D01*
X125730000Y-139700000D02*
X104140000Y-139700000D01*
X126365000Y-139065000D02*
X125730000Y-139700000D01*
X133985000Y-139065000D02*
X126365000Y-139065000D01*
X134620000Y-138430000D02*
X133985000Y-139065000D01*
X135890000Y-137160000D02*
X134620000Y-138430000D01*
X142875000Y-137160000D02*
X135890000Y-137160000D01*
D26*
X102870000Y-128905000D02*
X102235000Y-128270000D01*
D25*
X253365000Y-138430000D02*
X252095000Y-137160000D01*
X212090000Y-138430000D02*
X212090000Y-128905000D01*
X212725000Y-139065000D02*
X212090000Y-138430000D01*
X213360000Y-139700000D02*
X212725000Y-139065000D01*
X234950000Y-139700000D02*
X213360000Y-139700000D01*
X235585000Y-139065000D02*
X234950000Y-139700000D01*
X243205000Y-139065000D02*
X235585000Y-139065000D01*
X243840000Y-138430000D02*
X243205000Y-139065000D01*
X245110000Y-137160000D02*
X243840000Y-138430000D01*
X252095000Y-137160000D02*
X245110000Y-137160000D01*
D26*
X212090000Y-128905000D02*
X211455000Y-128270000D01*
D25*
X141605000Y-138430000D02*
X140335000Y-139700000D01*
X102235000Y-131724398D02*
X99695000Y-129184398D01*
X102235000Y-139065000D02*
X102235000Y-131724398D01*
X103505000Y-140335000D02*
X102235000Y-139065000D01*
X125730000Y-140335000D02*
X103505000Y-140335000D01*
X126365000Y-139700000D02*
X125730000Y-140335000D01*
X140335000Y-139700000D02*
X126365000Y-139700000D01*
X99695000Y-129184398D02*
X99695000Y-128270000D01*
X250825000Y-138430000D02*
X249555000Y-139700000D01*
X211455000Y-131724398D02*
X208915000Y-129184398D01*
X211455000Y-139065000D02*
X211455000Y-131724398D01*
X212725000Y-140335000D02*
X211455000Y-139065000D01*
X234950000Y-140335000D02*
X212725000Y-140335000D01*
X235585000Y-139700000D02*
X234950000Y-140335000D01*
X249555000Y-139700000D02*
X235585000Y-139700000D01*
X208915000Y-129184398D02*
X208915000Y-128270000D01*
D26*
X125095000Y-130810000D02*
X125095000Y-133350000D01*
X234315000Y-130810000D02*
X234315000Y-133350000D01*
X122555000Y-133350000D02*
X122555000Y-130810000D01*
X231775000Y-133350000D02*
X231775000Y-130810000D01*
X120015000Y-130810000D02*
X120015000Y-133350000D01*
X229235000Y-130810000D02*
X229235000Y-133350000D01*
X117475000Y-133350000D02*
X117475000Y-130810000D01*
X226695000Y-133350000D02*
X226695000Y-130810000D01*
X114935000Y-130810000D02*
X114935000Y-133350000D01*
X224155000Y-130810000D02*
X224155000Y-133350000D01*
X112395000Y-133350000D02*
X112395000Y-130810000D01*
X221615000Y-133350000D02*
X221615000Y-130810000D01*
X109855000Y-130810000D02*
X109855000Y-133350000D01*
X219075000Y-130810000D02*
X219075000Y-133350000D01*
X107315000Y-133350000D02*
X107315000Y-130810000D01*
X216535000Y-133350000D02*
X216535000Y-130810000D01*
X104775000Y-130810000D02*
X104775000Y-133350000D01*
X213995000Y-130810000D02*
X213995000Y-133350000D01*
X136525000Y-128270000D02*
X139065000Y-130810000D01*
X245745000Y-128270000D02*
X248285000Y-130810000D01*
X139065000Y-128270000D02*
X141605000Y-130810000D01*
X248285000Y-128270000D02*
X250825000Y-130810000D01*
X141605000Y-128270000D02*
X144145000Y-130810000D01*
X250825000Y-128270000D02*
X253365000Y-130810000D01*
X144145000Y-128270000D02*
X146685000Y-130810000D01*
X253365000Y-128270000D02*
X255905000Y-130810000D01*
X146685000Y-128270000D02*
X149225000Y-130810000D01*
X255905000Y-128270000D02*
X258445000Y-130810000D01*
X149225000Y-128270000D02*
X151765000Y-130810000D01*
X258445000Y-128270000D02*
X260985000Y-130810000D01*
X151765000Y-128270000D02*
X154305000Y-130810000D01*
X260985000Y-128270000D02*
X263525000Y-130810000D01*
X177800000Y-107315000D02*
X177800000Y-108790000D01*
X177800000Y-99060000D02*
X177800000Y-107315000D01*
X177800000Y-170815000D02*
X177800000Y-172290000D01*
X177800000Y-162560000D02*
X177800000Y-170815000D01*
X109855000Y-106680000D02*
X108267500Y-106680000D01*
X107632500Y-107315000D02*
X107632500Y-108790000D01*
X108267500Y-106680000D02*
X107632500Y-107315000D01*
X144780000Y-106680000D02*
X143827500Y-107632500D01*
X143827500Y-107632500D02*
X143827500Y-108790000D01*
X251460000Y-106680000D02*
X251777500Y-106680000D01*
X252412500Y-107315000D02*
X252412500Y-108790000D01*
X251777500Y-106680000D02*
X252412500Y-107315000D01*
X215900000Y-108790000D02*
X215900000Y-106680000D01*
X180340000Y-106680000D02*
X180340000Y-108790000D01*
X180340000Y-99060000D02*
X180340000Y-106680000D01*
X109855000Y-170180000D02*
X108267500Y-170180000D01*
X107632500Y-170815000D02*
X107632500Y-172290000D01*
X108267500Y-170180000D02*
X107632500Y-170815000D01*
X144780000Y-170180000D02*
X143827500Y-171132500D01*
X143827500Y-171132500D02*
X143827500Y-172290000D01*
X251460000Y-170180000D02*
X251777500Y-170180000D01*
X252412500Y-170815000D02*
X252412500Y-172290000D01*
X251777500Y-170180000D02*
X252412500Y-170815000D01*
X215900000Y-172290000D02*
X215900000Y-170180000D01*
X180340000Y-170180000D02*
X180340000Y-172290000D01*
X180340000Y-162560000D02*
X180340000Y-170180000D01*
X112395000Y-106045000D02*
X111442500Y-106045000D01*
X110172500Y-107315000D02*
X110172500Y-108790000D01*
X111442500Y-106045000D02*
X110172500Y-107315000D01*
X147320000Y-106045000D02*
X146367500Y-106997500D01*
X146367500Y-106997500D02*
X146367500Y-108790000D01*
X254000000Y-106045000D02*
X254317500Y-106045000D01*
X254952500Y-106680000D02*
X254952500Y-108790000D01*
X254317500Y-106045000D02*
X254952500Y-106680000D01*
X218440000Y-108790000D02*
X218440000Y-106045000D01*
X182880000Y-106045000D02*
X182880000Y-108790000D01*
X182880000Y-99060000D02*
X182880000Y-106045000D01*
X112395000Y-169545000D02*
X111442500Y-169545000D01*
X110172500Y-170815000D02*
X110172500Y-172290000D01*
X111442500Y-169545000D02*
X110172500Y-170815000D01*
X147320000Y-169545000D02*
X146367500Y-170497500D01*
X146367500Y-170497500D02*
X146367500Y-172290000D01*
X254000000Y-169545000D02*
X254317500Y-169545000D01*
X254952500Y-170180000D02*
X254952500Y-172290000D01*
X254317500Y-169545000D02*
X254952500Y-170180000D01*
X218440000Y-172290000D02*
X218440000Y-169545000D01*
X182880000Y-169545000D02*
X182880000Y-172290000D01*
X182880000Y-162560000D02*
X182880000Y-169545000D01*
X114935000Y-105410000D02*
X113982500Y-105410000D01*
X112712500Y-106680000D02*
X112712500Y-108790000D01*
X113982500Y-105410000D02*
X112712500Y-106680000D01*
X149860000Y-105410000D02*
X148907500Y-106362500D01*
X148907500Y-106362500D02*
X148907500Y-108790000D01*
X256540000Y-105410000D02*
X257492500Y-106362500D01*
X257492500Y-106362500D02*
X257492500Y-108790000D01*
X220980000Y-108790000D02*
X220980000Y-105410000D01*
X185420000Y-105410000D02*
X185420000Y-108790000D01*
X185420000Y-99060000D02*
X185420000Y-105410000D01*
X114935000Y-168910000D02*
X113982500Y-168910000D01*
X112712500Y-170180000D02*
X112712500Y-172290000D01*
X113982500Y-168910000D02*
X112712500Y-170180000D01*
X149860000Y-168910000D02*
X148907500Y-169862500D01*
X148907500Y-169862500D02*
X148907500Y-172290000D01*
X256540000Y-168910000D02*
X257492500Y-169862500D01*
X257492500Y-169862500D02*
X257492500Y-172290000D01*
X220980000Y-172290000D02*
X220980000Y-168910000D01*
X185420000Y-168910000D02*
X185420000Y-172290000D01*
X185420000Y-162560000D02*
X185420000Y-168910000D01*
X117475000Y-104775000D02*
X116840000Y-104775000D01*
X115252500Y-106362500D02*
X115252500Y-108790000D01*
X116840000Y-104775000D02*
X115252500Y-106362500D01*
X152400000Y-104775000D02*
X151447500Y-105727500D01*
X151447500Y-105727500D02*
X151447500Y-108790000D01*
X259080000Y-104775000D02*
X260032500Y-105727500D01*
X260032500Y-105727500D02*
X260032500Y-108790000D01*
X223520000Y-108790000D02*
X223520000Y-104775000D01*
X187960000Y-104775000D02*
X187960000Y-108790000D01*
X187960000Y-99060000D02*
X187960000Y-104775000D01*
X117475000Y-168275000D02*
X116840000Y-168275000D01*
X115252500Y-169862500D02*
X115252500Y-172290000D01*
X116840000Y-168275000D02*
X115252500Y-169862500D01*
X152400000Y-168275000D02*
X151447500Y-169227500D01*
X151447500Y-169227500D02*
X151447500Y-172290000D01*
X259080000Y-168275000D02*
X260032500Y-169227500D01*
X260032500Y-169227500D02*
X260032500Y-172290000D01*
X223520000Y-172290000D02*
X223520000Y-168275000D01*
X187960000Y-168275000D02*
X187960000Y-172290000D01*
X187960000Y-162560000D02*
X187960000Y-168275000D01*
X120015000Y-104140000D02*
X119380000Y-104140000D01*
X117792500Y-105727500D02*
X117792500Y-108790000D01*
X119380000Y-104140000D02*
X117792500Y-105727500D01*
X154940000Y-104140000D02*
X153987500Y-105092500D01*
X153987500Y-105092500D02*
X153987500Y-108790000D01*
X261620000Y-104140000D02*
X262572500Y-105092500D01*
X262572500Y-105092500D02*
X262572500Y-108790000D01*
X226060000Y-108790000D02*
X226060000Y-104140000D01*
X190500000Y-104140000D02*
X190500000Y-108790000D01*
X190500000Y-99060000D02*
X190500000Y-104140000D01*
X120015000Y-167640000D02*
X119380000Y-167640000D01*
X117792500Y-169227500D02*
X117792500Y-172290000D01*
X119380000Y-167640000D02*
X117792500Y-169227500D01*
X154940000Y-167640000D02*
X153987500Y-168592500D01*
X153987500Y-168592500D02*
X153987500Y-172290000D01*
X261620000Y-167640000D02*
X262572500Y-168592500D01*
X262572500Y-168592500D02*
X262572500Y-172290000D01*
X226060000Y-172290000D02*
X226060000Y-167640000D01*
X190500000Y-167640000D02*
X190500000Y-172290000D01*
X190500000Y-162560000D02*
X190500000Y-167640000D01*
X122555000Y-103505000D02*
X121920000Y-103505000D01*
X120332500Y-105092500D02*
X120332500Y-108790000D01*
X121920000Y-103505000D02*
X120332500Y-105092500D01*
X157480000Y-103505000D02*
X156527500Y-104457500D01*
X156527500Y-104457500D02*
X156527500Y-108790000D01*
X264160000Y-103505000D02*
X265112500Y-104457500D01*
X265112500Y-104457500D02*
X265112500Y-108790000D01*
X228600000Y-108790000D02*
X228600000Y-103505000D01*
X193040000Y-103505000D02*
X193040000Y-108790000D01*
X193040000Y-99060000D02*
X193040000Y-103505000D01*
X122555000Y-167005000D02*
X121920000Y-167005000D01*
X120332500Y-168592500D02*
X120332500Y-172290000D01*
X121920000Y-167005000D02*
X120332500Y-168592500D01*
X157480000Y-167005000D02*
X156527500Y-167957500D01*
X156527500Y-167957500D02*
X156527500Y-172290000D01*
X264160000Y-167005000D02*
X265112500Y-167957500D01*
X265112500Y-167957500D02*
X265112500Y-172290000D01*
X228600000Y-172290000D02*
X228600000Y-167005000D01*
X193040000Y-167005000D02*
X193040000Y-172290000D01*
X193040000Y-162560000D02*
X193040000Y-167005000D01*
X125095000Y-102870000D02*
X124460000Y-102870000D01*
X122872500Y-104457500D02*
X122872500Y-108790000D01*
X124460000Y-102870000D02*
X122872500Y-104457500D01*
X160020000Y-102870000D02*
X159067500Y-103822500D01*
X159067500Y-103822500D02*
X159067500Y-108790000D01*
X266700000Y-102870000D02*
X267652500Y-103822500D01*
X267652500Y-103822500D02*
X267652500Y-108790000D01*
X231140000Y-108790000D02*
X231140000Y-102870000D01*
X195580000Y-102870000D02*
X195580000Y-108790000D01*
X195580000Y-99060000D02*
X195580000Y-102870000D01*
X125095000Y-166370000D02*
X124460000Y-166370000D01*
X122872500Y-167957500D02*
X122872500Y-172290000D01*
X124460000Y-166370000D02*
X122872500Y-167957500D01*
X160020000Y-166370000D02*
X159067500Y-167322500D01*
X159067500Y-167322500D02*
X159067500Y-172290000D01*
X266700000Y-166370000D02*
X267652500Y-167322500D01*
X267652500Y-167322500D02*
X267652500Y-172290000D01*
X231140000Y-172290000D02*
X231140000Y-166370000D01*
X195580000Y-166370000D02*
X195580000Y-172290000D01*
X195580000Y-162560000D02*
X195580000Y-166370000D01*
X127635000Y-102235000D02*
X127000000Y-102235000D01*
X125412500Y-103822500D02*
X125412500Y-108790000D01*
X127000000Y-102235000D02*
X125412500Y-103822500D01*
X162560000Y-102235000D02*
X161607500Y-103187500D01*
X161607500Y-103187500D02*
X161607500Y-108790000D01*
X269240000Y-102235000D02*
X270192500Y-103187500D01*
X270192500Y-103187500D02*
X270192500Y-108790000D01*
X233680000Y-108790000D02*
X233680000Y-102235000D01*
X198120000Y-99060000D02*
X198120000Y-102235000D01*
X198120000Y-102235000D02*
X198120000Y-108790000D01*
X127635000Y-165735000D02*
X127000000Y-165735000D01*
X125412500Y-167322500D02*
X125412500Y-172290000D01*
X127000000Y-165735000D02*
X125412500Y-167322500D01*
X162560000Y-165735000D02*
X161607500Y-166687500D01*
X161607500Y-166687500D02*
X161607500Y-172290000D01*
X269240000Y-165735000D02*
X270192500Y-166687500D01*
X270192500Y-166687500D02*
X270192500Y-172290000D01*
X233680000Y-172290000D02*
X233680000Y-165735000D01*
X198120000Y-162560000D02*
X198120000Y-165735000D01*
X198120000Y-165735000D02*
X198120000Y-172290000D01*
X142240000Y-88265000D02*
X142240000Y-87742500D01*
X142240000Y-87742500D02*
X141287500Y-86790000D01*
X248920000Y-88265000D02*
X248920000Y-87742500D01*
X248920000Y-87742500D02*
X249872500Y-86790000D01*
X213360000Y-86790000D02*
X213360000Y-88265000D01*
X177800000Y-88265000D02*
X177800000Y-86790000D01*
X177800000Y-96520000D02*
X177800000Y-88265000D01*
X142240000Y-151765000D02*
X142240000Y-151242500D01*
X142240000Y-151242500D02*
X141287500Y-150290000D01*
X248920000Y-151765000D02*
X248920000Y-151242500D01*
X248920000Y-151242500D02*
X249872500Y-150290000D01*
X213360000Y-150290000D02*
X213360000Y-151765000D01*
X177800000Y-151765000D02*
X177800000Y-150290000D01*
X177800000Y-160020000D02*
X177800000Y-151765000D01*
X109855000Y-88900000D02*
X109742500Y-88900000D01*
X109742500Y-88900000D02*
X107632500Y-86790000D01*
X144780000Y-88900000D02*
X144780000Y-87742500D01*
X144780000Y-87742500D02*
X143827500Y-86790000D01*
X251460000Y-88900000D02*
X251460000Y-87742500D01*
X251460000Y-87742500D02*
X252412500Y-86790000D01*
X215900000Y-86790000D02*
X215900000Y-88900000D01*
X180340000Y-88900000D02*
X180340000Y-86790000D01*
X180340000Y-96520000D02*
X180340000Y-88900000D01*
X109855000Y-152400000D02*
X109742500Y-152400000D01*
X109742500Y-152400000D02*
X107632500Y-150290000D01*
X144780000Y-152400000D02*
X144780000Y-151242500D01*
X144780000Y-151242500D02*
X143827500Y-150290000D01*
X251460000Y-152400000D02*
X251460000Y-151242500D01*
X251460000Y-151242500D02*
X252412500Y-150290000D01*
X215900000Y-150290000D02*
X215900000Y-152400000D01*
X180340000Y-152400000D02*
X180340000Y-150290000D01*
X180340000Y-160020000D02*
X180340000Y-152400000D01*
X112395000Y-89535000D02*
X111760000Y-89535000D01*
X110172500Y-87947500D02*
X110172500Y-86790000D01*
X111760000Y-89535000D02*
X110172500Y-87947500D01*
X147320000Y-89535000D02*
X147320000Y-87742500D01*
X147320000Y-87742500D02*
X146367500Y-86790000D01*
X254000000Y-89535000D02*
X254000000Y-87742500D01*
X254000000Y-87742500D02*
X254952500Y-86790000D01*
X218440000Y-86790000D02*
X218440000Y-89535000D01*
X182880000Y-89535000D02*
X182880000Y-86790000D01*
X182880000Y-96520000D02*
X182880000Y-89535000D01*
X112395000Y-153035000D02*
X111760000Y-153035000D01*
X110172500Y-151447500D02*
X110172500Y-150290000D01*
X111760000Y-153035000D02*
X110172500Y-151447500D01*
X147320000Y-153035000D02*
X147320000Y-151242500D01*
X147320000Y-151242500D02*
X146367500Y-150290000D01*
X254000000Y-153035000D02*
X254000000Y-151242500D01*
X254000000Y-151242500D02*
X254952500Y-150290000D01*
X218440000Y-150290000D02*
X218440000Y-153035000D01*
X182880000Y-153035000D02*
X182880000Y-150290000D01*
X182880000Y-160020000D02*
X182880000Y-153035000D01*
X114935000Y-90170000D02*
X114300000Y-90170000D01*
X112712500Y-88582500D02*
X112712500Y-86790000D01*
X114300000Y-90170000D02*
X112712500Y-88582500D01*
X149860000Y-90170000D02*
X149860000Y-87742500D01*
X149860000Y-87742500D02*
X148907500Y-86790000D01*
X256540000Y-90170000D02*
X256540000Y-87742500D01*
X256540000Y-87742500D02*
X257492500Y-86790000D01*
X220980000Y-86790000D02*
X220980000Y-90170000D01*
X185420000Y-90170000D02*
X185420000Y-86790000D01*
X185420000Y-96520000D02*
X185420000Y-90170000D01*
X114935000Y-153670000D02*
X114300000Y-153670000D01*
X112712500Y-152082500D02*
X112712500Y-150290000D01*
X114300000Y-153670000D02*
X112712500Y-152082500D01*
X149860000Y-153670000D02*
X149860000Y-151242500D01*
X149860000Y-151242500D02*
X148907500Y-150290000D01*
X256540000Y-153670000D02*
X256540000Y-151242500D01*
X256540000Y-151242500D02*
X257492500Y-150290000D01*
X220980000Y-150290000D02*
X220980000Y-153670000D01*
X185420000Y-153670000D02*
X185420000Y-150290000D01*
X185420000Y-160020000D02*
X185420000Y-153670000D01*
X122555000Y-90805000D02*
X121285000Y-90805000D01*
X120332500Y-89852500D02*
X120332500Y-86790000D01*
X121285000Y-90805000D02*
X120332500Y-89852500D01*
X157480000Y-90805000D02*
X157162500Y-90805000D01*
X156527500Y-90170000D02*
X156527500Y-86790000D01*
X157162500Y-90805000D02*
X156527500Y-90170000D01*
X264160000Y-90805000D02*
X264160000Y-87742500D01*
X264160000Y-87742500D02*
X265112500Y-86790000D01*
X228600000Y-86790000D02*
X228600000Y-90805000D01*
X193040000Y-90805000D02*
X193040000Y-86790000D01*
X193040000Y-96520000D02*
X193040000Y-90805000D01*
X122555000Y-154305000D02*
X121285000Y-154305000D01*
X120332500Y-153352500D02*
X120332500Y-150290000D01*
X121285000Y-154305000D02*
X120332500Y-153352500D01*
X157480000Y-154305000D02*
X157162500Y-154305000D01*
X156527500Y-153670000D02*
X156527500Y-150290000D01*
X157162500Y-154305000D02*
X156527500Y-153670000D01*
X264160000Y-154305000D02*
X264160000Y-151242500D01*
X264160000Y-151242500D02*
X265112500Y-150290000D01*
X228600000Y-150290000D02*
X228600000Y-154305000D01*
X193040000Y-154305000D02*
X193040000Y-150290000D01*
X193040000Y-160020000D02*
X193040000Y-154305000D01*
X125095000Y-91440000D02*
X124460000Y-91440000D01*
X122872500Y-89852500D02*
X122872500Y-86790000D01*
X124460000Y-91440000D02*
X122872500Y-89852500D01*
X160655000Y-90805000D02*
X159702500Y-90805000D01*
X160655000Y-90805000D02*
X174625000Y-90805000D01*
X175260000Y-91440000D02*
X174625000Y-90805000D01*
X159067500Y-90170000D02*
X159067500Y-86790000D01*
X159702500Y-90805000D02*
X159067500Y-90170000D01*
X266700000Y-91440000D02*
X266700000Y-87742500D01*
X266700000Y-87742500D02*
X267652500Y-86790000D01*
X231140000Y-86790000D02*
X231140000Y-91440000D01*
X195580000Y-91440000D02*
X195580000Y-86790000D01*
X195580000Y-96520000D02*
X195580000Y-91440000D01*
X125095000Y-154940000D02*
X124460000Y-154940000D01*
X122872500Y-153352500D02*
X122872500Y-150290000D01*
X124460000Y-154940000D02*
X122872500Y-153352500D01*
X160655000Y-154305000D02*
X159702500Y-154305000D01*
X160655000Y-154305000D02*
X174625000Y-154305000D01*
X175260000Y-154940000D02*
X174625000Y-154305000D01*
X159067500Y-153670000D02*
X159067500Y-150290000D01*
X159702500Y-154305000D02*
X159067500Y-153670000D01*
X266700000Y-154940000D02*
X266700000Y-151242500D01*
X266700000Y-151242500D02*
X267652500Y-150290000D01*
X231140000Y-150290000D02*
X231140000Y-154940000D01*
X195580000Y-154940000D02*
X195580000Y-150290000D01*
X195580000Y-160020000D02*
X195580000Y-154940000D01*
X127635000Y-92075000D02*
X127000000Y-92075000D01*
X125412500Y-90487500D02*
X125412500Y-86790000D01*
X127000000Y-92075000D02*
X125412500Y-90487500D01*
X163195000Y-90170000D02*
X162242500Y-90170000D01*
X163195000Y-90170000D02*
X175895000Y-90170000D01*
X175895000Y-90170000D02*
X176530000Y-90805000D01*
X176530000Y-92075000D02*
X176530000Y-90805000D01*
X161607500Y-89535000D02*
X161607500Y-86790000D01*
X162242500Y-90170000D02*
X161607500Y-89535000D01*
X269240000Y-92075000D02*
X269240000Y-87742500D01*
X269240000Y-87742500D02*
X270192500Y-86790000D01*
X233680000Y-86790000D02*
X233680000Y-92075000D01*
X198120000Y-92075000D02*
X198120000Y-86790000D01*
X198120000Y-96520000D02*
X198120000Y-92075000D01*
X127635000Y-155575000D02*
X127000000Y-155575000D01*
X125412500Y-153987500D02*
X125412500Y-150290000D01*
X127000000Y-155575000D02*
X125412500Y-153987500D01*
X163195000Y-153670000D02*
X162242500Y-153670000D01*
X163195000Y-153670000D02*
X175895000Y-153670000D01*
X175895000Y-153670000D02*
X176530000Y-154305000D01*
X176530000Y-155575000D02*
X176530000Y-154305000D01*
X161607500Y-153035000D02*
X161607500Y-150290000D01*
X162242500Y-153670000D02*
X161607500Y-153035000D01*
X269240000Y-155575000D02*
X269240000Y-151242500D01*
X269240000Y-151242500D02*
X270192500Y-150290000D01*
X233680000Y-150290000D02*
X233680000Y-155575000D01*
X198120000Y-155575000D02*
X198120000Y-150290000D01*
X198120000Y-160020000D02*
X198120000Y-155575000D01*
D25*
X120015000Y-92710000D02*
X118745000Y-92710000D01*
X172085000Y-92710000D02*
X120015000Y-92710000D01*
X172720000Y-93345000D02*
X172085000Y-92710000D01*
X172720000Y-96520000D02*
X172720000Y-93345000D01*
X117792500Y-91757500D02*
X117792500Y-86790000D01*
X118745000Y-92710000D02*
X117792500Y-91757500D01*
X117792500Y-86790000D02*
X115252500Y-86790000D01*
X120015000Y-156210000D02*
X118745000Y-156210000D01*
X172085000Y-156210000D02*
X120015000Y-156210000D01*
X172720000Y-156845000D02*
X172085000Y-156210000D01*
X172720000Y-160020000D02*
X172720000Y-156845000D01*
X117792500Y-155257500D02*
X117792500Y-150290000D01*
X118745000Y-156210000D02*
X117792500Y-155257500D01*
X117792500Y-150290000D02*
X115252500Y-150290000D01*
X153987500Y-86790000D02*
X151447500Y-86790000D01*
X155575000Y-91440000D02*
X154305000Y-91440000D01*
X173990000Y-91440000D02*
X155575000Y-91440000D01*
X175260000Y-92710000D02*
X173990000Y-91440000D01*
X175260000Y-96520000D02*
X175260000Y-92710000D01*
X153987500Y-91122500D02*
X153987500Y-86790000D01*
X154305000Y-91440000D02*
X153987500Y-91122500D01*
X153987500Y-150290000D02*
X151447500Y-150290000D01*
X155575000Y-154940000D02*
X154305000Y-154940000D01*
X173990000Y-154940000D02*
X155575000Y-154940000D01*
X175260000Y-156210000D02*
X173990000Y-154940000D01*
X175260000Y-160020000D02*
X175260000Y-156210000D01*
X153987500Y-154622500D02*
X153987500Y-150290000D01*
X154305000Y-154940000D02*
X153987500Y-154622500D01*
X187960000Y-96520000D02*
X187960000Y-86790000D01*
D26*
X187960000Y-86790000D02*
X190500000Y-86790000D01*
D25*
X187960000Y-160020000D02*
X187960000Y-150290000D01*
D26*
X187960000Y-150290000D02*
X190500000Y-150290000D01*
D25*
X222885000Y-92710000D02*
X223520000Y-92075000D01*
X223520000Y-92075000D02*
X223520000Y-86790000D01*
D26*
X223520000Y-86790000D02*
X226060000Y-86790000D01*
D25*
X222885000Y-156210000D02*
X223520000Y-155575000D01*
X223520000Y-155575000D02*
X223520000Y-150290000D01*
D26*
X223520000Y-150290000D02*
X226060000Y-150290000D01*
D25*
X260032500Y-86790000D02*
X262572500Y-86790000D01*
X259080000Y-92075000D02*
X259080000Y-87742500D01*
X258445000Y-92710000D02*
X259080000Y-92075000D01*
X224155000Y-92710000D02*
X258445000Y-92710000D01*
X223520000Y-93345000D02*
X224155000Y-92710000D01*
X201295000Y-93345000D02*
X223520000Y-93345000D01*
X200660000Y-93980000D02*
X201295000Y-93345000D01*
X200660000Y-96520000D02*
X200660000Y-93980000D01*
X259080000Y-87742500D02*
X260032500Y-86790000D01*
D26*
X200660000Y-96520000D02*
X200660000Y-95885000D01*
D25*
X260032500Y-150290000D02*
X262572500Y-150290000D01*
X259080000Y-155575000D02*
X259080000Y-151242500D01*
X258445000Y-156210000D02*
X259080000Y-155575000D01*
X224155000Y-156210000D02*
X258445000Y-156210000D01*
X223520000Y-156845000D02*
X224155000Y-156210000D01*
X201295000Y-156845000D02*
X223520000Y-156845000D01*
X200660000Y-157480000D02*
X201295000Y-156845000D01*
X200660000Y-160020000D02*
X200660000Y-157480000D01*
X259080000Y-151242500D02*
X260032500Y-150290000D01*
D26*
X200660000Y-160020000D02*
X200660000Y-159385000D01*
D25*
X294005000Y-92710000D02*
X295592500Y-92710000D01*
X259080000Y-92710000D02*
X294005000Y-92710000D01*
X258445000Y-93345000D02*
X259080000Y-92710000D01*
X224155000Y-93345000D02*
X258445000Y-93345000D01*
X223520000Y-93980000D02*
X224155000Y-93345000D01*
X203835000Y-93980000D02*
X223520000Y-93980000D01*
X203200000Y-94615000D02*
X203835000Y-93980000D01*
X203200000Y-96520000D02*
X203200000Y-94615000D01*
X296227500Y-92075000D02*
X296227500Y-86790000D01*
X295592500Y-92710000D02*
X296227500Y-92075000D01*
X296227500Y-86790000D02*
X298767500Y-86790000D01*
X294005000Y-156210000D02*
X295592500Y-156210000D01*
X259080000Y-156210000D02*
X294005000Y-156210000D01*
X258445000Y-156845000D02*
X259080000Y-156210000D01*
X224155000Y-156845000D02*
X258445000Y-156845000D01*
X223520000Y-157480000D02*
X224155000Y-156845000D01*
X203835000Y-157480000D02*
X223520000Y-157480000D01*
X203200000Y-158115000D02*
X203835000Y-157480000D01*
X203200000Y-160020000D02*
X203200000Y-158115000D01*
X296227500Y-155575000D02*
X296227500Y-150290000D01*
X295592500Y-156210000D02*
X296227500Y-155575000D01*
X296227500Y-150290000D02*
X298767500Y-150290000D01*
G36*
X100260143Y-117809069D02*
X99695000Y-117696655D01*
X99063190Y-117822330D01*
X98527567Y-118180222D01*
X98169675Y-118715845D01*
X98044000Y-119347655D01*
X98044000Y-119412345D01*
X98169675Y-120044155D01*
X98372004Y-120346962D01*
X98227559Y-120439910D01*
X98082569Y-120652110D01*
X98031560Y-120904000D01*
X98031560Y-122936000D01*
X98075838Y-123171317D01*
X98214910Y-123387441D01*
X98396361Y-123511421D01*
X98344268Y-123557964D01*
X98090291Y-124085209D01*
X98087642Y-124100974D01*
X98208783Y-124333000D01*
X99568000Y-124333000D01*
X99568000Y-124313000D01*
X99822000Y-124313000D01*
X99822000Y-124333000D01*
X101181217Y-124333000D01*
X101302358Y-124100974D01*
X101299709Y-124085209D01*
X101045732Y-123557964D01*
X100991876Y-123509846D01*
X101162441Y-123400090D01*
X101307431Y-123187890D01*
X101358440Y-122936000D01*
X101358440Y-120904000D01*
X101314162Y-120668683D01*
X101175090Y-120452559D01*
X101018794Y-120345767D01*
X101220325Y-120044155D01*
X101346000Y-119412345D01*
X101346000Y-119347655D01*
X101244319Y-118836469D01*
X101894588Y-118186200D01*
X185125412Y-118186200D01*
X185978800Y-119039589D01*
X185978800Y-119404398D01*
X185675302Y-119607189D01*
X185420000Y-119989275D01*
X185164698Y-119607189D01*
X184699151Y-119296120D01*
X184150000Y-119186887D01*
X183600849Y-119296120D01*
X183135302Y-119607189D01*
X182880000Y-119989275D01*
X182624698Y-119607189D01*
X182159151Y-119296120D01*
X181610000Y-119186887D01*
X181060849Y-119296120D01*
X180595302Y-119607189D01*
X180340000Y-119989275D01*
X180084698Y-119607189D01*
X179619151Y-119296120D01*
X179070000Y-119186887D01*
X178520849Y-119296120D01*
X178055302Y-119607189D01*
X177785014Y-120011703D01*
X177682389Y-119794866D01*
X177267423Y-119418959D01*
X176879039Y-119258096D01*
X176657000Y-119380085D01*
X176657000Y-120523000D01*
X176677000Y-120523000D01*
X176677000Y-120777000D01*
X176657000Y-120777000D01*
X176657000Y-120797000D01*
X176403000Y-120797000D01*
X176403000Y-120777000D01*
X176383000Y-120777000D01*
X176383000Y-120523000D01*
X176403000Y-120523000D01*
X176403000Y-119380085D01*
X176180961Y-119258096D01*
X175792577Y-119418959D01*
X175377611Y-119794866D01*
X175274986Y-120011703D01*
X175004698Y-119607189D01*
X174539151Y-119296120D01*
X173990000Y-119186887D01*
X173440849Y-119296120D01*
X172975302Y-119607189D01*
X172720000Y-119989275D01*
X172464698Y-119607189D01*
X171999151Y-119296120D01*
X171450000Y-119186887D01*
X170900849Y-119296120D01*
X170435302Y-119607189D01*
X170180000Y-119989275D01*
X169924698Y-119607189D01*
X169459151Y-119296120D01*
X168910000Y-119186887D01*
X168360849Y-119296120D01*
X167895302Y-119607189D01*
X167640000Y-119989275D01*
X167384698Y-119607189D01*
X166919151Y-119296120D01*
X166370000Y-119186887D01*
X165820849Y-119296120D01*
X165355302Y-119607189D01*
X165100000Y-119989275D01*
X164844698Y-119607189D01*
X164379151Y-119296120D01*
X163830000Y-119186887D01*
X163280849Y-119296120D01*
X162815302Y-119607189D01*
X162560000Y-119989275D01*
X162304698Y-119607189D01*
X161839151Y-119296120D01*
X161290000Y-119186887D01*
X160740849Y-119296120D01*
X160275302Y-119607189D01*
X160020000Y-119989275D01*
X159764698Y-119607189D01*
X159299151Y-119296120D01*
X158750000Y-119186887D01*
X158200849Y-119296120D01*
X157735302Y-119607189D01*
X157513726Y-119938800D01*
X156845000Y-119938800D01*
X156617990Y-119983955D01*
X156572835Y-119992937D01*
X156342105Y-120147106D01*
X155752440Y-120736771D01*
X155752440Y-119850000D01*
X155708162Y-119614683D01*
X155569090Y-119398559D01*
X155356890Y-119253569D01*
X155105000Y-119202560D01*
X153505000Y-119202560D01*
X153269683Y-119246838D01*
X153053559Y-119385910D01*
X152908569Y-119598110D01*
X152877185Y-119753089D01*
X152779698Y-119607189D01*
X152314151Y-119296120D01*
X151765000Y-119186887D01*
X151215849Y-119296120D01*
X150750302Y-119607189D01*
X150495000Y-119989275D01*
X150239698Y-119607189D01*
X149774151Y-119296120D01*
X149225000Y-119186887D01*
X148675849Y-119296120D01*
X148210302Y-119607189D01*
X147955000Y-119989275D01*
X147699698Y-119607189D01*
X147234151Y-119296120D01*
X146685000Y-119186887D01*
X146135849Y-119296120D01*
X145670302Y-119607189D01*
X145415000Y-119989275D01*
X145159698Y-119607189D01*
X144694151Y-119296120D01*
X144145000Y-119186887D01*
X143595849Y-119296120D01*
X143130302Y-119607189D01*
X142860014Y-120011703D01*
X142757389Y-119794866D01*
X142342423Y-119418959D01*
X141954039Y-119258096D01*
X141732000Y-119380085D01*
X141732000Y-120523000D01*
X141752000Y-120523000D01*
X141752000Y-120777000D01*
X141732000Y-120777000D01*
X141732000Y-120797000D01*
X141478000Y-120797000D01*
X141478000Y-120777000D01*
X141458000Y-120777000D01*
X141458000Y-120523000D01*
X141478000Y-120523000D01*
X141478000Y-119380085D01*
X141255961Y-119258096D01*
X140867577Y-119418959D01*
X140452611Y-119794866D01*
X140349986Y-120011703D01*
X140079698Y-119607189D01*
X139614151Y-119296120D01*
X139065000Y-119186887D01*
X138515849Y-119296120D01*
X138050302Y-119607189D01*
X137795000Y-119989275D01*
X137539698Y-119607189D01*
X137074151Y-119296120D01*
X136525000Y-119186887D01*
X135975849Y-119296120D01*
X135510302Y-119607189D01*
X135199233Y-120072736D01*
X135099565Y-120573800D01*
X127294589Y-120573800D01*
X127076200Y-120355412D01*
X127076200Y-120015000D01*
X127022063Y-119742836D01*
X126961478Y-119652164D01*
X126867895Y-119512106D01*
X126232894Y-118877106D01*
X126002165Y-118722937D01*
X125730000Y-118668800D01*
X120650000Y-118668800D01*
X120377836Y-118722937D01*
X120147106Y-118877105D01*
X119771425Y-119252787D01*
X119738339Y-119252758D01*
X119224697Y-119464990D01*
X118831371Y-119857630D01*
X118745051Y-120065512D01*
X118660010Y-119859697D01*
X118267370Y-119466371D01*
X117754100Y-119253243D01*
X117198339Y-119252758D01*
X116684697Y-119464990D01*
X116291371Y-119857630D01*
X116142336Y-120216548D01*
X116072894Y-120147106D01*
X115842165Y-119992937D01*
X115570000Y-119938800D01*
X111072695Y-119938800D01*
X111040010Y-119859697D01*
X110647370Y-119466371D01*
X110134100Y-119253243D01*
X109578339Y-119252758D01*
X109064697Y-119464990D01*
X108671371Y-119857630D01*
X108585051Y-120065512D01*
X108500010Y-119859697D01*
X108107370Y-119466371D01*
X107594100Y-119253243D01*
X107038339Y-119252758D01*
X106524697Y-119464990D01*
X106131371Y-119857630D01*
X106045051Y-120065512D01*
X105960010Y-119859697D01*
X105567370Y-119466371D01*
X105054100Y-119253243D01*
X104498339Y-119252758D01*
X103984697Y-119464990D01*
X103591371Y-119857630D01*
X103378243Y-120370900D01*
X103377758Y-120926661D01*
X103589990Y-121440303D01*
X103982630Y-121833629D01*
X104495900Y-122046757D01*
X105051661Y-122047242D01*
X105565303Y-121835010D01*
X105577273Y-121823061D01*
X106812106Y-123057894D01*
X107042835Y-123212063D01*
X107315000Y-123266200D01*
X115275412Y-123266200D01*
X116337105Y-124327894D01*
X116567835Y-124482063D01*
X116612990Y-124491045D01*
X116749526Y-124518203D01*
X116684697Y-124544990D01*
X116291371Y-124937630D01*
X116078243Y-125450900D01*
X116077758Y-126006661D01*
X116204671Y-126313814D01*
X116174184Y-126334185D01*
X115687817Y-126820552D01*
X115508489Y-126700729D01*
X114935000Y-126586655D01*
X114361511Y-126700729D01*
X113875330Y-127025585D01*
X113665000Y-127340366D01*
X113454670Y-127025585D01*
X112968489Y-126700729D01*
X112395000Y-126586655D01*
X111821511Y-126700729D01*
X111335330Y-127025585D01*
X111125000Y-127340366D01*
X110914670Y-127025585D01*
X110686955Y-126873431D01*
X111038629Y-126522370D01*
X111251757Y-126009100D01*
X111252242Y-125453339D01*
X111040010Y-124939697D01*
X110647370Y-124546371D01*
X110134100Y-124333243D01*
X109578339Y-124332758D01*
X109064697Y-124544990D01*
X108671371Y-124937630D01*
X108585051Y-125145512D01*
X108500010Y-124939697D01*
X108107370Y-124546371D01*
X107594100Y-124333243D01*
X107038339Y-124332758D01*
X106524697Y-124544990D01*
X106131371Y-124937630D01*
X106045051Y-125145512D01*
X105960010Y-124939697D01*
X105567370Y-124546371D01*
X105054100Y-124333243D01*
X104498339Y-124332758D01*
X103984697Y-124544990D01*
X103591371Y-124937630D01*
X103378243Y-125450900D01*
X103377758Y-126006661D01*
X103589990Y-126520303D01*
X103942719Y-126873648D01*
X103715330Y-127025585D01*
X103505000Y-127340366D01*
X103294670Y-127025585D01*
X102808489Y-126700729D01*
X102235000Y-126586655D01*
X101661511Y-126700729D01*
X101175330Y-127025585D01*
X100965000Y-127340366D01*
X100754670Y-127025585D01*
X100268489Y-126700729D01*
X99695000Y-126586655D01*
X99121511Y-126700729D01*
X98635330Y-127025585D01*
X98310474Y-127511766D01*
X98196400Y-128085255D01*
X98196400Y-128454745D01*
X98310474Y-129028234D01*
X98635330Y-129514415D01*
X99121511Y-129839271D01*
X99309670Y-129876698D01*
X101473000Y-132040029D01*
X101473000Y-139065000D01*
X101531004Y-139356605D01*
X101578906Y-139428295D01*
X101696185Y-139603815D01*
X102966184Y-140873815D01*
X103132918Y-140985223D01*
X103213395Y-141038996D01*
X103505000Y-141097000D01*
X125730000Y-141097000D01*
X126021605Y-141038996D01*
X126268815Y-140873815D01*
X126680631Y-140462000D01*
X140335000Y-140462000D01*
X140626605Y-140403996D01*
X140873815Y-140238815D01*
X141283473Y-139829157D01*
X141605000Y-139893113D01*
X142154151Y-139783880D01*
X142619698Y-139472811D01*
X142875000Y-139090725D01*
X143130302Y-139472811D01*
X143595849Y-139783880D01*
X144145000Y-139893113D01*
X144694151Y-139783880D01*
X145159698Y-139472811D01*
X145415000Y-139090725D01*
X145670302Y-139472811D01*
X146135849Y-139783880D01*
X146685000Y-139893113D01*
X147234151Y-139783880D01*
X147699698Y-139472811D01*
X147955000Y-139090725D01*
X148210302Y-139472811D01*
X148675849Y-139783880D01*
X149225000Y-139893113D01*
X149774151Y-139783880D01*
X150239698Y-139472811D01*
X150495000Y-139090725D01*
X150750302Y-139472811D01*
X151215849Y-139783880D01*
X151765000Y-139893113D01*
X152314151Y-139783880D01*
X152779698Y-139472811D01*
X153035000Y-139090725D01*
X153290302Y-139472811D01*
X153755849Y-139783880D01*
X154305000Y-139893113D01*
X154854151Y-139783880D01*
X155319698Y-139472811D01*
X155630767Y-139007264D01*
X155740000Y-138458113D01*
X155740000Y-138401887D01*
X155630767Y-137852736D01*
X155319698Y-137387189D01*
X154854151Y-137076120D01*
X154305000Y-136966887D01*
X153983473Y-137030843D01*
X151033815Y-134081185D01*
X150889864Y-133985000D01*
X150786605Y-133916004D01*
X150495000Y-133858000D01*
X133538630Y-133858000D01*
X133373551Y-133692921D01*
X133543663Y-133693069D01*
X133903212Y-133544507D01*
X134021726Y-133426200D01*
X142838206Y-133426200D01*
X142955341Y-133543540D01*
X143314630Y-133692730D01*
X143703663Y-133693069D01*
X144063212Y-133544507D01*
X144338540Y-133269659D01*
X144487730Y-132910370D01*
X144488069Y-132521337D01*
X144367240Y-132228907D01*
X144694151Y-132163880D01*
X145159698Y-131852811D01*
X145415000Y-131470725D01*
X145670302Y-131852811D01*
X146135849Y-132163880D01*
X146685000Y-132273113D01*
X147234151Y-132163880D01*
X147699698Y-131852811D01*
X147955000Y-131470725D01*
X148210302Y-131852811D01*
X148675849Y-132163880D01*
X149225000Y-132273113D01*
X149774151Y-132163880D01*
X150239698Y-131852811D01*
X150495000Y-131470725D01*
X150750302Y-131852811D01*
X151215849Y-132163880D01*
X151765000Y-132273113D01*
X152314151Y-132163880D01*
X152779698Y-131852811D01*
X152876101Y-131708535D01*
X152901838Y-131845317D01*
X153040910Y-132061441D01*
X153253110Y-132206431D01*
X153505000Y-132257440D01*
X155105000Y-132257440D01*
X155340317Y-132213162D01*
X155556441Y-132074090D01*
X155701431Y-131861890D01*
X155752440Y-131610000D01*
X155752440Y-130010000D01*
X155708162Y-129774683D01*
X155569090Y-129558559D01*
X155356890Y-129413569D01*
X155178796Y-129377504D01*
X155440052Y-129140840D01*
X157772075Y-131472863D01*
X157771931Y-131638663D01*
X157920493Y-131998212D01*
X158195341Y-132273540D01*
X158554630Y-132422730D01*
X158943663Y-132423069D01*
X159303212Y-132274507D01*
X159578540Y-131999659D01*
X159727730Y-131640370D01*
X159728069Y-131251337D01*
X159579507Y-130891788D01*
X159304659Y-130616460D01*
X158945370Y-130467270D01*
X158777912Y-130467124D01*
X157245304Y-128934516D01*
X157480000Y-128981200D01*
X157513726Y-128981200D01*
X157735302Y-129312811D01*
X158200849Y-129623880D01*
X158750000Y-129733113D01*
X159299151Y-129623880D01*
X159764698Y-129312811D01*
X160020000Y-128930725D01*
X160275302Y-129312811D01*
X160740849Y-129623880D01*
X161290000Y-129733113D01*
X161839151Y-129623880D01*
X162304698Y-129312811D01*
X162560000Y-128930725D01*
X162815302Y-129312811D01*
X163280849Y-129623880D01*
X163830000Y-129733113D01*
X164379151Y-129623880D01*
X164757247Y-129371244D01*
X164756931Y-129733663D01*
X164905493Y-130093212D01*
X165023800Y-130211726D01*
X165023800Y-136525000D01*
X165077937Y-136797165D01*
X165232106Y-137027894D01*
X166027075Y-137822864D01*
X166026931Y-137988663D01*
X166175493Y-138348212D01*
X166450341Y-138623540D01*
X166809630Y-138772730D01*
X167198663Y-138773069D01*
X167335331Y-138716599D01*
X167445493Y-138983212D01*
X167720341Y-139258540D01*
X168079630Y-139407730D01*
X168468663Y-139408069D01*
X168828212Y-139259507D01*
X169103540Y-138984659D01*
X169252730Y-138625370D01*
X169252876Y-138457912D01*
X170682894Y-137027894D01*
X170837063Y-136797165D01*
X170891200Y-136525000D01*
X170891200Y-133543663D01*
X179361931Y-133543663D01*
X179510493Y-133903212D01*
X179785341Y-134178540D01*
X180144630Y-134327730D01*
X180533663Y-134328069D01*
X180893212Y-134179507D01*
X180898800Y-134173929D01*
X180898800Y-134960411D01*
X180312136Y-135547075D01*
X180146337Y-135546931D01*
X179786788Y-135695493D01*
X179511460Y-135970341D01*
X179362270Y-136329630D01*
X179361931Y-136718663D01*
X179510493Y-137078212D01*
X179785341Y-137353540D01*
X180144630Y-137502730D01*
X180533663Y-137503069D01*
X180893212Y-137354507D01*
X181168540Y-137079659D01*
X181317730Y-136720370D01*
X181317876Y-136552912D01*
X181421529Y-136449259D01*
X181690341Y-136718540D01*
X182049630Y-136867730D01*
X182438663Y-136868069D01*
X182798212Y-136719507D01*
X183073540Y-136444659D01*
X183184790Y-136176739D01*
X183319630Y-136232730D01*
X183708663Y-136233069D01*
X184068212Y-136084507D01*
X184343540Y-135809659D01*
X184454790Y-135541739D01*
X184589630Y-135597730D01*
X184978663Y-135598069D01*
X185338212Y-135449507D01*
X185613540Y-135174659D01*
X185762730Y-134815370D01*
X185762876Y-134647912D01*
X187192894Y-133217894D01*
X187347063Y-132987165D01*
X187392068Y-132760911D01*
X187518540Y-132634659D01*
X187667730Y-132275370D01*
X187667834Y-132156200D01*
X188300412Y-132156200D01*
X189153800Y-133009589D01*
X189153800Y-133108960D01*
X187731400Y-133108960D01*
X187496083Y-133153238D01*
X187279959Y-133292310D01*
X187134969Y-133504510D01*
X187083960Y-133756400D01*
X187083960Y-135483600D01*
X187128238Y-135718917D01*
X187267310Y-135935041D01*
X187479510Y-136080031D01*
X187523345Y-136088908D01*
X187210474Y-136557152D01*
X187096400Y-137130641D01*
X187096400Y-137189359D01*
X187201712Y-137718800D01*
X187032967Y-137718800D01*
X187033069Y-137601337D01*
X186884507Y-137241788D01*
X186609659Y-136966460D01*
X186250370Y-136817270D01*
X185861337Y-136816931D01*
X185501788Y-136965493D01*
X185226460Y-137240341D01*
X185077270Y-137599630D01*
X185076931Y-137988663D01*
X185225493Y-138348212D01*
X185500341Y-138623540D01*
X185859630Y-138772730D01*
X186027087Y-138772876D01*
X186187106Y-138932895D01*
X186417836Y-139087063D01*
X186690000Y-139141200D01*
X187201712Y-139141200D01*
X187096400Y-139670641D01*
X187096400Y-139729359D01*
X187210474Y-140302848D01*
X187535330Y-140789029D01*
X188021511Y-141113885D01*
X188595000Y-141227959D01*
X189168489Y-141113885D01*
X189654670Y-140789029D01*
X189865000Y-140474248D01*
X190075330Y-140789029D01*
X190561511Y-141113885D01*
X191135000Y-141227959D01*
X191708489Y-141113885D01*
X192194670Y-140789029D01*
X192519526Y-140302848D01*
X192633600Y-139729359D01*
X192633600Y-139670641D01*
X192519526Y-139097152D01*
X192194670Y-138610971D01*
X191923828Y-138430000D01*
X192194670Y-138249029D01*
X192519526Y-137762848D01*
X192633600Y-137189359D01*
X192633600Y-137130641D01*
X192519526Y-136557152D01*
X192194670Y-136070971D01*
X191923839Y-135890008D01*
X192341821Y-135508490D01*
X192589968Y-134979027D01*
X192469469Y-134747000D01*
X191262000Y-134747000D01*
X191262000Y-134767000D01*
X191008000Y-134767000D01*
X191008000Y-134747000D01*
X190988000Y-134747000D01*
X190988000Y-134493000D01*
X191008000Y-134493000D01*
X191008000Y-133286183D01*
X191262000Y-133286183D01*
X191262000Y-134493000D01*
X192469469Y-134493000D01*
X192589968Y-134260973D01*
X192376882Y-133806318D01*
X192402587Y-133806318D01*
X192640669Y-134308500D01*
X193052805Y-134681346D01*
X193436580Y-134840311D01*
X193656949Y-134718180D01*
X193656949Y-133585949D01*
X193910949Y-133585949D01*
X193910949Y-134718180D01*
X194131318Y-134840311D01*
X194633500Y-134602229D01*
X195006346Y-134190093D01*
X195165311Y-133806318D01*
X195043180Y-133585949D01*
X193910949Y-133585949D01*
X193656949Y-133585949D01*
X192524718Y-133585949D01*
X192402587Y-133806318D01*
X192376882Y-133806318D01*
X192341821Y-133731510D01*
X191909947Y-133337312D01*
X191494026Y-133165042D01*
X191262000Y-133286183D01*
X191008000Y-133286183D01*
X190775974Y-133165042D01*
X190576200Y-133247786D01*
X190576200Y-133111580D01*
X192402587Y-133111580D01*
X192524718Y-133331949D01*
X193656949Y-133331949D01*
X193656949Y-133265200D01*
X193798090Y-133265200D01*
X193977698Y-133444808D01*
X194090557Y-133331949D01*
X195043180Y-133331949D01*
X195101328Y-133227029D01*
X195456766Y-133464526D01*
X196030255Y-133578600D01*
X196399745Y-133578600D01*
X196973234Y-133464526D01*
X197459415Y-133139670D01*
X197784271Y-132653489D01*
X197898345Y-132080000D01*
X197784271Y-131506511D01*
X197459415Y-131020330D01*
X197144634Y-130810000D01*
X197459415Y-130599670D01*
X197784271Y-130113489D01*
X197898345Y-129540000D01*
X197784271Y-128966511D01*
X197459415Y-128480330D01*
X197144634Y-128270000D01*
X197459415Y-128059670D01*
X197784271Y-127573489D01*
X197898345Y-127000000D01*
X197784271Y-126426511D01*
X197459415Y-125940330D01*
X197144634Y-125730000D01*
X197459415Y-125519670D01*
X197784271Y-125033489D01*
X197898345Y-124460000D01*
X197784271Y-123886511D01*
X197459415Y-123400330D01*
X196973234Y-123075474D01*
X196399745Y-122961400D01*
X196030255Y-122961400D01*
X195456766Y-123075474D01*
X194970585Y-123400330D01*
X194645729Y-123886511D01*
X194531655Y-124460000D01*
X194645729Y-125033489D01*
X194970585Y-125519670D01*
X195285366Y-125730000D01*
X194970585Y-125940330D01*
X194645729Y-126426511D01*
X194531655Y-127000000D01*
X194645729Y-127573489D01*
X194970585Y-128059670D01*
X195285366Y-128270000D01*
X194970585Y-128480330D01*
X194645729Y-128966511D01*
X194531655Y-129540000D01*
X194645729Y-130113489D01*
X194970585Y-130599670D01*
X195285366Y-130810000D01*
X194970585Y-131020330D01*
X194645729Y-131506511D01*
X194531655Y-132080000D01*
X194573263Y-132289176D01*
X194515093Y-132236552D01*
X194131318Y-132077587D01*
X193910949Y-132199718D01*
X193910949Y-133152341D01*
X193798090Y-133265200D01*
X193656949Y-133265200D01*
X193656949Y-132199718D01*
X193436580Y-132077587D01*
X192934398Y-132315669D01*
X192561552Y-132727805D01*
X192402587Y-133111580D01*
X190576200Y-133111580D01*
X190576200Y-132715000D01*
X190522063Y-132442836D01*
X190522063Y-132442835D01*
X190367894Y-132212105D01*
X189097894Y-130942106D01*
X188867165Y-130787937D01*
X188595000Y-130733800D01*
X182245000Y-130733800D01*
X181972835Y-130787937D01*
X181742106Y-130942106D01*
X180312137Y-132372075D01*
X180146337Y-132371931D01*
X179786788Y-132520493D01*
X179511460Y-132795341D01*
X179362270Y-133154630D01*
X179361931Y-133543663D01*
X170891200Y-133543663D01*
X170891200Y-131730750D01*
X172705000Y-131730750D01*
X172705000Y-132221310D01*
X172801673Y-132454699D01*
X172980302Y-132633327D01*
X173213691Y-132730000D01*
X173704250Y-132730000D01*
X173863000Y-132571250D01*
X173863000Y-131572000D01*
X172863750Y-131572000D01*
X172705000Y-131730750D01*
X170891200Y-131730750D01*
X170891200Y-130668690D01*
X172705000Y-130668690D01*
X172705000Y-131159250D01*
X172863750Y-131318000D01*
X173863000Y-131318000D01*
X173863000Y-130318750D01*
X174117000Y-130318750D01*
X174117000Y-131318000D01*
X174137000Y-131318000D01*
X174137000Y-131572000D01*
X174117000Y-131572000D01*
X174117000Y-132571250D01*
X174275750Y-132730000D01*
X174766309Y-132730000D01*
X174999698Y-132633327D01*
X175178327Y-132454699D01*
X175275000Y-132221310D01*
X175275000Y-131869433D01*
X175399995Y-132171943D01*
X175761155Y-132533735D01*
X176233276Y-132729777D01*
X176744481Y-132730223D01*
X177216943Y-132535005D01*
X177578735Y-132173845D01*
X177774777Y-131701724D01*
X177775223Y-131190519D01*
X177580005Y-130718057D01*
X177218845Y-130356265D01*
X176746724Y-130160223D01*
X176235519Y-130159777D01*
X175763057Y-130354995D01*
X175401265Y-130716155D01*
X175275000Y-131020235D01*
X175275000Y-130668690D01*
X175178327Y-130435301D01*
X174999698Y-130256673D01*
X174766309Y-130160000D01*
X174275750Y-130160000D01*
X174117000Y-130318750D01*
X173863000Y-130318750D01*
X173704250Y-130160000D01*
X173213691Y-130160000D01*
X172980302Y-130256673D01*
X172801673Y-130435301D01*
X172705000Y-130668690D01*
X170891200Y-130668690D01*
X170891200Y-129575024D01*
X171100961Y-129661904D01*
X171323000Y-129539915D01*
X171323000Y-128397000D01*
X171577000Y-128397000D01*
X171577000Y-129539915D01*
X171799039Y-129661904D01*
X172187423Y-129501041D01*
X172602389Y-129125134D01*
X172720000Y-128876633D01*
X172837611Y-129125134D01*
X173252577Y-129501041D01*
X173640961Y-129661904D01*
X173863000Y-129539915D01*
X173863000Y-128397000D01*
X171577000Y-128397000D01*
X171323000Y-128397000D01*
X171303000Y-128397000D01*
X171303000Y-128143000D01*
X171323000Y-128143000D01*
X171323000Y-127000085D01*
X171577000Y-127000085D01*
X171577000Y-128143000D01*
X173863000Y-128143000D01*
X173863000Y-127000085D01*
X173640961Y-126878096D01*
X173252577Y-127038959D01*
X172837611Y-127414866D01*
X172720000Y-127663367D01*
X172602389Y-127414866D01*
X172187423Y-127038959D01*
X171799039Y-126878096D01*
X171577000Y-127000085D01*
X171323000Y-127000085D01*
X171100961Y-126878096D01*
X170712577Y-127038959D01*
X170648129Y-127097340D01*
X169887925Y-126337136D01*
X169888069Y-126171337D01*
X169739507Y-125811788D01*
X169733929Y-125806200D01*
X178435000Y-125806200D01*
X178707165Y-125752063D01*
X178937894Y-125597894D01*
X178993800Y-125541988D01*
X178993800Y-126070411D01*
X178775412Y-126288800D01*
X178435000Y-126288800D01*
X178162836Y-126342937D01*
X177932106Y-126497105D01*
X177339279Y-127089933D01*
X177079151Y-126916120D01*
X176530000Y-126806887D01*
X175980849Y-126916120D01*
X175515302Y-127227189D01*
X175245014Y-127631703D01*
X175142389Y-127414866D01*
X174727423Y-127038959D01*
X174339039Y-126878096D01*
X174117000Y-127000085D01*
X174117000Y-128143000D01*
X174137000Y-128143000D01*
X174137000Y-128397000D01*
X174117000Y-128397000D01*
X174117000Y-129539915D01*
X174339039Y-129661904D01*
X174727423Y-129501041D01*
X175142389Y-129125134D01*
X175245014Y-128908297D01*
X175515302Y-129312811D01*
X175980849Y-129623880D01*
X176530000Y-129733113D01*
X177079151Y-129623880D01*
X177339279Y-129450067D01*
X177932106Y-130042895D01*
X178162836Y-130197063D01*
X178435000Y-130251200D01*
X180975000Y-130251200D01*
X181247165Y-130197063D01*
X181477894Y-130042894D01*
X181831793Y-129688996D01*
X182159151Y-129623880D01*
X182624698Y-129312811D01*
X182880000Y-128930725D01*
X183135302Y-129312811D01*
X183600849Y-129623880D01*
X184150000Y-129733113D01*
X184699151Y-129623880D01*
X185164698Y-129312811D01*
X185420000Y-128930725D01*
X185675302Y-129312811D01*
X186140849Y-129623880D01*
X186690000Y-129733113D01*
X187239151Y-129623880D01*
X187704698Y-129312811D01*
X187960000Y-128930725D01*
X188215302Y-129312811D01*
X188680849Y-129623880D01*
X189230000Y-129733113D01*
X189779151Y-129623880D01*
X190244698Y-129312811D01*
X190500000Y-128930725D01*
X190755302Y-129312811D01*
X191220849Y-129623880D01*
X191770000Y-129733113D01*
X192319151Y-129623880D01*
X192784698Y-129312811D01*
X193095767Y-128847264D01*
X193205000Y-128298113D01*
X193205000Y-128241887D01*
X193095767Y-127692736D01*
X192784698Y-127227189D01*
X192319151Y-126916120D01*
X191770000Y-126806887D01*
X191388550Y-126882762D01*
X191002894Y-126497106D01*
X190772165Y-126342937D01*
X190500000Y-126288800D01*
X181904589Y-126288800D01*
X181686200Y-126070412D01*
X181686200Y-123190000D01*
X181632063Y-122917836D01*
X181632063Y-122917835D01*
X181477894Y-122687105D01*
X180244475Y-121453687D01*
X180340000Y-121310725D01*
X180595302Y-121692811D01*
X181060849Y-122003880D01*
X181610000Y-122113113D01*
X182159151Y-122003880D01*
X182624698Y-121692811D01*
X182880000Y-121310725D01*
X183135302Y-121692811D01*
X183600849Y-122003880D01*
X184150000Y-122113113D01*
X184699151Y-122003880D01*
X185164698Y-121692811D01*
X185420000Y-121310725D01*
X185675302Y-121692811D01*
X186140849Y-122003880D01*
X186690000Y-122113113D01*
X187239151Y-122003880D01*
X187704698Y-121692811D01*
X187960000Y-121310725D01*
X188215302Y-121692811D01*
X188680849Y-122003880D01*
X189230000Y-122113113D01*
X189779151Y-122003880D01*
X190244698Y-121692811D01*
X190500000Y-121310725D01*
X190755302Y-121692811D01*
X191220849Y-122003880D01*
X191770000Y-122113113D01*
X192319151Y-122003880D01*
X192784698Y-121692811D01*
X193095767Y-121227264D01*
X193205000Y-120678113D01*
X193205000Y-120621887D01*
X193099440Y-120091200D01*
X199801109Y-120091200D01*
X199972004Y-120346962D01*
X199827559Y-120439910D01*
X199682569Y-120652110D01*
X199631560Y-120904000D01*
X199631560Y-122936000D01*
X199675838Y-123171317D01*
X199814910Y-123387441D01*
X199996361Y-123511421D01*
X199944268Y-123557964D01*
X199690291Y-124085209D01*
X199687642Y-124100974D01*
X199808783Y-124333000D01*
X201168000Y-124333000D01*
X201168000Y-124313000D01*
X201422000Y-124313000D01*
X201422000Y-124333000D01*
X201442000Y-124333000D01*
X201442000Y-124587000D01*
X201422000Y-124587000D01*
X201422000Y-124607000D01*
X201168000Y-124607000D01*
X201168000Y-124587000D01*
X199808783Y-124587000D01*
X199687642Y-124819026D01*
X199690291Y-124834791D01*
X199944268Y-125362036D01*
X200360069Y-125733539D01*
X200050585Y-125940330D01*
X199725729Y-126426511D01*
X199611655Y-127000000D01*
X199725729Y-127573489D01*
X200050585Y-128059670D01*
X200365366Y-128270000D01*
X200050585Y-128480330D01*
X199725729Y-128966511D01*
X199611655Y-129540000D01*
X199725729Y-130113489D01*
X200050585Y-130599670D01*
X200360069Y-130806461D01*
X199944268Y-131177964D01*
X199690291Y-131705209D01*
X199687642Y-131720974D01*
X199808783Y-131953000D01*
X201168000Y-131953000D01*
X201168000Y-131933000D01*
X201422000Y-131933000D01*
X201422000Y-131953000D01*
X201442000Y-131953000D01*
X201442000Y-132207000D01*
X201422000Y-132207000D01*
X201422000Y-132227000D01*
X201168000Y-132227000D01*
X201168000Y-132207000D01*
X199808783Y-132207000D01*
X199687642Y-132439026D01*
X199690291Y-132454791D01*
X199944268Y-132982036D01*
X200360069Y-133353539D01*
X200050585Y-133560330D01*
X199725729Y-134046511D01*
X199611655Y-134620000D01*
X199725729Y-135193489D01*
X200050585Y-135679670D01*
X200365366Y-135890000D01*
X200050585Y-136100330D01*
X199725729Y-136586511D01*
X199611655Y-137160000D01*
X199725729Y-137733489D01*
X200050585Y-138219670D01*
X200365366Y-138430000D01*
X200050585Y-138640330D01*
X199817745Y-138988800D01*
X198541510Y-138988800D01*
X198535005Y-138973057D01*
X198173845Y-138611265D01*
X197717198Y-138421648D01*
X198166354Y-138236061D01*
X198559680Y-137843421D01*
X198772808Y-137330151D01*
X198773293Y-136774390D01*
X198561061Y-136260748D01*
X198168421Y-135867422D01*
X197655151Y-135654294D01*
X197099390Y-135653809D01*
X196585748Y-135866041D01*
X196192422Y-136258681D01*
X195979294Y-136771951D01*
X195978809Y-137327712D01*
X196191041Y-137841354D01*
X196583681Y-138234680D01*
X197096951Y-138447808D01*
X197110549Y-138447820D01*
X196718057Y-138609995D01*
X196356265Y-138971155D01*
X196242440Y-139245276D01*
X196242440Y-139050000D01*
X196198162Y-138814683D01*
X196059090Y-138598559D01*
X195846890Y-138453569D01*
X195595000Y-138402560D01*
X194295000Y-138402560D01*
X194059683Y-138446838D01*
X193843559Y-138585910D01*
X193698569Y-138798110D01*
X193647560Y-139050000D01*
X193647560Y-140350000D01*
X193691838Y-140585317D01*
X193830910Y-140801441D01*
X194043110Y-140946431D01*
X194295000Y-140997440D01*
X195595000Y-140997440D01*
X195830317Y-140953162D01*
X196046441Y-140814090D01*
X196191431Y-140601890D01*
X196242440Y-140350000D01*
X196242440Y-140154540D01*
X196354995Y-140426943D01*
X196716155Y-140788735D01*
X197188276Y-140984777D01*
X197699481Y-140985223D01*
X198171943Y-140790005D01*
X198533735Y-140428845D01*
X198541062Y-140411200D01*
X199817745Y-140411200D01*
X200050585Y-140759670D01*
X200536766Y-141084526D01*
X201110255Y-141198600D01*
X201479745Y-141198600D01*
X202053234Y-141084526D01*
X202539415Y-140759670D01*
X202864271Y-140273489D01*
X202978345Y-139700000D01*
X202864271Y-139126511D01*
X202539415Y-138640330D01*
X202224634Y-138430000D01*
X202539415Y-138219670D01*
X202864271Y-137733489D01*
X202978345Y-137160000D01*
X202864271Y-136586511D01*
X202613933Y-136211855D01*
X203125000Y-135700788D01*
X203125000Y-141530000D01*
X97865000Y-141530000D01*
X97865000Y-124819026D01*
X98087642Y-124819026D01*
X98090291Y-124834791D01*
X98344268Y-125362036D01*
X98780680Y-125751954D01*
X99333087Y-125945184D01*
X99568000Y-125800924D01*
X99568000Y-124587000D01*
X99822000Y-124587000D01*
X99822000Y-125800924D01*
X100056913Y-125945184D01*
X100609320Y-125751954D01*
X101045732Y-125362036D01*
X101299709Y-124834791D01*
X101302358Y-124819026D01*
X101181217Y-124587000D01*
X99822000Y-124587000D01*
X99568000Y-124587000D01*
X98208783Y-124587000D01*
X98087642Y-124819026D01*
X97865000Y-124819026D01*
X97865000Y-117550000D01*
X100519212Y-117550000D01*
X100260143Y-117809069D01*
X100260143Y-117809069D01*
G37*
X100260143Y-117809069D02*
X99695000Y-117696655D01*
X99063190Y-117822330D01*
X98527567Y-118180222D01*
X98169675Y-118715845D01*
X98044000Y-119347655D01*
X98044000Y-119412345D01*
X98169675Y-120044155D01*
X98372004Y-120346962D01*
X98227559Y-120439910D01*
X98082569Y-120652110D01*
X98031560Y-120904000D01*
X98031560Y-122936000D01*
X98075838Y-123171317D01*
X98214910Y-123387441D01*
X98396361Y-123511421D01*
X98344268Y-123557964D01*
X98090291Y-124085209D01*
X98087642Y-124100974D01*
X98208783Y-124333000D01*
X99568000Y-124333000D01*
X99568000Y-124313000D01*
X99822000Y-124313000D01*
X99822000Y-124333000D01*
X101181217Y-124333000D01*
X101302358Y-124100974D01*
X101299709Y-124085209D01*
X101045732Y-123557964D01*
X100991876Y-123509846D01*
X101162441Y-123400090D01*
X101307431Y-123187890D01*
X101358440Y-122936000D01*
X101358440Y-120904000D01*
X101314162Y-120668683D01*
X101175090Y-120452559D01*
X101018794Y-120345767D01*
X101220325Y-120044155D01*
X101346000Y-119412345D01*
X101346000Y-119347655D01*
X101244319Y-118836469D01*
X101894588Y-118186200D01*
X185125412Y-118186200D01*
X185978800Y-119039589D01*
X185978800Y-119404398D01*
X185675302Y-119607189D01*
X185420000Y-119989275D01*
X185164698Y-119607189D01*
X184699151Y-119296120D01*
X184150000Y-119186887D01*
X183600849Y-119296120D01*
X183135302Y-119607189D01*
X182880000Y-119989275D01*
X182624698Y-119607189D01*
X182159151Y-119296120D01*
X181610000Y-119186887D01*
X181060849Y-119296120D01*
X180595302Y-119607189D01*
X180340000Y-119989275D01*
X180084698Y-119607189D01*
X179619151Y-119296120D01*
X179070000Y-119186887D01*
X178520849Y-119296120D01*
X178055302Y-119607189D01*
X177785014Y-120011703D01*
X177682389Y-119794866D01*
X177267423Y-119418959D01*
X176879039Y-119258096D01*
X176657000Y-119380085D01*
X176657000Y-120523000D01*
X176677000Y-120523000D01*
X176677000Y-120777000D01*
X176657000Y-120777000D01*
X176657000Y-120797000D01*
X176403000Y-120797000D01*
X176403000Y-120777000D01*
X176383000Y-120777000D01*
X176383000Y-120523000D01*
X176403000Y-120523000D01*
X176403000Y-119380085D01*
X176180961Y-119258096D01*
X175792577Y-119418959D01*
X175377611Y-119794866D01*
X175274986Y-120011703D01*
X175004698Y-119607189D01*
X174539151Y-119296120D01*
X173990000Y-119186887D01*
X173440849Y-119296120D01*
X172975302Y-119607189D01*
X172720000Y-119989275D01*
X172464698Y-119607189D01*
X171999151Y-119296120D01*
X171450000Y-119186887D01*
X170900849Y-119296120D01*
X170435302Y-119607189D01*
X170180000Y-119989275D01*
X169924698Y-119607189D01*
X169459151Y-119296120D01*
X168910000Y-119186887D01*
X168360849Y-119296120D01*
X167895302Y-119607189D01*
X167640000Y-119989275D01*
X167384698Y-119607189D01*
X166919151Y-119296120D01*
X166370000Y-119186887D01*
X165820849Y-119296120D01*
X165355302Y-119607189D01*
X165100000Y-119989275D01*
X164844698Y-119607189D01*
X164379151Y-119296120D01*
X163830000Y-119186887D01*
X163280849Y-119296120D01*
X162815302Y-119607189D01*
X162560000Y-119989275D01*
X162304698Y-119607189D01*
X161839151Y-119296120D01*
X161290000Y-119186887D01*
X160740849Y-119296120D01*
X160275302Y-119607189D01*
X160020000Y-119989275D01*
X159764698Y-119607189D01*
X159299151Y-119296120D01*
X158750000Y-119186887D01*
X158200849Y-119296120D01*
X157735302Y-119607189D01*
X157513726Y-119938800D01*
X156845000Y-119938800D01*
X156617990Y-119983955D01*
X156572835Y-119992937D01*
X156342105Y-120147106D01*
X155752440Y-120736771D01*
X155752440Y-119850000D01*
X155708162Y-119614683D01*
X155569090Y-119398559D01*
X155356890Y-119253569D01*
X155105000Y-119202560D01*
X153505000Y-119202560D01*
X153269683Y-119246838D01*
X153053559Y-119385910D01*
X152908569Y-119598110D01*
X152877185Y-119753089D01*
X152779698Y-119607189D01*
X152314151Y-119296120D01*
X151765000Y-119186887D01*
X151215849Y-119296120D01*
X150750302Y-119607189D01*
X150495000Y-119989275D01*
X150239698Y-119607189D01*
X149774151Y-119296120D01*
X149225000Y-119186887D01*
X148675849Y-119296120D01*
X148210302Y-119607189D01*
X147955000Y-119989275D01*
X147699698Y-119607189D01*
X147234151Y-119296120D01*
X146685000Y-119186887D01*
X146135849Y-119296120D01*
X145670302Y-119607189D01*
X145415000Y-119989275D01*
X145159698Y-119607189D01*
X144694151Y-119296120D01*
X144145000Y-119186887D01*
X143595849Y-119296120D01*
X143130302Y-119607189D01*
X142860014Y-120011703D01*
X142757389Y-119794866D01*
X142342423Y-119418959D01*
X141954039Y-119258096D01*
X141732000Y-119380085D01*
X141732000Y-120523000D01*
X141752000Y-120523000D01*
X141752000Y-120777000D01*
X141732000Y-120777000D01*
X141732000Y-120797000D01*
X141478000Y-120797000D01*
X141478000Y-120777000D01*
X141458000Y-120777000D01*
X141458000Y-120523000D01*
X141478000Y-120523000D01*
X141478000Y-119380085D01*
X141255961Y-119258096D01*
X140867577Y-119418959D01*
X140452611Y-119794866D01*
X140349986Y-120011703D01*
X140079698Y-119607189D01*
X139614151Y-119296120D01*
X139065000Y-119186887D01*
X138515849Y-119296120D01*
X138050302Y-119607189D01*
X137795000Y-119989275D01*
X137539698Y-119607189D01*
X137074151Y-119296120D01*
X136525000Y-119186887D01*
X135975849Y-119296120D01*
X135510302Y-119607189D01*
X135199233Y-120072736D01*
X135099565Y-120573800D01*
X127294589Y-120573800D01*
X127076200Y-120355412D01*
X127076200Y-120015000D01*
X127022063Y-119742836D01*
X126961478Y-119652164D01*
X126867895Y-119512106D01*
X126232894Y-118877106D01*
X126002165Y-118722937D01*
X125730000Y-118668800D01*
X120650000Y-118668800D01*
X120377836Y-118722937D01*
X120147106Y-118877105D01*
X119771425Y-119252787D01*
X119738339Y-119252758D01*
X119224697Y-119464990D01*
X118831371Y-119857630D01*
X118745051Y-120065512D01*
X118660010Y-119859697D01*
X118267370Y-119466371D01*
X117754100Y-119253243D01*
X117198339Y-119252758D01*
X116684697Y-119464990D01*
X116291371Y-119857630D01*
X116142336Y-120216548D01*
X116072894Y-120147106D01*
X115842165Y-119992937D01*
X115570000Y-119938800D01*
X111072695Y-119938800D01*
X111040010Y-119859697D01*
X110647370Y-119466371D01*
X110134100Y-119253243D01*
X109578339Y-119252758D01*
X109064697Y-119464990D01*
X108671371Y-119857630D01*
X108585051Y-120065512D01*
X108500010Y-119859697D01*
X108107370Y-119466371D01*
X107594100Y-119253243D01*
X107038339Y-119252758D01*
X106524697Y-119464990D01*
X106131371Y-119857630D01*
X106045051Y-120065512D01*
X105960010Y-119859697D01*
X105567370Y-119466371D01*
X105054100Y-119253243D01*
X104498339Y-119252758D01*
X103984697Y-119464990D01*
X103591371Y-119857630D01*
X103378243Y-120370900D01*
X103377758Y-120926661D01*
X103589990Y-121440303D01*
X103982630Y-121833629D01*
X104495900Y-122046757D01*
X105051661Y-122047242D01*
X105565303Y-121835010D01*
X105577273Y-121823061D01*
X106812106Y-123057894D01*
X107042835Y-123212063D01*
X107315000Y-123266200D01*
X115275412Y-123266200D01*
X116337105Y-124327894D01*
X116567835Y-124482063D01*
X116612990Y-124491045D01*
X116749526Y-124518203D01*
X116684697Y-124544990D01*
X116291371Y-124937630D01*
X116078243Y-125450900D01*
X116077758Y-126006661D01*
X116204671Y-126313814D01*
X116174184Y-126334185D01*
X115687817Y-126820552D01*
X115508489Y-126700729D01*
X114935000Y-126586655D01*
X114361511Y-126700729D01*
X113875330Y-127025585D01*
X113665000Y-127340366D01*
X113454670Y-127025585D01*
X112968489Y-126700729D01*
X112395000Y-126586655D01*
X111821511Y-126700729D01*
X111335330Y-127025585D01*
X111125000Y-127340366D01*
X110914670Y-127025585D01*
X110686955Y-126873431D01*
X111038629Y-126522370D01*
X111251757Y-126009100D01*
X111252242Y-125453339D01*
X111040010Y-124939697D01*
X110647370Y-124546371D01*
X110134100Y-124333243D01*
X109578339Y-124332758D01*
X109064697Y-124544990D01*
X108671371Y-124937630D01*
X108585051Y-125145512D01*
X108500010Y-124939697D01*
X108107370Y-124546371D01*
X107594100Y-124333243D01*
X107038339Y-124332758D01*
X106524697Y-124544990D01*
X106131371Y-124937630D01*
X106045051Y-125145512D01*
X105960010Y-124939697D01*
X105567370Y-124546371D01*
X105054100Y-124333243D01*
X104498339Y-124332758D01*
X103984697Y-124544990D01*
X103591371Y-124937630D01*
X103378243Y-125450900D01*
X103377758Y-126006661D01*
X103589990Y-126520303D01*
X103942719Y-126873648D01*
X103715330Y-127025585D01*
X103505000Y-127340366D01*
X103294670Y-127025585D01*
X102808489Y-126700729D01*
X102235000Y-126586655D01*
X101661511Y-126700729D01*
X101175330Y-127025585D01*
X100965000Y-127340366D01*
X100754670Y-127025585D01*
X100268489Y-126700729D01*
X99695000Y-126586655D01*
X99121511Y-126700729D01*
X98635330Y-127025585D01*
X98310474Y-127511766D01*
X98196400Y-128085255D01*
X98196400Y-128454745D01*
X98310474Y-129028234D01*
X98635330Y-129514415D01*
X99121511Y-129839271D01*
X99309670Y-129876698D01*
X101473000Y-132040029D01*
X101473000Y-139065000D01*
X101531004Y-139356605D01*
X101578906Y-139428295D01*
X101696185Y-139603815D01*
X102966184Y-140873815D01*
X103132918Y-140985223D01*
X103213395Y-141038996D01*
X103505000Y-141097000D01*
X125730000Y-141097000D01*
X126021605Y-141038996D01*
X126268815Y-140873815D01*
X126680631Y-140462000D01*
X140335000Y-140462000D01*
X140626605Y-140403996D01*
X140873815Y-140238815D01*
X141283473Y-139829157D01*
X141605000Y-139893113D01*
X142154151Y-139783880D01*
X142619698Y-139472811D01*
X142875000Y-139090725D01*
X143130302Y-139472811D01*
X143595849Y-139783880D01*
X144145000Y-139893113D01*
X144694151Y-139783880D01*
X145159698Y-139472811D01*
X145415000Y-139090725D01*
X145670302Y-139472811D01*
X146135849Y-139783880D01*
X146685000Y-139893113D01*
X147234151Y-139783880D01*
X147699698Y-139472811D01*
X147955000Y-139090725D01*
X148210302Y-139472811D01*
X148675849Y-139783880D01*
X149225000Y-139893113D01*
X149774151Y-139783880D01*
X150239698Y-139472811D01*
X150495000Y-139090725D01*
X150750302Y-139472811D01*
X151215849Y-139783880D01*
X151765000Y-139893113D01*
X152314151Y-139783880D01*
X152779698Y-139472811D01*
X153035000Y-139090725D01*
X153290302Y-139472811D01*
X153755849Y-139783880D01*
X154305000Y-139893113D01*
X154854151Y-139783880D01*
X155319698Y-139472811D01*
X155630767Y-139007264D01*
X155740000Y-138458113D01*
X155740000Y-138401887D01*
X155630767Y-137852736D01*
X155319698Y-137387189D01*
X154854151Y-137076120D01*
X154305000Y-136966887D01*
X153983473Y-137030843D01*
X151033815Y-134081185D01*
X150889864Y-133985000D01*
X150786605Y-133916004D01*
X150495000Y-133858000D01*
X133538630Y-133858000D01*
X133373551Y-133692921D01*
X133543663Y-133693069D01*
X133903212Y-133544507D01*
X134021726Y-133426200D01*
X142838206Y-133426200D01*
X142955341Y-133543540D01*
X143314630Y-133692730D01*
X143703663Y-133693069D01*
X144063212Y-133544507D01*
X144338540Y-133269659D01*
X144487730Y-132910370D01*
X144488069Y-132521337D01*
X144367240Y-132228907D01*
X144694151Y-132163880D01*
X145159698Y-131852811D01*
X145415000Y-131470725D01*
X145670302Y-131852811D01*
X146135849Y-132163880D01*
X146685000Y-132273113D01*
X147234151Y-132163880D01*
X147699698Y-131852811D01*
X147955000Y-131470725D01*
X148210302Y-131852811D01*
X148675849Y-132163880D01*
X149225000Y-132273113D01*
X149774151Y-132163880D01*
X150239698Y-131852811D01*
X150495000Y-131470725D01*
X150750302Y-131852811D01*
X151215849Y-132163880D01*
X151765000Y-132273113D01*
X152314151Y-132163880D01*
X152779698Y-131852811D01*
X152876101Y-131708535D01*
X152901838Y-131845317D01*
X153040910Y-132061441D01*
X153253110Y-132206431D01*
X153505000Y-132257440D01*
X155105000Y-132257440D01*
X155340317Y-132213162D01*
X155556441Y-132074090D01*
X155701431Y-131861890D01*
X155752440Y-131610000D01*
X155752440Y-130010000D01*
X155708162Y-129774683D01*
X155569090Y-129558559D01*
X155356890Y-129413569D01*
X155178796Y-129377504D01*
X155440052Y-129140840D01*
X157772075Y-131472863D01*
X157771931Y-131638663D01*
X157920493Y-131998212D01*
X158195341Y-132273540D01*
X158554630Y-132422730D01*
X158943663Y-132423069D01*
X159303212Y-132274507D01*
X159578540Y-131999659D01*
X159727730Y-131640370D01*
X159728069Y-131251337D01*
X159579507Y-130891788D01*
X159304659Y-130616460D01*
X158945370Y-130467270D01*
X158777912Y-130467124D01*
X157245304Y-128934516D01*
X157480000Y-128981200D01*
X157513726Y-128981200D01*
X157735302Y-129312811D01*
X158200849Y-129623880D01*
X158750000Y-129733113D01*
X159299151Y-129623880D01*
X159764698Y-129312811D01*
X160020000Y-128930725D01*
X160275302Y-129312811D01*
X160740849Y-129623880D01*
X161290000Y-129733113D01*
X161839151Y-129623880D01*
X162304698Y-129312811D01*
X162560000Y-128930725D01*
X162815302Y-129312811D01*
X163280849Y-129623880D01*
X163830000Y-129733113D01*
X164379151Y-129623880D01*
X164757247Y-129371244D01*
X164756931Y-129733663D01*
X164905493Y-130093212D01*
X165023800Y-130211726D01*
X165023800Y-136525000D01*
X165077937Y-136797165D01*
X165232106Y-137027894D01*
X166027075Y-137822864D01*
X166026931Y-137988663D01*
X166175493Y-138348212D01*
X166450341Y-138623540D01*
X166809630Y-138772730D01*
X167198663Y-138773069D01*
X167335331Y-138716599D01*
X167445493Y-138983212D01*
X167720341Y-139258540D01*
X168079630Y-139407730D01*
X168468663Y-139408069D01*
X168828212Y-139259507D01*
X169103540Y-138984659D01*
X169252730Y-138625370D01*
X169252876Y-138457912D01*
X170682894Y-137027894D01*
X170837063Y-136797165D01*
X170891200Y-136525000D01*
X170891200Y-133543663D01*
X179361931Y-133543663D01*
X179510493Y-133903212D01*
X179785341Y-134178540D01*
X180144630Y-134327730D01*
X180533663Y-134328069D01*
X180893212Y-134179507D01*
X180898800Y-134173929D01*
X180898800Y-134960411D01*
X180312136Y-135547075D01*
X180146337Y-135546931D01*
X179786788Y-135695493D01*
X179511460Y-135970341D01*
X179362270Y-136329630D01*
X179361931Y-136718663D01*
X179510493Y-137078212D01*
X179785341Y-137353540D01*
X180144630Y-137502730D01*
X180533663Y-137503069D01*
X180893212Y-137354507D01*
X181168540Y-137079659D01*
X181317730Y-136720370D01*
X181317876Y-136552912D01*
X181421529Y-136449259D01*
X181690341Y-136718540D01*
X182049630Y-136867730D01*
X182438663Y-136868069D01*
X182798212Y-136719507D01*
X183073540Y-136444659D01*
X183184790Y-136176739D01*
X183319630Y-136232730D01*
X183708663Y-136233069D01*
X184068212Y-136084507D01*
X184343540Y-135809659D01*
X184454790Y-135541739D01*
X184589630Y-135597730D01*
X184978663Y-135598069D01*
X185338212Y-135449507D01*
X185613540Y-135174659D01*
X185762730Y-134815370D01*
X185762876Y-134647912D01*
X187192894Y-133217894D01*
X187347063Y-132987165D01*
X187392068Y-132760911D01*
X187518540Y-132634659D01*
X187667730Y-132275370D01*
X187667834Y-132156200D01*
X188300412Y-132156200D01*
X189153800Y-133009589D01*
X189153800Y-133108960D01*
X187731400Y-133108960D01*
X187496083Y-133153238D01*
X187279959Y-133292310D01*
X187134969Y-133504510D01*
X187083960Y-133756400D01*
X187083960Y-135483600D01*
X187128238Y-135718917D01*
X187267310Y-135935041D01*
X187479510Y-136080031D01*
X187523345Y-136088908D01*
X187210474Y-136557152D01*
X187096400Y-137130641D01*
X187096400Y-137189359D01*
X187201712Y-137718800D01*
X187032967Y-137718800D01*
X187033069Y-137601337D01*
X186884507Y-137241788D01*
X186609659Y-136966460D01*
X186250370Y-136817270D01*
X185861337Y-136816931D01*
X185501788Y-136965493D01*
X185226460Y-137240341D01*
X185077270Y-137599630D01*
X185076931Y-137988663D01*
X185225493Y-138348212D01*
X185500341Y-138623540D01*
X185859630Y-138772730D01*
X186027087Y-138772876D01*
X186187106Y-138932895D01*
X186417836Y-139087063D01*
X186690000Y-139141200D01*
X187201712Y-139141200D01*
X187096400Y-139670641D01*
X187096400Y-139729359D01*
X187210474Y-140302848D01*
X187535330Y-140789029D01*
X188021511Y-141113885D01*
X188595000Y-141227959D01*
X189168489Y-141113885D01*
X189654670Y-140789029D01*
X189865000Y-140474248D01*
X190075330Y-140789029D01*
X190561511Y-141113885D01*
X191135000Y-141227959D01*
X191708489Y-141113885D01*
X192194670Y-140789029D01*
X192519526Y-140302848D01*
X192633600Y-139729359D01*
X192633600Y-139670641D01*
X192519526Y-139097152D01*
X192194670Y-138610971D01*
X191923828Y-138430000D01*
X192194670Y-138249029D01*
X192519526Y-137762848D01*
X192633600Y-137189359D01*
X192633600Y-137130641D01*
X192519526Y-136557152D01*
X192194670Y-136070971D01*
X191923839Y-135890008D01*
X192341821Y-135508490D01*
X192589968Y-134979027D01*
X192469469Y-134747000D01*
X191262000Y-134747000D01*
X191262000Y-134767000D01*
X191008000Y-134767000D01*
X191008000Y-134747000D01*
X190988000Y-134747000D01*
X190988000Y-134493000D01*
X191008000Y-134493000D01*
X191008000Y-133286183D01*
X191262000Y-133286183D01*
X191262000Y-134493000D01*
X192469469Y-134493000D01*
X192589968Y-134260973D01*
X192376882Y-133806318D01*
X192402587Y-133806318D01*
X192640669Y-134308500D01*
X193052805Y-134681346D01*
X193436580Y-134840311D01*
X193656949Y-134718180D01*
X193656949Y-133585949D01*
X193910949Y-133585949D01*
X193910949Y-134718180D01*
X194131318Y-134840311D01*
X194633500Y-134602229D01*
X195006346Y-134190093D01*
X195165311Y-133806318D01*
X195043180Y-133585949D01*
X193910949Y-133585949D01*
X193656949Y-133585949D01*
X192524718Y-133585949D01*
X192402587Y-133806318D01*
X192376882Y-133806318D01*
X192341821Y-133731510D01*
X191909947Y-133337312D01*
X191494026Y-133165042D01*
X191262000Y-133286183D01*
X191008000Y-133286183D01*
X190775974Y-133165042D01*
X190576200Y-133247786D01*
X190576200Y-133111580D01*
X192402587Y-133111580D01*
X192524718Y-133331949D01*
X193656949Y-133331949D01*
X193656949Y-133265200D01*
X193798090Y-133265200D01*
X193977698Y-133444808D01*
X194090557Y-133331949D01*
X195043180Y-133331949D01*
X195101328Y-133227029D01*
X195456766Y-133464526D01*
X196030255Y-133578600D01*
X196399745Y-133578600D01*
X196973234Y-133464526D01*
X197459415Y-133139670D01*
X197784271Y-132653489D01*
X197898345Y-132080000D01*
X197784271Y-131506511D01*
X197459415Y-131020330D01*
X197144634Y-130810000D01*
X197459415Y-130599670D01*
X197784271Y-130113489D01*
X197898345Y-129540000D01*
X197784271Y-128966511D01*
X197459415Y-128480330D01*
X197144634Y-128270000D01*
X197459415Y-128059670D01*
X197784271Y-127573489D01*
X197898345Y-127000000D01*
X197784271Y-126426511D01*
X197459415Y-125940330D01*
X197144634Y-125730000D01*
X197459415Y-125519670D01*
X197784271Y-125033489D01*
X197898345Y-124460000D01*
X197784271Y-123886511D01*
X197459415Y-123400330D01*
X196973234Y-123075474D01*
X196399745Y-122961400D01*
X196030255Y-122961400D01*
X195456766Y-123075474D01*
X194970585Y-123400330D01*
X194645729Y-123886511D01*
X194531655Y-124460000D01*
X194645729Y-125033489D01*
X194970585Y-125519670D01*
X195285366Y-125730000D01*
X194970585Y-125940330D01*
X194645729Y-126426511D01*
X194531655Y-127000000D01*
X194645729Y-127573489D01*
X194970585Y-128059670D01*
X195285366Y-128270000D01*
X194970585Y-128480330D01*
X194645729Y-128966511D01*
X194531655Y-129540000D01*
X194645729Y-130113489D01*
X194970585Y-130599670D01*
X195285366Y-130810000D01*
X194970585Y-131020330D01*
X194645729Y-131506511D01*
X194531655Y-132080000D01*
X194573263Y-132289176D01*
X194515093Y-132236552D01*
X194131318Y-132077587D01*
X193910949Y-132199718D01*
X193910949Y-133152341D01*
X193798090Y-133265200D01*
X193656949Y-133265200D01*
X193656949Y-132199718D01*
X193436580Y-132077587D01*
X192934398Y-132315669D01*
X192561552Y-132727805D01*
X192402587Y-133111580D01*
X190576200Y-133111580D01*
X190576200Y-132715000D01*
X190522063Y-132442836D01*
X190522063Y-132442835D01*
X190367894Y-132212105D01*
X189097894Y-130942106D01*
X188867165Y-130787937D01*
X188595000Y-130733800D01*
X182245000Y-130733800D01*
X181972835Y-130787937D01*
X181742106Y-130942106D01*
X180312137Y-132372075D01*
X180146337Y-132371931D01*
X179786788Y-132520493D01*
X179511460Y-132795341D01*
X179362270Y-133154630D01*
X179361931Y-133543663D01*
X170891200Y-133543663D01*
X170891200Y-131730750D01*
X172705000Y-131730750D01*
X172705000Y-132221310D01*
X172801673Y-132454699D01*
X172980302Y-132633327D01*
X173213691Y-132730000D01*
X173704250Y-132730000D01*
X173863000Y-132571250D01*
X173863000Y-131572000D01*
X172863750Y-131572000D01*
X172705000Y-131730750D01*
X170891200Y-131730750D01*
X170891200Y-130668690D01*
X172705000Y-130668690D01*
X172705000Y-131159250D01*
X172863750Y-131318000D01*
X173863000Y-131318000D01*
X173863000Y-130318750D01*
X174117000Y-130318750D01*
X174117000Y-131318000D01*
X174137000Y-131318000D01*
X174137000Y-131572000D01*
X174117000Y-131572000D01*
X174117000Y-132571250D01*
X174275750Y-132730000D01*
X174766309Y-132730000D01*
X174999698Y-132633327D01*
X175178327Y-132454699D01*
X175275000Y-132221310D01*
X175275000Y-131869433D01*
X175399995Y-132171943D01*
X175761155Y-132533735D01*
X176233276Y-132729777D01*
X176744481Y-132730223D01*
X177216943Y-132535005D01*
X177578735Y-132173845D01*
X177774777Y-131701724D01*
X177775223Y-131190519D01*
X177580005Y-130718057D01*
X177218845Y-130356265D01*
X176746724Y-130160223D01*
X176235519Y-130159777D01*
X175763057Y-130354995D01*
X175401265Y-130716155D01*
X175275000Y-131020235D01*
X175275000Y-130668690D01*
X175178327Y-130435301D01*
X174999698Y-130256673D01*
X174766309Y-130160000D01*
X174275750Y-130160000D01*
X174117000Y-130318750D01*
X173863000Y-130318750D01*
X173704250Y-130160000D01*
X173213691Y-130160000D01*
X172980302Y-130256673D01*
X172801673Y-130435301D01*
X172705000Y-130668690D01*
X170891200Y-130668690D01*
X170891200Y-129575024D01*
X171100961Y-129661904D01*
X171323000Y-129539915D01*
X171323000Y-128397000D01*
X171577000Y-128397000D01*
X171577000Y-129539915D01*
X171799039Y-129661904D01*
X172187423Y-129501041D01*
X172602389Y-129125134D01*
X172720000Y-128876633D01*
X172837611Y-129125134D01*
X173252577Y-129501041D01*
X173640961Y-129661904D01*
X173863000Y-129539915D01*
X173863000Y-128397000D01*
X171577000Y-128397000D01*
X171323000Y-128397000D01*
X171303000Y-128397000D01*
X171303000Y-128143000D01*
X171323000Y-128143000D01*
X171323000Y-127000085D01*
X171577000Y-127000085D01*
X171577000Y-128143000D01*
X173863000Y-128143000D01*
X173863000Y-127000085D01*
X173640961Y-126878096D01*
X173252577Y-127038959D01*
X172837611Y-127414866D01*
X172720000Y-127663367D01*
X172602389Y-127414866D01*
X172187423Y-127038959D01*
X171799039Y-126878096D01*
X171577000Y-127000085D01*
X171323000Y-127000085D01*
X171100961Y-126878096D01*
X170712577Y-127038959D01*
X170648129Y-127097340D01*
X169887925Y-126337136D01*
X169888069Y-126171337D01*
X169739507Y-125811788D01*
X169733929Y-125806200D01*
X178435000Y-125806200D01*
X178707165Y-125752063D01*
X178937894Y-125597894D01*
X178993800Y-125541988D01*
X178993800Y-126070411D01*
X178775412Y-126288800D01*
X178435000Y-126288800D01*
X178162836Y-126342937D01*
X177932106Y-126497105D01*
X177339279Y-127089933D01*
X177079151Y-126916120D01*
X176530000Y-126806887D01*
X175980849Y-126916120D01*
X175515302Y-127227189D01*
X175245014Y-127631703D01*
X175142389Y-127414866D01*
X174727423Y-127038959D01*
X174339039Y-126878096D01*
X174117000Y-127000085D01*
X174117000Y-128143000D01*
X174137000Y-128143000D01*
X174137000Y-128397000D01*
X174117000Y-128397000D01*
X174117000Y-129539915D01*
X174339039Y-129661904D01*
X174727423Y-129501041D01*
X175142389Y-129125134D01*
X175245014Y-128908297D01*
X175515302Y-129312811D01*
X175980849Y-129623880D01*
X176530000Y-129733113D01*
X177079151Y-129623880D01*
X177339279Y-129450067D01*
X177932106Y-130042895D01*
X178162836Y-130197063D01*
X178435000Y-130251200D01*
X180975000Y-130251200D01*
X181247165Y-130197063D01*
X181477894Y-130042894D01*
X181831793Y-129688996D01*
X182159151Y-129623880D01*
X182624698Y-129312811D01*
X182880000Y-128930725D01*
X183135302Y-129312811D01*
X183600849Y-129623880D01*
X184150000Y-129733113D01*
X184699151Y-129623880D01*
X185164698Y-129312811D01*
X185420000Y-128930725D01*
X185675302Y-129312811D01*
X186140849Y-129623880D01*
X186690000Y-129733113D01*
X187239151Y-129623880D01*
X187704698Y-129312811D01*
X187960000Y-128930725D01*
X188215302Y-129312811D01*
X188680849Y-129623880D01*
X189230000Y-129733113D01*
X189779151Y-129623880D01*
X190244698Y-129312811D01*
X190500000Y-128930725D01*
X190755302Y-129312811D01*
X191220849Y-129623880D01*
X191770000Y-129733113D01*
X192319151Y-129623880D01*
X192784698Y-129312811D01*
X193095767Y-128847264D01*
X193205000Y-128298113D01*
X193205000Y-128241887D01*
X193095767Y-127692736D01*
X192784698Y-127227189D01*
X192319151Y-126916120D01*
X191770000Y-126806887D01*
X191388550Y-126882762D01*
X191002894Y-126497106D01*
X190772165Y-126342937D01*
X190500000Y-126288800D01*
X181904589Y-126288800D01*
X181686200Y-126070412D01*
X181686200Y-123190000D01*
X181632063Y-122917836D01*
X181632063Y-122917835D01*
X181477894Y-122687105D01*
X180244475Y-121453687D01*
X180340000Y-121310725D01*
X180595302Y-121692811D01*
X181060849Y-122003880D01*
X181610000Y-122113113D01*
X182159151Y-122003880D01*
X182624698Y-121692811D01*
X182880000Y-121310725D01*
X183135302Y-121692811D01*
X183600849Y-122003880D01*
X184150000Y-122113113D01*
X184699151Y-122003880D01*
X185164698Y-121692811D01*
X185420000Y-121310725D01*
X185675302Y-121692811D01*
X186140849Y-122003880D01*
X186690000Y-122113113D01*
X187239151Y-122003880D01*
X187704698Y-121692811D01*
X187960000Y-121310725D01*
X188215302Y-121692811D01*
X188680849Y-122003880D01*
X189230000Y-122113113D01*
X189779151Y-122003880D01*
X190244698Y-121692811D01*
X190500000Y-121310725D01*
X190755302Y-121692811D01*
X191220849Y-122003880D01*
X191770000Y-122113113D01*
X192319151Y-122003880D01*
X192784698Y-121692811D01*
X193095767Y-121227264D01*
X193205000Y-120678113D01*
X193205000Y-120621887D01*
X193099440Y-120091200D01*
X199801109Y-120091200D01*
X199972004Y-120346962D01*
X199827559Y-120439910D01*
X199682569Y-120652110D01*
X199631560Y-120904000D01*
X199631560Y-122936000D01*
X199675838Y-123171317D01*
X199814910Y-123387441D01*
X199996361Y-123511421D01*
X199944268Y-123557964D01*
X199690291Y-124085209D01*
X199687642Y-124100974D01*
X199808783Y-124333000D01*
X201168000Y-124333000D01*
X201168000Y-124313000D01*
X201422000Y-124313000D01*
X201422000Y-124333000D01*
X201442000Y-124333000D01*
X201442000Y-124587000D01*
X201422000Y-124587000D01*
X201422000Y-124607000D01*
X201168000Y-124607000D01*
X201168000Y-124587000D01*
X199808783Y-124587000D01*
X199687642Y-124819026D01*
X199690291Y-124834791D01*
X199944268Y-125362036D01*
X200360069Y-125733539D01*
X200050585Y-125940330D01*
X199725729Y-126426511D01*
X199611655Y-127000000D01*
X199725729Y-127573489D01*
X200050585Y-128059670D01*
X200365366Y-128270000D01*
X200050585Y-128480330D01*
X199725729Y-128966511D01*
X199611655Y-129540000D01*
X199725729Y-130113489D01*
X200050585Y-130599670D01*
X200360069Y-130806461D01*
X199944268Y-131177964D01*
X199690291Y-131705209D01*
X199687642Y-131720974D01*
X199808783Y-131953000D01*
X201168000Y-131953000D01*
X201168000Y-131933000D01*
X201422000Y-131933000D01*
X201422000Y-131953000D01*
X201442000Y-131953000D01*
X201442000Y-132207000D01*
X201422000Y-132207000D01*
X201422000Y-132227000D01*
X201168000Y-132227000D01*
X201168000Y-132207000D01*
X199808783Y-132207000D01*
X199687642Y-132439026D01*
X199690291Y-132454791D01*
X199944268Y-132982036D01*
X200360069Y-133353539D01*
X200050585Y-133560330D01*
X199725729Y-134046511D01*
X199611655Y-134620000D01*
X199725729Y-135193489D01*
X200050585Y-135679670D01*
X200365366Y-135890000D01*
X200050585Y-136100330D01*
X199725729Y-136586511D01*
X199611655Y-137160000D01*
X199725729Y-137733489D01*
X200050585Y-138219670D01*
X200365366Y-138430000D01*
X200050585Y-138640330D01*
X199817745Y-138988800D01*
X198541510Y-138988800D01*
X198535005Y-138973057D01*
X198173845Y-138611265D01*
X197717198Y-138421648D01*
X198166354Y-138236061D01*
X198559680Y-137843421D01*
X198772808Y-137330151D01*
X198773293Y-136774390D01*
X198561061Y-136260748D01*
X198168421Y-135867422D01*
X197655151Y-135654294D01*
X197099390Y-135653809D01*
X196585748Y-135866041D01*
X196192422Y-136258681D01*
X195979294Y-136771951D01*
X195978809Y-137327712D01*
X196191041Y-137841354D01*
X196583681Y-138234680D01*
X197096951Y-138447808D01*
X197110549Y-138447820D01*
X196718057Y-138609995D01*
X196356265Y-138971155D01*
X196242440Y-139245276D01*
X196242440Y-139050000D01*
X196198162Y-138814683D01*
X196059090Y-138598559D01*
X195846890Y-138453569D01*
X195595000Y-138402560D01*
X194295000Y-138402560D01*
X194059683Y-138446838D01*
X193843559Y-138585910D01*
X193698569Y-138798110D01*
X193647560Y-139050000D01*
X193647560Y-140350000D01*
X193691838Y-140585317D01*
X193830910Y-140801441D01*
X194043110Y-140946431D01*
X194295000Y-140997440D01*
X195595000Y-140997440D01*
X195830317Y-140953162D01*
X196046441Y-140814090D01*
X196191431Y-140601890D01*
X196242440Y-140350000D01*
X196242440Y-140154540D01*
X196354995Y-140426943D01*
X196716155Y-140788735D01*
X197188276Y-140984777D01*
X197699481Y-140985223D01*
X198171943Y-140790005D01*
X198533735Y-140428845D01*
X198541062Y-140411200D01*
X199817745Y-140411200D01*
X200050585Y-140759670D01*
X200536766Y-141084526D01*
X201110255Y-141198600D01*
X201479745Y-141198600D01*
X202053234Y-141084526D01*
X202539415Y-140759670D01*
X202864271Y-140273489D01*
X202978345Y-139700000D01*
X202864271Y-139126511D01*
X202539415Y-138640330D01*
X202224634Y-138430000D01*
X202539415Y-138219670D01*
X202864271Y-137733489D01*
X202978345Y-137160000D01*
X202864271Y-136586511D01*
X202613933Y-136211855D01*
X203125000Y-135700788D01*
X203125000Y-141530000D01*
X97865000Y-141530000D01*
X97865000Y-124819026D01*
X98087642Y-124819026D01*
X98090291Y-124834791D01*
X98344268Y-125362036D01*
X98780680Y-125751954D01*
X99333087Y-125945184D01*
X99568000Y-125800924D01*
X99568000Y-124587000D01*
X99822000Y-124587000D01*
X99822000Y-125800924D01*
X100056913Y-125945184D01*
X100609320Y-125751954D01*
X101045732Y-125362036D01*
X101299709Y-124834791D01*
X101302358Y-124819026D01*
X101181217Y-124587000D01*
X99822000Y-124587000D01*
X99568000Y-124587000D01*
X98208783Y-124587000D01*
X98087642Y-124819026D01*
X97865000Y-124819026D01*
X97865000Y-117550000D01*
X100519212Y-117550000D01*
X100260143Y-117809069D01*
G36*
X135387106Y-126232895D02*
X135584816Y-126365000D01*
X135617836Y-126387063D01*
X135890000Y-126441200D01*
X154645412Y-126441200D01*
X154863800Y-126659589D01*
X154863800Y-126964976D01*
X154654039Y-126878096D01*
X154432000Y-127000085D01*
X154432000Y-128143000D01*
X154452000Y-128143000D01*
X154452000Y-128397000D01*
X154432000Y-128397000D01*
X154432000Y-128417000D01*
X154178000Y-128417000D01*
X154178000Y-128397000D01*
X154158000Y-128397000D01*
X154158000Y-128143000D01*
X154178000Y-128143000D01*
X154178000Y-127000085D01*
X153955961Y-126878096D01*
X153567577Y-127038959D01*
X153152611Y-127414866D01*
X153049986Y-127631703D01*
X152779698Y-127227189D01*
X152314151Y-126916120D01*
X151765000Y-126806887D01*
X151215849Y-126916120D01*
X150750302Y-127227189D01*
X150495000Y-127609275D01*
X150239698Y-127227189D01*
X149774151Y-126916120D01*
X149225000Y-126806887D01*
X148675849Y-126916120D01*
X148210302Y-127227189D01*
X147955000Y-127609275D01*
X147699698Y-127227189D01*
X147234151Y-126916120D01*
X146685000Y-126806887D01*
X146135849Y-126916120D01*
X145670302Y-127227189D01*
X145415000Y-127609275D01*
X145159698Y-127227189D01*
X144694151Y-126916120D01*
X144145000Y-126806887D01*
X143595849Y-126916120D01*
X143130302Y-127227189D01*
X142875000Y-127609275D01*
X142619698Y-127227189D01*
X142154151Y-126916120D01*
X141605000Y-126806887D01*
X141055849Y-126916120D01*
X140590302Y-127227189D01*
X140335000Y-127609275D01*
X140079698Y-127227189D01*
X139614151Y-126916120D01*
X139065000Y-126806887D01*
X138515849Y-126916120D01*
X138050302Y-127227189D01*
X137795000Y-127609275D01*
X137539698Y-127227189D01*
X137074151Y-126916120D01*
X136525000Y-126806887D01*
X135975849Y-126916120D01*
X135510302Y-127227189D01*
X135199233Y-127692736D01*
X135090000Y-128241887D01*
X135090000Y-128298113D01*
X135199233Y-128847264D01*
X135510302Y-129312811D01*
X135850314Y-129540000D01*
X135510302Y-129767189D01*
X135199233Y-130232736D01*
X135090000Y-130781887D01*
X135090000Y-130838113D01*
X135195560Y-131368800D01*
X134656794Y-131368800D01*
X134539659Y-131251460D01*
X134180370Y-131102270D01*
X133791337Y-131101931D01*
X133431788Y-131250493D01*
X133156460Y-131525341D01*
X133050429Y-131780691D01*
X132796788Y-131885493D01*
X132521460Y-132160341D01*
X132372270Y-132519630D01*
X132372120Y-132691490D01*
X130937000Y-131256370D01*
X130937000Y-129933440D01*
X131038600Y-129933440D01*
X131273917Y-129889162D01*
X131490041Y-129750090D01*
X131635031Y-129537890D01*
X131686040Y-129286000D01*
X131686040Y-127254000D01*
X131641762Y-127018683D01*
X131502690Y-126802559D01*
X131290490Y-126657569D01*
X131038600Y-126606560D01*
X129311400Y-126606560D01*
X129076083Y-126650838D01*
X128859959Y-126789910D01*
X128714969Y-127002110D01*
X128706600Y-127043439D01*
X128694670Y-127025585D01*
X128208489Y-126700729D01*
X127635000Y-126586655D01*
X127061511Y-126700729D01*
X126806052Y-126871421D01*
X126330964Y-126396334D01*
X126491757Y-126009100D01*
X126491815Y-125942838D01*
X126804630Y-126072730D01*
X127193663Y-126073069D01*
X127553212Y-125924507D01*
X127671726Y-125806200D01*
X134960412Y-125806200D01*
X135387106Y-126232895D01*
X135387106Y-126232895D01*
G37*
X135387106Y-126232895D02*
X135584816Y-126365000D01*
X135617836Y-126387063D01*
X135890000Y-126441200D01*
X154645412Y-126441200D01*
X154863800Y-126659589D01*
X154863800Y-126964976D01*
X154654039Y-126878096D01*
X154432000Y-127000085D01*
X154432000Y-128143000D01*
X154452000Y-128143000D01*
X154452000Y-128397000D01*
X154432000Y-128397000D01*
X154432000Y-128417000D01*
X154178000Y-128417000D01*
X154178000Y-128397000D01*
X154158000Y-128397000D01*
X154158000Y-128143000D01*
X154178000Y-128143000D01*
X154178000Y-127000085D01*
X153955961Y-126878096D01*
X153567577Y-127038959D01*
X153152611Y-127414866D01*
X153049986Y-127631703D01*
X152779698Y-127227189D01*
X152314151Y-126916120D01*
X151765000Y-126806887D01*
X151215849Y-126916120D01*
X150750302Y-127227189D01*
X150495000Y-127609275D01*
X150239698Y-127227189D01*
X149774151Y-126916120D01*
X149225000Y-126806887D01*
X148675849Y-126916120D01*
X148210302Y-127227189D01*
X147955000Y-127609275D01*
X147699698Y-127227189D01*
X147234151Y-126916120D01*
X146685000Y-126806887D01*
X146135849Y-126916120D01*
X145670302Y-127227189D01*
X145415000Y-127609275D01*
X145159698Y-127227189D01*
X144694151Y-126916120D01*
X144145000Y-126806887D01*
X143595849Y-126916120D01*
X143130302Y-127227189D01*
X142875000Y-127609275D01*
X142619698Y-127227189D01*
X142154151Y-126916120D01*
X141605000Y-126806887D01*
X141055849Y-126916120D01*
X140590302Y-127227189D01*
X140335000Y-127609275D01*
X140079698Y-127227189D01*
X139614151Y-126916120D01*
X139065000Y-126806887D01*
X138515849Y-126916120D01*
X138050302Y-127227189D01*
X137795000Y-127609275D01*
X137539698Y-127227189D01*
X137074151Y-126916120D01*
X136525000Y-126806887D01*
X135975849Y-126916120D01*
X135510302Y-127227189D01*
X135199233Y-127692736D01*
X135090000Y-128241887D01*
X135090000Y-128298113D01*
X135199233Y-128847264D01*
X135510302Y-129312811D01*
X135850314Y-129540000D01*
X135510302Y-129767189D01*
X135199233Y-130232736D01*
X135090000Y-130781887D01*
X135090000Y-130838113D01*
X135195560Y-131368800D01*
X134656794Y-131368800D01*
X134539659Y-131251460D01*
X134180370Y-131102270D01*
X133791337Y-131101931D01*
X133431788Y-131250493D01*
X133156460Y-131525341D01*
X133050429Y-131780691D01*
X132796788Y-131885493D01*
X132521460Y-132160341D01*
X132372270Y-132519630D01*
X132372120Y-132691490D01*
X130937000Y-131256370D01*
X130937000Y-129933440D01*
X131038600Y-129933440D01*
X131273917Y-129889162D01*
X131490041Y-129750090D01*
X131635031Y-129537890D01*
X131686040Y-129286000D01*
X131686040Y-127254000D01*
X131641762Y-127018683D01*
X131502690Y-126802559D01*
X131290490Y-126657569D01*
X131038600Y-126606560D01*
X129311400Y-126606560D01*
X129076083Y-126650838D01*
X128859959Y-126789910D01*
X128714969Y-127002110D01*
X128706600Y-127043439D01*
X128694670Y-127025585D01*
X128208489Y-126700729D01*
X127635000Y-126586655D01*
X127061511Y-126700729D01*
X126806052Y-126871421D01*
X126330964Y-126396334D01*
X126491757Y-126009100D01*
X126491815Y-125942838D01*
X126804630Y-126072730D01*
X127193663Y-126073069D01*
X127553212Y-125924507D01*
X127671726Y-125806200D01*
X134960412Y-125806200D01*
X135387106Y-126232895D01*
G36*
X209480143Y-117809069D02*
X208915000Y-117696655D01*
X208283190Y-117822330D01*
X207747567Y-118180222D01*
X207389675Y-118715845D01*
X207264000Y-119347655D01*
X207264000Y-119412345D01*
X207389675Y-120044155D01*
X207592004Y-120346962D01*
X207447559Y-120439910D01*
X207302569Y-120652110D01*
X207251560Y-120904000D01*
X207251560Y-122936000D01*
X207295838Y-123171317D01*
X207434910Y-123387441D01*
X207616361Y-123511421D01*
X207564268Y-123557964D01*
X207310291Y-124085209D01*
X207307642Y-124100974D01*
X207428783Y-124333000D01*
X208788000Y-124333000D01*
X208788000Y-124313000D01*
X209042000Y-124313000D01*
X209042000Y-124333000D01*
X210401217Y-124333000D01*
X210522358Y-124100974D01*
X210519709Y-124085209D01*
X210265732Y-123557964D01*
X210211876Y-123509846D01*
X210382441Y-123400090D01*
X210527431Y-123187890D01*
X210578440Y-122936000D01*
X210578440Y-120904000D01*
X210534162Y-120668683D01*
X210395090Y-120452559D01*
X210238794Y-120345767D01*
X210440325Y-120044155D01*
X210566000Y-119412345D01*
X210566000Y-119347655D01*
X210464319Y-118836469D01*
X211114588Y-118186200D01*
X294345412Y-118186200D01*
X295198800Y-119039589D01*
X295198800Y-119404398D01*
X294895302Y-119607189D01*
X294640000Y-119989275D01*
X294384698Y-119607189D01*
X293919151Y-119296120D01*
X293370000Y-119186887D01*
X292820849Y-119296120D01*
X292355302Y-119607189D01*
X292100000Y-119989275D01*
X291844698Y-119607189D01*
X291379151Y-119296120D01*
X290830000Y-119186887D01*
X290280849Y-119296120D01*
X289815302Y-119607189D01*
X289560000Y-119989275D01*
X289304698Y-119607189D01*
X288839151Y-119296120D01*
X288290000Y-119186887D01*
X287740849Y-119296120D01*
X287275302Y-119607189D01*
X287005014Y-120011703D01*
X286902389Y-119794866D01*
X286487423Y-119418959D01*
X286099039Y-119258096D01*
X285877000Y-119380085D01*
X285877000Y-120523000D01*
X285897000Y-120523000D01*
X285897000Y-120777000D01*
X285877000Y-120777000D01*
X285877000Y-120797000D01*
X285623000Y-120797000D01*
X285623000Y-120777000D01*
X285603000Y-120777000D01*
X285603000Y-120523000D01*
X285623000Y-120523000D01*
X285623000Y-119380085D01*
X285400961Y-119258096D01*
X285012577Y-119418959D01*
X284597611Y-119794866D01*
X284494986Y-120011703D01*
X284224698Y-119607189D01*
X283759151Y-119296120D01*
X283210000Y-119186887D01*
X282660849Y-119296120D01*
X282195302Y-119607189D01*
X281940000Y-119989275D01*
X281684698Y-119607189D01*
X281219151Y-119296120D01*
X280670000Y-119186887D01*
X280120849Y-119296120D01*
X279655302Y-119607189D01*
X279400000Y-119989275D01*
X279144698Y-119607189D01*
X278679151Y-119296120D01*
X278130000Y-119186887D01*
X277580849Y-119296120D01*
X277115302Y-119607189D01*
X276860000Y-119989275D01*
X276604698Y-119607189D01*
X276139151Y-119296120D01*
X275590000Y-119186887D01*
X275040849Y-119296120D01*
X274575302Y-119607189D01*
X274320000Y-119989275D01*
X274064698Y-119607189D01*
X273599151Y-119296120D01*
X273050000Y-119186887D01*
X272500849Y-119296120D01*
X272035302Y-119607189D01*
X271780000Y-119989275D01*
X271524698Y-119607189D01*
X271059151Y-119296120D01*
X270510000Y-119186887D01*
X269960849Y-119296120D01*
X269495302Y-119607189D01*
X269240000Y-119989275D01*
X268984698Y-119607189D01*
X268519151Y-119296120D01*
X267970000Y-119186887D01*
X267420849Y-119296120D01*
X266955302Y-119607189D01*
X266733726Y-119938800D01*
X266065000Y-119938800D01*
X265837990Y-119983955D01*
X265792835Y-119992937D01*
X265562105Y-120147106D01*
X264972440Y-120736771D01*
X264972440Y-119850000D01*
X264928162Y-119614683D01*
X264789090Y-119398559D01*
X264576890Y-119253569D01*
X264325000Y-119202560D01*
X262725000Y-119202560D01*
X262489683Y-119246838D01*
X262273559Y-119385910D01*
X262128569Y-119598110D01*
X262097185Y-119753089D01*
X261999698Y-119607189D01*
X261534151Y-119296120D01*
X260985000Y-119186887D01*
X260435849Y-119296120D01*
X259970302Y-119607189D01*
X259715000Y-119989275D01*
X259459698Y-119607189D01*
X258994151Y-119296120D01*
X258445000Y-119186887D01*
X257895849Y-119296120D01*
X257430302Y-119607189D01*
X257175000Y-119989275D01*
X256919698Y-119607189D01*
X256454151Y-119296120D01*
X255905000Y-119186887D01*
X255355849Y-119296120D01*
X254890302Y-119607189D01*
X254635000Y-119989275D01*
X254379698Y-119607189D01*
X253914151Y-119296120D01*
X253365000Y-119186887D01*
X252815849Y-119296120D01*
X252350302Y-119607189D01*
X252080014Y-120011703D01*
X251977389Y-119794866D01*
X251562423Y-119418959D01*
X251174039Y-119258096D01*
X250952000Y-119380085D01*
X250952000Y-120523000D01*
X250972000Y-120523000D01*
X250972000Y-120777000D01*
X250952000Y-120777000D01*
X250952000Y-120797000D01*
X250698000Y-120797000D01*
X250698000Y-120777000D01*
X250678000Y-120777000D01*
X250678000Y-120523000D01*
X250698000Y-120523000D01*
X250698000Y-119380085D01*
X250475961Y-119258096D01*
X250087577Y-119418959D01*
X249672611Y-119794866D01*
X249569986Y-120011703D01*
X249299698Y-119607189D01*
X248834151Y-119296120D01*
X248285000Y-119186887D01*
X247735849Y-119296120D01*
X247270302Y-119607189D01*
X247015000Y-119989275D01*
X246759698Y-119607189D01*
X246294151Y-119296120D01*
X245745000Y-119186887D01*
X245195849Y-119296120D01*
X244730302Y-119607189D01*
X244419233Y-120072736D01*
X244319565Y-120573800D01*
X236514589Y-120573800D01*
X236296200Y-120355412D01*
X236296200Y-120015000D01*
X236242063Y-119742836D01*
X236181478Y-119652164D01*
X236087895Y-119512106D01*
X235452894Y-118877106D01*
X235222165Y-118722937D01*
X234950000Y-118668800D01*
X229870000Y-118668800D01*
X229597836Y-118722937D01*
X229367106Y-118877105D01*
X228991425Y-119252787D01*
X228958339Y-119252758D01*
X228444697Y-119464990D01*
X228051371Y-119857630D01*
X227965051Y-120065512D01*
X227880010Y-119859697D01*
X227487370Y-119466371D01*
X226974100Y-119253243D01*
X226418339Y-119252758D01*
X225904697Y-119464990D01*
X225511371Y-119857630D01*
X225362336Y-120216548D01*
X225292894Y-120147106D01*
X225062165Y-119992937D01*
X224790000Y-119938800D01*
X220292695Y-119938800D01*
X220260010Y-119859697D01*
X219867370Y-119466371D01*
X219354100Y-119253243D01*
X218798339Y-119252758D01*
X218284697Y-119464990D01*
X217891371Y-119857630D01*
X217805051Y-120065512D01*
X217720010Y-119859697D01*
X217327370Y-119466371D01*
X216814100Y-119253243D01*
X216258339Y-119252758D01*
X215744697Y-119464990D01*
X215351371Y-119857630D01*
X215265051Y-120065512D01*
X215180010Y-119859697D01*
X214787370Y-119466371D01*
X214274100Y-119253243D01*
X213718339Y-119252758D01*
X213204697Y-119464990D01*
X212811371Y-119857630D01*
X212598243Y-120370900D01*
X212597758Y-120926661D01*
X212809990Y-121440303D01*
X213202630Y-121833629D01*
X213715900Y-122046757D01*
X214271661Y-122047242D01*
X214785303Y-121835010D01*
X214797273Y-121823061D01*
X216032106Y-123057894D01*
X216262835Y-123212063D01*
X216535000Y-123266200D01*
X224495412Y-123266200D01*
X225557105Y-124327894D01*
X225787835Y-124482063D01*
X225832990Y-124491045D01*
X225969526Y-124518203D01*
X225904697Y-124544990D01*
X225511371Y-124937630D01*
X225298243Y-125450900D01*
X225297758Y-126006661D01*
X225424671Y-126313814D01*
X225394184Y-126334185D01*
X224907817Y-126820552D01*
X224728489Y-126700729D01*
X224155000Y-126586655D01*
X223581511Y-126700729D01*
X223095330Y-127025585D01*
X222885000Y-127340366D01*
X222674670Y-127025585D01*
X222188489Y-126700729D01*
X221615000Y-126586655D01*
X221041511Y-126700729D01*
X220555330Y-127025585D01*
X220345000Y-127340366D01*
X220134670Y-127025585D01*
X219906955Y-126873431D01*
X220258629Y-126522370D01*
X220471757Y-126009100D01*
X220472242Y-125453339D01*
X220260010Y-124939697D01*
X219867370Y-124546371D01*
X219354100Y-124333243D01*
X218798339Y-124332758D01*
X218284697Y-124544990D01*
X217891371Y-124937630D01*
X217805051Y-125145512D01*
X217720010Y-124939697D01*
X217327370Y-124546371D01*
X216814100Y-124333243D01*
X216258339Y-124332758D01*
X215744697Y-124544990D01*
X215351371Y-124937630D01*
X215265051Y-125145512D01*
X215180010Y-124939697D01*
X214787370Y-124546371D01*
X214274100Y-124333243D01*
X213718339Y-124332758D01*
X213204697Y-124544990D01*
X212811371Y-124937630D01*
X212598243Y-125450900D01*
X212597758Y-126006661D01*
X212809990Y-126520303D01*
X213162719Y-126873648D01*
X212935330Y-127025585D01*
X212725000Y-127340366D01*
X212514670Y-127025585D01*
X212028489Y-126700729D01*
X211455000Y-126586655D01*
X210881511Y-126700729D01*
X210395330Y-127025585D01*
X210185000Y-127340366D01*
X209974670Y-127025585D01*
X209488489Y-126700729D01*
X208915000Y-126586655D01*
X208341511Y-126700729D01*
X207855330Y-127025585D01*
X207530474Y-127511766D01*
X207416400Y-128085255D01*
X207416400Y-128454745D01*
X207530474Y-129028234D01*
X207855330Y-129514415D01*
X208341511Y-129839271D01*
X208529670Y-129876698D01*
X210693000Y-132040029D01*
X210693000Y-139065000D01*
X210751004Y-139356605D01*
X210798906Y-139428295D01*
X210916185Y-139603815D01*
X212186184Y-140873815D01*
X212352918Y-140985223D01*
X212433395Y-141038996D01*
X212725000Y-141097000D01*
X234950000Y-141097000D01*
X235241605Y-141038996D01*
X235488815Y-140873815D01*
X235900631Y-140462000D01*
X249555000Y-140462000D01*
X249846605Y-140403996D01*
X250093815Y-140238815D01*
X250503473Y-139829157D01*
X250825000Y-139893113D01*
X251374151Y-139783880D01*
X251839698Y-139472811D01*
X252095000Y-139090725D01*
X252350302Y-139472811D01*
X252815849Y-139783880D01*
X253365000Y-139893113D01*
X253914151Y-139783880D01*
X254379698Y-139472811D01*
X254635000Y-139090725D01*
X254890302Y-139472811D01*
X255355849Y-139783880D01*
X255905000Y-139893113D01*
X256454151Y-139783880D01*
X256919698Y-139472811D01*
X257175000Y-139090725D01*
X257430302Y-139472811D01*
X257895849Y-139783880D01*
X258445000Y-139893113D01*
X258994151Y-139783880D01*
X259459698Y-139472811D01*
X259715000Y-139090725D01*
X259970302Y-139472811D01*
X260435849Y-139783880D01*
X260985000Y-139893113D01*
X261534151Y-139783880D01*
X261999698Y-139472811D01*
X262255000Y-139090725D01*
X262510302Y-139472811D01*
X262975849Y-139783880D01*
X263525000Y-139893113D01*
X264074151Y-139783880D01*
X264539698Y-139472811D01*
X264850767Y-139007264D01*
X264960000Y-138458113D01*
X264960000Y-138401887D01*
X264850767Y-137852736D01*
X264539698Y-137387189D01*
X264074151Y-137076120D01*
X263525000Y-136966887D01*
X263203473Y-137030843D01*
X260253815Y-134081185D01*
X260109864Y-133985000D01*
X260006605Y-133916004D01*
X259715000Y-133858000D01*
X242758630Y-133858000D01*
X242593551Y-133692921D01*
X242763663Y-133693069D01*
X243123212Y-133544507D01*
X243241726Y-133426200D01*
X252058206Y-133426200D01*
X252175341Y-133543540D01*
X252534630Y-133692730D01*
X252923663Y-133693069D01*
X253283212Y-133544507D01*
X253558540Y-133269659D01*
X253707730Y-132910370D01*
X253708069Y-132521337D01*
X253587240Y-132228907D01*
X253914151Y-132163880D01*
X254379698Y-131852811D01*
X254635000Y-131470725D01*
X254890302Y-131852811D01*
X255355849Y-132163880D01*
X255905000Y-132273113D01*
X256454151Y-132163880D01*
X256919698Y-131852811D01*
X257175000Y-131470725D01*
X257430302Y-131852811D01*
X257895849Y-132163880D01*
X258445000Y-132273113D01*
X258994151Y-132163880D01*
X259459698Y-131852811D01*
X259715000Y-131470725D01*
X259970302Y-131852811D01*
X260435849Y-132163880D01*
X260985000Y-132273113D01*
X261534151Y-132163880D01*
X261999698Y-131852811D01*
X262096101Y-131708535D01*
X262121838Y-131845317D01*
X262260910Y-132061441D01*
X262473110Y-132206431D01*
X262725000Y-132257440D01*
X264325000Y-132257440D01*
X264560317Y-132213162D01*
X264776441Y-132074090D01*
X264921431Y-131861890D01*
X264972440Y-131610000D01*
X264972440Y-130010000D01*
X264928162Y-129774683D01*
X264789090Y-129558559D01*
X264576890Y-129413569D01*
X264398796Y-129377504D01*
X264660052Y-129140840D01*
X266992075Y-131472863D01*
X266991931Y-131638663D01*
X267140493Y-131998212D01*
X267415341Y-132273540D01*
X267774630Y-132422730D01*
X268163663Y-132423069D01*
X268523212Y-132274507D01*
X268798540Y-131999659D01*
X268947730Y-131640370D01*
X268948069Y-131251337D01*
X268799507Y-130891788D01*
X268524659Y-130616460D01*
X268165370Y-130467270D01*
X267997912Y-130467124D01*
X266465304Y-128934516D01*
X266700000Y-128981200D01*
X266733726Y-128981200D01*
X266955302Y-129312811D01*
X267420849Y-129623880D01*
X267970000Y-129733113D01*
X268519151Y-129623880D01*
X268984698Y-129312811D01*
X269240000Y-128930725D01*
X269495302Y-129312811D01*
X269960849Y-129623880D01*
X270510000Y-129733113D01*
X271059151Y-129623880D01*
X271524698Y-129312811D01*
X271780000Y-128930725D01*
X272035302Y-129312811D01*
X272500849Y-129623880D01*
X273050000Y-129733113D01*
X273599151Y-129623880D01*
X273977247Y-129371244D01*
X273976931Y-129733663D01*
X274125493Y-130093212D01*
X274243800Y-130211726D01*
X274243800Y-136525000D01*
X274297937Y-136797165D01*
X274452106Y-137027894D01*
X275247075Y-137822864D01*
X275246931Y-137988663D01*
X275395493Y-138348212D01*
X275670341Y-138623540D01*
X276029630Y-138772730D01*
X276418663Y-138773069D01*
X276555331Y-138716599D01*
X276665493Y-138983212D01*
X276940341Y-139258540D01*
X277299630Y-139407730D01*
X277688663Y-139408069D01*
X278048212Y-139259507D01*
X278323540Y-138984659D01*
X278472730Y-138625370D01*
X278472876Y-138457912D01*
X279902894Y-137027894D01*
X280057063Y-136797165D01*
X280111200Y-136525000D01*
X280111200Y-133543663D01*
X288581931Y-133543663D01*
X288730493Y-133903212D01*
X289005341Y-134178540D01*
X289364630Y-134327730D01*
X289753663Y-134328069D01*
X290113212Y-134179507D01*
X290118800Y-134173929D01*
X290118800Y-134960411D01*
X289532136Y-135547075D01*
X289366337Y-135546931D01*
X289006788Y-135695493D01*
X288731460Y-135970341D01*
X288582270Y-136329630D01*
X288581931Y-136718663D01*
X288730493Y-137078212D01*
X289005341Y-137353540D01*
X289364630Y-137502730D01*
X289753663Y-137503069D01*
X290113212Y-137354507D01*
X290388540Y-137079659D01*
X290537730Y-136720370D01*
X290537876Y-136552912D01*
X290641529Y-136449259D01*
X290910341Y-136718540D01*
X291269630Y-136867730D01*
X291658663Y-136868069D01*
X292018212Y-136719507D01*
X292293540Y-136444659D01*
X292404790Y-136176739D01*
X292539630Y-136232730D01*
X292928663Y-136233069D01*
X293288212Y-136084507D01*
X293563540Y-135809659D01*
X293674790Y-135541739D01*
X293809630Y-135597730D01*
X294198663Y-135598069D01*
X294558212Y-135449507D01*
X294833540Y-135174659D01*
X294982730Y-134815370D01*
X294982876Y-134647912D01*
X296412894Y-133217894D01*
X296567063Y-132987165D01*
X296612068Y-132760911D01*
X296738540Y-132634659D01*
X296887730Y-132275370D01*
X296887834Y-132156200D01*
X297520412Y-132156200D01*
X298373800Y-133009589D01*
X298373800Y-133108960D01*
X296951400Y-133108960D01*
X296716083Y-133153238D01*
X296499959Y-133292310D01*
X296354969Y-133504510D01*
X296303960Y-133756400D01*
X296303960Y-135483600D01*
X296348238Y-135718917D01*
X296487310Y-135935041D01*
X296699510Y-136080031D01*
X296743345Y-136088908D01*
X296430474Y-136557152D01*
X296316400Y-137130641D01*
X296316400Y-137189359D01*
X296421712Y-137718800D01*
X296252967Y-137718800D01*
X296253069Y-137601337D01*
X296104507Y-137241788D01*
X295829659Y-136966460D01*
X295470370Y-136817270D01*
X295081337Y-136816931D01*
X294721788Y-136965493D01*
X294446460Y-137240341D01*
X294297270Y-137599630D01*
X294296931Y-137988663D01*
X294445493Y-138348212D01*
X294720341Y-138623540D01*
X295079630Y-138772730D01*
X295247087Y-138772876D01*
X295407106Y-138932895D01*
X295637836Y-139087063D01*
X295910000Y-139141200D01*
X296421712Y-139141200D01*
X296316400Y-139670641D01*
X296316400Y-139729359D01*
X296430474Y-140302848D01*
X296755330Y-140789029D01*
X297241511Y-141113885D01*
X297815000Y-141227959D01*
X298388489Y-141113885D01*
X298874670Y-140789029D01*
X299085000Y-140474248D01*
X299295330Y-140789029D01*
X299781511Y-141113885D01*
X300355000Y-141227959D01*
X300928489Y-141113885D01*
X301414670Y-140789029D01*
X301739526Y-140302848D01*
X301853600Y-139729359D01*
X301853600Y-139670641D01*
X301739526Y-139097152D01*
X301414670Y-138610971D01*
X301143828Y-138430000D01*
X301414670Y-138249029D01*
X301739526Y-137762848D01*
X301853600Y-137189359D01*
X301853600Y-137130641D01*
X301739526Y-136557152D01*
X301414670Y-136070971D01*
X301143839Y-135890008D01*
X301561821Y-135508490D01*
X301809968Y-134979027D01*
X301689469Y-134747000D01*
X300482000Y-134747000D01*
X300482000Y-134767000D01*
X300228000Y-134767000D01*
X300228000Y-134747000D01*
X300208000Y-134747000D01*
X300208000Y-134493000D01*
X300228000Y-134493000D01*
X300228000Y-133286183D01*
X300482000Y-133286183D01*
X300482000Y-134493000D01*
X301689469Y-134493000D01*
X301809968Y-134260973D01*
X301596882Y-133806318D01*
X301622587Y-133806318D01*
X301860669Y-134308500D01*
X302272805Y-134681346D01*
X302656580Y-134840311D01*
X302876949Y-134718180D01*
X302876949Y-133585949D01*
X303130949Y-133585949D01*
X303130949Y-134718180D01*
X303351318Y-134840311D01*
X303853500Y-134602229D01*
X304226346Y-134190093D01*
X304385311Y-133806318D01*
X304263180Y-133585949D01*
X303130949Y-133585949D01*
X302876949Y-133585949D01*
X301744718Y-133585949D01*
X301622587Y-133806318D01*
X301596882Y-133806318D01*
X301561821Y-133731510D01*
X301129947Y-133337312D01*
X300714026Y-133165042D01*
X300482000Y-133286183D01*
X300228000Y-133286183D01*
X299995974Y-133165042D01*
X299796200Y-133247786D01*
X299796200Y-133111580D01*
X301622587Y-133111580D01*
X301744718Y-133331949D01*
X302876949Y-133331949D01*
X302876949Y-133265200D01*
X303018090Y-133265200D01*
X303197698Y-133444808D01*
X303310557Y-133331949D01*
X304263180Y-133331949D01*
X304321328Y-133227029D01*
X304676766Y-133464526D01*
X305250255Y-133578600D01*
X305619745Y-133578600D01*
X306193234Y-133464526D01*
X306679415Y-133139670D01*
X307004271Y-132653489D01*
X307118345Y-132080000D01*
X307004271Y-131506511D01*
X306679415Y-131020330D01*
X306364634Y-130810000D01*
X306679415Y-130599670D01*
X307004271Y-130113489D01*
X307118345Y-129540000D01*
X307004271Y-128966511D01*
X306679415Y-128480330D01*
X306364634Y-128270000D01*
X306679415Y-128059670D01*
X307004271Y-127573489D01*
X307118345Y-127000000D01*
X307004271Y-126426511D01*
X306679415Y-125940330D01*
X306364634Y-125730000D01*
X306679415Y-125519670D01*
X307004271Y-125033489D01*
X307118345Y-124460000D01*
X307004271Y-123886511D01*
X306679415Y-123400330D01*
X306193234Y-123075474D01*
X305619745Y-122961400D01*
X305250255Y-122961400D01*
X304676766Y-123075474D01*
X304190585Y-123400330D01*
X303865729Y-123886511D01*
X303751655Y-124460000D01*
X303865729Y-125033489D01*
X304190585Y-125519670D01*
X304505366Y-125730000D01*
X304190585Y-125940330D01*
X303865729Y-126426511D01*
X303751655Y-127000000D01*
X303865729Y-127573489D01*
X304190585Y-128059670D01*
X304505366Y-128270000D01*
X304190585Y-128480330D01*
X303865729Y-128966511D01*
X303751655Y-129540000D01*
X303865729Y-130113489D01*
X304190585Y-130599670D01*
X304505366Y-130810000D01*
X304190585Y-131020330D01*
X303865729Y-131506511D01*
X303751655Y-132080000D01*
X303793263Y-132289176D01*
X303735093Y-132236552D01*
X303351318Y-132077587D01*
X303130949Y-132199718D01*
X303130949Y-133152341D01*
X303018090Y-133265200D01*
X302876949Y-133265200D01*
X302876949Y-132199718D01*
X302656580Y-132077587D01*
X302154398Y-132315669D01*
X301781552Y-132727805D01*
X301622587Y-133111580D01*
X299796200Y-133111580D01*
X299796200Y-132715000D01*
X299742063Y-132442836D01*
X299742063Y-132442835D01*
X299587894Y-132212105D01*
X298317894Y-130942106D01*
X298087165Y-130787937D01*
X297815000Y-130733800D01*
X291465000Y-130733800D01*
X291192835Y-130787937D01*
X290962106Y-130942106D01*
X289532137Y-132372075D01*
X289366337Y-132371931D01*
X289006788Y-132520493D01*
X288731460Y-132795341D01*
X288582270Y-133154630D01*
X288581931Y-133543663D01*
X280111200Y-133543663D01*
X280111200Y-131730750D01*
X281925000Y-131730750D01*
X281925000Y-132221310D01*
X282021673Y-132454699D01*
X282200302Y-132633327D01*
X282433691Y-132730000D01*
X282924250Y-132730000D01*
X283083000Y-132571250D01*
X283083000Y-131572000D01*
X282083750Y-131572000D01*
X281925000Y-131730750D01*
X280111200Y-131730750D01*
X280111200Y-130668690D01*
X281925000Y-130668690D01*
X281925000Y-131159250D01*
X282083750Y-131318000D01*
X283083000Y-131318000D01*
X283083000Y-130318750D01*
X283337000Y-130318750D01*
X283337000Y-131318000D01*
X283357000Y-131318000D01*
X283357000Y-131572000D01*
X283337000Y-131572000D01*
X283337000Y-132571250D01*
X283495750Y-132730000D01*
X283986309Y-132730000D01*
X284219698Y-132633327D01*
X284398327Y-132454699D01*
X284495000Y-132221310D01*
X284495000Y-131869433D01*
X284619995Y-132171943D01*
X284981155Y-132533735D01*
X285453276Y-132729777D01*
X285964481Y-132730223D01*
X286436943Y-132535005D01*
X286798735Y-132173845D01*
X286994777Y-131701724D01*
X286995223Y-131190519D01*
X286800005Y-130718057D01*
X286438845Y-130356265D01*
X285966724Y-130160223D01*
X285455519Y-130159777D01*
X284983057Y-130354995D01*
X284621265Y-130716155D01*
X284495000Y-131020235D01*
X284495000Y-130668690D01*
X284398327Y-130435301D01*
X284219698Y-130256673D01*
X283986309Y-130160000D01*
X283495750Y-130160000D01*
X283337000Y-130318750D01*
X283083000Y-130318750D01*
X282924250Y-130160000D01*
X282433691Y-130160000D01*
X282200302Y-130256673D01*
X282021673Y-130435301D01*
X281925000Y-130668690D01*
X280111200Y-130668690D01*
X280111200Y-129575024D01*
X280320961Y-129661904D01*
X280543000Y-129539915D01*
X280543000Y-128397000D01*
X280797000Y-128397000D01*
X280797000Y-129539915D01*
X281019039Y-129661904D01*
X281407423Y-129501041D01*
X281822389Y-129125134D01*
X281940000Y-128876633D01*
X282057611Y-129125134D01*
X282472577Y-129501041D01*
X282860961Y-129661904D01*
X283083000Y-129539915D01*
X283083000Y-128397000D01*
X280797000Y-128397000D01*
X280543000Y-128397000D01*
X280523000Y-128397000D01*
X280523000Y-128143000D01*
X280543000Y-128143000D01*
X280543000Y-127000085D01*
X280797000Y-127000085D01*
X280797000Y-128143000D01*
X283083000Y-128143000D01*
X283083000Y-127000085D01*
X282860961Y-126878096D01*
X282472577Y-127038959D01*
X282057611Y-127414866D01*
X281940000Y-127663367D01*
X281822389Y-127414866D01*
X281407423Y-127038959D01*
X281019039Y-126878096D01*
X280797000Y-127000085D01*
X280543000Y-127000085D01*
X280320961Y-126878096D01*
X279932577Y-127038959D01*
X279868129Y-127097340D01*
X279107925Y-126337136D01*
X279108069Y-126171337D01*
X278959507Y-125811788D01*
X278953929Y-125806200D01*
X287655000Y-125806200D01*
X287927165Y-125752063D01*
X288157894Y-125597894D01*
X288213800Y-125541988D01*
X288213800Y-126070411D01*
X287995412Y-126288800D01*
X287655000Y-126288800D01*
X287382836Y-126342937D01*
X287152106Y-126497105D01*
X286559279Y-127089933D01*
X286299151Y-126916120D01*
X285750000Y-126806887D01*
X285200849Y-126916120D01*
X284735302Y-127227189D01*
X284465014Y-127631703D01*
X284362389Y-127414866D01*
X283947423Y-127038959D01*
X283559039Y-126878096D01*
X283337000Y-127000085D01*
X283337000Y-128143000D01*
X283357000Y-128143000D01*
X283357000Y-128397000D01*
X283337000Y-128397000D01*
X283337000Y-129539915D01*
X283559039Y-129661904D01*
X283947423Y-129501041D01*
X284362389Y-129125134D01*
X284465014Y-128908297D01*
X284735302Y-129312811D01*
X285200849Y-129623880D01*
X285750000Y-129733113D01*
X286299151Y-129623880D01*
X286559279Y-129450067D01*
X287152106Y-130042895D01*
X287382836Y-130197063D01*
X287655000Y-130251200D01*
X290195000Y-130251200D01*
X290467165Y-130197063D01*
X290697894Y-130042894D01*
X291051793Y-129688996D01*
X291379151Y-129623880D01*
X291844698Y-129312811D01*
X292100000Y-128930725D01*
X292355302Y-129312811D01*
X292820849Y-129623880D01*
X293370000Y-129733113D01*
X293919151Y-129623880D01*
X294384698Y-129312811D01*
X294640000Y-128930725D01*
X294895302Y-129312811D01*
X295360849Y-129623880D01*
X295910000Y-129733113D01*
X296459151Y-129623880D01*
X296924698Y-129312811D01*
X297180000Y-128930725D01*
X297435302Y-129312811D01*
X297900849Y-129623880D01*
X298450000Y-129733113D01*
X298999151Y-129623880D01*
X299464698Y-129312811D01*
X299720000Y-128930725D01*
X299975302Y-129312811D01*
X300440849Y-129623880D01*
X300990000Y-129733113D01*
X301539151Y-129623880D01*
X302004698Y-129312811D01*
X302315767Y-128847264D01*
X302425000Y-128298113D01*
X302425000Y-128241887D01*
X302315767Y-127692736D01*
X302004698Y-127227189D01*
X301539151Y-126916120D01*
X300990000Y-126806887D01*
X300608550Y-126882762D01*
X300222894Y-126497106D01*
X299992165Y-126342937D01*
X299720000Y-126288800D01*
X291124589Y-126288800D01*
X290906200Y-126070412D01*
X290906200Y-123190000D01*
X290852063Y-122917836D01*
X290852063Y-122917835D01*
X290697894Y-122687105D01*
X289464475Y-121453687D01*
X289560000Y-121310725D01*
X289815302Y-121692811D01*
X290280849Y-122003880D01*
X290830000Y-122113113D01*
X291379151Y-122003880D01*
X291844698Y-121692811D01*
X292100000Y-121310725D01*
X292355302Y-121692811D01*
X292820849Y-122003880D01*
X293370000Y-122113113D01*
X293919151Y-122003880D01*
X294384698Y-121692811D01*
X294640000Y-121310725D01*
X294895302Y-121692811D01*
X295360849Y-122003880D01*
X295910000Y-122113113D01*
X296459151Y-122003880D01*
X296924698Y-121692811D01*
X297180000Y-121310725D01*
X297435302Y-121692811D01*
X297900849Y-122003880D01*
X298450000Y-122113113D01*
X298999151Y-122003880D01*
X299464698Y-121692811D01*
X299720000Y-121310725D01*
X299975302Y-121692811D01*
X300440849Y-122003880D01*
X300990000Y-122113113D01*
X301539151Y-122003880D01*
X302004698Y-121692811D01*
X302315767Y-121227264D01*
X302425000Y-120678113D01*
X302425000Y-120621887D01*
X302319440Y-120091200D01*
X309021109Y-120091200D01*
X309192004Y-120346962D01*
X309047559Y-120439910D01*
X308902569Y-120652110D01*
X308851560Y-120904000D01*
X308851560Y-122936000D01*
X308895838Y-123171317D01*
X309034910Y-123387441D01*
X309216361Y-123511421D01*
X309164268Y-123557964D01*
X308910291Y-124085209D01*
X308907642Y-124100974D01*
X309028783Y-124333000D01*
X310388000Y-124333000D01*
X310388000Y-124313000D01*
X310642000Y-124313000D01*
X310642000Y-124333000D01*
X310662000Y-124333000D01*
X310662000Y-124587000D01*
X310642000Y-124587000D01*
X310642000Y-124607000D01*
X310388000Y-124607000D01*
X310388000Y-124587000D01*
X309028783Y-124587000D01*
X308907642Y-124819026D01*
X308910291Y-124834791D01*
X309164268Y-125362036D01*
X309580069Y-125733539D01*
X309270585Y-125940330D01*
X308945729Y-126426511D01*
X308831655Y-127000000D01*
X308945729Y-127573489D01*
X309270585Y-128059670D01*
X309585366Y-128270000D01*
X309270585Y-128480330D01*
X308945729Y-128966511D01*
X308831655Y-129540000D01*
X308945729Y-130113489D01*
X309270585Y-130599670D01*
X309580069Y-130806461D01*
X309164268Y-131177964D01*
X308910291Y-131705209D01*
X308907642Y-131720974D01*
X309028783Y-131953000D01*
X310388000Y-131953000D01*
X310388000Y-131933000D01*
X310642000Y-131933000D01*
X310642000Y-131953000D01*
X310662000Y-131953000D01*
X310662000Y-132207000D01*
X310642000Y-132207000D01*
X310642000Y-132227000D01*
X310388000Y-132227000D01*
X310388000Y-132207000D01*
X309028783Y-132207000D01*
X308907642Y-132439026D01*
X308910291Y-132454791D01*
X309164268Y-132982036D01*
X309580069Y-133353539D01*
X309270585Y-133560330D01*
X308945729Y-134046511D01*
X308831655Y-134620000D01*
X308945729Y-135193489D01*
X309270585Y-135679670D01*
X309585366Y-135890000D01*
X309270585Y-136100330D01*
X308945729Y-136586511D01*
X308831655Y-137160000D01*
X308945729Y-137733489D01*
X309270585Y-138219670D01*
X309585366Y-138430000D01*
X309270585Y-138640330D01*
X309037745Y-138988800D01*
X307761510Y-138988800D01*
X307755005Y-138973057D01*
X307393845Y-138611265D01*
X306937198Y-138421648D01*
X307386354Y-138236061D01*
X307779680Y-137843421D01*
X307992808Y-137330151D01*
X307993293Y-136774390D01*
X307781061Y-136260748D01*
X307388421Y-135867422D01*
X306875151Y-135654294D01*
X306319390Y-135653809D01*
X305805748Y-135866041D01*
X305412422Y-136258681D01*
X305199294Y-136771951D01*
X305198809Y-137327712D01*
X305411041Y-137841354D01*
X305803681Y-138234680D01*
X306316951Y-138447808D01*
X306330549Y-138447820D01*
X305938057Y-138609995D01*
X305576265Y-138971155D01*
X305462440Y-139245276D01*
X305462440Y-139050000D01*
X305418162Y-138814683D01*
X305279090Y-138598559D01*
X305066890Y-138453569D01*
X304815000Y-138402560D01*
X303515000Y-138402560D01*
X303279683Y-138446838D01*
X303063559Y-138585910D01*
X302918569Y-138798110D01*
X302867560Y-139050000D01*
X302867560Y-140350000D01*
X302911838Y-140585317D01*
X303050910Y-140801441D01*
X303263110Y-140946431D01*
X303515000Y-140997440D01*
X304815000Y-140997440D01*
X305050317Y-140953162D01*
X305266441Y-140814090D01*
X305411431Y-140601890D01*
X305462440Y-140350000D01*
X305462440Y-140154540D01*
X305574995Y-140426943D01*
X305936155Y-140788735D01*
X306408276Y-140984777D01*
X306919481Y-140985223D01*
X307391943Y-140790005D01*
X307753735Y-140428845D01*
X307761062Y-140411200D01*
X309037745Y-140411200D01*
X309270585Y-140759670D01*
X309756766Y-141084526D01*
X310330255Y-141198600D01*
X310699745Y-141198600D01*
X311273234Y-141084526D01*
X311759415Y-140759670D01*
X312084271Y-140273489D01*
X312198345Y-139700000D01*
X312084271Y-139126511D01*
X311759415Y-138640330D01*
X311444634Y-138430000D01*
X311759415Y-138219670D01*
X312084271Y-137733489D01*
X312198345Y-137160000D01*
X312084271Y-136586511D01*
X311833933Y-136211855D01*
X312345000Y-135700788D01*
X312345000Y-141530000D01*
X207085000Y-141530000D01*
X207085000Y-124819026D01*
X207307642Y-124819026D01*
X207310291Y-124834791D01*
X207564268Y-125362036D01*
X208000680Y-125751954D01*
X208553087Y-125945184D01*
X208788000Y-125800924D01*
X208788000Y-124587000D01*
X209042000Y-124587000D01*
X209042000Y-125800924D01*
X209276913Y-125945184D01*
X209829320Y-125751954D01*
X210265732Y-125362036D01*
X210519709Y-124834791D01*
X210522358Y-124819026D01*
X210401217Y-124587000D01*
X209042000Y-124587000D01*
X208788000Y-124587000D01*
X207428783Y-124587000D01*
X207307642Y-124819026D01*
X207085000Y-124819026D01*
X207085000Y-117550000D01*
X209739212Y-117550000D01*
X209480143Y-117809069D01*
X209480143Y-117809069D01*
G37*
X209480143Y-117809069D02*
X208915000Y-117696655D01*
X208283190Y-117822330D01*
X207747567Y-118180222D01*
X207389675Y-118715845D01*
X207264000Y-119347655D01*
X207264000Y-119412345D01*
X207389675Y-120044155D01*
X207592004Y-120346962D01*
X207447559Y-120439910D01*
X207302569Y-120652110D01*
X207251560Y-120904000D01*
X207251560Y-122936000D01*
X207295838Y-123171317D01*
X207434910Y-123387441D01*
X207616361Y-123511421D01*
X207564268Y-123557964D01*
X207310291Y-124085209D01*
X207307642Y-124100974D01*
X207428783Y-124333000D01*
X208788000Y-124333000D01*
X208788000Y-124313000D01*
X209042000Y-124313000D01*
X209042000Y-124333000D01*
X210401217Y-124333000D01*
X210522358Y-124100974D01*
X210519709Y-124085209D01*
X210265732Y-123557964D01*
X210211876Y-123509846D01*
X210382441Y-123400090D01*
X210527431Y-123187890D01*
X210578440Y-122936000D01*
X210578440Y-120904000D01*
X210534162Y-120668683D01*
X210395090Y-120452559D01*
X210238794Y-120345767D01*
X210440325Y-120044155D01*
X210566000Y-119412345D01*
X210566000Y-119347655D01*
X210464319Y-118836469D01*
X211114588Y-118186200D01*
X294345412Y-118186200D01*
X295198800Y-119039589D01*
X295198800Y-119404398D01*
X294895302Y-119607189D01*
X294640000Y-119989275D01*
X294384698Y-119607189D01*
X293919151Y-119296120D01*
X293370000Y-119186887D01*
X292820849Y-119296120D01*
X292355302Y-119607189D01*
X292100000Y-119989275D01*
X291844698Y-119607189D01*
X291379151Y-119296120D01*
X290830000Y-119186887D01*
X290280849Y-119296120D01*
X289815302Y-119607189D01*
X289560000Y-119989275D01*
X289304698Y-119607189D01*
X288839151Y-119296120D01*
X288290000Y-119186887D01*
X287740849Y-119296120D01*
X287275302Y-119607189D01*
X287005014Y-120011703D01*
X286902389Y-119794866D01*
X286487423Y-119418959D01*
X286099039Y-119258096D01*
X285877000Y-119380085D01*
X285877000Y-120523000D01*
X285897000Y-120523000D01*
X285897000Y-120777000D01*
X285877000Y-120777000D01*
X285877000Y-120797000D01*
X285623000Y-120797000D01*
X285623000Y-120777000D01*
X285603000Y-120777000D01*
X285603000Y-120523000D01*
X285623000Y-120523000D01*
X285623000Y-119380085D01*
X285400961Y-119258096D01*
X285012577Y-119418959D01*
X284597611Y-119794866D01*
X284494986Y-120011703D01*
X284224698Y-119607189D01*
X283759151Y-119296120D01*
X283210000Y-119186887D01*
X282660849Y-119296120D01*
X282195302Y-119607189D01*
X281940000Y-119989275D01*
X281684698Y-119607189D01*
X281219151Y-119296120D01*
X280670000Y-119186887D01*
X280120849Y-119296120D01*
X279655302Y-119607189D01*
X279400000Y-119989275D01*
X279144698Y-119607189D01*
X278679151Y-119296120D01*
X278130000Y-119186887D01*
X277580849Y-119296120D01*
X277115302Y-119607189D01*
X276860000Y-119989275D01*
X276604698Y-119607189D01*
X276139151Y-119296120D01*
X275590000Y-119186887D01*
X275040849Y-119296120D01*
X274575302Y-119607189D01*
X274320000Y-119989275D01*
X274064698Y-119607189D01*
X273599151Y-119296120D01*
X273050000Y-119186887D01*
X272500849Y-119296120D01*
X272035302Y-119607189D01*
X271780000Y-119989275D01*
X271524698Y-119607189D01*
X271059151Y-119296120D01*
X270510000Y-119186887D01*
X269960849Y-119296120D01*
X269495302Y-119607189D01*
X269240000Y-119989275D01*
X268984698Y-119607189D01*
X268519151Y-119296120D01*
X267970000Y-119186887D01*
X267420849Y-119296120D01*
X266955302Y-119607189D01*
X266733726Y-119938800D01*
X266065000Y-119938800D01*
X265837990Y-119983955D01*
X265792835Y-119992937D01*
X265562105Y-120147106D01*
X264972440Y-120736771D01*
X264972440Y-119850000D01*
X264928162Y-119614683D01*
X264789090Y-119398559D01*
X264576890Y-119253569D01*
X264325000Y-119202560D01*
X262725000Y-119202560D01*
X262489683Y-119246838D01*
X262273559Y-119385910D01*
X262128569Y-119598110D01*
X262097185Y-119753089D01*
X261999698Y-119607189D01*
X261534151Y-119296120D01*
X260985000Y-119186887D01*
X260435849Y-119296120D01*
X259970302Y-119607189D01*
X259715000Y-119989275D01*
X259459698Y-119607189D01*
X258994151Y-119296120D01*
X258445000Y-119186887D01*
X257895849Y-119296120D01*
X257430302Y-119607189D01*
X257175000Y-119989275D01*
X256919698Y-119607189D01*
X256454151Y-119296120D01*
X255905000Y-119186887D01*
X255355849Y-119296120D01*
X254890302Y-119607189D01*
X254635000Y-119989275D01*
X254379698Y-119607189D01*
X253914151Y-119296120D01*
X253365000Y-119186887D01*
X252815849Y-119296120D01*
X252350302Y-119607189D01*
X252080014Y-120011703D01*
X251977389Y-119794866D01*
X251562423Y-119418959D01*
X251174039Y-119258096D01*
X250952000Y-119380085D01*
X250952000Y-120523000D01*
X250972000Y-120523000D01*
X250972000Y-120777000D01*
X250952000Y-120777000D01*
X250952000Y-120797000D01*
X250698000Y-120797000D01*
X250698000Y-120777000D01*
X250678000Y-120777000D01*
X250678000Y-120523000D01*
X250698000Y-120523000D01*
X250698000Y-119380085D01*
X250475961Y-119258096D01*
X250087577Y-119418959D01*
X249672611Y-119794866D01*
X249569986Y-120011703D01*
X249299698Y-119607189D01*
X248834151Y-119296120D01*
X248285000Y-119186887D01*
X247735849Y-119296120D01*
X247270302Y-119607189D01*
X247015000Y-119989275D01*
X246759698Y-119607189D01*
X246294151Y-119296120D01*
X245745000Y-119186887D01*
X245195849Y-119296120D01*
X244730302Y-119607189D01*
X244419233Y-120072736D01*
X244319565Y-120573800D01*
X236514589Y-120573800D01*
X236296200Y-120355412D01*
X236296200Y-120015000D01*
X236242063Y-119742836D01*
X236181478Y-119652164D01*
X236087895Y-119512106D01*
X235452894Y-118877106D01*
X235222165Y-118722937D01*
X234950000Y-118668800D01*
X229870000Y-118668800D01*
X229597836Y-118722937D01*
X229367106Y-118877105D01*
X228991425Y-119252787D01*
X228958339Y-119252758D01*
X228444697Y-119464990D01*
X228051371Y-119857630D01*
X227965051Y-120065512D01*
X227880010Y-119859697D01*
X227487370Y-119466371D01*
X226974100Y-119253243D01*
X226418339Y-119252758D01*
X225904697Y-119464990D01*
X225511371Y-119857630D01*
X225362336Y-120216548D01*
X225292894Y-120147106D01*
X225062165Y-119992937D01*
X224790000Y-119938800D01*
X220292695Y-119938800D01*
X220260010Y-119859697D01*
X219867370Y-119466371D01*
X219354100Y-119253243D01*
X218798339Y-119252758D01*
X218284697Y-119464990D01*
X217891371Y-119857630D01*
X217805051Y-120065512D01*
X217720010Y-119859697D01*
X217327370Y-119466371D01*
X216814100Y-119253243D01*
X216258339Y-119252758D01*
X215744697Y-119464990D01*
X215351371Y-119857630D01*
X215265051Y-120065512D01*
X215180010Y-119859697D01*
X214787370Y-119466371D01*
X214274100Y-119253243D01*
X213718339Y-119252758D01*
X213204697Y-119464990D01*
X212811371Y-119857630D01*
X212598243Y-120370900D01*
X212597758Y-120926661D01*
X212809990Y-121440303D01*
X213202630Y-121833629D01*
X213715900Y-122046757D01*
X214271661Y-122047242D01*
X214785303Y-121835010D01*
X214797273Y-121823061D01*
X216032106Y-123057894D01*
X216262835Y-123212063D01*
X216535000Y-123266200D01*
X224495412Y-123266200D01*
X225557105Y-124327894D01*
X225787835Y-124482063D01*
X225832990Y-124491045D01*
X225969526Y-124518203D01*
X225904697Y-124544990D01*
X225511371Y-124937630D01*
X225298243Y-125450900D01*
X225297758Y-126006661D01*
X225424671Y-126313814D01*
X225394184Y-126334185D01*
X224907817Y-126820552D01*
X224728489Y-126700729D01*
X224155000Y-126586655D01*
X223581511Y-126700729D01*
X223095330Y-127025585D01*
X222885000Y-127340366D01*
X222674670Y-127025585D01*
X222188489Y-126700729D01*
X221615000Y-126586655D01*
X221041511Y-126700729D01*
X220555330Y-127025585D01*
X220345000Y-127340366D01*
X220134670Y-127025585D01*
X219906955Y-126873431D01*
X220258629Y-126522370D01*
X220471757Y-126009100D01*
X220472242Y-125453339D01*
X220260010Y-124939697D01*
X219867370Y-124546371D01*
X219354100Y-124333243D01*
X218798339Y-124332758D01*
X218284697Y-124544990D01*
X217891371Y-124937630D01*
X217805051Y-125145512D01*
X217720010Y-124939697D01*
X217327370Y-124546371D01*
X216814100Y-124333243D01*
X216258339Y-124332758D01*
X215744697Y-124544990D01*
X215351371Y-124937630D01*
X215265051Y-125145512D01*
X215180010Y-124939697D01*
X214787370Y-124546371D01*
X214274100Y-124333243D01*
X213718339Y-124332758D01*
X213204697Y-124544990D01*
X212811371Y-124937630D01*
X212598243Y-125450900D01*
X212597758Y-126006661D01*
X212809990Y-126520303D01*
X213162719Y-126873648D01*
X212935330Y-127025585D01*
X212725000Y-127340366D01*
X212514670Y-127025585D01*
X212028489Y-126700729D01*
X211455000Y-126586655D01*
X210881511Y-126700729D01*
X210395330Y-127025585D01*
X210185000Y-127340366D01*
X209974670Y-127025585D01*
X209488489Y-126700729D01*
X208915000Y-126586655D01*
X208341511Y-126700729D01*
X207855330Y-127025585D01*
X207530474Y-127511766D01*
X207416400Y-128085255D01*
X207416400Y-128454745D01*
X207530474Y-129028234D01*
X207855330Y-129514415D01*
X208341511Y-129839271D01*
X208529670Y-129876698D01*
X210693000Y-132040029D01*
X210693000Y-139065000D01*
X210751004Y-139356605D01*
X210798906Y-139428295D01*
X210916185Y-139603815D01*
X212186184Y-140873815D01*
X212352918Y-140985223D01*
X212433395Y-141038996D01*
X212725000Y-141097000D01*
X234950000Y-141097000D01*
X235241605Y-141038996D01*
X235488815Y-140873815D01*
X235900631Y-140462000D01*
X249555000Y-140462000D01*
X249846605Y-140403996D01*
X250093815Y-140238815D01*
X250503473Y-139829157D01*
X250825000Y-139893113D01*
X251374151Y-139783880D01*
X251839698Y-139472811D01*
X252095000Y-139090725D01*
X252350302Y-139472811D01*
X252815849Y-139783880D01*
X253365000Y-139893113D01*
X253914151Y-139783880D01*
X254379698Y-139472811D01*
X254635000Y-139090725D01*
X254890302Y-139472811D01*
X255355849Y-139783880D01*
X255905000Y-139893113D01*
X256454151Y-139783880D01*
X256919698Y-139472811D01*
X257175000Y-139090725D01*
X257430302Y-139472811D01*
X257895849Y-139783880D01*
X258445000Y-139893113D01*
X258994151Y-139783880D01*
X259459698Y-139472811D01*
X259715000Y-139090725D01*
X259970302Y-139472811D01*
X260435849Y-139783880D01*
X260985000Y-139893113D01*
X261534151Y-139783880D01*
X261999698Y-139472811D01*
X262255000Y-139090725D01*
X262510302Y-139472811D01*
X262975849Y-139783880D01*
X263525000Y-139893113D01*
X264074151Y-139783880D01*
X264539698Y-139472811D01*
X264850767Y-139007264D01*
X264960000Y-138458113D01*
X264960000Y-138401887D01*
X264850767Y-137852736D01*
X264539698Y-137387189D01*
X264074151Y-137076120D01*
X263525000Y-136966887D01*
X263203473Y-137030843D01*
X260253815Y-134081185D01*
X260109864Y-133985000D01*
X260006605Y-133916004D01*
X259715000Y-133858000D01*
X242758630Y-133858000D01*
X242593551Y-133692921D01*
X242763663Y-133693069D01*
X243123212Y-133544507D01*
X243241726Y-133426200D01*
X252058206Y-133426200D01*
X252175341Y-133543540D01*
X252534630Y-133692730D01*
X252923663Y-133693069D01*
X253283212Y-133544507D01*
X253558540Y-133269659D01*
X253707730Y-132910370D01*
X253708069Y-132521337D01*
X253587240Y-132228907D01*
X253914151Y-132163880D01*
X254379698Y-131852811D01*
X254635000Y-131470725D01*
X254890302Y-131852811D01*
X255355849Y-132163880D01*
X255905000Y-132273113D01*
X256454151Y-132163880D01*
X256919698Y-131852811D01*
X257175000Y-131470725D01*
X257430302Y-131852811D01*
X257895849Y-132163880D01*
X258445000Y-132273113D01*
X258994151Y-132163880D01*
X259459698Y-131852811D01*
X259715000Y-131470725D01*
X259970302Y-131852811D01*
X260435849Y-132163880D01*
X260985000Y-132273113D01*
X261534151Y-132163880D01*
X261999698Y-131852811D01*
X262096101Y-131708535D01*
X262121838Y-131845317D01*
X262260910Y-132061441D01*
X262473110Y-132206431D01*
X262725000Y-132257440D01*
X264325000Y-132257440D01*
X264560317Y-132213162D01*
X264776441Y-132074090D01*
X264921431Y-131861890D01*
X264972440Y-131610000D01*
X264972440Y-130010000D01*
X264928162Y-129774683D01*
X264789090Y-129558559D01*
X264576890Y-129413569D01*
X264398796Y-129377504D01*
X264660052Y-129140840D01*
X266992075Y-131472863D01*
X266991931Y-131638663D01*
X267140493Y-131998212D01*
X267415341Y-132273540D01*
X267774630Y-132422730D01*
X268163663Y-132423069D01*
X268523212Y-132274507D01*
X268798540Y-131999659D01*
X268947730Y-131640370D01*
X268948069Y-131251337D01*
X268799507Y-130891788D01*
X268524659Y-130616460D01*
X268165370Y-130467270D01*
X267997912Y-130467124D01*
X266465304Y-128934516D01*
X266700000Y-128981200D01*
X266733726Y-128981200D01*
X266955302Y-129312811D01*
X267420849Y-129623880D01*
X267970000Y-129733113D01*
X268519151Y-129623880D01*
X268984698Y-129312811D01*
X269240000Y-128930725D01*
X269495302Y-129312811D01*
X269960849Y-129623880D01*
X270510000Y-129733113D01*
X271059151Y-129623880D01*
X271524698Y-129312811D01*
X271780000Y-128930725D01*
X272035302Y-129312811D01*
X272500849Y-129623880D01*
X273050000Y-129733113D01*
X273599151Y-129623880D01*
X273977247Y-129371244D01*
X273976931Y-129733663D01*
X274125493Y-130093212D01*
X274243800Y-130211726D01*
X274243800Y-136525000D01*
X274297937Y-136797165D01*
X274452106Y-137027894D01*
X275247075Y-137822864D01*
X275246931Y-137988663D01*
X275395493Y-138348212D01*
X275670341Y-138623540D01*
X276029630Y-138772730D01*
X276418663Y-138773069D01*
X276555331Y-138716599D01*
X276665493Y-138983212D01*
X276940341Y-139258540D01*
X277299630Y-139407730D01*
X277688663Y-139408069D01*
X278048212Y-139259507D01*
X278323540Y-138984659D01*
X278472730Y-138625370D01*
X278472876Y-138457912D01*
X279902894Y-137027894D01*
X280057063Y-136797165D01*
X280111200Y-136525000D01*
X280111200Y-133543663D01*
X288581931Y-133543663D01*
X288730493Y-133903212D01*
X289005341Y-134178540D01*
X289364630Y-134327730D01*
X289753663Y-134328069D01*
X290113212Y-134179507D01*
X290118800Y-134173929D01*
X290118800Y-134960411D01*
X289532136Y-135547075D01*
X289366337Y-135546931D01*
X289006788Y-135695493D01*
X288731460Y-135970341D01*
X288582270Y-136329630D01*
X288581931Y-136718663D01*
X288730493Y-137078212D01*
X289005341Y-137353540D01*
X289364630Y-137502730D01*
X289753663Y-137503069D01*
X290113212Y-137354507D01*
X290388540Y-137079659D01*
X290537730Y-136720370D01*
X290537876Y-136552912D01*
X290641529Y-136449259D01*
X290910341Y-136718540D01*
X291269630Y-136867730D01*
X291658663Y-136868069D01*
X292018212Y-136719507D01*
X292293540Y-136444659D01*
X292404790Y-136176739D01*
X292539630Y-136232730D01*
X292928663Y-136233069D01*
X293288212Y-136084507D01*
X293563540Y-135809659D01*
X293674790Y-135541739D01*
X293809630Y-135597730D01*
X294198663Y-135598069D01*
X294558212Y-135449507D01*
X294833540Y-135174659D01*
X294982730Y-134815370D01*
X294982876Y-134647912D01*
X296412894Y-133217894D01*
X296567063Y-132987165D01*
X296612068Y-132760911D01*
X296738540Y-132634659D01*
X296887730Y-132275370D01*
X296887834Y-132156200D01*
X297520412Y-132156200D01*
X298373800Y-133009589D01*
X298373800Y-133108960D01*
X296951400Y-133108960D01*
X296716083Y-133153238D01*
X296499959Y-133292310D01*
X296354969Y-133504510D01*
X296303960Y-133756400D01*
X296303960Y-135483600D01*
X296348238Y-135718917D01*
X296487310Y-135935041D01*
X296699510Y-136080031D01*
X296743345Y-136088908D01*
X296430474Y-136557152D01*
X296316400Y-137130641D01*
X296316400Y-137189359D01*
X296421712Y-137718800D01*
X296252967Y-137718800D01*
X296253069Y-137601337D01*
X296104507Y-137241788D01*
X295829659Y-136966460D01*
X295470370Y-136817270D01*
X295081337Y-136816931D01*
X294721788Y-136965493D01*
X294446460Y-137240341D01*
X294297270Y-137599630D01*
X294296931Y-137988663D01*
X294445493Y-138348212D01*
X294720341Y-138623540D01*
X295079630Y-138772730D01*
X295247087Y-138772876D01*
X295407106Y-138932895D01*
X295637836Y-139087063D01*
X295910000Y-139141200D01*
X296421712Y-139141200D01*
X296316400Y-139670641D01*
X296316400Y-139729359D01*
X296430474Y-140302848D01*
X296755330Y-140789029D01*
X297241511Y-141113885D01*
X297815000Y-141227959D01*
X298388489Y-141113885D01*
X298874670Y-140789029D01*
X299085000Y-140474248D01*
X299295330Y-140789029D01*
X299781511Y-141113885D01*
X300355000Y-141227959D01*
X300928489Y-141113885D01*
X301414670Y-140789029D01*
X301739526Y-140302848D01*
X301853600Y-139729359D01*
X301853600Y-139670641D01*
X301739526Y-139097152D01*
X301414670Y-138610971D01*
X301143828Y-138430000D01*
X301414670Y-138249029D01*
X301739526Y-137762848D01*
X301853600Y-137189359D01*
X301853600Y-137130641D01*
X301739526Y-136557152D01*
X301414670Y-136070971D01*
X301143839Y-135890008D01*
X301561821Y-135508490D01*
X301809968Y-134979027D01*
X301689469Y-134747000D01*
X300482000Y-134747000D01*
X300482000Y-134767000D01*
X300228000Y-134767000D01*
X300228000Y-134747000D01*
X300208000Y-134747000D01*
X300208000Y-134493000D01*
X300228000Y-134493000D01*
X300228000Y-133286183D01*
X300482000Y-133286183D01*
X300482000Y-134493000D01*
X301689469Y-134493000D01*
X301809968Y-134260973D01*
X301596882Y-133806318D01*
X301622587Y-133806318D01*
X301860669Y-134308500D01*
X302272805Y-134681346D01*
X302656580Y-134840311D01*
X302876949Y-134718180D01*
X302876949Y-133585949D01*
X303130949Y-133585949D01*
X303130949Y-134718180D01*
X303351318Y-134840311D01*
X303853500Y-134602229D01*
X304226346Y-134190093D01*
X304385311Y-133806318D01*
X304263180Y-133585949D01*
X303130949Y-133585949D01*
X302876949Y-133585949D01*
X301744718Y-133585949D01*
X301622587Y-133806318D01*
X301596882Y-133806318D01*
X301561821Y-133731510D01*
X301129947Y-133337312D01*
X300714026Y-133165042D01*
X300482000Y-133286183D01*
X300228000Y-133286183D01*
X299995974Y-133165042D01*
X299796200Y-133247786D01*
X299796200Y-133111580D01*
X301622587Y-133111580D01*
X301744718Y-133331949D01*
X302876949Y-133331949D01*
X302876949Y-133265200D01*
X303018090Y-133265200D01*
X303197698Y-133444808D01*
X303310557Y-133331949D01*
X304263180Y-133331949D01*
X304321328Y-133227029D01*
X304676766Y-133464526D01*
X305250255Y-133578600D01*
X305619745Y-133578600D01*
X306193234Y-133464526D01*
X306679415Y-133139670D01*
X307004271Y-132653489D01*
X307118345Y-132080000D01*
X307004271Y-131506511D01*
X306679415Y-131020330D01*
X306364634Y-130810000D01*
X306679415Y-130599670D01*
X307004271Y-130113489D01*
X307118345Y-129540000D01*
X307004271Y-128966511D01*
X306679415Y-128480330D01*
X306364634Y-128270000D01*
X306679415Y-128059670D01*
X307004271Y-127573489D01*
X307118345Y-127000000D01*
X307004271Y-126426511D01*
X306679415Y-125940330D01*
X306364634Y-125730000D01*
X306679415Y-125519670D01*
X307004271Y-125033489D01*
X307118345Y-124460000D01*
X307004271Y-123886511D01*
X306679415Y-123400330D01*
X306193234Y-123075474D01*
X305619745Y-122961400D01*
X305250255Y-122961400D01*
X304676766Y-123075474D01*
X304190585Y-123400330D01*
X303865729Y-123886511D01*
X303751655Y-124460000D01*
X303865729Y-125033489D01*
X304190585Y-125519670D01*
X304505366Y-125730000D01*
X304190585Y-125940330D01*
X303865729Y-126426511D01*
X303751655Y-127000000D01*
X303865729Y-127573489D01*
X304190585Y-128059670D01*
X304505366Y-128270000D01*
X304190585Y-128480330D01*
X303865729Y-128966511D01*
X303751655Y-129540000D01*
X303865729Y-130113489D01*
X304190585Y-130599670D01*
X304505366Y-130810000D01*
X304190585Y-131020330D01*
X303865729Y-131506511D01*
X303751655Y-132080000D01*
X303793263Y-132289176D01*
X303735093Y-132236552D01*
X303351318Y-132077587D01*
X303130949Y-132199718D01*
X303130949Y-133152341D01*
X303018090Y-133265200D01*
X302876949Y-133265200D01*
X302876949Y-132199718D01*
X302656580Y-132077587D01*
X302154398Y-132315669D01*
X301781552Y-132727805D01*
X301622587Y-133111580D01*
X299796200Y-133111580D01*
X299796200Y-132715000D01*
X299742063Y-132442836D01*
X299742063Y-132442835D01*
X299587894Y-132212105D01*
X298317894Y-130942106D01*
X298087165Y-130787937D01*
X297815000Y-130733800D01*
X291465000Y-130733800D01*
X291192835Y-130787937D01*
X290962106Y-130942106D01*
X289532137Y-132372075D01*
X289366337Y-132371931D01*
X289006788Y-132520493D01*
X288731460Y-132795341D01*
X288582270Y-133154630D01*
X288581931Y-133543663D01*
X280111200Y-133543663D01*
X280111200Y-131730750D01*
X281925000Y-131730750D01*
X281925000Y-132221310D01*
X282021673Y-132454699D01*
X282200302Y-132633327D01*
X282433691Y-132730000D01*
X282924250Y-132730000D01*
X283083000Y-132571250D01*
X283083000Y-131572000D01*
X282083750Y-131572000D01*
X281925000Y-131730750D01*
X280111200Y-131730750D01*
X280111200Y-130668690D01*
X281925000Y-130668690D01*
X281925000Y-131159250D01*
X282083750Y-131318000D01*
X283083000Y-131318000D01*
X283083000Y-130318750D01*
X283337000Y-130318750D01*
X283337000Y-131318000D01*
X283357000Y-131318000D01*
X283357000Y-131572000D01*
X283337000Y-131572000D01*
X283337000Y-132571250D01*
X283495750Y-132730000D01*
X283986309Y-132730000D01*
X284219698Y-132633327D01*
X284398327Y-132454699D01*
X284495000Y-132221310D01*
X284495000Y-131869433D01*
X284619995Y-132171943D01*
X284981155Y-132533735D01*
X285453276Y-132729777D01*
X285964481Y-132730223D01*
X286436943Y-132535005D01*
X286798735Y-132173845D01*
X286994777Y-131701724D01*
X286995223Y-131190519D01*
X286800005Y-130718057D01*
X286438845Y-130356265D01*
X285966724Y-130160223D01*
X285455519Y-130159777D01*
X284983057Y-130354995D01*
X284621265Y-130716155D01*
X284495000Y-131020235D01*
X284495000Y-130668690D01*
X284398327Y-130435301D01*
X284219698Y-130256673D01*
X283986309Y-130160000D01*
X283495750Y-130160000D01*
X283337000Y-130318750D01*
X283083000Y-130318750D01*
X282924250Y-130160000D01*
X282433691Y-130160000D01*
X282200302Y-130256673D01*
X282021673Y-130435301D01*
X281925000Y-130668690D01*
X280111200Y-130668690D01*
X280111200Y-129575024D01*
X280320961Y-129661904D01*
X280543000Y-129539915D01*
X280543000Y-128397000D01*
X280797000Y-128397000D01*
X280797000Y-129539915D01*
X281019039Y-129661904D01*
X281407423Y-129501041D01*
X281822389Y-129125134D01*
X281940000Y-128876633D01*
X282057611Y-129125134D01*
X282472577Y-129501041D01*
X282860961Y-129661904D01*
X283083000Y-129539915D01*
X283083000Y-128397000D01*
X280797000Y-128397000D01*
X280543000Y-128397000D01*
X280523000Y-128397000D01*
X280523000Y-128143000D01*
X280543000Y-128143000D01*
X280543000Y-127000085D01*
X280797000Y-127000085D01*
X280797000Y-128143000D01*
X283083000Y-128143000D01*
X283083000Y-127000085D01*
X282860961Y-126878096D01*
X282472577Y-127038959D01*
X282057611Y-127414866D01*
X281940000Y-127663367D01*
X281822389Y-127414866D01*
X281407423Y-127038959D01*
X281019039Y-126878096D01*
X280797000Y-127000085D01*
X280543000Y-127000085D01*
X280320961Y-126878096D01*
X279932577Y-127038959D01*
X279868129Y-127097340D01*
X279107925Y-126337136D01*
X279108069Y-126171337D01*
X278959507Y-125811788D01*
X278953929Y-125806200D01*
X287655000Y-125806200D01*
X287927165Y-125752063D01*
X288157894Y-125597894D01*
X288213800Y-125541988D01*
X288213800Y-126070411D01*
X287995412Y-126288800D01*
X287655000Y-126288800D01*
X287382836Y-126342937D01*
X287152106Y-126497105D01*
X286559279Y-127089933D01*
X286299151Y-126916120D01*
X285750000Y-126806887D01*
X285200849Y-126916120D01*
X284735302Y-127227189D01*
X284465014Y-127631703D01*
X284362389Y-127414866D01*
X283947423Y-127038959D01*
X283559039Y-126878096D01*
X283337000Y-127000085D01*
X283337000Y-128143000D01*
X283357000Y-128143000D01*
X283357000Y-128397000D01*
X283337000Y-128397000D01*
X283337000Y-129539915D01*
X283559039Y-129661904D01*
X283947423Y-129501041D01*
X284362389Y-129125134D01*
X284465014Y-128908297D01*
X284735302Y-129312811D01*
X285200849Y-129623880D01*
X285750000Y-129733113D01*
X286299151Y-129623880D01*
X286559279Y-129450067D01*
X287152106Y-130042895D01*
X287382836Y-130197063D01*
X287655000Y-130251200D01*
X290195000Y-130251200D01*
X290467165Y-130197063D01*
X290697894Y-130042894D01*
X291051793Y-129688996D01*
X291379151Y-129623880D01*
X291844698Y-129312811D01*
X292100000Y-128930725D01*
X292355302Y-129312811D01*
X292820849Y-129623880D01*
X293370000Y-129733113D01*
X293919151Y-129623880D01*
X294384698Y-129312811D01*
X294640000Y-128930725D01*
X294895302Y-129312811D01*
X295360849Y-129623880D01*
X295910000Y-129733113D01*
X296459151Y-129623880D01*
X296924698Y-129312811D01*
X297180000Y-128930725D01*
X297435302Y-129312811D01*
X297900849Y-129623880D01*
X298450000Y-129733113D01*
X298999151Y-129623880D01*
X299464698Y-129312811D01*
X299720000Y-128930725D01*
X299975302Y-129312811D01*
X300440849Y-129623880D01*
X300990000Y-129733113D01*
X301539151Y-129623880D01*
X302004698Y-129312811D01*
X302315767Y-128847264D01*
X302425000Y-128298113D01*
X302425000Y-128241887D01*
X302315767Y-127692736D01*
X302004698Y-127227189D01*
X301539151Y-126916120D01*
X300990000Y-126806887D01*
X300608550Y-126882762D01*
X300222894Y-126497106D01*
X299992165Y-126342937D01*
X299720000Y-126288800D01*
X291124589Y-126288800D01*
X290906200Y-126070412D01*
X290906200Y-123190000D01*
X290852063Y-122917836D01*
X290852063Y-122917835D01*
X290697894Y-122687105D01*
X289464475Y-121453687D01*
X289560000Y-121310725D01*
X289815302Y-121692811D01*
X290280849Y-122003880D01*
X290830000Y-122113113D01*
X291379151Y-122003880D01*
X291844698Y-121692811D01*
X292100000Y-121310725D01*
X292355302Y-121692811D01*
X292820849Y-122003880D01*
X293370000Y-122113113D01*
X293919151Y-122003880D01*
X294384698Y-121692811D01*
X294640000Y-121310725D01*
X294895302Y-121692811D01*
X295360849Y-122003880D01*
X295910000Y-122113113D01*
X296459151Y-122003880D01*
X296924698Y-121692811D01*
X297180000Y-121310725D01*
X297435302Y-121692811D01*
X297900849Y-122003880D01*
X298450000Y-122113113D01*
X298999151Y-122003880D01*
X299464698Y-121692811D01*
X299720000Y-121310725D01*
X299975302Y-121692811D01*
X300440849Y-122003880D01*
X300990000Y-122113113D01*
X301539151Y-122003880D01*
X302004698Y-121692811D01*
X302315767Y-121227264D01*
X302425000Y-120678113D01*
X302425000Y-120621887D01*
X302319440Y-120091200D01*
X309021109Y-120091200D01*
X309192004Y-120346962D01*
X309047559Y-120439910D01*
X308902569Y-120652110D01*
X308851560Y-120904000D01*
X308851560Y-122936000D01*
X308895838Y-123171317D01*
X309034910Y-123387441D01*
X309216361Y-123511421D01*
X309164268Y-123557964D01*
X308910291Y-124085209D01*
X308907642Y-124100974D01*
X309028783Y-124333000D01*
X310388000Y-124333000D01*
X310388000Y-124313000D01*
X310642000Y-124313000D01*
X310642000Y-124333000D01*
X310662000Y-124333000D01*
X310662000Y-124587000D01*
X310642000Y-124587000D01*
X310642000Y-124607000D01*
X310388000Y-124607000D01*
X310388000Y-124587000D01*
X309028783Y-124587000D01*
X308907642Y-124819026D01*
X308910291Y-124834791D01*
X309164268Y-125362036D01*
X309580069Y-125733539D01*
X309270585Y-125940330D01*
X308945729Y-126426511D01*
X308831655Y-127000000D01*
X308945729Y-127573489D01*
X309270585Y-128059670D01*
X309585366Y-128270000D01*
X309270585Y-128480330D01*
X308945729Y-128966511D01*
X308831655Y-129540000D01*
X308945729Y-130113489D01*
X309270585Y-130599670D01*
X309580069Y-130806461D01*
X309164268Y-131177964D01*
X308910291Y-131705209D01*
X308907642Y-131720974D01*
X309028783Y-131953000D01*
X310388000Y-131953000D01*
X310388000Y-131933000D01*
X310642000Y-131933000D01*
X310642000Y-131953000D01*
X310662000Y-131953000D01*
X310662000Y-132207000D01*
X310642000Y-132207000D01*
X310642000Y-132227000D01*
X310388000Y-132227000D01*
X310388000Y-132207000D01*
X309028783Y-132207000D01*
X308907642Y-132439026D01*
X308910291Y-132454791D01*
X309164268Y-132982036D01*
X309580069Y-133353539D01*
X309270585Y-133560330D01*
X308945729Y-134046511D01*
X308831655Y-134620000D01*
X308945729Y-135193489D01*
X309270585Y-135679670D01*
X309585366Y-135890000D01*
X309270585Y-136100330D01*
X308945729Y-136586511D01*
X308831655Y-137160000D01*
X308945729Y-137733489D01*
X309270585Y-138219670D01*
X309585366Y-138430000D01*
X309270585Y-138640330D01*
X309037745Y-138988800D01*
X307761510Y-138988800D01*
X307755005Y-138973057D01*
X307393845Y-138611265D01*
X306937198Y-138421648D01*
X307386354Y-138236061D01*
X307779680Y-137843421D01*
X307992808Y-137330151D01*
X307993293Y-136774390D01*
X307781061Y-136260748D01*
X307388421Y-135867422D01*
X306875151Y-135654294D01*
X306319390Y-135653809D01*
X305805748Y-135866041D01*
X305412422Y-136258681D01*
X305199294Y-136771951D01*
X305198809Y-137327712D01*
X305411041Y-137841354D01*
X305803681Y-138234680D01*
X306316951Y-138447808D01*
X306330549Y-138447820D01*
X305938057Y-138609995D01*
X305576265Y-138971155D01*
X305462440Y-139245276D01*
X305462440Y-139050000D01*
X305418162Y-138814683D01*
X305279090Y-138598559D01*
X305066890Y-138453569D01*
X304815000Y-138402560D01*
X303515000Y-138402560D01*
X303279683Y-138446838D01*
X303063559Y-138585910D01*
X302918569Y-138798110D01*
X302867560Y-139050000D01*
X302867560Y-140350000D01*
X302911838Y-140585317D01*
X303050910Y-140801441D01*
X303263110Y-140946431D01*
X303515000Y-140997440D01*
X304815000Y-140997440D01*
X305050317Y-140953162D01*
X305266441Y-140814090D01*
X305411431Y-140601890D01*
X305462440Y-140350000D01*
X305462440Y-140154540D01*
X305574995Y-140426943D01*
X305936155Y-140788735D01*
X306408276Y-140984777D01*
X306919481Y-140985223D01*
X307391943Y-140790005D01*
X307753735Y-140428845D01*
X307761062Y-140411200D01*
X309037745Y-140411200D01*
X309270585Y-140759670D01*
X309756766Y-141084526D01*
X310330255Y-141198600D01*
X310699745Y-141198600D01*
X311273234Y-141084526D01*
X311759415Y-140759670D01*
X312084271Y-140273489D01*
X312198345Y-139700000D01*
X312084271Y-139126511D01*
X311759415Y-138640330D01*
X311444634Y-138430000D01*
X311759415Y-138219670D01*
X312084271Y-137733489D01*
X312198345Y-137160000D01*
X312084271Y-136586511D01*
X311833933Y-136211855D01*
X312345000Y-135700788D01*
X312345000Y-141530000D01*
X207085000Y-141530000D01*
X207085000Y-124819026D01*
X207307642Y-124819026D01*
X207310291Y-124834791D01*
X207564268Y-125362036D01*
X208000680Y-125751954D01*
X208553087Y-125945184D01*
X208788000Y-125800924D01*
X208788000Y-124587000D01*
X209042000Y-124587000D01*
X209042000Y-125800924D01*
X209276913Y-125945184D01*
X209829320Y-125751954D01*
X210265732Y-125362036D01*
X210519709Y-124834791D01*
X210522358Y-124819026D01*
X210401217Y-124587000D01*
X209042000Y-124587000D01*
X208788000Y-124587000D01*
X207428783Y-124587000D01*
X207307642Y-124819026D01*
X207085000Y-124819026D01*
X207085000Y-117550000D01*
X209739212Y-117550000D01*
X209480143Y-117809069D01*
G36*
X244607106Y-126232895D02*
X244804816Y-126365000D01*
X244837836Y-126387063D01*
X245110000Y-126441200D01*
X263865412Y-126441200D01*
X264083800Y-126659589D01*
X264083800Y-126964976D01*
X263874039Y-126878096D01*
X263652000Y-127000085D01*
X263652000Y-128143000D01*
X263672000Y-128143000D01*
X263672000Y-128397000D01*
X263652000Y-128397000D01*
X263652000Y-128417000D01*
X263398000Y-128417000D01*
X263398000Y-128397000D01*
X263378000Y-128397000D01*
X263378000Y-128143000D01*
X263398000Y-128143000D01*
X263398000Y-127000085D01*
X263175961Y-126878096D01*
X262787577Y-127038959D01*
X262372611Y-127414866D01*
X262269986Y-127631703D01*
X261999698Y-127227189D01*
X261534151Y-126916120D01*
X260985000Y-126806887D01*
X260435849Y-126916120D01*
X259970302Y-127227189D01*
X259715000Y-127609275D01*
X259459698Y-127227189D01*
X258994151Y-126916120D01*
X258445000Y-126806887D01*
X257895849Y-126916120D01*
X257430302Y-127227189D01*
X257175000Y-127609275D01*
X256919698Y-127227189D01*
X256454151Y-126916120D01*
X255905000Y-126806887D01*
X255355849Y-126916120D01*
X254890302Y-127227189D01*
X254635000Y-127609275D01*
X254379698Y-127227189D01*
X253914151Y-126916120D01*
X253365000Y-126806887D01*
X252815849Y-126916120D01*
X252350302Y-127227189D01*
X252095000Y-127609275D01*
X251839698Y-127227189D01*
X251374151Y-126916120D01*
X250825000Y-126806887D01*
X250275849Y-126916120D01*
X249810302Y-127227189D01*
X249555000Y-127609275D01*
X249299698Y-127227189D01*
X248834151Y-126916120D01*
X248285000Y-126806887D01*
X247735849Y-126916120D01*
X247270302Y-127227189D01*
X247015000Y-127609275D01*
X246759698Y-127227189D01*
X246294151Y-126916120D01*
X245745000Y-126806887D01*
X245195849Y-126916120D01*
X244730302Y-127227189D01*
X244419233Y-127692736D01*
X244310000Y-128241887D01*
X244310000Y-128298113D01*
X244419233Y-128847264D01*
X244730302Y-129312811D01*
X245070314Y-129540000D01*
X244730302Y-129767189D01*
X244419233Y-130232736D01*
X244310000Y-130781887D01*
X244310000Y-130838113D01*
X244415560Y-131368800D01*
X243876794Y-131368800D01*
X243759659Y-131251460D01*
X243400370Y-131102270D01*
X243011337Y-131101931D01*
X242651788Y-131250493D01*
X242376460Y-131525341D01*
X242270429Y-131780691D01*
X242016788Y-131885493D01*
X241741460Y-132160341D01*
X241592270Y-132519630D01*
X241592120Y-132691490D01*
X240157000Y-131256370D01*
X240157000Y-129933440D01*
X240258600Y-129933440D01*
X240493917Y-129889162D01*
X240710041Y-129750090D01*
X240855031Y-129537890D01*
X240906040Y-129286000D01*
X240906040Y-127254000D01*
X240861762Y-127018683D01*
X240722690Y-126802559D01*
X240510490Y-126657569D01*
X240258600Y-126606560D01*
X238531400Y-126606560D01*
X238296083Y-126650838D01*
X238079959Y-126789910D01*
X237934969Y-127002110D01*
X237926600Y-127043439D01*
X237914670Y-127025585D01*
X237428489Y-126700729D01*
X236855000Y-126586655D01*
X236281511Y-126700729D01*
X236026052Y-126871421D01*
X235550964Y-126396334D01*
X235711757Y-126009100D01*
X235711815Y-125942838D01*
X236024630Y-126072730D01*
X236413663Y-126073069D01*
X236773212Y-125924507D01*
X236891726Y-125806200D01*
X244180412Y-125806200D01*
X244607106Y-126232895D01*
X244607106Y-126232895D01*
G37*
X244607106Y-126232895D02*
X244804816Y-126365000D01*
X244837836Y-126387063D01*
X245110000Y-126441200D01*
X263865412Y-126441200D01*
X264083800Y-126659589D01*
X264083800Y-126964976D01*
X263874039Y-126878096D01*
X263652000Y-127000085D01*
X263652000Y-128143000D01*
X263672000Y-128143000D01*
X263672000Y-128397000D01*
X263652000Y-128397000D01*
X263652000Y-128417000D01*
X263398000Y-128417000D01*
X263398000Y-128397000D01*
X263378000Y-128397000D01*
X263378000Y-128143000D01*
X263398000Y-128143000D01*
X263398000Y-127000085D01*
X263175961Y-126878096D01*
X262787577Y-127038959D01*
X262372611Y-127414866D01*
X262269986Y-127631703D01*
X261999698Y-127227189D01*
X261534151Y-126916120D01*
X260985000Y-126806887D01*
X260435849Y-126916120D01*
X259970302Y-127227189D01*
X259715000Y-127609275D01*
X259459698Y-127227189D01*
X258994151Y-126916120D01*
X258445000Y-126806887D01*
X257895849Y-126916120D01*
X257430302Y-127227189D01*
X257175000Y-127609275D01*
X256919698Y-127227189D01*
X256454151Y-126916120D01*
X255905000Y-126806887D01*
X255355849Y-126916120D01*
X254890302Y-127227189D01*
X254635000Y-127609275D01*
X254379698Y-127227189D01*
X253914151Y-126916120D01*
X253365000Y-126806887D01*
X252815849Y-126916120D01*
X252350302Y-127227189D01*
X252095000Y-127609275D01*
X251839698Y-127227189D01*
X251374151Y-126916120D01*
X250825000Y-126806887D01*
X250275849Y-126916120D01*
X249810302Y-127227189D01*
X249555000Y-127609275D01*
X249299698Y-127227189D01*
X248834151Y-126916120D01*
X248285000Y-126806887D01*
X247735849Y-126916120D01*
X247270302Y-127227189D01*
X247015000Y-127609275D01*
X246759698Y-127227189D01*
X246294151Y-126916120D01*
X245745000Y-126806887D01*
X245195849Y-126916120D01*
X244730302Y-127227189D01*
X244419233Y-127692736D01*
X244310000Y-128241887D01*
X244310000Y-128298113D01*
X244419233Y-128847264D01*
X244730302Y-129312811D01*
X245070314Y-129540000D01*
X244730302Y-129767189D01*
X244419233Y-130232736D01*
X244310000Y-130781887D01*
X244310000Y-130838113D01*
X244415560Y-131368800D01*
X243876794Y-131368800D01*
X243759659Y-131251460D01*
X243400370Y-131102270D01*
X243011337Y-131101931D01*
X242651788Y-131250493D01*
X242376460Y-131525341D01*
X242270429Y-131780691D01*
X242016788Y-131885493D01*
X241741460Y-132160341D01*
X241592270Y-132519630D01*
X241592120Y-132691490D01*
X240157000Y-131256370D01*
X240157000Y-129933440D01*
X240258600Y-129933440D01*
X240493917Y-129889162D01*
X240710041Y-129750090D01*
X240855031Y-129537890D01*
X240906040Y-129286000D01*
X240906040Y-127254000D01*
X240861762Y-127018683D01*
X240722690Y-126802559D01*
X240510490Y-126657569D01*
X240258600Y-126606560D01*
X238531400Y-126606560D01*
X238296083Y-126650838D01*
X238079959Y-126789910D01*
X237934969Y-127002110D01*
X237926600Y-127043439D01*
X237914670Y-127025585D01*
X237428489Y-126700729D01*
X236855000Y-126586655D01*
X236281511Y-126700729D01*
X236026052Y-126871421D01*
X235550964Y-126396334D01*
X235711757Y-126009100D01*
X235711815Y-125942838D01*
X236024630Y-126072730D01*
X236413663Y-126073069D01*
X236773212Y-125924507D01*
X236891726Y-125806200D01*
X244180412Y-125806200D01*
X244607106Y-126232895D01*
M02*
