M48
;DRILL file {KiCad 4.0.4-1.fc25-product} date Wed Feb 22 20:13:15 2017
;FORMAT={-:-/ absolute / inch / decimal}
FMAT,2
INCH,TZ
T1C0.013
T2C0.030
T3C0.031
T4C0.032
T5C0.040
T6C0.020
%
G90
G05
M72
T1
X4.325Y-3.5
X4.325Y-4.2
X4.325Y-6.
X4.325Y-6.7
X4.425Y-3.525
X4.425Y-4.175
X4.425Y-6.025
X4.425Y-6.675
X4.525Y-3.55
X4.525Y-4.15
X4.525Y-6.05
X4.525Y-6.65
X4.625Y-4.125
X4.625Y-6.625
X4.725Y-4.1
X4.725Y-6.6
X4.825Y-3.575
X4.825Y-4.075
X4.825Y-6.075
X4.825Y-6.575
X4.85Y-4.9
X4.925Y-3.6
X4.925Y-4.05
X4.925Y-6.1
X4.925Y-6.55
X5.Y-4.925
X5.025Y-3.625
X5.025Y-4.025
X5.025Y-5.4
X5.025Y-6.125
X5.025Y-6.525
X5.075Y-5.35
X5.15Y-5.375
X5.25Y-5.225
X5.275Y-5.2
X5.6Y-3.475
X5.6Y-5.975
X5.625Y-5.2
X5.65Y-5.225
X5.7Y-3.5
X5.7Y-4.2
X5.7Y-6.
X5.7Y-6.7
X5.8Y-3.525
X5.8Y-4.175
X5.8Y-6.025
X5.8Y-6.675
X5.9Y-3.55
X5.9Y-4.15
X5.9Y-6.05
X5.9Y-6.65
X5.925Y-4.825
X6.Y-4.125
X6.Y-6.625
X6.1Y-4.1
X6.1Y-6.6
X6.175Y-4.875
X6.175Y-5.025
X6.2Y-3.575
X6.2Y-4.075
X6.2Y-4.85
X6.2Y-4.9
X6.2Y-6.075
X6.2Y-6.575
X6.25Y-5.175
X6.275Y-4.8
X6.3Y-4.05
X6.3Y-4.825
X6.3Y-6.55
X6.325Y-4.85
X6.4Y-4.025
X6.4Y-6.525
X6.425Y-4.975
X6.45Y-4.9
X6.525Y-4.95
X6.525Y-5.1
X6.55Y-4.9
X6.575Y-5.425
X6.6Y-5.4
X6.625Y-4.925
X6.625Y-5.45
X6.65Y-4.975
X6.675Y-4.875
X6.9Y-3.6
X6.9Y-6.1
X6.95Y-3.625
X6.95Y-6.125
X7.Y-3.475
X7.Y-4.225
X7.Y-5.975
X7.Y-6.725
X7.05Y-4.9
X7.1Y-3.5
X7.1Y-4.2
X7.1Y-5.25
X7.1Y-5.375
X7.1Y-6.
X7.1Y-6.7
X7.15Y-5.25
X7.175Y-5.35
X7.2Y-3.525
X7.2Y-4.175
X7.2Y-5.25
X7.2Y-6.025
X7.2Y-6.675
X7.225Y-5.325
X7.275Y-5.25
X7.275Y-5.3
X7.3Y-3.55
X7.3Y-4.15
X7.3Y-6.05
X7.3Y-6.65
X7.325Y-5.425
X7.35Y-5.2
X7.4Y-4.125
X7.4Y-6.625
X7.5Y-4.1
X7.5Y-6.6
X7.6Y-3.575
X7.6Y-4.075
X7.6Y-6.075
X7.6Y-6.575
X7.7Y-3.6
X7.7Y-4.05
X7.7Y-6.1
X7.7Y-6.55
X7.8Y-3.625
X7.8Y-4.025
X7.8Y-6.125
X7.8Y-6.525
X8.4Y-3.475
X8.4Y-5.975
X8.5Y-3.5
X8.5Y-4.2
X8.5Y-6.
X8.5Y-6.7
X8.6Y-3.525
X8.6Y-4.175
X8.6Y-6.025
X8.6Y-6.675
X8.7Y-3.55
X8.7Y-4.15
X8.7Y-6.05
X8.7Y-6.65
X8.775Y-3.65
X8.775Y-6.15
X8.8Y-4.125
X8.8Y-6.625
X8.9Y-4.1
X8.9Y-6.6
X9.Y-3.575
X9.Y-4.075
X9.Y-6.075
X9.Y-6.575
X9.1Y-3.6
X9.1Y-4.05
X9.1Y-6.1
X9.1Y-6.55
X9.15Y-4.9
X9.2Y-3.625
X9.2Y-4.025
X9.2Y-6.125
X9.2Y-6.525
X9.3Y-4.925
X9.325Y-5.4
X9.375Y-5.35
X9.45Y-5.375
X9.55Y-5.225
X9.575Y-5.2
X9.8Y-3.475
X9.8Y-5.975
X9.9Y-3.5
X9.9Y-4.2
X9.9Y-6.
X9.9Y-6.7
X9.925Y-5.2
X9.95Y-5.225
X10.Y-3.525
X10.Y-4.175
X10.Y-6.025
X10.Y-6.675
X10.1Y-3.55
X10.1Y-4.15
X10.1Y-6.05
X10.1Y-6.65
X10.2Y-4.125
X10.2Y-6.625
X10.225Y-4.825
X10.3Y-4.1
X10.3Y-6.6
X10.4Y-3.575
X10.4Y-4.075
X10.4Y-6.075
X10.4Y-6.575
X10.475Y-4.875
X10.475Y-5.025
X10.5Y-3.6
X10.5Y-4.05
X10.5Y-4.85
X10.5Y-4.9
X10.5Y-6.1
X10.5Y-6.55
X10.55Y-5.175
X10.575Y-4.8
X10.6Y-3.625
X10.6Y-4.025
X10.6Y-4.825
X10.6Y-6.125
X10.6Y-6.525
X10.625Y-4.85
X10.725Y-4.975
X10.75Y-4.9
X10.825Y-4.95
X10.825Y-5.1
X10.85Y-4.9
X10.875Y-5.425
X10.9Y-5.4
X10.925Y-4.925
X10.925Y-5.45
X10.95Y-4.975
X10.975Y-4.875
X11.35Y-4.9
X11.4Y-5.25
X11.4Y-5.375
X11.45Y-5.25
X11.475Y-5.35
X11.5Y-5.25
X11.525Y-5.325
X11.575Y-5.25
X11.575Y-5.3
X11.625Y-5.425
X11.65Y-5.2
T2
X4.125Y-4.75
X4.125Y-4.95
X4.125Y-5.25
X4.125Y-5.45
X4.225Y-4.75
X4.225Y-4.95
X4.225Y-5.25
X4.225Y-5.45
X4.325Y-4.75
X4.325Y-4.95
X4.325Y-5.25
X4.325Y-5.45
X4.425Y-5.25
X4.425Y-5.45
X4.525Y-5.25
X4.525Y-5.45
X4.625Y-4.75
X4.625Y-4.95
X4.625Y-5.25
X4.625Y-5.45
X4.725Y-4.75
X4.725Y-4.95
X4.725Y-5.25
X4.725Y-5.45
X4.825Y-4.75
X4.825Y-4.95
X4.825Y-5.25
X4.825Y-5.45
X4.925Y-4.75
X4.925Y-4.95
X4.925Y-5.25
X4.925Y-5.45
X7.6293Y-5.2543
X7.7707Y-5.3957
X8.425Y-4.75
X8.425Y-4.95
X8.425Y-5.25
X8.425Y-5.45
X8.525Y-4.75
X8.525Y-4.95
X8.525Y-5.25
X8.525Y-5.45
X8.625Y-4.75
X8.625Y-4.95
X8.625Y-5.25
X8.625Y-5.45
X8.725Y-5.25
X8.725Y-5.45
X8.825Y-5.25
X8.825Y-5.45
X8.925Y-4.75
X8.925Y-4.95
X8.925Y-5.25
X8.925Y-5.45
X9.025Y-4.75
X9.025Y-4.95
X9.025Y-5.25
X9.025Y-5.45
X9.125Y-4.75
X9.125Y-4.95
X9.125Y-5.25
X9.125Y-5.45
X9.225Y-4.75
X9.225Y-4.95
X9.225Y-5.25
X9.225Y-5.45
X11.9293Y-5.2543
X12.0707Y-5.3957
T3
X5.375Y-4.75
X5.375Y-5.05
X5.375Y-5.15
X5.375Y-5.45
X5.475Y-4.75
X5.475Y-5.05
X5.475Y-5.15
X5.475Y-5.45
X5.575Y-4.75
X5.575Y-5.05
X5.575Y-5.15
X5.575Y-5.45
X5.675Y-4.75
X5.675Y-5.05
X5.675Y-5.15
X5.675Y-5.45
X5.775Y-4.75
X5.775Y-5.05
X5.775Y-5.15
X5.775Y-5.45
X5.875Y-4.75
X5.875Y-5.05
X5.875Y-5.15
X5.875Y-5.45
X5.975Y-4.75
X5.975Y-5.05
X5.975Y-5.15
X5.975Y-5.45
X6.075Y-4.75
X6.075Y-5.05
X6.075Y-5.15
X6.075Y-5.45
X6.25Y-4.75
X6.25Y-5.05
X6.35Y-4.75
X6.35Y-5.05
X6.45Y-4.75
X6.45Y-5.05
X6.55Y-4.75
X6.55Y-5.05
X6.65Y-4.75
X6.65Y-5.05
X6.75Y-4.75
X6.75Y-5.05
X6.85Y-4.75
X6.85Y-5.05
X6.85Y-5.175
X6.95Y-4.75
X6.95Y-5.05
X7.05Y-4.75
X7.05Y-5.05
X7.15Y-4.75
X7.15Y-5.05
X7.25Y-4.75
X7.25Y-5.05
X7.35Y-4.75
X7.35Y-5.05
X7.45Y-4.75
X7.45Y-5.05
X7.55Y-4.75
X7.55Y-5.05
X7.675Y-5.5
X9.675Y-4.75
X9.675Y-5.05
X9.675Y-5.15
X9.675Y-5.45
X9.775Y-4.75
X9.775Y-5.05
X9.775Y-5.15
X9.775Y-5.45
X9.875Y-4.75
X9.875Y-5.05
X9.875Y-5.15
X9.875Y-5.45
X9.975Y-4.75
X9.975Y-5.05
X9.975Y-5.15
X9.975Y-5.45
X10.075Y-4.75
X10.075Y-5.05
X10.075Y-5.15
X10.075Y-5.45
X10.175Y-4.75
X10.175Y-5.05
X10.175Y-5.15
X10.175Y-5.45
X10.275Y-4.75
X10.275Y-5.05
X10.275Y-5.15
X10.275Y-5.45
X10.375Y-4.75
X10.375Y-5.05
X10.375Y-5.15
X10.375Y-5.45
X10.55Y-4.75
X10.55Y-5.05
X10.65Y-4.75
X10.65Y-5.05
X10.75Y-4.75
X10.75Y-5.05
X10.85Y-4.75
X10.85Y-5.05
X10.95Y-4.75
X10.95Y-5.05
X11.05Y-4.75
X11.05Y-5.05
X11.15Y-4.75
X11.15Y-5.05
X11.15Y-5.175
X11.25Y-4.75
X11.25Y-5.05
X11.35Y-4.75
X11.35Y-5.05
X11.45Y-4.75
X11.45Y-5.05
X11.55Y-4.75
X11.55Y-5.05
X11.65Y-4.75
X11.65Y-5.05
X11.75Y-4.75
X11.75Y-5.05
X11.85Y-4.75
X11.85Y-5.05
X11.975Y-5.5
T4
X6.9484Y-5.175
X7.7734Y-5.5
X11.2484Y-5.175
X12.0734Y-5.5
T5
X3.925Y-4.7
X3.925Y-4.8
X3.925Y-4.9
X3.925Y-5.05
X4.025Y-5.05
X4.125Y-5.05
X4.125Y-5.15
X4.1375Y-3.4169
X4.1375Y-4.2831
X4.1375Y-5.9169
X4.1375Y-6.7831
X4.2Y-3.65
X4.2Y-3.75
X4.2Y-3.85
X4.2Y-3.95
X4.2Y-6.15
X4.2Y-6.25
X4.2Y-6.35
X4.2Y-6.45
X4.225Y-5.05
X4.225Y-5.15
X4.2375Y-3.4169
X4.2375Y-4.2831
X4.2375Y-5.9169
X4.2375Y-6.7831
X4.325Y-5.05
X4.325Y-5.15
X4.3375Y-3.4169
X4.3375Y-4.2831
X4.3375Y-5.9169
X4.3375Y-6.7831
X4.425Y-5.05
X4.425Y-5.15
X4.4375Y-3.4169
X4.4375Y-4.2831
X4.4375Y-5.9169
X4.4375Y-6.7831
X4.525Y-5.05
X4.525Y-5.15
X4.5375Y-3.4169
X4.5375Y-4.2831
X4.5375Y-5.9169
X4.5375Y-6.7831
X4.625Y-5.05
X4.625Y-5.15
X4.6375Y-3.4169
X4.6375Y-4.2831
X4.6375Y-5.9169
X4.6375Y-6.7831
X4.725Y-5.05
X4.725Y-5.15
X4.7375Y-3.4169
X4.7375Y-4.2831
X4.7375Y-5.9169
X4.7375Y-6.7831
X4.825Y-5.05
X4.825Y-5.15
X4.8375Y-3.4169
X4.8375Y-4.2831
X4.8375Y-5.9169
X4.8375Y-6.7831
X4.925Y-5.05
X4.925Y-5.15
X4.9375Y-3.4169
X4.9375Y-4.2831
X4.9375Y-5.9169
X4.9375Y-6.7831
X5.025Y-5.05
X5.125Y-5.05
X5.5625Y-3.4169
X5.5625Y-4.2831
X5.5625Y-5.9169
X5.5625Y-6.7831
X5.6625Y-3.4169
X5.6625Y-4.2831
X5.6625Y-5.9169
X5.6625Y-6.7831
X5.7625Y-3.4169
X5.7625Y-4.2831
X5.7625Y-5.9169
X5.7625Y-6.7831
X5.8625Y-3.4169
X5.8625Y-4.2831
X5.8625Y-5.9169
X5.8625Y-6.7831
X5.9625Y-3.4169
X5.9625Y-4.2831
X5.9625Y-5.9169
X5.9625Y-6.7831
X6.0625Y-3.4169
X6.0625Y-4.2831
X6.0625Y-5.9169
X6.0625Y-6.7831
X6.1625Y-3.4169
X6.1625Y-4.2831
X6.1625Y-5.9169
X6.1625Y-6.7831
X6.2625Y-3.4169
X6.2625Y-4.2831
X6.2625Y-5.9169
X6.2625Y-6.7831
X6.3625Y-3.4169
X6.3625Y-4.2831
X6.3625Y-5.9169
X6.3625Y-6.7831
X6.8Y-3.8
X6.8Y-6.3
X6.9Y-3.8
X6.9Y-6.3
X6.9875Y-3.4169
X6.9875Y-4.2831
X6.9875Y-5.9169
X6.9875Y-6.7831
X7.Y-3.8
X7.Y-3.9
X7.Y-6.3
X7.Y-6.4
X7.0875Y-3.4169
X7.0875Y-4.2831
X7.0875Y-5.9169
X7.0875Y-6.7831
X7.1Y-3.8
X7.1Y-3.9
X7.1Y-6.3
X7.1Y-6.4
X7.1875Y-3.4169
X7.1875Y-4.2831
X7.1875Y-5.9169
X7.1875Y-6.7831
X7.2Y-3.8
X7.2Y-3.9
X7.2Y-6.3
X7.2Y-6.4
X7.2875Y-3.4169
X7.2875Y-4.2831
X7.2875Y-5.9169
X7.2875Y-6.7831
X7.3Y-3.8
X7.3Y-3.9
X7.3Y-6.3
X7.3Y-6.4
X7.3875Y-3.4169
X7.3875Y-4.2831
X7.3875Y-5.9169
X7.3875Y-6.7831
X7.4Y-3.8
X7.4Y-3.9
X7.4Y-6.3
X7.4Y-6.4
X7.425Y-5.3
X7.425Y-5.4
X7.425Y-5.5
X7.4875Y-3.4169
X7.4875Y-4.2831
X7.4875Y-5.9169
X7.4875Y-6.7831
X7.5Y-3.8
X7.5Y-3.9
X7.5Y-6.3
X7.5Y-6.4
X7.525Y-5.3
X7.525Y-5.4
X7.525Y-5.5
X7.5875Y-3.4169
X7.5875Y-4.2831
X7.5875Y-5.9169
X7.5875Y-6.7831
X7.6Y-3.8
X7.6Y-3.9
X7.6Y-6.3
X7.6Y-6.4
X7.6875Y-3.4169
X7.6875Y-4.2831
X7.6875Y-5.9169
X7.6875Y-6.7831
X7.7Y-3.8
X7.7Y-3.9
X7.7Y-6.3
X7.7Y-6.4
X7.725Y-4.9
X7.725Y-5.
X7.725Y-5.1
X7.725Y-5.2
X7.7875Y-3.4169
X7.7875Y-4.2831
X7.7875Y-5.9169
X7.7875Y-6.7831
X7.8Y-3.8
X7.8Y-3.9
X7.8Y-6.3
X7.8Y-6.4
X7.9Y-3.8
X7.9Y-6.3
X7.925Y-4.7
X7.925Y-4.8
X7.925Y-4.9
X7.925Y-5.
X7.925Y-5.1
X7.925Y-5.2
X7.925Y-5.3
X7.925Y-5.4
X7.925Y-5.5
X8.Y-3.8
X8.Y-6.3
X8.225Y-4.7
X8.225Y-4.8
X8.225Y-4.9
X8.225Y-5.05
X8.325Y-5.05
X8.4125Y-3.4169
X8.4125Y-4.2831
X8.4125Y-5.9169
X8.4125Y-6.7831
X8.425Y-5.05
X8.425Y-5.15
X8.5125Y-3.4169
X8.5125Y-4.2831
X8.5125Y-5.9169
X8.5125Y-6.7831
X8.525Y-5.05
X8.525Y-5.15
X8.6125Y-3.4169
X8.6125Y-4.2831
X8.6125Y-5.9169
X8.6125Y-6.7831
X8.625Y-5.05
X8.625Y-5.15
X8.7125Y-3.4169
X8.7125Y-4.2831
X8.7125Y-5.9169
X8.7125Y-6.7831
X8.725Y-5.05
X8.725Y-5.15
X8.8125Y-3.4169
X8.8125Y-4.2831
X8.8125Y-5.9169
X8.8125Y-6.7831
X8.825Y-5.05
X8.825Y-5.15
X8.9125Y-3.4169
X8.9125Y-4.2831
X8.9125Y-5.9169
X8.9125Y-6.7831
X8.925Y-5.05
X8.925Y-5.15
X9.0125Y-3.4169
X9.0125Y-4.2831
X9.0125Y-5.9169
X9.0125Y-6.7831
X9.025Y-5.05
X9.025Y-5.15
X9.1125Y-3.4169
X9.1125Y-4.2831
X9.1125Y-5.9169
X9.1125Y-6.7831
X9.125Y-5.05
X9.125Y-5.15
X9.2125Y-3.4169
X9.2125Y-4.2831
X9.2125Y-5.9169
X9.2125Y-6.7831
X9.225Y-5.05
X9.225Y-5.15
X9.325Y-5.05
X9.425Y-5.05
X9.8375Y-3.4169
X9.8375Y-4.2831
X9.8375Y-5.9169
X9.8375Y-6.7831
X9.9375Y-3.4169
X9.9375Y-4.2831
X9.9375Y-5.9169
X9.9375Y-6.7831
X10.0375Y-3.4169
X10.0375Y-4.2831
X10.0375Y-5.9169
X10.0375Y-6.7831
X10.1375Y-3.4169
X10.1375Y-4.2831
X10.1375Y-5.9169
X10.1375Y-6.7831
X10.2375Y-3.4169
X10.2375Y-4.2831
X10.2375Y-5.9169
X10.2375Y-6.7831
X10.3375Y-3.4169
X10.3375Y-4.2831
X10.3375Y-5.9169
X10.3375Y-6.7831
X10.4375Y-3.4169
X10.4375Y-4.2831
X10.4375Y-5.9169
X10.4375Y-6.7831
X10.5375Y-3.4169
X10.5375Y-4.2831
X10.5375Y-5.9169
X10.5375Y-6.7831
X10.6375Y-3.4169
X10.6375Y-4.2831
X10.6375Y-5.9169
X10.6375Y-6.7831
X11.2625Y-3.4169
X11.2625Y-4.2831
X11.2625Y-5.9169
X11.2625Y-6.7831
X11.3625Y-3.4169
X11.3625Y-4.2831
X11.3625Y-5.9169
X11.3625Y-6.7831
X11.4625Y-3.4169
X11.4625Y-4.2831
X11.4625Y-5.9169
X11.4625Y-6.7831
X11.5625Y-3.4169
X11.5625Y-4.2831
X11.5625Y-5.9169
X11.5625Y-6.7831
X11.6625Y-3.4169
X11.6625Y-4.2831
X11.6625Y-5.9169
X11.6625Y-6.7831
X11.725Y-5.3
X11.725Y-5.4
X11.725Y-5.5
X11.7625Y-3.4169
X11.7625Y-4.2831
X11.7625Y-5.9169
X11.7625Y-6.7831
X11.825Y-5.3
X11.825Y-5.4
X11.825Y-5.5
X11.8625Y-3.4169
X11.8625Y-4.2831
X11.8625Y-5.9169
X11.8625Y-6.7831
X11.9625Y-3.4169
X11.9625Y-4.2831
X11.9625Y-5.9169
X11.9625Y-6.7831
X12.025Y-4.9
X12.025Y-5.
X12.025Y-5.1
X12.025Y-5.2
X12.0625Y-3.4169
X12.0625Y-4.2831
X12.0625Y-5.9169
X12.0625Y-6.7831
X12.225Y-4.7
X12.225Y-4.8
X12.225Y-4.9
X12.225Y-5.
X12.225Y-5.1
X12.225Y-5.2
X12.225Y-5.3
X12.225Y-5.4
X12.225Y-5.5
T6
X4.0685Y-4.5067
X4.0685Y-4.5933
X4.0685Y-5.6067
X4.0685Y-5.6933
X4.1Y-4.5067
X4.1Y-4.5933
X4.1Y-5.6067
X4.1Y-5.6933
X4.1315Y-4.5067
X4.1315Y-4.5933
X4.1315Y-5.6067
X4.1315Y-5.6933
X5.9685Y-4.5067
X5.9685Y-4.5933
X5.9685Y-5.6067
X5.9685Y-5.6933
X6.Y-4.5067
X6.Y-4.5933
X6.Y-5.6067
X6.Y-5.6933
X6.0315Y-4.5067
X6.0315Y-4.5933
X6.0315Y-5.6067
X6.0315Y-5.6933
X7.7685Y-4.5067
X7.7685Y-4.5933
X7.7685Y-5.6067
X7.7685Y-5.6933
X7.8Y-4.5067
X7.8Y-4.5933
X7.8Y-5.6067
X7.8Y-5.6933
X7.8315Y-4.5067
X7.8315Y-4.5933
X7.8315Y-5.6067
X7.8315Y-5.6933
X8.3685Y-4.5067
X8.3685Y-4.5933
X8.3685Y-5.6067
X8.3685Y-5.6933
X8.4Y-4.5067
X8.4Y-4.5933
X8.4Y-5.6067
X8.4Y-5.6933
X8.4315Y-4.5067
X8.4315Y-4.5933
X8.4315Y-5.6067
X8.4315Y-5.6933
X10.2185Y-4.5067
X10.2185Y-4.5933
X10.2185Y-5.6067
X10.2185Y-5.6933
X10.25Y-4.5067
X10.25Y-4.5933
X10.25Y-5.6067
X10.25Y-5.6933
X10.2815Y-4.5067
X10.2815Y-4.5933
X10.2815Y-5.6067
X10.2815Y-5.6933
X12.0685Y-4.5067
X12.0685Y-4.5933
X12.0685Y-5.6067
X12.0685Y-5.6933
X12.1Y-4.5067
X12.1Y-4.5933
X12.1Y-5.6067
X12.1Y-5.6933
X12.1315Y-4.5067
X12.1315Y-4.5933
X12.1315Y-5.6067
X12.1315Y-5.6933
T0
M30
