G04 #@! TF.FileFunction,Profile,NP*
%FSLAX46Y46*%
G04 Gerber Fmt 4.6, Leading zero omitted, Abs format (unit mm)*
G04 Created by KiCad (PCBNEW 4.0.4-1.fc25-product) date Wed Feb 22 20:12:38 2017*
%MOMM*%
%LPD*%
G01*
G04 APERTURE LIST*
%ADD10C,0.100000*%
%ADD11C,0.150000*%
G04 APERTURE END LIST*
D10*
D11*
X195580000Y-142240000D02*
X168148000Y-142240000D01*
X200660000Y-142240000D02*
X203835000Y-142240000D01*
X309753000Y-144780000D02*
X310515000Y-144780000D01*
X309880000Y-142240000D02*
X313055000Y-142240000D01*
X304800000Y-142240000D02*
X277622000Y-142240000D01*
X304800000Y-144780000D02*
X301371000Y-144780000D01*
X263017000Y-144780000D02*
X298069000Y-144780000D01*
X262890000Y-142240000D02*
X277622000Y-142240000D01*
X257810000Y-142240000D02*
X215900000Y-142240000D01*
X215900000Y-144780000D02*
X257937000Y-144780000D01*
X207391000Y-144780000D02*
X210820000Y-144780000D01*
X210820000Y-142240000D02*
X206375000Y-142240000D01*
X200660000Y-144780000D02*
X204089000Y-144780000D01*
X154940000Y-144780000D02*
X195580000Y-144780000D01*
X154940000Y-142240000D02*
X168402000Y-142240000D01*
X149860000Y-144780000D02*
X113411000Y-144780000D01*
X106680000Y-142240000D02*
X149860000Y-142240000D01*
X106680000Y-144780000D02*
X110109000Y-144780000D01*
X101600000Y-144780000D02*
X100965000Y-144780000D01*
X97155000Y-142240000D02*
X101600000Y-142240000D01*
X195580000Y-116840000D02*
X168148000Y-116840000D01*
X200660000Y-116840000D02*
X203835000Y-116840000D01*
X206375000Y-116840000D02*
X210820000Y-116840000D01*
X257810000Y-116840000D02*
X215900000Y-116840000D01*
X262890000Y-116840000D02*
X277495000Y-116840000D01*
X304800000Y-116840000D02*
X277495000Y-116840000D01*
X309880000Y-116840000D02*
X313055000Y-116840000D01*
X309880000Y-114300000D02*
X310642000Y-114300000D01*
X304800000Y-114300000D02*
X301371000Y-114300000D01*
X262890000Y-114300000D02*
X298069000Y-114300000D01*
X215900000Y-114300000D02*
X257810000Y-114300000D01*
X210820000Y-114300000D02*
X207391000Y-114300000D01*
X200660000Y-114300000D02*
X204089000Y-114300000D01*
X154940000Y-114300000D02*
X195580000Y-114300000D01*
X106680000Y-114300000D02*
X110109000Y-114300000D01*
X149860000Y-114300000D02*
X113411000Y-114300000D01*
X154940000Y-116840000D02*
X168275000Y-116840000D01*
X106680000Y-116840000D02*
X149860000Y-116840000D01*
X101600000Y-116840000D02*
X97155000Y-116840000D01*
X101600000Y-114300000D02*
X100330000Y-114300000D01*
X100330000Y-114300000D02*
X100965000Y-114300000D01*
X214630000Y-115570000D02*
G75*
G03X215900000Y-116840000I1270000J0D01*
G01*
X215900000Y-114300000D02*
G75*
G03X214630000Y-115570000I0J-1270000D01*
G01*
X212090000Y-115570000D02*
G75*
G03X210820000Y-114300000I-1270000J0D01*
G01*
X210820000Y-116840000D02*
G75*
G03X212090000Y-115570000I0J1270000D01*
G01*
X199390000Y-115570000D02*
G75*
G03X200660000Y-116840000I1270000J0D01*
G01*
X200660000Y-114300000D02*
G75*
G03X199390000Y-115570000I0J-1270000D01*
G01*
X196850000Y-115570000D02*
G75*
G03X195580000Y-114300000I-1270000J0D01*
G01*
X195580000Y-116840000D02*
G75*
G03X196850000Y-115570000I0J1270000D01*
G01*
X153670000Y-115570000D02*
G75*
G03X154940000Y-116840000I1270000J0D01*
G01*
X154940000Y-114300000D02*
G75*
G03X153670000Y-115570000I0J-1270000D01*
G01*
X151130000Y-115570000D02*
G75*
G03X149860000Y-114300000I-1270000J0D01*
G01*
X149860000Y-116840000D02*
G75*
G03X151130000Y-115570000I0J1270000D01*
G01*
X105410000Y-115570000D02*
G75*
G03X106680000Y-116840000I1270000J0D01*
G01*
X106680000Y-114300000D02*
G75*
G03X105410000Y-115570000I0J-1270000D01*
G01*
X102870000Y-115570000D02*
G75*
G03X101600000Y-114300000I-1270000J0D01*
G01*
X101600000Y-116840000D02*
G75*
G03X102870000Y-115570000I0J1270000D01*
G01*
X102870000Y-143510000D02*
G75*
G03X101600000Y-142240000I-1270000J0D01*
G01*
X101600000Y-144780000D02*
G75*
G03X102870000Y-143510000I0J1270000D01*
G01*
X105410000Y-143510000D02*
G75*
G03X106680000Y-144780000I1270000J0D01*
G01*
X106680000Y-142240000D02*
G75*
G03X105410000Y-143510000I0J-1270000D01*
G01*
X153670000Y-143510000D02*
G75*
G03X154940000Y-144780000I1270000J0D01*
G01*
X154940000Y-142240000D02*
G75*
G03X153670000Y-143510000I0J-1270000D01*
G01*
X151130000Y-143510000D02*
G75*
G03X149860000Y-142240000I-1270000J0D01*
G01*
X149860000Y-144780000D02*
G75*
G03X151130000Y-143510000I0J1270000D01*
G01*
X196850000Y-143510000D02*
G75*
G03X195580000Y-142240000I-1270000J0D01*
G01*
X195580000Y-144780000D02*
G75*
G03X196850000Y-143510000I0J1270000D01*
G01*
X199390000Y-143510000D02*
G75*
G03X200660000Y-144780000I1270000J0D01*
G01*
X200660000Y-142240000D02*
G75*
G03X199390000Y-143510000I0J-1270000D01*
G01*
X214630000Y-143510000D02*
G75*
G03X215900000Y-144780000I1270000J0D01*
G01*
X215900000Y-142240000D02*
G75*
G03X214630000Y-143510000I0J-1270000D01*
G01*
X210820000Y-144780000D02*
G75*
G03X212090000Y-143510000I0J1270000D01*
G01*
X212090000Y-143510000D02*
G75*
G03X210820000Y-142240000I-1270000J0D01*
G01*
X261620000Y-143510000D02*
G75*
G03X262890000Y-144780000I1270000J0D01*
G01*
X262890000Y-142240000D02*
G75*
G03X261620000Y-143510000I0J-1270000D01*
G01*
X257810000Y-144780000D02*
G75*
G03X259080000Y-143510000I0J1270000D01*
G01*
X259080000Y-143510000D02*
G75*
G03X257810000Y-142240000I-1270000J0D01*
G01*
X308610000Y-143510000D02*
G75*
G03X309880000Y-144780000I1270000J0D01*
G01*
X309880000Y-142240000D02*
G75*
G03X308610000Y-143510000I0J-1270000D01*
G01*
X306070000Y-143510000D02*
G75*
G03X304800000Y-142240000I-1270000J0D01*
G01*
X304800000Y-144780000D02*
G75*
G03X306070000Y-143510000I0J1270000D01*
G01*
X259080000Y-115570000D02*
G75*
G03X257810000Y-114300000I-1270000J0D01*
G01*
X257810000Y-116840000D02*
G75*
G03X259080000Y-115570000I0J1270000D01*
G01*
X261620000Y-115570000D02*
G75*
G03X262890000Y-116840000I1270000J0D01*
G01*
X262890000Y-114300000D02*
G75*
G03X261620000Y-115570000I0J-1270000D01*
G01*
X308610000Y-115570000D02*
G75*
G03X309880000Y-116840000I1270000J0D01*
G01*
X309880000Y-114300000D02*
G75*
G03X308610000Y-115570000I0J-1270000D01*
G01*
X306070000Y-115570000D02*
G75*
G03X304800000Y-114300000I-1270000J0D01*
G01*
X304800000Y-116840000D02*
G75*
G03X306070000Y-115570000I0J1270000D01*
G01*
X203835000Y-134620000D02*
X203835000Y-139700000D01*
X203835000Y-119380000D02*
X203835000Y-124460000D01*
X203835000Y-119380000D02*
X203835000Y-116840000D01*
X203835000Y-124460000D02*
X203835000Y-134620000D01*
X203835000Y-142240000D02*
X203835000Y-139700000D01*
X97155000Y-116840000D02*
X97155000Y-142240000D01*
X313055000Y-134620000D02*
X313055000Y-139700000D01*
X313055000Y-119380000D02*
X313055000Y-124460000D01*
X313055000Y-119380000D02*
X313055000Y-116840000D01*
X313055000Y-124460000D02*
X313055000Y-134620000D01*
X313055000Y-142240000D02*
X313055000Y-139700000D01*
X206375000Y-116840000D02*
X206375000Y-142240000D01*
X100330000Y-81280000D02*
X100965000Y-81280000D01*
X312420000Y-114300000D02*
X310515000Y-114300000D01*
X310515000Y-81280000D02*
X311150000Y-81280000D01*
X312420000Y-81280000D02*
X310832500Y-81280000D01*
X99060000Y-114300000D02*
X100647500Y-114300000D01*
X99060000Y-81280000D02*
X100647500Y-81280000D01*
X310769000Y-81280000D02*
X301371000Y-81280000D01*
X314007500Y-112649000D02*
X314007500Y-82931000D01*
X314007500Y-112712500D02*
G75*
G03X312420000Y-114300000I0J-1587500D01*
G01*
X312420000Y-81280000D02*
G75*
G03X314007500Y-82867500I1587500J0D01*
G01*
X100711000Y-81280000D02*
X110109000Y-81280000D01*
X97472500Y-82931000D02*
X97472500Y-87630000D01*
X97472500Y-112649000D02*
X97472500Y-108585000D01*
X99060000Y-114300000D02*
G75*
G03X97472500Y-112712500I-1587500J0D01*
G01*
X97472500Y-82867500D02*
G75*
G03X99060000Y-81280000I0J1587500D01*
G01*
X207391000Y-81280000D02*
X298069000Y-81280000D01*
X113411000Y-81280000D02*
X204089000Y-81280000D01*
X204152500Y-81280000D02*
G75*
G03X205740000Y-82867500I1587500J0D01*
G01*
X298132500Y-81280000D02*
G75*
G03X299720000Y-82867500I1587500J0D01*
G01*
X299720000Y-82867500D02*
G75*
G03X301307500Y-81280000I0J1587500D01*
G01*
X299720000Y-112712500D02*
G75*
G03X298132500Y-114300000I0J-1587500D01*
G01*
X301307500Y-114300000D02*
G75*
G03X299720000Y-112712500I-1587500J0D01*
G01*
X113347500Y-114300000D02*
G75*
G03X111760000Y-112712500I-1587500J0D01*
G01*
X111760000Y-112712500D02*
G75*
G03X110172500Y-114300000I0J-1587500D01*
G01*
X111760000Y-82867500D02*
G75*
G03X113347500Y-81280000I0J1587500D01*
G01*
X110172500Y-81280000D02*
G75*
G03X111760000Y-82867500I1587500J0D01*
G01*
X97472500Y-92710000D02*
X97472500Y-87630000D01*
X97472500Y-102870000D02*
X97472500Y-108585000D01*
X205740000Y-112712500D02*
G75*
G03X204152500Y-114300000I0J-1587500D01*
G01*
X207327500Y-114300000D02*
G75*
G03X205740000Y-112712500I-1587500J0D01*
G01*
X205740000Y-82867500D02*
G75*
G03X207327500Y-81280000I0J1587500D01*
G01*
X97472500Y-92710000D02*
X97472500Y-102870000D01*
X100330000Y-144780000D02*
X100965000Y-144780000D01*
X100330000Y-177800000D02*
X100965000Y-177800000D01*
X312420000Y-177800000D02*
X310515000Y-177800000D01*
X310515000Y-144780000D02*
X311150000Y-144780000D01*
X312420000Y-144780000D02*
X310832500Y-144780000D01*
X99060000Y-177800000D02*
X100647500Y-177800000D01*
X99060000Y-144780000D02*
X100647500Y-144780000D01*
X314007500Y-176149000D02*
X314007500Y-146431000D01*
X301371000Y-177800000D02*
X310769000Y-177800000D01*
X314007500Y-176212500D02*
G75*
G03X312420000Y-177800000I0J-1587500D01*
G01*
X312420000Y-144780000D02*
G75*
G03X314007500Y-146367500I1587500J0D01*
G01*
X100711000Y-177800000D02*
X110109000Y-177800000D01*
X97472500Y-146431000D02*
X97472500Y-151130000D01*
X97472500Y-176149000D02*
X97472500Y-172085000D01*
X99060000Y-177800000D02*
G75*
G03X97472500Y-176212500I-1587500J0D01*
G01*
X97472500Y-146367500D02*
G75*
G03X99060000Y-144780000I0J1587500D01*
G01*
X204089000Y-177800000D02*
X113411000Y-177800000D01*
X207391000Y-177800000D02*
X298069000Y-177800000D01*
X204152500Y-144780000D02*
G75*
G03X205740000Y-146367500I1587500J0D01*
G01*
X298132500Y-144780000D02*
G75*
G03X299720000Y-146367500I1587500J0D01*
G01*
X299720000Y-146367500D02*
G75*
G03X301307500Y-144780000I0J1587500D01*
G01*
X299720000Y-176212500D02*
G75*
G03X298132500Y-177800000I0J-1587500D01*
G01*
X301307500Y-177800000D02*
G75*
G03X299720000Y-176212500I-1587500J0D01*
G01*
X113347500Y-177800000D02*
G75*
G03X111760000Y-176212500I-1587500J0D01*
G01*
X111760000Y-176212500D02*
G75*
G03X110172500Y-177800000I0J-1587500D01*
G01*
X111760000Y-146367500D02*
G75*
G03X113347500Y-144780000I0J1587500D01*
G01*
X110172500Y-144780000D02*
G75*
G03X111760000Y-146367500I1587500J0D01*
G01*
X97472500Y-156210000D02*
X97472500Y-151130000D01*
X97472500Y-166370000D02*
X97472500Y-172085000D01*
X205740000Y-176212500D02*
G75*
G03X204152500Y-177800000I0J-1587500D01*
G01*
X207327500Y-177800000D02*
G75*
G03X205740000Y-176212500I-1587500J0D01*
G01*
X205740000Y-146367500D02*
G75*
G03X207327500Y-144780000I0J1587500D01*
G01*
X97472500Y-156210000D02*
X97472500Y-166370000D01*
M02*
