G04 #@! TF.FileFunction,Soldermask,Top*
%FSLAX46Y46*%
G04 Gerber Fmt 4.6, Leading zero omitted, Abs format (unit mm)*
G04 Created by KiCad (PCBNEW 4.0.4-1.fc25-product) date Wed Feb 22 20:12:38 2017*
%MOMM*%
%LPD*%
G01*
G04 APERTURE LIST*
%ADD10C,0.100000*%
%ADD11C,0.900000*%
%ADD12R,1.700000X1.700000*%
%ADD13C,1.700000*%
%ADD14O,2.000000X2.000000*%
%ADD15R,2.127200X2.127200*%
%ADD16O,2.127200X2.127200*%
%ADD17R,2.127200X2.432000*%
%ADD18O,2.127200X2.432000*%
%ADD19C,1.924000*%
%ADD20O,2.432000X2.127200*%
%ADD21R,2.432000X2.432000*%
%ADD22O,2.432000X2.432000*%
%ADD23R,2.000000X2.000000*%
%ADD24C,2.178000*%
G04 APERTURE END LIST*
D10*
D11*
X260350000Y-142410000D03*
X260350000Y-144610000D03*
X261150000Y-142410000D03*
X259550000Y-142410000D03*
X259550000Y-144610000D03*
X261150000Y-144610000D03*
X260350000Y-114470000D03*
X260350000Y-116670000D03*
X261150000Y-114470000D03*
X259550000Y-114470000D03*
X259550000Y-116670000D03*
X261150000Y-116670000D03*
X152400000Y-142410000D03*
X152400000Y-144610000D03*
X153200000Y-142410000D03*
X151600000Y-142410000D03*
X151600000Y-144610000D03*
X153200000Y-144610000D03*
X152400000Y-114470000D03*
X152400000Y-116670000D03*
X153200000Y-114470000D03*
X151600000Y-114470000D03*
X151600000Y-116670000D03*
X153200000Y-116670000D03*
X307340000Y-114470000D03*
X307340000Y-116670000D03*
X308140000Y-114470000D03*
X306540000Y-114470000D03*
X306540000Y-116670000D03*
X308140000Y-116670000D03*
X307340000Y-142410000D03*
X307340000Y-144610000D03*
X308140000Y-142410000D03*
X306540000Y-142410000D03*
X306540000Y-144610000D03*
X308140000Y-144610000D03*
X213360000Y-142410000D03*
X213360000Y-144610000D03*
X214160000Y-142410000D03*
X212560000Y-142410000D03*
X212560000Y-144610000D03*
X214160000Y-144610000D03*
X213360000Y-114470000D03*
X213360000Y-116670000D03*
X214160000Y-114470000D03*
X212560000Y-114470000D03*
X212560000Y-116670000D03*
X214160000Y-116670000D03*
X198120000Y-114470000D03*
X198120000Y-116670000D03*
X198920000Y-114470000D03*
X197320000Y-114470000D03*
X197320000Y-116670000D03*
X198920000Y-116670000D03*
X198120000Y-142410000D03*
X198120000Y-144610000D03*
X198920000Y-142410000D03*
X197320000Y-142410000D03*
X197320000Y-144610000D03*
X198920000Y-144610000D03*
X104140000Y-142410000D03*
X104140000Y-144610000D03*
X104940000Y-142410000D03*
X103340000Y-142410000D03*
X103340000Y-144610000D03*
X104940000Y-144610000D03*
D12*
X173990000Y-131445000D03*
D13*
X176490000Y-131445000D03*
D14*
X191770000Y-120650000D03*
X189230000Y-120650000D03*
X186690000Y-120650000D03*
X184150000Y-120650000D03*
X181610000Y-120650000D03*
X179070000Y-120650000D03*
X176530000Y-120650000D03*
X173990000Y-120650000D03*
X171450000Y-120650000D03*
X168910000Y-120650000D03*
X166370000Y-120650000D03*
X163830000Y-120650000D03*
X161290000Y-120650000D03*
X158750000Y-120650000D03*
X158750000Y-128270000D03*
X161290000Y-128270000D03*
X163830000Y-128270000D03*
X166370000Y-128270000D03*
X168910000Y-128270000D03*
X171450000Y-128270000D03*
X173990000Y-128270000D03*
X176530000Y-128270000D03*
X179070000Y-128270000D03*
X181610000Y-128270000D03*
X184150000Y-128270000D03*
X186690000Y-128270000D03*
X189230000Y-128270000D03*
X191770000Y-128270000D03*
D12*
X194945000Y-139700000D03*
D13*
X197445000Y-139700000D03*
D15*
X188595000Y-134620000D03*
D16*
X191135000Y-134620000D03*
X191135000Y-137160000D03*
X188595000Y-137160000D03*
X191135000Y-139700000D03*
X188595000Y-139700000D03*
D17*
X130175000Y-128270000D03*
D18*
X127635000Y-128270000D03*
X125095000Y-128270000D03*
X122555000Y-128270000D03*
X120015000Y-128270000D03*
X117475000Y-128270000D03*
X114935000Y-128270000D03*
X112395000Y-128270000D03*
X109855000Y-128270000D03*
X107315000Y-128270000D03*
X104775000Y-128270000D03*
X102235000Y-128270000D03*
X99695000Y-128270000D03*
D17*
X125095000Y-130810000D03*
D18*
X122555000Y-130810000D03*
X120015000Y-130810000D03*
X117475000Y-130810000D03*
X114935000Y-130810000D03*
X112395000Y-130810000D03*
X109855000Y-130810000D03*
X107315000Y-130810000D03*
X104775000Y-130810000D03*
D19*
X125095000Y-133350000D03*
X125095000Y-138430000D03*
X122555000Y-133350000D03*
X122555000Y-138430000D03*
X120015000Y-133350000D03*
X120015000Y-138430000D03*
X117475000Y-133350000D03*
X117475000Y-138430000D03*
X114935000Y-133350000D03*
X114935000Y-138430000D03*
X112395000Y-133350000D03*
X112395000Y-138430000D03*
X109855000Y-133350000D03*
X109855000Y-138430000D03*
X107315000Y-133350000D03*
X107315000Y-138430000D03*
X104775000Y-133350000D03*
X104775000Y-138430000D03*
X125095000Y-125730000D03*
X125095000Y-120650000D03*
X122555000Y-125730000D03*
X122555000Y-120650000D03*
X120015000Y-125730000D03*
X120015000Y-120650000D03*
X117475000Y-125730000D03*
X117475000Y-120650000D03*
X109855000Y-125730000D03*
X109855000Y-120650000D03*
X107315000Y-125730000D03*
X107315000Y-120650000D03*
X104775000Y-125730000D03*
X104775000Y-120650000D03*
X197376051Y-137051051D03*
X193783949Y-133458949D03*
D20*
X201295000Y-127000000D03*
X201295000Y-129540000D03*
X201295000Y-132080000D03*
X201295000Y-134620000D03*
X201295000Y-137160000D03*
X201295000Y-139700000D03*
D21*
X201295000Y-121920000D03*
D22*
X201295000Y-119380000D03*
D21*
X99695000Y-121920000D03*
D22*
X99695000Y-119380000D03*
D23*
X154305000Y-120650000D03*
D14*
X136525000Y-128270000D03*
X151765000Y-120650000D03*
X139065000Y-128270000D03*
X149225000Y-120650000D03*
X141605000Y-128270000D03*
X146685000Y-120650000D03*
X144145000Y-128270000D03*
X144145000Y-120650000D03*
X146685000Y-128270000D03*
X141605000Y-120650000D03*
X149225000Y-128270000D03*
X139065000Y-120650000D03*
X151765000Y-128270000D03*
X136525000Y-120650000D03*
X154305000Y-128270000D03*
D23*
X154305000Y-130810000D03*
D14*
X136525000Y-138430000D03*
X151765000Y-130810000D03*
X139065000Y-138430000D03*
X149225000Y-130810000D03*
X141605000Y-138430000D03*
X146685000Y-130810000D03*
X144145000Y-138430000D03*
X144145000Y-130810000D03*
X146685000Y-138430000D03*
X141605000Y-130810000D03*
X149225000Y-138430000D03*
X139065000Y-130810000D03*
X151765000Y-138430000D03*
X136525000Y-130810000D03*
X154305000Y-138430000D03*
D20*
X196215000Y-132080000D03*
X196215000Y-129540000D03*
X196215000Y-127000000D03*
X196215000Y-124460000D03*
X201295000Y-124460000D03*
X99695000Y-124460000D03*
D12*
X283210000Y-131445000D03*
D13*
X285710000Y-131445000D03*
D14*
X300990000Y-120650000D03*
X298450000Y-120650000D03*
X295910000Y-120650000D03*
X293370000Y-120650000D03*
X290830000Y-120650000D03*
X288290000Y-120650000D03*
X285750000Y-120650000D03*
X283210000Y-120650000D03*
X280670000Y-120650000D03*
X278130000Y-120650000D03*
X275590000Y-120650000D03*
X273050000Y-120650000D03*
X270510000Y-120650000D03*
X267970000Y-120650000D03*
X267970000Y-128270000D03*
X270510000Y-128270000D03*
X273050000Y-128270000D03*
X275590000Y-128270000D03*
X278130000Y-128270000D03*
X280670000Y-128270000D03*
X283210000Y-128270000D03*
X285750000Y-128270000D03*
X288290000Y-128270000D03*
X290830000Y-128270000D03*
X293370000Y-128270000D03*
X295910000Y-128270000D03*
X298450000Y-128270000D03*
X300990000Y-128270000D03*
D12*
X304165000Y-139700000D03*
D13*
X306665000Y-139700000D03*
D15*
X297815000Y-134620000D03*
D16*
X300355000Y-134620000D03*
X300355000Y-137160000D03*
X297815000Y-137160000D03*
X300355000Y-139700000D03*
X297815000Y-139700000D03*
D17*
X239395000Y-128270000D03*
D18*
X236855000Y-128270000D03*
X234315000Y-128270000D03*
X231775000Y-128270000D03*
X229235000Y-128270000D03*
X226695000Y-128270000D03*
X224155000Y-128270000D03*
X221615000Y-128270000D03*
X219075000Y-128270000D03*
X216535000Y-128270000D03*
X213995000Y-128270000D03*
X211455000Y-128270000D03*
X208915000Y-128270000D03*
D17*
X234315000Y-130810000D03*
D18*
X231775000Y-130810000D03*
X229235000Y-130810000D03*
X226695000Y-130810000D03*
X224155000Y-130810000D03*
X221615000Y-130810000D03*
X219075000Y-130810000D03*
X216535000Y-130810000D03*
X213995000Y-130810000D03*
D19*
X234315000Y-133350000D03*
X234315000Y-138430000D03*
X231775000Y-133350000D03*
X231775000Y-138430000D03*
X229235000Y-133350000D03*
X229235000Y-138430000D03*
X226695000Y-133350000D03*
X226695000Y-138430000D03*
X224155000Y-133350000D03*
X224155000Y-138430000D03*
X221615000Y-133350000D03*
X221615000Y-138430000D03*
X219075000Y-133350000D03*
X219075000Y-138430000D03*
X216535000Y-133350000D03*
X216535000Y-138430000D03*
X213995000Y-133350000D03*
X213995000Y-138430000D03*
X234315000Y-125730000D03*
X234315000Y-120650000D03*
X231775000Y-125730000D03*
X231775000Y-120650000D03*
X229235000Y-125730000D03*
X229235000Y-120650000D03*
X226695000Y-125730000D03*
X226695000Y-120650000D03*
X219075000Y-125730000D03*
X219075000Y-120650000D03*
X216535000Y-125730000D03*
X216535000Y-120650000D03*
X213995000Y-125730000D03*
X213995000Y-120650000D03*
X306596051Y-137051051D03*
X303003949Y-133458949D03*
D20*
X310515000Y-127000000D03*
X310515000Y-129540000D03*
X310515000Y-132080000D03*
X310515000Y-134620000D03*
X310515000Y-137160000D03*
X310515000Y-139700000D03*
D21*
X310515000Y-121920000D03*
D22*
X310515000Y-119380000D03*
D21*
X208915000Y-121920000D03*
D22*
X208915000Y-119380000D03*
D23*
X263525000Y-120650000D03*
D14*
X245745000Y-128270000D03*
X260985000Y-120650000D03*
X248285000Y-128270000D03*
X258445000Y-120650000D03*
X250825000Y-128270000D03*
X255905000Y-120650000D03*
X253365000Y-128270000D03*
X253365000Y-120650000D03*
X255905000Y-128270000D03*
X250825000Y-120650000D03*
X258445000Y-128270000D03*
X248285000Y-120650000D03*
X260985000Y-128270000D03*
X245745000Y-120650000D03*
X263525000Y-128270000D03*
D23*
X263525000Y-130810000D03*
D14*
X245745000Y-138430000D03*
X260985000Y-130810000D03*
X248285000Y-138430000D03*
X258445000Y-130810000D03*
X250825000Y-138430000D03*
X255905000Y-130810000D03*
X253365000Y-138430000D03*
X253365000Y-130810000D03*
X255905000Y-138430000D03*
X250825000Y-130810000D03*
X258445000Y-138430000D03*
X248285000Y-130810000D03*
X260985000Y-138430000D03*
X245745000Y-130810000D03*
X263525000Y-138430000D03*
D20*
X305435000Y-132080000D03*
X305435000Y-129540000D03*
X305435000Y-127000000D03*
X305435000Y-124460000D03*
X310515000Y-124460000D03*
X208915000Y-124460000D03*
X106680000Y-100330000D03*
X106680000Y-97790000D03*
X106680000Y-95250000D03*
X106680000Y-92710000D03*
D24*
X105092500Y-108790000D03*
X107632500Y-108790000D03*
X110172500Y-108790000D03*
X112712500Y-108790000D03*
X115252500Y-108790000D03*
X117792500Y-108790000D03*
X120332500Y-108790000D03*
X122872500Y-108790000D03*
X125412500Y-108790000D03*
X105092500Y-86790000D03*
X107632500Y-86790000D03*
X110172500Y-86790000D03*
X112712500Y-86790000D03*
X115252500Y-86790000D03*
X117792500Y-86790000D03*
X120332500Y-86790000D03*
X122872500Y-86790000D03*
X125412500Y-86790000D03*
X141287500Y-108790000D03*
X143827500Y-108790000D03*
X146367500Y-108790000D03*
X148907500Y-108790000D03*
X151447500Y-108790000D03*
X153987500Y-108790000D03*
X156527500Y-108790000D03*
X159067500Y-108790000D03*
X161607500Y-108790000D03*
X141287500Y-86790000D03*
X143827500Y-86790000D03*
X146367500Y-86790000D03*
X148907500Y-86790000D03*
X151447500Y-86790000D03*
X153987500Y-86790000D03*
X156527500Y-86790000D03*
X159067500Y-86790000D03*
X161607500Y-86790000D03*
X286067500Y-108790000D03*
X288607500Y-108790000D03*
X291147500Y-108790000D03*
X293687500Y-108790000D03*
X296227500Y-108790000D03*
X298767500Y-108790000D03*
X301307500Y-108790000D03*
X303847500Y-108790000D03*
X306387500Y-108790000D03*
X286067500Y-86790000D03*
X288607500Y-86790000D03*
X291147500Y-86790000D03*
X293687500Y-86790000D03*
X296227500Y-86790000D03*
X298767500Y-86790000D03*
X301307500Y-86790000D03*
X303847500Y-86790000D03*
X306387500Y-86790000D03*
X177482500Y-108790000D03*
X180022500Y-108790000D03*
X182562500Y-108790000D03*
X185102500Y-108790000D03*
X187642500Y-108790000D03*
X190182500Y-108790000D03*
X192722500Y-108790000D03*
X195262500Y-108790000D03*
X197802500Y-108790000D03*
X177482500Y-86790000D03*
X180022500Y-86790000D03*
X182562500Y-86790000D03*
X185102500Y-86790000D03*
X187642500Y-86790000D03*
X190182500Y-86790000D03*
X192722500Y-86790000D03*
X195262500Y-86790000D03*
X197802500Y-86790000D03*
X213677500Y-108790000D03*
X216217500Y-108790000D03*
X218757500Y-108790000D03*
X221297500Y-108790000D03*
X223837500Y-108790000D03*
X226377500Y-108790000D03*
X228917500Y-108790000D03*
X231457500Y-108790000D03*
X233997500Y-108790000D03*
X213677500Y-86790000D03*
X216217500Y-86790000D03*
X218757500Y-86790000D03*
X221297500Y-86790000D03*
X223837500Y-86790000D03*
X226377500Y-86790000D03*
X228917500Y-86790000D03*
X231457500Y-86790000D03*
X233997500Y-86790000D03*
X249872500Y-108790000D03*
X252412500Y-108790000D03*
X254952500Y-108790000D03*
X257492500Y-108790000D03*
X260032500Y-108790000D03*
X262572500Y-108790000D03*
X265112500Y-108790000D03*
X267652500Y-108790000D03*
X270192500Y-108790000D03*
X249872500Y-86790000D03*
X252412500Y-86790000D03*
X254952500Y-86790000D03*
X257492500Y-86790000D03*
X260032500Y-86790000D03*
X262572500Y-86790000D03*
X265112500Y-86790000D03*
X267652500Y-86790000D03*
X270192500Y-86790000D03*
D17*
X172720000Y-96520000D03*
D18*
X175260000Y-96520000D03*
X177800000Y-96520000D03*
X180340000Y-96520000D03*
X182880000Y-96520000D03*
X185420000Y-96520000D03*
X187960000Y-96520000D03*
X190500000Y-96520000D03*
X193040000Y-96520000D03*
X195580000Y-96520000D03*
X198120000Y-96520000D03*
X200660000Y-96520000D03*
X203200000Y-96520000D03*
D17*
X177800000Y-99060000D03*
D18*
X180340000Y-99060000D03*
X182880000Y-99060000D03*
X185420000Y-99060000D03*
X187960000Y-99060000D03*
X190500000Y-99060000D03*
X193040000Y-99060000D03*
X195580000Y-99060000D03*
X198120000Y-99060000D03*
D20*
X106680000Y-163830000D03*
X106680000Y-161290000D03*
X106680000Y-158750000D03*
X106680000Y-156210000D03*
D24*
X105092500Y-172290000D03*
X107632500Y-172290000D03*
X110172500Y-172290000D03*
X112712500Y-172290000D03*
X115252500Y-172290000D03*
X117792500Y-172290000D03*
X120332500Y-172290000D03*
X122872500Y-172290000D03*
X125412500Y-172290000D03*
X105092500Y-150290000D03*
X107632500Y-150290000D03*
X110172500Y-150290000D03*
X112712500Y-150290000D03*
X115252500Y-150290000D03*
X117792500Y-150290000D03*
X120332500Y-150290000D03*
X122872500Y-150290000D03*
X125412500Y-150290000D03*
X141287500Y-172290000D03*
X143827500Y-172290000D03*
X146367500Y-172290000D03*
X148907500Y-172290000D03*
X151447500Y-172290000D03*
X153987500Y-172290000D03*
X156527500Y-172290000D03*
X159067500Y-172290000D03*
X161607500Y-172290000D03*
X141287500Y-150290000D03*
X143827500Y-150290000D03*
X146367500Y-150290000D03*
X148907500Y-150290000D03*
X151447500Y-150290000D03*
X153987500Y-150290000D03*
X156527500Y-150290000D03*
X159067500Y-150290000D03*
X161607500Y-150290000D03*
X286067500Y-172290000D03*
X288607500Y-172290000D03*
X291147500Y-172290000D03*
X293687500Y-172290000D03*
X296227500Y-172290000D03*
X298767500Y-172290000D03*
X301307500Y-172290000D03*
X303847500Y-172290000D03*
X306387500Y-172290000D03*
X286067500Y-150290000D03*
X288607500Y-150290000D03*
X291147500Y-150290000D03*
X293687500Y-150290000D03*
X296227500Y-150290000D03*
X298767500Y-150290000D03*
X301307500Y-150290000D03*
X303847500Y-150290000D03*
X306387500Y-150290000D03*
X177482500Y-172290000D03*
X180022500Y-172290000D03*
X182562500Y-172290000D03*
X185102500Y-172290000D03*
X187642500Y-172290000D03*
X190182500Y-172290000D03*
X192722500Y-172290000D03*
X195262500Y-172290000D03*
X197802500Y-172290000D03*
X177482500Y-150290000D03*
X180022500Y-150290000D03*
X182562500Y-150290000D03*
X185102500Y-150290000D03*
X187642500Y-150290000D03*
X190182500Y-150290000D03*
X192722500Y-150290000D03*
X195262500Y-150290000D03*
X197802500Y-150290000D03*
X213677500Y-172290000D03*
X216217500Y-172290000D03*
X218757500Y-172290000D03*
X221297500Y-172290000D03*
X223837500Y-172290000D03*
X226377500Y-172290000D03*
X228917500Y-172290000D03*
X231457500Y-172290000D03*
X233997500Y-172290000D03*
X213677500Y-150290000D03*
X216217500Y-150290000D03*
X218757500Y-150290000D03*
X221297500Y-150290000D03*
X223837500Y-150290000D03*
X226377500Y-150290000D03*
X228917500Y-150290000D03*
X231457500Y-150290000D03*
X233997500Y-150290000D03*
X249872500Y-172290000D03*
X252412500Y-172290000D03*
X254952500Y-172290000D03*
X257492500Y-172290000D03*
X260032500Y-172290000D03*
X262572500Y-172290000D03*
X265112500Y-172290000D03*
X267652500Y-172290000D03*
X270192500Y-172290000D03*
X249872500Y-150290000D03*
X252412500Y-150290000D03*
X254952500Y-150290000D03*
X257492500Y-150290000D03*
X260032500Y-150290000D03*
X262572500Y-150290000D03*
X265112500Y-150290000D03*
X267652500Y-150290000D03*
X270192500Y-150290000D03*
D17*
X172720000Y-160020000D03*
D18*
X175260000Y-160020000D03*
X177800000Y-160020000D03*
X180340000Y-160020000D03*
X182880000Y-160020000D03*
X185420000Y-160020000D03*
X187960000Y-160020000D03*
X190500000Y-160020000D03*
X193040000Y-160020000D03*
X195580000Y-160020000D03*
X198120000Y-160020000D03*
X200660000Y-160020000D03*
X203200000Y-160020000D03*
D17*
X177800000Y-162560000D03*
D18*
X180340000Y-162560000D03*
X182880000Y-162560000D03*
X185420000Y-162560000D03*
X187960000Y-162560000D03*
X190500000Y-162560000D03*
X193040000Y-162560000D03*
X195580000Y-162560000D03*
X198120000Y-162560000D03*
D11*
X104140000Y-114470000D03*
X104140000Y-116670000D03*
X104940000Y-114470000D03*
X103340000Y-114470000D03*
X103340000Y-116670000D03*
X104940000Y-116670000D03*
M02*
